%TF.GenerationSoftware,KiCad,Pcbnew,5.1.10-88a1d61d58~88~ubuntu20.04.1*%
%TF.CreationDate,2021-06-14T10:10:26+02:00*%
%TF.ProjectId,connected_tiles,636f6e6e-6563-4746-9564-5f74696c6573,rev?*%
%TF.SameCoordinates,Original*%
%TF.FileFunction,Copper,L1,Top*%
%TF.FilePolarity,Positive*%
%FSLAX46Y46*%
G04 Gerber Fmt 4.6, Leading zero omitted, Abs format (unit mm)*
G04 Created by KiCad (PCBNEW 5.1.10-88a1d61d58~88~ubuntu20.04.1) date 2021-06-14 10:10:26*
%MOMM*%
%LPD*%
G01*
G04 APERTURE LIST*
%TA.AperFunction,ComponentPad*%
%ADD10O,1.700000X1.700000*%
%TD*%
%TA.AperFunction,ComponentPad*%
%ADD11R,1.700000X1.700000*%
%TD*%
%TA.AperFunction,SMDPad,CuDef*%
%ADD12R,0.558800X0.863600*%
%TD*%
%TA.AperFunction,SMDPad,CuDef*%
%ADD13C,0.100000*%
%TD*%
%TA.AperFunction,Conductor*%
%ADD14C,1.000000*%
%TD*%
%TA.AperFunction,Conductor*%
%ADD15C,0.500000*%
%TD*%
G04 APERTURE END LIST*
%TO.P,C1,2*%
%TO.N,/GND*%
%TA.AperFunction,SMDPad,CuDef*%
G36*
G01*
X61100000Y-144410000D02*
X60900000Y-144410000D01*
G75*
G02*
X60800000Y-144310000I0J100000D01*
G01*
X60800000Y-144050000D01*
G75*
G02*
X60900000Y-143950000I100000J0D01*
G01*
X61100000Y-143950000D01*
G75*
G02*
X61200000Y-144050000I0J-100000D01*
G01*
X61200000Y-144310000D01*
G75*
G02*
X61100000Y-144410000I-100000J0D01*
G01*
G37*
%TD.AperFunction*%
%TO.P,C1,1*%
%TO.N,/VCC*%
%TA.AperFunction,SMDPad,CuDef*%
G36*
G01*
X61100000Y-145050000D02*
X60900000Y-145050000D01*
G75*
G02*
X60800000Y-144950000I0J100000D01*
G01*
X60800000Y-144690000D01*
G75*
G02*
X60900000Y-144590000I100000J0D01*
G01*
X61100000Y-144590000D01*
G75*
G02*
X61200000Y-144690000I0J-100000D01*
G01*
X61200000Y-144950000D01*
G75*
G02*
X61100000Y-145050000I-100000J0D01*
G01*
G37*
%TD.AperFunction*%
%TD*%
D10*
%TO.P,J1,5*%
%TO.N,/DOUT*%
X79500000Y-150080000D03*
%TO.P,J1,4*%
%TO.N,/GND*%
X79500000Y-147540000D03*
%TO.P,J1,3*%
%TO.N,/VCC*%
X79500000Y-145000000D03*
%TO.P,J1,2*%
%TO.N,/GND*%
X79500000Y-142460000D03*
D11*
%TO.P,J1,1*%
%TO.N,/DIN*%
X79500000Y-139920000D03*
%TD*%
%TO.P,J4,1*%
%TO.N,Net-(J4-Pad1)*%
X65000000Y-138500000D03*
%TD*%
D10*
%TO.P,J0,5*%
%TO.N,/DOUT*%
X59920000Y-159500000D03*
%TO.P,J0,4*%
%TO.N,/GND*%
X62460000Y-159500000D03*
%TO.P,J0,3*%
%TO.N,/VCC*%
X65000000Y-159500000D03*
%TO.P,J0,2*%
%TO.N,/GND*%
X67540000Y-159500000D03*
D11*
%TO.P,J0,1*%
%TO.N,/DIN*%
X70080000Y-159500000D03*
%TD*%
D10*
%TO.P,J2,5*%
%TO.N,/DOUT*%
X70080000Y-130500000D03*
%TO.P,J2,4*%
%TO.N,/GND*%
X67540000Y-130500000D03*
%TO.P,J2,3*%
%TO.N,/VCC*%
X65000000Y-130500000D03*
%TO.P,J2,2*%
%TO.N,/GND*%
X62460000Y-130500000D03*
D11*
%TO.P,J2,1*%
%TO.N,/DIN*%
X59920000Y-130500000D03*
%TD*%
D10*
%TO.P,J3,5*%
%TO.N,/DOUT*%
X50500000Y-139920000D03*
%TO.P,J3,4*%
%TO.N,/GND*%
X50500000Y-142460000D03*
%TO.P,J3,3*%
%TO.N,/VCC*%
X50500000Y-145000000D03*
%TO.P,J3,2*%
%TO.N,/GND*%
X50500000Y-147540000D03*
D11*
%TO.P,J3,1*%
%TO.N,/DIN*%
X50500000Y-150080000D03*
%TD*%
D12*
%TO.P,U1,3*%
%TO.N,/GND*%
X65000000Y-143730000D03*
%TO.P,U1,2*%
%TO.N,Net-(J4-Pad1)*%
X65939800Y-146270000D03*
%TO.P,U1,1*%
%TO.N,/VCC*%
X64060200Y-146270000D03*
%TD*%
%TA.AperFunction,SMDPad,CuDef*%
D13*
%TO.P,D3,3*%
%TO.N,/VCC*%
G36*
X46959441Y-131484924D02*
G01*
X46252335Y-130777818D01*
X47312995Y-129717158D01*
X48020101Y-130424264D01*
X46959441Y-131484924D01*
G37*
%TD.AperFunction*%
%TA.AperFunction,SMDPad,CuDef*%
%TO.P,D3,4*%
%TO.N,/DOUT*%
G36*
X49222182Y-133747665D02*
G01*
X48515076Y-133040559D01*
X49575736Y-131979899D01*
X50282842Y-132687005D01*
X49222182Y-133747665D01*
G37*
%TD.AperFunction*%
%TA.AperFunction,SMDPad,CuDef*%
%TO.P,D3,2*%
%TO.N,Net-(D2-Pad4)*%
G36*
X50424264Y-128020101D02*
G01*
X49717158Y-127312995D01*
X50777818Y-126252335D01*
X51484924Y-126959441D01*
X50424264Y-128020101D01*
G37*
%TD.AperFunction*%
%TA.AperFunction,SMDPad,CuDef*%
%TO.P,D3,1*%
%TO.N,/GND*%
G36*
X52687005Y-130282842D02*
G01*
X51979899Y-129575736D01*
X53040559Y-128515076D01*
X53747665Y-129222182D01*
X52687005Y-130282842D01*
G37*
%TD.AperFunction*%
%TD*%
%TA.AperFunction,SMDPad,CuDef*%
%TO.P,D2,3*%
%TO.N,/VCC*%
G36*
X78515076Y-126959441D02*
G01*
X79222182Y-126252335D01*
X80282842Y-127312995D01*
X79575736Y-128020101D01*
X78515076Y-126959441D01*
G37*
%TD.AperFunction*%
%TA.AperFunction,SMDPad,CuDef*%
%TO.P,D2,4*%
%TO.N,Net-(D2-Pad4)*%
G36*
X76252335Y-129222182D02*
G01*
X76959441Y-128515076D01*
X78020101Y-129575736D01*
X77312995Y-130282842D01*
X76252335Y-129222182D01*
G37*
%TD.AperFunction*%
%TA.AperFunction,SMDPad,CuDef*%
%TO.P,D2,2*%
%TO.N,Net-(D1-Pad4)*%
G36*
X81979899Y-130424264D02*
G01*
X82687005Y-129717158D01*
X83747665Y-130777818D01*
X83040559Y-131484924D01*
X81979899Y-130424264D01*
G37*
%TD.AperFunction*%
%TA.AperFunction,SMDPad,CuDef*%
%TO.P,D2,1*%
%TO.N,/GND*%
G36*
X79717158Y-132687005D02*
G01*
X80424264Y-131979899D01*
X81484924Y-133040559D01*
X80777818Y-133747665D01*
X79717158Y-132687005D01*
G37*
%TD.AperFunction*%
%TD*%
%TA.AperFunction,SMDPad,CuDef*%
%TO.P,D1,3*%
%TO.N,/VCC*%
G36*
X83040559Y-158515076D02*
G01*
X83747665Y-159222182D01*
X82687005Y-160282842D01*
X81979899Y-159575736D01*
X83040559Y-158515076D01*
G37*
%TD.AperFunction*%
%TA.AperFunction,SMDPad,CuDef*%
%TO.P,D1,4*%
%TO.N,Net-(D1-Pad4)*%
G36*
X80777818Y-156252335D02*
G01*
X81484924Y-156959441D01*
X80424264Y-158020101D01*
X79717158Y-157312995D01*
X80777818Y-156252335D01*
G37*
%TD.AperFunction*%
%TA.AperFunction,SMDPad,CuDef*%
%TO.P,D1,2*%
%TO.N,Net-(D0-Pad4)*%
G36*
X79575736Y-161979899D02*
G01*
X80282842Y-162687005D01*
X79222182Y-163747665D01*
X78515076Y-163040559D01*
X79575736Y-161979899D01*
G37*
%TD.AperFunction*%
%TA.AperFunction,SMDPad,CuDef*%
%TO.P,D1,1*%
%TO.N,/GND*%
G36*
X77312995Y-159717158D02*
G01*
X78020101Y-160424264D01*
X76959441Y-161484924D01*
X76252335Y-160777818D01*
X77312995Y-159717158D01*
G37*
%TD.AperFunction*%
%TD*%
%TA.AperFunction,SMDPad,CuDef*%
%TO.P,D0,3*%
%TO.N,/VCC*%
G36*
X51484924Y-163040559D02*
G01*
X50777818Y-163747665D01*
X49717158Y-162687005D01*
X50424264Y-161979899D01*
X51484924Y-163040559D01*
G37*
%TD.AperFunction*%
%TA.AperFunction,SMDPad,CuDef*%
%TO.P,D0,4*%
%TO.N,Net-(D0-Pad4)*%
G36*
X53747665Y-160777818D02*
G01*
X53040559Y-161484924D01*
X51979899Y-160424264D01*
X52687005Y-159717158D01*
X53747665Y-160777818D01*
G37*
%TD.AperFunction*%
%TA.AperFunction,SMDPad,CuDef*%
%TO.P,D0,2*%
%TO.N,/DIN*%
G36*
X48020101Y-159575736D02*
G01*
X47312995Y-160282842D01*
X46252335Y-159222182D01*
X46959441Y-158515076D01*
X48020101Y-159575736D01*
G37*
%TD.AperFunction*%
%TA.AperFunction,SMDPad,CuDef*%
%TO.P,D0,1*%
%TO.N,/GND*%
G36*
X50282842Y-157312995D02*
G01*
X49575736Y-158020101D01*
X48515076Y-156959441D01*
X49222182Y-156252335D01*
X50282842Y-157312995D01*
G37*
%TD.AperFunction*%
%TD*%
D14*
%TO.N,Net-(D0-Pad4)*%
X52863782Y-160601041D02*
X56762741Y-164500000D01*
X77762741Y-164500000D02*
X79398959Y-162863782D01*
X56762741Y-164500000D02*
X77762741Y-164500000D01*
%TO.N,Net-(D1-Pad4)*%
X80601041Y-157136218D02*
X84500000Y-153237259D01*
X84500000Y-132237259D02*
X82863782Y-130601041D01*
X84500000Y-153237259D02*
X84500000Y-132237259D01*
%TO.N,Net-(D2-Pad4)*%
X77136218Y-129398959D02*
X73237259Y-125500000D01*
X52237259Y-125500000D02*
X50601041Y-127136218D01*
X73237259Y-125500000D02*
X52237259Y-125500000D01*
%TO.N,/VCC*%
X64060200Y-146270000D02*
X62770000Y-146270000D01*
X62770000Y-146270000D02*
X62230000Y-146270000D01*
D15*
X62230000Y-146270000D02*
X61770000Y-146270000D01*
D14*
X65000000Y-159500000D02*
X65000000Y-149500000D01*
X64060200Y-148560200D02*
X64060200Y-146270000D01*
X65000000Y-149500000D02*
X64060200Y-148560200D01*
X55000000Y-145000000D02*
X50500000Y-145000000D01*
X56270000Y-146270000D02*
X55000000Y-145000000D01*
D15*
X61000000Y-146000000D02*
X60730000Y-146270000D01*
X61000000Y-144860010D02*
X61000000Y-146000000D01*
D14*
X60730000Y-146270000D02*
X56270000Y-146270000D01*
X62230000Y-146270000D02*
X60730000Y-146270000D01*
X79500000Y-145000000D02*
X73000000Y-145000000D01*
X68500000Y-149500000D02*
X65000000Y-149500000D01*
X73000000Y-145000000D02*
X68500000Y-149500000D01*
X65000000Y-130500000D02*
X65000000Y-133500000D01*
X73000000Y-141500000D02*
X73000000Y-145000000D01*
X65000000Y-133500000D02*
X73000000Y-141500000D01*
X79500000Y-145000000D02*
X81500000Y-145000000D01*
X81500000Y-145000000D02*
X82500000Y-146000000D01*
X82500000Y-146000000D02*
X82500000Y-152000000D01*
X82500000Y-152000000D02*
X78500000Y-156000000D01*
X78500000Y-156000000D02*
X78500000Y-158500000D01*
X78500000Y-158500000D02*
X80000000Y-160000000D01*
X82262741Y-160000000D02*
X82863782Y-159398959D01*
X80000000Y-160000000D02*
X82262741Y-160000000D01*
X82863782Y-159398959D02*
X87500000Y-154762741D01*
X87500000Y-154762741D02*
X87500000Y-130500000D01*
X84136218Y-127136218D02*
X79398959Y-127136218D01*
X87500000Y-130500000D02*
X84136218Y-127136218D01*
X79398959Y-127136218D02*
X74500000Y-122237259D01*
X74500000Y-122237259D02*
X51262741Y-122237259D01*
X47136218Y-126363782D02*
X47136218Y-130601041D01*
X51262741Y-122237259D02*
X47136218Y-126363782D01*
X47136218Y-130601041D02*
X42737259Y-135000000D01*
X42737259Y-135000000D02*
X42737259Y-159237259D01*
X46363782Y-162863782D02*
X50601041Y-162863782D01*
X42737259Y-159237259D02*
X46363782Y-162863782D01*
%TO.N,/GND*%
X65000000Y-143730000D02*
X65000000Y-144000000D01*
X65000000Y-143730000D02*
X65000000Y-144500000D01*
D15*
X61050000Y-142550000D02*
X61050000Y-144130000D01*
D14*
X50500000Y-142460000D02*
X49040000Y-142460000D01*
X49040000Y-142460000D02*
X47500000Y-144000000D01*
X50500000Y-147540000D02*
X49040000Y-147540000D01*
X47500000Y-146000000D02*
X47500000Y-144000000D01*
X49040000Y-147540000D02*
X47500000Y-146000000D01*
X62460000Y-159500000D02*
X62460000Y-160960000D01*
X62460000Y-160960000D02*
X64000000Y-162500000D01*
X67540000Y-159500000D02*
X67540000Y-160960000D01*
X66000000Y-162500000D02*
X64000000Y-162500000D01*
X67540000Y-160960000D02*
X66000000Y-162500000D01*
X62460000Y-129040000D02*
X62460000Y-130500000D01*
X64000000Y-127500000D02*
X62460000Y-129040000D01*
X66000000Y-127500000D02*
X64000000Y-127500000D01*
X67540000Y-129040000D02*
X66000000Y-127500000D01*
X67540000Y-130500000D02*
X67540000Y-129040000D01*
X67540000Y-159500000D02*
X67540000Y-156460000D01*
X76540000Y-147540000D02*
X79500000Y-147540000D01*
X76500000Y-147500000D02*
X76540000Y-147540000D01*
X79500000Y-142460000D02*
X76460000Y-142460000D01*
X67540000Y-133540000D02*
X67540000Y-130500000D01*
X62460000Y-130500000D02*
X62460000Y-133540000D01*
X53540000Y-142460000D02*
X50500000Y-142460000D01*
X50500000Y-147540000D02*
X53540000Y-147540000D01*
X62460000Y-156460000D02*
X62460000Y-159500000D01*
X65000000Y-143000000D02*
X65000000Y-143730000D01*
X64460000Y-142460000D02*
X65000000Y-143000000D01*
X53540000Y-142460000D02*
X64460000Y-142460000D01*
X56035177Y-150500000D02*
X49398959Y-157136218D01*
X56500000Y-150500000D02*
X56035177Y-150500000D01*
X53540000Y-147540000D02*
X56500000Y-150500000D01*
X56500000Y-150500000D02*
X62460000Y-156460000D01*
X70285177Y-153750000D02*
X77136218Y-160601041D01*
X70250000Y-153750000D02*
X70285177Y-153750000D01*
X67540000Y-156460000D02*
X70250000Y-153750000D01*
X70250000Y-153750000D02*
X76500000Y-147500000D01*
X74000000Y-139464823D02*
X80601041Y-132863782D01*
X74000000Y-140000000D02*
X74000000Y-139464823D01*
X76460000Y-142460000D02*
X74000000Y-140000000D01*
X74000000Y-140000000D02*
X67540000Y-133540000D01*
X59464823Y-136000000D02*
X52863782Y-129398959D01*
X60000000Y-136000000D02*
X59464823Y-136000000D01*
X62460000Y-133540000D02*
X60000000Y-136000000D01*
X60000000Y-136000000D02*
X53540000Y-142460000D01*
%TO.N,/DIN*%
X50500000Y-150080000D02*
X48420000Y-150080000D01*
X48420000Y-150080000D02*
X45500000Y-153000000D01*
X45500000Y-157762741D02*
X47136218Y-159398959D01*
X45500000Y-153000000D02*
X45500000Y-157762741D01*
%TO.N,/DOUT*%
X50500000Y-139920000D02*
X48580000Y-138000000D01*
X48580000Y-133682741D02*
X49398959Y-132863782D01*
X48580000Y-138000000D02*
X48580000Y-133682741D01*
%TO.N,Net-(J4-Pad1)*%
X65939800Y-146270000D02*
X67230000Y-146270000D01*
X67230000Y-146270000D02*
X68500000Y-145000000D01*
X68500000Y-145000000D02*
X68500000Y-140000000D01*
X68500000Y-140000000D02*
X67000000Y-138500000D01*
X67000000Y-138500000D02*
X65000000Y-138500000D01*
%TD*%
M02*
