M48
; DRILL file {KiCad 5.1.10-88a1d61d58~88~ubuntu20.04.1} date Mon Jun 14 10:10:10 2021
; FORMAT={-:-/ absolute / inch / decimal}
; #@! TF.CreationDate,2021-06-14T10:10:10+02:00
; #@! TF.GenerationSoftware,Kicad,Pcbnew,5.1.10-88a1d61d58~88~ubuntu20.04.1
FMAT,2
INCH
T1C0.0394
%
G90
G05
T1
X1.9882Y-5.5087
X1.9882Y-5.6087
X1.9882Y-5.7087
X1.9882Y-5.8087
X1.9882Y-5.9087
X2.3591Y-5.1378
X2.3591Y-6.2795
X2.4591Y-5.1378
X2.4591Y-6.2795
X2.5591Y-5.1378
X2.5591Y-5.4528
X2.5591Y-6.2795
X2.6591Y-5.1378
X2.6591Y-6.2795
X2.7591Y-5.1378
X2.7591Y-6.2795
X3.1299Y-5.5087
X3.1299Y-5.6087
X3.1299Y-5.7087
X3.1299Y-5.8087
X3.1299Y-5.9087
T0
M30
