G04 #@! TF.GenerationSoftware,KiCad,Pcbnew,7.0.5-4d25ed1034~172~ubuntu22.04.1*
G04 #@! TF.CreationDate,2023-06-02T18:33:25-04:00*
G04 #@! TF.ProjectId,v2,76322e6b-6963-4616-945f-706362585858,rev?*
G04 #@! TF.SameCoordinates,Original*
G04 #@! TF.FileFunction,Legend,Bot*
G04 #@! TF.FilePolarity,Positive*
%FSLAX46Y46*%
G04 Gerber Fmt 4.6, Leading zero omitted, Abs format (unit mm)*
G04 Created by KiCad (PCBNEW 7.0.5-4d25ed1034~172~ubuntu22.04.1) date 2023-06-02 18:33:25*
%MOMM*%
%LPD*%
G01*
G04 APERTURE LIST*
%ADD10C,1.900000*%
%ADD11R,1.900000X1.900000*%
%ADD12R,1.700000X1.700000*%
%ADD13O,1.700000X1.700000*%
G04 APERTURE END LIST*
%LPC*%
D10*
X88570000Y-76500000D03*
X91110000Y-76500000D03*
X93650000Y-76500000D03*
X96190000Y-76500000D03*
D11*
X98730000Y-76500000D03*
X101270000Y-76500000D03*
D10*
X103810000Y-76500000D03*
X106350000Y-76500000D03*
X108890000Y-76500000D03*
X111430000Y-76500000D03*
D12*
X109500000Y-94900000D03*
D13*
X109500000Y-97440000D03*
X109500000Y-99980000D03*
X109500000Y-102520000D03*
X109500000Y-105060000D03*
X109500000Y-107600000D03*
D10*
X111430000Y-123500000D03*
X108890000Y-123500000D03*
X106350000Y-123500000D03*
X103810000Y-123500000D03*
D11*
X101270000Y-123500000D03*
X98730000Y-123500000D03*
D10*
X96190000Y-123500000D03*
X93650000Y-123500000D03*
X91110000Y-123500000D03*
X88570000Y-123500000D03*
X123500000Y-88570000D03*
X123500000Y-91110000D03*
X123500000Y-93650000D03*
X123500000Y-96190000D03*
D11*
X123500000Y-98730000D03*
X123500000Y-101270000D03*
D10*
X123500000Y-103810000D03*
X123500000Y-106350000D03*
X123500000Y-108890000D03*
X123500000Y-111430000D03*
X76500000Y-111430000D03*
X76500000Y-108890000D03*
X76500000Y-106350000D03*
X76500000Y-103810000D03*
D11*
X76500000Y-101270000D03*
X76500000Y-98730000D03*
D10*
X76500000Y-96190000D03*
X76500000Y-93650000D03*
X76500000Y-91110000D03*
X76500000Y-88570000D03*
%LPD*%
M02*
