G04 #@! TF.GenerationSoftware,KiCad,Pcbnew,7.0.2-6a45011f42~172~ubuntu22.04.1*
G04 #@! TF.CreationDate,2023-05-08T10:08:59-04:00*
G04 #@! TF.ProjectId,v2,76322e6b-6963-4616-945f-706362585858,rev?*
G04 #@! TF.SameCoordinates,Original*
G04 #@! TF.FileFunction,Copper,L2,Bot*
G04 #@! TF.FilePolarity,Positive*
%FSLAX46Y46*%
G04 Gerber Fmt 4.6, Leading zero omitted, Abs format (unit mm)*
G04 Created by KiCad (PCBNEW 7.0.2-6a45011f42~172~ubuntu22.04.1) date 2023-05-08 10:08:59*
%MOMM*%
%LPD*%
G01*
G04 APERTURE LIST*
G04 #@! TA.AperFunction,ComponentPad*
%ADD10O,1.700000X1.700000*%
G04 #@! TD*
G04 #@! TA.AperFunction,ComponentPad*
%ADD11R,1.700000X1.700000*%
G04 #@! TD*
G04 #@! TA.AperFunction,ViaPad*
%ADD12C,0.800000*%
G04 #@! TD*
G04 #@! TA.AperFunction,Conductor*
%ADD13C,0.250000*%
G04 #@! TD*
G04 APERTURE END LIST*
D10*
X87300000Y-121800000D03*
X89840000Y-121800000D03*
X92380000Y-121800000D03*
X94920000Y-121800000D03*
D11*
X97460000Y-121800000D03*
D10*
X109500000Y-107600000D03*
X109500000Y-105060000D03*
X109500000Y-102520000D03*
X109500000Y-99980000D03*
X109500000Y-97440000D03*
D11*
X109500000Y-94900000D03*
X102540000Y-78200000D03*
D10*
X105080000Y-78200000D03*
X107620000Y-78200000D03*
X110160000Y-78200000D03*
X112700000Y-78200000D03*
X121800000Y-112700000D03*
X121800000Y-110160000D03*
X121800000Y-107620000D03*
X121800000Y-105080000D03*
D11*
X121800000Y-102540000D03*
X81100000Y-112740000D03*
D10*
X81100000Y-110200000D03*
X81100000Y-107660000D03*
X81100000Y-105120000D03*
X81100000Y-102580000D03*
D11*
X118900000Y-87260000D03*
D10*
X118900000Y-89800000D03*
X118900000Y-92340000D03*
X118900000Y-94880000D03*
X118900000Y-97420000D03*
X78200000Y-87300000D03*
X78200000Y-89840000D03*
X78200000Y-92380000D03*
X78200000Y-94920000D03*
D11*
X78200000Y-97460000D03*
X87260000Y-81100000D03*
D10*
X89800000Y-81100000D03*
X92340000Y-81100000D03*
X94880000Y-81100000D03*
X97420000Y-81100000D03*
X102580000Y-118900000D03*
X105120000Y-118900000D03*
X107660000Y-118900000D03*
X110200000Y-118900000D03*
D11*
X112740000Y-118900000D03*
D12*
X112600000Y-102100000D03*
X97500000Y-102800000D03*
X92000000Y-113400000D03*
X95600000Y-102800000D03*
X103750000Y-83750000D03*
X102697655Y-82097655D03*
X112750000Y-84750000D03*
X109300000Y-88200000D03*
X95300000Y-86774500D03*
X95300000Y-87900000D03*
X86700000Y-87100000D03*
X93400000Y-85700000D03*
D13*
X78000000Y-105120000D02*
X76700000Y-103820000D01*
X76700000Y-103820000D02*
X76700000Y-96020000D01*
X76700000Y-96020000D02*
X77800000Y-94920000D01*
X77800000Y-94920000D02*
X75400000Y-92520000D01*
X75400000Y-92520000D02*
X75400000Y-83000000D01*
X75400000Y-83000000D02*
X81400000Y-77000000D01*
X81400000Y-77000000D02*
X93760000Y-77000000D01*
X93760000Y-77000000D02*
X94880000Y-78120000D01*
X79200000Y-97460000D02*
X78200000Y-97460000D01*
X94920000Y-122400000D02*
X95920000Y-123400000D01*
X95920000Y-123400000D02*
X103520000Y-123400000D01*
X103520000Y-123400000D02*
X105120000Y-121800000D01*
X122080000Y-94880000D02*
X123500000Y-96300000D01*
X123500000Y-96300000D02*
X123500000Y-104000000D01*
X123500000Y-104000000D02*
X122400000Y-105100000D01*
X105080000Y-77500000D02*
X104080000Y-76500000D01*
X104080000Y-76500000D02*
X96500000Y-76500000D01*
X96500000Y-76500000D02*
X94880000Y-78120000D01*
X81100000Y-110200000D02*
X82100000Y-110200000D01*
X77640000Y-89840000D02*
X76900000Y-89100000D01*
X82100000Y-110200000D02*
X85660000Y-106640000D01*
X85660000Y-106640000D02*
X85660000Y-96300000D01*
X85660000Y-96300000D02*
X79200000Y-89840000D01*
X79200000Y-89840000D02*
X77640000Y-89840000D01*
X76900000Y-85500000D02*
X78800000Y-83600000D01*
X76900000Y-89100000D02*
X76900000Y-85500000D01*
X78800000Y-83600000D02*
X83200000Y-83600000D01*
X83200000Y-83600000D02*
X86700000Y-87100000D01*
X84400000Y-96900000D02*
X84400000Y-104900000D01*
X77480000Y-92380000D02*
X79880000Y-92380000D01*
X79880000Y-92380000D02*
X84400000Y-96900000D01*
X81950001Y-79249999D02*
X76400000Y-84800000D01*
X103750000Y-83823147D02*
X103273147Y-84300000D01*
X76400000Y-84800000D02*
X76400000Y-91300000D01*
X91449999Y-79249999D02*
X81950001Y-79249999D01*
X92340000Y-80140000D02*
X91449999Y-79249999D01*
X92340000Y-82100000D02*
X92340000Y-80140000D01*
X76400000Y-91300000D02*
X77480000Y-92380000D01*
X94540000Y-84300000D02*
X92340000Y-82100000D01*
X103273147Y-84300000D02*
X94540000Y-84300000D01*
X103750000Y-83750000D02*
X103750000Y-83823147D01*
X84400000Y-104900000D02*
X81640000Y-107660000D01*
X81640000Y-107660000D02*
X81100000Y-107660000D01*
X97420000Y-81100000D02*
X95820000Y-82700000D01*
X95820000Y-82700000D02*
X94400000Y-82700000D01*
X94400000Y-82700000D02*
X93565000Y-81865000D01*
X93565000Y-81865000D02*
X93565000Y-79765000D01*
X93565000Y-79765000D02*
X92000000Y-78200000D01*
X92000000Y-78200000D02*
X81600000Y-78200000D01*
X80425000Y-96235000D02*
X79200000Y-97460000D01*
X81600000Y-78200000D02*
X75900000Y-83900000D01*
X75900000Y-83900000D02*
X75900000Y-92300000D01*
X80425000Y-94412588D02*
X80425000Y-96235000D01*
X75900000Y-92300000D02*
X77295000Y-93695000D01*
X79707412Y-93695000D02*
X80425000Y-94412588D01*
X77295000Y-93695000D02*
X79707412Y-93695000D01*
X94880000Y-78120000D02*
X94880000Y-81100000D01*
X89800000Y-82100000D02*
X89800000Y-81100000D01*
X110160000Y-79200000D02*
X110160000Y-78200000D01*
X102500000Y-83100000D02*
X101922655Y-82522655D01*
X103300000Y-83100000D02*
X102500000Y-83100000D01*
X117400000Y-95920000D02*
X117400000Y-94500000D01*
X106395000Y-80005000D02*
X103300000Y-83100000D01*
X106395000Y-77498794D02*
X106395000Y-80005000D01*
X107893794Y-76000000D02*
X106395000Y-77498794D01*
X122100000Y-82600000D02*
X115500000Y-76000000D01*
X101922655Y-82522655D02*
X101922655Y-78817345D01*
X122100000Y-92200000D02*
X122100000Y-82600000D01*
X118900000Y-97420000D02*
X117400000Y-95920000D01*
X115500000Y-76000000D02*
X107893794Y-76000000D01*
X120735000Y-93565000D02*
X122100000Y-92200000D01*
X118335000Y-93565000D02*
X120735000Y-93565000D01*
X117400000Y-94500000D02*
X118335000Y-93565000D01*
X101922655Y-78817345D02*
X102540000Y-78200000D01*
X105360000Y-115600000D02*
X107660000Y-117900000D01*
X107660000Y-119260000D02*
X109400000Y-121000000D01*
X109400000Y-121000000D02*
X116800000Y-121000000D01*
X107660000Y-117900000D02*
X107660000Y-119260000D01*
X96900000Y-115600000D02*
X105360000Y-115600000D01*
X91400000Y-123300000D02*
X92380000Y-122320000D01*
X81100000Y-107660000D02*
X79940000Y-107660000D01*
X117900000Y-92340000D02*
X120160000Y-92340000D01*
X114500000Y-76600000D02*
X108800000Y-76600000D01*
X108800000Y-76600000D02*
X107620000Y-77780000D01*
X78600000Y-116700000D02*
X85200000Y-123300000D01*
X85200000Y-123300000D02*
X91400000Y-123300000D01*
X116800000Y-121000000D02*
X123300000Y-114500000D01*
X92380000Y-120120000D02*
X96900000Y-115600000D01*
X92380000Y-122320000D02*
X92380000Y-120120000D01*
X123300000Y-108300000D02*
X122620000Y-107620000D01*
X78600000Y-109000000D02*
X78600000Y-116700000D01*
X79940000Y-107660000D02*
X78600000Y-109000000D01*
X121000000Y-91500000D02*
X121000000Y-83100000D01*
X123300000Y-114500000D02*
X123300000Y-108300000D01*
X122620000Y-107620000D02*
X120370000Y-107620000D01*
X120370000Y-107620000D02*
X115300000Y-102550000D01*
X115300000Y-102550000D02*
X115300000Y-94940000D01*
X115300000Y-94940000D02*
X117900000Y-92340000D01*
X107620000Y-77780000D02*
X107620000Y-79200000D01*
X120160000Y-92340000D02*
X121000000Y-91500000D01*
X121000000Y-83100000D02*
X114500000Y-76600000D01*
X122080000Y-94880000D02*
X123000000Y-93960000D01*
X123000000Y-93960000D02*
X123000000Y-81900000D01*
X123000000Y-81900000D02*
X116600000Y-75500000D01*
X116600000Y-75500000D02*
X107080000Y-75500000D01*
X107080000Y-75500000D02*
X105080000Y-77500000D01*
X117900000Y-89800000D02*
X118900000Y-89800000D01*
X118900000Y-94880000D02*
X122080000Y-94880000D01*
X121005000Y-106305000D02*
X119900000Y-105200000D01*
X119900000Y-103700000D02*
X121060000Y-102540000D01*
X119900000Y-105200000D02*
X119900000Y-103700000D01*
X124000000Y-107800000D02*
X122505000Y-106305000D01*
X124000000Y-115300000D02*
X124000000Y-107800000D01*
X108200000Y-122300000D02*
X117000000Y-122300000D01*
X121060000Y-102540000D02*
X121800000Y-102540000D01*
X122505000Y-106305000D02*
X121005000Y-106305000D01*
X106435000Y-118335000D02*
X106435000Y-120535000D01*
X105700000Y-117600000D02*
X106435000Y-118335000D01*
X106435000Y-120535000D02*
X108200000Y-122300000D01*
X103880000Y-117600000D02*
X105700000Y-117600000D01*
X117000000Y-122300000D02*
X124000000Y-115300000D01*
X102580000Y-118900000D02*
X103880000Y-117600000D01*
X122400000Y-105100000D02*
X121820000Y-105100000D01*
X121820000Y-105100000D02*
X121800000Y-105080000D01*
X114300000Y-102100000D02*
X114300000Y-103660000D01*
X114300000Y-103660000D02*
X120800000Y-110160000D01*
X120800000Y-110160000D02*
X121800000Y-110160000D01*
X105120000Y-121800000D02*
X106320000Y-123000000D01*
X106320000Y-123000000D02*
X118600000Y-123000000D01*
X118600000Y-123000000D02*
X124500000Y-117100000D01*
X124500000Y-117100000D02*
X124500000Y-107200000D01*
X124500000Y-107200000D02*
X122400000Y-105100000D01*
X110200000Y-118900000D02*
X110200000Y-117900000D01*
X110200000Y-117900000D02*
X106600000Y-114300000D01*
X106600000Y-114300000D02*
X96340000Y-114300000D01*
X105120000Y-118900000D02*
X105120000Y-121800000D01*
X89840000Y-120800000D02*
X89840000Y-121800000D01*
X81100000Y-102580000D02*
X82500000Y-103980000D01*
X82500000Y-103980000D02*
X82500000Y-105700000D01*
X94200000Y-120400000D02*
X96060000Y-120400000D01*
X96060000Y-120400000D02*
X97460000Y-121800000D01*
X82500000Y-105700000D02*
X81765000Y-106435000D01*
X84300000Y-124000000D02*
X92592894Y-124000000D01*
X81765000Y-106435000D02*
X79565000Y-106435000D01*
X93695000Y-120905000D02*
X94200000Y-120400000D01*
X79565000Y-106435000D02*
X77800000Y-108200000D01*
X77800000Y-108200000D02*
X77800000Y-117500000D01*
X77800000Y-117500000D02*
X84300000Y-124000000D01*
X92592894Y-124000000D02*
X93695000Y-122897894D01*
X93695000Y-122897894D02*
X93695000Y-120905000D01*
X78000000Y-105120000D02*
X77000000Y-106120000D01*
X77000000Y-106120000D02*
X77000000Y-119100000D01*
X77000000Y-119100000D02*
X82400000Y-124500000D01*
X82400000Y-124500000D02*
X92800000Y-124500000D01*
X92800000Y-124500000D02*
X94920000Y-122380000D01*
X81100000Y-105120000D02*
X78000000Y-105120000D01*
X105080000Y-79200000D02*
X102697655Y-81582345D01*
X102697655Y-81582345D02*
X102697655Y-82097655D01*
X105080000Y-79200000D02*
X105080000Y-77500000D01*
X114300000Y-93400000D02*
X114300000Y-102100000D01*
X112600000Y-102100000D02*
X114300000Y-102100000D01*
X97500000Y-88974500D02*
X97500000Y-102800000D01*
X96025500Y-87500000D02*
X97500000Y-88974500D01*
X95600000Y-102800000D02*
X95600000Y-88200000D01*
X95600000Y-88200000D02*
X95300000Y-87900000D01*
X95300000Y-86774500D02*
X96025500Y-87500000D01*
X92000000Y-113400000D02*
X95440000Y-113400000D01*
X95440000Y-113400000D02*
X96340000Y-114300000D01*
X109300000Y-88200000D02*
X112750000Y-84750000D01*
X107620000Y-79200000D02*
X107620000Y-79953147D01*
X103750000Y-83750000D02*
X103823147Y-83750000D01*
X103823147Y-83750000D02*
X107620000Y-79953147D01*
X117900000Y-89800000D02*
X114300000Y-93400000D01*
X96340000Y-114300000D02*
X89840000Y-120800000D01*
X103660000Y-85700000D02*
X110160000Y-79200000D01*
X93400000Y-85700000D02*
X89800000Y-82100000D01*
X93400000Y-85700000D02*
X103660000Y-85700000D01*
G04 #@! TA.AperFunction,Conductor*
G36*
X109678371Y-76995185D02*
G01*
X109724126Y-77047989D01*
X109734070Y-77117147D01*
X109705045Y-77180703D01*
X109676609Y-77204927D01*
X109493958Y-77318018D01*
X109343236Y-77455419D01*
X109220324Y-77618181D01*
X109129418Y-77800748D01*
X109073602Y-77996916D01*
X109054785Y-78200000D01*
X109073602Y-78403083D01*
X109129418Y-78599251D01*
X109220324Y-78781818D01*
X109343236Y-78944580D01*
X109452160Y-79043876D01*
X109493959Y-79081981D01*
X109503209Y-79087708D01*
X109517126Y-79096326D01*
X109563761Y-79148354D01*
X109574864Y-79217336D01*
X109546910Y-79281370D01*
X109539528Y-79289433D01*
X103540781Y-85288181D01*
X103479458Y-85321666D01*
X103453100Y-85324500D01*
X93996308Y-85324500D01*
X93929269Y-85304815D01*
X93894257Y-85270938D01*
X93890484Y-85265471D01*
X93890483Y-85265470D01*
X93772240Y-85160717D01*
X93758994Y-85153765D01*
X93632364Y-85087303D01*
X93478985Y-85049500D01*
X93331900Y-85049500D01*
X93264861Y-85029815D01*
X93244219Y-85013181D01*
X90420470Y-82189432D01*
X90386985Y-82128109D01*
X90391969Y-82058417D01*
X90433841Y-82002484D01*
X90442844Y-81996343D01*
X90466041Y-81981981D01*
X90616764Y-81844579D01*
X90739673Y-81681821D01*
X90739673Y-81681819D01*
X90739675Y-81681818D01*
X90789118Y-81582521D01*
X90830582Y-81499250D01*
X90886397Y-81303083D01*
X90905215Y-81100000D01*
X90886397Y-80896917D01*
X90830582Y-80700750D01*
X90830209Y-80700001D01*
X90739675Y-80518181D01*
X90616763Y-80355419D01*
X90466041Y-80218018D01*
X90292638Y-80110652D01*
X90102457Y-80036976D01*
X90034281Y-80024232D01*
X89901976Y-79999500D01*
X89698024Y-79999500D01*
X89610789Y-80015807D01*
X89497542Y-80036976D01*
X89307361Y-80110652D01*
X89133958Y-80218018D01*
X88983236Y-80355419D01*
X88860324Y-80518181D01*
X88769418Y-80700748D01*
X88713602Y-80896916D01*
X88694785Y-81100000D01*
X88713602Y-81303083D01*
X88769418Y-81499251D01*
X88860324Y-81681818D01*
X88983236Y-81844580D01*
X89133958Y-81981981D01*
X89307361Y-82089347D01*
X89307363Y-82089348D01*
X89352668Y-82106899D01*
X89356904Y-82108540D01*
X89412306Y-82151113D01*
X89435159Y-82208828D01*
X89436107Y-82216438D01*
X89436185Y-82216682D01*
X89464827Y-82269608D01*
X89467171Y-82274162D01*
X89493634Y-82328292D01*
X89493777Y-82328482D01*
X89499579Y-82333824D01*
X89499581Y-82333826D01*
X89538108Y-82369293D01*
X89541780Y-82372817D01*
X92715481Y-85546518D01*
X92748966Y-85607841D01*
X92750896Y-85649144D01*
X92744721Y-85699998D01*
X92763763Y-85856818D01*
X92819780Y-86004523D01*
X92909515Y-86134528D01*
X92909516Y-86134529D01*
X92909517Y-86134530D01*
X93027760Y-86239283D01*
X93167635Y-86312696D01*
X93321015Y-86350500D01*
X93478985Y-86350500D01*
X93632365Y-86312696D01*
X93772240Y-86239283D01*
X93890483Y-86134530D01*
X93894257Y-86129061D01*
X93948538Y-86085071D01*
X93996308Y-86075500D01*
X94781082Y-86075500D01*
X94848121Y-86095185D01*
X94893876Y-86147989D01*
X94903820Y-86217147D01*
X94874795Y-86280703D01*
X94863308Y-86292316D01*
X94809517Y-86339969D01*
X94719780Y-86469976D01*
X94663763Y-86617681D01*
X94644721Y-86774500D01*
X94655912Y-86866658D01*
X94663763Y-86931318D01*
X94719780Y-87079023D01*
X94809517Y-87209030D01*
X94849481Y-87244435D01*
X94886608Y-87303624D01*
X94885840Y-87373489D01*
X94849481Y-87430064D01*
X94809517Y-87465470D01*
X94809516Y-87465471D01*
X94719780Y-87595476D01*
X94663763Y-87743181D01*
X94644721Y-87900000D01*
X94663763Y-88056818D01*
X94719780Y-88204523D01*
X94809515Y-88334528D01*
X94809516Y-88334529D01*
X94809517Y-88334530D01*
X94927760Y-88439283D01*
X95067635Y-88512696D01*
X95130174Y-88528110D01*
X95190555Y-88563265D01*
X95222344Y-88625484D01*
X95224500Y-88648507D01*
X95224500Y-102207796D01*
X95204815Y-102274835D01*
X95182727Y-102300611D01*
X95109517Y-102365468D01*
X95019780Y-102495476D01*
X94963763Y-102643181D01*
X94944721Y-102800000D01*
X94963763Y-102956818D01*
X95019780Y-103104523D01*
X95109515Y-103234528D01*
X95109516Y-103234529D01*
X95109517Y-103234530D01*
X95227760Y-103339283D01*
X95367635Y-103412696D01*
X95521015Y-103450500D01*
X95678985Y-103450500D01*
X95832365Y-103412696D01*
X95972240Y-103339283D01*
X96090483Y-103234530D01*
X96180220Y-103104523D01*
X96236237Y-102956818D01*
X96255278Y-102800000D01*
X96236237Y-102643182D01*
X96180220Y-102495477D01*
X96104059Y-102385138D01*
X96090482Y-102365468D01*
X96017273Y-102300611D01*
X95980146Y-102241422D01*
X95975500Y-102207796D01*
X95975500Y-88280399D01*
X95995185Y-88213360D01*
X96047989Y-88167605D01*
X96117147Y-88157661D01*
X96180703Y-88186686D01*
X96187181Y-88192718D01*
X97088181Y-89093718D01*
X97121666Y-89155041D01*
X97124500Y-89181399D01*
X97124500Y-102207796D01*
X97104815Y-102274835D01*
X97082727Y-102300611D01*
X97009517Y-102365468D01*
X96919780Y-102495476D01*
X96863763Y-102643181D01*
X96844721Y-102800000D01*
X96863763Y-102956818D01*
X96919780Y-103104523D01*
X97009515Y-103234528D01*
X97009516Y-103234529D01*
X97009517Y-103234530D01*
X97127760Y-103339283D01*
X97267635Y-103412696D01*
X97421015Y-103450500D01*
X97578985Y-103450500D01*
X97732365Y-103412696D01*
X97872240Y-103339283D01*
X97990483Y-103234530D01*
X98080220Y-103104523D01*
X98136237Y-102956818D01*
X98155278Y-102800000D01*
X98136237Y-102643182D01*
X98089520Y-102520000D01*
X108394785Y-102520000D01*
X108395625Y-102529062D01*
X108413602Y-102723083D01*
X108469418Y-102919251D01*
X108560324Y-103101818D01*
X108683236Y-103264580D01*
X108833958Y-103401981D01*
X109003107Y-103506713D01*
X109007363Y-103509348D01*
X109197544Y-103583024D01*
X109398024Y-103620500D01*
X109398026Y-103620500D01*
X109601974Y-103620500D01*
X109601976Y-103620500D01*
X109802456Y-103583024D01*
X109992637Y-103509348D01*
X110166041Y-103401981D01*
X110316764Y-103264579D01*
X110439673Y-103101821D01*
X110439673Y-103101819D01*
X110439675Y-103101818D01*
X110511875Y-102956818D01*
X110530582Y-102919250D01*
X110586397Y-102723083D01*
X110605215Y-102520000D01*
X110586397Y-102316917D01*
X110581757Y-102300611D01*
X110555349Y-102207796D01*
X110530582Y-102120750D01*
X110512083Y-102083598D01*
X110439675Y-101938181D01*
X110316763Y-101775419D01*
X110166041Y-101638018D01*
X109992638Y-101530652D01*
X109802457Y-101456976D01*
X109708967Y-101439500D01*
X109601976Y-101419500D01*
X109398024Y-101419500D01*
X109297784Y-101438238D01*
X109197542Y-101456976D01*
X109007361Y-101530652D01*
X108833958Y-101638018D01*
X108683236Y-101775419D01*
X108560324Y-101938181D01*
X108469418Y-102120748D01*
X108413602Y-102316916D01*
X108395614Y-102511056D01*
X108394785Y-102520000D01*
X98089520Y-102520000D01*
X98080220Y-102495477D01*
X98004059Y-102385138D01*
X97990482Y-102365468D01*
X97917273Y-102300611D01*
X97880146Y-102241422D01*
X97875500Y-102207796D01*
X97875500Y-99979999D01*
X108394785Y-99979999D01*
X108413602Y-100183083D01*
X108469418Y-100379251D01*
X108560324Y-100561818D01*
X108683236Y-100724580D01*
X108833958Y-100861981D01*
X109007361Y-100969347D01*
X109007363Y-100969348D01*
X109197544Y-101043024D01*
X109398024Y-101080500D01*
X109398026Y-101080500D01*
X109601974Y-101080500D01*
X109601976Y-101080500D01*
X109802456Y-101043024D01*
X109992637Y-100969348D01*
X110166041Y-100861981D01*
X110316764Y-100724579D01*
X110439673Y-100561821D01*
X110439673Y-100561819D01*
X110439675Y-100561818D01*
X110485313Y-100470161D01*
X110530582Y-100379250D01*
X110586397Y-100183083D01*
X110605215Y-99980000D01*
X110586397Y-99776917D01*
X110530582Y-99580750D01*
X110530209Y-99580001D01*
X110439675Y-99398181D01*
X110316763Y-99235419D01*
X110166041Y-99098018D01*
X109992638Y-98990652D01*
X109802457Y-98916976D01*
X109735629Y-98904483D01*
X109601976Y-98879500D01*
X109398024Y-98879500D01*
X109297784Y-98898238D01*
X109197542Y-98916976D01*
X109007361Y-98990652D01*
X108833958Y-99098018D01*
X108683236Y-99235419D01*
X108560324Y-99398181D01*
X108469418Y-99580748D01*
X108413602Y-99776916D01*
X108394785Y-99979999D01*
X97875500Y-99979999D01*
X97875500Y-97440000D01*
X108394785Y-97440000D01*
X108413602Y-97643083D01*
X108469418Y-97839251D01*
X108560324Y-98021818D01*
X108683236Y-98184580D01*
X108833958Y-98321981D01*
X109007361Y-98429347D01*
X109007363Y-98429348D01*
X109197544Y-98503024D01*
X109398024Y-98540500D01*
X109398026Y-98540500D01*
X109601974Y-98540500D01*
X109601976Y-98540500D01*
X109802456Y-98503024D01*
X109992637Y-98429348D01*
X110166041Y-98321981D01*
X110316764Y-98184579D01*
X110439673Y-98021821D01*
X110439673Y-98021819D01*
X110439675Y-98021818D01*
X110530497Y-97839420D01*
X110530582Y-97839250D01*
X110586397Y-97643083D01*
X110605215Y-97440000D01*
X110586397Y-97236917D01*
X110580706Y-97216917D01*
X110549403Y-97106899D01*
X110530582Y-97040750D01*
X110520622Y-97020748D01*
X110439675Y-96858181D01*
X110316763Y-96695419D01*
X110166041Y-96558018D01*
X109992638Y-96450652D01*
X109802457Y-96376976D01*
X109695470Y-96356977D01*
X109601976Y-96339500D01*
X109398024Y-96339500D01*
X109304535Y-96356976D01*
X109197542Y-96376976D01*
X109007361Y-96450652D01*
X108833958Y-96558018D01*
X108683236Y-96695419D01*
X108560324Y-96858181D01*
X108469418Y-97040748D01*
X108413602Y-97236916D01*
X108394785Y-97440000D01*
X97875500Y-97440000D01*
X97875500Y-89026304D01*
X97878139Y-89000857D01*
X97880367Y-88990232D01*
X97876452Y-88958823D01*
X97875500Y-88943486D01*
X97875500Y-88943387D01*
X97875500Y-88943386D01*
X97872075Y-88922869D01*
X97871341Y-88917825D01*
X97863891Y-88858050D01*
X97863821Y-88857832D01*
X97860065Y-88850892D01*
X97860065Y-88850890D01*
X97835148Y-88804848D01*
X97832828Y-88800340D01*
X97809826Y-88753289D01*
X97809825Y-88753288D01*
X97806360Y-88746200D01*
X97806225Y-88746019D01*
X97800419Y-88740674D01*
X97761892Y-88705207D01*
X97758219Y-88701682D01*
X97256537Y-88199999D01*
X108644721Y-88199999D01*
X108663763Y-88356818D01*
X108719780Y-88504523D01*
X108809515Y-88634528D01*
X108809516Y-88634529D01*
X108809517Y-88634530D01*
X108927760Y-88739283D01*
X109067635Y-88812696D01*
X109221015Y-88850500D01*
X109378985Y-88850500D01*
X109532365Y-88812696D01*
X109672240Y-88739283D01*
X109790483Y-88634530D01*
X109880220Y-88504523D01*
X109936237Y-88356818D01*
X109955278Y-88200000D01*
X109949102Y-88149144D01*
X109960561Y-88080224D01*
X109984514Y-88046521D01*
X112594217Y-85436819D01*
X112655541Y-85403334D01*
X112681899Y-85400500D01*
X112828985Y-85400500D01*
X112982365Y-85362696D01*
X113122240Y-85289283D01*
X113240483Y-85184530D01*
X113330220Y-85054523D01*
X113386237Y-84906818D01*
X113405278Y-84750000D01*
X113386237Y-84593182D01*
X113330220Y-84445477D01*
X113240483Y-84315470D01*
X113122240Y-84210717D01*
X113108994Y-84203765D01*
X112982364Y-84137303D01*
X112828985Y-84099500D01*
X112671015Y-84099500D01*
X112517635Y-84137303D01*
X112377761Y-84210716D01*
X112259515Y-84315471D01*
X112169780Y-84445476D01*
X112113763Y-84593181D01*
X112094721Y-84750000D01*
X112100896Y-84800853D01*
X112089435Y-84869777D01*
X112065481Y-84903480D01*
X109455780Y-87513181D01*
X109394457Y-87546666D01*
X109368099Y-87549500D01*
X109221015Y-87549500D01*
X109067635Y-87587303D01*
X108927761Y-87660716D01*
X108809515Y-87765471D01*
X108719780Y-87895476D01*
X108663763Y-88043181D01*
X108644721Y-88199999D01*
X97256537Y-88199999D01*
X96262794Y-87206255D01*
X96262779Y-87206242D01*
X95984518Y-86927981D01*
X95951033Y-86866658D01*
X95949103Y-86825352D01*
X95955278Y-86774500D01*
X95936237Y-86617682D01*
X95880220Y-86469977D01*
X95790483Y-86339970D01*
X95736691Y-86292315D01*
X95699565Y-86233127D01*
X95700332Y-86163261D01*
X95738749Y-86104901D01*
X95802619Y-86076576D01*
X95818918Y-86075500D01*
X103608195Y-86075500D01*
X103633641Y-86078139D01*
X103637440Y-86078935D01*
X103644268Y-86080367D01*
X103674682Y-86076576D01*
X103675677Y-86076452D01*
X103691014Y-86075500D01*
X103691111Y-86075500D01*
X103691114Y-86075500D01*
X103711643Y-86072073D01*
X103716659Y-86071342D01*
X103768626Y-86064866D01*
X103768628Y-86064864D01*
X103776457Y-86063889D01*
X103776666Y-86063822D01*
X103783607Y-86060065D01*
X103783610Y-86060065D01*
X103829666Y-86035140D01*
X103834144Y-86032835D01*
X103881211Y-86009826D01*
X103881212Y-86009824D01*
X103888308Y-86006356D01*
X103888476Y-86006230D01*
X103893824Y-86000419D01*
X103893826Y-86000419D01*
X103929294Y-85961889D01*
X103932795Y-85958240D01*
X110388889Y-79502146D01*
X110408741Y-79486025D01*
X110417836Y-79480084D01*
X110437273Y-79455110D01*
X110447453Y-79443583D01*
X110447519Y-79443518D01*
X110459624Y-79426561D01*
X110462627Y-79422534D01*
X110494809Y-79381189D01*
X110494810Y-79381185D01*
X110499666Y-79374947D01*
X110499753Y-79374778D01*
X110502008Y-79367200D01*
X110502010Y-79367199D01*
X110516951Y-79317009D01*
X110518484Y-79312224D01*
X110527840Y-79284971D01*
X110568224Y-79227960D01*
X110600324Y-79209613D01*
X110652637Y-79189348D01*
X110826041Y-79081981D01*
X110924569Y-78992161D01*
X110976763Y-78944580D01*
X110980091Y-78940173D01*
X111099673Y-78781821D01*
X111099673Y-78781819D01*
X111099675Y-78781818D01*
X111184323Y-78611819D01*
X111190582Y-78599250D01*
X111246397Y-78403083D01*
X111265215Y-78200000D01*
X111246397Y-77996917D01*
X111239054Y-77971111D01*
X111209486Y-77867189D01*
X111190582Y-77800750D01*
X111190209Y-77800001D01*
X111099675Y-77618181D01*
X110976763Y-77455419D01*
X110826041Y-77318018D01*
X110643391Y-77204927D01*
X110596755Y-77152899D01*
X110585651Y-77083918D01*
X110613604Y-77019883D01*
X110671739Y-76981127D01*
X110708668Y-76975500D01*
X114293101Y-76975500D01*
X114360140Y-76995185D01*
X114380782Y-77011819D01*
X120588181Y-83219218D01*
X120621666Y-83280541D01*
X120624500Y-83306899D01*
X120624500Y-91293099D01*
X120604815Y-91360138D01*
X120588181Y-91380780D01*
X120084898Y-91884063D01*
X120023575Y-91917548D01*
X119953883Y-91912564D01*
X119897950Y-91870692D01*
X119886219Y-91851658D01*
X119839673Y-91758179D01*
X119814252Y-91724516D01*
X119716763Y-91595419D01*
X119566041Y-91458018D01*
X119392638Y-91350652D01*
X119202457Y-91276976D01*
X119135629Y-91264484D01*
X119001976Y-91239500D01*
X118798024Y-91239500D01*
X118697783Y-91258238D01*
X118597542Y-91276976D01*
X118407361Y-91350652D01*
X118233958Y-91458018D01*
X118083236Y-91595419D01*
X117960326Y-91758179D01*
X117885978Y-91907491D01*
X117838475Y-91958728D01*
X117790321Y-91975266D01*
X117783560Y-91976109D01*
X117783312Y-91976188D01*
X117730374Y-92004837D01*
X117725818Y-92007182D01*
X117671721Y-92033628D01*
X117671504Y-92033790D01*
X117630718Y-92078093D01*
X117627173Y-92081787D01*
X115071108Y-94637852D01*
X115051254Y-94653976D01*
X115042165Y-94659914D01*
X115022722Y-94684894D01*
X115012563Y-94696398D01*
X115012484Y-94696476D01*
X115012479Y-94696482D01*
X115012480Y-94696482D01*
X115000390Y-94713414D01*
X114997341Y-94717504D01*
X114960354Y-94765024D01*
X114960237Y-94765253D01*
X114943057Y-94822955D01*
X114941495Y-94827831D01*
X114921941Y-94884791D01*
X114919820Y-94899352D01*
X114923393Y-94921006D01*
X114924394Y-94945186D01*
X114924500Y-94950315D01*
X114924500Y-102041686D01*
X114915667Y-102071765D01*
X114921956Y-102083598D01*
X114924500Y-102108587D01*
X114924500Y-102498195D01*
X114921861Y-102523643D01*
X114920861Y-102528412D01*
X114916956Y-102535691D01*
X114918477Y-102538058D01*
X114922550Y-102557671D01*
X114923549Y-102565694D01*
X114924499Y-102580992D01*
X114924499Y-102581110D01*
X114927918Y-102601602D01*
X114928657Y-102606671D01*
X114936107Y-102666438D01*
X114936185Y-102666682D01*
X114964827Y-102719608D01*
X114967171Y-102724162D01*
X114993634Y-102778292D01*
X114993777Y-102778482D01*
X114999579Y-102783824D01*
X114999581Y-102783826D01*
X115038108Y-102819293D01*
X115041780Y-102822817D01*
X120067850Y-107848888D01*
X120083976Y-107868744D01*
X120089916Y-107877836D01*
X120114890Y-107897274D01*
X120126408Y-107907446D01*
X120126482Y-107907520D01*
X120136410Y-107914608D01*
X120143399Y-107919598D01*
X120147508Y-107922662D01*
X120195041Y-107959658D01*
X120195232Y-107959757D01*
X120229601Y-107969988D01*
X120252955Y-107976941D01*
X120257792Y-107978490D01*
X120307340Y-107995500D01*
X120314797Y-107998060D01*
X120315030Y-107998093D01*
X120322909Y-107997767D01*
X120322912Y-107997768D01*
X120375193Y-107995605D01*
X120380316Y-107995500D01*
X120680814Y-107995500D01*
X120747853Y-108015185D01*
X120791814Y-108064229D01*
X120860324Y-108201818D01*
X120983236Y-108364580D01*
X121133958Y-108501981D01*
X121307361Y-108609347D01*
X121307363Y-108609348D01*
X121497544Y-108683024D01*
X121698024Y-108720500D01*
X121698026Y-108720500D01*
X121901974Y-108720500D01*
X121901976Y-108720500D01*
X122102456Y-108683024D01*
X122292637Y-108609348D01*
X122466041Y-108501981D01*
X122616764Y-108364579D01*
X122624158Y-108354787D01*
X122680263Y-108313151D01*
X122749975Y-108308456D01*
X122810792Y-108341829D01*
X122873542Y-108404579D01*
X122888181Y-108419218D01*
X122921665Y-108480542D01*
X122924499Y-108506899D01*
X122924500Y-109452963D01*
X122904816Y-109520002D01*
X122852012Y-109565757D01*
X122782853Y-109575701D01*
X122719297Y-109546676D01*
X122701546Y-109527690D01*
X122616763Y-109415419D01*
X122466041Y-109278018D01*
X122292638Y-109170652D01*
X122102457Y-109096976D01*
X122035629Y-109084483D01*
X121901976Y-109059500D01*
X121698024Y-109059500D01*
X121597783Y-109078238D01*
X121497542Y-109096976D01*
X121307361Y-109170652D01*
X121133958Y-109278018D01*
X120983236Y-109415420D01*
X120898394Y-109527768D01*
X120842284Y-109569404D01*
X120772572Y-109574095D01*
X120711759Y-109540722D01*
X117733873Y-106562836D01*
X114711819Y-103540781D01*
X114678334Y-103479458D01*
X114675500Y-103453100D01*
X114675500Y-102572993D01*
X114685666Y-102538371D01*
X114675886Y-102512738D01*
X114675500Y-102502964D01*
X114675500Y-102120654D01*
X114675924Y-102110413D01*
X114676924Y-102098346D01*
X114683887Y-102080300D01*
X114681523Y-102076621D01*
X114680294Y-102072126D01*
X114679294Y-102068177D01*
X114675500Y-102037737D01*
X114675500Y-98483023D01*
X114675500Y-94926131D01*
X114683626Y-94898454D01*
X114675500Y-94870588D01*
X114675500Y-93606899D01*
X114695185Y-93539860D01*
X114711819Y-93519218D01*
X116255902Y-91975135D01*
X117811761Y-90419275D01*
X117873082Y-90385792D01*
X117942774Y-90390776D01*
X117998394Y-90432231D01*
X118083236Y-90544580D01*
X118233958Y-90681981D01*
X118298561Y-90721981D01*
X118407363Y-90789348D01*
X118597544Y-90863024D01*
X118798024Y-90900500D01*
X118798026Y-90900500D01*
X119001974Y-90900500D01*
X119001976Y-90900500D01*
X119202456Y-90863024D01*
X119392637Y-90789348D01*
X119566041Y-90681981D01*
X119716764Y-90544579D01*
X119839673Y-90381821D01*
X119839673Y-90381819D01*
X119839675Y-90381818D01*
X119910664Y-90239250D01*
X119930582Y-90199250D01*
X119986397Y-90003083D01*
X120005215Y-89800000D01*
X119987712Y-89611111D01*
X119986397Y-89596916D01*
X119958702Y-89499581D01*
X119930582Y-89400750D01*
X119859591Y-89258179D01*
X119839675Y-89218181D01*
X119716763Y-89055419D01*
X119566041Y-88918018D01*
X119392638Y-88810652D01*
X119202457Y-88736976D01*
X119135629Y-88724484D01*
X119001976Y-88699500D01*
X118798024Y-88699500D01*
X118697783Y-88718238D01*
X118597542Y-88736976D01*
X118407361Y-88810652D01*
X118233958Y-88918018D01*
X118083236Y-89055419D01*
X117960326Y-89218179D01*
X117885978Y-89367489D01*
X117838475Y-89418726D01*
X117790324Y-89435264D01*
X117783571Y-89436106D01*
X117783312Y-89436189D01*
X117730370Y-89464838D01*
X117725820Y-89467180D01*
X117671715Y-89493632D01*
X117671505Y-89493788D01*
X117630718Y-89538094D01*
X117627171Y-89541790D01*
X114071108Y-93097852D01*
X114051254Y-93113976D01*
X114042165Y-93119914D01*
X114022722Y-93144894D01*
X114012563Y-93156398D01*
X114012484Y-93156476D01*
X114012479Y-93156482D01*
X114012480Y-93156482D01*
X114000390Y-93173414D01*
X113997341Y-93177504D01*
X113960354Y-93225024D01*
X113960237Y-93225253D01*
X113943057Y-93282955D01*
X113941495Y-93287831D01*
X113921941Y-93344792D01*
X113921906Y-93345034D01*
X113924394Y-93405191D01*
X113924500Y-93410315D01*
X113924500Y-101600500D01*
X113904815Y-101667539D01*
X113852011Y-101713294D01*
X113800500Y-101724500D01*
X113196308Y-101724500D01*
X113129269Y-101704815D01*
X113094257Y-101670938D01*
X113090484Y-101665471D01*
X113059497Y-101638019D01*
X112972240Y-101560717D01*
X112888900Y-101516976D01*
X112832364Y-101487303D01*
X112678985Y-101449500D01*
X112521015Y-101449500D01*
X112367635Y-101487303D01*
X112227761Y-101560716D01*
X112109515Y-101665471D01*
X112019780Y-101795476D01*
X111963763Y-101943181D01*
X111944721Y-102099999D01*
X111963763Y-102256818D01*
X112019780Y-102404523D01*
X112109515Y-102534528D01*
X112109516Y-102534529D01*
X112109517Y-102534530D01*
X112227760Y-102639283D01*
X112367635Y-102712696D01*
X112521015Y-102750500D01*
X112678985Y-102750500D01*
X112832365Y-102712696D01*
X112972240Y-102639283D01*
X113090483Y-102534530D01*
X113094257Y-102529061D01*
X113148538Y-102485071D01*
X113196308Y-102475500D01*
X113800500Y-102475500D01*
X113867539Y-102495185D01*
X113913294Y-102547989D01*
X113924500Y-102599500D01*
X113924500Y-103608196D01*
X113921861Y-103633642D01*
X113920642Y-103639458D01*
X113919633Y-103644268D01*
X113922150Y-103664462D01*
X113923548Y-103675676D01*
X113924500Y-103691013D01*
X113924500Y-103691116D01*
X113927918Y-103711602D01*
X113928657Y-103716670D01*
X113936107Y-103776438D01*
X113936185Y-103776682D01*
X113964827Y-103829608D01*
X113967171Y-103834162D01*
X113993634Y-103888292D01*
X113993777Y-103888482D01*
X113999579Y-103893824D01*
X113999581Y-103893826D01*
X114038108Y-103929293D01*
X114041780Y-103932817D01*
X120497850Y-110388887D01*
X120513977Y-110408746D01*
X120519915Y-110417835D01*
X120544894Y-110437277D01*
X120556412Y-110447449D01*
X120556481Y-110447518D01*
X120573389Y-110459590D01*
X120577494Y-110462650D01*
X120618811Y-110494809D01*
X120618812Y-110494809D01*
X120625043Y-110499659D01*
X120625234Y-110499757D01*
X120632800Y-110502009D01*
X120632801Y-110502010D01*
X120682955Y-110516941D01*
X120687792Y-110518490D01*
X120713690Y-110527381D01*
X120770704Y-110567766D01*
X120784425Y-110589390D01*
X120860324Y-110741818D01*
X120983236Y-110904580D01*
X121133958Y-111041981D01*
X121198561Y-111081981D01*
X121307363Y-111149348D01*
X121497544Y-111223024D01*
X121698024Y-111260500D01*
X121698026Y-111260500D01*
X121901974Y-111260500D01*
X121901976Y-111260500D01*
X122102456Y-111223024D01*
X122292637Y-111149348D01*
X122466041Y-111041981D01*
X122616764Y-110904579D01*
X122645115Y-110867036D01*
X122701546Y-110792310D01*
X122757654Y-110750673D01*
X122827366Y-110745981D01*
X122888549Y-110779724D01*
X122921776Y-110841187D01*
X122924500Y-110867036D01*
X122924500Y-114293099D01*
X122904815Y-114360138D01*
X122888181Y-114380780D01*
X116680781Y-120588181D01*
X116619458Y-120621666D01*
X116593100Y-120624500D01*
X109606899Y-120624500D01*
X109539860Y-120604815D01*
X109519218Y-120588181D01*
X108595594Y-119664556D01*
X108562109Y-119603233D01*
X108567093Y-119533541D01*
X108584321Y-119502148D01*
X108599673Y-119481821D01*
X108690582Y-119299250D01*
X108746397Y-119103083D01*
X108765215Y-118900000D01*
X108746397Y-118696917D01*
X108690582Y-118500750D01*
X108690209Y-118500001D01*
X108599675Y-118318181D01*
X108476763Y-118155419D01*
X108326041Y-118018018D01*
X108152635Y-117910650D01*
X108103094Y-117891458D01*
X108047692Y-117848885D01*
X108024839Y-117791164D01*
X108023889Y-117783545D01*
X108023821Y-117783332D01*
X108020065Y-117776392D01*
X108020065Y-117776390D01*
X107995148Y-117730348D01*
X107992828Y-117725840D01*
X107969826Y-117678789D01*
X107969825Y-117678788D01*
X107966360Y-117671700D01*
X107966225Y-117671519D01*
X107960419Y-117666174D01*
X107921892Y-117630707D01*
X107918219Y-117627182D01*
X105662149Y-115371111D01*
X105646022Y-115351253D01*
X105640083Y-115342162D01*
X105615110Y-115322725D01*
X105603593Y-115312554D01*
X105603519Y-115312480D01*
X105586594Y-115300397D01*
X105582480Y-115297330D01*
X105541189Y-115265191D01*
X105541186Y-115265190D01*
X105534963Y-115260346D01*
X105534761Y-115260242D01*
X105527200Y-115257990D01*
X105527199Y-115257990D01*
X105477036Y-115243055D01*
X105472174Y-115241497D01*
X105453640Y-115235135D01*
X105415202Y-115221939D01*
X105414969Y-115221906D01*
X105375265Y-115223548D01*
X105354806Y-115224394D01*
X105349684Y-115224500D01*
X96951803Y-115224500D01*
X96926357Y-115221861D01*
X96915731Y-115219633D01*
X96884324Y-115223548D01*
X96868987Y-115224500D01*
X96868886Y-115224500D01*
X96848359Y-115227924D01*
X96843300Y-115228661D01*
X96783560Y-115236108D01*
X96783312Y-115236188D01*
X96730374Y-115264837D01*
X96725818Y-115267182D01*
X96671717Y-115293630D01*
X96671505Y-115293788D01*
X96630718Y-115338094D01*
X96627171Y-115341790D01*
X92151108Y-119817852D01*
X92131254Y-119833976D01*
X92122165Y-119839914D01*
X92102722Y-119864894D01*
X92092563Y-119876398D01*
X92092484Y-119876476D01*
X92092479Y-119876482D01*
X92092480Y-119876482D01*
X92080390Y-119893414D01*
X92077341Y-119897504D01*
X92040354Y-119945024D01*
X92040237Y-119945253D01*
X92023057Y-120002955D01*
X92021495Y-120007831D01*
X92001941Y-120064792D01*
X92001905Y-120065036D01*
X92004393Y-120125193D01*
X92004499Y-120130315D01*
X92004499Y-120680331D01*
X91984814Y-120747370D01*
X91932010Y-120793125D01*
X91925293Y-120795957D01*
X91887364Y-120810650D01*
X91713958Y-120918018D01*
X91563236Y-121055419D01*
X91440324Y-121218181D01*
X91349418Y-121400748D01*
X91293602Y-121596916D01*
X91274785Y-121800000D01*
X91293602Y-122003083D01*
X91349418Y-122199251D01*
X91440324Y-122381818D01*
X91524518Y-122493308D01*
X91549210Y-122558670D01*
X91534645Y-122627004D01*
X91513245Y-122655716D01*
X91280781Y-122888181D01*
X91219458Y-122921666D01*
X91193100Y-122924500D01*
X90550174Y-122924500D01*
X90483135Y-122904815D01*
X90437380Y-122852011D01*
X90427436Y-122782853D01*
X90456461Y-122719297D01*
X90484897Y-122695073D01*
X90488641Y-122692754D01*
X90506041Y-122681981D01*
X90644523Y-122555737D01*
X90656763Y-122544580D01*
X90656764Y-122544579D01*
X90779673Y-122381821D01*
X90779673Y-122381819D01*
X90779675Y-122381818D01*
X90825313Y-122290161D01*
X90870582Y-122199250D01*
X90926397Y-122003083D01*
X90945215Y-121800000D01*
X90926397Y-121596917D01*
X90870582Y-121400750D01*
X90856306Y-121372080D01*
X90779675Y-121218181D01*
X90656763Y-121055419D01*
X90506041Y-120918019D01*
X90482873Y-120903674D01*
X90436237Y-120851647D01*
X90425133Y-120782665D01*
X90453086Y-120718631D01*
X90460457Y-120710578D01*
X96459217Y-114711819D01*
X96520541Y-114678334D01*
X96546899Y-114675500D01*
X106393101Y-114675500D01*
X106460140Y-114695185D01*
X106480782Y-114711819D01*
X109579528Y-117810566D01*
X109613013Y-117871889D01*
X109608029Y-117941581D01*
X109566157Y-117997514D01*
X109557128Y-118003672D01*
X109533958Y-118018019D01*
X109383236Y-118155419D01*
X109260324Y-118318181D01*
X109169418Y-118500748D01*
X109113602Y-118696916D01*
X109094785Y-118900000D01*
X109113602Y-119103083D01*
X109169418Y-119299251D01*
X109260324Y-119481818D01*
X109383236Y-119644580D01*
X109533958Y-119781981D01*
X109707361Y-119889347D01*
X109707363Y-119889348D01*
X109897544Y-119963024D01*
X110098024Y-120000500D01*
X110098026Y-120000500D01*
X110301974Y-120000500D01*
X110301976Y-120000500D01*
X110502456Y-119963024D01*
X110692637Y-119889348D01*
X110866041Y-119781981D01*
X110956556Y-119699466D01*
X111016763Y-119644580D01*
X111139675Y-119481818D01*
X111216847Y-119326834D01*
X111230582Y-119299250D01*
X111286397Y-119103083D01*
X111305215Y-118900000D01*
X111286397Y-118696917D01*
X111230582Y-118500750D01*
X111230209Y-118500001D01*
X111139675Y-118318181D01*
X111016763Y-118155419D01*
X110866041Y-118018018D01*
X110692635Y-117910650D01*
X110643094Y-117891458D01*
X110587692Y-117848885D01*
X110564839Y-117791164D01*
X110563889Y-117783545D01*
X110563821Y-117783332D01*
X110560065Y-117776392D01*
X110560065Y-117776390D01*
X110535148Y-117730348D01*
X110532828Y-117725840D01*
X110509826Y-117678789D01*
X110509825Y-117678788D01*
X110506360Y-117671700D01*
X110506225Y-117671519D01*
X110500419Y-117666174D01*
X110461891Y-117630706D01*
X110458218Y-117627181D01*
X106902149Y-114071111D01*
X106886022Y-114051253D01*
X106880083Y-114042162D01*
X106855110Y-114022725D01*
X106843593Y-114012554D01*
X106843519Y-114012480D01*
X106826594Y-114000397D01*
X106822480Y-113997330D01*
X106781189Y-113965191D01*
X106781186Y-113965190D01*
X106774963Y-113960346D01*
X106774761Y-113960242D01*
X106767200Y-113957990D01*
X106767199Y-113957990D01*
X106717036Y-113943055D01*
X106712174Y-113941497D01*
X106700780Y-113937586D01*
X106655202Y-113921939D01*
X106654969Y-113921906D01*
X106609910Y-113923769D01*
X106594806Y-113924394D01*
X106589684Y-113924500D01*
X96546899Y-113924500D01*
X96479860Y-113904815D01*
X96459218Y-113888181D01*
X95742149Y-113171111D01*
X95726022Y-113151253D01*
X95720083Y-113142162D01*
X95695110Y-113122725D01*
X95683593Y-113112554D01*
X95683519Y-113112480D01*
X95666594Y-113100397D01*
X95662480Y-113097330D01*
X95621189Y-113065191D01*
X95621186Y-113065190D01*
X95614963Y-113060346D01*
X95614761Y-113060242D01*
X95607200Y-113057990D01*
X95607199Y-113057990D01*
X95557036Y-113043055D01*
X95552174Y-113041497D01*
X95540780Y-113037586D01*
X95495202Y-113021939D01*
X95494969Y-113021906D01*
X95449910Y-113023769D01*
X95434806Y-113024394D01*
X95429684Y-113024500D01*
X92596308Y-113024500D01*
X92529269Y-113004815D01*
X92494257Y-112970938D01*
X92490484Y-112965471D01*
X92490483Y-112965470D01*
X92372240Y-112860717D01*
X92358994Y-112853764D01*
X92232364Y-112787303D01*
X92078985Y-112749500D01*
X91921015Y-112749500D01*
X91767635Y-112787303D01*
X91627761Y-112860716D01*
X91509515Y-112965471D01*
X91419780Y-113095476D01*
X91363763Y-113243181D01*
X91344721Y-113400000D01*
X91363763Y-113556818D01*
X91419780Y-113704523D01*
X91509515Y-113834528D01*
X91509516Y-113834529D01*
X91509517Y-113834530D01*
X91627760Y-113939283D01*
X91767635Y-114012696D01*
X91921015Y-114050500D01*
X92078985Y-114050500D01*
X92232365Y-114012696D01*
X92372240Y-113939283D01*
X92490483Y-113834530D01*
X92494257Y-113829061D01*
X92548538Y-113785071D01*
X92596308Y-113775500D01*
X95233101Y-113775500D01*
X95300140Y-113795185D01*
X95320782Y-113811819D01*
X95721281Y-114212318D01*
X95754766Y-114273641D01*
X95749782Y-114343333D01*
X95721281Y-114387680D01*
X89611108Y-120497852D01*
X89591254Y-120513976D01*
X89582165Y-120519914D01*
X89562722Y-120544894D01*
X89552563Y-120556398D01*
X89552484Y-120556476D01*
X89552479Y-120556482D01*
X89552480Y-120556482D01*
X89540390Y-120573414D01*
X89537341Y-120577504D01*
X89500354Y-120625024D01*
X89500237Y-120625253D01*
X89483057Y-120682955D01*
X89481494Y-120687835D01*
X89472160Y-120715023D01*
X89431774Y-120772038D01*
X89399675Y-120790385D01*
X89347362Y-120810652D01*
X89173958Y-120918018D01*
X89023236Y-121055419D01*
X88900324Y-121218181D01*
X88809418Y-121400748D01*
X88753602Y-121596916D01*
X88734785Y-121800000D01*
X88753602Y-122003083D01*
X88809418Y-122199251D01*
X88900324Y-122381818D01*
X89023236Y-122544580D01*
X89110905Y-122624500D01*
X89173959Y-122681981D01*
X89187467Y-122690345D01*
X89195103Y-122695073D01*
X89241739Y-122747101D01*
X89252843Y-122816082D01*
X89224890Y-122880117D01*
X89166755Y-122918873D01*
X89129826Y-122924500D01*
X85406899Y-122924500D01*
X85339860Y-122904815D01*
X85319218Y-122888181D01*
X79011819Y-116580781D01*
X78978334Y-116519458D01*
X78975500Y-116493100D01*
X78975500Y-109206898D01*
X78995185Y-109139859D01*
X79011814Y-109119221D01*
X79948343Y-108182692D01*
X80009664Y-108149209D01*
X80079355Y-108154193D01*
X80135289Y-108196065D01*
X80147021Y-108215102D01*
X80160324Y-108241817D01*
X80283236Y-108404580D01*
X80433958Y-108541981D01*
X80607361Y-108649347D01*
X80607363Y-108649348D01*
X80797544Y-108723024D01*
X80998024Y-108760500D01*
X80998026Y-108760500D01*
X81201974Y-108760500D01*
X81201976Y-108760500D01*
X81402456Y-108723024D01*
X81592637Y-108649348D01*
X81766041Y-108541981D01*
X81916764Y-108404579D01*
X82039673Y-108241821D01*
X82039673Y-108241819D01*
X82039675Y-108241818D01*
X82117559Y-108085403D01*
X82130582Y-108059250D01*
X82173754Y-107907518D01*
X82186397Y-107863084D01*
X82192789Y-107794099D01*
X82204574Y-107666908D01*
X82230360Y-107601974D01*
X82240356Y-107590679D01*
X84628889Y-105202146D01*
X84648741Y-105186025D01*
X84657836Y-105180084D01*
X84677273Y-105155110D01*
X84687453Y-105143583D01*
X84687519Y-105143518D01*
X84699624Y-105126561D01*
X84702627Y-105122534D01*
X84734809Y-105081189D01*
X84734810Y-105081185D01*
X84739666Y-105074947D01*
X84739753Y-105074779D01*
X84744153Y-105060000D01*
X84756955Y-105016997D01*
X84758486Y-105012218D01*
X84775500Y-104962660D01*
X84775500Y-104962656D01*
X84778060Y-104955200D01*
X84778093Y-104954970D01*
X84777767Y-104947091D01*
X84777768Y-104947089D01*
X84775606Y-104894807D01*
X84775500Y-104889684D01*
X84775500Y-96951803D01*
X84778139Y-96926357D01*
X84778365Y-96925274D01*
X84780367Y-96915731D01*
X84776452Y-96884323D01*
X84775500Y-96868986D01*
X84775500Y-96868889D01*
X84775500Y-96868888D01*
X84775500Y-96868886D01*
X84772070Y-96848336D01*
X84771342Y-96843340D01*
X84764865Y-96791374D01*
X84764863Y-96791371D01*
X84763887Y-96783536D01*
X84763823Y-96783334D01*
X84760065Y-96776390D01*
X84735150Y-96730352D01*
X84732815Y-96725815D01*
X84709826Y-96678789D01*
X84709825Y-96678788D01*
X84706361Y-96671702D01*
X84706225Y-96671519D01*
X84700419Y-96666174D01*
X84661891Y-96630706D01*
X84658218Y-96627181D01*
X80182149Y-92151111D01*
X80166022Y-92131253D01*
X80160083Y-92122162D01*
X80135110Y-92102725D01*
X80123593Y-92092554D01*
X80123519Y-92092480D01*
X80106594Y-92080397D01*
X80102480Y-92077330D01*
X80061189Y-92045191D01*
X80061186Y-92045190D01*
X80054963Y-92040346D01*
X80054761Y-92040242D01*
X80047200Y-92037990D01*
X80047199Y-92037990D01*
X79997036Y-92023055D01*
X79992174Y-92021497D01*
X79980780Y-92017586D01*
X79935202Y-92001939D01*
X79934969Y-92001906D01*
X79889910Y-92003769D01*
X79874806Y-92004394D01*
X79869684Y-92004500D01*
X79319186Y-92004500D01*
X79252147Y-91984815D01*
X79208186Y-91935771D01*
X79139675Y-91798181D01*
X79016763Y-91635419D01*
X78866041Y-91498018D01*
X78692638Y-91390652D01*
X78502457Y-91316976D01*
X78435629Y-91304484D01*
X78301976Y-91279500D01*
X78098024Y-91279500D01*
X77997783Y-91298238D01*
X77897542Y-91316976D01*
X77707361Y-91390652D01*
X77533958Y-91498018D01*
X77409646Y-91611345D01*
X77346842Y-91641962D01*
X77277455Y-91633765D01*
X77238427Y-91607389D01*
X76811819Y-91180781D01*
X76778334Y-91119458D01*
X76775500Y-91093100D01*
X76775500Y-89805899D01*
X76795185Y-89738860D01*
X76847989Y-89693105D01*
X76917147Y-89683161D01*
X76980703Y-89712186D01*
X76987181Y-89718218D01*
X77061677Y-89792714D01*
X77095162Y-89854037D01*
X77097467Y-89868954D01*
X77113602Y-90043083D01*
X77169418Y-90239251D01*
X77260324Y-90421818D01*
X77383236Y-90584580D01*
X77533958Y-90721981D01*
X77707361Y-90829347D01*
X77707363Y-90829348D01*
X77897544Y-90903024D01*
X78098024Y-90940500D01*
X78098026Y-90940500D01*
X78301974Y-90940500D01*
X78301976Y-90940500D01*
X78502456Y-90903024D01*
X78692637Y-90829348D01*
X78866041Y-90721981D01*
X79016764Y-90584579D01*
X79046971Y-90544579D01*
X79101605Y-90472232D01*
X79157714Y-90430595D01*
X79227426Y-90425904D01*
X79288240Y-90459277D01*
X85248181Y-96419218D01*
X85281666Y-96480541D01*
X85284500Y-96506899D01*
X85284500Y-106433099D01*
X85264815Y-106500138D01*
X85248181Y-106520780D01*
X82188239Y-109580721D01*
X82126916Y-109614206D01*
X82057224Y-109609222D01*
X82001604Y-109567767D01*
X81916763Y-109455419D01*
X81766041Y-109318018D01*
X81592638Y-109210652D01*
X81402457Y-109136976D01*
X81307453Y-109119217D01*
X81201976Y-109099500D01*
X80998024Y-109099500D01*
X80897784Y-109118238D01*
X80797542Y-109136976D01*
X80607361Y-109210652D01*
X80433958Y-109318018D01*
X80283236Y-109455419D01*
X80160324Y-109618181D01*
X80069418Y-109800748D01*
X80013602Y-109996916D01*
X79994785Y-110200000D01*
X80013602Y-110403083D01*
X80069418Y-110599251D01*
X80160324Y-110781818D01*
X80283236Y-110944580D01*
X80433958Y-111081981D01*
X80607361Y-111189347D01*
X80607363Y-111189348D01*
X80797544Y-111263024D01*
X80998024Y-111300500D01*
X80998026Y-111300500D01*
X81201974Y-111300500D01*
X81201976Y-111300500D01*
X81402456Y-111263024D01*
X81592637Y-111189348D01*
X81766041Y-111081981D01*
X81916764Y-110944579D01*
X82039673Y-110781821D01*
X82114022Y-110632506D01*
X82161522Y-110581273D01*
X82209689Y-110564732D01*
X82216462Y-110563888D01*
X82216666Y-110563822D01*
X82223607Y-110560065D01*
X82223610Y-110560065D01*
X82269666Y-110535140D01*
X82274144Y-110532835D01*
X82321211Y-110509826D01*
X82321212Y-110509824D01*
X82328308Y-110506356D01*
X82328476Y-110506230D01*
X82333824Y-110500419D01*
X82333826Y-110500419D01*
X82369294Y-110461889D01*
X82372795Y-110458240D01*
X85231035Y-107600000D01*
X108394785Y-107600000D01*
X108413602Y-107803083D01*
X108469418Y-107999251D01*
X108560324Y-108181818D01*
X108683236Y-108344580D01*
X108833958Y-108481981D01*
X109007361Y-108589347D01*
X109007363Y-108589348D01*
X109197544Y-108663024D01*
X109398024Y-108700500D01*
X109398026Y-108700500D01*
X109601974Y-108700500D01*
X109601976Y-108700500D01*
X109802456Y-108663024D01*
X109992637Y-108589348D01*
X110166041Y-108481981D01*
X110316764Y-108344579D01*
X110439673Y-108181821D01*
X110439673Y-108181819D01*
X110439675Y-108181818D01*
X110487683Y-108085403D01*
X110530582Y-107999250D01*
X110586397Y-107803083D01*
X110605215Y-107600000D01*
X110587992Y-107414138D01*
X110586397Y-107396916D01*
X110553797Y-107282343D01*
X110530582Y-107200750D01*
X110503244Y-107145847D01*
X110439675Y-107018181D01*
X110316763Y-106855419D01*
X110166041Y-106718018D01*
X109992638Y-106610652D01*
X109802457Y-106536976D01*
X109735629Y-106524483D01*
X109601976Y-106499500D01*
X109398024Y-106499500D01*
X109297784Y-106518238D01*
X109197542Y-106536976D01*
X109007361Y-106610652D01*
X108833958Y-106718018D01*
X108683236Y-106855419D01*
X108560324Y-107018181D01*
X108469418Y-107200748D01*
X108413602Y-107396916D01*
X108394785Y-107600000D01*
X85231035Y-107600000D01*
X85888889Y-106942146D01*
X85908741Y-106926025D01*
X85917836Y-106920084D01*
X85937273Y-106895110D01*
X85947453Y-106883583D01*
X85947519Y-106883518D01*
X85959624Y-106866561D01*
X85962627Y-106862534D01*
X85994809Y-106821189D01*
X85994810Y-106821185D01*
X85999666Y-106814947D01*
X85999753Y-106814779D01*
X86004193Y-106799866D01*
X86016955Y-106756997D01*
X86018486Y-106752218D01*
X86035500Y-106702660D01*
X86035500Y-106702656D01*
X86038060Y-106695200D01*
X86038093Y-106694970D01*
X86037767Y-106687091D01*
X86037768Y-106687089D01*
X86035606Y-106634807D01*
X86035500Y-106629684D01*
X86035500Y-105060000D01*
X108394785Y-105060000D01*
X108413602Y-105263083D01*
X108469418Y-105459251D01*
X108560324Y-105641818D01*
X108683236Y-105804580D01*
X108833958Y-105941981D01*
X109007361Y-106049347D01*
X109007363Y-106049348D01*
X109197544Y-106123024D01*
X109398024Y-106160500D01*
X109398026Y-106160500D01*
X109601974Y-106160500D01*
X109601976Y-106160500D01*
X109802456Y-106123024D01*
X109992637Y-106049348D01*
X110166041Y-105941981D01*
X110316764Y-105804579D01*
X110439673Y-105641821D01*
X110439673Y-105641819D01*
X110439675Y-105641818D01*
X110502730Y-105515185D01*
X110530582Y-105459250D01*
X110586397Y-105263083D01*
X110605215Y-105060000D01*
X110586397Y-104856917D01*
X110530582Y-104660750D01*
X110530209Y-104660001D01*
X110439675Y-104478181D01*
X110316763Y-104315419D01*
X110166041Y-104178018D01*
X109992638Y-104070652D01*
X109802457Y-103996976D01*
X109708967Y-103979500D01*
X109601976Y-103959500D01*
X109398024Y-103959500D01*
X109297784Y-103978238D01*
X109197542Y-103996976D01*
X109007361Y-104070652D01*
X108833958Y-104178018D01*
X108683236Y-104315419D01*
X108560324Y-104478181D01*
X108469418Y-104660748D01*
X108413602Y-104856916D01*
X108394785Y-105060000D01*
X86035500Y-105060000D01*
X86035500Y-96351803D01*
X86038139Y-96326356D01*
X86040367Y-96315732D01*
X86036452Y-96284322D01*
X86035500Y-96268985D01*
X86035500Y-96268888D01*
X86035500Y-96268886D01*
X86032074Y-96248357D01*
X86031341Y-96243325D01*
X86024866Y-96191375D01*
X86024864Y-96191371D01*
X86023889Y-96183547D01*
X86023819Y-96183327D01*
X86011119Y-96159860D01*
X85995159Y-96130369D01*
X85992822Y-96125829D01*
X85966360Y-96071700D01*
X85966225Y-96071519D01*
X85935908Y-96043610D01*
X85921891Y-96030706D01*
X85918218Y-96027181D01*
X79502149Y-89611111D01*
X79486022Y-89591253D01*
X79480083Y-89582162D01*
X79455110Y-89562725D01*
X79443593Y-89552554D01*
X79443519Y-89552480D01*
X79426594Y-89540397D01*
X79422480Y-89537330D01*
X79381189Y-89505191D01*
X79381186Y-89505190D01*
X79374963Y-89500346D01*
X79374761Y-89500242D01*
X79367200Y-89497990D01*
X79367199Y-89497990D01*
X79317036Y-89483055D01*
X79312162Y-89481493D01*
X79286309Y-89472617D01*
X79229294Y-89432230D01*
X79215574Y-89410608D01*
X79139675Y-89258181D01*
X79016763Y-89095419D01*
X78866041Y-88958018D01*
X78692638Y-88850652D01*
X78502457Y-88776976D01*
X78435629Y-88764484D01*
X78301976Y-88739500D01*
X78098024Y-88739500D01*
X78024259Y-88753289D01*
X77897542Y-88776976D01*
X77707364Y-88850651D01*
X77649561Y-88886440D01*
X77533959Y-88958019D01*
X77533956Y-88958021D01*
X77533957Y-88958021D01*
X77493342Y-88995045D01*
X77430537Y-89025661D01*
X77361151Y-89017461D01*
X77322125Y-88991087D01*
X77311819Y-88980781D01*
X77278334Y-88919458D01*
X77275500Y-88893100D01*
X77275500Y-85706899D01*
X77295185Y-85639860D01*
X77311819Y-85619218D01*
X78919219Y-84011819D01*
X78980542Y-83978334D01*
X79006900Y-83975500D01*
X82993101Y-83975500D01*
X83060140Y-83995185D01*
X83080782Y-84011819D01*
X86015481Y-86946518D01*
X86048966Y-87007841D01*
X86050896Y-87049144D01*
X86044721Y-87099998D01*
X86063763Y-87256818D01*
X86119780Y-87404523D01*
X86209515Y-87534528D01*
X86209516Y-87534529D01*
X86209517Y-87534530D01*
X86327760Y-87639283D01*
X86467635Y-87712696D01*
X86621015Y-87750500D01*
X86778985Y-87750500D01*
X86932365Y-87712696D01*
X87072240Y-87639283D01*
X87190483Y-87534530D01*
X87280220Y-87404523D01*
X87336237Y-87256818D01*
X87355278Y-87100000D01*
X87336237Y-86943182D01*
X87280220Y-86795477D01*
X87190483Y-86665470D01*
X87072240Y-86560717D01*
X87058994Y-86553765D01*
X86932364Y-86487303D01*
X86778985Y-86449500D01*
X86631900Y-86449500D01*
X86564861Y-86429815D01*
X86544219Y-86413181D01*
X83502149Y-83371111D01*
X83486022Y-83351253D01*
X83480083Y-83342162D01*
X83455110Y-83322725D01*
X83443593Y-83312554D01*
X83443519Y-83312480D01*
X83426594Y-83300397D01*
X83422480Y-83297330D01*
X83381189Y-83265191D01*
X83381186Y-83265190D01*
X83374963Y-83260346D01*
X83374761Y-83260242D01*
X83367200Y-83257990D01*
X83367199Y-83257990D01*
X83317036Y-83243055D01*
X83312174Y-83241497D01*
X83293637Y-83235134D01*
X83255202Y-83221939D01*
X83254969Y-83221906D01*
X83209910Y-83223769D01*
X83194806Y-83224394D01*
X83189684Y-83224500D01*
X78851804Y-83224500D01*
X78826358Y-83221861D01*
X78795481Y-83215387D01*
X78795917Y-83213306D01*
X78757521Y-83207044D01*
X78705591Y-83160299D01*
X78687177Y-83092900D01*
X78708125Y-83026244D01*
X78723469Y-83007567D01*
X82069219Y-79661817D01*
X82130542Y-79628333D01*
X82156900Y-79625499D01*
X91243100Y-79625499D01*
X91310139Y-79645184D01*
X91330781Y-79661818D01*
X91694825Y-80025862D01*
X91728310Y-80087185D01*
X91723326Y-80156877D01*
X91681454Y-80212810D01*
X91674382Y-80217632D01*
X91523236Y-80355419D01*
X91400324Y-80518181D01*
X91309418Y-80700748D01*
X91253602Y-80896916D01*
X91234785Y-81100000D01*
X91253602Y-81303083D01*
X91309418Y-81499251D01*
X91400324Y-81681818D01*
X91523236Y-81844580D01*
X91673958Y-81981981D01*
X91847361Y-82089347D01*
X91847363Y-82089348D01*
X91892668Y-82106899D01*
X91896904Y-82108540D01*
X91952306Y-82151113D01*
X91975159Y-82208828D01*
X91976107Y-82216438D01*
X91976185Y-82216682D01*
X92004827Y-82269608D01*
X92007171Y-82274162D01*
X92033634Y-82328292D01*
X92033779Y-82328485D01*
X92078080Y-82369267D01*
X92081779Y-82372816D01*
X94237850Y-84528888D01*
X94253976Y-84548744D01*
X94259916Y-84557836D01*
X94284890Y-84577274D01*
X94296408Y-84587446D01*
X94296482Y-84587520D01*
X94304411Y-84593181D01*
X94313399Y-84599598D01*
X94317508Y-84602662D01*
X94365041Y-84639658D01*
X94365232Y-84639757D01*
X94399601Y-84649988D01*
X94422955Y-84656941D01*
X94427792Y-84658490D01*
X94477340Y-84675500D01*
X94484797Y-84678060D01*
X94485030Y-84678093D01*
X94492909Y-84677767D01*
X94492912Y-84677768D01*
X94545193Y-84675605D01*
X94550316Y-84675500D01*
X103221342Y-84675500D01*
X103246788Y-84678139D01*
X103250587Y-84678935D01*
X103257415Y-84680367D01*
X103287285Y-84676643D01*
X103288824Y-84676452D01*
X103304161Y-84675500D01*
X103304258Y-84675500D01*
X103304261Y-84675500D01*
X103324790Y-84672073D01*
X103329806Y-84671342D01*
X103381773Y-84664866D01*
X103381775Y-84664864D01*
X103389604Y-84663889D01*
X103389813Y-84663822D01*
X103396754Y-84660065D01*
X103396757Y-84660065D01*
X103442813Y-84635140D01*
X103447291Y-84632835D01*
X103494358Y-84609826D01*
X103494359Y-84609824D01*
X103501455Y-84606356D01*
X103501623Y-84606230D01*
X103506971Y-84600419D01*
X103506973Y-84600419D01*
X103542429Y-84561902D01*
X103545929Y-84558253D01*
X103667365Y-84436818D01*
X103728690Y-84403334D01*
X103755047Y-84400500D01*
X103828985Y-84400500D01*
X103982365Y-84362696D01*
X104122240Y-84289283D01*
X104240483Y-84184530D01*
X104330220Y-84054523D01*
X104386237Y-83906818D01*
X104405278Y-83750000D01*
X104405277Y-83749999D01*
X104407093Y-83735052D01*
X104411806Y-83735624D01*
X104418455Y-83695506D01*
X104442435Y-83661747D01*
X107848892Y-80255291D01*
X107868743Y-80239171D01*
X107877836Y-80233231D01*
X107897280Y-80208248D01*
X107907453Y-80196731D01*
X107907520Y-80196665D01*
X107919619Y-80179717D01*
X107922641Y-80175662D01*
X107954809Y-80134336D01*
X107954810Y-80134332D01*
X107959666Y-80128094D01*
X107959753Y-80127925D01*
X107962008Y-80120347D01*
X107962010Y-80120346D01*
X107976951Y-80070156D01*
X107978479Y-80065385D01*
X107995500Y-80015807D01*
X107995500Y-80015802D01*
X107998060Y-80008346D01*
X107998093Y-80008117D01*
X107997767Y-80000237D01*
X107997768Y-80000235D01*
X107995605Y-79947953D01*
X107995500Y-79942831D01*
X107995500Y-79319668D01*
X108015185Y-79252629D01*
X108067989Y-79206874D01*
X108074695Y-79204046D01*
X108112637Y-79189348D01*
X108286041Y-79081981D01*
X108384569Y-78992161D01*
X108436763Y-78944580D01*
X108440091Y-78940173D01*
X108559673Y-78781821D01*
X108559673Y-78781819D01*
X108559675Y-78781818D01*
X108644323Y-78611819D01*
X108650582Y-78599250D01*
X108706397Y-78403083D01*
X108725215Y-78200000D01*
X108706397Y-77996917D01*
X108699054Y-77971111D01*
X108669486Y-77867189D01*
X108650582Y-77800750D01*
X108650209Y-77800001D01*
X108559675Y-77618181D01*
X108518506Y-77563665D01*
X108493814Y-77498304D01*
X108508379Y-77429969D01*
X108529775Y-77401261D01*
X108919218Y-77011819D01*
X108980542Y-76978334D01*
X109006900Y-76975500D01*
X109611332Y-76975500D01*
X109678371Y-76995185D01*
G37*
G04 #@! TD.AperFunction*
M02*
