G04 #@! TF.GenerationSoftware,KiCad,Pcbnew,7.0.2-6a45011f42~172~ubuntu22.04.1*
G04 #@! TF.CreationDate,2023-05-08T10:08:59-04:00*
G04 #@! TF.ProjectId,v2,76322e6b-6963-4616-945f-706362585858,rev?*
G04 #@! TF.SameCoordinates,Original*
G04 #@! TF.FileFunction,Legend,Bot*
G04 #@! TF.FilePolarity,Positive*
%FSLAX46Y46*%
G04 Gerber Fmt 4.6, Leading zero omitted, Abs format (unit mm)*
G04 Created by KiCad (PCBNEW 7.0.2-6a45011f42~172~ubuntu22.04.1) date 2023-05-08 10:08:59*
%MOMM*%
%LPD*%
G01*
G04 APERTURE LIST*
%ADD10O,1.700000X1.700000*%
%ADD11R,1.700000X1.700000*%
G04 APERTURE END LIST*
%LPC*%
D10*
X87300000Y-121800000D03*
X89840000Y-121800000D03*
X92380000Y-121800000D03*
X94920000Y-121800000D03*
D11*
X97460000Y-121800000D03*
D10*
X109500000Y-107600000D03*
X109500000Y-105060000D03*
X109500000Y-102520000D03*
X109500000Y-99980000D03*
X109500000Y-97440000D03*
D11*
X109500000Y-94900000D03*
X102540000Y-78200000D03*
D10*
X105080000Y-78200000D03*
X107620000Y-78200000D03*
X110160000Y-78200000D03*
X112700000Y-78200000D03*
X121800000Y-112700000D03*
X121800000Y-110160000D03*
X121800000Y-107620000D03*
X121800000Y-105080000D03*
D11*
X121800000Y-102540000D03*
X81100000Y-112740000D03*
D10*
X81100000Y-110200000D03*
X81100000Y-107660000D03*
X81100000Y-105120000D03*
X81100000Y-102580000D03*
D11*
X118900000Y-87260000D03*
D10*
X118900000Y-89800000D03*
X118900000Y-92340000D03*
X118900000Y-94880000D03*
X118900000Y-97420000D03*
X78200000Y-87300000D03*
X78200000Y-89840000D03*
X78200000Y-92380000D03*
X78200000Y-94920000D03*
D11*
X78200000Y-97460000D03*
X87260000Y-81100000D03*
D10*
X89800000Y-81100000D03*
X92340000Y-81100000D03*
X94880000Y-81100000D03*
X97420000Y-81100000D03*
X102580000Y-118900000D03*
X105120000Y-118900000D03*
X107660000Y-118900000D03*
X110200000Y-118900000D03*
D11*
X112740000Y-118900000D03*
%LPD*%
M02*
