G04 #@! TF.GenerationSoftware,KiCad,Pcbnew,7.0.5-4d25ed1034~172~ubuntu22.04.1*
G04 #@! TF.CreationDate,2023-06-02T18:33:25-04:00*
G04 #@! TF.ProjectId,v2,76322e6b-6963-4616-945f-706362585858,rev?*
G04 #@! TF.SameCoordinates,Original*
G04 #@! TF.FileFunction,Copper,L2,Bot*
G04 #@! TF.FilePolarity,Positive*
%FSLAX46Y46*%
G04 Gerber Fmt 4.6, Leading zero omitted, Abs format (unit mm)*
G04 Created by KiCad (PCBNEW 7.0.5-4d25ed1034~172~ubuntu22.04.1) date 2023-06-02 18:33:25*
%MOMM*%
%LPD*%
G01*
G04 APERTURE LIST*
G04 #@! TA.AperFunction,ComponentPad*
%ADD10C,1.900000*%
G04 #@! TD*
G04 #@! TA.AperFunction,ComponentPad*
%ADD11R,1.900000X1.900000*%
G04 #@! TD*
G04 #@! TA.AperFunction,ComponentPad*
%ADD12R,1.700000X1.700000*%
G04 #@! TD*
G04 #@! TA.AperFunction,ComponentPad*
%ADD13O,1.700000X1.700000*%
G04 #@! TD*
G04 #@! TA.AperFunction,ViaPad*
%ADD14C,0.800000*%
G04 #@! TD*
G04 #@! TA.AperFunction,Conductor*
%ADD15C,0.250000*%
G04 #@! TD*
G04 #@! TA.AperFunction,Conductor*
%ADD16C,0.200000*%
G04 #@! TD*
G04 APERTURE END LIST*
D10*
X88570000Y-76500000D03*
X91110000Y-76500000D03*
X93650000Y-76500000D03*
X96190000Y-76500000D03*
D11*
X98730000Y-76500000D03*
X101270000Y-76500000D03*
D10*
X103810000Y-76500000D03*
X106350000Y-76500000D03*
X108890000Y-76500000D03*
X111430000Y-76500000D03*
D12*
X109500000Y-94900000D03*
D13*
X109500000Y-97440000D03*
X109500000Y-99980000D03*
X109500000Y-102520000D03*
X109500000Y-105060000D03*
X109500000Y-107600000D03*
D10*
X111430000Y-123500000D03*
X108890000Y-123500000D03*
X106350000Y-123500000D03*
X103810000Y-123500000D03*
D11*
X101270000Y-123500000D03*
X98730000Y-123500000D03*
D10*
X96190000Y-123500000D03*
X93650000Y-123500000D03*
X91110000Y-123500000D03*
X88570000Y-123500000D03*
X123500000Y-88570000D03*
X123500000Y-91110000D03*
X123500000Y-93650000D03*
X123500000Y-96190000D03*
D11*
X123500000Y-98730000D03*
X123500000Y-101270000D03*
D10*
X123500000Y-103810000D03*
X123500000Y-106350000D03*
X123500000Y-108890000D03*
X123500000Y-111430000D03*
X76500000Y-111430000D03*
X76500000Y-108890000D03*
X76500000Y-106350000D03*
X76500000Y-103810000D03*
D11*
X76500000Y-101270000D03*
X76500000Y-98730000D03*
D10*
X76500000Y-96190000D03*
X76500000Y-93650000D03*
X76500000Y-91110000D03*
X76500000Y-88570000D03*
D14*
X115000000Y-113400000D03*
X117300000Y-115700000D03*
X84500000Y-117300000D03*
X86600000Y-115300000D03*
X104300000Y-99300000D03*
X81100000Y-81100000D03*
X119000000Y-80900000D03*
X119100000Y-119000000D03*
X98124500Y-89500000D03*
X81000000Y-119000000D03*
X93000000Y-103000000D03*
X103500000Y-85000000D03*
X103500000Y-83900000D03*
X106400000Y-81900000D03*
X103500000Y-82800000D03*
X115100000Y-81700000D03*
X108000000Y-88000000D03*
X97400000Y-103700000D03*
X120500000Y-100000000D03*
X95400000Y-89200000D03*
X100000000Y-120300000D03*
X95600000Y-103700000D03*
X96500000Y-89224500D03*
X79700000Y-100000000D03*
X99900000Y-79400000D03*
X102900000Y-93900000D03*
X99600000Y-104500000D03*
X107400000Y-86900000D03*
X103800000Y-102000000D03*
X102200000Y-102900000D03*
D15*
X86600000Y-115300000D02*
X86500000Y-115300000D01*
X86500000Y-115300000D02*
X84500000Y-117300000D01*
X117400000Y-115800000D02*
X115000000Y-113400000D01*
X104300000Y-99300000D02*
X106400000Y-99300000D01*
X117800000Y-96810000D02*
X123500000Y-91110000D01*
D16*
X102800000Y-85000000D02*
X99900000Y-82100000D01*
D15*
X82600000Y-97210000D02*
X76500000Y-91110000D01*
X82600000Y-102790000D02*
X82600000Y-97210000D01*
D16*
X99900000Y-82100000D02*
X99900000Y-81700000D01*
X103500000Y-85000000D02*
X102800000Y-85000000D01*
D15*
X76500000Y-108890000D02*
X82600000Y-102790000D01*
X102990000Y-117600000D02*
X108890000Y-123500000D01*
X117800000Y-103190000D02*
X117800000Y-96810000D01*
X96310000Y-81700000D02*
X103690000Y-81700000D01*
X91110000Y-123500000D02*
X97010000Y-117600000D01*
X103690000Y-81700000D02*
X108890000Y-76500000D01*
X123500000Y-108890000D02*
X117800000Y-103190000D01*
X91110000Y-76500000D02*
X96310000Y-81700000D01*
X97010000Y-117600000D02*
X102990000Y-117600000D01*
X76500000Y-106350000D02*
X76150000Y-106350000D01*
X110100000Y-75700000D02*
X109600000Y-75200000D01*
X102250000Y-80600000D02*
X97750000Y-80600000D01*
X119200000Y-102050000D02*
X123500000Y-106350000D01*
X101750000Y-118900000D02*
X106350000Y-123500000D01*
D16*
X110140000Y-75740000D02*
X110140000Y-79540000D01*
D15*
X97750000Y-80600000D02*
X93650000Y-76500000D01*
X107650000Y-75200000D02*
X106350000Y-76500000D01*
X106350000Y-76500000D02*
X102250000Y-80600000D01*
X76150000Y-106350000D02*
X81100000Y-101400000D01*
X109600000Y-75200000D02*
X107650000Y-75200000D01*
D16*
X105900000Y-83900000D02*
X110140000Y-79660000D01*
D15*
X93650000Y-123500000D02*
X98250000Y-118900000D01*
X98250000Y-118900000D02*
X101750000Y-118900000D01*
D16*
X103500000Y-83900000D02*
X105900000Y-83900000D01*
D15*
X81100000Y-101400000D02*
X81100000Y-98800000D01*
X123500000Y-93650000D02*
X119200000Y-97950000D01*
D16*
X110100000Y-75700000D02*
X110140000Y-75740000D01*
D15*
X75950000Y-93650000D02*
X76500000Y-93650000D01*
X119200000Y-97950000D02*
X119200000Y-102050000D01*
X81100000Y-98800000D02*
X75950000Y-93650000D01*
D16*
X110140000Y-79660000D02*
X110140000Y-79540000D01*
D15*
X105500000Y-82800000D02*
X106400000Y-81900000D01*
X103500000Y-82800000D02*
X105500000Y-82800000D01*
X114200000Y-81700000D02*
X108000000Y-87900000D01*
X115100000Y-81700000D02*
X114200000Y-81700000D01*
X108000000Y-87900000D02*
X108000000Y-88000000D01*
X95400000Y-89200000D02*
X96100000Y-88500000D01*
X97000000Y-88500000D02*
X97400000Y-88900000D01*
X120500000Y-100810000D02*
X123500000Y-103810000D01*
X120500000Y-100000000D02*
X120500000Y-100810000D01*
X97400000Y-88900000D02*
X97400000Y-103700000D01*
X120500000Y-99190000D02*
X123500000Y-96190000D01*
X120500000Y-100000000D02*
X120500000Y-99190000D01*
X96100000Y-88500000D02*
X97000000Y-88500000D01*
X99390000Y-120300000D02*
X96190000Y-123500000D01*
X95600000Y-90124500D02*
X95600000Y-103700000D01*
X96500000Y-89224500D02*
X95600000Y-90124500D01*
X100000000Y-120300000D02*
X99390000Y-120300000D01*
X100610000Y-120300000D02*
X103810000Y-123500000D01*
X100000000Y-120300000D02*
X100610000Y-120300000D01*
X79700000Y-100610000D02*
X76500000Y-103810000D01*
X79700000Y-100000000D02*
X79700000Y-100610000D01*
X79700000Y-100000000D02*
X79700000Y-99390000D01*
X79700000Y-99390000D02*
X76500000Y-96190000D01*
X99900000Y-79400000D02*
X99090000Y-79400000D01*
X100910000Y-79400000D02*
X103810000Y-76500000D01*
X99900000Y-79400000D02*
X100910000Y-79400000D01*
X99090000Y-79400000D02*
X96190000Y-76500000D01*
X102900000Y-93900000D02*
X99600000Y-97200000D01*
X99600000Y-97200000D02*
X99600000Y-104500000D01*
X102200000Y-100200000D02*
X102200000Y-97200000D01*
X102200000Y-97200000D02*
X105200000Y-94200000D01*
X103800000Y-102000000D02*
X103800000Y-101800000D01*
X105200000Y-94200000D02*
X105200000Y-89100000D01*
X103800000Y-101800000D02*
X102200000Y-100200000D01*
X105200000Y-89100000D02*
X107400000Y-86900000D01*
G04 #@! TA.AperFunction,Conductor*
G36*
X104362580Y-98908603D02*
G01*
X104378991Y-98912647D01*
X104426480Y-98924352D01*
X104454422Y-98934948D01*
X104512706Y-98965537D01*
X104537297Y-98982511D01*
X104597487Y-99035836D01*
X104598884Y-99038063D01*
X104621088Y-99057089D01*
X104621125Y-99057121D01*
X104623065Y-99058784D01*
X104635019Y-99069027D01*
X104635020Y-99069027D01*
X104655762Y-99086800D01*
X104655783Y-99086817D01*
X104655874Y-99086895D01*
X104655933Y-99086945D01*
X104665650Y-99095270D01*
X104668398Y-99097056D01*
X104703854Y-99115084D01*
X104768469Y-99147939D01*
X104835508Y-99167624D01*
X104891862Y-99175726D01*
X104955415Y-99204752D01*
X104993189Y-99263530D01*
X104993189Y-99333400D01*
X104955414Y-99392178D01*
X104891858Y-99421202D01*
X104891183Y-99421297D01*
X104846157Y-99427517D01*
X104830087Y-99430176D01*
X104830085Y-99430177D01*
X104725644Y-99471332D01*
X104725632Y-99471338D01*
X104710000Y-99481142D01*
X104709733Y-99481217D01*
X104666500Y-99508425D01*
X104651764Y-99517668D01*
X104648798Y-99518503D01*
X104644351Y-99522643D01*
X104626391Y-99538555D01*
X104588392Y-99572208D01*
X104588333Y-99572271D01*
X104559373Y-99597929D01*
X104537301Y-99617483D01*
X104512698Y-99634465D01*
X104454430Y-99665046D01*
X104426482Y-99675645D01*
X104362582Y-99691396D01*
X104332905Y-99695000D01*
X104267095Y-99695000D01*
X104237420Y-99691397D01*
X104173520Y-99675647D01*
X104145573Y-99665048D01*
X104087293Y-99634461D01*
X104062697Y-99617483D01*
X104013430Y-99573836D01*
X103993613Y-99551466D01*
X103956228Y-99497306D01*
X103942335Y-99470835D01*
X103919000Y-99409304D01*
X103911846Y-99380280D01*
X103911349Y-99376187D01*
X103903913Y-99314939D01*
X103903913Y-99285058D01*
X103911847Y-99219713D01*
X103918998Y-99190699D01*
X103942337Y-99129158D01*
X103956225Y-99102697D01*
X103993614Y-99048530D01*
X104013432Y-99026162D01*
X104062697Y-98982516D01*
X104087299Y-98965534D01*
X104113991Y-98951525D01*
X104145571Y-98934950D01*
X104173516Y-98924352D01*
X104226177Y-98911373D01*
X104237419Y-98908603D01*
X104267092Y-98905000D01*
X104332907Y-98905000D01*
X104362580Y-98908603D01*
G37*
G04 #@! TD.AperFunction*
G04 #@! TA.AperFunction,Conductor*
G36*
X107156851Y-75020185D02*
G01*
X107202606Y-75072989D01*
X107212550Y-75142147D01*
X107183525Y-75205703D01*
X107177512Y-75212161D01*
X107000994Y-75388679D01*
X106964643Y-75425030D01*
X106903320Y-75458514D01*
X106833628Y-75453530D01*
X106832169Y-75452975D01*
X106666202Y-75388680D01*
X106666199Y-75388679D01*
X106666198Y-75388679D01*
X106456610Y-75349500D01*
X106243390Y-75349500D01*
X106033802Y-75388679D01*
X106033799Y-75388679D01*
X106033799Y-75388680D01*
X105834982Y-75465701D01*
X105834980Y-75465702D01*
X105653699Y-75577947D01*
X105496127Y-75721593D01*
X105367632Y-75891746D01*
X105272596Y-76082605D01*
X105272596Y-76082607D01*
X105214244Y-76287689D01*
X105203471Y-76403951D01*
X105177685Y-76468888D01*
X105133130Y-76500804D01*
X105169503Y-76521668D01*
X105201693Y-76583681D01*
X105203470Y-76596047D01*
X105214244Y-76712310D01*
X105272595Y-76917389D01*
X105299207Y-76970835D01*
X105311467Y-77039619D01*
X105284594Y-77104113D01*
X105275887Y-77113785D01*
X102151493Y-80238181D01*
X102090170Y-80271666D01*
X102063812Y-80274500D01*
X97936188Y-80274500D01*
X97869149Y-80254815D01*
X97848507Y-80238181D01*
X94724112Y-77113786D01*
X94690627Y-77052463D01*
X94695611Y-76982771D01*
X94700793Y-76970833D01*
X94727404Y-76917391D01*
X94727405Y-76917388D01*
X94785756Y-76712310D01*
X94796529Y-76596047D01*
X94822315Y-76531111D01*
X94864622Y-76500804D01*
X94973130Y-76500804D01*
X95009503Y-76521668D01*
X95041693Y-76583681D01*
X95043471Y-76596048D01*
X95054244Y-76712310D01*
X95112596Y-76917392D01*
X95112596Y-76917394D01*
X95207632Y-77108253D01*
X95336127Y-77278406D01*
X95336128Y-77278407D01*
X95493698Y-77422052D01*
X95674981Y-77534298D01*
X95873802Y-77611321D01*
X96083390Y-77650500D01*
X96083392Y-77650500D01*
X96296608Y-77650500D01*
X96296610Y-77650500D01*
X96506198Y-77611321D01*
X96672169Y-77547023D01*
X96741793Y-77541162D01*
X96803533Y-77573872D01*
X96804644Y-77574970D01*
X98847868Y-79618195D01*
X98851523Y-79622184D01*
X98877541Y-79653190D01*
X98877543Y-79653191D01*
X98877545Y-79653194D01*
X98912599Y-79673432D01*
X98917159Y-79676337D01*
X98950316Y-79699554D01*
X98950319Y-79699554D01*
X98955176Y-79701820D01*
X98971933Y-79708760D01*
X98976953Y-79710587D01*
X98976955Y-79710588D01*
X99016830Y-79717618D01*
X99022087Y-79718784D01*
X99061193Y-79729263D01*
X99101510Y-79725735D01*
X99106912Y-79725500D01*
X99331701Y-79725500D01*
X99398740Y-79745185D01*
X99430076Y-79774013D01*
X99471718Y-79828282D01*
X99597159Y-79924536D01*
X99743238Y-79985044D01*
X99821619Y-79995363D01*
X99899999Y-80005682D01*
X99900000Y-80005682D01*
X99900001Y-80005682D01*
X99952253Y-79998802D01*
X100056762Y-79985044D01*
X100202841Y-79924536D01*
X100328282Y-79828282D01*
X100369923Y-79774013D01*
X100426351Y-79732811D01*
X100468299Y-79725500D01*
X100893078Y-79725500D01*
X100898481Y-79725735D01*
X100938807Y-79729264D01*
X100977940Y-79718777D01*
X100983162Y-79717619D01*
X101023045Y-79710588D01*
X101023050Y-79710584D01*
X101028099Y-79708747D01*
X101044824Y-79701819D01*
X101049681Y-79699554D01*
X101049684Y-79699554D01*
X101082841Y-79676335D01*
X101087390Y-79673438D01*
X101122455Y-79653194D01*
X101122459Y-79653190D01*
X101137863Y-79634831D01*
X101148481Y-79622176D01*
X101152122Y-79618202D01*
X103195357Y-77574968D01*
X103256678Y-77541485D01*
X103326370Y-77546469D01*
X103327829Y-77547024D01*
X103480560Y-77606191D01*
X103493802Y-77611321D01*
X103703390Y-77650500D01*
X103703392Y-77650500D01*
X103916608Y-77650500D01*
X103916610Y-77650500D01*
X104126198Y-77611321D01*
X104325019Y-77534298D01*
X104506302Y-77422052D01*
X104663872Y-77278407D01*
X104792366Y-77108255D01*
X104854849Y-76982771D01*
X104887403Y-76917394D01*
X104887403Y-76917393D01*
X104887405Y-76917389D01*
X104945756Y-76712310D01*
X104956529Y-76596047D01*
X104982315Y-76531111D01*
X105026869Y-76499194D01*
X104990497Y-76478331D01*
X104958307Y-76416318D01*
X104956529Y-76403951D01*
X104952029Y-76355387D01*
X104945756Y-76287690D01*
X104887405Y-76082611D01*
X104887403Y-76082606D01*
X104887403Y-76082605D01*
X104792367Y-75891746D01*
X104663872Y-75721593D01*
X104585897Y-75650509D01*
X104506302Y-75577948D01*
X104325019Y-75465702D01*
X104325017Y-75465701D01*
X104169484Y-75405448D01*
X104126198Y-75388679D01*
X103916610Y-75349500D01*
X103703390Y-75349500D01*
X103493802Y-75388679D01*
X103493799Y-75388679D01*
X103493799Y-75388680D01*
X103294982Y-75465701D01*
X103294980Y-75465702D01*
X103113699Y-75577947D01*
X102956127Y-75721593D01*
X102827632Y-75891746D01*
X102732596Y-76082605D01*
X102732596Y-76082607D01*
X102674244Y-76287689D01*
X102667971Y-76355387D01*
X102642185Y-76420324D01*
X102585384Y-76461012D01*
X102515604Y-76464532D01*
X102454997Y-76429767D01*
X102422807Y-76367754D01*
X102420500Y-76343946D01*
X102420500Y-75530249D01*
X102420499Y-75530247D01*
X102408868Y-75471770D01*
X102408867Y-75471769D01*
X102364552Y-75405447D01*
X102298230Y-75361132D01*
X102298229Y-75361131D01*
X102239752Y-75349500D01*
X102239748Y-75349500D01*
X100300252Y-75349500D01*
X100300247Y-75349500D01*
X100241770Y-75361131D01*
X100241769Y-75361132D01*
X100175447Y-75405447D01*
X100131132Y-75471769D01*
X100131131Y-75471770D01*
X100121617Y-75519605D01*
X100089232Y-75581516D01*
X100028516Y-75616090D01*
X99958747Y-75612351D01*
X99902075Y-75571484D01*
X99878383Y-75519605D01*
X99868868Y-75471770D01*
X99868867Y-75471769D01*
X99824552Y-75405447D01*
X99758230Y-75361132D01*
X99758229Y-75361131D01*
X99699752Y-75349500D01*
X99699748Y-75349500D01*
X97760252Y-75349500D01*
X97760247Y-75349500D01*
X97701770Y-75361131D01*
X97701769Y-75361132D01*
X97635447Y-75405447D01*
X97591132Y-75471769D01*
X97591131Y-75471770D01*
X97579500Y-75530247D01*
X97579500Y-76343946D01*
X97559815Y-76410985D01*
X97507011Y-76456740D01*
X97437853Y-76466684D01*
X97374297Y-76437659D01*
X97336523Y-76378881D01*
X97332029Y-76355387D01*
X97330969Y-76343946D01*
X97325756Y-76287690D01*
X97267405Y-76082611D01*
X97267403Y-76082606D01*
X97267403Y-76082605D01*
X97172367Y-75891746D01*
X97043872Y-75721593D01*
X96965897Y-75650509D01*
X96886302Y-75577948D01*
X96705019Y-75465702D01*
X96705017Y-75465701D01*
X96549484Y-75405448D01*
X96506198Y-75388679D01*
X96296610Y-75349500D01*
X96083390Y-75349500D01*
X95873802Y-75388679D01*
X95873799Y-75388679D01*
X95873799Y-75388680D01*
X95674982Y-75465701D01*
X95674980Y-75465702D01*
X95493699Y-75577947D01*
X95336127Y-75721593D01*
X95207632Y-75891746D01*
X95112596Y-76082605D01*
X95112596Y-76082607D01*
X95054244Y-76287689D01*
X95043471Y-76403951D01*
X95017685Y-76468888D01*
X94973130Y-76500804D01*
X94864622Y-76500804D01*
X94866869Y-76499194D01*
X94830497Y-76478331D01*
X94798307Y-76416318D01*
X94796529Y-76403951D01*
X94792029Y-76355387D01*
X94785756Y-76287690D01*
X94727405Y-76082611D01*
X94727403Y-76082606D01*
X94727403Y-76082605D01*
X94632367Y-75891746D01*
X94503872Y-75721593D01*
X94425897Y-75650509D01*
X94346302Y-75577948D01*
X94165019Y-75465702D01*
X94165017Y-75465701D01*
X94009484Y-75405448D01*
X93966198Y-75388679D01*
X93756610Y-75349500D01*
X93543390Y-75349500D01*
X93333802Y-75388679D01*
X93333799Y-75388679D01*
X93333799Y-75388680D01*
X93134982Y-75465701D01*
X93134980Y-75465702D01*
X92953699Y-75577947D01*
X92796127Y-75721593D01*
X92667632Y-75891746D01*
X92572596Y-76082605D01*
X92572596Y-76082607D01*
X92514244Y-76287689D01*
X92503471Y-76403951D01*
X92477685Y-76468888D01*
X92433130Y-76500804D01*
X92469503Y-76521668D01*
X92501693Y-76583681D01*
X92503471Y-76596048D01*
X92514244Y-76712310D01*
X92572596Y-76917392D01*
X92572596Y-76917394D01*
X92667632Y-77108253D01*
X92796127Y-77278406D01*
X92796128Y-77278407D01*
X92953698Y-77422052D01*
X93134981Y-77534298D01*
X93333802Y-77611321D01*
X93543390Y-77650500D01*
X93543392Y-77650500D01*
X93756608Y-77650500D01*
X93756610Y-77650500D01*
X93966198Y-77611321D01*
X94132169Y-77547023D01*
X94201793Y-77541162D01*
X94263533Y-77573872D01*
X94264644Y-77574970D01*
X97507863Y-80818189D01*
X97511518Y-80822178D01*
X97537541Y-80853190D01*
X97537543Y-80853191D01*
X97537545Y-80853194D01*
X97537547Y-80853195D01*
X97537548Y-80853196D01*
X97572599Y-80873433D01*
X97577162Y-80876339D01*
X97610316Y-80899554D01*
X97610319Y-80899554D01*
X97615176Y-80901820D01*
X97631933Y-80908760D01*
X97636953Y-80910587D01*
X97636955Y-80910588D01*
X97672806Y-80916909D01*
X97676808Y-80917615D01*
X97682080Y-80918783D01*
X97721193Y-80929264D01*
X97761522Y-80925735D01*
X97766924Y-80925500D01*
X102233078Y-80925500D01*
X102238481Y-80925735D01*
X102278807Y-80929264D01*
X102317940Y-80918777D01*
X102323162Y-80917619D01*
X102363045Y-80910588D01*
X102363050Y-80910584D01*
X102368099Y-80908747D01*
X102384824Y-80901819D01*
X102389681Y-80899554D01*
X102389684Y-80899554D01*
X102422841Y-80876335D01*
X102427390Y-80873438D01*
X102462455Y-80853194D01*
X102462459Y-80853190D01*
X102488476Y-80822182D01*
X102492122Y-80818202D01*
X105735357Y-77574967D01*
X105796678Y-77541484D01*
X105866370Y-77546468D01*
X105867739Y-77546988D01*
X106033802Y-77611321D01*
X106243390Y-77650500D01*
X106243392Y-77650500D01*
X106456608Y-77650500D01*
X106456610Y-77650500D01*
X106666198Y-77611321D01*
X106865019Y-77534298D01*
X107046302Y-77422052D01*
X107203872Y-77278407D01*
X107332366Y-77108255D01*
X107394849Y-76982771D01*
X107427403Y-76917394D01*
X107427403Y-76917393D01*
X107427405Y-76917389D01*
X107485756Y-76712310D01*
X107496529Y-76596047D01*
X107522315Y-76531111D01*
X107566869Y-76499194D01*
X107530497Y-76478331D01*
X107498307Y-76416318D01*
X107496529Y-76403951D01*
X107492029Y-76355387D01*
X107485756Y-76287690D01*
X107427405Y-76082611D01*
X107414583Y-76056861D01*
X107400792Y-76029163D01*
X107388532Y-75960378D01*
X107415406Y-75895883D01*
X107424092Y-75886232D01*
X107748509Y-75561816D01*
X107809830Y-75528334D01*
X107836188Y-75525500D01*
X107935185Y-75525500D01*
X108002224Y-75545185D01*
X108047979Y-75597989D01*
X108057923Y-75667147D01*
X108034139Y-75724226D01*
X108027481Y-75733044D01*
X107907632Y-75891746D01*
X107812596Y-76082605D01*
X107812596Y-76082607D01*
X107754244Y-76287689D01*
X107743471Y-76403951D01*
X107717685Y-76468888D01*
X107673130Y-76500804D01*
X107709503Y-76521668D01*
X107741693Y-76583681D01*
X107743470Y-76596047D01*
X107754244Y-76712310D01*
X107812595Y-76917389D01*
X107839207Y-76970835D01*
X107851467Y-77039619D01*
X107824594Y-77104113D01*
X107815887Y-77113785D01*
X103591493Y-81338181D01*
X103530170Y-81371666D01*
X103503812Y-81374500D01*
X96496188Y-81374500D01*
X96429149Y-81354815D01*
X96408507Y-81338181D01*
X92184112Y-77113786D01*
X92150627Y-77052463D01*
X92155611Y-76982771D01*
X92160793Y-76970833D01*
X92187404Y-76917391D01*
X92187405Y-76917388D01*
X92245756Y-76712310D01*
X92256529Y-76596047D01*
X92282315Y-76531111D01*
X92326869Y-76499194D01*
X92290497Y-76478331D01*
X92258307Y-76416318D01*
X92256529Y-76403951D01*
X92252029Y-76355387D01*
X92245756Y-76287690D01*
X92187405Y-76082611D01*
X92187403Y-76082606D01*
X92187403Y-76082605D01*
X92092367Y-75891746D01*
X91963872Y-75721593D01*
X91885897Y-75650509D01*
X91806302Y-75577948D01*
X91625019Y-75465702D01*
X91625017Y-75465701D01*
X91469484Y-75405448D01*
X91426198Y-75388679D01*
X91216610Y-75349500D01*
X91003390Y-75349500D01*
X90793802Y-75388679D01*
X90793799Y-75388679D01*
X90793799Y-75388680D01*
X90594982Y-75465701D01*
X90594980Y-75465702D01*
X90413699Y-75577947D01*
X90256127Y-75721593D01*
X90127632Y-75891746D01*
X90032596Y-76082605D01*
X90032596Y-76082607D01*
X89974244Y-76287689D01*
X89954570Y-76499999D01*
X89954570Y-76500000D01*
X89974244Y-76712310D01*
X90032596Y-76917392D01*
X90032596Y-76917394D01*
X90127632Y-77108253D01*
X90256127Y-77278406D01*
X90256128Y-77278407D01*
X90413698Y-77422052D01*
X90594981Y-77534298D01*
X90793802Y-77611321D01*
X91003390Y-77650500D01*
X91003392Y-77650500D01*
X91216608Y-77650500D01*
X91216610Y-77650500D01*
X91426198Y-77611321D01*
X91592169Y-77547023D01*
X91661793Y-77541162D01*
X91723533Y-77573872D01*
X91724644Y-77574970D01*
X96067863Y-81918189D01*
X96071518Y-81922178D01*
X96097541Y-81953190D01*
X96097543Y-81953191D01*
X96097545Y-81953194D01*
X96097547Y-81953195D01*
X96097548Y-81953196D01*
X96132599Y-81973433D01*
X96137162Y-81976339D01*
X96170316Y-81999554D01*
X96170319Y-81999554D01*
X96175176Y-82001820D01*
X96191942Y-82008764D01*
X96196951Y-82010587D01*
X96196954Y-82010587D01*
X96196955Y-82010588D01*
X96236833Y-82017619D01*
X96242065Y-82018778D01*
X96281194Y-82029264D01*
X96321523Y-82025735D01*
X96326925Y-82025500D01*
X99477335Y-82025500D01*
X99544374Y-82045185D01*
X99590129Y-82097989D01*
X99601203Y-82143773D01*
X99602415Y-82169992D01*
X99602416Y-82169997D01*
X99605214Y-82176334D01*
X99613664Y-82203620D01*
X99614937Y-82210429D01*
X99614937Y-82210430D01*
X99631260Y-82236793D01*
X99635263Y-82244386D01*
X99647794Y-82272765D01*
X99647795Y-82272766D01*
X99647796Y-82272768D01*
X99652689Y-82277661D01*
X99670435Y-82300065D01*
X99674077Y-82305948D01*
X99674080Y-82305951D01*
X99698826Y-82324639D01*
X99705311Y-82330282D01*
X102543078Y-85168049D01*
X102548721Y-85174533D01*
X102556041Y-85184226D01*
X102556042Y-85184228D01*
X102580659Y-85206669D01*
X102591375Y-85216439D01*
X102593423Y-85218394D01*
X102607203Y-85232174D01*
X102609413Y-85233688D01*
X102616143Y-85239018D01*
X102627016Y-85248930D01*
X102639064Y-85259914D01*
X102639065Y-85259914D01*
X102639067Y-85259916D01*
X102645530Y-85262419D01*
X102670807Y-85275743D01*
X102676519Y-85279656D01*
X102706702Y-85286754D01*
X102714903Y-85289294D01*
X102743827Y-85300500D01*
X102750751Y-85300500D01*
X102779141Y-85303793D01*
X102785881Y-85305379D01*
X102816590Y-85301095D01*
X102825166Y-85300500D01*
X102912518Y-85300500D01*
X102979557Y-85320185D01*
X103010892Y-85349013D01*
X103071718Y-85428282D01*
X103197159Y-85524536D01*
X103343238Y-85585044D01*
X103421619Y-85595363D01*
X103499999Y-85605682D01*
X103500000Y-85605682D01*
X103500001Y-85605682D01*
X103552253Y-85598802D01*
X103656762Y-85585044D01*
X103802841Y-85524536D01*
X103928282Y-85428282D01*
X104024536Y-85302841D01*
X104085044Y-85156762D01*
X104105682Y-85000000D01*
X104085044Y-84843238D01*
X104024536Y-84697159D01*
X103928282Y-84571718D01*
X103897860Y-84548374D01*
X103856658Y-84491949D01*
X103852503Y-84422203D01*
X103886714Y-84361282D01*
X103897851Y-84351631D01*
X103928282Y-84328282D01*
X103989106Y-84249013D01*
X104045534Y-84207811D01*
X104087482Y-84200500D01*
X105837159Y-84200500D01*
X105845733Y-84201095D01*
X105857761Y-84202772D01*
X105857761Y-84202771D01*
X105857765Y-84202773D01*
X105900920Y-84200778D01*
X105905510Y-84200566D01*
X105908373Y-84200500D01*
X105927843Y-84200500D01*
X105927844Y-84200500D01*
X105930468Y-84200009D01*
X105939021Y-84199016D01*
X105940245Y-84198959D01*
X105969992Y-84197585D01*
X105976322Y-84194789D01*
X106003629Y-84186332D01*
X106010433Y-84185061D01*
X106036797Y-84168736D01*
X106044392Y-84164733D01*
X106072765Y-84152206D01*
X106077661Y-84147309D01*
X106100069Y-84129561D01*
X106105952Y-84125919D01*
X106124649Y-84101158D01*
X106130266Y-84094703D01*
X110308063Y-79916907D01*
X110314536Y-79911276D01*
X110324224Y-79903959D01*
X110324228Y-79903958D01*
X110356449Y-79868611D01*
X110358357Y-79866613D01*
X110372175Y-79852797D01*
X110373692Y-79850581D01*
X110379017Y-79843856D01*
X110399916Y-79820933D01*
X110402415Y-79814480D01*
X110415750Y-79789183D01*
X110415766Y-79789158D01*
X110419657Y-79783480D01*
X110426757Y-79753285D01*
X110429294Y-79745094D01*
X110440500Y-79716173D01*
X110440500Y-79709247D01*
X110443794Y-79680855D01*
X110445379Y-79674118D01*
X110441094Y-79643405D01*
X110440500Y-79634831D01*
X110440500Y-75802846D01*
X110441095Y-75794270D01*
X110442772Y-75782240D01*
X110442774Y-75782236D01*
X110440566Y-75734468D01*
X110440500Y-75731606D01*
X110440500Y-75712159D01*
X110440500Y-75712156D01*
X110440009Y-75709532D01*
X110439018Y-75700995D01*
X110437586Y-75670009D01*
X110434787Y-75663672D01*
X110426331Y-75636367D01*
X110425061Y-75629567D01*
X110422424Y-75625309D01*
X110408076Y-75592123D01*
X110399554Y-75560317D01*
X110399554Y-75560316D01*
X110350298Y-75489972D01*
X110072507Y-75212181D01*
X110039022Y-75150858D01*
X110044006Y-75081166D01*
X110085878Y-75025233D01*
X110151342Y-75000816D01*
X110160188Y-75000500D01*
X122375500Y-75000500D01*
X122442539Y-75020185D01*
X122488294Y-75072989D01*
X122499500Y-75124500D01*
X122499500Y-77475467D01*
X122499416Y-77475889D01*
X122499459Y-77500001D01*
X122499544Y-77500206D01*
X122499616Y-77500382D01*
X122499618Y-77500384D01*
X122499808Y-77500462D01*
X122500000Y-77500541D01*
X122500002Y-77500539D01*
X122524616Y-77500524D01*
X122524616Y-77500528D01*
X122524760Y-77500500D01*
X124875500Y-77500500D01*
X124942539Y-77520185D01*
X124988294Y-77572989D01*
X124999500Y-77624500D01*
X124999500Y-122375500D01*
X124979815Y-122442539D01*
X124927011Y-122488294D01*
X124875500Y-122499500D01*
X122524760Y-122499500D01*
X122524554Y-122499459D01*
X122499998Y-122499459D01*
X122499909Y-122499496D01*
X122499619Y-122499615D01*
X122499615Y-122499618D01*
X122499459Y-122499999D01*
X122499476Y-122524616D01*
X122499471Y-122524616D01*
X122499500Y-122524759D01*
X122499500Y-124875500D01*
X122479815Y-124942539D01*
X122427011Y-124988294D01*
X122375500Y-124999500D01*
X77624500Y-124999500D01*
X77557461Y-124979815D01*
X77511706Y-124927011D01*
X77500500Y-124875500D01*
X77500500Y-123500000D01*
X89954570Y-123500000D01*
X89974244Y-123712310D01*
X90032596Y-123917392D01*
X90032596Y-123917394D01*
X90127632Y-124108253D01*
X90127634Y-124108255D01*
X90256128Y-124278407D01*
X90413698Y-124422052D01*
X90594981Y-124534298D01*
X90793802Y-124611321D01*
X91003390Y-124650500D01*
X91003392Y-124650500D01*
X91216608Y-124650500D01*
X91216610Y-124650500D01*
X91426198Y-124611321D01*
X91625019Y-124534298D01*
X91806302Y-124422052D01*
X91963872Y-124278407D01*
X92092366Y-124108255D01*
X92187405Y-123917389D01*
X92245756Y-123712310D01*
X92256529Y-123596047D01*
X92282315Y-123531111D01*
X92324622Y-123500804D01*
X92433130Y-123500804D01*
X92469503Y-123521668D01*
X92501693Y-123583681D01*
X92503471Y-123596048D01*
X92514244Y-123712310D01*
X92572596Y-123917392D01*
X92572596Y-123917394D01*
X92667632Y-124108253D01*
X92667634Y-124108255D01*
X92796128Y-124278407D01*
X92953698Y-124422052D01*
X93134981Y-124534298D01*
X93333802Y-124611321D01*
X93543390Y-124650500D01*
X93543392Y-124650500D01*
X93756608Y-124650500D01*
X93756610Y-124650500D01*
X93966198Y-124611321D01*
X94165019Y-124534298D01*
X94346302Y-124422052D01*
X94503872Y-124278407D01*
X94632366Y-124108255D01*
X94727405Y-123917389D01*
X94785756Y-123712310D01*
X94796529Y-123596047D01*
X94822315Y-123531111D01*
X94864622Y-123500804D01*
X94973130Y-123500804D01*
X95009503Y-123521668D01*
X95041693Y-123583681D01*
X95043471Y-123596048D01*
X95054244Y-123712310D01*
X95112596Y-123917392D01*
X95112596Y-123917394D01*
X95207632Y-124108253D01*
X95207634Y-124108255D01*
X95336128Y-124278407D01*
X95493698Y-124422052D01*
X95674981Y-124534298D01*
X95873802Y-124611321D01*
X96083390Y-124650500D01*
X96083392Y-124650500D01*
X96296608Y-124650500D01*
X96296610Y-124650500D01*
X96506198Y-124611321D01*
X96705019Y-124534298D01*
X96886302Y-124422052D01*
X97043872Y-124278407D01*
X97172366Y-124108255D01*
X97267405Y-123917389D01*
X97325756Y-123712310D01*
X97332029Y-123644611D01*
X97357815Y-123579675D01*
X97414615Y-123538987D01*
X97484396Y-123535467D01*
X97545003Y-123570232D01*
X97577193Y-123632245D01*
X97579500Y-123656053D01*
X97579499Y-124469750D01*
X97579500Y-124469752D01*
X97591131Y-124528229D01*
X97591132Y-124528230D01*
X97635447Y-124594552D01*
X97701769Y-124638867D01*
X97701770Y-124638868D01*
X97760247Y-124650499D01*
X97760250Y-124650500D01*
X97760252Y-124650500D01*
X99699750Y-124650500D01*
X99699751Y-124650499D01*
X99714568Y-124647552D01*
X99758229Y-124638868D01*
X99758229Y-124638867D01*
X99758231Y-124638867D01*
X99824552Y-124594552D01*
X99868867Y-124528231D01*
X99868867Y-124528229D01*
X99868868Y-124528229D01*
X99878383Y-124480394D01*
X99910768Y-124418483D01*
X99971483Y-124383909D01*
X100041253Y-124387648D01*
X100097925Y-124428514D01*
X100121617Y-124480394D01*
X100131131Y-124528229D01*
X100131132Y-124528230D01*
X100175447Y-124594552D01*
X100241769Y-124638867D01*
X100241770Y-124638868D01*
X100300247Y-124650499D01*
X100300250Y-124650500D01*
X100300252Y-124650500D01*
X102239750Y-124650500D01*
X102239751Y-124650499D01*
X102254568Y-124647552D01*
X102298229Y-124638868D01*
X102298229Y-124638867D01*
X102298231Y-124638867D01*
X102364552Y-124594552D01*
X102408867Y-124528231D01*
X102408867Y-124528229D01*
X102408868Y-124528229D01*
X102420499Y-124469752D01*
X102420500Y-124469748D01*
X102420499Y-123656046D01*
X102440183Y-123589009D01*
X102492987Y-123543254D01*
X102562146Y-123533310D01*
X102625702Y-123562335D01*
X102663476Y-123621113D01*
X102667970Y-123644606D01*
X102674244Y-123712310D01*
X102732596Y-123917392D01*
X102732596Y-123917394D01*
X102827632Y-124108253D01*
X102827634Y-124108255D01*
X102956128Y-124278407D01*
X103113698Y-124422052D01*
X103294981Y-124534298D01*
X103493802Y-124611321D01*
X103703390Y-124650500D01*
X103703392Y-124650500D01*
X103916608Y-124650500D01*
X103916610Y-124650500D01*
X104126198Y-124611321D01*
X104325019Y-124534298D01*
X104506302Y-124422052D01*
X104663872Y-124278407D01*
X104792366Y-124108255D01*
X104887405Y-123917389D01*
X104945756Y-123712310D01*
X104956529Y-123596047D01*
X104982315Y-123531111D01*
X105026869Y-123499194D01*
X104990497Y-123478331D01*
X104958307Y-123416318D01*
X104956529Y-123403951D01*
X104953175Y-123367759D01*
X104945756Y-123287690D01*
X104887405Y-123082611D01*
X104887403Y-123082606D01*
X104887403Y-123082605D01*
X104792367Y-122891746D01*
X104663872Y-122721593D01*
X104548141Y-122616090D01*
X104506302Y-122577948D01*
X104325019Y-122465702D01*
X104325017Y-122465701D01*
X104169484Y-122405448D01*
X104126198Y-122388679D01*
X103916610Y-122349500D01*
X103703390Y-122349500D01*
X103564303Y-122375500D01*
X103493796Y-122388680D01*
X103327830Y-122452975D01*
X103258207Y-122458836D01*
X103196467Y-122426126D01*
X103195356Y-122425029D01*
X101474628Y-120704302D01*
X100852119Y-120081793D01*
X100848474Y-120077814D01*
X100822456Y-120046807D01*
X100822455Y-120046806D01*
X100811058Y-120040226D01*
X100787392Y-120026561D01*
X100782831Y-120023655D01*
X100769687Y-120014452D01*
X100749684Y-120000446D01*
X100749681Y-120000445D01*
X100744861Y-119998197D01*
X100728055Y-119991235D01*
X100723043Y-119989411D01*
X100683190Y-119982383D01*
X100677910Y-119981212D01*
X100638808Y-119970735D01*
X100603892Y-119973790D01*
X100598481Y-119974264D01*
X100593078Y-119974500D01*
X100568299Y-119974500D01*
X100501260Y-119954815D01*
X100469923Y-119925986D01*
X100428283Y-119871719D01*
X100428282Y-119871718D01*
X100302841Y-119775464D01*
X100156762Y-119714956D01*
X100156760Y-119714955D01*
X100000001Y-119694318D01*
X99999999Y-119694318D01*
X99843239Y-119714955D01*
X99843237Y-119714956D01*
X99697160Y-119775463D01*
X99571716Y-119871719D01*
X99530077Y-119925986D01*
X99473649Y-119967189D01*
X99431701Y-119974500D01*
X99406910Y-119974500D01*
X99401506Y-119974264D01*
X99395993Y-119973781D01*
X99361192Y-119970736D01*
X99322105Y-119981210D01*
X99316825Y-119982381D01*
X99276957Y-119989411D01*
X99271983Y-119991221D01*
X99255118Y-119998207D01*
X99250313Y-120000447D01*
X99217162Y-120023659D01*
X99212603Y-120026563D01*
X99177545Y-120046805D01*
X99151523Y-120077815D01*
X99147869Y-120081803D01*
X96804643Y-122425029D01*
X96743320Y-122458514D01*
X96673628Y-122453530D01*
X96672169Y-122452975D01*
X96506202Y-122388680D01*
X96506199Y-122388679D01*
X96506198Y-122388679D01*
X96296610Y-122349500D01*
X96083390Y-122349500D01*
X95873802Y-122388679D01*
X95873799Y-122388679D01*
X95873799Y-122388680D01*
X95674982Y-122465701D01*
X95674980Y-122465702D01*
X95493699Y-122577947D01*
X95336127Y-122721593D01*
X95207632Y-122891746D01*
X95112596Y-123082605D01*
X95112596Y-123082607D01*
X95054244Y-123287689D01*
X95043471Y-123403951D01*
X95017685Y-123468888D01*
X94973130Y-123500804D01*
X94864622Y-123500804D01*
X94866869Y-123499194D01*
X94830497Y-123478331D01*
X94798307Y-123416318D01*
X94796529Y-123403951D01*
X94793175Y-123367759D01*
X94785756Y-123287690D01*
X94727405Y-123082611D01*
X94700793Y-123029166D01*
X94700792Y-123029163D01*
X94688532Y-122960378D01*
X94715406Y-122895883D01*
X94724102Y-122886222D01*
X98348507Y-119261819D01*
X98409831Y-119228334D01*
X98436189Y-119225500D01*
X101563812Y-119225500D01*
X101630851Y-119245185D01*
X101651493Y-119261819D01*
X105275887Y-122886214D01*
X105309372Y-122947537D01*
X105304388Y-123017229D01*
X105299207Y-123029165D01*
X105272596Y-123082608D01*
X105214244Y-123287689D01*
X105203471Y-123403951D01*
X105177685Y-123468888D01*
X105133130Y-123500804D01*
X105169503Y-123521668D01*
X105201693Y-123583681D01*
X105203471Y-123596048D01*
X105214244Y-123712310D01*
X105272596Y-123917392D01*
X105272596Y-123917394D01*
X105367632Y-124108253D01*
X105367634Y-124108255D01*
X105496128Y-124278407D01*
X105653698Y-124422052D01*
X105834981Y-124534298D01*
X106033802Y-124611321D01*
X106243390Y-124650500D01*
X106243392Y-124650500D01*
X106456608Y-124650500D01*
X106456610Y-124650500D01*
X106666198Y-124611321D01*
X106865019Y-124534298D01*
X107046302Y-124422052D01*
X107203872Y-124278407D01*
X107332366Y-124108255D01*
X107427405Y-123917389D01*
X107485756Y-123712310D01*
X107496529Y-123596047D01*
X107522315Y-123531111D01*
X107566869Y-123499194D01*
X107530497Y-123478331D01*
X107498307Y-123416318D01*
X107496529Y-123403951D01*
X107493175Y-123367759D01*
X107485756Y-123287690D01*
X107427405Y-123082611D01*
X107427403Y-123082606D01*
X107427403Y-123082605D01*
X107332367Y-122891746D01*
X107203872Y-122721593D01*
X107088141Y-122616090D01*
X107046302Y-122577948D01*
X106865019Y-122465702D01*
X106865017Y-122465701D01*
X106709484Y-122405448D01*
X106666198Y-122388679D01*
X106456610Y-122349500D01*
X106243390Y-122349500D01*
X106104303Y-122375500D01*
X106033796Y-122388680D01*
X105867830Y-122452975D01*
X105798207Y-122458836D01*
X105736467Y-122426126D01*
X105735356Y-122425029D01*
X105448146Y-122137819D01*
X101992119Y-118681793D01*
X101988474Y-118677814D01*
X101962456Y-118646807D01*
X101962455Y-118646806D01*
X101951058Y-118640226D01*
X101927392Y-118626561D01*
X101922831Y-118623655D01*
X101909687Y-118614452D01*
X101889684Y-118600446D01*
X101889681Y-118600445D01*
X101884861Y-118598197D01*
X101868055Y-118591235D01*
X101863043Y-118589411D01*
X101823190Y-118582383D01*
X101817910Y-118581212D01*
X101778808Y-118570735D01*
X101743892Y-118573790D01*
X101738481Y-118574264D01*
X101733078Y-118574500D01*
X98266911Y-118574500D01*
X98261507Y-118574264D01*
X98256176Y-118573797D01*
X98221192Y-118570736D01*
X98182105Y-118581210D01*
X98176825Y-118582381D01*
X98136957Y-118589411D01*
X98131983Y-118591221D01*
X98115118Y-118598207D01*
X98110313Y-118600447D01*
X98077162Y-118623659D01*
X98072603Y-118626563D01*
X98037545Y-118646805D01*
X98011523Y-118677815D01*
X98007869Y-118681803D01*
X94264643Y-122425029D01*
X94203320Y-122458514D01*
X94133628Y-122453530D01*
X94132169Y-122452975D01*
X93966202Y-122388680D01*
X93966199Y-122388679D01*
X93966198Y-122388679D01*
X93756610Y-122349500D01*
X93543390Y-122349500D01*
X93333802Y-122388679D01*
X93333799Y-122388679D01*
X93333799Y-122388680D01*
X93134982Y-122465701D01*
X93134980Y-122465702D01*
X92953699Y-122577947D01*
X92796127Y-122721593D01*
X92667632Y-122891746D01*
X92572596Y-123082605D01*
X92572596Y-123082607D01*
X92514244Y-123287689D01*
X92503471Y-123403951D01*
X92477685Y-123468888D01*
X92433130Y-123500804D01*
X92324622Y-123500804D01*
X92326869Y-123499194D01*
X92290497Y-123478331D01*
X92258307Y-123416318D01*
X92256529Y-123403951D01*
X92253175Y-123367759D01*
X92245756Y-123287690D01*
X92187405Y-123082611D01*
X92160793Y-123029166D01*
X92160792Y-123029163D01*
X92148532Y-122960378D01*
X92175406Y-122895883D01*
X92184102Y-122886222D01*
X97108506Y-117961819D01*
X97169830Y-117928334D01*
X97196188Y-117925500D01*
X102803812Y-117925500D01*
X102870851Y-117945185D01*
X102891493Y-117961819D01*
X107815887Y-122886213D01*
X107849372Y-122947536D01*
X107844388Y-123017228D01*
X107839207Y-123029163D01*
X107812597Y-123082604D01*
X107812596Y-123082607D01*
X107754244Y-123287689D01*
X107743471Y-123403951D01*
X107717685Y-123468888D01*
X107673130Y-123500804D01*
X107709503Y-123521668D01*
X107741693Y-123583681D01*
X107743471Y-123596048D01*
X107754244Y-123712310D01*
X107812596Y-123917392D01*
X107812596Y-123917394D01*
X107907632Y-124108253D01*
X107907634Y-124108255D01*
X108036128Y-124278407D01*
X108193698Y-124422052D01*
X108374981Y-124534298D01*
X108573802Y-124611321D01*
X108783390Y-124650500D01*
X108783392Y-124650500D01*
X108996608Y-124650500D01*
X108996610Y-124650500D01*
X109206198Y-124611321D01*
X109405019Y-124534298D01*
X109586302Y-124422052D01*
X109743872Y-124278407D01*
X109872366Y-124108255D01*
X109967405Y-123917389D01*
X110025756Y-123712310D01*
X110045429Y-123500000D01*
X110025756Y-123287690D01*
X109967405Y-123082611D01*
X109967403Y-123082606D01*
X109967403Y-123082605D01*
X109872367Y-122891746D01*
X109743872Y-122721593D01*
X109628141Y-122616090D01*
X109586302Y-122577948D01*
X109405019Y-122465702D01*
X109405017Y-122465701D01*
X109249484Y-122405448D01*
X109206198Y-122388679D01*
X108996610Y-122349500D01*
X108783390Y-122349500D01*
X108573802Y-122388679D01*
X108407834Y-122452975D01*
X108407831Y-122452976D01*
X108338207Y-122458838D01*
X108276467Y-122426128D01*
X108275356Y-122425030D01*
X105776312Y-119925986D01*
X103232119Y-117381793D01*
X103228474Y-117377814D01*
X103202456Y-117346807D01*
X103202455Y-117346806D01*
X103191058Y-117340226D01*
X103167392Y-117326561D01*
X103162831Y-117323655D01*
X103149687Y-117314452D01*
X103129684Y-117300446D01*
X103129681Y-117300445D01*
X103124861Y-117298197D01*
X103108055Y-117291235D01*
X103103043Y-117289411D01*
X103063190Y-117282383D01*
X103057910Y-117281212D01*
X103018808Y-117270735D01*
X102983892Y-117273790D01*
X102978481Y-117274264D01*
X102973078Y-117274500D01*
X97026922Y-117274500D01*
X97021518Y-117274264D01*
X97016107Y-117273790D01*
X96981192Y-117270735D01*
X96981191Y-117270735D01*
X96942091Y-117281212D01*
X96936811Y-117282383D01*
X96896959Y-117289410D01*
X96891961Y-117291229D01*
X96875117Y-117298206D01*
X96870313Y-117300446D01*
X96837166Y-117323656D01*
X96832606Y-117326562D01*
X96797548Y-117346804D01*
X96797540Y-117346810D01*
X96771523Y-117377815D01*
X96767869Y-117381804D01*
X91724643Y-122425029D01*
X91663320Y-122458514D01*
X91593628Y-122453530D01*
X91592169Y-122452975D01*
X91426202Y-122388680D01*
X91426199Y-122388679D01*
X91426198Y-122388679D01*
X91216610Y-122349500D01*
X91003390Y-122349500D01*
X90793802Y-122388679D01*
X90793799Y-122388679D01*
X90793799Y-122388680D01*
X90594982Y-122465701D01*
X90594980Y-122465702D01*
X90413699Y-122577947D01*
X90256127Y-122721593D01*
X90127632Y-122891746D01*
X90032596Y-123082605D01*
X90032596Y-123082607D01*
X89974244Y-123287689D01*
X89954570Y-123499999D01*
X89954570Y-123500000D01*
X77500500Y-123500000D01*
X77500500Y-122524759D01*
X77500528Y-122524616D01*
X77500524Y-122524616D01*
X77500539Y-122500002D01*
X77500541Y-122500000D01*
X77500462Y-122499808D01*
X77500384Y-122499618D01*
X77500383Y-122499617D01*
X77500381Y-122499616D01*
X77500090Y-122499496D01*
X77500001Y-122499459D01*
X77475446Y-122499459D01*
X77475240Y-122499500D01*
X75124500Y-122499500D01*
X75057461Y-122479815D01*
X75011706Y-122427011D01*
X75000500Y-122375500D01*
X75000500Y-117300001D01*
X83894318Y-117300001D01*
X83914955Y-117456760D01*
X83914956Y-117456762D01*
X83975464Y-117602841D01*
X84071718Y-117728282D01*
X84197159Y-117824536D01*
X84343238Y-117885044D01*
X84421619Y-117895362D01*
X84499999Y-117905682D01*
X84500000Y-117905682D01*
X84500001Y-117905682D01*
X84552254Y-117898802D01*
X84656762Y-117885044D01*
X84802841Y-117824536D01*
X84928282Y-117728282D01*
X85024536Y-117602841D01*
X85085044Y-117456762D01*
X85105682Y-117300000D01*
X85103208Y-117281212D01*
X85096753Y-117232180D01*
X85107518Y-117163145D01*
X85132008Y-117128316D01*
X86339949Y-115920375D01*
X86401270Y-115886892D01*
X86443809Y-115885119D01*
X86600000Y-115905682D01*
X86600001Y-115905682D01*
X86652253Y-115898802D01*
X86756762Y-115885044D01*
X86902841Y-115824536D01*
X87028282Y-115728282D01*
X87124536Y-115602841D01*
X87185044Y-115456762D01*
X87204621Y-115308057D01*
X87205682Y-115300001D01*
X87205682Y-115299998D01*
X87185044Y-115143239D01*
X87185044Y-115143238D01*
X87124536Y-114997159D01*
X87028282Y-114871718D01*
X86902841Y-114775464D01*
X86756762Y-114714956D01*
X86756760Y-114714955D01*
X86600001Y-114694318D01*
X86599999Y-114694318D01*
X86443239Y-114714955D01*
X86443237Y-114714956D01*
X86297160Y-114775463D01*
X86171718Y-114871718D01*
X86075463Y-114997160D01*
X86014956Y-115143237D01*
X86014955Y-115143239D01*
X85993257Y-115308057D01*
X85990302Y-115307668D01*
X85974633Y-115361032D01*
X85957999Y-115381674D01*
X84671684Y-116667988D01*
X84610361Y-116701473D01*
X84567818Y-116703246D01*
X84500001Y-116694318D01*
X84499999Y-116694318D01*
X84343239Y-116714955D01*
X84343237Y-116714956D01*
X84197160Y-116775463D01*
X84071718Y-116871718D01*
X83975463Y-116997160D01*
X83914956Y-117143237D01*
X83914955Y-117143239D01*
X83894318Y-117299998D01*
X83894318Y-117300001D01*
X75000500Y-117300001D01*
X75000500Y-113400001D01*
X114394318Y-113400001D01*
X114414955Y-113556760D01*
X114414956Y-113556762D01*
X114475464Y-113702841D01*
X114571718Y-113828282D01*
X114697159Y-113924536D01*
X114843238Y-113985044D01*
X114871548Y-113988771D01*
X114999999Y-114005682D01*
X115000000Y-114005682D01*
X115000001Y-114005682D01*
X115035708Y-114000980D01*
X115067818Y-113996753D01*
X115136853Y-114007518D01*
X115171685Y-114032011D01*
X116667988Y-115528314D01*
X116701473Y-115589637D01*
X116703246Y-115632179D01*
X116694318Y-115699997D01*
X116694318Y-115700001D01*
X116714955Y-115856760D01*
X116714956Y-115856762D01*
X116775464Y-116002841D01*
X116871718Y-116128282D01*
X116997159Y-116224536D01*
X117143238Y-116285044D01*
X117221619Y-116295362D01*
X117299999Y-116305682D01*
X117300000Y-116305682D01*
X117300001Y-116305682D01*
X117352254Y-116298802D01*
X117456762Y-116285044D01*
X117602841Y-116224536D01*
X117728282Y-116128282D01*
X117824536Y-116002841D01*
X117885044Y-115856762D01*
X117905682Y-115700000D01*
X117885044Y-115543238D01*
X117824536Y-115397159D01*
X117728282Y-115271718D01*
X117602841Y-115175464D01*
X117456762Y-115114956D01*
X117456760Y-115114955D01*
X117300001Y-115094318D01*
X117299997Y-115094318D01*
X117232179Y-115103246D01*
X117163144Y-115092480D01*
X117128314Y-115067988D01*
X115632011Y-113571685D01*
X115598526Y-113510362D01*
X115596753Y-113467818D01*
X115605682Y-113400000D01*
X115605682Y-113399998D01*
X115585044Y-113243239D01*
X115585044Y-113243238D01*
X115524536Y-113097159D01*
X115428282Y-112971718D01*
X115302841Y-112875464D01*
X115156762Y-112814956D01*
X115156760Y-112814955D01*
X115000001Y-112794318D01*
X114999999Y-112794318D01*
X114843239Y-112814955D01*
X114843237Y-112814956D01*
X114697160Y-112875463D01*
X114571718Y-112971718D01*
X114475463Y-113097160D01*
X114414956Y-113243237D01*
X114414955Y-113243239D01*
X114394318Y-113399998D01*
X114394318Y-113400001D01*
X75000500Y-113400001D01*
X75000500Y-108890000D01*
X75344571Y-108890000D01*
X75364244Y-109102310D01*
X75422596Y-109307392D01*
X75422596Y-109307394D01*
X75517632Y-109498253D01*
X75517634Y-109498255D01*
X75646128Y-109668407D01*
X75803698Y-109812052D01*
X75984981Y-109924298D01*
X76183802Y-110001321D01*
X76393390Y-110040500D01*
X76393392Y-110040500D01*
X76606608Y-110040500D01*
X76606610Y-110040500D01*
X76816198Y-110001321D01*
X77015019Y-109924298D01*
X77196302Y-109812052D01*
X77353872Y-109668407D01*
X77482366Y-109498255D01*
X77577405Y-109307389D01*
X77635756Y-109102310D01*
X77655429Y-108890000D01*
X77635756Y-108677690D01*
X77577405Y-108472611D01*
X77564583Y-108446861D01*
X77550792Y-108419163D01*
X77538532Y-108350378D01*
X77565406Y-108285883D01*
X77574102Y-108276222D01*
X78250324Y-107600000D01*
X108444417Y-107600000D01*
X108464699Y-107805932D01*
X108475936Y-107842975D01*
X108524768Y-108003954D01*
X108622315Y-108186450D01*
X108622317Y-108186452D01*
X108753589Y-108346410D01*
X108842240Y-108419163D01*
X108913550Y-108477685D01*
X109096046Y-108575232D01*
X109294066Y-108635300D01*
X109294065Y-108635300D01*
X109314348Y-108637297D01*
X109500000Y-108655583D01*
X109705934Y-108635300D01*
X109903954Y-108575232D01*
X110086450Y-108477685D01*
X110246410Y-108346410D01*
X110377685Y-108186450D01*
X110475232Y-108003954D01*
X110535300Y-107805934D01*
X110555583Y-107600000D01*
X110535300Y-107394066D01*
X110475232Y-107196046D01*
X110377685Y-107013550D01*
X110325702Y-106950209D01*
X110246410Y-106853589D01*
X110086452Y-106722317D01*
X110086453Y-106722317D01*
X110086450Y-106722315D01*
X109903954Y-106624768D01*
X109705934Y-106564700D01*
X109705932Y-106564699D01*
X109705934Y-106564699D01*
X109518463Y-106546235D01*
X109500000Y-106544417D01*
X109499999Y-106544417D01*
X109294067Y-106564699D01*
X109096043Y-106624769D01*
X108985897Y-106683643D01*
X108913550Y-106722315D01*
X108913548Y-106722316D01*
X108913547Y-106722317D01*
X108753589Y-106853589D01*
X108622317Y-107013547D01*
X108524769Y-107196043D01*
X108464699Y-107394067D01*
X108444417Y-107600000D01*
X78250324Y-107600000D01*
X79974324Y-105876000D01*
X93694500Y-105876000D01*
X93694501Y-105876009D01*
X93701481Y-105940935D01*
X93701483Y-105940947D01*
X93712688Y-105992453D01*
X93723644Y-106030654D01*
X93723646Y-106030658D01*
X93780323Y-106127568D01*
X93780325Y-106127571D01*
X93826081Y-106180376D01*
X93826091Y-106180387D01*
X93870807Y-106222548D01*
X93870809Y-106222549D01*
X93870813Y-106222553D01*
X93970889Y-106273439D01*
X94037928Y-106293124D01*
X94124000Y-106305500D01*
X94124003Y-106305500D01*
X105875990Y-106305500D01*
X105876000Y-106305500D01*
X105940941Y-106298518D01*
X105992452Y-106287312D01*
X106030658Y-106276354D01*
X106127571Y-106219675D01*
X106180375Y-106173920D01*
X106180382Y-106173912D01*
X106180387Y-106173908D01*
X106222548Y-106129192D01*
X106222553Y-106129187D01*
X106273439Y-106029111D01*
X106293124Y-105962072D01*
X106305500Y-105876000D01*
X106305500Y-105059999D01*
X108444417Y-105059999D01*
X108464699Y-105265932D01*
X108475936Y-105302975D01*
X108524768Y-105463954D01*
X108622315Y-105646450D01*
X108622317Y-105646452D01*
X108753589Y-105806410D01*
X108838386Y-105876000D01*
X108913550Y-105937685D01*
X109096046Y-106035232D01*
X109294066Y-106095300D01*
X109294065Y-106095300D01*
X109312529Y-106097118D01*
X109500000Y-106115583D01*
X109705934Y-106095300D01*
X109903954Y-106035232D01*
X110086450Y-105937685D01*
X110246410Y-105806410D01*
X110377685Y-105646450D01*
X110475232Y-105463954D01*
X110535300Y-105265934D01*
X110555583Y-105060000D01*
X110535300Y-104854066D01*
X110475232Y-104656046D01*
X110377685Y-104473550D01*
X110325702Y-104410209D01*
X110246410Y-104313589D01*
X110086452Y-104182317D01*
X110086453Y-104182317D01*
X110086450Y-104182315D01*
X109903954Y-104084768D01*
X109705934Y-104024700D01*
X109705932Y-104024699D01*
X109705934Y-104024699D01*
X109518463Y-104006235D01*
X109500000Y-104004417D01*
X109499999Y-104004417D01*
X109294067Y-104024699D01*
X109096043Y-104084769D01*
X108985897Y-104143643D01*
X108913550Y-104182315D01*
X108913548Y-104182316D01*
X108913547Y-104182317D01*
X108753589Y-104313589D01*
X108622317Y-104473547D01*
X108524769Y-104656043D01*
X108464699Y-104854067D01*
X108444417Y-105059999D01*
X106305500Y-105059999D01*
X106305500Y-102520000D01*
X108444417Y-102520000D01*
X108464699Y-102725932D01*
X108479000Y-102773075D01*
X108524768Y-102923954D01*
X108622315Y-103106450D01*
X108622317Y-103106452D01*
X108753589Y-103266410D01*
X108824813Y-103324861D01*
X108913550Y-103397685D01*
X109096046Y-103495232D01*
X109294066Y-103555300D01*
X109294065Y-103555300D01*
X109312529Y-103557118D01*
X109500000Y-103575583D01*
X109705934Y-103555300D01*
X109903954Y-103495232D01*
X110086450Y-103397685D01*
X110246410Y-103266410D01*
X110285476Y-103218808D01*
X117470735Y-103218808D01*
X117481212Y-103257910D01*
X117482383Y-103263190D01*
X117489411Y-103303043D01*
X117491235Y-103308055D01*
X117498197Y-103324861D01*
X117500445Y-103329681D01*
X117500446Y-103329684D01*
X117514452Y-103349687D01*
X117523655Y-103362831D01*
X117526561Y-103367392D01*
X117546806Y-103402455D01*
X117577815Y-103428475D01*
X117581805Y-103432131D01*
X122425887Y-108276214D01*
X122459372Y-108337537D01*
X122454388Y-108407229D01*
X122449207Y-108419165D01*
X122422596Y-108472608D01*
X122364244Y-108677689D01*
X122344570Y-108889999D01*
X122344570Y-108890000D01*
X122364244Y-109102310D01*
X122422596Y-109307392D01*
X122422596Y-109307394D01*
X122517632Y-109498253D01*
X122517634Y-109498255D01*
X122646128Y-109668407D01*
X122803698Y-109812052D01*
X122984981Y-109924298D01*
X123183802Y-110001321D01*
X123393390Y-110040500D01*
X123393392Y-110040500D01*
X123606608Y-110040500D01*
X123606610Y-110040500D01*
X123816198Y-110001321D01*
X124015019Y-109924298D01*
X124196302Y-109812052D01*
X124353872Y-109668407D01*
X124482366Y-109498255D01*
X124577405Y-109307389D01*
X124635756Y-109102310D01*
X124655429Y-108890000D01*
X124635756Y-108677690D01*
X124577405Y-108472611D01*
X124577403Y-108472606D01*
X124577403Y-108472605D01*
X124482367Y-108281746D01*
X124353872Y-108111593D01*
X124353872Y-108111592D01*
X124196302Y-107967948D01*
X124015019Y-107855702D01*
X124015017Y-107855701D01*
X123886547Y-107805932D01*
X123816198Y-107778679D01*
X123619385Y-107741888D01*
X123557106Y-107710221D01*
X123521833Y-107649908D01*
X123524767Y-107580100D01*
X123564976Y-107522960D01*
X123619384Y-107498111D01*
X123816198Y-107461321D01*
X124015019Y-107384298D01*
X124196302Y-107272052D01*
X124353872Y-107128407D01*
X124482366Y-106958255D01*
X124482367Y-106958253D01*
X124577403Y-106767394D01*
X124577403Y-106767393D01*
X124577405Y-106767389D01*
X124635756Y-106562310D01*
X124655429Y-106350000D01*
X124635756Y-106137690D01*
X124577405Y-105932611D01*
X124577403Y-105932606D01*
X124577403Y-105932605D01*
X124482367Y-105741746D01*
X124353872Y-105571593D01*
X124323457Y-105543866D01*
X124196302Y-105427948D01*
X124015019Y-105315702D01*
X124015017Y-105315701D01*
X123886547Y-105265932D01*
X123816198Y-105238679D01*
X123619385Y-105201888D01*
X123557106Y-105170221D01*
X123521833Y-105109908D01*
X123524767Y-105040100D01*
X123564976Y-104982960D01*
X123619384Y-104958111D01*
X123816198Y-104921321D01*
X124015019Y-104844298D01*
X124196302Y-104732052D01*
X124353872Y-104588407D01*
X124482366Y-104418255D01*
X124482367Y-104418253D01*
X124577403Y-104227394D01*
X124577403Y-104227393D01*
X124577405Y-104227389D01*
X124635756Y-104022310D01*
X124655429Y-103810000D01*
X124635756Y-103597690D01*
X124577405Y-103392611D01*
X124577403Y-103392606D01*
X124577403Y-103392605D01*
X124482367Y-103201746D01*
X124353872Y-103031593D01*
X124283456Y-102967400D01*
X124196302Y-102887948D01*
X124015019Y-102775702D01*
X124015017Y-102775701D01*
X123886547Y-102725932D01*
X123816198Y-102698679D01*
X123643458Y-102666388D01*
X123581179Y-102634721D01*
X123545906Y-102574408D01*
X123548840Y-102504600D01*
X123589049Y-102447460D01*
X123653767Y-102421129D01*
X123666245Y-102420500D01*
X124469750Y-102420500D01*
X124469751Y-102420499D01*
X124484568Y-102417552D01*
X124528229Y-102408868D01*
X124528229Y-102408867D01*
X124528231Y-102408867D01*
X124594552Y-102364552D01*
X124638867Y-102298231D01*
X124638867Y-102298229D01*
X124638868Y-102298229D01*
X124650499Y-102239752D01*
X124650500Y-102239750D01*
X124650500Y-100300249D01*
X124650499Y-100300247D01*
X124638868Y-100241770D01*
X124638867Y-100241769D01*
X124594552Y-100175447D01*
X124528230Y-100131132D01*
X124528229Y-100131131D01*
X124480394Y-100121617D01*
X124418483Y-100089232D01*
X124383909Y-100028517D01*
X124387648Y-99958747D01*
X124428514Y-99902075D01*
X124480394Y-99878383D01*
X124528229Y-99868868D01*
X124528229Y-99868867D01*
X124528231Y-99868867D01*
X124594552Y-99824552D01*
X124638867Y-99758231D01*
X124638867Y-99758229D01*
X124638868Y-99758229D01*
X124650499Y-99699752D01*
X124650500Y-99699750D01*
X124650500Y-97760249D01*
X124650499Y-97760247D01*
X124638868Y-97701770D01*
X124638867Y-97701769D01*
X124594552Y-97635447D01*
X124528230Y-97591132D01*
X124528229Y-97591131D01*
X124469752Y-97579500D01*
X124469748Y-97579500D01*
X123666245Y-97579500D01*
X123599206Y-97559815D01*
X123553451Y-97507011D01*
X123543507Y-97437853D01*
X123572532Y-97374297D01*
X123631310Y-97336523D01*
X123643450Y-97333613D01*
X123816198Y-97301321D01*
X124015019Y-97224298D01*
X124196302Y-97112052D01*
X124353872Y-96968407D01*
X124482366Y-96798255D01*
X124532807Y-96696955D01*
X124577403Y-96607394D01*
X124577403Y-96607393D01*
X124577405Y-96607389D01*
X124635756Y-96402310D01*
X124655429Y-96190000D01*
X124635756Y-95977690D01*
X124577405Y-95772611D01*
X124577403Y-95772606D01*
X124577403Y-95772605D01*
X124482367Y-95581746D01*
X124353872Y-95411593D01*
X124196302Y-95267948D01*
X124015019Y-95155702D01*
X124015017Y-95155701D01*
X123915608Y-95117190D01*
X123816198Y-95078679D01*
X123619385Y-95041888D01*
X123557106Y-95010221D01*
X123521833Y-94949908D01*
X123524767Y-94880100D01*
X123564976Y-94822960D01*
X123619384Y-94798111D01*
X123816198Y-94761321D01*
X124015019Y-94684298D01*
X124196302Y-94572052D01*
X124353872Y-94428407D01*
X124482366Y-94258255D01*
X124549212Y-94124009D01*
X124577403Y-94067394D01*
X124577403Y-94067393D01*
X124577405Y-94067389D01*
X124635756Y-93862310D01*
X124655429Y-93650000D01*
X124635756Y-93437690D01*
X124577405Y-93232611D01*
X124577403Y-93232606D01*
X124577403Y-93232605D01*
X124482367Y-93041746D01*
X124353872Y-92871593D01*
X124196302Y-92727948D01*
X124015019Y-92615702D01*
X124015017Y-92615701D01*
X123915608Y-92577190D01*
X123816198Y-92538679D01*
X123619385Y-92501888D01*
X123557106Y-92470221D01*
X123521833Y-92409908D01*
X123524767Y-92340100D01*
X123564976Y-92282960D01*
X123619384Y-92258111D01*
X123816198Y-92221321D01*
X124015019Y-92144298D01*
X124196302Y-92032052D01*
X124353872Y-91888407D01*
X124482366Y-91718255D01*
X124544849Y-91592771D01*
X124577403Y-91527394D01*
X124577403Y-91527393D01*
X124577405Y-91527389D01*
X124635756Y-91322310D01*
X124655429Y-91110000D01*
X124635756Y-90897690D01*
X124577405Y-90692611D01*
X124577403Y-90692606D01*
X124577403Y-90692605D01*
X124482367Y-90501746D01*
X124353872Y-90331593D01*
X124274599Y-90259326D01*
X124196302Y-90187948D01*
X124015019Y-90075702D01*
X124015017Y-90075701D01*
X123849177Y-90011455D01*
X123816198Y-89998679D01*
X123606610Y-89959500D01*
X123393390Y-89959500D01*
X123183802Y-89998679D01*
X123183799Y-89998679D01*
X123183799Y-89998680D01*
X122984982Y-90075701D01*
X122984980Y-90075702D01*
X122803699Y-90187947D01*
X122646127Y-90331593D01*
X122517632Y-90501746D01*
X122422596Y-90692605D01*
X122422596Y-90692607D01*
X122364244Y-90897689D01*
X122344570Y-91109999D01*
X122344570Y-91110000D01*
X122364244Y-91322310D01*
X122422596Y-91527392D01*
X122422597Y-91527395D01*
X122449206Y-91580835D01*
X122461466Y-91649620D01*
X122434591Y-91714115D01*
X122425886Y-91723785D01*
X117581803Y-96567870D01*
X117577814Y-96571525D01*
X117546805Y-96597545D01*
X117526562Y-96632606D01*
X117523656Y-96637166D01*
X117500446Y-96670313D01*
X117498206Y-96675117D01*
X117491229Y-96691961D01*
X117489410Y-96696959D01*
X117482383Y-96736811D01*
X117481212Y-96742091D01*
X117470735Y-96781191D01*
X117474264Y-96821513D01*
X117474500Y-96826920D01*
X117474500Y-103173078D01*
X117474264Y-103178485D01*
X117470735Y-103218808D01*
X110285476Y-103218808D01*
X110377685Y-103106450D01*
X110475232Y-102923954D01*
X110535300Y-102725934D01*
X110555583Y-102520000D01*
X110535300Y-102314066D01*
X110475232Y-102116046D01*
X110377685Y-101933550D01*
X110320452Y-101863811D01*
X110246410Y-101773589D01*
X110086452Y-101642317D01*
X110086453Y-101642317D01*
X110086450Y-101642315D01*
X109903954Y-101544768D01*
X109705934Y-101484700D01*
X109705932Y-101484699D01*
X109705934Y-101484699D01*
X109500000Y-101464417D01*
X109294067Y-101484699D01*
X109096043Y-101544769D01*
X109039385Y-101575054D01*
X108913550Y-101642315D01*
X108913548Y-101642316D01*
X108913547Y-101642317D01*
X108753589Y-101773589D01*
X108622317Y-101933547D01*
X108524769Y-102116043D01*
X108464699Y-102314067D01*
X108444417Y-102520000D01*
X106305500Y-102520000D01*
X106305500Y-99980000D01*
X108444417Y-99980000D01*
X108464699Y-100185932D01*
X108464700Y-100185934D01*
X108524768Y-100383954D01*
X108622315Y-100566450D01*
X108646396Y-100595793D01*
X108753589Y-100726410D01*
X108834826Y-100793078D01*
X108913550Y-100857685D01*
X109096046Y-100955232D01*
X109294066Y-101015300D01*
X109294065Y-101015300D01*
X109314347Y-101017297D01*
X109500000Y-101035583D01*
X109705934Y-101015300D01*
X109903954Y-100955232D01*
X110086450Y-100857685D01*
X110246410Y-100726410D01*
X110377685Y-100566450D01*
X110475232Y-100383954D01*
X110535300Y-100185934D01*
X110555583Y-99980000D01*
X110535300Y-99774066D01*
X110475232Y-99576046D01*
X110377685Y-99393550D01*
X110313176Y-99314945D01*
X110246410Y-99233589D01*
X110128677Y-99136969D01*
X110086450Y-99102315D01*
X109903954Y-99004768D01*
X109705934Y-98944700D01*
X109705932Y-98944699D01*
X109705934Y-98944699D01*
X109500000Y-98924417D01*
X109294067Y-98944699D01*
X109096043Y-99004769D01*
X109014164Y-99048535D01*
X108913550Y-99102315D01*
X108913548Y-99102316D01*
X108913547Y-99102317D01*
X108753589Y-99233589D01*
X108622317Y-99393547D01*
X108622315Y-99393550D01*
X108591040Y-99452061D01*
X108524769Y-99576043D01*
X108464699Y-99774067D01*
X108444417Y-99980000D01*
X106305500Y-99980000D01*
X106305500Y-99849500D01*
X106298518Y-99784559D01*
X106287312Y-99733048D01*
X106276354Y-99694842D01*
X106219675Y-99597929D01*
X106173920Y-99545125D01*
X106173918Y-99545123D01*
X106173908Y-99545112D01*
X106129192Y-99502951D01*
X106129189Y-99502949D01*
X106129187Y-99502947D01*
X106029111Y-99452061D01*
X106029110Y-99452060D01*
X106029109Y-99452060D01*
X105962079Y-99432377D01*
X105957364Y-99431699D01*
X105898100Y-99423177D01*
X105834546Y-99394152D01*
X105796772Y-99335373D01*
X105796773Y-99265503D01*
X105834549Y-99206726D01*
X105898105Y-99177702D01*
X105902422Y-99177159D01*
X105940941Y-99173018D01*
X105992452Y-99161812D01*
X106030658Y-99150854D01*
X106127571Y-99094175D01*
X106180375Y-99048420D01*
X106180382Y-99048412D01*
X106180387Y-99048408D01*
X106221533Y-99004769D01*
X106222553Y-99003687D01*
X106273439Y-98903611D01*
X106293124Y-98836572D01*
X106305500Y-98750500D01*
X106305500Y-97440000D01*
X108444417Y-97440000D01*
X108464699Y-97645932D01*
X108492490Y-97737545D01*
X108524768Y-97843954D01*
X108622315Y-98026450D01*
X108622317Y-98026452D01*
X108753589Y-98186410D01*
X108850209Y-98265702D01*
X108913550Y-98317685D01*
X109096046Y-98415232D01*
X109294066Y-98475300D01*
X109294065Y-98475300D01*
X109312529Y-98477118D01*
X109500000Y-98495583D01*
X109705934Y-98475300D01*
X109903954Y-98415232D01*
X110086450Y-98317685D01*
X110246410Y-98186410D01*
X110377685Y-98026450D01*
X110475232Y-97843954D01*
X110535300Y-97645934D01*
X110555583Y-97440000D01*
X110535300Y-97234066D01*
X110475232Y-97036046D01*
X110377685Y-96853550D01*
X110325702Y-96790209D01*
X110246410Y-96693589D01*
X110095553Y-96569786D01*
X110086450Y-96562315D01*
X109903954Y-96464768D01*
X109705934Y-96404700D01*
X109705932Y-96404699D01*
X109705934Y-96404699D01*
X109518463Y-96386235D01*
X109500000Y-96384417D01*
X109499999Y-96384417D01*
X109294067Y-96404699D01*
X109096043Y-96464769D01*
X108985897Y-96523643D01*
X108913550Y-96562315D01*
X108913548Y-96562316D01*
X108913547Y-96562317D01*
X108753589Y-96693589D01*
X108622317Y-96853547D01*
X108524769Y-97036043D01*
X108464699Y-97234067D01*
X108444417Y-97440000D01*
X106305500Y-97440000D01*
X106305500Y-94124000D01*
X106298518Y-94059059D01*
X106287312Y-94007548D01*
X106276354Y-93969342D01*
X106219675Y-93872429D01*
X106173920Y-93819625D01*
X106173918Y-93819623D01*
X106173908Y-93819612D01*
X106129192Y-93777451D01*
X106129189Y-93777449D01*
X106129187Y-93777447D01*
X106029111Y-93726561D01*
X106029110Y-93726560D01*
X106029109Y-93726560D01*
X105962078Y-93706877D01*
X105962072Y-93706876D01*
X105876000Y-93694500D01*
X105749500Y-93694500D01*
X105749491Y-93694500D01*
X105749490Y-93694501D01*
X105684564Y-93701481D01*
X105684544Y-93701484D01*
X105675853Y-93703375D01*
X105606162Y-93698388D01*
X105550230Y-93656515D01*
X105525816Y-93591049D01*
X105525500Y-93582208D01*
X105525500Y-89286187D01*
X105545185Y-89219148D01*
X105561819Y-89198506D01*
X106332044Y-88428281D01*
X107228315Y-87532009D01*
X107289636Y-87498526D01*
X107332180Y-87496753D01*
X107345647Y-87498526D01*
X107389048Y-87504240D01*
X107452944Y-87532507D01*
X107491415Y-87590831D01*
X107492246Y-87660696D01*
X107477976Y-87689223D01*
X107479528Y-87690119D01*
X107475465Y-87697156D01*
X107414956Y-87843237D01*
X107414955Y-87843239D01*
X107394318Y-87999998D01*
X107394318Y-88000001D01*
X107414955Y-88156760D01*
X107414956Y-88156762D01*
X107466750Y-88281805D01*
X107475464Y-88302841D01*
X107571718Y-88428282D01*
X107697159Y-88524536D01*
X107843238Y-88585044D01*
X107913681Y-88594318D01*
X107999999Y-88605682D01*
X108000000Y-88605682D01*
X108000001Y-88605682D01*
X108052254Y-88598802D01*
X108156762Y-88585044D01*
X108302841Y-88524536D01*
X108428282Y-88428282D01*
X108524536Y-88302841D01*
X108585044Y-88156762D01*
X108605682Y-88000000D01*
X108585119Y-87843811D01*
X108595884Y-87774778D01*
X108620374Y-87739950D01*
X114298506Y-82061819D01*
X114359830Y-82028334D01*
X114386188Y-82025500D01*
X114531701Y-82025500D01*
X114598740Y-82045185D01*
X114630077Y-82074014D01*
X114671381Y-82127844D01*
X114671718Y-82128282D01*
X114797159Y-82224536D01*
X114943238Y-82285044D01*
X114964423Y-82287833D01*
X115099999Y-82305682D01*
X115100000Y-82305682D01*
X115100001Y-82305682D01*
X115152254Y-82298802D01*
X115256762Y-82285044D01*
X115402841Y-82224536D01*
X115528282Y-82128282D01*
X115624536Y-82002841D01*
X115685044Y-81856762D01*
X115705682Y-81700000D01*
X115685044Y-81543238D01*
X115624536Y-81397159D01*
X115528282Y-81271718D01*
X115402841Y-81175464D01*
X115256762Y-81114956D01*
X115256760Y-81114955D01*
X115100001Y-81094318D01*
X115099999Y-81094318D01*
X114943239Y-81114955D01*
X114943237Y-81114956D01*
X114797160Y-81175463D01*
X114671716Y-81271719D01*
X114630077Y-81325986D01*
X114573649Y-81367189D01*
X114531701Y-81374500D01*
X114216922Y-81374500D01*
X114211518Y-81374264D01*
X114206107Y-81373790D01*
X114171192Y-81370735D01*
X114171191Y-81370735D01*
X114132091Y-81381212D01*
X114126811Y-81382383D01*
X114086959Y-81389410D01*
X114081961Y-81391229D01*
X114065117Y-81398206D01*
X114060313Y-81400446D01*
X114027166Y-81423656D01*
X114022606Y-81426562D01*
X113987548Y-81446804D01*
X113987540Y-81446810D01*
X113961523Y-81477815D01*
X113957869Y-81481804D01*
X108144512Y-87295160D01*
X108083189Y-87328645D01*
X108013497Y-87323661D01*
X107957564Y-87281789D01*
X107933147Y-87216325D01*
X107942269Y-87160028D01*
X107985044Y-87056762D01*
X108005682Y-86900000D01*
X107985044Y-86743238D01*
X107924536Y-86597159D01*
X107828282Y-86471718D01*
X107702841Y-86375464D01*
X107556762Y-86314956D01*
X107556760Y-86314955D01*
X107400001Y-86294318D01*
X107399999Y-86294318D01*
X107243239Y-86314955D01*
X107243237Y-86314956D01*
X107097160Y-86375463D01*
X106971718Y-86471718D01*
X106875463Y-86597160D01*
X106814956Y-86743237D01*
X106814955Y-86743239D01*
X106794318Y-86899998D01*
X106794318Y-86900001D01*
X106803246Y-86967818D01*
X106792480Y-87036853D01*
X106767988Y-87071684D01*
X104981803Y-88857870D01*
X104977814Y-88861525D01*
X104946805Y-88887545D01*
X104926562Y-88922606D01*
X104923656Y-88927166D01*
X104900446Y-88960313D01*
X104898206Y-88965117D01*
X104891229Y-88981961D01*
X104889410Y-88986959D01*
X104882383Y-89026811D01*
X104881212Y-89032091D01*
X104870735Y-89071191D01*
X104870735Y-89071194D01*
X104874263Y-89111515D01*
X104874499Y-89116920D01*
X104874500Y-93637536D01*
X104854815Y-93704575D01*
X104802011Y-93750330D01*
X104732853Y-93760274D01*
X104694298Y-93748068D01*
X104651999Y-93726560D01*
X104584968Y-93706877D01*
X104584962Y-93706876D01*
X104498890Y-93694500D01*
X103694336Y-93694500D01*
X103689322Y-93694582D01*
X103679282Y-93694913D01*
X103678627Y-93694935D01*
X103635260Y-93703375D01*
X103580438Y-93714044D01*
X103510873Y-93707528D01*
X103455874Y-93664437D01*
X103442190Y-93639780D01*
X103424536Y-93597159D01*
X103328282Y-93471718D01*
X103202841Y-93375464D01*
X103056762Y-93314956D01*
X103056760Y-93314955D01*
X102900001Y-93294318D01*
X102899999Y-93294318D01*
X102743239Y-93314955D01*
X102743237Y-93314956D01*
X102597160Y-93375463D01*
X102471718Y-93471718D01*
X102375463Y-93597160D01*
X102326205Y-93716079D01*
X102282363Y-93770483D01*
X102216069Y-93792547D01*
X102155442Y-93779158D01*
X102073525Y-93737506D01*
X102052000Y-93726561D01*
X102051997Y-93726560D01*
X102051999Y-93726560D01*
X101984967Y-93706877D01*
X101984961Y-93706876D01*
X101898889Y-93694500D01*
X97949500Y-93694500D01*
X97949491Y-93694500D01*
X97949490Y-93694501D01*
X97884564Y-93701481D01*
X97884544Y-93701484D01*
X97875853Y-93703375D01*
X97806162Y-93698388D01*
X97750230Y-93656515D01*
X97725816Y-93591049D01*
X97725500Y-93582208D01*
X97725500Y-88916909D01*
X97725736Y-88911502D01*
X97729263Y-88871191D01*
X97718786Y-88832092D01*
X97717617Y-88826824D01*
X97710588Y-88786955D01*
X97710587Y-88786954D01*
X97710587Y-88786951D01*
X97708765Y-88781947D01*
X97701815Y-88765168D01*
X97699554Y-88760319D01*
X97699553Y-88760318D01*
X97699553Y-88760316D01*
X97676333Y-88727154D01*
X97673435Y-88722604D01*
X97669845Y-88716387D01*
X97653194Y-88687545D01*
X97653191Y-88687542D01*
X97653190Y-88687541D01*
X97636189Y-88673276D01*
X97622182Y-88661522D01*
X97618210Y-88657883D01*
X97242119Y-88281793D01*
X97238474Y-88277814D01*
X97212456Y-88246807D01*
X97212455Y-88246806D01*
X97201058Y-88240226D01*
X97177392Y-88226561D01*
X97172831Y-88223655D01*
X97159687Y-88214452D01*
X97139684Y-88200446D01*
X97139681Y-88200445D01*
X97134861Y-88198197D01*
X97118055Y-88191235D01*
X97113043Y-88189411D01*
X97073190Y-88182383D01*
X97067910Y-88181212D01*
X97028808Y-88170735D01*
X96993892Y-88173790D01*
X96988481Y-88174264D01*
X96983078Y-88174500D01*
X96116910Y-88174500D01*
X96111506Y-88174264D01*
X96105993Y-88173781D01*
X96071192Y-88170736D01*
X96032105Y-88181210D01*
X96026825Y-88182381D01*
X95986957Y-88189411D01*
X95981983Y-88191221D01*
X95965118Y-88198207D01*
X95960313Y-88200447D01*
X95927162Y-88223659D01*
X95922603Y-88226563D01*
X95887545Y-88246805D01*
X95861523Y-88277815D01*
X95857869Y-88281803D01*
X95571684Y-88567988D01*
X95510361Y-88601473D01*
X95467818Y-88603246D01*
X95400001Y-88594318D01*
X95399999Y-88594318D01*
X95243239Y-88614955D01*
X95243237Y-88614956D01*
X95097160Y-88675463D01*
X94971718Y-88771718D01*
X94875463Y-88897160D01*
X94814956Y-89043237D01*
X94814955Y-89043239D01*
X94794318Y-89199998D01*
X94794318Y-89200001D01*
X94814955Y-89356760D01*
X94814956Y-89356762D01*
X94875464Y-89502841D01*
X94971718Y-89628282D01*
X95097159Y-89724536D01*
X95243238Y-89785044D01*
X95243239Y-89785044D01*
X95250747Y-89788154D01*
X95249685Y-89790717D01*
X95297793Y-89820039D01*
X95328324Y-89882886D01*
X95320030Y-89952261D01*
X95307619Y-89974570D01*
X95300446Y-89984814D01*
X95298206Y-89989617D01*
X95291229Y-90006461D01*
X95289410Y-90011459D01*
X95282383Y-90051311D01*
X95281212Y-90056591D01*
X95270735Y-90095691D01*
X95274264Y-90136013D01*
X95274500Y-90141420D01*
X95274500Y-93583603D01*
X95254815Y-93650642D01*
X95202011Y-93696397D01*
X95132853Y-93706341D01*
X95093935Y-93700745D01*
X95050500Y-93694500D01*
X94124000Y-93694500D01*
X94123991Y-93694500D01*
X94123990Y-93694501D01*
X94059064Y-93701481D01*
X94059052Y-93701483D01*
X94007546Y-93712688D01*
X93969345Y-93723644D01*
X93969341Y-93723646D01*
X93872431Y-93780323D01*
X93872428Y-93780325D01*
X93819623Y-93826081D01*
X93819612Y-93826091D01*
X93777451Y-93870807D01*
X93777445Y-93870816D01*
X93726560Y-93970890D01*
X93706877Y-94037921D01*
X93706875Y-94037928D01*
X93706876Y-94037928D01*
X93694500Y-94124000D01*
X93694500Y-105876000D01*
X79974324Y-105876000D01*
X82818204Y-103032120D01*
X82822166Y-103028489D01*
X82853194Y-103002455D01*
X82873438Y-102967390D01*
X82876335Y-102962841D01*
X82899554Y-102929684D01*
X82899554Y-102929681D01*
X82901819Y-102924824D01*
X82908747Y-102908099D01*
X82910584Y-102903050D01*
X82910588Y-102903045D01*
X82917619Y-102863162D01*
X82918777Y-102857940D01*
X82929264Y-102818807D01*
X82925735Y-102778478D01*
X82925500Y-102773075D01*
X82925500Y-97226920D01*
X82925736Y-97221513D01*
X82929264Y-97181193D01*
X82918782Y-97142076D01*
X82917616Y-97136818D01*
X82910588Y-97096955D01*
X82910586Y-97096952D01*
X82910586Y-97096950D01*
X82908760Y-97091933D01*
X82901820Y-97075176D01*
X82899554Y-97070319D01*
X82899554Y-97070316D01*
X82876339Y-97037162D01*
X82873433Y-97032599D01*
X82853196Y-96997548D01*
X82853195Y-96997547D01*
X82853194Y-96997545D01*
X82822177Y-96971518D01*
X82818193Y-96967867D01*
X77574112Y-91723786D01*
X77540627Y-91662463D01*
X77545611Y-91592771D01*
X77550793Y-91580833D01*
X77577404Y-91527391D01*
X77577405Y-91527389D01*
X77635756Y-91322310D01*
X77655429Y-91110000D01*
X77635756Y-90897690D01*
X77577405Y-90692611D01*
X77577403Y-90692606D01*
X77577403Y-90692605D01*
X77482367Y-90501746D01*
X77353872Y-90331593D01*
X77274599Y-90259326D01*
X77196302Y-90187948D01*
X77015019Y-90075702D01*
X77015017Y-90075701D01*
X76849177Y-90011455D01*
X76816198Y-89998679D01*
X76606610Y-89959500D01*
X76393390Y-89959500D01*
X76183802Y-89998679D01*
X76183799Y-89998679D01*
X76183799Y-89998680D01*
X75984982Y-90075701D01*
X75984980Y-90075702D01*
X75803699Y-90187947D01*
X75646127Y-90331593D01*
X75517632Y-90501746D01*
X75422596Y-90692605D01*
X75422596Y-90692607D01*
X75364244Y-90897689D01*
X75344571Y-91109999D01*
X75344571Y-91110000D01*
X75364244Y-91322310D01*
X75422596Y-91527392D01*
X75422596Y-91527394D01*
X75517632Y-91718253D01*
X75646127Y-91888406D01*
X75646128Y-91888407D01*
X75803698Y-92032052D01*
X75984981Y-92144298D01*
X76183802Y-92221321D01*
X76380613Y-92258111D01*
X76442893Y-92289779D01*
X76478166Y-92350092D01*
X76475232Y-92419900D01*
X76435023Y-92477040D01*
X76380613Y-92501888D01*
X76183802Y-92538679D01*
X76183799Y-92538679D01*
X76183799Y-92538680D01*
X75984982Y-92615701D01*
X75984980Y-92615702D01*
X75803699Y-92727947D01*
X75646127Y-92871593D01*
X75517632Y-93041746D01*
X75422596Y-93232605D01*
X75422596Y-93232607D01*
X75405038Y-93294318D01*
X75364244Y-93437690D01*
X75344571Y-93650000D01*
X75364244Y-93862310D01*
X75414212Y-94037928D01*
X75422596Y-94067392D01*
X75422596Y-94067394D01*
X75517632Y-94258253D01*
X75517634Y-94258255D01*
X75646128Y-94428407D01*
X75803698Y-94572052D01*
X75984981Y-94684298D01*
X76183802Y-94761321D01*
X76380613Y-94798111D01*
X76442893Y-94829779D01*
X76478166Y-94890092D01*
X76475232Y-94959900D01*
X76435023Y-95017040D01*
X76380613Y-95041888D01*
X76183802Y-95078679D01*
X76183799Y-95078679D01*
X76183799Y-95078680D01*
X75984982Y-95155701D01*
X75984980Y-95155702D01*
X75803699Y-95267947D01*
X75646127Y-95411593D01*
X75517632Y-95581746D01*
X75422596Y-95772605D01*
X75422596Y-95772607D01*
X75364244Y-95977689D01*
X75344571Y-96189999D01*
X75344571Y-96190000D01*
X75364244Y-96402310D01*
X75422596Y-96607392D01*
X75422596Y-96607394D01*
X75517632Y-96798253D01*
X75628320Y-96944826D01*
X75646128Y-96968407D01*
X75803698Y-97112052D01*
X75984981Y-97224298D01*
X76183802Y-97301321D01*
X76356541Y-97333611D01*
X76418821Y-97365279D01*
X76454094Y-97425592D01*
X76451160Y-97495400D01*
X76410951Y-97552540D01*
X76346233Y-97578871D01*
X76333755Y-97579500D01*
X75530247Y-97579500D01*
X75471770Y-97591131D01*
X75471769Y-97591132D01*
X75405447Y-97635447D01*
X75361132Y-97701769D01*
X75361131Y-97701770D01*
X75349500Y-97760247D01*
X75349500Y-99699752D01*
X75361131Y-99758229D01*
X75361132Y-99758230D01*
X75405447Y-99824552D01*
X75471769Y-99868867D01*
X75471770Y-99868868D01*
X75519605Y-99878383D01*
X75581516Y-99910768D01*
X75616090Y-99971484D01*
X75612351Y-100041253D01*
X75571484Y-100097925D01*
X75519605Y-100121617D01*
X75471770Y-100131131D01*
X75471769Y-100131132D01*
X75405447Y-100175447D01*
X75361132Y-100241769D01*
X75361131Y-100241770D01*
X75349500Y-100300247D01*
X75349500Y-102239752D01*
X75361131Y-102298229D01*
X75361132Y-102298230D01*
X75405447Y-102364552D01*
X75471769Y-102408867D01*
X75471770Y-102408868D01*
X75530247Y-102420499D01*
X75530250Y-102420500D01*
X75530252Y-102420500D01*
X76333755Y-102420500D01*
X76400794Y-102440185D01*
X76446549Y-102492989D01*
X76456493Y-102562147D01*
X76427468Y-102625703D01*
X76368690Y-102663477D01*
X76356549Y-102666386D01*
X76183802Y-102698679D01*
X76183799Y-102698679D01*
X76183799Y-102698680D01*
X75984982Y-102775701D01*
X75984980Y-102775702D01*
X75803699Y-102887947D01*
X75646127Y-103031593D01*
X75517632Y-103201746D01*
X75422596Y-103392605D01*
X75422596Y-103392607D01*
X75364244Y-103597689D01*
X75344571Y-103809999D01*
X75344571Y-103810000D01*
X75364244Y-104022310D01*
X75422596Y-104227392D01*
X75422596Y-104227394D01*
X75517632Y-104418253D01*
X75517634Y-104418255D01*
X75646128Y-104588407D01*
X75803698Y-104732052D01*
X75984981Y-104844298D01*
X76183802Y-104921321D01*
X76380613Y-104958111D01*
X76442893Y-104989779D01*
X76478166Y-105050092D01*
X76475232Y-105119900D01*
X76435023Y-105177040D01*
X76380613Y-105201888D01*
X76183802Y-105238679D01*
X76183799Y-105238679D01*
X76183799Y-105238680D01*
X75984982Y-105315701D01*
X75984980Y-105315702D01*
X75803699Y-105427947D01*
X75646127Y-105571593D01*
X75517632Y-105741746D01*
X75422596Y-105932605D01*
X75422596Y-105932607D01*
X75364244Y-106137689D01*
X75344571Y-106349999D01*
X75344571Y-106350000D01*
X75364244Y-106562310D01*
X75422596Y-106767392D01*
X75422596Y-106767394D01*
X75517632Y-106958253D01*
X75517634Y-106958255D01*
X75646128Y-107128407D01*
X75803698Y-107272052D01*
X75984981Y-107384298D01*
X76183802Y-107461321D01*
X76380613Y-107498111D01*
X76442893Y-107529779D01*
X76478166Y-107590092D01*
X76475232Y-107659900D01*
X76435023Y-107717040D01*
X76380613Y-107741888D01*
X76183802Y-107778679D01*
X76183799Y-107778679D01*
X76183799Y-107778680D01*
X75984982Y-107855701D01*
X75984980Y-107855702D01*
X75803699Y-107967947D01*
X75646127Y-108111593D01*
X75517632Y-108281746D01*
X75422596Y-108472605D01*
X75422596Y-108472607D01*
X75364244Y-108677689D01*
X75344571Y-108889999D01*
X75344571Y-108890000D01*
X75000500Y-108890000D01*
X75000500Y-77624500D01*
X75020185Y-77557461D01*
X75072989Y-77511706D01*
X75124500Y-77500500D01*
X77475240Y-77500500D01*
X77475383Y-77500528D01*
X77475384Y-77500524D01*
X77499997Y-77500539D01*
X77500000Y-77500541D01*
X77500383Y-77500383D01*
X77500500Y-77500099D01*
X77500541Y-77500000D01*
X77500540Y-77499997D01*
X77500583Y-77475889D01*
X77500500Y-77475467D01*
X77500500Y-75124500D01*
X77520185Y-75057461D01*
X77572989Y-75011706D01*
X77624500Y-75000500D01*
X107089812Y-75000500D01*
X107156851Y-75020185D01*
G37*
G04 #@! TD.AperFunction*
G04 #@! TA.AperFunction,Conductor*
G36*
X95117539Y-94019685D02*
G01*
X95163294Y-94072489D01*
X95174500Y-94124000D01*
X95174500Y-103085294D01*
X95154815Y-103152333D01*
X95132727Y-103178109D01*
X95071818Y-103232069D01*
X94975182Y-103372068D01*
X94914860Y-103531125D01*
X94914859Y-103531130D01*
X94894355Y-103699999D01*
X94914859Y-103868869D01*
X94914860Y-103868874D01*
X94975182Y-104027931D01*
X94978040Y-104032071D01*
X95071817Y-104167929D01*
X95177505Y-104261560D01*
X95199150Y-104280736D01*
X95349773Y-104359789D01*
X95349775Y-104359790D01*
X95514944Y-104400500D01*
X95685056Y-104400500D01*
X95850225Y-104359790D01*
X95929692Y-104318081D01*
X96000849Y-104280736D01*
X96000850Y-104280734D01*
X96000852Y-104280734D01*
X96128183Y-104167929D01*
X96224818Y-104027930D01*
X96285140Y-103868872D01*
X96305645Y-103700000D01*
X96285140Y-103531128D01*
X96224818Y-103372070D01*
X96128183Y-103232071D01*
X96128181Y-103232069D01*
X96067273Y-103178109D01*
X96030146Y-103118920D01*
X96025500Y-103085294D01*
X96025500Y-94124000D01*
X96045185Y-94056961D01*
X96097989Y-94011206D01*
X96149500Y-94000000D01*
X96850500Y-94000000D01*
X96917539Y-94019685D01*
X96963294Y-94072489D01*
X96974500Y-94124000D01*
X96974500Y-103085294D01*
X96954815Y-103152333D01*
X96932727Y-103178109D01*
X96871818Y-103232069D01*
X96775182Y-103372068D01*
X96714860Y-103531125D01*
X96714859Y-103531130D01*
X96694355Y-103700000D01*
X96714859Y-103868869D01*
X96714860Y-103868874D01*
X96775182Y-104027931D01*
X96778040Y-104032071D01*
X96871817Y-104167929D01*
X96977505Y-104261560D01*
X96999150Y-104280736D01*
X97149773Y-104359789D01*
X97149775Y-104359790D01*
X97314944Y-104400500D01*
X97485056Y-104400500D01*
X97650225Y-104359790D01*
X97729692Y-104318081D01*
X97800849Y-104280736D01*
X97800850Y-104280734D01*
X97800852Y-104280734D01*
X97928183Y-104167929D01*
X98024818Y-104027930D01*
X98085140Y-103868872D01*
X98105645Y-103700000D01*
X98085140Y-103531128D01*
X98024818Y-103372070D01*
X97928183Y-103232071D01*
X97928181Y-103232069D01*
X97867273Y-103178109D01*
X97830146Y-103118920D01*
X97825500Y-103085294D01*
X97825500Y-94124000D01*
X97845185Y-94056961D01*
X97897989Y-94011206D01*
X97949500Y-94000000D01*
X101898889Y-94000000D01*
X101965928Y-94019685D01*
X102011683Y-94072489D01*
X102021627Y-94141647D01*
X101992602Y-94205203D01*
X101986570Y-94211681D01*
X99251472Y-96946778D01*
X99240510Y-96968293D01*
X99230346Y-96984878D01*
X99216152Y-97004414D01*
X99216151Y-97004417D01*
X99208688Y-97027385D01*
X99201243Y-97045358D01*
X99190280Y-97066873D01*
X99186503Y-97090722D01*
X99181962Y-97109639D01*
X99174500Y-97132604D01*
X99174500Y-103885294D01*
X99154815Y-103952333D01*
X99132727Y-103978109D01*
X99071818Y-104032069D01*
X98975182Y-104172068D01*
X98914860Y-104331125D01*
X98914859Y-104331130D01*
X98894355Y-104499999D01*
X98914859Y-104668869D01*
X98914860Y-104668874D01*
X98975182Y-104827931D01*
X99037475Y-104918177D01*
X99071817Y-104967929D01*
X99177505Y-105061560D01*
X99199150Y-105080736D01*
X99349773Y-105159789D01*
X99349775Y-105159790D01*
X99514944Y-105200500D01*
X99685056Y-105200500D01*
X99850225Y-105159790D01*
X99929692Y-105118081D01*
X100000849Y-105080736D01*
X100000850Y-105080734D01*
X100000852Y-105080734D01*
X100128183Y-104967929D01*
X100224818Y-104827930D01*
X100285140Y-104668872D01*
X100305645Y-104500000D01*
X100285140Y-104331128D01*
X100224818Y-104172070D01*
X100221958Y-104167927D01*
X100188046Y-104118796D01*
X100128183Y-104032071D01*
X100123509Y-104027930D01*
X100067273Y-103978109D01*
X100030146Y-103918920D01*
X100025500Y-103885294D01*
X100025500Y-97427609D01*
X100045185Y-97360570D01*
X100061819Y-97339928D01*
X102764928Y-94636819D01*
X102826251Y-94603334D01*
X102852609Y-94600500D01*
X102985056Y-94600500D01*
X103150225Y-94559790D01*
X103229692Y-94518081D01*
X103300849Y-94480736D01*
X103300850Y-94480734D01*
X103300852Y-94480734D01*
X103428183Y-94367929D01*
X103524818Y-94227930D01*
X103580908Y-94080029D01*
X103623087Y-94024326D01*
X103688684Y-94000269D01*
X103696851Y-94000000D01*
X104498890Y-94000000D01*
X104565929Y-94019685D01*
X104611684Y-94072489D01*
X104621628Y-94141647D01*
X104592603Y-94205203D01*
X104586571Y-94211681D01*
X101946780Y-96851472D01*
X101851471Y-96946780D01*
X101840510Y-96968293D01*
X101830346Y-96984878D01*
X101816152Y-97004414D01*
X101816151Y-97004417D01*
X101808688Y-97027385D01*
X101801243Y-97045358D01*
X101790280Y-97066873D01*
X101786503Y-97090722D01*
X101781962Y-97109639D01*
X101774500Y-97132604D01*
X101774500Y-100267394D01*
X101781962Y-100290358D01*
X101786503Y-100309273D01*
X101789470Y-100328010D01*
X101790281Y-100333127D01*
X101801243Y-100354641D01*
X101808688Y-100372615D01*
X101816150Y-100395579D01*
X101830341Y-100415111D01*
X101840508Y-100431703D01*
X101851469Y-100453216D01*
X101851471Y-100453219D01*
X101851472Y-100453220D01*
X101875446Y-100477193D01*
X101875446Y-100477194D01*
X102678604Y-101280352D01*
X103089659Y-101691407D01*
X103123144Y-101752730D01*
X103118160Y-101822422D01*
X103117921Y-101823057D01*
X103114860Y-101831126D01*
X103114859Y-101831130D01*
X103094355Y-101999999D01*
X103114859Y-102168869D01*
X103114860Y-102168874D01*
X103175182Y-102327931D01*
X103237475Y-102418177D01*
X103271817Y-102467929D01*
X103377505Y-102561560D01*
X103399150Y-102580736D01*
X103549773Y-102659789D01*
X103549775Y-102659790D01*
X103714944Y-102700500D01*
X103885056Y-102700500D01*
X104050225Y-102659790D01*
X104129692Y-102618081D01*
X104200849Y-102580736D01*
X104200850Y-102580734D01*
X104200852Y-102580734D01*
X104328183Y-102467929D01*
X104424818Y-102327930D01*
X104485140Y-102168872D01*
X104505645Y-102000000D01*
X104485140Y-101831128D01*
X104424818Y-101672070D01*
X104328183Y-101532071D01*
X104200852Y-101419266D01*
X104200849Y-101419263D01*
X104050226Y-101340210D01*
X103940106Y-101313068D01*
X103882100Y-101280352D01*
X103882099Y-101280352D01*
X102661816Y-100060068D01*
X102628333Y-99998748D01*
X102625500Y-99972399D01*
X102625500Y-97427609D01*
X102645185Y-97360570D01*
X102661819Y-97339929D01*
X103150277Y-96851471D01*
X105524554Y-94477194D01*
X105524554Y-94477193D01*
X105548528Y-94453220D01*
X105559493Y-94431699D01*
X105569650Y-94415125D01*
X105583850Y-94395581D01*
X105591311Y-94372614D01*
X105598760Y-94354633D01*
X105609718Y-94333129D01*
X105609718Y-94333128D01*
X105609718Y-94333127D01*
X105609719Y-94333126D01*
X105613496Y-94309273D01*
X105618035Y-94290366D01*
X105625500Y-94267393D01*
X105625500Y-94132607D01*
X105625500Y-94124000D01*
X105645185Y-94056961D01*
X105697989Y-94011206D01*
X105749500Y-94000000D01*
X105876000Y-94000000D01*
X105943039Y-94019685D01*
X105988794Y-94072489D01*
X106000000Y-94124000D01*
X106000000Y-98750500D01*
X105980315Y-98817539D01*
X105927511Y-98863294D01*
X105876000Y-98874500D01*
X104921580Y-98874500D01*
X104854541Y-98854815D01*
X104833799Y-98837042D01*
X104833797Y-98837045D01*
X104833627Y-98836894D01*
X104828767Y-98832730D01*
X104828185Y-98832073D01*
X104700849Y-98719263D01*
X104550226Y-98640210D01*
X104385056Y-98599500D01*
X104214944Y-98599500D01*
X104049773Y-98640210D01*
X103899150Y-98719263D01*
X103771816Y-98832072D01*
X103675182Y-98972068D01*
X103614860Y-99131125D01*
X103614859Y-99131130D01*
X103594355Y-99300000D01*
X103614859Y-99468869D01*
X103614860Y-99468874D01*
X103675182Y-99627931D01*
X103731637Y-99709719D01*
X103771817Y-99767929D01*
X103863892Y-99849500D01*
X103899150Y-99880736D01*
X104049773Y-99959789D01*
X104049775Y-99959790D01*
X104214944Y-100000500D01*
X104385056Y-100000500D01*
X104550225Y-99959790D01*
X104629692Y-99918081D01*
X104700849Y-99880736D01*
X104700850Y-99880734D01*
X104700852Y-99880734D01*
X104828183Y-99767929D01*
X104828185Y-99767925D01*
X104828767Y-99767270D01*
X104829312Y-99766927D01*
X104833797Y-99762955D01*
X104834457Y-99763700D01*
X104887958Y-99730145D01*
X104921580Y-99725500D01*
X105876000Y-99725500D01*
X105943039Y-99745185D01*
X105988794Y-99797989D01*
X106000000Y-99849500D01*
X106000000Y-105876000D01*
X105980315Y-105943039D01*
X105927511Y-105988794D01*
X105876000Y-106000000D01*
X94124000Y-106000000D01*
X94056961Y-105980315D01*
X94011206Y-105927511D01*
X94000000Y-105876000D01*
X94000000Y-94124000D01*
X94019685Y-94056961D01*
X94072489Y-94011206D01*
X94124000Y-94000000D01*
X95050500Y-94000000D01*
X95117539Y-94019685D01*
G37*
G04 #@! TD.AperFunction*
M02*
