G04 #@! TF.GenerationSoftware,KiCad,Pcbnew,7.0.2-6a45011f42~172~ubuntu22.04.1*
G04 #@! TF.CreationDate,2023-05-08T10:08:59-04:00*
G04 #@! TF.ProjectId,v2,76322e6b-6963-4616-945f-706362585858,rev?*
G04 #@! TF.SameCoordinates,Original*
G04 #@! TF.FileFunction,Paste,Top*
G04 #@! TF.FilePolarity,Positive*
%FSLAX46Y46*%
G04 Gerber Fmt 4.6, Leading zero omitted, Abs format (unit mm)*
G04 Created by KiCad (PCBNEW 7.0.2-6a45011f42~172~ubuntu22.04.1) date 2023-05-08 10:08:59*
%MOMM*%
%LPD*%
G01*
G04 APERTURE LIST*
G04 Aperture macros list*
%AMRoundRect*
0 Rectangle with rounded corners*
0 $1 Rounding radius*
0 $2 $3 $4 $5 $6 $7 $8 $9 X,Y pos of 4 corners*
0 Add a 4 corners polygon primitive as box body*
4,1,4,$2,$3,$4,$5,$6,$7,$8,$9,$2,$3,0*
0 Add four circle primitives for the rounded corners*
1,1,$1+$1,$2,$3*
1,1,$1+$1,$4,$5*
1,1,$1+$1,$6,$7*
1,1,$1+$1,$8,$9*
0 Add four rect primitives between the rounded corners*
20,1,$1+$1,$2,$3,$4,$5,0*
20,1,$1+$1,$4,$5,$6,$7,0*
20,1,$1+$1,$6,$7,$8,$9,0*
20,1,$1+$1,$8,$9,$2,$3,0*%
G04 Aperture macros list end*
%ADD10RoundRect,0.237500X0.237500X-0.250000X0.237500X0.250000X-0.237500X0.250000X-0.237500X-0.250000X0*%
%ADD11RoundRect,0.237500X-0.237500X0.287500X-0.237500X-0.287500X0.237500X-0.287500X0.237500X0.287500X0*%
%ADD12RoundRect,0.237500X0.237500X-0.300000X0.237500X0.300000X-0.237500X0.300000X-0.237500X-0.300000X0*%
%ADD13RoundRect,0.150000X0.150000X-0.587500X0.150000X0.587500X-0.150000X0.587500X-0.150000X-0.587500X0*%
%ADD14R,1.550000X1.300000*%
%ADD15R,2.100000X1.800000*%
%ADD16R,1.500000X1.000000*%
%ADD17RoundRect,0.237500X-0.250000X-0.237500X0.250000X-0.237500X0.250000X0.237500X-0.250000X0.237500X0*%
%ADD18R,1.600000X0.550000*%
%ADD19R,0.550000X1.600000*%
%ADD20R,1.000000X1.500000*%
%ADD21RoundRect,0.237500X-0.237500X0.300000X-0.237500X-0.300000X0.237500X-0.300000X0.237500X0.300000X0*%
G04 APERTURE END LIST*
D10*
X112100000Y-97400000D03*
X112100000Y-95575000D03*
D11*
X112100000Y-93575000D03*
X112100000Y-91825000D03*
D12*
X96500000Y-101125000D03*
X96500000Y-99400000D03*
D13*
X99050000Y-100937500D03*
X100950000Y-100937500D03*
X100000000Y-99062500D03*
D14*
X96020000Y-107750000D03*
X103980000Y-107750000D03*
X96020000Y-112250000D03*
X103980000Y-112250000D03*
D15*
X93800000Y-93300000D03*
X90900000Y-93300000D03*
X90900000Y-95600000D03*
X93800000Y-95600000D03*
D16*
X78550000Y-79400000D03*
X78550000Y-82600000D03*
X83450000Y-82600000D03*
X83450000Y-79400000D03*
D17*
X107250000Y-83000000D03*
X109075000Y-83000000D03*
D18*
X98000000Y-87450000D03*
X98000000Y-88250000D03*
X98000000Y-89050000D03*
X98000000Y-89850000D03*
X98000000Y-90650000D03*
X98000000Y-91450000D03*
X98000000Y-92250000D03*
X98000000Y-93050000D03*
D19*
X99450000Y-94500000D03*
X100250000Y-94500000D03*
X101050000Y-94500000D03*
X101850000Y-94500000D03*
X102650000Y-94500000D03*
X103450000Y-94500000D03*
X104250000Y-94500000D03*
X105050000Y-94500000D03*
D18*
X106500000Y-93050000D03*
X106500000Y-92250000D03*
X106500000Y-91450000D03*
X106500000Y-90650000D03*
X106500000Y-89850000D03*
X106500000Y-89050000D03*
X106500000Y-88250000D03*
X106500000Y-87450000D03*
D19*
X105050000Y-86000000D03*
X104250000Y-86000000D03*
X103450000Y-86000000D03*
X102650000Y-86000000D03*
X101850000Y-86000000D03*
X101050000Y-86000000D03*
X100250000Y-86000000D03*
X99450000Y-86000000D03*
D20*
X120600000Y-78550000D03*
X117400000Y-78550000D03*
X117400000Y-83450000D03*
X120600000Y-83450000D03*
D21*
X87650000Y-91400000D03*
X87650000Y-93125000D03*
D17*
X112087500Y-83000000D03*
X113912500Y-83000000D03*
D16*
X121450000Y-120600000D03*
X121450000Y-117400000D03*
X116550000Y-117400000D03*
X116550000Y-120600000D03*
D20*
X79400000Y-121450000D03*
X82600000Y-121450000D03*
X82600000Y-116550000D03*
X79400000Y-116550000D03*
D21*
X87650000Y-95587500D03*
X87650000Y-97312500D03*
M02*
