G04 #@! TF.GenerationSoftware,KiCad,Pcbnew,7.0.2-6a45011f42~172~ubuntu22.04.1*
G04 #@! TF.CreationDate,2023-05-08T10:08:59-04:00*
G04 #@! TF.ProjectId,v2,76322e6b-6963-4616-945f-706362585858,rev?*
G04 #@! TF.SameCoordinates,Original*
G04 #@! TF.FileFunction,Legend,Top*
G04 #@! TF.FilePolarity,Positive*
%FSLAX46Y46*%
G04 Gerber Fmt 4.6, Leading zero omitted, Abs format (unit mm)*
G04 Created by KiCad (PCBNEW 7.0.2-6a45011f42~172~ubuntu22.04.1) date 2023-05-08 10:08:59*
%MOMM*%
%LPD*%
G01*
G04 APERTURE LIST*
G04 Aperture macros list*
%AMRoundRect*
0 Rectangle with rounded corners*
0 $1 Rounding radius*
0 $2 $3 $4 $5 $6 $7 $8 $9 X,Y pos of 4 corners*
0 Add a 4 corners polygon primitive as box body*
4,1,4,$2,$3,$4,$5,$6,$7,$8,$9,$2,$3,0*
0 Add four circle primitives for the rounded corners*
1,1,$1+$1,$2,$3*
1,1,$1+$1,$4,$5*
1,1,$1+$1,$6,$7*
1,1,$1+$1,$8,$9*
0 Add four rect primitives between the rounded corners*
20,1,$1+$1,$2,$3,$4,$5,0*
20,1,$1+$1,$4,$5,$6,$7,0*
20,1,$1+$1,$6,$7,$8,$9,0*
20,1,$1+$1,$8,$9,$2,$3,0*%
G04 Aperture macros list end*
%ADD10C,0.150000*%
%ADD11C,0.120000*%
%ADD12RoundRect,0.237500X0.237500X-0.250000X0.237500X0.250000X-0.237500X0.250000X-0.237500X-0.250000X0*%
%ADD13RoundRect,0.237500X-0.237500X0.287500X-0.237500X-0.287500X0.237500X-0.287500X0.237500X0.287500X0*%
%ADD14RoundRect,0.237500X0.237500X-0.300000X0.237500X0.300000X-0.237500X0.300000X-0.237500X-0.300000X0*%
%ADD15RoundRect,0.150000X0.150000X-0.587500X0.150000X0.587500X-0.150000X0.587500X-0.150000X-0.587500X0*%
%ADD16R,1.550000X1.300000*%
%ADD17R,2.100000X1.800000*%
%ADD18R,1.500000X1.000000*%
%ADD19RoundRect,0.237500X-0.250000X-0.237500X0.250000X-0.237500X0.250000X0.237500X-0.250000X0.237500X0*%
%ADD20O,1.700000X1.700000*%
%ADD21R,1.700000X1.700000*%
%ADD22R,1.600000X0.550000*%
%ADD23R,0.550000X1.600000*%
%ADD24R,1.000000X1.500000*%
%ADD25RoundRect,0.237500X-0.237500X0.300000X-0.237500X-0.300000X0.237500X-0.300000X0.237500X0.300000X0*%
G04 APERTURE END LIST*
D10*
X113733333Y-96962619D02*
X113400000Y-96486428D01*
X113161905Y-96962619D02*
X113161905Y-95962619D01*
X113161905Y-95962619D02*
X113542857Y-95962619D01*
X113542857Y-95962619D02*
X113638095Y-96010238D01*
X113638095Y-96010238D02*
X113685714Y-96057857D01*
X113685714Y-96057857D02*
X113733333Y-96153095D01*
X113733333Y-96153095D02*
X113733333Y-96295952D01*
X113733333Y-96295952D02*
X113685714Y-96391190D01*
X113685714Y-96391190D02*
X113638095Y-96438809D01*
X113638095Y-96438809D02*
X113542857Y-96486428D01*
X113542857Y-96486428D02*
X113161905Y-96486428D01*
X114066667Y-95962619D02*
X114685714Y-95962619D01*
X114685714Y-95962619D02*
X114352381Y-96343571D01*
X114352381Y-96343571D02*
X114495238Y-96343571D01*
X114495238Y-96343571D02*
X114590476Y-96391190D01*
X114590476Y-96391190D02*
X114638095Y-96438809D01*
X114638095Y-96438809D02*
X114685714Y-96534047D01*
X114685714Y-96534047D02*
X114685714Y-96772142D01*
X114685714Y-96772142D02*
X114638095Y-96867380D01*
X114638095Y-96867380D02*
X114590476Y-96915000D01*
X114590476Y-96915000D02*
X114495238Y-96962619D01*
X114495238Y-96962619D02*
X114209524Y-96962619D01*
X114209524Y-96962619D02*
X114114286Y-96915000D01*
X114114286Y-96915000D02*
X114066667Y-96867380D01*
X113261905Y-93162619D02*
X113261905Y-92162619D01*
X113261905Y-92162619D02*
X113500000Y-92162619D01*
X113500000Y-92162619D02*
X113642857Y-92210238D01*
X113642857Y-92210238D02*
X113738095Y-92305476D01*
X113738095Y-92305476D02*
X113785714Y-92400714D01*
X113785714Y-92400714D02*
X113833333Y-92591190D01*
X113833333Y-92591190D02*
X113833333Y-92734047D01*
X113833333Y-92734047D02*
X113785714Y-92924523D01*
X113785714Y-92924523D02*
X113738095Y-93019761D01*
X113738095Y-93019761D02*
X113642857Y-93115000D01*
X113642857Y-93115000D02*
X113500000Y-93162619D01*
X113500000Y-93162619D02*
X113261905Y-93162619D01*
X114738095Y-92162619D02*
X114261905Y-92162619D01*
X114261905Y-92162619D02*
X114214286Y-92638809D01*
X114214286Y-92638809D02*
X114261905Y-92591190D01*
X114261905Y-92591190D02*
X114357143Y-92543571D01*
X114357143Y-92543571D02*
X114595238Y-92543571D01*
X114595238Y-92543571D02*
X114690476Y-92591190D01*
X114690476Y-92591190D02*
X114738095Y-92638809D01*
X114738095Y-92638809D02*
X114785714Y-92734047D01*
X114785714Y-92734047D02*
X114785714Y-92972142D01*
X114785714Y-92972142D02*
X114738095Y-93067380D01*
X114738095Y-93067380D02*
X114690476Y-93115000D01*
X114690476Y-93115000D02*
X114595238Y-93162619D01*
X114595238Y-93162619D02*
X114357143Y-93162619D01*
X114357143Y-93162619D02*
X114261905Y-93115000D01*
X114261905Y-93115000D02*
X114214286Y-93067380D01*
X96333333Y-103067380D02*
X96285714Y-103115000D01*
X96285714Y-103115000D02*
X96142857Y-103162619D01*
X96142857Y-103162619D02*
X96047619Y-103162619D01*
X96047619Y-103162619D02*
X95904762Y-103115000D01*
X95904762Y-103115000D02*
X95809524Y-103019761D01*
X95809524Y-103019761D02*
X95761905Y-102924523D01*
X95761905Y-102924523D02*
X95714286Y-102734047D01*
X95714286Y-102734047D02*
X95714286Y-102591190D01*
X95714286Y-102591190D02*
X95761905Y-102400714D01*
X95761905Y-102400714D02*
X95809524Y-102305476D01*
X95809524Y-102305476D02*
X95904762Y-102210238D01*
X95904762Y-102210238D02*
X96047619Y-102162619D01*
X96047619Y-102162619D02*
X96142857Y-102162619D01*
X96142857Y-102162619D02*
X96285714Y-102210238D01*
X96285714Y-102210238D02*
X96333333Y-102257857D01*
X96666667Y-102162619D02*
X97285714Y-102162619D01*
X97285714Y-102162619D02*
X96952381Y-102543571D01*
X96952381Y-102543571D02*
X97095238Y-102543571D01*
X97095238Y-102543571D02*
X97190476Y-102591190D01*
X97190476Y-102591190D02*
X97238095Y-102638809D01*
X97238095Y-102638809D02*
X97285714Y-102734047D01*
X97285714Y-102734047D02*
X97285714Y-102972142D01*
X97285714Y-102972142D02*
X97238095Y-103067380D01*
X97238095Y-103067380D02*
X97190476Y-103115000D01*
X97190476Y-103115000D02*
X97095238Y-103162619D01*
X97095238Y-103162619D02*
X96809524Y-103162619D01*
X96809524Y-103162619D02*
X96714286Y-103115000D01*
X96714286Y-103115000D02*
X96666667Y-103067380D01*
X99238095Y-102162619D02*
X99238095Y-102972142D01*
X99238095Y-102972142D02*
X99285714Y-103067380D01*
X99285714Y-103067380D02*
X99333333Y-103115000D01*
X99333333Y-103115000D02*
X99428571Y-103162619D01*
X99428571Y-103162619D02*
X99619047Y-103162619D01*
X99619047Y-103162619D02*
X99714285Y-103115000D01*
X99714285Y-103115000D02*
X99761904Y-103067380D01*
X99761904Y-103067380D02*
X99809523Y-102972142D01*
X99809523Y-102972142D02*
X99809523Y-102162619D01*
X100238095Y-102257857D02*
X100285714Y-102210238D01*
X100285714Y-102210238D02*
X100380952Y-102162619D01*
X100380952Y-102162619D02*
X100619047Y-102162619D01*
X100619047Y-102162619D02*
X100714285Y-102210238D01*
X100714285Y-102210238D02*
X100761904Y-102257857D01*
X100761904Y-102257857D02*
X100809523Y-102353095D01*
X100809523Y-102353095D02*
X100809523Y-102448333D01*
X100809523Y-102448333D02*
X100761904Y-102591190D01*
X100761904Y-102591190D02*
X100190476Y-103162619D01*
X100190476Y-103162619D02*
X100809523Y-103162619D01*
X98666667Y-106365000D02*
X98809524Y-106412619D01*
X98809524Y-106412619D02*
X99047619Y-106412619D01*
X99047619Y-106412619D02*
X99142857Y-106365000D01*
X99142857Y-106365000D02*
X99190476Y-106317380D01*
X99190476Y-106317380D02*
X99238095Y-106222142D01*
X99238095Y-106222142D02*
X99238095Y-106126904D01*
X99238095Y-106126904D02*
X99190476Y-106031666D01*
X99190476Y-106031666D02*
X99142857Y-105984047D01*
X99142857Y-105984047D02*
X99047619Y-105936428D01*
X99047619Y-105936428D02*
X98857143Y-105888809D01*
X98857143Y-105888809D02*
X98761905Y-105841190D01*
X98761905Y-105841190D02*
X98714286Y-105793571D01*
X98714286Y-105793571D02*
X98666667Y-105698333D01*
X98666667Y-105698333D02*
X98666667Y-105603095D01*
X98666667Y-105603095D02*
X98714286Y-105507857D01*
X98714286Y-105507857D02*
X98761905Y-105460238D01*
X98761905Y-105460238D02*
X98857143Y-105412619D01*
X98857143Y-105412619D02*
X99095238Y-105412619D01*
X99095238Y-105412619D02*
X99238095Y-105460238D01*
X99571429Y-105412619D02*
X99809524Y-106412619D01*
X99809524Y-106412619D02*
X100000000Y-105698333D01*
X100000000Y-105698333D02*
X100190476Y-106412619D01*
X100190476Y-106412619D02*
X100428572Y-105412619D01*
X101333333Y-106412619D02*
X100761905Y-106412619D01*
X101047619Y-106412619D02*
X101047619Y-105412619D01*
X101047619Y-105412619D02*
X100952381Y-105555476D01*
X100952381Y-105555476D02*
X100857143Y-105650714D01*
X100857143Y-105650714D02*
X100761905Y-105698333D01*
X91873809Y-97486428D02*
X91873809Y-97962619D01*
X91540476Y-96962619D02*
X91873809Y-97486428D01*
X91873809Y-97486428D02*
X92207142Y-96962619D01*
X92492857Y-97057857D02*
X92540476Y-97010238D01*
X92540476Y-97010238D02*
X92635714Y-96962619D01*
X92635714Y-96962619D02*
X92873809Y-96962619D01*
X92873809Y-96962619D02*
X92969047Y-97010238D01*
X92969047Y-97010238D02*
X93016666Y-97057857D01*
X93016666Y-97057857D02*
X93064285Y-97153095D01*
X93064285Y-97153095D02*
X93064285Y-97248333D01*
X93064285Y-97248333D02*
X93016666Y-97391190D01*
X93016666Y-97391190D02*
X92445238Y-97962619D01*
X92445238Y-97962619D02*
X93064285Y-97962619D01*
X80261905Y-77762619D02*
X80261905Y-76762619D01*
X80261905Y-76762619D02*
X80500000Y-76762619D01*
X80500000Y-76762619D02*
X80642857Y-76810238D01*
X80642857Y-76810238D02*
X80738095Y-76905476D01*
X80738095Y-76905476D02*
X80785714Y-77000714D01*
X80785714Y-77000714D02*
X80833333Y-77191190D01*
X80833333Y-77191190D02*
X80833333Y-77334047D01*
X80833333Y-77334047D02*
X80785714Y-77524523D01*
X80785714Y-77524523D02*
X80738095Y-77619761D01*
X80738095Y-77619761D02*
X80642857Y-77715000D01*
X80642857Y-77715000D02*
X80500000Y-77762619D01*
X80500000Y-77762619D02*
X80261905Y-77762619D01*
X81690476Y-77095952D02*
X81690476Y-77762619D01*
X81452381Y-76715000D02*
X81214286Y-77429285D01*
X81214286Y-77429285D02*
X81833333Y-77429285D01*
X109033333Y-84962619D02*
X108700000Y-84486428D01*
X108461905Y-84962619D02*
X108461905Y-83962619D01*
X108461905Y-83962619D02*
X108842857Y-83962619D01*
X108842857Y-83962619D02*
X108938095Y-84010238D01*
X108938095Y-84010238D02*
X108985714Y-84057857D01*
X108985714Y-84057857D02*
X109033333Y-84153095D01*
X109033333Y-84153095D02*
X109033333Y-84295952D01*
X109033333Y-84295952D02*
X108985714Y-84391190D01*
X108985714Y-84391190D02*
X108938095Y-84438809D01*
X108938095Y-84438809D02*
X108842857Y-84486428D01*
X108842857Y-84486428D02*
X108461905Y-84486428D01*
X109985714Y-84962619D02*
X109414286Y-84962619D01*
X109700000Y-84962619D02*
X109700000Y-83962619D01*
X109700000Y-83962619D02*
X109604762Y-84105476D01*
X109604762Y-84105476D02*
X109509524Y-84200714D01*
X109509524Y-84200714D02*
X109414286Y-84248333D01*
X92066666Y-118762619D02*
X92066666Y-119476904D01*
X92066666Y-119476904D02*
X92019047Y-119619761D01*
X92019047Y-119619761D02*
X91923809Y-119715000D01*
X91923809Y-119715000D02*
X91780952Y-119762619D01*
X91780952Y-119762619D02*
X91685714Y-119762619D01*
X92971428Y-119095952D02*
X92971428Y-119762619D01*
X92733333Y-118715000D02*
X92495238Y-119429285D01*
X92495238Y-119429285D02*
X93114285Y-119429285D01*
X101338095Y-95862619D02*
X101338095Y-96672142D01*
X101338095Y-96672142D02*
X101385714Y-96767380D01*
X101385714Y-96767380D02*
X101433333Y-96815000D01*
X101433333Y-96815000D02*
X101528571Y-96862619D01*
X101528571Y-96862619D02*
X101719047Y-96862619D01*
X101719047Y-96862619D02*
X101814285Y-96815000D01*
X101814285Y-96815000D02*
X101861904Y-96767380D01*
X101861904Y-96767380D02*
X101909523Y-96672142D01*
X101909523Y-96672142D02*
X101909523Y-95862619D01*
X102909523Y-96862619D02*
X102338095Y-96862619D01*
X102623809Y-96862619D02*
X102623809Y-95862619D01*
X102623809Y-95862619D02*
X102528571Y-96005476D01*
X102528571Y-96005476D02*
X102433333Y-96100714D01*
X102433333Y-96100714D02*
X102338095Y-96148333D01*
X111866666Y-102062619D02*
X111866666Y-102776904D01*
X111866666Y-102776904D02*
X111819047Y-102919761D01*
X111819047Y-102919761D02*
X111723809Y-103015000D01*
X111723809Y-103015000D02*
X111580952Y-103062619D01*
X111580952Y-103062619D02*
X111485714Y-103062619D01*
X112390476Y-103062619D02*
X112580952Y-103062619D01*
X112580952Y-103062619D02*
X112676190Y-103015000D01*
X112676190Y-103015000D02*
X112723809Y-102967380D01*
X112723809Y-102967380D02*
X112819047Y-102824523D01*
X112819047Y-102824523D02*
X112866666Y-102634047D01*
X112866666Y-102634047D02*
X112866666Y-102253095D01*
X112866666Y-102253095D02*
X112819047Y-102157857D01*
X112819047Y-102157857D02*
X112771428Y-102110238D01*
X112771428Y-102110238D02*
X112676190Y-102062619D01*
X112676190Y-102062619D02*
X112485714Y-102062619D01*
X112485714Y-102062619D02*
X112390476Y-102110238D01*
X112390476Y-102110238D02*
X112342857Y-102157857D01*
X112342857Y-102157857D02*
X112295238Y-102253095D01*
X112295238Y-102253095D02*
X112295238Y-102491190D01*
X112295238Y-102491190D02*
X112342857Y-102586428D01*
X112342857Y-102586428D02*
X112390476Y-102634047D01*
X112390476Y-102634047D02*
X112485714Y-102681666D01*
X112485714Y-102681666D02*
X112676190Y-102681666D01*
X112676190Y-102681666D02*
X112771428Y-102634047D01*
X112771428Y-102634047D02*
X112819047Y-102586428D01*
X112819047Y-102586428D02*
X112866666Y-102491190D01*
X118261905Y-77162619D02*
X118261905Y-76162619D01*
X118261905Y-76162619D02*
X118500000Y-76162619D01*
X118500000Y-76162619D02*
X118642857Y-76210238D01*
X118642857Y-76210238D02*
X118738095Y-76305476D01*
X118738095Y-76305476D02*
X118785714Y-76400714D01*
X118785714Y-76400714D02*
X118833333Y-76591190D01*
X118833333Y-76591190D02*
X118833333Y-76734047D01*
X118833333Y-76734047D02*
X118785714Y-76924523D01*
X118785714Y-76924523D02*
X118738095Y-77019761D01*
X118738095Y-77019761D02*
X118642857Y-77115000D01*
X118642857Y-77115000D02*
X118500000Y-77162619D01*
X118500000Y-77162619D02*
X118261905Y-77162619D01*
X119785714Y-77162619D02*
X119214286Y-77162619D01*
X119500000Y-77162619D02*
X119500000Y-76162619D01*
X119500000Y-76162619D02*
X119404762Y-76305476D01*
X119404762Y-76305476D02*
X119309524Y-76400714D01*
X119309524Y-76400714D02*
X119214286Y-76448333D01*
X104566666Y-80262619D02*
X104566666Y-80976904D01*
X104566666Y-80976904D02*
X104519047Y-81119761D01*
X104519047Y-81119761D02*
X104423809Y-81215000D01*
X104423809Y-81215000D02*
X104280952Y-81262619D01*
X104280952Y-81262619D02*
X104185714Y-81262619D01*
X105185714Y-80691190D02*
X105090476Y-80643571D01*
X105090476Y-80643571D02*
X105042857Y-80595952D01*
X105042857Y-80595952D02*
X104995238Y-80500714D01*
X104995238Y-80500714D02*
X104995238Y-80453095D01*
X104995238Y-80453095D02*
X105042857Y-80357857D01*
X105042857Y-80357857D02*
X105090476Y-80310238D01*
X105090476Y-80310238D02*
X105185714Y-80262619D01*
X105185714Y-80262619D02*
X105376190Y-80262619D01*
X105376190Y-80262619D02*
X105471428Y-80310238D01*
X105471428Y-80310238D02*
X105519047Y-80357857D01*
X105519047Y-80357857D02*
X105566666Y-80453095D01*
X105566666Y-80453095D02*
X105566666Y-80500714D01*
X105566666Y-80500714D02*
X105519047Y-80595952D01*
X105519047Y-80595952D02*
X105471428Y-80643571D01*
X105471428Y-80643571D02*
X105376190Y-80691190D01*
X105376190Y-80691190D02*
X105185714Y-80691190D01*
X105185714Y-80691190D02*
X105090476Y-80738809D01*
X105090476Y-80738809D02*
X105042857Y-80786428D01*
X105042857Y-80786428D02*
X104995238Y-80881666D01*
X104995238Y-80881666D02*
X104995238Y-81072142D01*
X104995238Y-81072142D02*
X105042857Y-81167380D01*
X105042857Y-81167380D02*
X105090476Y-81215000D01*
X105090476Y-81215000D02*
X105185714Y-81262619D01*
X105185714Y-81262619D02*
X105376190Y-81262619D01*
X105376190Y-81262619D02*
X105471428Y-81215000D01*
X105471428Y-81215000D02*
X105519047Y-81167380D01*
X105519047Y-81167380D02*
X105566666Y-81072142D01*
X105566666Y-81072142D02*
X105566666Y-80881666D01*
X105566666Y-80881666D02*
X105519047Y-80786428D01*
X105519047Y-80786428D02*
X105471428Y-80738809D01*
X105471428Y-80738809D02*
X105376190Y-80691190D01*
X85833333Y-92467380D02*
X85785714Y-92515000D01*
X85785714Y-92515000D02*
X85642857Y-92562619D01*
X85642857Y-92562619D02*
X85547619Y-92562619D01*
X85547619Y-92562619D02*
X85404762Y-92515000D01*
X85404762Y-92515000D02*
X85309524Y-92419761D01*
X85309524Y-92419761D02*
X85261905Y-92324523D01*
X85261905Y-92324523D02*
X85214286Y-92134047D01*
X85214286Y-92134047D02*
X85214286Y-91991190D01*
X85214286Y-91991190D02*
X85261905Y-91800714D01*
X85261905Y-91800714D02*
X85309524Y-91705476D01*
X85309524Y-91705476D02*
X85404762Y-91610238D01*
X85404762Y-91610238D02*
X85547619Y-91562619D01*
X85547619Y-91562619D02*
X85642857Y-91562619D01*
X85642857Y-91562619D02*
X85785714Y-91610238D01*
X85785714Y-91610238D02*
X85833333Y-91657857D01*
X86785714Y-92562619D02*
X86214286Y-92562619D01*
X86500000Y-92562619D02*
X86500000Y-91562619D01*
X86500000Y-91562619D02*
X86404762Y-91705476D01*
X86404762Y-91705476D02*
X86309524Y-91800714D01*
X86309524Y-91800714D02*
X86214286Y-91848333D01*
X118766666Y-107062619D02*
X118766666Y-107776904D01*
X118766666Y-107776904D02*
X118719047Y-107919761D01*
X118719047Y-107919761D02*
X118623809Y-108015000D01*
X118623809Y-108015000D02*
X118480952Y-108062619D01*
X118480952Y-108062619D02*
X118385714Y-108062619D01*
X119195238Y-107157857D02*
X119242857Y-107110238D01*
X119242857Y-107110238D02*
X119338095Y-107062619D01*
X119338095Y-107062619D02*
X119576190Y-107062619D01*
X119576190Y-107062619D02*
X119671428Y-107110238D01*
X119671428Y-107110238D02*
X119719047Y-107157857D01*
X119719047Y-107157857D02*
X119766666Y-107253095D01*
X119766666Y-107253095D02*
X119766666Y-107348333D01*
X119766666Y-107348333D02*
X119719047Y-107491190D01*
X119719047Y-107491190D02*
X119147619Y-108062619D01*
X119147619Y-108062619D02*
X119766666Y-108062619D01*
X84166666Y-107262619D02*
X84166666Y-107976904D01*
X84166666Y-107976904D02*
X84119047Y-108119761D01*
X84119047Y-108119761D02*
X84023809Y-108215000D01*
X84023809Y-108215000D02*
X83880952Y-108262619D01*
X83880952Y-108262619D02*
X83785714Y-108262619D01*
X85119047Y-107262619D02*
X84642857Y-107262619D01*
X84642857Y-107262619D02*
X84595238Y-107738809D01*
X84595238Y-107738809D02*
X84642857Y-107691190D01*
X84642857Y-107691190D02*
X84738095Y-107643571D01*
X84738095Y-107643571D02*
X84976190Y-107643571D01*
X84976190Y-107643571D02*
X85071428Y-107691190D01*
X85071428Y-107691190D02*
X85119047Y-107738809D01*
X85119047Y-107738809D02*
X85166666Y-107834047D01*
X85166666Y-107834047D02*
X85166666Y-108072142D01*
X85166666Y-108072142D02*
X85119047Y-108167380D01*
X85119047Y-108167380D02*
X85071428Y-108215000D01*
X85071428Y-108215000D02*
X84976190Y-108262619D01*
X84976190Y-108262619D02*
X84738095Y-108262619D01*
X84738095Y-108262619D02*
X84642857Y-108215000D01*
X84642857Y-108215000D02*
X84595238Y-108167380D01*
X113833333Y-84862619D02*
X113500000Y-84386428D01*
X113261905Y-84862619D02*
X113261905Y-83862619D01*
X113261905Y-83862619D02*
X113642857Y-83862619D01*
X113642857Y-83862619D02*
X113738095Y-83910238D01*
X113738095Y-83910238D02*
X113785714Y-83957857D01*
X113785714Y-83957857D02*
X113833333Y-84053095D01*
X113833333Y-84053095D02*
X113833333Y-84195952D01*
X113833333Y-84195952D02*
X113785714Y-84291190D01*
X113785714Y-84291190D02*
X113738095Y-84338809D01*
X113738095Y-84338809D02*
X113642857Y-84386428D01*
X113642857Y-84386428D02*
X113261905Y-84386428D01*
X114214286Y-83957857D02*
X114261905Y-83910238D01*
X114261905Y-83910238D02*
X114357143Y-83862619D01*
X114357143Y-83862619D02*
X114595238Y-83862619D01*
X114595238Y-83862619D02*
X114690476Y-83910238D01*
X114690476Y-83910238D02*
X114738095Y-83957857D01*
X114738095Y-83957857D02*
X114785714Y-84053095D01*
X114785714Y-84053095D02*
X114785714Y-84148333D01*
X114785714Y-84148333D02*
X114738095Y-84291190D01*
X114738095Y-84291190D02*
X114166667Y-84862619D01*
X114166667Y-84862619D02*
X114785714Y-84862619D01*
X118261905Y-123362619D02*
X118261905Y-122362619D01*
X118261905Y-122362619D02*
X118500000Y-122362619D01*
X118500000Y-122362619D02*
X118642857Y-122410238D01*
X118642857Y-122410238D02*
X118738095Y-122505476D01*
X118738095Y-122505476D02*
X118785714Y-122600714D01*
X118785714Y-122600714D02*
X118833333Y-122791190D01*
X118833333Y-122791190D02*
X118833333Y-122934047D01*
X118833333Y-122934047D02*
X118785714Y-123124523D01*
X118785714Y-123124523D02*
X118738095Y-123219761D01*
X118738095Y-123219761D02*
X118642857Y-123315000D01*
X118642857Y-123315000D02*
X118500000Y-123362619D01*
X118500000Y-123362619D02*
X118261905Y-123362619D01*
X119214286Y-122457857D02*
X119261905Y-122410238D01*
X119261905Y-122410238D02*
X119357143Y-122362619D01*
X119357143Y-122362619D02*
X119595238Y-122362619D01*
X119595238Y-122362619D02*
X119690476Y-122410238D01*
X119690476Y-122410238D02*
X119738095Y-122457857D01*
X119738095Y-122457857D02*
X119785714Y-122553095D01*
X119785714Y-122553095D02*
X119785714Y-122648333D01*
X119785714Y-122648333D02*
X119738095Y-122791190D01*
X119738095Y-122791190D02*
X119166667Y-123362619D01*
X119166667Y-123362619D02*
X119785714Y-123362619D01*
X80261905Y-123862619D02*
X80261905Y-122862619D01*
X80261905Y-122862619D02*
X80500000Y-122862619D01*
X80500000Y-122862619D02*
X80642857Y-122910238D01*
X80642857Y-122910238D02*
X80738095Y-123005476D01*
X80738095Y-123005476D02*
X80785714Y-123100714D01*
X80785714Y-123100714D02*
X80833333Y-123291190D01*
X80833333Y-123291190D02*
X80833333Y-123434047D01*
X80833333Y-123434047D02*
X80785714Y-123624523D01*
X80785714Y-123624523D02*
X80738095Y-123719761D01*
X80738095Y-123719761D02*
X80642857Y-123815000D01*
X80642857Y-123815000D02*
X80500000Y-123862619D01*
X80500000Y-123862619D02*
X80261905Y-123862619D01*
X81166667Y-122862619D02*
X81785714Y-122862619D01*
X81785714Y-122862619D02*
X81452381Y-123243571D01*
X81452381Y-123243571D02*
X81595238Y-123243571D01*
X81595238Y-123243571D02*
X81690476Y-123291190D01*
X81690476Y-123291190D02*
X81738095Y-123338809D01*
X81738095Y-123338809D02*
X81785714Y-123434047D01*
X81785714Y-123434047D02*
X81785714Y-123672142D01*
X81785714Y-123672142D02*
X81738095Y-123767380D01*
X81738095Y-123767380D02*
X81690476Y-123815000D01*
X81690476Y-123815000D02*
X81595238Y-123862619D01*
X81595238Y-123862619D02*
X81309524Y-123862619D01*
X81309524Y-123862619D02*
X81214286Y-123815000D01*
X81214286Y-123815000D02*
X81166667Y-123767380D01*
X115766666Y-93862619D02*
X115766666Y-94576904D01*
X115766666Y-94576904D02*
X115719047Y-94719761D01*
X115719047Y-94719761D02*
X115623809Y-94815000D01*
X115623809Y-94815000D02*
X115480952Y-94862619D01*
X115480952Y-94862619D02*
X115385714Y-94862619D01*
X116766666Y-94862619D02*
X116195238Y-94862619D01*
X116480952Y-94862619D02*
X116480952Y-93862619D01*
X116480952Y-93862619D02*
X116385714Y-94005476D01*
X116385714Y-94005476D02*
X116290476Y-94100714D01*
X116290476Y-94100714D02*
X116195238Y-94148333D01*
X80766666Y-91862619D02*
X80766666Y-92576904D01*
X80766666Y-92576904D02*
X80719047Y-92719761D01*
X80719047Y-92719761D02*
X80623809Y-92815000D01*
X80623809Y-92815000D02*
X80480952Y-92862619D01*
X80480952Y-92862619D02*
X80385714Y-92862619D01*
X81671428Y-91862619D02*
X81480952Y-91862619D01*
X81480952Y-91862619D02*
X81385714Y-91910238D01*
X81385714Y-91910238D02*
X81338095Y-91957857D01*
X81338095Y-91957857D02*
X81242857Y-92100714D01*
X81242857Y-92100714D02*
X81195238Y-92291190D01*
X81195238Y-92291190D02*
X81195238Y-92672142D01*
X81195238Y-92672142D02*
X81242857Y-92767380D01*
X81242857Y-92767380D02*
X81290476Y-92815000D01*
X81290476Y-92815000D02*
X81385714Y-92862619D01*
X81385714Y-92862619D02*
X81576190Y-92862619D01*
X81576190Y-92862619D02*
X81671428Y-92815000D01*
X81671428Y-92815000D02*
X81719047Y-92767380D01*
X81719047Y-92767380D02*
X81766666Y-92672142D01*
X81766666Y-92672142D02*
X81766666Y-92434047D01*
X81766666Y-92434047D02*
X81719047Y-92338809D01*
X81719047Y-92338809D02*
X81671428Y-92291190D01*
X81671428Y-92291190D02*
X81576190Y-92243571D01*
X81576190Y-92243571D02*
X81385714Y-92243571D01*
X81385714Y-92243571D02*
X81290476Y-92291190D01*
X81290476Y-92291190D02*
X81242857Y-92338809D01*
X81242857Y-92338809D02*
X81195238Y-92434047D01*
X91966666Y-83162619D02*
X91966666Y-83876904D01*
X91966666Y-83876904D02*
X91919047Y-84019761D01*
X91919047Y-84019761D02*
X91823809Y-84115000D01*
X91823809Y-84115000D02*
X91680952Y-84162619D01*
X91680952Y-84162619D02*
X91585714Y-84162619D01*
X92347619Y-83162619D02*
X93014285Y-83162619D01*
X93014285Y-83162619D02*
X92585714Y-84162619D01*
X107166666Y-115862619D02*
X107166666Y-116576904D01*
X107166666Y-116576904D02*
X107119047Y-116719761D01*
X107119047Y-116719761D02*
X107023809Y-116815000D01*
X107023809Y-116815000D02*
X106880952Y-116862619D01*
X106880952Y-116862619D02*
X106785714Y-116862619D01*
X107547619Y-115862619D02*
X108166666Y-115862619D01*
X108166666Y-115862619D02*
X107833333Y-116243571D01*
X107833333Y-116243571D02*
X107976190Y-116243571D01*
X107976190Y-116243571D02*
X108071428Y-116291190D01*
X108071428Y-116291190D02*
X108119047Y-116338809D01*
X108119047Y-116338809D02*
X108166666Y-116434047D01*
X108166666Y-116434047D02*
X108166666Y-116672142D01*
X108166666Y-116672142D02*
X108119047Y-116767380D01*
X108119047Y-116767380D02*
X108071428Y-116815000D01*
X108071428Y-116815000D02*
X107976190Y-116862619D01*
X107976190Y-116862619D02*
X107690476Y-116862619D01*
X107690476Y-116862619D02*
X107595238Y-116815000D01*
X107595238Y-116815000D02*
X107547619Y-116767380D01*
X85733333Y-96817380D02*
X85685714Y-96865000D01*
X85685714Y-96865000D02*
X85542857Y-96912619D01*
X85542857Y-96912619D02*
X85447619Y-96912619D01*
X85447619Y-96912619D02*
X85304762Y-96865000D01*
X85304762Y-96865000D02*
X85209524Y-96769761D01*
X85209524Y-96769761D02*
X85161905Y-96674523D01*
X85161905Y-96674523D02*
X85114286Y-96484047D01*
X85114286Y-96484047D02*
X85114286Y-96341190D01*
X85114286Y-96341190D02*
X85161905Y-96150714D01*
X85161905Y-96150714D02*
X85209524Y-96055476D01*
X85209524Y-96055476D02*
X85304762Y-95960238D01*
X85304762Y-95960238D02*
X85447619Y-95912619D01*
X85447619Y-95912619D02*
X85542857Y-95912619D01*
X85542857Y-95912619D02*
X85685714Y-95960238D01*
X85685714Y-95960238D02*
X85733333Y-96007857D01*
X86114286Y-96007857D02*
X86161905Y-95960238D01*
X86161905Y-95960238D02*
X86257143Y-95912619D01*
X86257143Y-95912619D02*
X86495238Y-95912619D01*
X86495238Y-95912619D02*
X86590476Y-95960238D01*
X86590476Y-95960238D02*
X86638095Y-96007857D01*
X86638095Y-96007857D02*
X86685714Y-96103095D01*
X86685714Y-96103095D02*
X86685714Y-96198333D01*
X86685714Y-96198333D02*
X86638095Y-96341190D01*
X86638095Y-96341190D02*
X86066667Y-96912619D01*
X86066667Y-96912619D02*
X86685714Y-96912619D01*
D11*
X111577500Y-96742224D02*
X111577500Y-96232776D01*
X112622500Y-96742224D02*
X112622500Y-96232776D01*
X112835000Y-91040000D02*
X111365000Y-91040000D01*
X111365000Y-91040000D02*
X111365000Y-93500000D01*
X112835000Y-93500000D02*
X112835000Y-91040000D01*
X95990000Y-100408767D02*
X95990000Y-100116233D01*
X97010000Y-100408767D02*
X97010000Y-100116233D01*
X98440000Y-100000000D02*
X98440000Y-99350000D01*
X101560000Y-100000000D02*
X101560000Y-99350000D01*
X98440000Y-100000000D02*
X98440000Y-101675000D01*
X101560000Y-100000000D02*
X101560000Y-100650000D01*
X96770000Y-113230000D02*
X103230000Y-113230000D01*
X96770000Y-106770000D02*
X103230000Y-106770000D01*
X103230000Y-113230000D02*
X103230000Y-113200000D01*
X103230000Y-108700000D02*
X103230000Y-111300000D01*
X103230000Y-106770000D02*
X103230000Y-106800000D01*
X96770000Y-106800000D02*
X96770000Y-106770000D01*
X96770000Y-113230000D02*
X96770000Y-113200000D01*
X96770000Y-108700000D02*
X96770000Y-111300000D01*
X95050000Y-92200000D02*
X89650000Y-92200000D01*
X95050000Y-96700000D02*
X95050000Y-92200000D01*
X84650000Y-83750000D02*
X77350000Y-83750000D01*
X84650000Y-78250000D02*
X77350000Y-78250000D01*
X77350000Y-78250000D02*
X77350000Y-79400000D01*
X107907776Y-82477500D02*
X108417224Y-82477500D01*
X107907776Y-83522500D02*
X108417224Y-83522500D01*
X86920000Y-131900000D02*
X86920000Y-125900000D01*
X87680000Y-131900000D02*
X86920000Y-131900000D01*
X89460000Y-131900000D02*
X89460000Y-125900000D01*
X90220000Y-131900000D02*
X89460000Y-131900000D01*
X92000000Y-131900000D02*
X92000000Y-125900000D01*
X92760000Y-131900000D02*
X92000000Y-131900000D01*
X94540000Y-131900000D02*
X94540000Y-125900000D01*
X95300000Y-131900000D02*
X94540000Y-131900000D01*
X97080000Y-131900000D02*
X97080000Y-125900000D01*
X97840000Y-131900000D02*
X97080000Y-131900000D01*
X85970000Y-125900000D02*
X98790000Y-125900000D01*
X87680000Y-125900000D02*
X87680000Y-131900000D01*
X90220000Y-125900000D02*
X90220000Y-131900000D01*
X92760000Y-125900000D02*
X92760000Y-131900000D01*
X95300000Y-125900000D02*
X95300000Y-131900000D01*
X97180000Y-125900000D02*
X97180000Y-131900000D01*
X97300000Y-125900000D02*
X97300000Y-131900000D01*
X97420000Y-125900000D02*
X97420000Y-131900000D01*
X97540000Y-125900000D02*
X97540000Y-131900000D01*
X97660000Y-125900000D02*
X97660000Y-131900000D01*
X97780000Y-125900000D02*
X97780000Y-131900000D01*
X97840000Y-125900000D02*
X97840000Y-131900000D01*
X98790000Y-125900000D02*
X98790000Y-123240000D01*
X85970000Y-123240000D02*
X85970000Y-125900000D01*
X88570000Y-123240000D02*
X88570000Y-125900000D01*
X91110000Y-123240000D02*
X91110000Y-125900000D01*
X93650000Y-123240000D02*
X93650000Y-125900000D01*
X96190000Y-123240000D02*
X96190000Y-125900000D01*
X98790000Y-123240000D02*
X85970000Y-123240000D01*
X97080000Y-122910000D02*
X97080000Y-123240000D01*
X97840000Y-122910000D02*
X97840000Y-123240000D01*
X86920000Y-122842929D02*
X86920000Y-123240000D01*
X87680000Y-122842929D02*
X87680000Y-123240000D01*
X89460000Y-122842929D02*
X89460000Y-123240000D01*
X90220000Y-122842929D02*
X90220000Y-123240000D01*
X92000000Y-122842929D02*
X92000000Y-123240000D01*
X92760000Y-122842929D02*
X92760000Y-123240000D01*
X94540000Y-122842929D02*
X94540000Y-123240000D01*
X95300000Y-122842929D02*
X95300000Y-123240000D01*
X97460000Y-120530000D02*
X98730000Y-120530000D01*
X98730000Y-120530000D02*
X98730000Y-121800000D01*
D10*
X98625000Y-86625000D02*
X98625000Y-86850000D01*
X98625000Y-86625000D02*
X98950000Y-86625000D01*
X98625000Y-86850000D02*
X97200000Y-86850000D01*
X98625000Y-93875000D02*
X98625000Y-93550000D01*
X98625000Y-93875000D02*
X98950000Y-93875000D01*
X105875000Y-86625000D02*
X105550000Y-86625000D01*
X105875000Y-86625000D02*
X105875000Y-86950000D01*
X105875000Y-93875000D02*
X105550000Y-93875000D01*
X105875000Y-93875000D02*
X105875000Y-93550000D01*
D11*
X110830000Y-96170000D02*
X110830000Y-108930000D01*
X108170000Y-108930000D02*
X110830000Y-108930000D01*
X108170000Y-96170000D02*
X110830000Y-96170000D01*
X108170000Y-96170000D02*
X108170000Y-108930000D01*
X108170000Y-94900000D02*
X108170000Y-93570000D01*
X108170000Y-93570000D02*
X109500000Y-93570000D01*
X116250000Y-84650000D02*
X116250000Y-77350000D01*
X121750000Y-84650000D02*
X121750000Y-77350000D01*
X121750000Y-77350000D02*
X120600000Y-77350000D01*
X101270000Y-79470000D02*
X101270000Y-78200000D01*
X102540000Y-79470000D02*
X101270000Y-79470000D01*
X104700000Y-77157071D02*
X104700000Y-76760000D01*
X105460000Y-77157071D02*
X105460000Y-76760000D01*
X107240000Y-77157071D02*
X107240000Y-76760000D01*
X108000000Y-77157071D02*
X108000000Y-76760000D01*
X109780000Y-77157071D02*
X109780000Y-76760000D01*
X110540000Y-77157071D02*
X110540000Y-76760000D01*
X112320000Y-77157071D02*
X112320000Y-76760000D01*
X113080000Y-77157071D02*
X113080000Y-76760000D01*
X102160000Y-77090000D02*
X102160000Y-76760000D01*
X102920000Y-77090000D02*
X102920000Y-76760000D01*
X101210000Y-76760000D02*
X114030000Y-76760000D01*
X103810000Y-76760000D02*
X103810000Y-74100000D01*
X106350000Y-76760000D02*
X106350000Y-74100000D01*
X108890000Y-76760000D02*
X108890000Y-74100000D01*
X111430000Y-76760000D02*
X111430000Y-74100000D01*
X114030000Y-76760000D02*
X114030000Y-74100000D01*
X101210000Y-74100000D02*
X101210000Y-76760000D01*
X102160000Y-74100000D02*
X102160000Y-68100000D01*
X102220000Y-74100000D02*
X102220000Y-68100000D01*
X102340000Y-74100000D02*
X102340000Y-68100000D01*
X102460000Y-74100000D02*
X102460000Y-68100000D01*
X102580000Y-74100000D02*
X102580000Y-68100000D01*
X102700000Y-74100000D02*
X102700000Y-68100000D01*
X102820000Y-74100000D02*
X102820000Y-68100000D01*
X104700000Y-74100000D02*
X104700000Y-68100000D01*
X107240000Y-74100000D02*
X107240000Y-68100000D01*
X109780000Y-74100000D02*
X109780000Y-68100000D01*
X112320000Y-74100000D02*
X112320000Y-68100000D01*
X114030000Y-74100000D02*
X101210000Y-74100000D01*
X102160000Y-68100000D02*
X102920000Y-68100000D01*
X102920000Y-68100000D02*
X102920000Y-74100000D01*
X104700000Y-68100000D02*
X105460000Y-68100000D01*
X105460000Y-68100000D02*
X105460000Y-74100000D01*
X107240000Y-68100000D02*
X108000000Y-68100000D01*
X108000000Y-68100000D02*
X108000000Y-74100000D01*
X109780000Y-68100000D02*
X110540000Y-68100000D01*
X110540000Y-68100000D02*
X110540000Y-74100000D01*
X112320000Y-68100000D02*
X113080000Y-68100000D01*
X113080000Y-68100000D02*
X113080000Y-74100000D01*
X88160000Y-92116233D02*
X88160000Y-92408767D01*
X87140000Y-92116233D02*
X87140000Y-92408767D01*
X131900000Y-113080000D02*
X125900000Y-113080000D01*
X131900000Y-112320000D02*
X131900000Y-113080000D01*
X131900000Y-110540000D02*
X125900000Y-110540000D01*
X131900000Y-109780000D02*
X131900000Y-110540000D01*
X131900000Y-108000000D02*
X125900000Y-108000000D01*
X131900000Y-107240000D02*
X131900000Y-108000000D01*
X131900000Y-105460000D02*
X125900000Y-105460000D01*
X131900000Y-104700000D02*
X131900000Y-105460000D01*
X131900000Y-102920000D02*
X125900000Y-102920000D01*
X131900000Y-102160000D02*
X131900000Y-102920000D01*
X125900000Y-114030000D02*
X125900000Y-101210000D01*
X125900000Y-112320000D02*
X131900000Y-112320000D01*
X125900000Y-109780000D02*
X131900000Y-109780000D01*
X125900000Y-107240000D02*
X131900000Y-107240000D01*
X125900000Y-104700000D02*
X131900000Y-104700000D01*
X125900000Y-102820000D02*
X131900000Y-102820000D01*
X125900000Y-102700000D02*
X131900000Y-102700000D01*
X125900000Y-102580000D02*
X131900000Y-102580000D01*
X125900000Y-102460000D02*
X131900000Y-102460000D01*
X125900000Y-102340000D02*
X131900000Y-102340000D01*
X125900000Y-102220000D02*
X131900000Y-102220000D01*
X125900000Y-102160000D02*
X131900000Y-102160000D01*
X125900000Y-101210000D02*
X123240000Y-101210000D01*
X123240000Y-114030000D02*
X125900000Y-114030000D01*
X123240000Y-111430000D02*
X125900000Y-111430000D01*
X123240000Y-108890000D02*
X125900000Y-108890000D01*
X123240000Y-106350000D02*
X125900000Y-106350000D01*
X123240000Y-103810000D02*
X125900000Y-103810000D01*
X123240000Y-101210000D02*
X123240000Y-114030000D01*
X122910000Y-102920000D02*
X123240000Y-102920000D01*
X122910000Y-102160000D02*
X123240000Y-102160000D01*
X122842929Y-113080000D02*
X123240000Y-113080000D01*
X122842929Y-112320000D02*
X123240000Y-112320000D01*
X122842929Y-110540000D02*
X123240000Y-110540000D01*
X122842929Y-109780000D02*
X123240000Y-109780000D01*
X122842929Y-108000000D02*
X123240000Y-108000000D01*
X122842929Y-107240000D02*
X123240000Y-107240000D01*
X122842929Y-105460000D02*
X123240000Y-105460000D01*
X122842929Y-104700000D02*
X123240000Y-104700000D01*
X120530000Y-102540000D02*
X120530000Y-101270000D01*
X120530000Y-101270000D02*
X121800000Y-101270000D01*
X82370000Y-114010000D02*
X81100000Y-114010000D01*
X82370000Y-112740000D02*
X82370000Y-114010000D01*
X80057071Y-110580000D02*
X79660000Y-110580000D01*
X80057071Y-109820000D02*
X79660000Y-109820000D01*
X80057071Y-108040000D02*
X79660000Y-108040000D01*
X80057071Y-107280000D02*
X79660000Y-107280000D01*
X80057071Y-105500000D02*
X79660000Y-105500000D01*
X80057071Y-104740000D02*
X79660000Y-104740000D01*
X80057071Y-102960000D02*
X79660000Y-102960000D01*
X80057071Y-102200000D02*
X79660000Y-102200000D01*
X79990000Y-113120000D02*
X79660000Y-113120000D01*
X79990000Y-112360000D02*
X79660000Y-112360000D01*
X79660000Y-114070000D02*
X79660000Y-101250000D01*
X79660000Y-111470000D02*
X77000000Y-111470000D01*
X79660000Y-108930000D02*
X77000000Y-108930000D01*
X79660000Y-106390000D02*
X77000000Y-106390000D01*
X79660000Y-103850000D02*
X77000000Y-103850000D01*
X79660000Y-101250000D02*
X77000000Y-101250000D01*
X77000000Y-114070000D02*
X79660000Y-114070000D01*
X77000000Y-113120000D02*
X71000000Y-113120000D01*
X77000000Y-113060000D02*
X71000000Y-113060000D01*
X77000000Y-112940000D02*
X71000000Y-112940000D01*
X77000000Y-112820000D02*
X71000000Y-112820000D01*
X77000000Y-112700000D02*
X71000000Y-112700000D01*
X77000000Y-112580000D02*
X71000000Y-112580000D01*
X77000000Y-112460000D02*
X71000000Y-112460000D01*
X77000000Y-110580000D02*
X71000000Y-110580000D01*
X77000000Y-108040000D02*
X71000000Y-108040000D01*
X77000000Y-105500000D02*
X71000000Y-105500000D01*
X77000000Y-102960000D02*
X71000000Y-102960000D01*
X77000000Y-101250000D02*
X77000000Y-114070000D01*
X71000000Y-113120000D02*
X71000000Y-112360000D01*
X71000000Y-112360000D02*
X77000000Y-112360000D01*
X71000000Y-110580000D02*
X71000000Y-109820000D01*
X71000000Y-109820000D02*
X77000000Y-109820000D01*
X71000000Y-108040000D02*
X71000000Y-107280000D01*
X71000000Y-107280000D02*
X77000000Y-107280000D01*
X71000000Y-105500000D02*
X71000000Y-104740000D01*
X71000000Y-104740000D02*
X77000000Y-104740000D01*
X71000000Y-102960000D02*
X71000000Y-102200000D01*
X71000000Y-102200000D02*
X77000000Y-102200000D01*
X112745276Y-82477500D02*
X113254724Y-82477500D01*
X112745276Y-83522500D02*
X113254724Y-83522500D01*
X115350000Y-116250000D02*
X122650000Y-116250000D01*
X115350000Y-121750000D02*
X122650000Y-121750000D01*
X122650000Y-121750000D02*
X122650000Y-120600000D01*
X83750000Y-115350000D02*
X83750000Y-122650000D01*
X78250000Y-115350000D02*
X78250000Y-122650000D01*
X78250000Y-122650000D02*
X79400000Y-122650000D01*
X117630000Y-85990000D02*
X118900000Y-85990000D01*
X117630000Y-87260000D02*
X117630000Y-85990000D01*
X119942929Y-89420000D02*
X120340000Y-89420000D01*
X119942929Y-90180000D02*
X120340000Y-90180000D01*
X119942929Y-91960000D02*
X120340000Y-91960000D01*
X119942929Y-92720000D02*
X120340000Y-92720000D01*
X119942929Y-94500000D02*
X120340000Y-94500000D01*
X119942929Y-95260000D02*
X120340000Y-95260000D01*
X119942929Y-97040000D02*
X120340000Y-97040000D01*
X119942929Y-97800000D02*
X120340000Y-97800000D01*
X120010000Y-86880000D02*
X120340000Y-86880000D01*
X120010000Y-87640000D02*
X120340000Y-87640000D01*
X120340000Y-85930000D02*
X120340000Y-98750000D01*
X120340000Y-88530000D02*
X123000000Y-88530000D01*
X120340000Y-91070000D02*
X123000000Y-91070000D01*
X120340000Y-93610000D02*
X123000000Y-93610000D01*
X120340000Y-96150000D02*
X123000000Y-96150000D01*
X120340000Y-98750000D02*
X123000000Y-98750000D01*
X123000000Y-85930000D02*
X120340000Y-85930000D01*
X123000000Y-86880000D02*
X129000000Y-86880000D01*
X123000000Y-86940000D02*
X129000000Y-86940000D01*
X123000000Y-87060000D02*
X129000000Y-87060000D01*
X123000000Y-87180000D02*
X129000000Y-87180000D01*
X123000000Y-87300000D02*
X129000000Y-87300000D01*
X123000000Y-87420000D02*
X129000000Y-87420000D01*
X123000000Y-87540000D02*
X129000000Y-87540000D01*
X123000000Y-89420000D02*
X129000000Y-89420000D01*
X123000000Y-91960000D02*
X129000000Y-91960000D01*
X123000000Y-94500000D02*
X129000000Y-94500000D01*
X123000000Y-97040000D02*
X129000000Y-97040000D01*
X123000000Y-98750000D02*
X123000000Y-85930000D01*
X129000000Y-86880000D02*
X129000000Y-87640000D01*
X129000000Y-87640000D02*
X123000000Y-87640000D01*
X129000000Y-89420000D02*
X129000000Y-90180000D01*
X129000000Y-90180000D02*
X123000000Y-90180000D01*
X129000000Y-91960000D02*
X129000000Y-92720000D01*
X129000000Y-92720000D02*
X123000000Y-92720000D01*
X129000000Y-94500000D02*
X129000000Y-95260000D01*
X129000000Y-95260000D02*
X123000000Y-95260000D01*
X129000000Y-97040000D02*
X129000000Y-97800000D01*
X129000000Y-97800000D02*
X123000000Y-97800000D01*
X68100000Y-86920000D02*
X74100000Y-86920000D01*
X68100000Y-87680000D02*
X68100000Y-86920000D01*
X68100000Y-89460000D02*
X74100000Y-89460000D01*
X68100000Y-90220000D02*
X68100000Y-89460000D01*
X68100000Y-92000000D02*
X74100000Y-92000000D01*
X68100000Y-92760000D02*
X68100000Y-92000000D01*
X68100000Y-94540000D02*
X74100000Y-94540000D01*
X68100000Y-95300000D02*
X68100000Y-94540000D01*
X68100000Y-97080000D02*
X74100000Y-97080000D01*
X68100000Y-97840000D02*
X68100000Y-97080000D01*
X74100000Y-85970000D02*
X74100000Y-98790000D01*
X74100000Y-87680000D02*
X68100000Y-87680000D01*
X74100000Y-90220000D02*
X68100000Y-90220000D01*
X74100000Y-92760000D02*
X68100000Y-92760000D01*
X74100000Y-95300000D02*
X68100000Y-95300000D01*
X74100000Y-97180000D02*
X68100000Y-97180000D01*
X74100000Y-97300000D02*
X68100000Y-97300000D01*
X74100000Y-97420000D02*
X68100000Y-97420000D01*
X74100000Y-97540000D02*
X68100000Y-97540000D01*
X74100000Y-97660000D02*
X68100000Y-97660000D01*
X74100000Y-97780000D02*
X68100000Y-97780000D01*
X74100000Y-97840000D02*
X68100000Y-97840000D01*
X74100000Y-98790000D02*
X76760000Y-98790000D01*
X76760000Y-85970000D02*
X74100000Y-85970000D01*
X76760000Y-88570000D02*
X74100000Y-88570000D01*
X76760000Y-91110000D02*
X74100000Y-91110000D01*
X76760000Y-93650000D02*
X74100000Y-93650000D01*
X76760000Y-96190000D02*
X74100000Y-96190000D01*
X76760000Y-98790000D02*
X76760000Y-85970000D01*
X77090000Y-97080000D02*
X76760000Y-97080000D01*
X77090000Y-97840000D02*
X76760000Y-97840000D01*
X77157071Y-86920000D02*
X76760000Y-86920000D01*
X77157071Y-87680000D02*
X76760000Y-87680000D01*
X77157071Y-89460000D02*
X76760000Y-89460000D01*
X77157071Y-90220000D02*
X76760000Y-90220000D01*
X77157071Y-92000000D02*
X76760000Y-92000000D01*
X77157071Y-92760000D02*
X76760000Y-92760000D01*
X77157071Y-94540000D02*
X76760000Y-94540000D01*
X77157071Y-95300000D02*
X76760000Y-95300000D01*
X79470000Y-97460000D02*
X79470000Y-98730000D01*
X79470000Y-98730000D02*
X78200000Y-98730000D01*
X85990000Y-82370000D02*
X85990000Y-81100000D01*
X87260000Y-82370000D02*
X85990000Y-82370000D01*
X89420000Y-80057071D02*
X89420000Y-79660000D01*
X90180000Y-80057071D02*
X90180000Y-79660000D01*
X91960000Y-80057071D02*
X91960000Y-79660000D01*
X92720000Y-80057071D02*
X92720000Y-79660000D01*
X94500000Y-80057071D02*
X94500000Y-79660000D01*
X95260000Y-80057071D02*
X95260000Y-79660000D01*
X97040000Y-80057071D02*
X97040000Y-79660000D01*
X97800000Y-80057071D02*
X97800000Y-79660000D01*
X86880000Y-79990000D02*
X86880000Y-79660000D01*
X87640000Y-79990000D02*
X87640000Y-79660000D01*
X85930000Y-79660000D02*
X98750000Y-79660000D01*
X88530000Y-79660000D02*
X88530000Y-77000000D01*
X91070000Y-79660000D02*
X91070000Y-77000000D01*
X93610000Y-79660000D02*
X93610000Y-77000000D01*
X96150000Y-79660000D02*
X96150000Y-77000000D01*
X98750000Y-79660000D02*
X98750000Y-77000000D01*
X85930000Y-77000000D02*
X85930000Y-79660000D01*
X86880000Y-77000000D02*
X86880000Y-71000000D01*
X86940000Y-77000000D02*
X86940000Y-71000000D01*
X87060000Y-77000000D02*
X87060000Y-71000000D01*
X87180000Y-77000000D02*
X87180000Y-71000000D01*
X87300000Y-77000000D02*
X87300000Y-71000000D01*
X87420000Y-77000000D02*
X87420000Y-71000000D01*
X87540000Y-77000000D02*
X87540000Y-71000000D01*
X89420000Y-77000000D02*
X89420000Y-71000000D01*
X91960000Y-77000000D02*
X91960000Y-71000000D01*
X94500000Y-77000000D02*
X94500000Y-71000000D01*
X97040000Y-77000000D02*
X97040000Y-71000000D01*
X98750000Y-77000000D02*
X85930000Y-77000000D01*
X86880000Y-71000000D02*
X87640000Y-71000000D01*
X87640000Y-71000000D02*
X87640000Y-77000000D01*
X89420000Y-71000000D02*
X90180000Y-71000000D01*
X90180000Y-71000000D02*
X90180000Y-77000000D01*
X91960000Y-71000000D02*
X92720000Y-71000000D01*
X92720000Y-71000000D02*
X92720000Y-77000000D01*
X94500000Y-71000000D02*
X95260000Y-71000000D01*
X95260000Y-71000000D02*
X95260000Y-77000000D01*
X97040000Y-71000000D02*
X97800000Y-71000000D01*
X97800000Y-71000000D02*
X97800000Y-77000000D01*
X102200000Y-129000000D02*
X102200000Y-123000000D01*
X102960000Y-129000000D02*
X102200000Y-129000000D01*
X104740000Y-129000000D02*
X104740000Y-123000000D01*
X105500000Y-129000000D02*
X104740000Y-129000000D01*
X107280000Y-129000000D02*
X107280000Y-123000000D01*
X108040000Y-129000000D02*
X107280000Y-129000000D01*
X109820000Y-129000000D02*
X109820000Y-123000000D01*
X110580000Y-129000000D02*
X109820000Y-129000000D01*
X112360000Y-129000000D02*
X112360000Y-123000000D01*
X113120000Y-129000000D02*
X112360000Y-129000000D01*
X101250000Y-123000000D02*
X114070000Y-123000000D01*
X102960000Y-123000000D02*
X102960000Y-129000000D01*
X105500000Y-123000000D02*
X105500000Y-129000000D01*
X108040000Y-123000000D02*
X108040000Y-129000000D01*
X110580000Y-123000000D02*
X110580000Y-129000000D01*
X112460000Y-123000000D02*
X112460000Y-129000000D01*
X112580000Y-123000000D02*
X112580000Y-129000000D01*
X112700000Y-123000000D02*
X112700000Y-129000000D01*
X112820000Y-123000000D02*
X112820000Y-129000000D01*
X112940000Y-123000000D02*
X112940000Y-129000000D01*
X113060000Y-123000000D02*
X113060000Y-129000000D01*
X113120000Y-123000000D02*
X113120000Y-129000000D01*
X114070000Y-123000000D02*
X114070000Y-120340000D01*
X101250000Y-120340000D02*
X101250000Y-123000000D01*
X103850000Y-120340000D02*
X103850000Y-123000000D01*
X106390000Y-120340000D02*
X106390000Y-123000000D01*
X108930000Y-120340000D02*
X108930000Y-123000000D01*
X111470000Y-120340000D02*
X111470000Y-123000000D01*
X114070000Y-120340000D02*
X101250000Y-120340000D01*
X112360000Y-120010000D02*
X112360000Y-120340000D01*
X113120000Y-120010000D02*
X113120000Y-120340000D01*
X102200000Y-119942929D02*
X102200000Y-120340000D01*
X102960000Y-119942929D02*
X102960000Y-120340000D01*
X104740000Y-119942929D02*
X104740000Y-120340000D01*
X105500000Y-119942929D02*
X105500000Y-120340000D01*
X107280000Y-119942929D02*
X107280000Y-120340000D01*
X108040000Y-119942929D02*
X108040000Y-120340000D01*
X109820000Y-119942929D02*
X109820000Y-120340000D01*
X110580000Y-119942929D02*
X110580000Y-120340000D01*
X112740000Y-117630000D02*
X114010000Y-117630000D01*
X114010000Y-117630000D02*
X114010000Y-118900000D01*
X88160000Y-96303733D02*
X88160000Y-96596267D01*
X87140000Y-96303733D02*
X87140000Y-96596267D01*
%LPC*%
D12*
X112100000Y-97400000D03*
X112100000Y-95575000D03*
D13*
X112100000Y-93575000D03*
X112100000Y-91825000D03*
D14*
X96500000Y-101125000D03*
X96500000Y-99400000D03*
D15*
X99050000Y-100937500D03*
X100950000Y-100937500D03*
X100000000Y-99062500D03*
D16*
X96020000Y-107750000D03*
X103980000Y-107750000D03*
X96020000Y-112250000D03*
X103980000Y-112250000D03*
D17*
X93800000Y-93300000D03*
X90900000Y-93300000D03*
X90900000Y-95600000D03*
X93800000Y-95600000D03*
D18*
X78550000Y-79400000D03*
X78550000Y-82600000D03*
X83450000Y-82600000D03*
X83450000Y-79400000D03*
D19*
X107250000Y-83000000D03*
X109075000Y-83000000D03*
D20*
X87300000Y-121800000D03*
X89840000Y-121800000D03*
X92380000Y-121800000D03*
X94920000Y-121800000D03*
D21*
X97460000Y-121800000D03*
D22*
X98000000Y-87450000D03*
X98000000Y-88250000D03*
X98000000Y-89050000D03*
X98000000Y-89850000D03*
X98000000Y-90650000D03*
X98000000Y-91450000D03*
X98000000Y-92250000D03*
X98000000Y-93050000D03*
D23*
X99450000Y-94500000D03*
X100250000Y-94500000D03*
X101050000Y-94500000D03*
X101850000Y-94500000D03*
X102650000Y-94500000D03*
X103450000Y-94500000D03*
X104250000Y-94500000D03*
X105050000Y-94500000D03*
D22*
X106500000Y-93050000D03*
X106500000Y-92250000D03*
X106500000Y-91450000D03*
X106500000Y-90650000D03*
X106500000Y-89850000D03*
X106500000Y-89050000D03*
X106500000Y-88250000D03*
X106500000Y-87450000D03*
D23*
X105050000Y-86000000D03*
X104250000Y-86000000D03*
X103450000Y-86000000D03*
X102650000Y-86000000D03*
X101850000Y-86000000D03*
X101050000Y-86000000D03*
X100250000Y-86000000D03*
X99450000Y-86000000D03*
D20*
X109500000Y-107600000D03*
X109500000Y-105060000D03*
X109500000Y-102520000D03*
X109500000Y-99980000D03*
X109500000Y-97440000D03*
D21*
X109500000Y-94900000D03*
D24*
X120600000Y-78550000D03*
X117400000Y-78550000D03*
X117400000Y-83450000D03*
X120600000Y-83450000D03*
D21*
X102540000Y-78200000D03*
D20*
X105080000Y-78200000D03*
X107620000Y-78200000D03*
X110160000Y-78200000D03*
X112700000Y-78200000D03*
D25*
X87650000Y-91400000D03*
X87650000Y-93125000D03*
D20*
X121800000Y-112700000D03*
X121800000Y-110160000D03*
X121800000Y-107620000D03*
X121800000Y-105080000D03*
D21*
X121800000Y-102540000D03*
X81100000Y-112740000D03*
D20*
X81100000Y-110200000D03*
X81100000Y-107660000D03*
X81100000Y-105120000D03*
X81100000Y-102580000D03*
D19*
X112087500Y-83000000D03*
X113912500Y-83000000D03*
D18*
X121450000Y-120600000D03*
X121450000Y-117400000D03*
X116550000Y-117400000D03*
X116550000Y-120600000D03*
D24*
X79400000Y-121450000D03*
X82600000Y-121450000D03*
X82600000Y-116550000D03*
X79400000Y-116550000D03*
D21*
X118900000Y-87260000D03*
D20*
X118900000Y-89800000D03*
X118900000Y-92340000D03*
X118900000Y-94880000D03*
X118900000Y-97420000D03*
X78200000Y-87300000D03*
X78200000Y-89840000D03*
X78200000Y-92380000D03*
X78200000Y-94920000D03*
D21*
X78200000Y-97460000D03*
X87260000Y-81100000D03*
D20*
X89800000Y-81100000D03*
X92340000Y-81100000D03*
X94880000Y-81100000D03*
X97420000Y-81100000D03*
X102580000Y-118900000D03*
X105120000Y-118900000D03*
X107660000Y-118900000D03*
X110200000Y-118900000D03*
D21*
X112740000Y-118900000D03*
D25*
X87650000Y-95587500D03*
X87650000Y-97312500D03*
%LPD*%
M02*
