G04 #@! TF.GenerationSoftware,KiCad,Pcbnew,7.0.5-4d25ed1034~172~ubuntu22.04.1*
G04 #@! TF.CreationDate,2023-06-02T18:33:25-04:00*
G04 #@! TF.ProjectId,v2,76322e6b-6963-4616-945f-706362585858,rev?*
G04 #@! TF.SameCoordinates,Original*
G04 #@! TF.FileFunction,Copper,L1,Top*
G04 #@! TF.FilePolarity,Positive*
%FSLAX46Y46*%
G04 Gerber Fmt 4.6, Leading zero omitted, Abs format (unit mm)*
G04 Created by KiCad (PCBNEW 7.0.5-4d25ed1034~172~ubuntu22.04.1) date 2023-06-02 18:33:25*
%MOMM*%
%LPD*%
G01*
G04 APERTURE LIST*
G04 Aperture macros list*
%AMRoundRect*
0 Rectangle with rounded corners*
0 $1 Rounding radius*
0 $2 $3 $4 $5 $6 $7 $8 $9 X,Y pos of 4 corners*
0 Add a 4 corners polygon primitive as box body*
4,1,4,$2,$3,$4,$5,$6,$7,$8,$9,$2,$3,0*
0 Add four circle primitives for the rounded corners*
1,1,$1+$1,$2,$3*
1,1,$1+$1,$4,$5*
1,1,$1+$1,$6,$7*
1,1,$1+$1,$8,$9*
0 Add four rect primitives between the rounded corners*
20,1,$1+$1,$2,$3,$4,$5,0*
20,1,$1+$1,$4,$5,$6,$7,0*
20,1,$1+$1,$6,$7,$8,$9,0*
20,1,$1+$1,$8,$9,$2,$3,0*%
G04 Aperture macros list end*
G04 #@! TA.AperFunction,SMDPad,CuDef*
%ADD10R,1.500000X1.000000*%
G04 #@! TD*
G04 #@! TA.AperFunction,SMDPad,CuDef*
%ADD11RoundRect,0.155000X0.155000X-0.212500X0.155000X0.212500X-0.155000X0.212500X-0.155000X-0.212500X0*%
G04 #@! TD*
G04 #@! TA.AperFunction,SMDPad,CuDef*
%ADD12RoundRect,0.150000X0.150000X-0.587500X0.150000X0.587500X-0.150000X0.587500X-0.150000X-0.587500X0*%
G04 #@! TD*
G04 #@! TA.AperFunction,SMDPad,CuDef*
%ADD13RoundRect,0.237500X0.237500X-0.250000X0.237500X0.250000X-0.237500X0.250000X-0.237500X-0.250000X0*%
G04 #@! TD*
G04 #@! TA.AperFunction,ComponentPad*
%ADD14C,1.900000*%
G04 #@! TD*
G04 #@! TA.AperFunction,ComponentPad*
%ADD15R,1.900000X1.900000*%
G04 #@! TD*
G04 #@! TA.AperFunction,ComponentPad*
%ADD16R,1.700000X1.700000*%
G04 #@! TD*
G04 #@! TA.AperFunction,ComponentPad*
%ADD17O,1.700000X1.700000*%
G04 #@! TD*
G04 #@! TA.AperFunction,SMDPad,CuDef*
%ADD18R,0.700000X0.700000*%
G04 #@! TD*
G04 #@! TA.AperFunction,SMDPad,CuDef*
%ADD19RoundRect,0.237500X-0.237500X0.250000X-0.237500X-0.250000X0.237500X-0.250000X0.237500X0.250000X0*%
G04 #@! TD*
G04 #@! TA.AperFunction,SMDPad,CuDef*
%ADD20R,1.000000X1.500000*%
G04 #@! TD*
G04 #@! TA.AperFunction,SMDPad,CuDef*
%ADD21R,1.000000X0.750000*%
G04 #@! TD*
G04 #@! TA.AperFunction,SMDPad,CuDef*
%ADD22RoundRect,0.237500X0.237500X-0.300000X0.237500X0.300000X-0.237500X0.300000X-0.237500X-0.300000X0*%
G04 #@! TD*
G04 #@! TA.AperFunction,SMDPad,CuDef*
%ADD23RoundRect,0.237500X0.300000X0.237500X-0.300000X0.237500X-0.300000X-0.237500X0.300000X-0.237500X0*%
G04 #@! TD*
G04 #@! TA.AperFunction,SMDPad,CuDef*
%ADD24RoundRect,0.062500X-0.375000X-0.062500X0.375000X-0.062500X0.375000X0.062500X-0.375000X0.062500X0*%
G04 #@! TD*
G04 #@! TA.AperFunction,SMDPad,CuDef*
%ADD25RoundRect,0.062500X-0.062500X-0.375000X0.062500X-0.375000X0.062500X0.375000X-0.062500X0.375000X0*%
G04 #@! TD*
G04 #@! TA.AperFunction,SMDPad,CuDef*
%ADD26R,3.100000X3.100000*%
G04 #@! TD*
G04 #@! TA.AperFunction,SMDPad,CuDef*
%ADD27RoundRect,0.237500X-0.237500X0.300000X-0.237500X-0.300000X0.237500X-0.300000X0.237500X0.300000X0*%
G04 #@! TD*
G04 #@! TA.AperFunction,SMDPad,CuDef*
%ADD28R,2.100000X1.800000*%
G04 #@! TD*
G04 #@! TA.AperFunction,SMDPad,CuDef*
%ADD29RoundRect,0.237500X-0.237500X0.287500X-0.237500X-0.287500X0.237500X-0.287500X0.237500X0.287500X0*%
G04 #@! TD*
G04 #@! TA.AperFunction,SMDPad,CuDef*
%ADD30RoundRect,0.237500X0.250000X0.237500X-0.250000X0.237500X-0.250000X-0.237500X0.250000X-0.237500X0*%
G04 #@! TD*
G04 #@! TA.AperFunction,ViaPad*
%ADD31C,0.800000*%
G04 #@! TD*
G04 #@! TA.AperFunction,Conductor*
%ADD32C,0.250000*%
G04 #@! TD*
G04 #@! TA.AperFunction,Conductor*
%ADD33C,0.200000*%
G04 #@! TD*
G04 APERTURE END LIST*
D10*
X78550000Y-79400000D03*
X78550000Y-82600000D03*
X83450000Y-82600000D03*
X83450000Y-79400000D03*
D11*
X103600000Y-104367500D03*
X103600000Y-103232500D03*
D12*
X99050000Y-100937500D03*
X100950000Y-100937500D03*
X100000000Y-99062500D03*
D13*
X104600000Y-97312500D03*
X104600000Y-95487500D03*
D14*
X88570000Y-76500000D03*
X91110000Y-76500000D03*
X93650000Y-76500000D03*
X96190000Y-76500000D03*
D15*
X98730000Y-76500000D03*
X101270000Y-76500000D03*
D14*
X103810000Y-76500000D03*
X106350000Y-76500000D03*
X108890000Y-76500000D03*
X111430000Y-76500000D03*
D16*
X109500000Y-94900000D03*
D17*
X109500000Y-97440000D03*
X109500000Y-99980000D03*
X109500000Y-102520000D03*
X109500000Y-105060000D03*
X109500000Y-107600000D03*
D18*
X98615000Y-96950000D03*
X98615000Y-95850000D03*
X96785000Y-95850000D03*
X96785000Y-96950000D03*
D19*
X96300000Y-92287500D03*
X96300000Y-94112500D03*
D20*
X120600000Y-78550000D03*
X117400000Y-78550000D03*
X117400000Y-83450000D03*
X120600000Y-83450000D03*
D13*
X102300000Y-97312500D03*
X102300000Y-95487500D03*
D21*
X97000000Y-110125000D03*
X103000000Y-110125000D03*
X97000000Y-113875000D03*
X103000000Y-113875000D03*
D22*
X96600000Y-102062500D03*
X96600000Y-100337500D03*
D14*
X111430000Y-123500000D03*
X108890000Y-123500000D03*
X106350000Y-123500000D03*
X103810000Y-123500000D03*
D15*
X101270000Y-123500000D03*
X98730000Y-123500000D03*
D14*
X96190000Y-123500000D03*
X93650000Y-123500000D03*
X91110000Y-123500000D03*
X88570000Y-123500000D03*
D23*
X110125000Y-89900000D03*
X108400000Y-89900000D03*
D24*
X99632500Y-87480000D03*
X99632500Y-87980000D03*
X99632500Y-88480000D03*
X99632500Y-88980000D03*
X99632500Y-89480000D03*
X99632500Y-89980000D03*
X99632500Y-90480000D03*
X99632500Y-90980000D03*
D25*
X100320000Y-91667500D03*
X100820000Y-91667500D03*
X101320000Y-91667500D03*
X101820000Y-91667500D03*
X102320000Y-91667500D03*
X102820000Y-91667500D03*
X103320000Y-91667500D03*
X103820000Y-91667500D03*
D24*
X104507500Y-90980000D03*
X104507500Y-90480000D03*
X104507500Y-89980000D03*
X104507500Y-89480000D03*
X104507500Y-88980000D03*
X104507500Y-88480000D03*
X104507500Y-87980000D03*
X104507500Y-87480000D03*
D25*
X103820000Y-86792500D03*
X103320000Y-86792500D03*
X102820000Y-86792500D03*
X102320000Y-86792500D03*
X101820000Y-86792500D03*
X101320000Y-86792500D03*
X100820000Y-86792500D03*
X100320000Y-86792500D03*
D26*
X102070000Y-89230000D03*
D27*
X85650000Y-90300000D03*
X85650000Y-92025000D03*
D14*
X123500000Y-88570000D03*
X123500000Y-91110000D03*
X123500000Y-93650000D03*
X123500000Y-96190000D03*
D15*
X123500000Y-98730000D03*
X123500000Y-101270000D03*
D14*
X123500000Y-103810000D03*
X123500000Y-106350000D03*
X123500000Y-108890000D03*
X123500000Y-111430000D03*
D28*
X91400000Y-92050000D03*
X88500000Y-92050000D03*
X88500000Y-94350000D03*
X91400000Y-94350000D03*
D13*
X115100000Y-80312500D03*
X115100000Y-78487500D03*
D14*
X76500000Y-111430000D03*
X76500000Y-108890000D03*
X76500000Y-106350000D03*
X76500000Y-103810000D03*
D15*
X76500000Y-101270000D03*
X76500000Y-98730000D03*
D14*
X76500000Y-96190000D03*
X76500000Y-93650000D03*
X76500000Y-91110000D03*
X76500000Y-88570000D03*
D29*
X112100000Y-91825000D03*
X112100000Y-93575000D03*
D10*
X121450000Y-120600000D03*
X121450000Y-117400000D03*
X116550000Y-117400000D03*
X116550000Y-120600000D03*
D30*
X99912500Y-94100000D03*
X98087500Y-94100000D03*
X113912500Y-89900000D03*
X112087500Y-89900000D03*
D20*
X79400000Y-121450000D03*
X82600000Y-121450000D03*
X82600000Y-116550000D03*
X79400000Y-116550000D03*
D13*
X100900000Y-104712500D03*
X100900000Y-102887500D03*
X94600000Y-94112500D03*
X94600000Y-92287500D03*
D22*
X85650000Y-96162500D03*
X85650000Y-94437500D03*
D13*
X112100000Y-97400000D03*
X112100000Y-95575000D03*
D31*
X115000000Y-113400000D03*
X117300000Y-115700000D03*
X84500000Y-117300000D03*
X86600000Y-115300000D03*
X104300000Y-99300000D03*
X81100000Y-81100000D03*
X119000000Y-80900000D03*
X119100000Y-119000000D03*
X98124500Y-89500000D03*
X81000000Y-119000000D03*
X93000000Y-103000000D03*
X103500000Y-85000000D03*
X103500000Y-83900000D03*
X106400000Y-81900000D03*
X103500000Y-82800000D03*
X115100000Y-81700000D03*
X108000000Y-88000000D03*
X97400000Y-103700000D03*
X120500000Y-100000000D03*
X95400000Y-89200000D03*
X100000000Y-120300000D03*
X95600000Y-103700000D03*
X96500000Y-89224500D03*
X79700000Y-100000000D03*
X99900000Y-79400000D03*
X102900000Y-93900000D03*
X99600000Y-104500000D03*
X107400000Y-86900000D03*
X103800000Y-102000000D03*
X102200000Y-102900000D03*
D32*
X79700000Y-100000000D02*
X81700000Y-100000000D01*
X81700000Y-100000000D02*
X84200000Y-97500000D01*
X87107500Y-86792500D02*
X100320000Y-86792500D01*
X84200000Y-97500000D02*
X84200000Y-89700000D01*
X84200000Y-89700000D02*
X87107500Y-86792500D01*
X115100000Y-78487500D02*
X117337500Y-78487500D01*
X117337500Y-78487500D02*
X117400000Y-78550000D01*
X117400000Y-82500000D02*
X117400000Y-83450000D01*
X82600000Y-117400000D02*
X82600000Y-116550000D01*
X109500000Y-92700000D02*
X112087500Y-90112500D01*
X93937500Y-102062500D02*
X96600000Y-102062500D01*
X109500000Y-94900000D02*
X109500000Y-93060000D01*
X109500000Y-93060000D02*
X109500000Y-92700000D01*
X99146992Y-88980000D02*
X98626992Y-89500000D01*
X99632500Y-89980000D02*
X99106992Y-89980000D01*
X106920000Y-90480000D02*
X104507500Y-90480000D01*
X109500000Y-93060000D02*
X106920000Y-90480000D01*
X119100000Y-119000000D02*
X117500000Y-117400000D01*
X119000000Y-80900000D02*
X117400000Y-82500000D01*
X99632500Y-88980000D02*
X99146992Y-88980000D01*
X93000000Y-103000000D02*
X93937500Y-102062500D01*
X82600000Y-82600000D02*
X83450000Y-82600000D01*
X81100000Y-81100000D02*
X82600000Y-82600000D01*
X98626992Y-89500000D02*
X98124500Y-89500000D01*
X97925000Y-102062500D02*
X99050000Y-100937500D01*
X98615000Y-100502500D02*
X99050000Y-100937500D01*
X112087500Y-90112500D02*
X112087500Y-89900000D01*
X104600000Y-97312500D02*
X104300000Y-97612500D01*
X96600000Y-102062500D02*
X97925000Y-102062500D01*
X99106992Y-89980000D02*
X98626992Y-89500000D01*
X104300000Y-97612500D02*
X104300000Y-99300000D01*
X117500000Y-117400000D02*
X116550000Y-117400000D01*
X98615000Y-96950000D02*
X98615000Y-100502500D01*
X81000000Y-119000000D02*
X82600000Y-117400000D01*
X124800000Y-85800000D02*
X122450000Y-83450000D01*
X124800000Y-116400000D02*
X124800000Y-85800000D01*
X121450000Y-117400000D02*
X123800000Y-117400000D01*
X122450000Y-83450000D02*
X120600000Y-83450000D01*
X123800000Y-117400000D02*
X124800000Y-116400000D01*
X82600000Y-121450000D02*
X82600000Y-123500000D01*
X114600000Y-124800000D02*
X116550000Y-122850000D01*
X83900000Y-124800000D02*
X114600000Y-124800000D01*
X116550000Y-122850000D02*
X116550000Y-120600000D01*
X82600000Y-123500000D02*
X83900000Y-124800000D01*
X78550000Y-82600000D02*
X76300000Y-82600000D01*
X76300000Y-82600000D02*
X75200000Y-83700000D01*
X75200000Y-115300000D02*
X76450000Y-116550000D01*
X76450000Y-116550000D02*
X79400000Y-116550000D01*
X75200000Y-83700000D02*
X75200000Y-115300000D01*
X108890000Y-123500000D02*
X108890000Y-122810000D01*
X122910000Y-91110000D02*
X108890000Y-77090000D01*
X91110000Y-77190000D02*
X91110000Y-76500000D01*
D33*
X103500000Y-85000000D02*
X102820000Y-85680000D01*
D32*
X108890000Y-77090000D02*
X108890000Y-76500000D01*
X76500000Y-108890000D02*
X77190000Y-108890000D01*
X108890000Y-122810000D02*
X122810000Y-108890000D01*
X122810000Y-108890000D02*
X123500000Y-108890000D01*
X76500000Y-91110000D02*
X77190000Y-91110000D01*
X77190000Y-108890000D02*
X91110000Y-122810000D01*
X123500000Y-91110000D02*
X122910000Y-91110000D01*
X91110000Y-122810000D02*
X91110000Y-123500000D01*
X77190000Y-91110000D02*
X91110000Y-77190000D01*
D33*
X102820000Y-85680000D02*
X102820000Y-86792500D01*
X103500000Y-83900000D02*
X102320000Y-85080000D01*
D32*
X123500000Y-93600000D02*
X123500000Y-93650000D01*
X93600000Y-76500000D02*
X76500000Y-93600000D01*
X106350000Y-123500000D02*
X123500000Y-106350000D01*
D33*
X102320000Y-85080000D02*
X102320000Y-86792500D01*
D32*
X106400000Y-76500000D02*
X123500000Y-93600000D01*
X93650000Y-76500000D02*
X93600000Y-76500000D01*
X76500000Y-106400000D02*
X76500000Y-106350000D01*
X93600000Y-123500000D02*
X76500000Y-106400000D01*
X76500000Y-93600000D02*
X76500000Y-93650000D01*
X106350000Y-76500000D02*
X106400000Y-76500000D01*
X93650000Y-123500000D02*
X93600000Y-123500000D01*
X107800000Y-93000000D02*
X107800000Y-96100000D01*
X112060000Y-97440000D02*
X109500000Y-97440000D01*
X104507500Y-90980000D02*
X105780000Y-90980000D01*
X107800000Y-96100000D02*
X109140000Y-97440000D01*
X112100000Y-97400000D02*
X112060000Y-97440000D01*
X105780000Y-90980000D02*
X107800000Y-93000000D01*
X109140000Y-97440000D02*
X110000000Y-97440000D01*
X107200000Y-94100000D02*
X104767500Y-91667500D01*
X109500000Y-99980000D02*
X107200000Y-97680000D01*
X107200000Y-97680000D02*
X107200000Y-94100000D01*
X104767500Y-91667500D02*
X103820000Y-91667500D01*
X108620000Y-102520000D02*
X106500000Y-100400000D01*
X110000000Y-102520000D02*
X108620000Y-102520000D01*
X106500000Y-100400000D02*
X106500000Y-94300000D01*
X105018198Y-92818198D02*
X103985190Y-92818198D01*
X103320000Y-92153008D02*
X103320000Y-91667500D01*
X103985190Y-92818198D02*
X103320000Y-92153008D01*
X106500000Y-94300000D02*
X105018198Y-92818198D01*
X113912500Y-89412500D02*
X113912500Y-89900000D01*
X108670000Y-105060000D02*
X109500000Y-105060000D01*
X103500000Y-82800000D02*
X101820000Y-84480000D01*
X114200000Y-103700000D02*
X112840000Y-105060000D01*
X101820000Y-84480000D02*
X101820000Y-86792500D01*
X112840000Y-105060000D02*
X108670000Y-105060000D01*
X103630000Y-110100000D02*
X97025000Y-110100000D01*
X108670000Y-105060000D02*
X103630000Y-110100000D01*
X106400000Y-81900000D02*
X113912500Y-89412500D01*
X97025000Y-110100000D02*
X97000000Y-110125000D01*
X114200000Y-90150000D02*
X114200000Y-103700000D01*
X104507500Y-87980000D02*
X107980000Y-87980000D01*
X107980000Y-87980000D02*
X108000000Y-88000000D01*
X115100000Y-80312500D02*
X115100000Y-81700000D01*
X102820000Y-92520000D02*
X103700000Y-93400000D01*
X103700000Y-93400000D02*
X104600000Y-93400000D01*
X105700000Y-94500000D02*
X105700000Y-100300000D01*
X102820000Y-91667500D02*
X102820000Y-92520000D01*
X104600000Y-93400000D02*
X105700000Y-94500000D01*
X105700000Y-100300000D02*
X104800000Y-101200000D01*
X104800000Y-101200000D02*
X100950000Y-101200000D01*
X95400000Y-89200000D02*
X97120000Y-87480000D01*
X94300000Y-106800000D02*
X97400000Y-103700000D01*
X119500000Y-100000000D02*
X113265000Y-106235000D01*
X94300000Y-110600000D02*
X94300000Y-106800000D01*
X107600000Y-109100000D02*
X104300000Y-112400000D01*
X104300000Y-112400000D02*
X96100000Y-112400000D01*
X108665000Y-106235000D02*
X107600000Y-107300000D01*
X113265000Y-106235000D02*
X108665000Y-106235000D01*
X96100000Y-112400000D02*
X94300000Y-110600000D01*
X120500000Y-100000000D02*
X119500000Y-100000000D01*
X97120000Y-87480000D02*
X99632500Y-87480000D01*
X107600000Y-107300000D02*
X107600000Y-109100000D01*
X92000000Y-106200000D02*
X94500000Y-103700000D01*
X92000000Y-113400000D02*
X92000000Y-106200000D01*
X94500000Y-103700000D02*
X95600000Y-103700000D01*
X96500000Y-89224500D02*
X97744500Y-87980000D01*
X97744500Y-87980000D02*
X99632500Y-87980000D01*
X100000000Y-120300000D02*
X98900000Y-120300000D01*
X98900000Y-120300000D02*
X92000000Y-113400000D01*
X99900000Y-79400000D02*
X100820000Y-80320000D01*
X100820000Y-80320000D02*
X100820000Y-86792500D01*
X112100000Y-95575000D02*
X112100000Y-93575000D01*
X85830000Y-90480000D02*
X85650000Y-90300000D01*
X91450000Y-90480000D02*
X85830000Y-90480000D01*
X86050000Y-90700000D02*
X85650000Y-90300000D01*
X91450000Y-90480000D02*
X91400000Y-90530000D01*
X91450000Y-90480000D02*
X99632500Y-90480000D01*
X91400000Y-90530000D02*
X91400000Y-92050000D01*
X92987500Y-96162500D02*
X93350000Y-95800000D01*
X88500000Y-94350000D02*
X88500000Y-96112500D01*
X88550000Y-96162500D02*
X92987500Y-96162500D01*
X93350000Y-91700000D02*
X94070000Y-90980000D01*
X93350000Y-95800000D02*
X93350000Y-91700000D01*
X94070000Y-90980000D02*
X99632500Y-90980000D01*
X88500000Y-96112500D02*
X88550000Y-96162500D01*
X85650000Y-96162500D02*
X88550000Y-96162500D01*
X98087500Y-95322500D02*
X98615000Y-95850000D01*
X98087500Y-94100000D02*
X98087500Y-95322500D01*
X96300000Y-95365000D02*
X96785000Y-95850000D01*
X96300000Y-94112500D02*
X96300000Y-95365000D01*
X96185000Y-96950000D02*
X96785000Y-96950000D01*
X94600000Y-95365000D02*
X96185000Y-96950000D01*
X94600000Y-94112500D02*
X94600000Y-95365000D01*
X101820000Y-95007500D02*
X102300000Y-95487500D01*
X102300000Y-95487500D02*
X104600000Y-95487500D01*
X101820000Y-91667500D02*
X101820000Y-95007500D01*
X100127500Y-91475000D02*
X95412500Y-91475000D01*
X100320000Y-91667500D02*
X100127500Y-91475000D01*
X95412500Y-91475000D02*
X94600000Y-92287500D01*
X96712500Y-92700000D02*
X96300000Y-92287500D01*
X100273008Y-92700000D02*
X96712500Y-92700000D01*
X100820000Y-91667500D02*
X100820000Y-92153008D01*
X100820000Y-92153008D02*
X100273008Y-92700000D01*
X101320000Y-92692500D02*
X99912500Y-94100000D01*
X101320000Y-91667500D02*
X101320000Y-92692500D01*
X99812500Y-104712500D02*
X99600000Y-104500000D01*
X102320000Y-91667500D02*
X102320000Y-93320000D01*
X103255000Y-104712500D02*
X103600000Y-104367500D01*
X99600000Y-104500000D02*
X99700000Y-104600000D01*
X100900000Y-104712500D02*
X103255000Y-104712500D01*
X100900000Y-104712500D02*
X99812500Y-104712500D01*
X102320000Y-93320000D02*
X102900000Y-93900000D01*
X103732500Y-102067500D02*
X103732500Y-103100000D01*
X103732500Y-103100000D02*
X103600000Y-103232500D01*
X105087500Y-86900000D02*
X104507500Y-87480000D01*
X107400000Y-86900000D02*
X105087500Y-86900000D01*
X103800000Y-102000000D02*
X103732500Y-102067500D01*
X100900000Y-102887500D02*
X102200000Y-102900000D01*
X102200000Y-102900000D02*
X102187500Y-102887500D01*
X108400000Y-89900000D02*
X107980000Y-89480000D01*
X107980000Y-89480000D02*
X104507500Y-89480000D01*
G04 #@! TA.AperFunction,Conductor*
G36*
X77479233Y-109652212D02*
G01*
X77518262Y-109678588D01*
X83229442Y-115389768D01*
X83262927Y-115451091D01*
X83257943Y-115520783D01*
X83216071Y-115576716D01*
X83150607Y-115601133D01*
X83125863Y-115599585D01*
X83125813Y-115600097D01*
X83119751Y-115599500D01*
X83119748Y-115599500D01*
X82080252Y-115599500D01*
X82080247Y-115599500D01*
X82021770Y-115611131D01*
X82021769Y-115611132D01*
X81955447Y-115655447D01*
X81911132Y-115721769D01*
X81911131Y-115721770D01*
X81899500Y-115780247D01*
X81899500Y-117319752D01*
X81911131Y-117378229D01*
X81911132Y-117378230D01*
X81954855Y-117443666D01*
X81975733Y-117510344D01*
X81957248Y-117577724D01*
X81939434Y-117600238D01*
X81171684Y-118367988D01*
X81110361Y-118401473D01*
X81067818Y-118403246D01*
X81000001Y-118394318D01*
X80999999Y-118394318D01*
X80843239Y-118414955D01*
X80843237Y-118414956D01*
X80697160Y-118475463D01*
X80571718Y-118571718D01*
X80475463Y-118697160D01*
X80414956Y-118843237D01*
X80414955Y-118843239D01*
X80394318Y-118999998D01*
X80394318Y-119000001D01*
X80414955Y-119156760D01*
X80414956Y-119156762D01*
X80475464Y-119302841D01*
X80571718Y-119428282D01*
X80697159Y-119524536D01*
X80843238Y-119585044D01*
X80921618Y-119595362D01*
X80999999Y-119605682D01*
X81000000Y-119605682D01*
X81000001Y-119605682D01*
X81052253Y-119598802D01*
X81156762Y-119585044D01*
X81302841Y-119524536D01*
X81428282Y-119428282D01*
X81524536Y-119302841D01*
X81585044Y-119156762D01*
X81605682Y-119000000D01*
X81596753Y-118932179D01*
X81607518Y-118863145D01*
X81632008Y-118828316D01*
X82818204Y-117642120D01*
X82822166Y-117638489D01*
X82853194Y-117612455D01*
X82873444Y-117577379D01*
X82876332Y-117572846D01*
X82889969Y-117553371D01*
X82944548Y-117509750D01*
X82991541Y-117500500D01*
X83119750Y-117500500D01*
X83119751Y-117500499D01*
X83134568Y-117497552D01*
X83178229Y-117488868D01*
X83178229Y-117488867D01*
X83178231Y-117488867D01*
X83244552Y-117444552D01*
X83288867Y-117378231D01*
X83288867Y-117378229D01*
X83288868Y-117378229D01*
X83300499Y-117319752D01*
X83300500Y-117319750D01*
X83300500Y-115780249D01*
X83299903Y-115774187D01*
X83301690Y-115774010D01*
X83307152Y-115712859D01*
X83350005Y-115657674D01*
X83415890Y-115634417D01*
X83483890Y-115650473D01*
X83510231Y-115670557D01*
X90323922Y-122484248D01*
X90357407Y-122545571D01*
X90352423Y-122615263D01*
X90319780Y-122663565D01*
X90256129Y-122721590D01*
X90127632Y-122891746D01*
X90032596Y-123082605D01*
X90032596Y-123082607D01*
X89974244Y-123287689D01*
X89963471Y-123403951D01*
X89937685Y-123468888D01*
X89893130Y-123500804D01*
X89929503Y-123521668D01*
X89961693Y-123583681D01*
X89963471Y-123596048D01*
X89974244Y-123712310D01*
X90032596Y-123917392D01*
X90032596Y-123917394D01*
X90127632Y-124108253D01*
X90254139Y-124275773D01*
X90278831Y-124341134D01*
X90264266Y-124409469D01*
X90215069Y-124459081D01*
X90155185Y-124474500D01*
X89524815Y-124474500D01*
X89457776Y-124454815D01*
X89412021Y-124402011D01*
X89402077Y-124332853D01*
X89425861Y-124275773D01*
X89552366Y-124108255D01*
X89647405Y-123917389D01*
X89705756Y-123712310D01*
X89716529Y-123596047D01*
X89742315Y-123531111D01*
X89786869Y-123499194D01*
X89750497Y-123478331D01*
X89718307Y-123416318D01*
X89716529Y-123403951D01*
X89712936Y-123365174D01*
X89705756Y-123287690D01*
X89647405Y-123082611D01*
X89647403Y-123082606D01*
X89647403Y-123082605D01*
X89552367Y-122891746D01*
X89423872Y-122721593D01*
X89416830Y-122715173D01*
X89266302Y-122577948D01*
X89085019Y-122465702D01*
X89085017Y-122465701D01*
X88945638Y-122411706D01*
X88886198Y-122388679D01*
X88676610Y-122349500D01*
X88463390Y-122349500D01*
X88253802Y-122388679D01*
X88253799Y-122388679D01*
X88253799Y-122388680D01*
X88054982Y-122465701D01*
X88054980Y-122465702D01*
X87873699Y-122577947D01*
X87716127Y-122721593D01*
X87587632Y-122891746D01*
X87492596Y-123082605D01*
X87492596Y-123082607D01*
X87434244Y-123287689D01*
X87414570Y-123499999D01*
X87414570Y-123500000D01*
X87434244Y-123712310D01*
X87492596Y-123917392D01*
X87492596Y-123917394D01*
X87587632Y-124108253D01*
X87714139Y-124275773D01*
X87738831Y-124341134D01*
X87724266Y-124409469D01*
X87675069Y-124459081D01*
X87615185Y-124474500D01*
X84086188Y-124474500D01*
X84019149Y-124454815D01*
X83998507Y-124438181D01*
X82961819Y-123401492D01*
X82928334Y-123340169D01*
X82925500Y-123313811D01*
X82925500Y-122524500D01*
X82945185Y-122457461D01*
X82997989Y-122411706D01*
X83049500Y-122400500D01*
X83119750Y-122400500D01*
X83119751Y-122400499D01*
X83134568Y-122397552D01*
X83178229Y-122388868D01*
X83178229Y-122388867D01*
X83178231Y-122388867D01*
X83244552Y-122344552D01*
X83288867Y-122278231D01*
X83288867Y-122278229D01*
X83288868Y-122278229D01*
X83300499Y-122219752D01*
X83300500Y-122219750D01*
X83300500Y-120680249D01*
X83300499Y-120680247D01*
X83288868Y-120621770D01*
X83288867Y-120621769D01*
X83244552Y-120555447D01*
X83178230Y-120511132D01*
X83178229Y-120511131D01*
X83119752Y-120499500D01*
X83119748Y-120499500D01*
X82080252Y-120499500D01*
X82080247Y-120499500D01*
X82021770Y-120511131D01*
X82021769Y-120511132D01*
X81955447Y-120555447D01*
X81911132Y-120621769D01*
X81911131Y-120621770D01*
X81899500Y-120680247D01*
X81899500Y-122219752D01*
X81911131Y-122278229D01*
X81911132Y-122278230D01*
X81955447Y-122344552D01*
X82021769Y-122388867D01*
X82021770Y-122388868D01*
X82080247Y-122400499D01*
X82080250Y-122400500D01*
X82080252Y-122400500D01*
X82150500Y-122400500D01*
X82217539Y-122420185D01*
X82263294Y-122472989D01*
X82274500Y-122524500D01*
X82274500Y-123483078D01*
X82274264Y-123488485D01*
X82270735Y-123528808D01*
X82281212Y-123567910D01*
X82282383Y-123573190D01*
X82289411Y-123613043D01*
X82291235Y-123618055D01*
X82298197Y-123634861D01*
X82300445Y-123639681D01*
X82300446Y-123639684D01*
X82314452Y-123659687D01*
X82323655Y-123672831D01*
X82326561Y-123677392D01*
X82346806Y-123712455D01*
X82377815Y-123738475D01*
X82381805Y-123742131D01*
X83427493Y-124787819D01*
X83460978Y-124849142D01*
X83455994Y-124918834D01*
X83414122Y-124974767D01*
X83348658Y-124999184D01*
X83339812Y-124999500D01*
X77624500Y-124999500D01*
X77557461Y-124979815D01*
X77511706Y-124927011D01*
X77500500Y-124875500D01*
X77500500Y-122524759D01*
X77500528Y-122524616D01*
X77500524Y-122524616D01*
X77500539Y-122500002D01*
X77500541Y-122500000D01*
X77500462Y-122499808D01*
X77500384Y-122499618D01*
X77500383Y-122499617D01*
X77500381Y-122499616D01*
X77500090Y-122499496D01*
X77500001Y-122499459D01*
X77475446Y-122499459D01*
X77475240Y-122499500D01*
X75124500Y-122499500D01*
X75057461Y-122479815D01*
X75011706Y-122427011D01*
X75000500Y-122375500D01*
X75000500Y-115860187D01*
X75020185Y-115793148D01*
X75072989Y-115747393D01*
X75142147Y-115737449D01*
X75205703Y-115766474D01*
X75212166Y-115772492D01*
X75720525Y-116280851D01*
X76207863Y-116768189D01*
X76211518Y-116772178D01*
X76237541Y-116803190D01*
X76237543Y-116803191D01*
X76237545Y-116803194D01*
X76237547Y-116803195D01*
X76237548Y-116803196D01*
X76272599Y-116823433D01*
X76277162Y-116826339D01*
X76310316Y-116849554D01*
X76310319Y-116849554D01*
X76315176Y-116851820D01*
X76331933Y-116858760D01*
X76336950Y-116860586D01*
X76336952Y-116860586D01*
X76336955Y-116860588D01*
X76376818Y-116867616D01*
X76382076Y-116868782D01*
X76421193Y-116879264D01*
X76461518Y-116875735D01*
X76466922Y-116875500D01*
X78575500Y-116875500D01*
X78642539Y-116895185D01*
X78688294Y-116947989D01*
X78699500Y-116999500D01*
X78699500Y-117319752D01*
X78711131Y-117378229D01*
X78711132Y-117378230D01*
X78755447Y-117444552D01*
X78821769Y-117488867D01*
X78821770Y-117488868D01*
X78880247Y-117500499D01*
X78880250Y-117500500D01*
X78880252Y-117500500D01*
X79919750Y-117500500D01*
X79919751Y-117500499D01*
X79934568Y-117497552D01*
X79978229Y-117488868D01*
X79978229Y-117488867D01*
X79978231Y-117488867D01*
X80044552Y-117444552D01*
X80088867Y-117378231D01*
X80088867Y-117378229D01*
X80088868Y-117378229D01*
X80100499Y-117319752D01*
X80100500Y-117319750D01*
X80100500Y-115780249D01*
X80100499Y-115780247D01*
X80088868Y-115721770D01*
X80088867Y-115721769D01*
X80044552Y-115655447D01*
X79978230Y-115611132D01*
X79978229Y-115611131D01*
X79919752Y-115599500D01*
X79919748Y-115599500D01*
X78880252Y-115599500D01*
X78880247Y-115599500D01*
X78821770Y-115611131D01*
X78821769Y-115611132D01*
X78755447Y-115655447D01*
X78711132Y-115721769D01*
X78711131Y-115721770D01*
X78699500Y-115780247D01*
X78699500Y-116100500D01*
X78679815Y-116167539D01*
X78627011Y-116213294D01*
X78575500Y-116224500D01*
X76636188Y-116224500D01*
X76569149Y-116204815D01*
X76548507Y-116188181D01*
X75561819Y-115201493D01*
X75528334Y-115140170D01*
X75525500Y-115113812D01*
X75525500Y-112379273D01*
X75545185Y-112312234D01*
X75597989Y-112266479D01*
X75667147Y-112256535D01*
X75730703Y-112285560D01*
X75733022Y-112287622D01*
X75803698Y-112352052D01*
X75984981Y-112464298D01*
X76183802Y-112541321D01*
X76393390Y-112580500D01*
X76393392Y-112580500D01*
X76606608Y-112580500D01*
X76606610Y-112580500D01*
X76816198Y-112541321D01*
X77015019Y-112464298D01*
X77196302Y-112352052D01*
X77353872Y-112208407D01*
X77482366Y-112038255D01*
X77577405Y-111847389D01*
X77635756Y-111642310D01*
X77655429Y-111430000D01*
X77635756Y-111217690D01*
X77577405Y-111012611D01*
X77577403Y-111012606D01*
X77577403Y-111012605D01*
X77482367Y-110821746D01*
X77353872Y-110651593D01*
X77300546Y-110602980D01*
X77196302Y-110507948D01*
X77015019Y-110395702D01*
X77015017Y-110395701D01*
X76825240Y-110322182D01*
X76816198Y-110318679D01*
X76619385Y-110281888D01*
X76557106Y-110250221D01*
X76521833Y-110189908D01*
X76524767Y-110120100D01*
X76564976Y-110062960D01*
X76619384Y-110038111D01*
X76816198Y-110001321D01*
X77015019Y-109924298D01*
X77196302Y-109812052D01*
X77347045Y-109674630D01*
X77409846Y-109644015D01*
X77479233Y-109652212D01*
G37*
G04 #@! TD.AperFunction*
G04 #@! TA.AperFunction,Conductor*
G36*
X122612751Y-109650087D02*
G01*
X122652955Y-109674632D01*
X122785958Y-109795880D01*
X122803698Y-109812052D01*
X122984981Y-109924298D01*
X123183802Y-110001321D01*
X123380613Y-110038111D01*
X123442893Y-110069779D01*
X123478166Y-110130092D01*
X123475232Y-110199900D01*
X123435023Y-110257040D01*
X123380613Y-110281888D01*
X123183802Y-110318679D01*
X123183799Y-110318679D01*
X123183799Y-110318680D01*
X122984982Y-110395701D01*
X122984980Y-110395702D01*
X122803699Y-110507947D01*
X122646127Y-110651593D01*
X122517632Y-110821746D01*
X122422596Y-111012605D01*
X122422596Y-111012607D01*
X122364244Y-111217689D01*
X122344570Y-111429999D01*
X122344570Y-111430000D01*
X122364244Y-111642310D01*
X122422596Y-111847392D01*
X122422596Y-111847394D01*
X122517632Y-112038253D01*
X122542865Y-112071666D01*
X122646128Y-112208407D01*
X122803698Y-112352052D01*
X122984981Y-112464298D01*
X123183802Y-112541321D01*
X123393390Y-112580500D01*
X123393392Y-112580500D01*
X123606608Y-112580500D01*
X123606610Y-112580500D01*
X123816198Y-112541321D01*
X124015019Y-112464298D01*
X124196302Y-112352052D01*
X124266960Y-112287637D01*
X124329764Y-112257020D01*
X124399151Y-112265217D01*
X124453092Y-112309626D01*
X124474460Y-112376148D01*
X124474499Y-112379274D01*
X124474499Y-116213812D01*
X124454814Y-116280851D01*
X124438180Y-116301493D01*
X123701493Y-117038181D01*
X123640170Y-117071666D01*
X123613812Y-117074500D01*
X122524500Y-117074500D01*
X122457461Y-117054815D01*
X122411706Y-117002011D01*
X122400500Y-116950500D01*
X122400500Y-116880249D01*
X122400499Y-116880247D01*
X122388868Y-116821770D01*
X122388867Y-116821769D01*
X122344552Y-116755447D01*
X122278230Y-116711132D01*
X122278229Y-116711131D01*
X122219752Y-116699500D01*
X122219748Y-116699500D01*
X120680252Y-116699500D01*
X120680247Y-116699500D01*
X120621770Y-116711131D01*
X120621769Y-116711132D01*
X120555447Y-116755447D01*
X120511132Y-116821769D01*
X120511131Y-116821770D01*
X120499500Y-116880247D01*
X120499500Y-117919752D01*
X120511131Y-117978229D01*
X120511132Y-117978230D01*
X120555447Y-118044552D01*
X120621769Y-118088867D01*
X120621770Y-118088868D01*
X120680247Y-118100499D01*
X120680250Y-118100500D01*
X120680252Y-118100500D01*
X122219750Y-118100500D01*
X122219751Y-118100499D01*
X122234568Y-118097552D01*
X122278229Y-118088868D01*
X122278229Y-118088867D01*
X122278231Y-118088867D01*
X122344552Y-118044552D01*
X122388867Y-117978231D01*
X122388867Y-117978229D01*
X122388868Y-117978229D01*
X122400499Y-117919752D01*
X122400500Y-117919750D01*
X122400500Y-117849500D01*
X122420185Y-117782461D01*
X122472989Y-117736706D01*
X122524500Y-117725500D01*
X123783078Y-117725500D01*
X123788481Y-117725735D01*
X123828807Y-117729264D01*
X123867940Y-117718777D01*
X123873162Y-117717619D01*
X123913045Y-117710588D01*
X123913050Y-117710584D01*
X123918099Y-117708747D01*
X123934824Y-117701819D01*
X123939681Y-117699554D01*
X123939684Y-117699554D01*
X123972841Y-117676335D01*
X123977390Y-117673438D01*
X124012455Y-117653194D01*
X124038481Y-117622176D01*
X124042122Y-117618202D01*
X124787820Y-116872505D01*
X124849142Y-116839021D01*
X124918834Y-116844005D01*
X124974767Y-116885877D01*
X124999184Y-116951341D01*
X124999500Y-116960187D01*
X124999500Y-122375500D01*
X124979815Y-122442539D01*
X124927011Y-122488294D01*
X124875500Y-122499500D01*
X122524760Y-122499500D01*
X122524554Y-122499459D01*
X122499998Y-122499459D01*
X122499909Y-122499496D01*
X122499619Y-122499615D01*
X122499615Y-122499618D01*
X122499459Y-122499999D01*
X122499476Y-122524616D01*
X122499471Y-122524616D01*
X122499500Y-122524759D01*
X122499500Y-124875500D01*
X122479815Y-124942539D01*
X122427011Y-124988294D01*
X122375500Y-124999500D01*
X115160188Y-124999500D01*
X115093149Y-124979815D01*
X115047394Y-124927011D01*
X115037450Y-124857853D01*
X115066475Y-124794297D01*
X115072507Y-124787819D01*
X115458315Y-124402011D01*
X116768221Y-123092104D01*
X116772172Y-123088484D01*
X116803194Y-123062455D01*
X116823444Y-123027378D01*
X116826333Y-123022845D01*
X116849553Y-122989684D01*
X116849555Y-122989676D01*
X116851816Y-122984828D01*
X116858754Y-122968079D01*
X116860583Y-122963052D01*
X116860588Y-122963045D01*
X116867622Y-122923147D01*
X116868779Y-122917929D01*
X116879263Y-122878807D01*
X116875735Y-122838489D01*
X116875500Y-122833086D01*
X116875500Y-121424500D01*
X116895185Y-121357461D01*
X116947989Y-121311706D01*
X116999500Y-121300500D01*
X117319750Y-121300500D01*
X117319751Y-121300499D01*
X117334568Y-121297552D01*
X117378229Y-121288868D01*
X117378229Y-121288867D01*
X117378231Y-121288867D01*
X117444552Y-121244552D01*
X117488867Y-121178231D01*
X117488867Y-121178229D01*
X117488868Y-121178229D01*
X117500499Y-121119752D01*
X117500500Y-121119750D01*
X117500500Y-120080249D01*
X117500499Y-120080247D01*
X117488868Y-120021770D01*
X117488867Y-120021769D01*
X117444552Y-119955447D01*
X117378230Y-119911132D01*
X117378229Y-119911131D01*
X117319752Y-119899500D01*
X117319748Y-119899500D01*
X115780252Y-119899500D01*
X115780247Y-119899500D01*
X115721770Y-119911131D01*
X115721769Y-119911132D01*
X115655447Y-119955447D01*
X115611132Y-120021769D01*
X115611131Y-120021770D01*
X115599500Y-120080247D01*
X115599500Y-121119752D01*
X115611131Y-121178229D01*
X115611132Y-121178230D01*
X115655447Y-121244552D01*
X115721769Y-121288867D01*
X115721770Y-121288868D01*
X115780247Y-121300499D01*
X115780250Y-121300500D01*
X115780252Y-121300500D01*
X116100500Y-121300500D01*
X116167539Y-121320185D01*
X116213294Y-121372989D01*
X116224500Y-121424500D01*
X116224500Y-122663811D01*
X116204815Y-122730850D01*
X116188181Y-122751492D01*
X114501493Y-124438181D01*
X114440170Y-124471666D01*
X114413812Y-124474500D01*
X112384815Y-124474500D01*
X112317776Y-124454815D01*
X112272021Y-124402011D01*
X112262077Y-124332853D01*
X112285861Y-124275773D01*
X112412366Y-124108255D01*
X112507405Y-123917389D01*
X112565756Y-123712310D01*
X112585429Y-123500000D01*
X112565756Y-123287690D01*
X112507405Y-123082611D01*
X112507403Y-123082606D01*
X112507403Y-123082605D01*
X112412367Y-122891746D01*
X112283872Y-122721593D01*
X112276830Y-122715173D01*
X112126302Y-122577948D01*
X111945019Y-122465702D01*
X111945017Y-122465701D01*
X111805638Y-122411706D01*
X111746198Y-122388679D01*
X111536610Y-122349500D01*
X111323390Y-122349500D01*
X111113802Y-122388679D01*
X111113799Y-122388679D01*
X111113799Y-122388680D01*
X110914982Y-122465701D01*
X110914980Y-122465702D01*
X110733699Y-122577947D01*
X110576127Y-122721593D01*
X110447632Y-122891746D01*
X110352596Y-123082605D01*
X110352596Y-123082607D01*
X110294244Y-123287689D01*
X110283471Y-123403951D01*
X110257685Y-123468888D01*
X110213130Y-123500804D01*
X110249503Y-123521668D01*
X110281693Y-123583681D01*
X110283471Y-123596048D01*
X110294244Y-123712310D01*
X110352596Y-123917392D01*
X110352596Y-123917394D01*
X110447632Y-124108253D01*
X110574139Y-124275773D01*
X110598831Y-124341134D01*
X110584266Y-124409469D01*
X110535069Y-124459081D01*
X110475185Y-124474500D01*
X109844815Y-124474500D01*
X109777776Y-124454815D01*
X109732021Y-124402011D01*
X109722077Y-124332853D01*
X109745861Y-124275773D01*
X109872366Y-124108255D01*
X109967405Y-123917389D01*
X110025756Y-123712310D01*
X110036529Y-123596047D01*
X110062315Y-123531111D01*
X110106869Y-123499194D01*
X110070497Y-123478331D01*
X110038307Y-123416318D01*
X110036529Y-123403951D01*
X110032936Y-123365174D01*
X110025756Y-123287690D01*
X109967405Y-123082611D01*
X109967403Y-123082606D01*
X109967403Y-123082605D01*
X109872367Y-122891746D01*
X109828068Y-122833086D01*
X109743872Y-122721593D01*
X109743869Y-122721590D01*
X109743870Y-122721590D01*
X109680219Y-122663564D01*
X109643938Y-122603853D01*
X109645699Y-122534005D01*
X109676075Y-122484249D01*
X115389770Y-116770554D01*
X115451091Y-116737071D01*
X115520783Y-116742055D01*
X115576716Y-116783927D01*
X115601133Y-116849391D01*
X115599586Y-116874136D01*
X115600097Y-116874187D01*
X115599500Y-116880249D01*
X115599500Y-117919752D01*
X115611131Y-117978229D01*
X115611132Y-117978230D01*
X115655447Y-118044552D01*
X115721769Y-118088867D01*
X115721770Y-118088868D01*
X115780247Y-118100499D01*
X115780250Y-118100500D01*
X115780252Y-118100500D01*
X117319750Y-118100500D01*
X117319751Y-118100499D01*
X117334568Y-118097552D01*
X117378229Y-118088868D01*
X117378229Y-118088867D01*
X117378231Y-118088867D01*
X117444552Y-118044552D01*
X117456608Y-118026508D01*
X117510221Y-117981703D01*
X117579546Y-117972996D01*
X117642574Y-118003150D01*
X117647392Y-118007718D01*
X118467988Y-118828314D01*
X118501473Y-118889637D01*
X118503246Y-118932179D01*
X118494318Y-118999997D01*
X118494318Y-119000001D01*
X118514955Y-119156760D01*
X118514956Y-119156762D01*
X118575464Y-119302841D01*
X118671718Y-119428282D01*
X118797159Y-119524536D01*
X118943238Y-119585044D01*
X119021618Y-119595362D01*
X119099999Y-119605682D01*
X119100000Y-119605682D01*
X119100001Y-119605682D01*
X119152253Y-119598802D01*
X119256762Y-119585044D01*
X119402841Y-119524536D01*
X119528282Y-119428282D01*
X119624536Y-119302841D01*
X119685044Y-119156762D01*
X119705682Y-119000000D01*
X119685044Y-118843238D01*
X119624536Y-118697159D01*
X119528282Y-118571718D01*
X119402841Y-118475464D01*
X119256762Y-118414956D01*
X119256760Y-118414955D01*
X119100001Y-118394318D01*
X119099997Y-118394318D01*
X119032179Y-118403246D01*
X118963144Y-118392480D01*
X118928314Y-118367988D01*
X118342787Y-117782461D01*
X117742119Y-117181793D01*
X117738474Y-117177814D01*
X117712456Y-117146807D01*
X117712455Y-117146806D01*
X117701058Y-117140226D01*
X117677392Y-117126561D01*
X117672831Y-117123655D01*
X117659687Y-117114452D01*
X117639684Y-117100446D01*
X117639681Y-117100445D01*
X117634861Y-117098197D01*
X117618055Y-117091235D01*
X117613043Y-117089411D01*
X117602961Y-117087633D01*
X117540360Y-117056604D01*
X117504472Y-116996655D01*
X117500500Y-116965524D01*
X117500500Y-116880252D01*
X117499294Y-116874187D01*
X117488868Y-116821770D01*
X117488867Y-116821769D01*
X117444552Y-116755447D01*
X117378230Y-116711132D01*
X117378229Y-116711131D01*
X117319752Y-116699500D01*
X117319748Y-116699500D01*
X115780252Y-116699500D01*
X115780249Y-116699500D01*
X115774187Y-116700097D01*
X115774011Y-116698316D01*
X115712823Y-116692833D01*
X115657651Y-116649964D01*
X115634414Y-116584071D01*
X115650490Y-116516076D01*
X115670552Y-116489772D01*
X122481738Y-109678586D01*
X122543059Y-109645103D01*
X122612751Y-109650087D01*
G37*
G04 #@! TD.AperFunction*
G04 #@! TA.AperFunction,Conductor*
G36*
X122442539Y-75020185D02*
G01*
X122488294Y-75072989D01*
X122499500Y-75124500D01*
X122499500Y-77475467D01*
X122499416Y-77475889D01*
X122499459Y-77500001D01*
X122499544Y-77500206D01*
X122499616Y-77500382D01*
X122499618Y-77500384D01*
X122499808Y-77500462D01*
X122500000Y-77500541D01*
X122500002Y-77500539D01*
X122524616Y-77500524D01*
X122524616Y-77500528D01*
X122524760Y-77500500D01*
X124875500Y-77500500D01*
X124942539Y-77520185D01*
X124988294Y-77572989D01*
X124999500Y-77624500D01*
X124999500Y-85239811D01*
X124979815Y-85306850D01*
X124927011Y-85352605D01*
X124857853Y-85362549D01*
X124794297Y-85333524D01*
X124787819Y-85327492D01*
X124289856Y-84829529D01*
X122692119Y-83231793D01*
X122688474Y-83227814D01*
X122662456Y-83196807D01*
X122662455Y-83196806D01*
X122651058Y-83190226D01*
X122627392Y-83176561D01*
X122622831Y-83173655D01*
X122609687Y-83164452D01*
X122589684Y-83150446D01*
X122589681Y-83150445D01*
X122584861Y-83148197D01*
X122568055Y-83141235D01*
X122563043Y-83139411D01*
X122523190Y-83132383D01*
X122517910Y-83131212D01*
X122478808Y-83120735D01*
X122443892Y-83123790D01*
X122438481Y-83124264D01*
X122433078Y-83124500D01*
X121424500Y-83124500D01*
X121357461Y-83104815D01*
X121311706Y-83052011D01*
X121300500Y-83000500D01*
X121300500Y-82680249D01*
X121300499Y-82680247D01*
X121288868Y-82621770D01*
X121288867Y-82621769D01*
X121244552Y-82555447D01*
X121178230Y-82511132D01*
X121178229Y-82511131D01*
X121119752Y-82499500D01*
X121119748Y-82499500D01*
X120080252Y-82499500D01*
X120080247Y-82499500D01*
X120021770Y-82511131D01*
X120021769Y-82511132D01*
X119955447Y-82555447D01*
X119911132Y-82621769D01*
X119911131Y-82621770D01*
X119899500Y-82680247D01*
X119899500Y-84219752D01*
X119911131Y-84278229D01*
X119911132Y-84278230D01*
X119955447Y-84344552D01*
X120021769Y-84388867D01*
X120021770Y-84388868D01*
X120080247Y-84400499D01*
X120080250Y-84400500D01*
X120080252Y-84400500D01*
X121119750Y-84400500D01*
X121119751Y-84400499D01*
X121134568Y-84397552D01*
X121178229Y-84388868D01*
X121178229Y-84388867D01*
X121178231Y-84388867D01*
X121244552Y-84344552D01*
X121288867Y-84278231D01*
X121288867Y-84278229D01*
X121288868Y-84278229D01*
X121300499Y-84219752D01*
X121300500Y-84219750D01*
X121300500Y-83899500D01*
X121320185Y-83832461D01*
X121372989Y-83786706D01*
X121424500Y-83775500D01*
X122263812Y-83775500D01*
X122330851Y-83795185D01*
X122351493Y-83811819D01*
X124438180Y-85898506D01*
X124471665Y-85959829D01*
X124474499Y-85986187D01*
X124474499Y-87620725D01*
X124454814Y-87687764D01*
X124402010Y-87733519D01*
X124332852Y-87743463D01*
X124269296Y-87714438D01*
X124266961Y-87712362D01*
X124196303Y-87647949D01*
X124196302Y-87647948D01*
X124015019Y-87535702D01*
X124015017Y-87535701D01*
X123854910Y-87473676D01*
X123816198Y-87458679D01*
X123606610Y-87419500D01*
X123393390Y-87419500D01*
X123183802Y-87458679D01*
X123183799Y-87458679D01*
X123183799Y-87458680D01*
X122984982Y-87535701D01*
X122984980Y-87535702D01*
X122803699Y-87647947D01*
X122646127Y-87791593D01*
X122517632Y-87961746D01*
X122422596Y-88152605D01*
X122422596Y-88152607D01*
X122364244Y-88357689D01*
X122344570Y-88569999D01*
X122344570Y-88570000D01*
X122364244Y-88782310D01*
X122422596Y-88987392D01*
X122422596Y-88987394D01*
X122517632Y-89178253D01*
X122642225Y-89343239D01*
X122646128Y-89348407D01*
X122803698Y-89492052D01*
X122984981Y-89604298D01*
X123183802Y-89681321D01*
X123380613Y-89718111D01*
X123442893Y-89749779D01*
X123478166Y-89810092D01*
X123475232Y-89879900D01*
X123435023Y-89937040D01*
X123380613Y-89961888D01*
X123183802Y-89998679D01*
X123183799Y-89998679D01*
X123183799Y-89998680D01*
X122984982Y-90075701D01*
X122984980Y-90075702D01*
X122803699Y-90187947D01*
X122705267Y-90277679D01*
X122642462Y-90308295D01*
X122573075Y-90300097D01*
X122534048Y-90273722D01*
X116872507Y-84612181D01*
X116839022Y-84550858D01*
X116844006Y-84481166D01*
X116885878Y-84425233D01*
X116951342Y-84400816D01*
X116960188Y-84400500D01*
X117919750Y-84400500D01*
X117919751Y-84400499D01*
X117934568Y-84397552D01*
X117978229Y-84388868D01*
X117978229Y-84388867D01*
X117978231Y-84388867D01*
X118044552Y-84344552D01*
X118088867Y-84278231D01*
X118088867Y-84278229D01*
X118088868Y-84278229D01*
X118100499Y-84219752D01*
X118100500Y-84219750D01*
X118100500Y-82680249D01*
X118100499Y-82680247D01*
X118088868Y-82621770D01*
X118088867Y-82621769D01*
X118044551Y-82555446D01*
X118044550Y-82555445D01*
X118026506Y-82543388D01*
X117981702Y-82489775D01*
X117972996Y-82420450D01*
X118003152Y-82357423D01*
X118007702Y-82352623D01*
X118828315Y-81532009D01*
X118889636Y-81498526D01*
X118932180Y-81496753D01*
X118999999Y-81505682D01*
X119000000Y-81505682D01*
X119000001Y-81505682D01*
X119052253Y-81498802D01*
X119156762Y-81485044D01*
X119302841Y-81424536D01*
X119428282Y-81328282D01*
X119524536Y-81202841D01*
X119585044Y-81056762D01*
X119605682Y-80900000D01*
X119602484Y-80875711D01*
X119585044Y-80743239D01*
X119585044Y-80743238D01*
X119524536Y-80597159D01*
X119428282Y-80471718D01*
X119302841Y-80375464D01*
X119156762Y-80314956D01*
X119156760Y-80314955D01*
X119000001Y-80294318D01*
X118999999Y-80294318D01*
X118843239Y-80314955D01*
X118843237Y-80314956D01*
X118697160Y-80375463D01*
X118571718Y-80471718D01*
X118475463Y-80597160D01*
X118414956Y-80743237D01*
X118414955Y-80743239D01*
X118394318Y-80899998D01*
X118394318Y-80900001D01*
X118403246Y-80967818D01*
X118392480Y-81036853D01*
X118367988Y-81071684D01*
X117181803Y-82257870D01*
X117177814Y-82261525D01*
X117146805Y-82287545D01*
X117126562Y-82322606D01*
X117123656Y-82327166D01*
X117100446Y-82360313D01*
X117098206Y-82365117D01*
X117091229Y-82381961D01*
X117089411Y-82386956D01*
X117087635Y-82397033D01*
X117056608Y-82459636D01*
X116996661Y-82495526D01*
X116965519Y-82499500D01*
X116880247Y-82499500D01*
X116821770Y-82511131D01*
X116821769Y-82511132D01*
X116755447Y-82555447D01*
X116711132Y-82621769D01*
X116711131Y-82621770D01*
X116699500Y-82680247D01*
X116699500Y-84139812D01*
X116679815Y-84206851D01*
X116627011Y-84252606D01*
X116557853Y-84262550D01*
X116494297Y-84233525D01*
X116487819Y-84227493D01*
X114704837Y-82444511D01*
X114671352Y-82383188D01*
X114676336Y-82313496D01*
X114718208Y-82257563D01*
X114783672Y-82233146D01*
X114839969Y-82242268D01*
X114943238Y-82285044D01*
X114990218Y-82291229D01*
X115099999Y-82305682D01*
X115100000Y-82305682D01*
X115100001Y-82305682D01*
X115168362Y-82296682D01*
X115256762Y-82285044D01*
X115402841Y-82224536D01*
X115528282Y-82128282D01*
X115624536Y-82002841D01*
X115685044Y-81856762D01*
X115705682Y-81700000D01*
X115685044Y-81543238D01*
X115624536Y-81397159D01*
X115528282Y-81271718D01*
X115528279Y-81271716D01*
X115528278Y-81271714D01*
X115474012Y-81230074D01*
X115432810Y-81173646D01*
X115425499Y-81131702D01*
X115425499Y-81083728D01*
X115445184Y-81016691D01*
X115497988Y-80970936D01*
X115508546Y-80966688D01*
X115544472Y-80954117D01*
X115544471Y-80954117D01*
X115544475Y-80954116D01*
X115650711Y-80875711D01*
X115729116Y-80769475D01*
X115772725Y-80644849D01*
X115775500Y-80615256D01*
X115775500Y-80009744D01*
X115775291Y-80007518D01*
X115772725Y-79980150D01*
X115729115Y-79855523D01*
X115650711Y-79749289D01*
X115650710Y-79749288D01*
X115544476Y-79670884D01*
X115419848Y-79627274D01*
X115419849Y-79627274D01*
X115390260Y-79624500D01*
X115390256Y-79624500D01*
X114809744Y-79624500D01*
X114809740Y-79624500D01*
X114780150Y-79627274D01*
X114655523Y-79670884D01*
X114549289Y-79749288D01*
X114549288Y-79749289D01*
X114470884Y-79855523D01*
X114427274Y-79980150D01*
X114424500Y-80009739D01*
X114424500Y-80615260D01*
X114427274Y-80644849D01*
X114470884Y-80769476D01*
X114549288Y-80875710D01*
X114549289Y-80875711D01*
X114655522Y-80954114D01*
X114655525Y-80954116D01*
X114691454Y-80966688D01*
X114748230Y-81007410D01*
X114773978Y-81072362D01*
X114774500Y-81083733D01*
X114774499Y-81131702D01*
X114754813Y-81198741D01*
X114725987Y-81230073D01*
X114671722Y-81271713D01*
X114671718Y-81271717D01*
X114671718Y-81271718D01*
X114638541Y-81314955D01*
X114575463Y-81397160D01*
X114514956Y-81543237D01*
X114514955Y-81543239D01*
X114494318Y-81699998D01*
X114494318Y-81700001D01*
X114514955Y-81856760D01*
X114514957Y-81856765D01*
X114557730Y-81960029D01*
X114565199Y-82029498D01*
X114533924Y-82091977D01*
X114473835Y-82127629D01*
X114404009Y-82125135D01*
X114355488Y-82095162D01*
X111050586Y-78790260D01*
X114424500Y-78790260D01*
X114427274Y-78819849D01*
X114470884Y-78944476D01*
X114549288Y-79050710D01*
X114549289Y-79050711D01*
X114655523Y-79129115D01*
X114655524Y-79129115D01*
X114655525Y-79129116D01*
X114780151Y-79172725D01*
X114780150Y-79172725D01*
X114809740Y-79175500D01*
X114809744Y-79175500D01*
X115390260Y-79175500D01*
X115419849Y-79172725D01*
X115419848Y-79172725D01*
X115544475Y-79129116D01*
X115650711Y-79050711D01*
X115729116Y-78944475D01*
X115746062Y-78896044D01*
X115786785Y-78839269D01*
X115851738Y-78813522D01*
X115863104Y-78813000D01*
X116575500Y-78813000D01*
X116642539Y-78832685D01*
X116688294Y-78885489D01*
X116699500Y-78937000D01*
X116699500Y-79319752D01*
X116711131Y-79378229D01*
X116711132Y-79378230D01*
X116755447Y-79444552D01*
X116821769Y-79488867D01*
X116821770Y-79488868D01*
X116880247Y-79500499D01*
X116880250Y-79500500D01*
X116880252Y-79500500D01*
X117919750Y-79500500D01*
X117919751Y-79500499D01*
X117934568Y-79497552D01*
X117978229Y-79488868D01*
X117978229Y-79488867D01*
X117978231Y-79488867D01*
X118044552Y-79444552D01*
X118088867Y-79378231D01*
X118088867Y-79378229D01*
X118088868Y-79378229D01*
X118100499Y-79319752D01*
X118100500Y-79319750D01*
X118100500Y-77780249D01*
X118100499Y-77780247D01*
X118088868Y-77721770D01*
X118088867Y-77721769D01*
X118044552Y-77655447D01*
X117978230Y-77611132D01*
X117978229Y-77611131D01*
X117919752Y-77599500D01*
X117919748Y-77599500D01*
X116880252Y-77599500D01*
X116880247Y-77599500D01*
X116821770Y-77611131D01*
X116821769Y-77611132D01*
X116755447Y-77655447D01*
X116711132Y-77721769D01*
X116711131Y-77721770D01*
X116699500Y-77780247D01*
X116699500Y-78038000D01*
X116679815Y-78105039D01*
X116627011Y-78150794D01*
X116575500Y-78162000D01*
X115863104Y-78162000D01*
X115796065Y-78142315D01*
X115750310Y-78089511D01*
X115746063Y-78078956D01*
X115742676Y-78069276D01*
X115729116Y-78030525D01*
X115650711Y-77924289D01*
X115650710Y-77924288D01*
X115544476Y-77845884D01*
X115419848Y-77802274D01*
X115419849Y-77802274D01*
X115390260Y-77799500D01*
X115390256Y-77799500D01*
X114809744Y-77799500D01*
X114809740Y-77799500D01*
X114780150Y-77802274D01*
X114655523Y-77845884D01*
X114549289Y-77924288D01*
X114549288Y-77924289D01*
X114470884Y-78030523D01*
X114427274Y-78155150D01*
X114424500Y-78184739D01*
X114424500Y-78790260D01*
X111050586Y-78790260D01*
X109728389Y-77468063D01*
X109694904Y-77406740D01*
X109699888Y-77337048D01*
X109732533Y-77288744D01*
X109734938Y-77286551D01*
X109743872Y-77278407D01*
X109872366Y-77108255D01*
X109916768Y-77019083D01*
X109967403Y-76917394D01*
X109967403Y-76917393D01*
X109967405Y-76917389D01*
X110025756Y-76712310D01*
X110036529Y-76596047D01*
X110062315Y-76531111D01*
X110104622Y-76500804D01*
X110213130Y-76500804D01*
X110249503Y-76521668D01*
X110281693Y-76583681D01*
X110283470Y-76596047D01*
X110294244Y-76712310D01*
X110352594Y-76917387D01*
X110352596Y-76917392D01*
X110352596Y-76917394D01*
X110447632Y-77108253D01*
X110447634Y-77108255D01*
X110576128Y-77278407D01*
X110733698Y-77422052D01*
X110914981Y-77534298D01*
X111113802Y-77611321D01*
X111323390Y-77650500D01*
X111323392Y-77650500D01*
X111536608Y-77650500D01*
X111536610Y-77650500D01*
X111746198Y-77611321D01*
X111945019Y-77534298D01*
X112126302Y-77422052D01*
X112283872Y-77278407D01*
X112412366Y-77108255D01*
X112456768Y-77019083D01*
X112507403Y-76917394D01*
X112507403Y-76917393D01*
X112507405Y-76917389D01*
X112565756Y-76712310D01*
X112585429Y-76500000D01*
X112565756Y-76287690D01*
X112507405Y-76082611D01*
X112507403Y-76082606D01*
X112507403Y-76082605D01*
X112412367Y-75891746D01*
X112283872Y-75721593D01*
X112126302Y-75577948D01*
X111945019Y-75465702D01*
X111945017Y-75465701D01*
X111845608Y-75427190D01*
X111746198Y-75388679D01*
X111536610Y-75349500D01*
X111323390Y-75349500D01*
X111113802Y-75388679D01*
X111113799Y-75388679D01*
X111113799Y-75388680D01*
X110914982Y-75465701D01*
X110914980Y-75465702D01*
X110733699Y-75577947D01*
X110576127Y-75721593D01*
X110447632Y-75891746D01*
X110352596Y-76082605D01*
X110352596Y-76082607D01*
X110294244Y-76287689D01*
X110283471Y-76403951D01*
X110257685Y-76468888D01*
X110213130Y-76500804D01*
X110104622Y-76500804D01*
X110106869Y-76499194D01*
X110070497Y-76478331D01*
X110038307Y-76416318D01*
X110036529Y-76403951D01*
X110035849Y-76396613D01*
X110025756Y-76287690D01*
X109967405Y-76082611D01*
X109967403Y-76082606D01*
X109967403Y-76082605D01*
X109872367Y-75891746D01*
X109743872Y-75721593D01*
X109586302Y-75577948D01*
X109405019Y-75465702D01*
X109405017Y-75465701D01*
X109305608Y-75427190D01*
X109206198Y-75388679D01*
X108996610Y-75349500D01*
X108783390Y-75349500D01*
X108573802Y-75388679D01*
X108573799Y-75388679D01*
X108573799Y-75388680D01*
X108374982Y-75465701D01*
X108374980Y-75465702D01*
X108193699Y-75577947D01*
X108036127Y-75721593D01*
X107907632Y-75891746D01*
X107812596Y-76082605D01*
X107812596Y-76082607D01*
X107754244Y-76287689D01*
X107743471Y-76403951D01*
X107717685Y-76468888D01*
X107673130Y-76500804D01*
X107709503Y-76521668D01*
X107741693Y-76583681D01*
X107743470Y-76596047D01*
X107754244Y-76712310D01*
X107812594Y-76917387D01*
X107812596Y-76917392D01*
X107812596Y-76917394D01*
X107907632Y-77108253D01*
X107907634Y-77108255D01*
X108036128Y-77278407D01*
X108193698Y-77422052D01*
X108374981Y-77534298D01*
X108573802Y-77611321D01*
X108783390Y-77650500D01*
X108938812Y-77650500D01*
X109005851Y-77670185D01*
X109026493Y-77686819D01*
X122312323Y-90972649D01*
X122345808Y-91033972D01*
X122348113Y-91071770D01*
X122344571Y-91109997D01*
X122344570Y-91110000D01*
X122364244Y-91322310D01*
X122422596Y-91527392D01*
X122422596Y-91527394D01*
X122517632Y-91718253D01*
X122646127Y-91888406D01*
X122646128Y-91888407D01*
X122803698Y-92032052D01*
X122984981Y-92144298D01*
X123183802Y-92221321D01*
X123380613Y-92258111D01*
X123442893Y-92289779D01*
X123478166Y-92350092D01*
X123475232Y-92419900D01*
X123435023Y-92477040D01*
X123380613Y-92501888D01*
X123285539Y-92519661D01*
X123183796Y-92538680D01*
X123053868Y-92589014D01*
X122984245Y-92594875D01*
X122922505Y-92562165D01*
X122921394Y-92561068D01*
X107440732Y-77080406D01*
X107407247Y-77019083D01*
X107412231Y-76949391D01*
X107417402Y-76937475D01*
X107427405Y-76917389D01*
X107485756Y-76712310D01*
X107496529Y-76596047D01*
X107522315Y-76531111D01*
X107566869Y-76499194D01*
X107530497Y-76478331D01*
X107498307Y-76416318D01*
X107496529Y-76403951D01*
X107495849Y-76396613D01*
X107485756Y-76287690D01*
X107427405Y-76082611D01*
X107427403Y-76082606D01*
X107427403Y-76082605D01*
X107332367Y-75891746D01*
X107203872Y-75721593D01*
X107046302Y-75577948D01*
X106865019Y-75465702D01*
X106865017Y-75465701D01*
X106765608Y-75427190D01*
X106666198Y-75388679D01*
X106456610Y-75349500D01*
X106243390Y-75349500D01*
X106033802Y-75388679D01*
X106033799Y-75388679D01*
X106033799Y-75388680D01*
X105834982Y-75465701D01*
X105834980Y-75465702D01*
X105653699Y-75577947D01*
X105496127Y-75721593D01*
X105367632Y-75891746D01*
X105272596Y-76082605D01*
X105272596Y-76082607D01*
X105214244Y-76287689D01*
X105203471Y-76403951D01*
X105177685Y-76468888D01*
X105133130Y-76500804D01*
X105169503Y-76521668D01*
X105201693Y-76583681D01*
X105203470Y-76596047D01*
X105214244Y-76712310D01*
X105272594Y-76917387D01*
X105272596Y-76917392D01*
X105272596Y-76917394D01*
X105367632Y-77108253D01*
X105367634Y-77108255D01*
X105496128Y-77278407D01*
X105653698Y-77422052D01*
X105834981Y-77534298D01*
X106033802Y-77611321D01*
X106243390Y-77650500D01*
X106243392Y-77650500D01*
X106456608Y-77650500D01*
X106456610Y-77650500D01*
X106666198Y-77611321D01*
X106865019Y-77534298D01*
X106865023Y-77534295D01*
X106868207Y-77533062D01*
X106937830Y-77527200D01*
X106999570Y-77559910D01*
X107000682Y-77561008D01*
X122442507Y-93002833D01*
X122475992Y-93064156D01*
X122471008Y-93133848D01*
X122465828Y-93145783D01*
X122422595Y-93232610D01*
X122364244Y-93437689D01*
X122344570Y-93649999D01*
X122344570Y-93650000D01*
X122359373Y-93809744D01*
X122364244Y-93862310D01*
X122412028Y-94030252D01*
X122422596Y-94067392D01*
X122422596Y-94067394D01*
X122517632Y-94258253D01*
X122646127Y-94428406D01*
X122646128Y-94428407D01*
X122803698Y-94572052D01*
X122984981Y-94684298D01*
X123183802Y-94761321D01*
X123380613Y-94798111D01*
X123442893Y-94829779D01*
X123478166Y-94890092D01*
X123475232Y-94959900D01*
X123435023Y-95017040D01*
X123380613Y-95041888D01*
X123183802Y-95078679D01*
X123183799Y-95078679D01*
X123183799Y-95078680D01*
X122984982Y-95155701D01*
X122984980Y-95155702D01*
X122803699Y-95267947D01*
X122646127Y-95411593D01*
X122517632Y-95581746D01*
X122422596Y-95772605D01*
X122422596Y-95772607D01*
X122364244Y-95977689D01*
X122344570Y-96189999D01*
X122344570Y-96190000D01*
X122362998Y-96388867D01*
X122364244Y-96402310D01*
X122396380Y-96515256D01*
X122422596Y-96607392D01*
X122422596Y-96607394D01*
X122517632Y-96798253D01*
X122626960Y-96943025D01*
X122646128Y-96968407D01*
X122803698Y-97112052D01*
X122984981Y-97224298D01*
X123183802Y-97301321D01*
X123393390Y-97340500D01*
X123393392Y-97340500D01*
X123606608Y-97340500D01*
X123606610Y-97340500D01*
X123816198Y-97301321D01*
X124015019Y-97224298D01*
X124196302Y-97112052D01*
X124266960Y-97047637D01*
X124329764Y-97017020D01*
X124399151Y-97025217D01*
X124453092Y-97069626D01*
X124474460Y-97136148D01*
X124474499Y-97139274D01*
X124474499Y-102860725D01*
X124454814Y-102927764D01*
X124402010Y-102973519D01*
X124332852Y-102983463D01*
X124269296Y-102954438D01*
X124266961Y-102952362D01*
X124196303Y-102887949D01*
X124196302Y-102887948D01*
X124015019Y-102775702D01*
X124015017Y-102775701D01*
X123886547Y-102725932D01*
X123816198Y-102698679D01*
X123606610Y-102659500D01*
X123393390Y-102659500D01*
X123183802Y-102698679D01*
X123183799Y-102698679D01*
X123183799Y-102698680D01*
X122984982Y-102775701D01*
X122984980Y-102775702D01*
X122803699Y-102887947D01*
X122646127Y-103031593D01*
X122517632Y-103201746D01*
X122422596Y-103392605D01*
X122422596Y-103392607D01*
X122364244Y-103597689D01*
X122344570Y-103809999D01*
X122344570Y-103810000D01*
X122364244Y-104022310D01*
X122422596Y-104227392D01*
X122422596Y-104227394D01*
X122517632Y-104418253D01*
X122579366Y-104500001D01*
X122646128Y-104588407D01*
X122803698Y-104732052D01*
X122984981Y-104844298D01*
X123183802Y-104921321D01*
X123380613Y-104958111D01*
X123442893Y-104989779D01*
X123478166Y-105050092D01*
X123475232Y-105119900D01*
X123435023Y-105177040D01*
X123380613Y-105201888D01*
X123183802Y-105238679D01*
X123183799Y-105238679D01*
X123183799Y-105238680D01*
X122984982Y-105315701D01*
X122984980Y-105315702D01*
X122803699Y-105427947D01*
X122646127Y-105571593D01*
X122517632Y-105741746D01*
X122422596Y-105932605D01*
X122422596Y-105932607D01*
X122364244Y-106137689D01*
X122344570Y-106349999D01*
X122344570Y-106350000D01*
X122363345Y-106552613D01*
X122364244Y-106562310D01*
X122422595Y-106767389D01*
X122449207Y-106820835D01*
X122461467Y-106889619D01*
X122434594Y-106954113D01*
X122425887Y-106963785D01*
X106964643Y-122425029D01*
X106903320Y-122458514D01*
X106833628Y-122453530D01*
X106832169Y-122452975D01*
X106666202Y-122388680D01*
X106666199Y-122388679D01*
X106666198Y-122388679D01*
X106456610Y-122349500D01*
X106243390Y-122349500D01*
X106033802Y-122388679D01*
X106033799Y-122388679D01*
X106033799Y-122388680D01*
X105834982Y-122465701D01*
X105834980Y-122465702D01*
X105653699Y-122577947D01*
X105496127Y-122721593D01*
X105367632Y-122891746D01*
X105272596Y-123082605D01*
X105272596Y-123082607D01*
X105214244Y-123287689D01*
X105203471Y-123403951D01*
X105177685Y-123468888D01*
X105133130Y-123500804D01*
X105169503Y-123521668D01*
X105201693Y-123583681D01*
X105203471Y-123596048D01*
X105214244Y-123712310D01*
X105272596Y-123917392D01*
X105272596Y-123917394D01*
X105367632Y-124108253D01*
X105494139Y-124275773D01*
X105518831Y-124341134D01*
X105504266Y-124409469D01*
X105455069Y-124459081D01*
X105395185Y-124474500D01*
X104764815Y-124474500D01*
X104697776Y-124454815D01*
X104652021Y-124402011D01*
X104642077Y-124332853D01*
X104665861Y-124275773D01*
X104792366Y-124108255D01*
X104887405Y-123917389D01*
X104945756Y-123712310D01*
X104956529Y-123596047D01*
X104982315Y-123531111D01*
X105026869Y-123499194D01*
X104990497Y-123478331D01*
X104958307Y-123416318D01*
X104956529Y-123403951D01*
X104952936Y-123365174D01*
X104945756Y-123287690D01*
X104887405Y-123082611D01*
X104887403Y-123082606D01*
X104887403Y-123082605D01*
X104792367Y-122891746D01*
X104663872Y-122721593D01*
X104656830Y-122715173D01*
X104506302Y-122577948D01*
X104325019Y-122465702D01*
X104325017Y-122465701D01*
X104185638Y-122411706D01*
X104126198Y-122388679D01*
X103916610Y-122349500D01*
X103703390Y-122349500D01*
X103493802Y-122388679D01*
X103493799Y-122388679D01*
X103493799Y-122388680D01*
X103294982Y-122465701D01*
X103294980Y-122465702D01*
X103113699Y-122577947D01*
X102956127Y-122721593D01*
X102827632Y-122891746D01*
X102732596Y-123082605D01*
X102732596Y-123082607D01*
X102674244Y-123287689D01*
X102654570Y-123499999D01*
X102654570Y-123500000D01*
X102674244Y-123712310D01*
X102732596Y-123917392D01*
X102732596Y-123917394D01*
X102827632Y-124108253D01*
X102954139Y-124275773D01*
X102978831Y-124341134D01*
X102964266Y-124409469D01*
X102915069Y-124459081D01*
X102855185Y-124474500D01*
X97144815Y-124474500D01*
X97077776Y-124454815D01*
X97032021Y-124402011D01*
X97022077Y-124332853D01*
X97045861Y-124275773D01*
X97172366Y-124108255D01*
X97267405Y-123917389D01*
X97325756Y-123712310D01*
X97345429Y-123500000D01*
X97325756Y-123287690D01*
X97267405Y-123082611D01*
X97267403Y-123082606D01*
X97267403Y-123082605D01*
X97172367Y-122891746D01*
X97043872Y-122721593D01*
X97036830Y-122715173D01*
X96886302Y-122577948D01*
X96705019Y-122465702D01*
X96705017Y-122465701D01*
X96565638Y-122411706D01*
X96506198Y-122388679D01*
X96296610Y-122349500D01*
X96083390Y-122349500D01*
X95873802Y-122388679D01*
X95873799Y-122388679D01*
X95873799Y-122388680D01*
X95674982Y-122465701D01*
X95674980Y-122465702D01*
X95493699Y-122577947D01*
X95336127Y-122721593D01*
X95207632Y-122891746D01*
X95112596Y-123082605D01*
X95112596Y-123082607D01*
X95054244Y-123287689D01*
X95043471Y-123403951D01*
X95017685Y-123468888D01*
X94973130Y-123500804D01*
X95009503Y-123521668D01*
X95041693Y-123583681D01*
X95043471Y-123596048D01*
X95054244Y-123712310D01*
X95112596Y-123917392D01*
X95112596Y-123917394D01*
X95207632Y-124108253D01*
X95334139Y-124275773D01*
X95358831Y-124341134D01*
X95344266Y-124409469D01*
X95295069Y-124459081D01*
X95235185Y-124474500D01*
X94604815Y-124474500D01*
X94537776Y-124454815D01*
X94492021Y-124402011D01*
X94482077Y-124332853D01*
X94505861Y-124275773D01*
X94632366Y-124108255D01*
X94727405Y-123917389D01*
X94785756Y-123712310D01*
X94796529Y-123596047D01*
X94822315Y-123531111D01*
X94866869Y-123499194D01*
X94830497Y-123478331D01*
X94798307Y-123416318D01*
X94796529Y-123403951D01*
X94792936Y-123365174D01*
X94785756Y-123287690D01*
X94727405Y-123082611D01*
X94727403Y-123082606D01*
X94727403Y-123082605D01*
X94632367Y-122891746D01*
X94503872Y-122721593D01*
X94496830Y-122715173D01*
X94346302Y-122577948D01*
X94165019Y-122465702D01*
X94165017Y-122465701D01*
X94025638Y-122411706D01*
X93966198Y-122388679D01*
X93756610Y-122349500D01*
X93543390Y-122349500D01*
X93333802Y-122388679D01*
X93333797Y-122388680D01*
X93131791Y-122466937D01*
X93062168Y-122472799D01*
X93000428Y-122440089D01*
X92999317Y-122438991D01*
X83989134Y-113428808D01*
X91670735Y-113428808D01*
X91681212Y-113467910D01*
X91682383Y-113473190D01*
X91689411Y-113513043D01*
X91691235Y-113518055D01*
X91698197Y-113534861D01*
X91700445Y-113539681D01*
X91700446Y-113539684D01*
X91714452Y-113559687D01*
X91723655Y-113572831D01*
X91726561Y-113577392D01*
X91746806Y-113612455D01*
X91777815Y-113638475D01*
X91781805Y-113642131D01*
X98657863Y-120518189D01*
X98661518Y-120522178D01*
X98687541Y-120553190D01*
X98687543Y-120553191D01*
X98687545Y-120553194D01*
X98687547Y-120553195D01*
X98687548Y-120553196D01*
X98722599Y-120573433D01*
X98727162Y-120576339D01*
X98760316Y-120599554D01*
X98760319Y-120599554D01*
X98765176Y-120601820D01*
X98781933Y-120608760D01*
X98786953Y-120610587D01*
X98786955Y-120610588D01*
X98822806Y-120616909D01*
X98826808Y-120617615D01*
X98832080Y-120618783D01*
X98871193Y-120629264D01*
X98911522Y-120625735D01*
X98916924Y-120625500D01*
X99431701Y-120625500D01*
X99498740Y-120645185D01*
X99530076Y-120674013D01*
X99571718Y-120728282D01*
X99697159Y-120824536D01*
X99843238Y-120885044D01*
X99921618Y-120895362D01*
X99999999Y-120905682D01*
X100000000Y-120905682D01*
X100000001Y-120905682D01*
X100052253Y-120898802D01*
X100156762Y-120885044D01*
X100302841Y-120824536D01*
X100428282Y-120728282D01*
X100524536Y-120602841D01*
X100585044Y-120456762D01*
X100605682Y-120300000D01*
X100585044Y-120143238D01*
X100524536Y-119997159D01*
X100428282Y-119871718D01*
X100302841Y-119775464D01*
X100156762Y-119714956D01*
X100156760Y-119714955D01*
X100000001Y-119694318D01*
X99999999Y-119694318D01*
X99843239Y-119714955D01*
X99843237Y-119714956D01*
X99697160Y-119775463D01*
X99571716Y-119871719D01*
X99530077Y-119925986D01*
X99473649Y-119967189D01*
X99431701Y-119974500D01*
X99086188Y-119974500D01*
X99019149Y-119954815D01*
X98998507Y-119938181D01*
X92361819Y-113301492D01*
X92328334Y-113240169D01*
X92325500Y-113213811D01*
X92325500Y-110628808D01*
X93970735Y-110628808D01*
X93981212Y-110667910D01*
X93982383Y-110673190D01*
X93989411Y-110713043D01*
X93991235Y-110718055D01*
X93998197Y-110734861D01*
X94000445Y-110739681D01*
X94000446Y-110739684D01*
X94014452Y-110759687D01*
X94023655Y-110772831D01*
X94026561Y-110777392D01*
X94046806Y-110812455D01*
X94077815Y-110838475D01*
X94081805Y-110842131D01*
X95857868Y-112618195D01*
X95861523Y-112622184D01*
X95887541Y-112653190D01*
X95887542Y-112653191D01*
X95887545Y-112653194D01*
X95916387Y-112669845D01*
X95922604Y-112673435D01*
X95927154Y-112676333D01*
X95960316Y-112699553D01*
X95960318Y-112699553D01*
X95960319Y-112699554D01*
X95965168Y-112701815D01*
X95981947Y-112708765D01*
X95986952Y-112710587D01*
X95986953Y-112710587D01*
X95986955Y-112710588D01*
X96026829Y-112717618D01*
X96032092Y-112718786D01*
X96043907Y-112721951D01*
X96071193Y-112729263D01*
X96111510Y-112725735D01*
X96116912Y-112725500D01*
X104283078Y-112725500D01*
X104288481Y-112725735D01*
X104328807Y-112729264D01*
X104367940Y-112718777D01*
X104373162Y-112717619D01*
X104413045Y-112710588D01*
X104413050Y-112710584D01*
X104418099Y-112708747D01*
X104434824Y-112701819D01*
X104439681Y-112699554D01*
X104439684Y-112699554D01*
X104472841Y-112676335D01*
X104477390Y-112673438D01*
X104512455Y-112653194D01*
X104512459Y-112653190D01*
X104523537Y-112639986D01*
X104538481Y-112622176D01*
X104542122Y-112618202D01*
X107818204Y-109342120D01*
X107822166Y-109338489D01*
X107853194Y-109312455D01*
X107873438Y-109277390D01*
X107876335Y-109272841D01*
X107899554Y-109239684D01*
X107899554Y-109239681D01*
X107901819Y-109234824D01*
X107908747Y-109218099D01*
X107910584Y-109213050D01*
X107910588Y-109213045D01*
X107917619Y-109173162D01*
X107918777Y-109167940D01*
X107929264Y-109128807D01*
X107925735Y-109088478D01*
X107925500Y-109083075D01*
X107925500Y-108472605D01*
X107925500Y-107486184D01*
X107945184Y-107419149D01*
X107961813Y-107398512D01*
X108763507Y-106596819D01*
X108824831Y-106563334D01*
X108851189Y-106560500D01*
X113248078Y-106560500D01*
X113253481Y-106560735D01*
X113293807Y-106564264D01*
X113332940Y-106553777D01*
X113338162Y-106552619D01*
X113378045Y-106545588D01*
X113378050Y-106545584D01*
X113383099Y-106543747D01*
X113399824Y-106536819D01*
X113404681Y-106534554D01*
X113404684Y-106534554D01*
X113437841Y-106511335D01*
X113442390Y-106508438D01*
X113477455Y-106488194D01*
X113503481Y-106457176D01*
X113507122Y-106453202D01*
X119598506Y-100361819D01*
X119659830Y-100328334D01*
X119686188Y-100325500D01*
X119931701Y-100325500D01*
X119998740Y-100345185D01*
X120030076Y-100374013D01*
X120071718Y-100428282D01*
X120197159Y-100524536D01*
X120343238Y-100585044D01*
X120421619Y-100595363D01*
X120499999Y-100605682D01*
X120500000Y-100605682D01*
X120500001Y-100605682D01*
X120552253Y-100598802D01*
X120656762Y-100585044D01*
X120802841Y-100524536D01*
X120928282Y-100428282D01*
X121024536Y-100302841D01*
X121085044Y-100156762D01*
X121105682Y-100000000D01*
X121085044Y-99843238D01*
X121024536Y-99697159D01*
X120928282Y-99571718D01*
X120802841Y-99475464D01*
X120757690Y-99456762D01*
X120656762Y-99414956D01*
X120656760Y-99414955D01*
X120500001Y-99394318D01*
X120499999Y-99394318D01*
X120343239Y-99414955D01*
X120343237Y-99414956D01*
X120197160Y-99475463D01*
X120071716Y-99571719D01*
X120030077Y-99625986D01*
X119973649Y-99667189D01*
X119931701Y-99674500D01*
X119516922Y-99674500D01*
X119511518Y-99674264D01*
X119506107Y-99673790D01*
X119471192Y-99670735D01*
X119471191Y-99670735D01*
X119432091Y-99681212D01*
X119426811Y-99682383D01*
X119386959Y-99689410D01*
X119381961Y-99691229D01*
X119365117Y-99698206D01*
X119360313Y-99700446D01*
X119327166Y-99723656D01*
X119322606Y-99726562D01*
X119287548Y-99746804D01*
X119287540Y-99746810D01*
X119261523Y-99777815D01*
X119257868Y-99781804D01*
X116196435Y-102843239D01*
X113166493Y-105873181D01*
X113105170Y-105906666D01*
X113078812Y-105909500D01*
X110423982Y-105909500D01*
X110356943Y-105889815D01*
X110311188Y-105837011D01*
X110301244Y-105767853D01*
X110328129Y-105706835D01*
X110349095Y-105681286D01*
X110377685Y-105646450D01*
X110475232Y-105463954D01*
X110475234Y-105463945D01*
X110476021Y-105462049D01*
X110476701Y-105461203D01*
X110478104Y-105458581D01*
X110478601Y-105458846D01*
X110519862Y-105407645D01*
X110586156Y-105385579D01*
X110590583Y-105385500D01*
X112823078Y-105385500D01*
X112828481Y-105385735D01*
X112868807Y-105389264D01*
X112907940Y-105378777D01*
X112913162Y-105377619D01*
X112953045Y-105370588D01*
X112953050Y-105370584D01*
X112958099Y-105368747D01*
X112974824Y-105361819D01*
X112979681Y-105359554D01*
X112979684Y-105359554D01*
X113012841Y-105336335D01*
X113017390Y-105333438D01*
X113052455Y-105313194D01*
X113078481Y-105282176D01*
X113082122Y-105278202D01*
X114418210Y-103942115D01*
X114422172Y-103938484D01*
X114453194Y-103912455D01*
X114473444Y-103877378D01*
X114476333Y-103872845D01*
X114499553Y-103839684D01*
X114499555Y-103839676D01*
X114501816Y-103834828D01*
X114508754Y-103818079D01*
X114510583Y-103813052D01*
X114510588Y-103813045D01*
X114517622Y-103773147D01*
X114518779Y-103767929D01*
X114529263Y-103728807D01*
X114525735Y-103688489D01*
X114525500Y-103683086D01*
X114525500Y-90424051D01*
X114545185Y-90357012D01*
X114549731Y-90350416D01*
X114550104Y-90349911D01*
X114554116Y-90344475D01*
X114597725Y-90219849D01*
X114600500Y-90190256D01*
X114600500Y-89609744D01*
X114600372Y-89608384D01*
X114597725Y-89580150D01*
X114565320Y-89487545D01*
X114554116Y-89455525D01*
X114552706Y-89453615D01*
X114475711Y-89349289D01*
X114475710Y-89349288D01*
X114369476Y-89270884D01*
X114244848Y-89227274D01*
X114244850Y-89227274D01*
X114230770Y-89225954D01*
X114165862Y-89200095D01*
X114162645Y-89197486D01*
X114139726Y-89178255D01*
X114134682Y-89174022D01*
X114130710Y-89170383D01*
X107032010Y-82071684D01*
X106998526Y-82010362D01*
X106996753Y-81967818D01*
X107005682Y-81900000D01*
X107005682Y-81899998D01*
X106985044Y-81743239D01*
X106985044Y-81743238D01*
X106924536Y-81597159D01*
X106828282Y-81471718D01*
X106702841Y-81375464D01*
X106556762Y-81314956D01*
X106556760Y-81314955D01*
X106400001Y-81294318D01*
X106399999Y-81294318D01*
X106243239Y-81314955D01*
X106243237Y-81314956D01*
X106097160Y-81375463D01*
X105971718Y-81471718D01*
X105875463Y-81597160D01*
X105814956Y-81743237D01*
X105814955Y-81743239D01*
X105794318Y-81899998D01*
X105794318Y-81900001D01*
X105814955Y-82056760D01*
X105814956Y-82056762D01*
X105871933Y-82194318D01*
X105875464Y-82202841D01*
X105971718Y-82328282D01*
X106097159Y-82424536D01*
X106243238Y-82485044D01*
X106271548Y-82488771D01*
X106399999Y-82505682D01*
X106400000Y-82505682D01*
X106400001Y-82505682D01*
X106446954Y-82499500D01*
X106467818Y-82496753D01*
X106536853Y-82507518D01*
X106571685Y-82532011D01*
X113290679Y-89251006D01*
X113324164Y-89312329D01*
X113319180Y-89382021D01*
X113302770Y-89412318D01*
X113270884Y-89455523D01*
X113227274Y-89580150D01*
X113224500Y-89609739D01*
X113224500Y-90190260D01*
X113227274Y-90219849D01*
X113270884Y-90344476D01*
X113349288Y-90450710D01*
X113349289Y-90450711D01*
X113455523Y-90529115D01*
X113455524Y-90529115D01*
X113455525Y-90529116D01*
X113580151Y-90572725D01*
X113580150Y-90572725D01*
X113609740Y-90575500D01*
X113609744Y-90575500D01*
X113750500Y-90575500D01*
X113817539Y-90595185D01*
X113863294Y-90647989D01*
X113874500Y-90699500D01*
X113874500Y-103513811D01*
X113854815Y-103580850D01*
X113838181Y-103601492D01*
X112741493Y-104698181D01*
X112680170Y-104731666D01*
X112653812Y-104734500D01*
X110590583Y-104734500D01*
X110523544Y-104714815D01*
X110477789Y-104662011D01*
X110476021Y-104657951D01*
X110475232Y-104656047D01*
X110475232Y-104656046D01*
X110377685Y-104473550D01*
X110290501Y-104367315D01*
X110246410Y-104313589D01*
X110104539Y-104197160D01*
X110086450Y-104182315D01*
X109903954Y-104084768D01*
X109705934Y-104024700D01*
X109705932Y-104024699D01*
X109705934Y-104024699D01*
X109518463Y-104006235D01*
X109500000Y-104004417D01*
X109499999Y-104004417D01*
X109294067Y-104024699D01*
X109096043Y-104084769D01*
X108985897Y-104143643D01*
X108913550Y-104182315D01*
X108913548Y-104182316D01*
X108913547Y-104182317D01*
X108753589Y-104313589D01*
X108622317Y-104473547D01*
X108524767Y-104656047D01*
X108497077Y-104747327D01*
X108463888Y-104797970D01*
X108464516Y-104798497D01*
X108460072Y-104803791D01*
X108458779Y-104805766D01*
X108458123Y-104806320D01*
X108457542Y-104806807D01*
X108431522Y-104837815D01*
X108427868Y-104841804D01*
X103728303Y-109541369D01*
X103666980Y-109574854D01*
X103597288Y-109569870D01*
X103588648Y-109565448D01*
X103578229Y-109561131D01*
X103519752Y-109549500D01*
X103519748Y-109549500D01*
X102480252Y-109549500D01*
X102480247Y-109549500D01*
X102421770Y-109561131D01*
X102421769Y-109561132D01*
X102355447Y-109605447D01*
X102311132Y-109671769D01*
X102311131Y-109671770D01*
X102310551Y-109674691D01*
X102307529Y-109680467D01*
X102306458Y-109683054D01*
X102306226Y-109682958D01*
X102278166Y-109736602D01*
X102217451Y-109771176D01*
X102188934Y-109774500D01*
X97811066Y-109774500D01*
X97744027Y-109754815D01*
X97698272Y-109702011D01*
X97689449Y-109674691D01*
X97688868Y-109671770D01*
X97688867Y-109671769D01*
X97644552Y-109605447D01*
X97578230Y-109561132D01*
X97578229Y-109561131D01*
X97519752Y-109549500D01*
X97519748Y-109549500D01*
X96480252Y-109549500D01*
X96480247Y-109549500D01*
X96421770Y-109561131D01*
X96421769Y-109561132D01*
X96355447Y-109605447D01*
X96311132Y-109671769D01*
X96311131Y-109671770D01*
X96299500Y-109730247D01*
X96299500Y-110519752D01*
X96311131Y-110578229D01*
X96311132Y-110578230D01*
X96355447Y-110644552D01*
X96421769Y-110688867D01*
X96421770Y-110688868D01*
X96480247Y-110700499D01*
X96480250Y-110700500D01*
X96480252Y-110700500D01*
X97519750Y-110700500D01*
X97519751Y-110700499D01*
X97534568Y-110697552D01*
X97578229Y-110688868D01*
X97578229Y-110688867D01*
X97578231Y-110688867D01*
X97644552Y-110644552D01*
X97688867Y-110578231D01*
X97691966Y-110562649D01*
X97699395Y-110525308D01*
X97731780Y-110463397D01*
X97792496Y-110428823D01*
X97821012Y-110425500D01*
X102178988Y-110425500D01*
X102246027Y-110445185D01*
X102291782Y-110497989D01*
X102300605Y-110525308D01*
X102311132Y-110578229D01*
X102311132Y-110578230D01*
X102355447Y-110644552D01*
X102421769Y-110688867D01*
X102421770Y-110688868D01*
X102480247Y-110700499D01*
X102480250Y-110700500D01*
X102480252Y-110700500D01*
X103519750Y-110700500D01*
X103519751Y-110700499D01*
X103534568Y-110697552D01*
X103578229Y-110688868D01*
X103578229Y-110688867D01*
X103578231Y-110688867D01*
X103644552Y-110644552D01*
X103688867Y-110578231D01*
X103688867Y-110578229D01*
X103688868Y-110578229D01*
X103700499Y-110519752D01*
X103700500Y-110519750D01*
X103700500Y-110510811D01*
X103720185Y-110443772D01*
X103761891Y-110407346D01*
X103760794Y-110405779D01*
X103775185Y-110395702D01*
X103802841Y-110376335D01*
X103807390Y-110373438D01*
X103842455Y-110353194D01*
X103868481Y-110322176D01*
X103872122Y-110318202D01*
X107072203Y-107118121D01*
X107133523Y-107084639D01*
X107203215Y-107089623D01*
X107259148Y-107131495D01*
X107283565Y-107196959D01*
X107279657Y-107237895D01*
X107270735Y-107271193D01*
X107274264Y-107311513D01*
X107274500Y-107316920D01*
X107274500Y-108913812D01*
X107254815Y-108980851D01*
X107238181Y-109001493D01*
X104201493Y-112038181D01*
X104140170Y-112071666D01*
X104113812Y-112074500D01*
X96286189Y-112074500D01*
X96219150Y-112054815D01*
X96198508Y-112038181D01*
X94661819Y-110501492D01*
X94628334Y-110440169D01*
X94625500Y-110413811D01*
X94625500Y-106986187D01*
X94645185Y-106919148D01*
X94661814Y-106898511D01*
X97228315Y-104332009D01*
X97289636Y-104298526D01*
X97332180Y-104296753D01*
X97399999Y-104305682D01*
X97400000Y-104305682D01*
X97400001Y-104305682D01*
X97452254Y-104298802D01*
X97556762Y-104285044D01*
X97702841Y-104224536D01*
X97828282Y-104128282D01*
X97924536Y-104002841D01*
X97985044Y-103856762D01*
X98005682Y-103700000D01*
X97999682Y-103654429D01*
X97985044Y-103543239D01*
X97985044Y-103543238D01*
X97924536Y-103397159D01*
X97828282Y-103271718D01*
X97722124Y-103190260D01*
X100224500Y-103190260D01*
X100227274Y-103219849D01*
X100270884Y-103344476D01*
X100349288Y-103450710D01*
X100349289Y-103450711D01*
X100455523Y-103529115D01*
X100455524Y-103529115D01*
X100455525Y-103529116D01*
X100580151Y-103572725D01*
X100580150Y-103572725D01*
X100609740Y-103575500D01*
X100609744Y-103575500D01*
X101190260Y-103575500D01*
X101219849Y-103572725D01*
X101269646Y-103555300D01*
X101344475Y-103529116D01*
X101450711Y-103450711D01*
X101529116Y-103344475D01*
X101533223Y-103332737D01*
X101573942Y-103275963D01*
X101638895Y-103250214D01*
X101707457Y-103263669D01*
X101748637Y-103298202D01*
X101771718Y-103328282D01*
X101897159Y-103424536D01*
X102043238Y-103485044D01*
X102120609Y-103495230D01*
X102199999Y-103505682D01*
X102200000Y-103505682D01*
X102200001Y-103505682D01*
X102279391Y-103495230D01*
X102356762Y-103485044D01*
X102502841Y-103424536D01*
X102628282Y-103328282D01*
X102724536Y-103202841D01*
X102785044Y-103056762D01*
X102805682Y-102900000D01*
X102804095Y-102887949D01*
X102785044Y-102743239D01*
X102785044Y-102743238D01*
X102724536Y-102597159D01*
X102628282Y-102471718D01*
X102502841Y-102375464D01*
X102492660Y-102371247D01*
X102356762Y-102314956D01*
X102356760Y-102314955D01*
X102200001Y-102294318D01*
X102199999Y-102294318D01*
X102043239Y-102314955D01*
X102043237Y-102314956D01*
X101897160Y-102375463D01*
X101897158Y-102375464D01*
X101897159Y-102375464D01*
X101771718Y-102471718D01*
X101771716Y-102471719D01*
X101771715Y-102471721D01*
X101754646Y-102493965D01*
X101698217Y-102535166D01*
X101628471Y-102539319D01*
X101567552Y-102505106D01*
X101539231Y-102459431D01*
X101530947Y-102435758D01*
X101529116Y-102430525D01*
X101527461Y-102428283D01*
X101450711Y-102324289D01*
X101450710Y-102324288D01*
X101344476Y-102245884D01*
X101219848Y-102202274D01*
X101219849Y-102202274D01*
X101190260Y-102199500D01*
X101190256Y-102199500D01*
X100609744Y-102199500D01*
X100609740Y-102199500D01*
X100580150Y-102202274D01*
X100455523Y-102245884D01*
X100349289Y-102324288D01*
X100349288Y-102324289D01*
X100270884Y-102430523D01*
X100227274Y-102555150D01*
X100224500Y-102584739D01*
X100224500Y-103190260D01*
X97722124Y-103190260D01*
X97702841Y-103175464D01*
X97657690Y-103156762D01*
X97556762Y-103114956D01*
X97556760Y-103114955D01*
X97400001Y-103094318D01*
X97399999Y-103094318D01*
X97243239Y-103114955D01*
X97243237Y-103114956D01*
X97097160Y-103175463D01*
X96971718Y-103271718D01*
X96875463Y-103397160D01*
X96814956Y-103543237D01*
X96814955Y-103543239D01*
X96794318Y-103699998D01*
X96794318Y-103700001D01*
X96803246Y-103767818D01*
X96792480Y-103836853D01*
X96767988Y-103871684D01*
X94081803Y-106557870D01*
X94077814Y-106561525D01*
X94046805Y-106587545D01*
X94026562Y-106622606D01*
X94023656Y-106627166D01*
X94000446Y-106660313D01*
X93998206Y-106665117D01*
X93991229Y-106681961D01*
X93989410Y-106686959D01*
X93982383Y-106726811D01*
X93981212Y-106732091D01*
X93970735Y-106771191D01*
X93974264Y-106811513D01*
X93974500Y-106816920D01*
X93974500Y-110583078D01*
X93974264Y-110588485D01*
X93970735Y-110628808D01*
X92325500Y-110628808D01*
X92325500Y-106386187D01*
X92345185Y-106319148D01*
X92361819Y-106298506D01*
X94598507Y-104061819D01*
X94659830Y-104028334D01*
X94686188Y-104025500D01*
X95031701Y-104025500D01*
X95098740Y-104045185D01*
X95130076Y-104074013D01*
X95171718Y-104128282D01*
X95297159Y-104224536D01*
X95443238Y-104285044D01*
X95471548Y-104288771D01*
X95599999Y-104305682D01*
X95600000Y-104305682D01*
X95600001Y-104305682D01*
X95652253Y-104298802D01*
X95756762Y-104285044D01*
X95902841Y-104224536D01*
X96028282Y-104128282D01*
X96124536Y-104002841D01*
X96185044Y-103856762D01*
X96205682Y-103700000D01*
X96199682Y-103654429D01*
X96185044Y-103543239D01*
X96185044Y-103543238D01*
X96124536Y-103397159D01*
X96028282Y-103271718D01*
X95902841Y-103175464D01*
X95857690Y-103156762D01*
X95756762Y-103114956D01*
X95756760Y-103114955D01*
X95600001Y-103094318D01*
X95599999Y-103094318D01*
X95443239Y-103114955D01*
X95443237Y-103114956D01*
X95297160Y-103175463D01*
X95171716Y-103271719D01*
X95130077Y-103325986D01*
X95073649Y-103367189D01*
X95031701Y-103374500D01*
X94516922Y-103374500D01*
X94511518Y-103374264D01*
X94506107Y-103373790D01*
X94471192Y-103370735D01*
X94471191Y-103370735D01*
X94432091Y-103381212D01*
X94426811Y-103382383D01*
X94386959Y-103389410D01*
X94381961Y-103391229D01*
X94365117Y-103398206D01*
X94360313Y-103400446D01*
X94327166Y-103423656D01*
X94322606Y-103426562D01*
X94287548Y-103446804D01*
X94287540Y-103446810D01*
X94261523Y-103477815D01*
X94257869Y-103481804D01*
X91781803Y-105957870D01*
X91777814Y-105961525D01*
X91746805Y-105987545D01*
X91726562Y-106022606D01*
X91723656Y-106027166D01*
X91700446Y-106060313D01*
X91698206Y-106065117D01*
X91691229Y-106081961D01*
X91689410Y-106086959D01*
X91682383Y-106126811D01*
X91681212Y-106132091D01*
X91670735Y-106171191D01*
X91674264Y-106211513D01*
X91674500Y-106216920D01*
X91674500Y-113383078D01*
X91674264Y-113388485D01*
X91670735Y-113428808D01*
X83989134Y-113428808D01*
X77557491Y-106997165D01*
X77524006Y-106935842D01*
X77528990Y-106866150D01*
X77534172Y-106854212D01*
X77552742Y-106816920D01*
X77577405Y-106767389D01*
X77635756Y-106562310D01*
X77655429Y-106350000D01*
X77635756Y-106137690D01*
X77577405Y-105932611D01*
X77577403Y-105932606D01*
X77577403Y-105932605D01*
X77482367Y-105741746D01*
X77353872Y-105571593D01*
X77300546Y-105522980D01*
X77196302Y-105427948D01*
X77015019Y-105315702D01*
X77015017Y-105315701D01*
X76911787Y-105275710D01*
X76816198Y-105238679D01*
X76619385Y-105201888D01*
X76557106Y-105170221D01*
X76521833Y-105109908D01*
X76524767Y-105040100D01*
X76564976Y-104982960D01*
X76619384Y-104958111D01*
X76816198Y-104921321D01*
X77015019Y-104844298D01*
X77196302Y-104732052D01*
X77353872Y-104588407D01*
X77482366Y-104418255D01*
X77534024Y-104314511D01*
X77577403Y-104227394D01*
X77577403Y-104227393D01*
X77577405Y-104227389D01*
X77635756Y-104022310D01*
X77655429Y-103810000D01*
X77635756Y-103597690D01*
X77577405Y-103392611D01*
X77577403Y-103392606D01*
X77577403Y-103392605D01*
X77482367Y-103201746D01*
X77353872Y-103031593D01*
X77319217Y-103000001D01*
X92394318Y-103000001D01*
X92414955Y-103156760D01*
X92414956Y-103156762D01*
X92441087Y-103219849D01*
X92475464Y-103302841D01*
X92571718Y-103428282D01*
X92697159Y-103524536D01*
X92843238Y-103585044D01*
X92921619Y-103595362D01*
X92999999Y-103605682D01*
X93000000Y-103605682D01*
X93000001Y-103605682D01*
X93052253Y-103598802D01*
X93156762Y-103585044D01*
X93302841Y-103524536D01*
X93428282Y-103428282D01*
X93524536Y-103302841D01*
X93585044Y-103156762D01*
X93605682Y-103000000D01*
X93603873Y-102986263D01*
X93596753Y-102932181D01*
X93607518Y-102863146D01*
X93632011Y-102828314D01*
X93717087Y-102743239D01*
X93925160Y-102535166D01*
X94036008Y-102424319D01*
X94097331Y-102390834D01*
X94123689Y-102388000D01*
X95819400Y-102388000D01*
X95886439Y-102407685D01*
X95932194Y-102460489D01*
X95936441Y-102471045D01*
X95970884Y-102569475D01*
X95970884Y-102569476D01*
X96049288Y-102675710D01*
X96049289Y-102675711D01*
X96155523Y-102754115D01*
X96155524Y-102754115D01*
X96155525Y-102754116D01*
X96280151Y-102797725D01*
X96280150Y-102797725D01*
X96309740Y-102800500D01*
X96309744Y-102800500D01*
X96890260Y-102800500D01*
X96919849Y-102797725D01*
X96928245Y-102794787D01*
X97044475Y-102754116D01*
X97150711Y-102675711D01*
X97229116Y-102569475D01*
X97252435Y-102502833D01*
X97263559Y-102471045D01*
X97304281Y-102414269D01*
X97369234Y-102388522D01*
X97380600Y-102388000D01*
X97908078Y-102388000D01*
X97913481Y-102388235D01*
X97953807Y-102391764D01*
X97992940Y-102381277D01*
X97998162Y-102380119D01*
X98038045Y-102373088D01*
X98038050Y-102373084D01*
X98043099Y-102371247D01*
X98059824Y-102364319D01*
X98064681Y-102362054D01*
X98064684Y-102362054D01*
X98097841Y-102338835D01*
X98102390Y-102335938D01*
X98137455Y-102315694D01*
X98138075Y-102314956D01*
X98163476Y-102284682D01*
X98167122Y-102280702D01*
X98590690Y-101857134D01*
X98652011Y-101823651D01*
X98721703Y-101828635D01*
X98732823Y-101833413D01*
X98798607Y-101865573D01*
X98832673Y-101870536D01*
X98866739Y-101875500D01*
X98866740Y-101875500D01*
X99233261Y-101875500D01*
X99255971Y-101872191D01*
X99301393Y-101865573D01*
X99406483Y-101814198D01*
X99489198Y-101731483D01*
X99540573Y-101626393D01*
X99550500Y-101558260D01*
X99550500Y-100316740D01*
X99549335Y-100308747D01*
X99540573Y-100248608D01*
X99536448Y-100240170D01*
X99489198Y-100143517D01*
X99489196Y-100143515D01*
X99489196Y-100143514D01*
X99406485Y-100060803D01*
X99301391Y-100009426D01*
X99233261Y-99999500D01*
X99233260Y-99999500D01*
X99064500Y-99999500D01*
X98997461Y-99979815D01*
X98951706Y-99927011D01*
X98940500Y-99875500D01*
X98940500Y-97611065D01*
X98960185Y-97544026D01*
X99012989Y-97498271D01*
X99040311Y-97489447D01*
X99043231Y-97488867D01*
X99109552Y-97444552D01*
X99153867Y-97378231D01*
X99153867Y-97378229D01*
X99153868Y-97378229D01*
X99165499Y-97319752D01*
X99165500Y-97319750D01*
X99165500Y-96580249D01*
X99165499Y-96580247D01*
X99153868Y-96521770D01*
X99153867Y-96521769D01*
X99118534Y-96468890D01*
X99097656Y-96402213D01*
X99116140Y-96334833D01*
X99118497Y-96331163D01*
X99153867Y-96278231D01*
X99165500Y-96219748D01*
X99165500Y-95480252D01*
X99165500Y-95480249D01*
X99165499Y-95480247D01*
X99153868Y-95421770D01*
X99153867Y-95421769D01*
X99109552Y-95355447D01*
X99043230Y-95311132D01*
X99043229Y-95311131D01*
X98984752Y-95299500D01*
X98984748Y-95299500D01*
X98576189Y-95299500D01*
X98509150Y-95279815D01*
X98488507Y-95263180D01*
X98449318Y-95223990D01*
X98415833Y-95162667D01*
X98413000Y-95136310D01*
X98413000Y-94863103D01*
X98432685Y-94796064D01*
X98485489Y-94750309D01*
X98496022Y-94746070D01*
X98544475Y-94729116D01*
X98650711Y-94650711D01*
X98729116Y-94544475D01*
X98772725Y-94419849D01*
X98775500Y-94390256D01*
X98775500Y-93809744D01*
X98772725Y-93780151D01*
X98771626Y-93777011D01*
X98729115Y-93655523D01*
X98650711Y-93549289D01*
X98650710Y-93549288D01*
X98544476Y-93470884D01*
X98419848Y-93427274D01*
X98419849Y-93427274D01*
X98390260Y-93424500D01*
X98390256Y-93424500D01*
X97784744Y-93424500D01*
X97784740Y-93424500D01*
X97755150Y-93427274D01*
X97630523Y-93470884D01*
X97524289Y-93549288D01*
X97524288Y-93549289D01*
X97445884Y-93655523D01*
X97402274Y-93780150D01*
X97399500Y-93809739D01*
X97399500Y-94390260D01*
X97402274Y-94419849D01*
X97445884Y-94544476D01*
X97524288Y-94650710D01*
X97524289Y-94650711D01*
X97630525Y-94729116D01*
X97678957Y-94746063D01*
X97735730Y-94786782D01*
X97761478Y-94851735D01*
X97762000Y-94863103D01*
X97762000Y-95305578D01*
X97761764Y-95310985D01*
X97758235Y-95351308D01*
X97768712Y-95390410D01*
X97769883Y-95395690D01*
X97776911Y-95435543D01*
X97778735Y-95440555D01*
X97785697Y-95457361D01*
X97787945Y-95462181D01*
X97787946Y-95462184D01*
X97799052Y-95478045D01*
X97811155Y-95495331D01*
X97814061Y-95499892D01*
X97834306Y-95534955D01*
X97865315Y-95560975D01*
X97869305Y-95564631D01*
X98028181Y-95723507D01*
X98061666Y-95784830D01*
X98064500Y-95811188D01*
X98064500Y-96219752D01*
X98076131Y-96278229D01*
X98076132Y-96278231D01*
X98111464Y-96331107D01*
X98132343Y-96397784D01*
X98113859Y-96465165D01*
X98111465Y-96468889D01*
X98076133Y-96521766D01*
X98076131Y-96521770D01*
X98064500Y-96580247D01*
X98064500Y-97319752D01*
X98076131Y-97378229D01*
X98076132Y-97378230D01*
X98120447Y-97444552D01*
X98186767Y-97488866D01*
X98186769Y-97488867D01*
X98189684Y-97489447D01*
X98195461Y-97492467D01*
X98198054Y-97493542D01*
X98197957Y-97493773D01*
X98251597Y-97521827D01*
X98286175Y-97582541D01*
X98289500Y-97611065D01*
X98289500Y-100485578D01*
X98289264Y-100490985D01*
X98285735Y-100531308D01*
X98296212Y-100570410D01*
X98297383Y-100575690D01*
X98304411Y-100615543D01*
X98306235Y-100620555D01*
X98313197Y-100637361D01*
X98315445Y-100642181D01*
X98315446Y-100642184D01*
X98329452Y-100662187D01*
X98338655Y-100675331D01*
X98341561Y-100679892D01*
X98361806Y-100714955D01*
X98392815Y-100740975D01*
X98396805Y-100744631D01*
X98501992Y-100849818D01*
X98535477Y-100911141D01*
X98530493Y-100980833D01*
X98501992Y-101025180D01*
X97826493Y-101700681D01*
X97765170Y-101734166D01*
X97738812Y-101737000D01*
X97380600Y-101737000D01*
X97313561Y-101717315D01*
X97267806Y-101664511D01*
X97263559Y-101653955D01*
X97233527Y-101568132D01*
X97229116Y-101555525D01*
X97201484Y-101518085D01*
X97150711Y-101449289D01*
X97150710Y-101449288D01*
X97044476Y-101370884D01*
X96919848Y-101327274D01*
X96919849Y-101327274D01*
X96890260Y-101324500D01*
X96890256Y-101324500D01*
X96309744Y-101324500D01*
X96309740Y-101324500D01*
X96280150Y-101327274D01*
X96155523Y-101370884D01*
X96049289Y-101449288D01*
X96049288Y-101449289D01*
X95970884Y-101555523D01*
X95970884Y-101555524D01*
X95936441Y-101653955D01*
X95895719Y-101710731D01*
X95830766Y-101736478D01*
X95819400Y-101737000D01*
X93954413Y-101737000D01*
X93949011Y-101736764D01*
X93941626Y-101736118D01*
X93908692Y-101733236D01*
X93908691Y-101733236D01*
X93869599Y-101743711D01*
X93864319Y-101744882D01*
X93824454Y-101751912D01*
X93819462Y-101753729D01*
X93802617Y-101760706D01*
X93797813Y-101762946D01*
X93764663Y-101786158D01*
X93760102Y-101789064D01*
X93725048Y-101809304D01*
X93725045Y-101809306D01*
X93725043Y-101809307D01*
X93725042Y-101809309D01*
X93699023Y-101840315D01*
X93695369Y-101844303D01*
X93171684Y-102367988D01*
X93110361Y-102401473D01*
X93067818Y-102403246D01*
X93000001Y-102394318D01*
X92999999Y-102394318D01*
X92843239Y-102414955D01*
X92843237Y-102414956D01*
X92697160Y-102475463D01*
X92571718Y-102571718D01*
X92475463Y-102697160D01*
X92414956Y-102843237D01*
X92414955Y-102843239D01*
X92394318Y-102999998D01*
X92394318Y-103000001D01*
X77319217Y-103000001D01*
X77319214Y-102999998D01*
X77196302Y-102887948D01*
X77015019Y-102775702D01*
X77015017Y-102775701D01*
X76886547Y-102725932D01*
X76816198Y-102698679D01*
X76606610Y-102659500D01*
X76393390Y-102659500D01*
X76183802Y-102698679D01*
X76183799Y-102698679D01*
X76183799Y-102698680D01*
X75984982Y-102775701D01*
X75984980Y-102775702D01*
X75803696Y-102887949D01*
X75733038Y-102952363D01*
X75670234Y-102982980D01*
X75600847Y-102974783D01*
X75546907Y-102930373D01*
X75525539Y-102863851D01*
X75525500Y-102860726D01*
X75525500Y-100000001D01*
X79094318Y-100000001D01*
X79114955Y-100156760D01*
X79114956Y-100156762D01*
X79174905Y-100301493D01*
X79175464Y-100302841D01*
X79271718Y-100428282D01*
X79397159Y-100524536D01*
X79543238Y-100585044D01*
X79621619Y-100595362D01*
X79699999Y-100605682D01*
X79700000Y-100605682D01*
X79700001Y-100605682D01*
X79752253Y-100598802D01*
X79856762Y-100585044D01*
X80002841Y-100524536D01*
X80128282Y-100428282D01*
X80169923Y-100374013D01*
X80226351Y-100332811D01*
X80268299Y-100325500D01*
X81683078Y-100325500D01*
X81688481Y-100325735D01*
X81728807Y-100329264D01*
X81767940Y-100318777D01*
X81773162Y-100317619D01*
X81813045Y-100310588D01*
X81813050Y-100310584D01*
X81818099Y-100308747D01*
X81834824Y-100301819D01*
X81839681Y-100299554D01*
X81839684Y-100299554D01*
X81872841Y-100276335D01*
X81877390Y-100273438D01*
X81912455Y-100253194D01*
X81938481Y-100222176D01*
X81942122Y-100218202D01*
X84418204Y-97742120D01*
X84422166Y-97738489D01*
X84453194Y-97712455D01*
X84473438Y-97677390D01*
X84476335Y-97672841D01*
X84499554Y-97639684D01*
X84499554Y-97639681D01*
X84501819Y-97634824D01*
X84508747Y-97618099D01*
X84510584Y-97613050D01*
X84510588Y-97613045D01*
X84517619Y-97573162D01*
X84518777Y-97567940D01*
X84529264Y-97528807D01*
X84525735Y-97488481D01*
X84525500Y-97483078D01*
X84525500Y-96515260D01*
X84974500Y-96515260D01*
X84977274Y-96544849D01*
X85020884Y-96669476D01*
X85099288Y-96775710D01*
X85099289Y-96775711D01*
X85205523Y-96854115D01*
X85205524Y-96854115D01*
X85205525Y-96854116D01*
X85330151Y-96897725D01*
X85330150Y-96897725D01*
X85359740Y-96900500D01*
X85359744Y-96900500D01*
X85940260Y-96900500D01*
X85969849Y-96897725D01*
X85969848Y-96897725D01*
X86094475Y-96854116D01*
X86200711Y-96775711D01*
X86279116Y-96669475D01*
X86313559Y-96571045D01*
X86354281Y-96514269D01*
X86419234Y-96488522D01*
X86430600Y-96488000D01*
X88490822Y-96488000D01*
X88515867Y-96491297D01*
X88521186Y-96491762D01*
X88521193Y-96491764D01*
X88561522Y-96488235D01*
X88566924Y-96488000D01*
X92970578Y-96488000D01*
X92975981Y-96488235D01*
X93016307Y-96491764D01*
X93055440Y-96481277D01*
X93060662Y-96480119D01*
X93100545Y-96473088D01*
X93100550Y-96473084D01*
X93105599Y-96471247D01*
X93122324Y-96464319D01*
X93127181Y-96462054D01*
X93127184Y-96462054D01*
X93160341Y-96438835D01*
X93164890Y-96435938D01*
X93199955Y-96415694D01*
X93225981Y-96384676D01*
X93229621Y-96380703D01*
X93568210Y-96042115D01*
X93572172Y-96038484D01*
X93603194Y-96012455D01*
X93623444Y-95977378D01*
X93626333Y-95972845D01*
X93649553Y-95939684D01*
X93649555Y-95939676D01*
X93651816Y-95934828D01*
X93658754Y-95918079D01*
X93660583Y-95913052D01*
X93660588Y-95913045D01*
X93667622Y-95873147D01*
X93668779Y-95867929D01*
X93679263Y-95828807D01*
X93675735Y-95788489D01*
X93675500Y-95783086D01*
X93675500Y-94415260D01*
X93924500Y-94415260D01*
X93927274Y-94444849D01*
X93970884Y-94569476D01*
X94049288Y-94675710D01*
X94049289Y-94675711D01*
X94155522Y-94754114D01*
X94155525Y-94754116D01*
X94191454Y-94766688D01*
X94248230Y-94807410D01*
X94273978Y-94872362D01*
X94274500Y-94883730D01*
X94274500Y-95348078D01*
X94274264Y-95353485D01*
X94270735Y-95393808D01*
X94281212Y-95432910D01*
X94282383Y-95438190D01*
X94289411Y-95478043D01*
X94291235Y-95483055D01*
X94298197Y-95499861D01*
X94300445Y-95504681D01*
X94300446Y-95504684D01*
X94313263Y-95522989D01*
X94323655Y-95537831D01*
X94326561Y-95542392D01*
X94346806Y-95577455D01*
X94377815Y-95603475D01*
X94381805Y-95607131D01*
X95942868Y-97168195D01*
X95946523Y-97172184D01*
X95972541Y-97203190D01*
X95972542Y-97203191D01*
X95972545Y-97203194D01*
X96001387Y-97219845D01*
X96007604Y-97223435D01*
X96012154Y-97226333D01*
X96045316Y-97249553D01*
X96045318Y-97249553D01*
X96045319Y-97249554D01*
X96050168Y-97251815D01*
X96066947Y-97258765D01*
X96071952Y-97260587D01*
X96071953Y-97260587D01*
X96071955Y-97260588D01*
X96111824Y-97267617D01*
X96117084Y-97268783D01*
X96155920Y-97279190D01*
X96215580Y-97315553D01*
X96245444Y-97374770D01*
X96246132Y-97378230D01*
X96290447Y-97444552D01*
X96356769Y-97488867D01*
X96356770Y-97488868D01*
X96415247Y-97500499D01*
X96415250Y-97500500D01*
X96415252Y-97500500D01*
X97154750Y-97500500D01*
X97154751Y-97500499D01*
X97169568Y-97497552D01*
X97213229Y-97488868D01*
X97213229Y-97488867D01*
X97213231Y-97488867D01*
X97279552Y-97444552D01*
X97323867Y-97378231D01*
X97323867Y-97378229D01*
X97323868Y-97378229D01*
X97335499Y-97319752D01*
X97335500Y-97319750D01*
X97335500Y-96580249D01*
X97335499Y-96580247D01*
X97323868Y-96521770D01*
X97323867Y-96521768D01*
X97291339Y-96473088D01*
X97288534Y-96468890D01*
X97267656Y-96402215D01*
X97286140Y-96334835D01*
X97288535Y-96331108D01*
X97323867Y-96278231D01*
X97323868Y-96278229D01*
X97334259Y-96225988D01*
X97335500Y-96219748D01*
X97335500Y-95480252D01*
X97335500Y-95480249D01*
X97335499Y-95480247D01*
X97323868Y-95421770D01*
X97323867Y-95421769D01*
X97279552Y-95355447D01*
X97213230Y-95311132D01*
X97213229Y-95311131D01*
X97154752Y-95299500D01*
X97154748Y-95299500D01*
X96749500Y-95299500D01*
X96682461Y-95279815D01*
X96636706Y-95227011D01*
X96625500Y-95175500D01*
X96625500Y-94883730D01*
X96645185Y-94816691D01*
X96697989Y-94770936D01*
X96708546Y-94766688D01*
X96723884Y-94761321D01*
X96744475Y-94754116D01*
X96850711Y-94675711D01*
X96929116Y-94569475D01*
X96972725Y-94444849D01*
X96974630Y-94424536D01*
X96975500Y-94415260D01*
X96975500Y-93809739D01*
X96972725Y-93780150D01*
X96929115Y-93655523D01*
X96850711Y-93549289D01*
X96850710Y-93549288D01*
X96744476Y-93470884D01*
X96619848Y-93427274D01*
X96619849Y-93427274D01*
X96590260Y-93424500D01*
X96590256Y-93424500D01*
X96009744Y-93424500D01*
X96009740Y-93424500D01*
X95980150Y-93427274D01*
X95855523Y-93470884D01*
X95749289Y-93549288D01*
X95749288Y-93549289D01*
X95670884Y-93655523D01*
X95627274Y-93780150D01*
X95624500Y-93809739D01*
X95624500Y-94415260D01*
X95627274Y-94444849D01*
X95670884Y-94569476D01*
X95749288Y-94675710D01*
X95749289Y-94675711D01*
X95855522Y-94754114D01*
X95855525Y-94754116D01*
X95891454Y-94766688D01*
X95948230Y-94807410D01*
X95973978Y-94872362D01*
X95974500Y-94883730D01*
X95974500Y-95348078D01*
X95974264Y-95353485D01*
X95970735Y-95393808D01*
X95981212Y-95432910D01*
X95982383Y-95438190D01*
X95989411Y-95478043D01*
X95991235Y-95483055D01*
X95998197Y-95499861D01*
X96000445Y-95504681D01*
X96000446Y-95504684D01*
X96013263Y-95522989D01*
X96023655Y-95537831D01*
X96026561Y-95542392D01*
X96046806Y-95577455D01*
X96077815Y-95603475D01*
X96081805Y-95607131D01*
X96198181Y-95723507D01*
X96231666Y-95784830D01*
X96234500Y-95811188D01*
X96234500Y-96219750D01*
X96235097Y-96225813D01*
X96233316Y-96225988D01*
X96227830Y-96287179D01*
X96184958Y-96342349D01*
X96119064Y-96365582D01*
X96051070Y-96349503D01*
X96024767Y-96329440D01*
X94961819Y-95266491D01*
X94928334Y-95205168D01*
X94925500Y-95178810D01*
X94925500Y-94883730D01*
X94945185Y-94816691D01*
X94997989Y-94770936D01*
X95008546Y-94766688D01*
X95023884Y-94761321D01*
X95044475Y-94754116D01*
X95150711Y-94675711D01*
X95229116Y-94569475D01*
X95272725Y-94444849D01*
X95274630Y-94424536D01*
X95275500Y-94415260D01*
X95275500Y-93809739D01*
X95272725Y-93780150D01*
X95229115Y-93655523D01*
X95150711Y-93549289D01*
X95150710Y-93549288D01*
X95044476Y-93470884D01*
X94919848Y-93427274D01*
X94919849Y-93427274D01*
X94890260Y-93424500D01*
X94890256Y-93424500D01*
X94309744Y-93424500D01*
X94309740Y-93424500D01*
X94280150Y-93427274D01*
X94155523Y-93470884D01*
X94049289Y-93549288D01*
X94049288Y-93549289D01*
X93970884Y-93655523D01*
X93927274Y-93780150D01*
X93924500Y-93809739D01*
X93924500Y-94415260D01*
X93675500Y-94415260D01*
X93675500Y-93836006D01*
X93675500Y-91886183D01*
X93695184Y-91819148D01*
X93711813Y-91798511D01*
X93743408Y-91766916D01*
X93804729Y-91733433D01*
X93874421Y-91738417D01*
X93930354Y-91780289D01*
X93954771Y-91845753D01*
X93948129Y-91895554D01*
X93927274Y-91955153D01*
X93924500Y-91984739D01*
X93924500Y-92590260D01*
X93927274Y-92619849D01*
X93970884Y-92744476D01*
X94049288Y-92850710D01*
X94049289Y-92850711D01*
X94155523Y-92929115D01*
X94155524Y-92929115D01*
X94155525Y-92929116D01*
X94280151Y-92972725D01*
X94280150Y-92972725D01*
X94309740Y-92975500D01*
X94309744Y-92975500D01*
X94890260Y-92975500D01*
X94919849Y-92972725D01*
X94928357Y-92969748D01*
X95044475Y-92929116D01*
X95150711Y-92850711D01*
X95229116Y-92744475D01*
X95272725Y-92619849D01*
X95275500Y-92590256D01*
X95275500Y-92123688D01*
X95295185Y-92056649D01*
X95311813Y-92036012D01*
X95412822Y-91935003D01*
X95474141Y-91901521D01*
X95543833Y-91906505D01*
X95599767Y-91948376D01*
X95624184Y-92013840D01*
X95624500Y-92022687D01*
X95624500Y-92590260D01*
X95627274Y-92619849D01*
X95670884Y-92744476D01*
X95749288Y-92850710D01*
X95749289Y-92850711D01*
X95855523Y-92929115D01*
X95855524Y-92929115D01*
X95855525Y-92929116D01*
X95980151Y-92972725D01*
X95980150Y-92972725D01*
X96009740Y-92975500D01*
X96009744Y-92975500D01*
X96499366Y-92975500D01*
X96566405Y-92995185D01*
X96570493Y-92997928D01*
X96572814Y-92999553D01*
X96577666Y-93001815D01*
X96594433Y-93008760D01*
X96599453Y-93010587D01*
X96599455Y-93010588D01*
X96639330Y-93017618D01*
X96644587Y-93018784D01*
X96683693Y-93029263D01*
X96724010Y-93025735D01*
X96729412Y-93025500D01*
X100227312Y-93025500D01*
X100294351Y-93045185D01*
X100340106Y-93097989D01*
X100350050Y-93167147D01*
X100321025Y-93230703D01*
X100314993Y-93237181D01*
X100163993Y-93388181D01*
X100102670Y-93421666D01*
X100076312Y-93424500D01*
X99609740Y-93424500D01*
X99580150Y-93427274D01*
X99455523Y-93470884D01*
X99349289Y-93549288D01*
X99349288Y-93549289D01*
X99270884Y-93655523D01*
X99227274Y-93780150D01*
X99224500Y-93809739D01*
X99224500Y-94390260D01*
X99227274Y-94419849D01*
X99270884Y-94544476D01*
X99349288Y-94650710D01*
X99349289Y-94650711D01*
X99455523Y-94729115D01*
X99455524Y-94729115D01*
X99455525Y-94729116D01*
X99580151Y-94772725D01*
X99580150Y-94772725D01*
X99609740Y-94775500D01*
X99609744Y-94775500D01*
X100215260Y-94775500D01*
X100244849Y-94772725D01*
X100249962Y-94770936D01*
X100369475Y-94729116D01*
X100475711Y-94650711D01*
X100554116Y-94544475D01*
X100597725Y-94419849D01*
X100600500Y-94390256D01*
X100600500Y-93923686D01*
X100620185Y-93856648D01*
X100636814Y-93836011D01*
X101282818Y-93190007D01*
X101344142Y-93156522D01*
X101413834Y-93161506D01*
X101469767Y-93203378D01*
X101494184Y-93268842D01*
X101494500Y-93277688D01*
X101494500Y-94990578D01*
X101494264Y-94995985D01*
X101490735Y-95036308D01*
X101501212Y-95075410D01*
X101502383Y-95080690D01*
X101509411Y-95120543D01*
X101511235Y-95125555D01*
X101518197Y-95142361D01*
X101520445Y-95147181D01*
X101520446Y-95147184D01*
X101530455Y-95161478D01*
X101543655Y-95180331D01*
X101546561Y-95184892D01*
X101556024Y-95201280D01*
X101566806Y-95219955D01*
X101580203Y-95231197D01*
X101618907Y-95289366D01*
X101624500Y-95326187D01*
X101624500Y-95790260D01*
X101627274Y-95819849D01*
X101670884Y-95944476D01*
X101749288Y-96050710D01*
X101749289Y-96050711D01*
X101855523Y-96129115D01*
X101855524Y-96129115D01*
X101855525Y-96129116D01*
X101980151Y-96172725D01*
X101980150Y-96172725D01*
X102009740Y-96175500D01*
X102009744Y-96175500D01*
X102590260Y-96175500D01*
X102619849Y-96172725D01*
X102619848Y-96172724D01*
X102744475Y-96129116D01*
X102850711Y-96050711D01*
X102929116Y-95944475D01*
X102946062Y-95896044D01*
X102986785Y-95839269D01*
X103051738Y-95813522D01*
X103063104Y-95813000D01*
X103836896Y-95813000D01*
X103903935Y-95832685D01*
X103949690Y-95885489D01*
X103953937Y-95896044D01*
X103970884Y-95944476D01*
X104049288Y-96050710D01*
X104049289Y-96050711D01*
X104155523Y-96129115D01*
X104155524Y-96129115D01*
X104155525Y-96129116D01*
X104280151Y-96172725D01*
X104280150Y-96172725D01*
X104309740Y-96175500D01*
X104309744Y-96175500D01*
X104890260Y-96175500D01*
X104919849Y-96172725D01*
X104919849Y-96172724D01*
X105044475Y-96129116D01*
X105150711Y-96050711D01*
X105150726Y-96050690D01*
X105150748Y-96050673D01*
X105157282Y-96044140D01*
X105158175Y-96045033D01*
X105206369Y-96008437D01*
X105276025Y-96002975D01*
X105337576Y-96036038D01*
X105371481Y-96097130D01*
X105374499Y-96124319D01*
X105374499Y-96675680D01*
X105354814Y-96742719D01*
X105302010Y-96788474D01*
X105232852Y-96798418D01*
X105169296Y-96769393D01*
X105150729Y-96749314D01*
X105150711Y-96749289D01*
X105150709Y-96749288D01*
X105150709Y-96749287D01*
X105044476Y-96670884D01*
X104919848Y-96627274D01*
X104919849Y-96627274D01*
X104890260Y-96624500D01*
X104890256Y-96624500D01*
X104309744Y-96624500D01*
X104309740Y-96624500D01*
X104280150Y-96627274D01*
X104155523Y-96670884D01*
X104049289Y-96749288D01*
X104049288Y-96749289D01*
X103970884Y-96855523D01*
X103927274Y-96980150D01*
X103924500Y-97009739D01*
X103924500Y-97615260D01*
X103927274Y-97644849D01*
X103967541Y-97759921D01*
X103974500Y-97800877D01*
X103974500Y-98731699D01*
X103954815Y-98798738D01*
X103925988Y-98830074D01*
X103871720Y-98871715D01*
X103775463Y-98997160D01*
X103714956Y-99143237D01*
X103714955Y-99143239D01*
X103694318Y-99299998D01*
X103694318Y-99300001D01*
X103714955Y-99456760D01*
X103714956Y-99456762D01*
X103775464Y-99602841D01*
X103871718Y-99728282D01*
X103997159Y-99824536D01*
X104143238Y-99885044D01*
X104221619Y-99895363D01*
X104299999Y-99905682D01*
X104300000Y-99905682D01*
X104300001Y-99905682D01*
X104352253Y-99898802D01*
X104456762Y-99885044D01*
X104602841Y-99824536D01*
X104728282Y-99728282D01*
X104824536Y-99602841D01*
X104885044Y-99456762D01*
X104905682Y-99300000D01*
X104885044Y-99143238D01*
X104824536Y-98997159D01*
X104728282Y-98871718D01*
X104728280Y-98871716D01*
X104728279Y-98871715D01*
X104674012Y-98830074D01*
X104632810Y-98773646D01*
X104625500Y-98731699D01*
X104625500Y-98124500D01*
X104645185Y-98057461D01*
X104697989Y-98011706D01*
X104749500Y-98000500D01*
X104890260Y-98000500D01*
X104919849Y-97997725D01*
X104919848Y-97997725D01*
X105044475Y-97954116D01*
X105150711Y-97875711D01*
X105150726Y-97875690D01*
X105150748Y-97875673D01*
X105157282Y-97869140D01*
X105158175Y-97870033D01*
X105206369Y-97833437D01*
X105276025Y-97827975D01*
X105337576Y-97861038D01*
X105371481Y-97922130D01*
X105374499Y-97949319D01*
X105374499Y-100113811D01*
X105354814Y-100180850D01*
X105338180Y-100201492D01*
X104701493Y-100838181D01*
X104640170Y-100871666D01*
X104613812Y-100874500D01*
X101574500Y-100874500D01*
X101507461Y-100854815D01*
X101461706Y-100802011D01*
X101450500Y-100750500D01*
X101450500Y-100316739D01*
X101440573Y-100248608D01*
X101436448Y-100240170D01*
X101389198Y-100143517D01*
X101389196Y-100143515D01*
X101389196Y-100143514D01*
X101306485Y-100060803D01*
X101201391Y-100009426D01*
X101133261Y-99999500D01*
X101133260Y-99999500D01*
X100766740Y-99999500D01*
X100766739Y-99999500D01*
X100698608Y-100009426D01*
X100593514Y-100060803D01*
X100510803Y-100143514D01*
X100459426Y-100248608D01*
X100449500Y-100316739D01*
X100449500Y-101558260D01*
X100459426Y-101626391D01*
X100510803Y-101731485D01*
X100593514Y-101814196D01*
X100593515Y-101814196D01*
X100593517Y-101814198D01*
X100698607Y-101865573D01*
X100732673Y-101870536D01*
X100766739Y-101875500D01*
X100766740Y-101875500D01*
X101133261Y-101875500D01*
X101155970Y-101872191D01*
X101201393Y-101865573D01*
X101306483Y-101814198D01*
X101389198Y-101731483D01*
X101440573Y-101626393D01*
X101440573Y-101626391D01*
X101440574Y-101626390D01*
X101443416Y-101617193D01*
X101446060Y-101618010D01*
X101468946Y-101568132D01*
X101527790Y-101530461D01*
X101562515Y-101525500D01*
X103160988Y-101525500D01*
X103228027Y-101545185D01*
X103273782Y-101597989D01*
X103283726Y-101667147D01*
X103275549Y-101696952D01*
X103214957Y-101843234D01*
X103214955Y-101843239D01*
X103194318Y-101999998D01*
X103194318Y-102000001D01*
X103214955Y-102156760D01*
X103214956Y-102156762D01*
X103275464Y-102302842D01*
X103376666Y-102434731D01*
X103375327Y-102435758D01*
X103404163Y-102488555D01*
X103407000Y-102514926D01*
X103407000Y-102565464D01*
X103387315Y-102632503D01*
X103337461Y-102676864D01*
X103235569Y-102726676D01*
X103235568Y-102726678D01*
X103151678Y-102810568D01*
X103151676Y-102810569D01*
X103099567Y-102917157D01*
X103095791Y-102943071D01*
X103089500Y-102986258D01*
X103089500Y-103478742D01*
X103096172Y-103524536D01*
X103099567Y-103547842D01*
X103151676Y-103654430D01*
X103209565Y-103712319D01*
X103243050Y-103773642D01*
X103238066Y-103843334D01*
X103209565Y-103887681D01*
X103151678Y-103945568D01*
X103151676Y-103945569D01*
X103099567Y-104052157D01*
X103096717Y-104071719D01*
X103089500Y-104121258D01*
X103089500Y-104121262D01*
X103089500Y-104121263D01*
X103089500Y-104263000D01*
X103069815Y-104330039D01*
X103017011Y-104375794D01*
X102965500Y-104387000D01*
X101663104Y-104387000D01*
X101596065Y-104367315D01*
X101550310Y-104314511D01*
X101546063Y-104303956D01*
X101539445Y-104285043D01*
X101529116Y-104255525D01*
X101512249Y-104232671D01*
X101450711Y-104149289D01*
X101450710Y-104149288D01*
X101344476Y-104070884D01*
X101219848Y-104027274D01*
X101219849Y-104027274D01*
X101190260Y-104024500D01*
X101190256Y-104024500D01*
X100609744Y-104024500D01*
X100609740Y-104024500D01*
X100580150Y-104027274D01*
X100455523Y-104070884D01*
X100349290Y-104149287D01*
X100318931Y-104190422D01*
X100263282Y-104232671D01*
X100193626Y-104238128D01*
X100132077Y-104205060D01*
X100120786Y-104192272D01*
X100119366Y-104190422D01*
X100071684Y-104128281D01*
X100028283Y-104071719D01*
X100002793Y-104052160D01*
X99902841Y-103975464D01*
X99756762Y-103914956D01*
X99756760Y-103914955D01*
X99600001Y-103894318D01*
X99599999Y-103894318D01*
X99443239Y-103914955D01*
X99443237Y-103914956D01*
X99297160Y-103975463D01*
X99171718Y-104071718D01*
X99075463Y-104197160D01*
X99014956Y-104343237D01*
X99014955Y-104343239D01*
X98994318Y-104499998D01*
X98994318Y-104500001D01*
X99014955Y-104656760D01*
X99014956Y-104656762D01*
X99073664Y-104798497D01*
X99075464Y-104802841D01*
X99171718Y-104928282D01*
X99297159Y-105024536D01*
X99443238Y-105085044D01*
X99521619Y-105095362D01*
X99599999Y-105105682D01*
X99600000Y-105105682D01*
X99600001Y-105105682D01*
X99652253Y-105098802D01*
X99756762Y-105085044D01*
X99847548Y-105047438D01*
X99895001Y-105038000D01*
X100136896Y-105038000D01*
X100203935Y-105057685D01*
X100249690Y-105110489D01*
X100253937Y-105121044D01*
X100270884Y-105169476D01*
X100349288Y-105275710D01*
X100349289Y-105275711D01*
X100455523Y-105354115D01*
X100455524Y-105354115D01*
X100455525Y-105354116D01*
X100580151Y-105397725D01*
X100580150Y-105397725D01*
X100609740Y-105400500D01*
X100609744Y-105400500D01*
X101190260Y-105400500D01*
X101219849Y-105397725D01*
X101244029Y-105389264D01*
X101344475Y-105354116D01*
X101450711Y-105275711D01*
X101529116Y-105169475D01*
X101546062Y-105121044D01*
X101586785Y-105064269D01*
X101651738Y-105038522D01*
X101663104Y-105038000D01*
X103238078Y-105038000D01*
X103243481Y-105038235D01*
X103283807Y-105041764D01*
X103322940Y-105031277D01*
X103328162Y-105030119D01*
X103368045Y-105023088D01*
X103368050Y-105023084D01*
X103373099Y-105021247D01*
X103389824Y-105014319D01*
X103394679Y-105012055D01*
X103394684Y-105012054D01*
X103427851Y-104988828D01*
X103432399Y-104985933D01*
X103467455Y-104965694D01*
X103467458Y-104965691D01*
X103468870Y-104964507D01*
X103471512Y-104963350D01*
X103476850Y-104960269D01*
X103477193Y-104960864D01*
X103532879Y-104936497D01*
X103548571Y-104935500D01*
X103788736Y-104935500D01*
X103788742Y-104935500D01*
X103857840Y-104925433D01*
X103964429Y-104873324D01*
X103964430Y-104873323D01*
X103964432Y-104873322D01*
X104048322Y-104789432D01*
X104048323Y-104789430D01*
X104048324Y-104789429D01*
X104100433Y-104682840D01*
X104110500Y-104613742D01*
X104110500Y-104121258D01*
X104100433Y-104052160D01*
X104097023Y-104045185D01*
X104048323Y-103945569D01*
X103990435Y-103887681D01*
X103956950Y-103826358D01*
X103961934Y-103756666D01*
X103990435Y-103712319D01*
X104048322Y-103654432D01*
X104048323Y-103654430D01*
X104048322Y-103654429D01*
X104048324Y-103654429D01*
X104100433Y-103547840D01*
X104110500Y-103478742D01*
X104110500Y-102986258D01*
X104100433Y-102917160D01*
X104092044Y-102900001D01*
X104070600Y-102856136D01*
X104058000Y-102801675D01*
X104058000Y-102620093D01*
X104077685Y-102553054D01*
X104106512Y-102521719D01*
X104228282Y-102428282D01*
X104324536Y-102302841D01*
X104385044Y-102156762D01*
X104405682Y-102000000D01*
X104397722Y-101939541D01*
X104385044Y-101843239D01*
X104385042Y-101843234D01*
X104380975Y-101833416D01*
X104356195Y-101773590D01*
X104324451Y-101696952D01*
X104316982Y-101627483D01*
X104348257Y-101565004D01*
X104408346Y-101529352D01*
X104439012Y-101525500D01*
X104783078Y-101525500D01*
X104788481Y-101525735D01*
X104828807Y-101529264D01*
X104867940Y-101518777D01*
X104873162Y-101517619D01*
X104913045Y-101510588D01*
X104913050Y-101510584D01*
X104918099Y-101508747D01*
X104934824Y-101501819D01*
X104939681Y-101499554D01*
X104939684Y-101499554D01*
X104972841Y-101476335D01*
X104977390Y-101473438D01*
X105012455Y-101453194D01*
X105015733Y-101449288D01*
X105038476Y-101422182D01*
X105042122Y-101418202D01*
X105918210Y-100542115D01*
X105922172Y-100538484D01*
X105953194Y-100512455D01*
X105964984Y-100492032D01*
X106015549Y-100443817D01*
X106084156Y-100430592D01*
X106149021Y-100456558D01*
X106183381Y-100504007D01*
X106183991Y-100503655D01*
X106187390Y-100509543D01*
X106188894Y-100511620D01*
X106189411Y-100513041D01*
X106189412Y-100513045D01*
X106189413Y-100513047D01*
X106191241Y-100518069D01*
X106198197Y-100534861D01*
X106200445Y-100539681D01*
X106200446Y-100539684D01*
X106202156Y-100542126D01*
X106223655Y-100572831D01*
X106226561Y-100577392D01*
X106246806Y-100612455D01*
X106277815Y-100638475D01*
X106281805Y-100642131D01*
X108377863Y-102738189D01*
X108381518Y-102742178D01*
X108407541Y-102773190D01*
X108407542Y-102773191D01*
X108407545Y-102773194D01*
X108442607Y-102793437D01*
X108447161Y-102796339D01*
X108461444Y-102806340D01*
X108505070Y-102860915D01*
X108508983Y-102871920D01*
X108524767Y-102923953D01*
X108557283Y-102984786D01*
X108622315Y-103106450D01*
X108622317Y-103106452D01*
X108753589Y-103266410D01*
X108848713Y-103344475D01*
X108913550Y-103397685D01*
X109096046Y-103495232D01*
X109294066Y-103555300D01*
X109294065Y-103555300D01*
X109312529Y-103557118D01*
X109500000Y-103575583D01*
X109705934Y-103555300D01*
X109903954Y-103495232D01*
X110086450Y-103397685D01*
X110246410Y-103266410D01*
X110377685Y-103106450D01*
X110475232Y-102923954D01*
X110535300Y-102725934D01*
X110555583Y-102520000D01*
X110535300Y-102314066D01*
X110475232Y-102116046D01*
X110377685Y-101933550D01*
X110314974Y-101857136D01*
X110246410Y-101773589D01*
X110086452Y-101642317D01*
X110086453Y-101642317D01*
X110086450Y-101642315D01*
X109903954Y-101544768D01*
X109705934Y-101484700D01*
X109705932Y-101484699D01*
X109705934Y-101484699D01*
X109500000Y-101464417D01*
X109294067Y-101484699D01*
X109096043Y-101544769D01*
X108996477Y-101597989D01*
X108913550Y-101642315D01*
X108913548Y-101642316D01*
X108913547Y-101642317D01*
X108753589Y-101773590D01*
X108651212Y-101898336D01*
X108593466Y-101937670D01*
X108523621Y-101939541D01*
X108467678Y-101907352D01*
X106861819Y-100301493D01*
X106828334Y-100240170D01*
X106825500Y-100213812D01*
X106825500Y-98065188D01*
X106845185Y-97998149D01*
X106897989Y-97952394D01*
X106967147Y-97942450D01*
X107030703Y-97971475D01*
X107037181Y-97977507D01*
X108498678Y-99439005D01*
X108532163Y-99500328D01*
X108527179Y-99570020D01*
X108525561Y-99574132D01*
X108524770Y-99576041D01*
X108464699Y-99774067D01*
X108444417Y-99980000D01*
X108464699Y-100185932D01*
X108485103Y-100253194D01*
X108524768Y-100383954D01*
X108622315Y-100566450D01*
X108622317Y-100566452D01*
X108753589Y-100726410D01*
X108845711Y-100802011D01*
X108913550Y-100857685D01*
X109096046Y-100955232D01*
X109294066Y-101015300D01*
X109294065Y-101015300D01*
X109314347Y-101017297D01*
X109500000Y-101035583D01*
X109705934Y-101015300D01*
X109903954Y-100955232D01*
X110086450Y-100857685D01*
X110246410Y-100726410D01*
X110377685Y-100566450D01*
X110475232Y-100383954D01*
X110535300Y-100185934D01*
X110555583Y-99980000D01*
X110535300Y-99774066D01*
X110475232Y-99576046D01*
X110377685Y-99393550D01*
X110300911Y-99300000D01*
X110246410Y-99233589D01*
X110086452Y-99102317D01*
X110086453Y-99102317D01*
X110086450Y-99102315D01*
X109903954Y-99004768D01*
X109705934Y-98944700D01*
X109705932Y-98944699D01*
X109705934Y-98944699D01*
X109500000Y-98924417D01*
X109294067Y-98944699D01*
X109182054Y-98978678D01*
X109096046Y-99004768D01*
X109096043Y-99004769D01*
X109096041Y-99004770D01*
X109094132Y-99005561D01*
X109093051Y-99005677D01*
X109090217Y-99006537D01*
X109090053Y-99005999D01*
X109024662Y-99013026D01*
X108962185Y-98981747D01*
X108959005Y-98978678D01*
X107561819Y-97581491D01*
X107528334Y-97520168D01*
X107525500Y-97493810D01*
X107525500Y-96585188D01*
X107545185Y-96518149D01*
X107597989Y-96472394D01*
X107667147Y-96462450D01*
X107730703Y-96491475D01*
X107737178Y-96497504D01*
X108093220Y-96853547D01*
X108424040Y-97184367D01*
X108457525Y-97245690D01*
X108459762Y-97284202D01*
X108444417Y-97440000D01*
X108464699Y-97645932D01*
X108481938Y-97702760D01*
X108524768Y-97843954D01*
X108622315Y-98026450D01*
X108647765Y-98057461D01*
X108753589Y-98186410D01*
X108850209Y-98265702D01*
X108913550Y-98317685D01*
X109096046Y-98415232D01*
X109294066Y-98475300D01*
X109294065Y-98475300D01*
X109312529Y-98477118D01*
X109500000Y-98495583D01*
X109705934Y-98475300D01*
X109903954Y-98415232D01*
X110086450Y-98317685D01*
X110246410Y-98186410D01*
X110377685Y-98026450D01*
X110475232Y-97843954D01*
X110475234Y-97843945D01*
X110476021Y-97842049D01*
X110476701Y-97841203D01*
X110478104Y-97838581D01*
X110478601Y-97838846D01*
X110519862Y-97787645D01*
X110586156Y-97765579D01*
X110590583Y-97765500D01*
X111350893Y-97765500D01*
X111417932Y-97785185D01*
X111463687Y-97837989D01*
X111467934Y-97848545D01*
X111470884Y-97856975D01*
X111470884Y-97856976D01*
X111549288Y-97963210D01*
X111549289Y-97963211D01*
X111655523Y-98041615D01*
X111655524Y-98041615D01*
X111655525Y-98041616D01*
X111780151Y-98085225D01*
X111780150Y-98085225D01*
X111809740Y-98088000D01*
X111809744Y-98088000D01*
X112390260Y-98088000D01*
X112419849Y-98085225D01*
X112419848Y-98085224D01*
X112544475Y-98041616D01*
X112650711Y-97963211D01*
X112729116Y-97856975D01*
X112772725Y-97732349D01*
X112775500Y-97702756D01*
X112775500Y-97097244D01*
X112775272Y-97094815D01*
X112772725Y-97067650D01*
X112742107Y-96980150D01*
X112729116Y-96943025D01*
X112697731Y-96900500D01*
X112650711Y-96836789D01*
X112650710Y-96836788D01*
X112544476Y-96758384D01*
X112419848Y-96714774D01*
X112419849Y-96714774D01*
X112390260Y-96712000D01*
X112390256Y-96712000D01*
X111809744Y-96712000D01*
X111809740Y-96712000D01*
X111780150Y-96714774D01*
X111655523Y-96758384D01*
X111549289Y-96836788D01*
X111549288Y-96836789D01*
X111470884Y-96943023D01*
X111439940Y-97031456D01*
X111399218Y-97088231D01*
X111334265Y-97113978D01*
X111322899Y-97114500D01*
X110590583Y-97114500D01*
X110523544Y-97094815D01*
X110477789Y-97042011D01*
X110476021Y-97037951D01*
X110475233Y-97036051D01*
X110475232Y-97036046D01*
X110377685Y-96853550D01*
X110299585Y-96758384D01*
X110246410Y-96693589D01*
X110104430Y-96577071D01*
X110086450Y-96562315D01*
X109903954Y-96464768D01*
X109705934Y-96404700D01*
X109705932Y-96404699D01*
X109705934Y-96404699D01*
X109518463Y-96386235D01*
X109500000Y-96384417D01*
X109499999Y-96384417D01*
X109294067Y-96404699D01*
X109096041Y-96464769D01*
X108913555Y-96562311D01*
X108913550Y-96562314D01*
X108913550Y-96562315D01*
X108902913Y-96571045D01*
X108895570Y-96577071D01*
X108831260Y-96604383D01*
X108762392Y-96592591D01*
X108729225Y-96568898D01*
X108161819Y-96001492D01*
X108128334Y-95940169D01*
X108125500Y-95913811D01*
X108125500Y-93016909D01*
X108125736Y-93011502D01*
X108126495Y-93002833D01*
X108129263Y-92971193D01*
X108129262Y-92971192D01*
X108129263Y-92971191D01*
X108118786Y-92932092D01*
X108117617Y-92926824D01*
X108110588Y-92886955D01*
X108110587Y-92886954D01*
X108110587Y-92886951D01*
X108108765Y-92881947D01*
X108101815Y-92865168D01*
X108099554Y-92860319D01*
X108099553Y-92860318D01*
X108099553Y-92860316D01*
X108076333Y-92827154D01*
X108073435Y-92822604D01*
X108069845Y-92816387D01*
X108053194Y-92787545D01*
X108053191Y-92787542D01*
X108053190Y-92787541D01*
X108029620Y-92767764D01*
X108022182Y-92761522D01*
X108018210Y-92757883D01*
X106277506Y-91017180D01*
X106244022Y-90955858D01*
X106249006Y-90886166D01*
X106290878Y-90830233D01*
X106356342Y-90805816D01*
X106365188Y-90805500D01*
X106733812Y-90805500D01*
X106800851Y-90825185D01*
X106821493Y-90841819D01*
X109138180Y-93158506D01*
X109171665Y-93219829D01*
X109174499Y-93246187D01*
X109174500Y-93725500D01*
X109154816Y-93792539D01*
X109102012Y-93838294D01*
X109050500Y-93849500D01*
X108630247Y-93849500D01*
X108571770Y-93861131D01*
X108571769Y-93861132D01*
X108505447Y-93905447D01*
X108461132Y-93971769D01*
X108461131Y-93971770D01*
X108449500Y-94030247D01*
X108449500Y-95769752D01*
X108461131Y-95828229D01*
X108461132Y-95828230D01*
X108505447Y-95894552D01*
X108571769Y-95938867D01*
X108571770Y-95938868D01*
X108630247Y-95950499D01*
X108630250Y-95950500D01*
X108630252Y-95950500D01*
X110369750Y-95950500D01*
X110369751Y-95950499D01*
X110384568Y-95947552D01*
X110428229Y-95938868D01*
X110428229Y-95938867D01*
X110428231Y-95938867D01*
X110494552Y-95894552D01*
X110505772Y-95877760D01*
X111424500Y-95877760D01*
X111427274Y-95907349D01*
X111470884Y-96031976D01*
X111549288Y-96138210D01*
X111549289Y-96138211D01*
X111655523Y-96216615D01*
X111655524Y-96216615D01*
X111655525Y-96216616D01*
X111780151Y-96260225D01*
X111780150Y-96260225D01*
X111809740Y-96263000D01*
X111809744Y-96263000D01*
X112390260Y-96263000D01*
X112419849Y-96260225D01*
X112544475Y-96216616D01*
X112650711Y-96138211D01*
X112729116Y-96031975D01*
X112772725Y-95907349D01*
X112775500Y-95877756D01*
X112775500Y-95272244D01*
X112775266Y-95269752D01*
X112772725Y-95242650D01*
X112742300Y-95155702D01*
X112729116Y-95118025D01*
X112700078Y-95078680D01*
X112650711Y-95011789D01*
X112650710Y-95011788D01*
X112544476Y-94933384D01*
X112544477Y-94933384D01*
X112508544Y-94920811D01*
X112451769Y-94880089D01*
X112426022Y-94815136D01*
X112425500Y-94803770D01*
X112425500Y-94383730D01*
X112445185Y-94316691D01*
X112497989Y-94270936D01*
X112508546Y-94266688D01*
X112544475Y-94254116D01*
X112650711Y-94175711D01*
X112729116Y-94069475D01*
X112772725Y-93944849D01*
X112774638Y-93924448D01*
X112775500Y-93915260D01*
X112775500Y-93234739D01*
X112772725Y-93205150D01*
X112729115Y-93080523D01*
X112650711Y-92974289D01*
X112650710Y-92974288D01*
X112544476Y-92895884D01*
X112419848Y-92852274D01*
X112419849Y-92852274D01*
X112390260Y-92849500D01*
X112390256Y-92849500D01*
X111809744Y-92849500D01*
X111809740Y-92849500D01*
X111780150Y-92852274D01*
X111655523Y-92895884D01*
X111549289Y-92974288D01*
X111549288Y-92974289D01*
X111470884Y-93080523D01*
X111427274Y-93205150D01*
X111424500Y-93234739D01*
X111424500Y-93915260D01*
X111427274Y-93944849D01*
X111470884Y-94069476D01*
X111549288Y-94175710D01*
X111549289Y-94175711D01*
X111655522Y-94254114D01*
X111655525Y-94254116D01*
X111691454Y-94266688D01*
X111748230Y-94307410D01*
X111773978Y-94372362D01*
X111774500Y-94383730D01*
X111774500Y-94803770D01*
X111754815Y-94870809D01*
X111702011Y-94916564D01*
X111691456Y-94920811D01*
X111655523Y-94933384D01*
X111549289Y-95011788D01*
X111549288Y-95011789D01*
X111470884Y-95118023D01*
X111427274Y-95242650D01*
X111424500Y-95272239D01*
X111424500Y-95877760D01*
X110505772Y-95877760D01*
X110538867Y-95828231D01*
X110538867Y-95828229D01*
X110538868Y-95828229D01*
X110548453Y-95780039D01*
X110550500Y-95769748D01*
X110550500Y-94030252D01*
X110550500Y-94030249D01*
X110550499Y-94030247D01*
X110538868Y-93971770D01*
X110538867Y-93971769D01*
X110494552Y-93905447D01*
X110428230Y-93861132D01*
X110428229Y-93861131D01*
X110369752Y-93849500D01*
X110369748Y-93849500D01*
X109949500Y-93849500D01*
X109882461Y-93829815D01*
X109836706Y-93777011D01*
X109825500Y-93725500D01*
X109825500Y-93076920D01*
X109825736Y-93071513D01*
X109826226Y-93065921D01*
X109829264Y-93031193D01*
X109829263Y-93031192D01*
X109829264Y-93031191D01*
X109828800Y-93025894D01*
X109825500Y-93000820D01*
X109825500Y-92886187D01*
X109845185Y-92819148D01*
X109861814Y-92798511D01*
X112048506Y-90611819D01*
X112109830Y-90578334D01*
X112136188Y-90575500D01*
X112390260Y-90575500D01*
X112419849Y-90572725D01*
X112419848Y-90572724D01*
X112544475Y-90529116D01*
X112650711Y-90450711D01*
X112729116Y-90344475D01*
X112772725Y-90219849D01*
X112775500Y-90190256D01*
X112775500Y-89609744D01*
X112775372Y-89608384D01*
X112772725Y-89580150D01*
X112740320Y-89487545D01*
X112729116Y-89455525D01*
X112727706Y-89453615D01*
X112650711Y-89349289D01*
X112650710Y-89349288D01*
X112544476Y-89270884D01*
X112419848Y-89227274D01*
X112419849Y-89227274D01*
X112390260Y-89224500D01*
X112390256Y-89224500D01*
X111784744Y-89224500D01*
X111784740Y-89224500D01*
X111755150Y-89227274D01*
X111630523Y-89270884D01*
X111524289Y-89349288D01*
X111524288Y-89349289D01*
X111445884Y-89455523D01*
X111402274Y-89580150D01*
X111399500Y-89609739D01*
X111399500Y-90190260D01*
X111402274Y-90219848D01*
X111402274Y-90219850D01*
X111407011Y-90233385D01*
X111410573Y-90303164D01*
X111377651Y-90362021D01*
X109407680Y-92331992D01*
X109346357Y-92365477D01*
X109276665Y-92360493D01*
X109232320Y-92331993D01*
X107162119Y-90261793D01*
X107158474Y-90257814D01*
X107132456Y-90226807D01*
X107132455Y-90226806D01*
X107120404Y-90219848D01*
X107097392Y-90206561D01*
X107092831Y-90203655D01*
X107073694Y-90190256D01*
X107059684Y-90180446D01*
X107059681Y-90180445D01*
X107054861Y-90178197D01*
X107038055Y-90171235D01*
X107033043Y-90169411D01*
X106993190Y-90162383D01*
X106987910Y-90161212D01*
X106948808Y-90150735D01*
X106913892Y-90153790D01*
X106908481Y-90154264D01*
X106903078Y-90154500D01*
X105269500Y-90154500D01*
X105202461Y-90134815D01*
X105156706Y-90082011D01*
X105145500Y-90030501D01*
X105145499Y-89929501D01*
X105165183Y-89862462D01*
X105217986Y-89816706D01*
X105269499Y-89805500D01*
X107538000Y-89805500D01*
X107605039Y-89825185D01*
X107650794Y-89877989D01*
X107662000Y-89929500D01*
X107662000Y-90190260D01*
X107664774Y-90219849D01*
X107708384Y-90344476D01*
X107786788Y-90450710D01*
X107786789Y-90450711D01*
X107893023Y-90529115D01*
X107893024Y-90529115D01*
X107893025Y-90529116D01*
X108017651Y-90572725D01*
X108017650Y-90572725D01*
X108047240Y-90575500D01*
X108047244Y-90575500D01*
X108752760Y-90575500D01*
X108782349Y-90572725D01*
X108782348Y-90572724D01*
X108906975Y-90529116D01*
X109013211Y-90450711D01*
X109091616Y-90344475D01*
X109135225Y-90219849D01*
X109138000Y-90190256D01*
X109138000Y-89609744D01*
X109137872Y-89608384D01*
X109135225Y-89580150D01*
X109102820Y-89487545D01*
X109091616Y-89455525D01*
X109090206Y-89453615D01*
X109013211Y-89349289D01*
X109013210Y-89349288D01*
X108906976Y-89270884D01*
X108782348Y-89227274D01*
X108782349Y-89227274D01*
X108752760Y-89224500D01*
X108752756Y-89224500D01*
X108221697Y-89224500D01*
X108154658Y-89204815D01*
X108150576Y-89202076D01*
X108119684Y-89180446D01*
X108114861Y-89178197D01*
X108098055Y-89171235D01*
X108093043Y-89169411D01*
X108053190Y-89162383D01*
X108047910Y-89161212D01*
X108008808Y-89150735D01*
X107973892Y-89153790D01*
X107968481Y-89154264D01*
X107963078Y-89154500D01*
X104106602Y-89154500D01*
X104029881Y-89169760D01*
X104029879Y-89169761D01*
X103942888Y-89227888D01*
X103884760Y-89314883D01*
X103884758Y-89314887D01*
X103869500Y-89391595D01*
X103869500Y-89568398D01*
X103884760Y-89645119D01*
X103895446Y-89661111D01*
X103916323Y-89727788D01*
X103897837Y-89795168D01*
X103895446Y-89798889D01*
X103884759Y-89814882D01*
X103869500Y-89891596D01*
X103869500Y-90068398D01*
X103884760Y-90145119D01*
X103895446Y-90161111D01*
X103916323Y-90227788D01*
X103897837Y-90295168D01*
X103895446Y-90298889D01*
X103884759Y-90314882D01*
X103869500Y-90391596D01*
X103869500Y-90568398D01*
X103884760Y-90645119D01*
X103895446Y-90661111D01*
X103916323Y-90727788D01*
X103897837Y-90795168D01*
X103895446Y-90798889D01*
X103884759Y-90814882D01*
X103869499Y-90891596D01*
X103869500Y-90905500D01*
X103849815Y-90972539D01*
X103797011Y-91018294D01*
X103745506Y-91029500D01*
X103731602Y-91029500D01*
X103654880Y-91044760D01*
X103638889Y-91055446D01*
X103572212Y-91076323D01*
X103504832Y-91057837D01*
X103501111Y-91055446D01*
X103485117Y-91044759D01*
X103408403Y-91029500D01*
X103231601Y-91029500D01*
X103154880Y-91044760D01*
X103138889Y-91055446D01*
X103072212Y-91076323D01*
X103004832Y-91057837D01*
X103001111Y-91055446D01*
X102985117Y-91044759D01*
X102908403Y-91029500D01*
X102731601Y-91029500D01*
X102654880Y-91044760D01*
X102638889Y-91055446D01*
X102572212Y-91076323D01*
X102504832Y-91057837D01*
X102501111Y-91055446D01*
X102485117Y-91044759D01*
X102408403Y-91029500D01*
X102231601Y-91029500D01*
X102154880Y-91044760D01*
X102138889Y-91055446D01*
X102072212Y-91076323D01*
X102004832Y-91057837D01*
X102001111Y-91055446D01*
X101985117Y-91044759D01*
X101908403Y-91029500D01*
X101731601Y-91029500D01*
X101654880Y-91044760D01*
X101638889Y-91055446D01*
X101572212Y-91076323D01*
X101504832Y-91057837D01*
X101501111Y-91055446D01*
X101485117Y-91044759D01*
X101408403Y-91029500D01*
X101231601Y-91029500D01*
X101154880Y-91044760D01*
X101138889Y-91055446D01*
X101072212Y-91076323D01*
X101004832Y-91057837D01*
X101001111Y-91055446D01*
X100985117Y-91044759D01*
X100908403Y-91029500D01*
X100731601Y-91029500D01*
X100654880Y-91044760D01*
X100638889Y-91055446D01*
X100572212Y-91076323D01*
X100504832Y-91057837D01*
X100501111Y-91055446D01*
X100485117Y-91044759D01*
X100408403Y-91029500D01*
X100408401Y-91029500D01*
X100394499Y-91029500D01*
X100327460Y-91009815D01*
X100281705Y-90957011D01*
X100270499Y-90905500D01*
X100270499Y-90891602D01*
X100270499Y-90891600D01*
X100255240Y-90814883D01*
X100255239Y-90814881D01*
X100255238Y-90814878D01*
X100244555Y-90798891D01*
X100223676Y-90732214D01*
X100242160Y-90664833D01*
X100244517Y-90661164D01*
X100255240Y-90645117D01*
X100270500Y-90568401D01*
X100270499Y-90391600D01*
X100255240Y-90314883D01*
X100255239Y-90314881D01*
X100255238Y-90314878D01*
X100244555Y-90298891D01*
X100223676Y-90232214D01*
X100242160Y-90164833D01*
X100244517Y-90161164D01*
X100255240Y-90145117D01*
X100270500Y-90068401D01*
X100270499Y-89891600D01*
X100255240Y-89814883D01*
X100255239Y-89814881D01*
X100255238Y-89814879D01*
X100231861Y-89779894D01*
X100197112Y-89727888D01*
X100110117Y-89669760D01*
X100110115Y-89669759D01*
X100110112Y-89669758D01*
X100033404Y-89654500D01*
X100033401Y-89654500D01*
X99660977Y-89654500D01*
X99660975Y-89654500D01*
X99293180Y-89654500D01*
X99226141Y-89634815D01*
X99205499Y-89618181D01*
X99174999Y-89587681D01*
X99141514Y-89526358D01*
X99146498Y-89456666D01*
X99174999Y-89412319D01*
X99245499Y-89341819D01*
X99306822Y-89308334D01*
X99333180Y-89305500D01*
X99670965Y-89305500D01*
X99670977Y-89305499D01*
X100033398Y-89305499D01*
X100033400Y-89305499D01*
X100110117Y-89290240D01*
X100197112Y-89232112D01*
X100255240Y-89145117D01*
X100270500Y-89068401D01*
X100270499Y-88891600D01*
X100255240Y-88814883D01*
X100255239Y-88814881D01*
X100255238Y-88814879D01*
X100218494Y-88759889D01*
X100197112Y-88727888D01*
X100110117Y-88669760D01*
X100110115Y-88669759D01*
X100110112Y-88669758D01*
X100033404Y-88654500D01*
X100033401Y-88654500D01*
X99660977Y-88654500D01*
X99660975Y-88654500D01*
X99163914Y-88654500D01*
X99158510Y-88654264D01*
X99153099Y-88653790D01*
X99118184Y-88650735D01*
X99118183Y-88650735D01*
X99079083Y-88661212D01*
X99073803Y-88662383D01*
X99033951Y-88669410D01*
X99028953Y-88671229D01*
X99012109Y-88678206D01*
X99007305Y-88680446D01*
X98974158Y-88703656D01*
X98969598Y-88706562D01*
X98934540Y-88726804D01*
X98934532Y-88726810D01*
X98908515Y-88757815D01*
X98904861Y-88761804D01*
X98653534Y-89013130D01*
X98592211Y-89046615D01*
X98522519Y-89041631D01*
X98490367Y-89023825D01*
X98427342Y-88975464D01*
X98281262Y-88914956D01*
X98281260Y-88914955D01*
X98124501Y-88894318D01*
X98124499Y-88894318D01*
X97967739Y-88914955D01*
X97967737Y-88914956D01*
X97821660Y-88975463D01*
X97696218Y-89071718D01*
X97599963Y-89197160D01*
X97539456Y-89343237D01*
X97539455Y-89343239D01*
X97518818Y-89499998D01*
X97518818Y-89500001D01*
X97539455Y-89656760D01*
X97539456Y-89656762D01*
X97598828Y-89800100D01*
X97599964Y-89802841D01*
X97696218Y-89928282D01*
X97701227Y-89932126D01*
X97742429Y-89988554D01*
X97746583Y-90058300D01*
X97712369Y-90119220D01*
X97650652Y-90151972D01*
X97625739Y-90154500D01*
X91466922Y-90154500D01*
X91461518Y-90154264D01*
X91455617Y-90153747D01*
X91421191Y-90150735D01*
X91415893Y-90151199D01*
X91390819Y-90154500D01*
X86449500Y-90154500D01*
X86382461Y-90134815D01*
X86336706Y-90082011D01*
X86325500Y-90030500D01*
X86325500Y-89947239D01*
X86322725Y-89917650D01*
X86287402Y-89816706D01*
X86279116Y-89793025D01*
X86273225Y-89785043D01*
X86200711Y-89686789D01*
X86200710Y-89686788D01*
X86094476Y-89608384D01*
X85969848Y-89564774D01*
X85969849Y-89564774D01*
X85940260Y-89562000D01*
X85940256Y-89562000D01*
X85359744Y-89562000D01*
X85359740Y-89562000D01*
X85330150Y-89564774D01*
X85205523Y-89608384D01*
X85099289Y-89686788D01*
X85099288Y-89686789D01*
X85020884Y-89793023D01*
X84977274Y-89917650D01*
X84974500Y-89947239D01*
X84974500Y-90652760D01*
X84977274Y-90682349D01*
X85020884Y-90806976D01*
X85099288Y-90913210D01*
X85099289Y-90913211D01*
X85205523Y-90991615D01*
X85205524Y-90991615D01*
X85205525Y-90991616D01*
X85330151Y-91035225D01*
X85330150Y-91035225D01*
X85359740Y-91038000D01*
X85359744Y-91038000D01*
X85940260Y-91038000D01*
X85952093Y-91036890D01*
X85969849Y-91035225D01*
X85969858Y-91035221D01*
X85977218Y-91033615D01*
X85977425Y-91034566D01*
X86010405Y-91030431D01*
X86010386Y-91030209D01*
X86016325Y-91029689D01*
X86020333Y-91029187D01*
X86021184Y-91029260D01*
X86021193Y-91029263D01*
X86135545Y-91019259D01*
X86239579Y-90970747D01*
X86320747Y-90889579D01*
X86325720Y-90878913D01*
X86326569Y-90877094D01*
X86372743Y-90824655D01*
X86438951Y-90805500D01*
X90107061Y-90805500D01*
X90174100Y-90825185D01*
X90219855Y-90877989D01*
X90229799Y-90947147D01*
X90210163Y-90998391D01*
X90161132Y-91071769D01*
X90161131Y-91071770D01*
X90149500Y-91130247D01*
X90149500Y-92969752D01*
X90161131Y-93028229D01*
X90161132Y-93028230D01*
X90205447Y-93094552D01*
X90271769Y-93138867D01*
X90271770Y-93138868D01*
X90330247Y-93150499D01*
X90330250Y-93150500D01*
X90330252Y-93150500D01*
X92469750Y-93150500D01*
X92469751Y-93150499D01*
X92488319Y-93146806D01*
X92528229Y-93138868D01*
X92528229Y-93138867D01*
X92528231Y-93138867D01*
X92594552Y-93094552D01*
X92638867Y-93028231D01*
X92638867Y-93028229D01*
X92638868Y-93028229D01*
X92649908Y-92972725D01*
X92650500Y-92969748D01*
X92650500Y-91130252D01*
X92650500Y-91130249D01*
X92650499Y-91130247D01*
X92638868Y-91071770D01*
X92638867Y-91071769D01*
X92589837Y-90998391D01*
X92568959Y-90931714D01*
X92587443Y-90864334D01*
X92639422Y-90817643D01*
X92692939Y-90805500D01*
X93484812Y-90805500D01*
X93551851Y-90825185D01*
X93597606Y-90877989D01*
X93607550Y-90947147D01*
X93578525Y-91010703D01*
X93572493Y-91017181D01*
X93131802Y-91457870D01*
X93127814Y-91461525D01*
X93096805Y-91487545D01*
X93076562Y-91522606D01*
X93073656Y-91527166D01*
X93050446Y-91560313D01*
X93048206Y-91565117D01*
X93041229Y-91581961D01*
X93039410Y-91586959D01*
X93032383Y-91626811D01*
X93031212Y-91632091D01*
X93020735Y-91671191D01*
X93024264Y-91711513D01*
X93024500Y-91716920D01*
X93024500Y-95613811D01*
X93004815Y-95680850D01*
X92988185Y-95701487D01*
X92888991Y-95800682D01*
X92827671Y-95834166D01*
X92801312Y-95837000D01*
X88949500Y-95837000D01*
X88882461Y-95817315D01*
X88836706Y-95764511D01*
X88825500Y-95713000D01*
X88825500Y-95574500D01*
X88845185Y-95507461D01*
X88897989Y-95461706D01*
X88949500Y-95450500D01*
X89569750Y-95450500D01*
X89569751Y-95450499D01*
X89584568Y-95447552D01*
X89628229Y-95438868D01*
X89628229Y-95438867D01*
X89628231Y-95438867D01*
X89694552Y-95394552D01*
X89738867Y-95328231D01*
X89738867Y-95328229D01*
X89738868Y-95328229D01*
X89747552Y-95284568D01*
X89750500Y-95269748D01*
X89750500Y-93430252D01*
X89750500Y-93430251D01*
X89750500Y-93430249D01*
X89750499Y-93430247D01*
X89738868Y-93371770D01*
X89738867Y-93371769D01*
X89694552Y-93305447D01*
X89628230Y-93261132D01*
X89628229Y-93261131D01*
X89569752Y-93249500D01*
X89569748Y-93249500D01*
X87430252Y-93249500D01*
X87430247Y-93249500D01*
X87371770Y-93261131D01*
X87371769Y-93261132D01*
X87305447Y-93305447D01*
X87261132Y-93371769D01*
X87261131Y-93371770D01*
X87249500Y-93430247D01*
X87249500Y-95269752D01*
X87261131Y-95328229D01*
X87261132Y-95328230D01*
X87305447Y-95394552D01*
X87371769Y-95438867D01*
X87371770Y-95438868D01*
X87430247Y-95450499D01*
X87430250Y-95450500D01*
X87430252Y-95450500D01*
X88050500Y-95450500D01*
X88117539Y-95470185D01*
X88163294Y-95522989D01*
X88174500Y-95574500D01*
X88174500Y-95713000D01*
X88154815Y-95780039D01*
X88102011Y-95825794D01*
X88050500Y-95837000D01*
X86430600Y-95837000D01*
X86363561Y-95817315D01*
X86317806Y-95764511D01*
X86313559Y-95753955D01*
X86295201Y-95701492D01*
X86279116Y-95655525D01*
X86224664Y-95581745D01*
X86200711Y-95549289D01*
X86200710Y-95549288D01*
X86094476Y-95470884D01*
X85969848Y-95427274D01*
X85969849Y-95427274D01*
X85940260Y-95424500D01*
X85940256Y-95424500D01*
X85359744Y-95424500D01*
X85359740Y-95424500D01*
X85330150Y-95427274D01*
X85205523Y-95470884D01*
X85099289Y-95549288D01*
X85099288Y-95549289D01*
X85020884Y-95655523D01*
X84977274Y-95780150D01*
X84974500Y-95809739D01*
X84974500Y-96515260D01*
X84525500Y-96515260D01*
X84525500Y-89886188D01*
X84545185Y-89819149D01*
X84561819Y-89798507D01*
X87206007Y-87154319D01*
X87267330Y-87120834D01*
X87293688Y-87118000D01*
X96722310Y-87118000D01*
X96789349Y-87137685D01*
X96835104Y-87190489D01*
X96845048Y-87259647D01*
X96816023Y-87323203D01*
X96809991Y-87329681D01*
X95571684Y-88567988D01*
X95510361Y-88601473D01*
X95467818Y-88603246D01*
X95400001Y-88594318D01*
X95399999Y-88594318D01*
X95243239Y-88614955D01*
X95243237Y-88614956D01*
X95097160Y-88675463D01*
X94971718Y-88771718D01*
X94875463Y-88897160D01*
X94814956Y-89043237D01*
X94814955Y-89043239D01*
X94794318Y-89199998D01*
X94794318Y-89200001D01*
X94814955Y-89356760D01*
X94814956Y-89356762D01*
X94874287Y-89500001D01*
X94875464Y-89502841D01*
X94971718Y-89628282D01*
X95097159Y-89724536D01*
X95243238Y-89785044D01*
X95303845Y-89793023D01*
X95399999Y-89805682D01*
X95400000Y-89805682D01*
X95400001Y-89805682D01*
X95479862Y-89795168D01*
X95556762Y-89785044D01*
X95702841Y-89724536D01*
X95828282Y-89628282D01*
X95842224Y-89610112D01*
X95898650Y-89568909D01*
X95968396Y-89564752D01*
X96029317Y-89598963D01*
X96038971Y-89610105D01*
X96071718Y-89652782D01*
X96197159Y-89749036D01*
X96343238Y-89809544D01*
X96383792Y-89814883D01*
X96499999Y-89830182D01*
X96500000Y-89830182D01*
X96500001Y-89830182D01*
X96583804Y-89819149D01*
X96656762Y-89809544D01*
X96802841Y-89749036D01*
X96928282Y-89652782D01*
X97024536Y-89527341D01*
X97085044Y-89381262D01*
X97105682Y-89224500D01*
X97102456Y-89200001D01*
X97096753Y-89156680D01*
X97107518Y-89087645D01*
X97132008Y-89052816D01*
X97843006Y-88341819D01*
X97904330Y-88308334D01*
X97930688Y-88305500D01*
X99670965Y-88305500D01*
X99670977Y-88305499D01*
X100033398Y-88305499D01*
X100033400Y-88305499D01*
X100110117Y-88290240D01*
X100197112Y-88232112D01*
X100255240Y-88145117D01*
X100270500Y-88068401D01*
X100270499Y-87891600D01*
X100255240Y-87814883D01*
X100255239Y-87814881D01*
X100255238Y-87814878D01*
X100244555Y-87798891D01*
X100223676Y-87732214D01*
X100242160Y-87664833D01*
X100244517Y-87661164D01*
X100255240Y-87645117D01*
X100270499Y-87568404D01*
X100270500Y-87568404D01*
X100270500Y-87554499D01*
X100290185Y-87487460D01*
X100342989Y-87441705D01*
X100394500Y-87430499D01*
X100408398Y-87430499D01*
X100408400Y-87430499D01*
X100485117Y-87415240D01*
X100501109Y-87404553D01*
X100567783Y-87383676D01*
X100635164Y-87402159D01*
X100638891Y-87404555D01*
X100654882Y-87415240D01*
X100676299Y-87419500D01*
X100731599Y-87430500D01*
X100908400Y-87430499D01*
X100985117Y-87415240D01*
X101001109Y-87404553D01*
X101067783Y-87383676D01*
X101135164Y-87402159D01*
X101138891Y-87404555D01*
X101154882Y-87415240D01*
X101176299Y-87419500D01*
X101231599Y-87430500D01*
X101408400Y-87430499D01*
X101485117Y-87415240D01*
X101501109Y-87404553D01*
X101567783Y-87383676D01*
X101635164Y-87402159D01*
X101638891Y-87404555D01*
X101654882Y-87415240D01*
X101676299Y-87419500D01*
X101731599Y-87430500D01*
X101908400Y-87430499D01*
X101985117Y-87415240D01*
X102001109Y-87404553D01*
X102067783Y-87383676D01*
X102135164Y-87402159D01*
X102138891Y-87404555D01*
X102154882Y-87415240D01*
X102176299Y-87419500D01*
X102231599Y-87430500D01*
X102408400Y-87430499D01*
X102485117Y-87415240D01*
X102501109Y-87404553D01*
X102567783Y-87383676D01*
X102635164Y-87402159D01*
X102638891Y-87404555D01*
X102654882Y-87415240D01*
X102676299Y-87419500D01*
X102731599Y-87430500D01*
X102908400Y-87430499D01*
X102985117Y-87415240D01*
X103001109Y-87404553D01*
X103067783Y-87383676D01*
X103135164Y-87402159D01*
X103138891Y-87404555D01*
X103154882Y-87415240D01*
X103176299Y-87419500D01*
X103231599Y-87430500D01*
X103408400Y-87430499D01*
X103485117Y-87415240D01*
X103501109Y-87404553D01*
X103567783Y-87383676D01*
X103635164Y-87402159D01*
X103638891Y-87404555D01*
X103654882Y-87415240D01*
X103676299Y-87419500D01*
X103731599Y-87430500D01*
X103745497Y-87430499D01*
X103812534Y-87450180D01*
X103858292Y-87502982D01*
X103869500Y-87554493D01*
X103869500Y-87568397D01*
X103884760Y-87645119D01*
X103895446Y-87661111D01*
X103916323Y-87727788D01*
X103897837Y-87795168D01*
X103895446Y-87798889D01*
X103884759Y-87814882D01*
X103869500Y-87891596D01*
X103869500Y-88068398D01*
X103884760Y-88145119D01*
X103895446Y-88161111D01*
X103916323Y-88227788D01*
X103897837Y-88295168D01*
X103895446Y-88298889D01*
X103884759Y-88314882D01*
X103869500Y-88391596D01*
X103869500Y-88568398D01*
X103884760Y-88645118D01*
X103884761Y-88645120D01*
X103902207Y-88671229D01*
X103942888Y-88732112D01*
X104029883Y-88790240D01*
X104029886Y-88790240D01*
X104029887Y-88790241D01*
X104068241Y-88797869D01*
X104106599Y-88805500D01*
X104908400Y-88805499D01*
X104985117Y-88790240D01*
X105072112Y-88732112D01*
X105130240Y-88645117D01*
X105145500Y-88568401D01*
X105145499Y-88429500D01*
X105165183Y-88362461D01*
X105217987Y-88316706D01*
X105269499Y-88305500D01*
X107416354Y-88305500D01*
X107483393Y-88325185D01*
X107514727Y-88354010D01*
X107571718Y-88428282D01*
X107697159Y-88524536D01*
X107843238Y-88585044D01*
X107913681Y-88594318D01*
X107999999Y-88605682D01*
X108000000Y-88605682D01*
X108000001Y-88605682D01*
X108052254Y-88598802D01*
X108156762Y-88585044D01*
X108302841Y-88524536D01*
X108428282Y-88428282D01*
X108524536Y-88302841D01*
X108585044Y-88156762D01*
X108605682Y-88000000D01*
X108585044Y-87843238D01*
X108524536Y-87697159D01*
X108428282Y-87571718D01*
X108302841Y-87475464D01*
X108298524Y-87473676D01*
X108241800Y-87450180D01*
X108156762Y-87414956D01*
X108134191Y-87411984D01*
X108010951Y-87395759D01*
X107947055Y-87367492D01*
X107908584Y-87309167D01*
X107907753Y-87239303D01*
X107922038Y-87210785D01*
X107920472Y-87209881D01*
X107924534Y-87202843D01*
X107924536Y-87202841D01*
X107985044Y-87056762D01*
X108005682Y-86900000D01*
X107985044Y-86743238D01*
X107924536Y-86597159D01*
X107828282Y-86471718D01*
X107702841Y-86375464D01*
X107556762Y-86314956D01*
X107556760Y-86314955D01*
X107400001Y-86294318D01*
X107399999Y-86294318D01*
X107243239Y-86314955D01*
X107243237Y-86314956D01*
X107097160Y-86375463D01*
X106971716Y-86471719D01*
X106930077Y-86525986D01*
X106873649Y-86567189D01*
X106831701Y-86574500D01*
X105104422Y-86574500D01*
X105099018Y-86574264D01*
X105093607Y-86573790D01*
X105058692Y-86570735D01*
X105058691Y-86570735D01*
X105019591Y-86581212D01*
X105014311Y-86582383D01*
X104974459Y-86589410D01*
X104969461Y-86591229D01*
X104952617Y-86598206D01*
X104947813Y-86600446D01*
X104914666Y-86623656D01*
X104910106Y-86626562D01*
X104875048Y-86646804D01*
X104875045Y-86646806D01*
X104875043Y-86646808D01*
X104875041Y-86646810D01*
X104849024Y-86677815D01*
X104845369Y-86681804D01*
X104408992Y-87118181D01*
X104347669Y-87151666D01*
X104321311Y-87154500D01*
X104269499Y-87154500D01*
X104202460Y-87134815D01*
X104156705Y-87082011D01*
X104145499Y-87030500D01*
X104145499Y-86391602D01*
X104145499Y-86391600D01*
X104130240Y-86314883D01*
X104130239Y-86314881D01*
X104130238Y-86314879D01*
X104106861Y-86279894D01*
X104072112Y-86227888D01*
X103985117Y-86169760D01*
X103985115Y-86169759D01*
X103985112Y-86169758D01*
X103908404Y-86154500D01*
X103731601Y-86154500D01*
X103654880Y-86169760D01*
X103638889Y-86180446D01*
X103572212Y-86201323D01*
X103504832Y-86182837D01*
X103501111Y-86180446D01*
X103485117Y-86169759D01*
X103408403Y-86154500D01*
X103244500Y-86154500D01*
X103177461Y-86134815D01*
X103131706Y-86082011D01*
X103120500Y-86030500D01*
X103120500Y-85855832D01*
X103140185Y-85788793D01*
X103156815Y-85768155D01*
X103297072Y-85627897D01*
X103358395Y-85594413D01*
X103400936Y-85592640D01*
X103500000Y-85605682D01*
X103500001Y-85605682D01*
X103552253Y-85598802D01*
X103656762Y-85585044D01*
X103802841Y-85524536D01*
X103928282Y-85428282D01*
X104024536Y-85302841D01*
X104085044Y-85156762D01*
X104105682Y-85000000D01*
X104085044Y-84843238D01*
X104024536Y-84697159D01*
X103928282Y-84571718D01*
X103897860Y-84548374D01*
X103856658Y-84491949D01*
X103852503Y-84422203D01*
X103886714Y-84361282D01*
X103897851Y-84351631D01*
X103928282Y-84328282D01*
X104024536Y-84202841D01*
X104085044Y-84056762D01*
X104105682Y-83900000D01*
X104100528Y-83860854D01*
X104085044Y-83743239D01*
X104085044Y-83743238D01*
X104024536Y-83597159D01*
X103928282Y-83471718D01*
X103897860Y-83448374D01*
X103856658Y-83391949D01*
X103852503Y-83322203D01*
X103886714Y-83261282D01*
X103897851Y-83251631D01*
X103928282Y-83228282D01*
X104024536Y-83102841D01*
X104085044Y-82956762D01*
X104098802Y-82852253D01*
X104105682Y-82800001D01*
X104105682Y-82799998D01*
X104085044Y-82643239D01*
X104085044Y-82643238D01*
X104024536Y-82497159D01*
X103928282Y-82371718D01*
X103802841Y-82275464D01*
X103791424Y-82270735D01*
X103656762Y-82214956D01*
X103656760Y-82214955D01*
X103500001Y-82194318D01*
X103499999Y-82194318D01*
X103343239Y-82214955D01*
X103343237Y-82214956D01*
X103197160Y-82275463D01*
X103071718Y-82371718D01*
X102975463Y-82497160D01*
X102914956Y-82643237D01*
X102914955Y-82643239D01*
X102894318Y-82799998D01*
X102894318Y-82800001D01*
X102903246Y-82867818D01*
X102892480Y-82936853D01*
X102867988Y-82971684D01*
X101601803Y-84237870D01*
X101597814Y-84241525D01*
X101566805Y-84267545D01*
X101546562Y-84302606D01*
X101543656Y-84307166D01*
X101520446Y-84340313D01*
X101518206Y-84345117D01*
X101511229Y-84361961D01*
X101509410Y-84366959D01*
X101502383Y-84406811D01*
X101501212Y-84412091D01*
X101490735Y-84451191D01*
X101490735Y-84451194D01*
X101494263Y-84491515D01*
X101494499Y-84496920D01*
X101494500Y-86030500D01*
X101474815Y-86097539D01*
X101422012Y-86143294D01*
X101370500Y-86154500D01*
X101269500Y-86154500D01*
X101202461Y-86134815D01*
X101156706Y-86082011D01*
X101145500Y-86030500D01*
X101145500Y-80336909D01*
X101145736Y-80331502D01*
X101148990Y-80294318D01*
X101149263Y-80291193D01*
X101149262Y-80291192D01*
X101149263Y-80291191D01*
X101138786Y-80252092D01*
X101137617Y-80246824D01*
X101130588Y-80206955D01*
X101130587Y-80206954D01*
X101130587Y-80206951D01*
X101128765Y-80201947D01*
X101121815Y-80185168D01*
X101119554Y-80180319D01*
X101119553Y-80180318D01*
X101119553Y-80180316D01*
X101096333Y-80147154D01*
X101093435Y-80142604D01*
X101089845Y-80136387D01*
X101073194Y-80107545D01*
X101073191Y-80107542D01*
X101073190Y-80107541D01*
X101050936Y-80088868D01*
X101042182Y-80081522D01*
X101038210Y-80077883D01*
X100532010Y-79571684D01*
X100498526Y-79510362D01*
X100496753Y-79467818D01*
X100505682Y-79400000D01*
X100505682Y-79399998D01*
X100485044Y-79243239D01*
X100485044Y-79243238D01*
X100424536Y-79097159D01*
X100328282Y-78971718D01*
X100202841Y-78875464D01*
X100056762Y-78814956D01*
X100056760Y-78814955D01*
X99900001Y-78794318D01*
X99899999Y-78794318D01*
X99743239Y-78814955D01*
X99743237Y-78814956D01*
X99597160Y-78875463D01*
X99471718Y-78971718D01*
X99375463Y-79097160D01*
X99314956Y-79243237D01*
X99314955Y-79243239D01*
X99294318Y-79399998D01*
X99294318Y-79400001D01*
X99314955Y-79556760D01*
X99314956Y-79556762D01*
X99375464Y-79702841D01*
X99471718Y-79828282D01*
X99597159Y-79924536D01*
X99743238Y-79985044D01*
X99771548Y-79988771D01*
X99899999Y-80005682D01*
X99900000Y-80005682D01*
X99900001Y-80005682D01*
X99935708Y-80000980D01*
X99967818Y-79996753D01*
X100036853Y-80007518D01*
X100071685Y-80032011D01*
X100458181Y-80418507D01*
X100491666Y-80479830D01*
X100494500Y-80506188D01*
X100494500Y-86030500D01*
X100474815Y-86097539D01*
X100422011Y-86143294D01*
X100370501Y-86154500D01*
X100231601Y-86154500D01*
X100154881Y-86169760D01*
X100154879Y-86169761D01*
X100067888Y-86227888D01*
X100009760Y-86314883D01*
X100009758Y-86314887D01*
X99999354Y-86367192D01*
X99966969Y-86429103D01*
X99906253Y-86463677D01*
X99877737Y-86467000D01*
X87124422Y-86467000D01*
X87119018Y-86466764D01*
X87113607Y-86466290D01*
X87078692Y-86463235D01*
X87078691Y-86463235D01*
X87039591Y-86473712D01*
X87034311Y-86474883D01*
X86994459Y-86481910D01*
X86989461Y-86483729D01*
X86972617Y-86490706D01*
X86967813Y-86492946D01*
X86934666Y-86516156D01*
X86930106Y-86519062D01*
X86895048Y-86539304D01*
X86895040Y-86539310D01*
X86869023Y-86570315D01*
X86865369Y-86574304D01*
X83981803Y-89457870D01*
X83977814Y-89461525D01*
X83946805Y-89487545D01*
X83926562Y-89522606D01*
X83923656Y-89527166D01*
X83900446Y-89560313D01*
X83898206Y-89565117D01*
X83891229Y-89581961D01*
X83889410Y-89586959D01*
X83882383Y-89626811D01*
X83881212Y-89632091D01*
X83870735Y-89671191D01*
X83874264Y-89711513D01*
X83874500Y-89716920D01*
X83874500Y-97313812D01*
X83854815Y-97380851D01*
X83838181Y-97401493D01*
X81601493Y-99638181D01*
X81540170Y-99671666D01*
X81513812Y-99674500D01*
X80268299Y-99674500D01*
X80201260Y-99654815D01*
X80169923Y-99625986D01*
X80128283Y-99571719D01*
X80126069Y-99570020D01*
X80002841Y-99475464D01*
X79957690Y-99456762D01*
X79856762Y-99414956D01*
X79856760Y-99414955D01*
X79700001Y-99394318D01*
X79699999Y-99394318D01*
X79543239Y-99414955D01*
X79543237Y-99414956D01*
X79397160Y-99475463D01*
X79271718Y-99571718D01*
X79175463Y-99697160D01*
X79114956Y-99843237D01*
X79114955Y-99843239D01*
X79094318Y-99999998D01*
X79094318Y-100000001D01*
X75525500Y-100000001D01*
X75525500Y-97139273D01*
X75545185Y-97072234D01*
X75597989Y-97026479D01*
X75667147Y-97016535D01*
X75730703Y-97045560D01*
X75733022Y-97047622D01*
X75803698Y-97112052D01*
X75984981Y-97224298D01*
X76183802Y-97301321D01*
X76393390Y-97340500D01*
X76393392Y-97340500D01*
X76606608Y-97340500D01*
X76606610Y-97340500D01*
X76816198Y-97301321D01*
X77015019Y-97224298D01*
X77196302Y-97112052D01*
X77353872Y-96968407D01*
X77482366Y-96798255D01*
X77487236Y-96788474D01*
X77577403Y-96607394D01*
X77577403Y-96607393D01*
X77577405Y-96607389D01*
X77635756Y-96402310D01*
X77655429Y-96190000D01*
X77635756Y-95977690D01*
X77577405Y-95772611D01*
X77577403Y-95772606D01*
X77577403Y-95772605D01*
X77482367Y-95581746D01*
X77353872Y-95411593D01*
X77333504Y-95393025D01*
X77196302Y-95267948D01*
X77015019Y-95155702D01*
X77015017Y-95155701D01*
X76915608Y-95117190D01*
X76816198Y-95078679D01*
X76619385Y-95041888D01*
X76557106Y-95010221D01*
X76521833Y-94949908D01*
X76524767Y-94880100D01*
X76564976Y-94822960D01*
X76619384Y-94798111D01*
X76816198Y-94761321D01*
X77015019Y-94684298D01*
X77196302Y-94572052D01*
X77353872Y-94428407D01*
X77482366Y-94258255D01*
X77524522Y-94173593D01*
X77577403Y-94067394D01*
X77577403Y-94067393D01*
X77577405Y-94067389D01*
X77635756Y-93862310D01*
X77655429Y-93650000D01*
X77635756Y-93437690D01*
X77577405Y-93232611D01*
X77577403Y-93232606D01*
X77577403Y-93232604D01*
X77534172Y-93145785D01*
X77521911Y-93077000D01*
X77548784Y-93012505D01*
X77557481Y-93002843D01*
X92999318Y-77561006D01*
X93060639Y-77527523D01*
X93130331Y-77532507D01*
X93131791Y-77533062D01*
X93134980Y-77534297D01*
X93134981Y-77534298D01*
X93333802Y-77611321D01*
X93543390Y-77650500D01*
X93543392Y-77650500D01*
X93756608Y-77650500D01*
X93756610Y-77650500D01*
X93966198Y-77611321D01*
X94165019Y-77534298D01*
X94346302Y-77422052D01*
X94503872Y-77278407D01*
X94632366Y-77108255D01*
X94676768Y-77019083D01*
X94727403Y-76917394D01*
X94727403Y-76917393D01*
X94727405Y-76917389D01*
X94785756Y-76712310D01*
X94796529Y-76596047D01*
X94822315Y-76531111D01*
X94864622Y-76500804D01*
X94973130Y-76500804D01*
X95009503Y-76521668D01*
X95041693Y-76583681D01*
X95043470Y-76596047D01*
X95054244Y-76712310D01*
X95112594Y-76917387D01*
X95112596Y-76917392D01*
X95112596Y-76917394D01*
X95207632Y-77108253D01*
X95207634Y-77108255D01*
X95336128Y-77278407D01*
X95493698Y-77422052D01*
X95674981Y-77534298D01*
X95873802Y-77611321D01*
X96083390Y-77650500D01*
X96083392Y-77650500D01*
X96296608Y-77650500D01*
X96296610Y-77650500D01*
X96506198Y-77611321D01*
X96705019Y-77534298D01*
X96886302Y-77422052D01*
X97043872Y-77278407D01*
X97172366Y-77108255D01*
X97216768Y-77019083D01*
X97267403Y-76917394D01*
X97267403Y-76917393D01*
X97267405Y-76917389D01*
X97325756Y-76712310D01*
X97345429Y-76500000D01*
X102654570Y-76500000D01*
X102674243Y-76712310D01*
X102674244Y-76712310D01*
X102732594Y-76917387D01*
X102732596Y-76917392D01*
X102732596Y-76917394D01*
X102827632Y-77108253D01*
X102827634Y-77108255D01*
X102956128Y-77278407D01*
X103113698Y-77422052D01*
X103294981Y-77534298D01*
X103493802Y-77611321D01*
X103703390Y-77650500D01*
X103703392Y-77650500D01*
X103916608Y-77650500D01*
X103916610Y-77650500D01*
X104126198Y-77611321D01*
X104325019Y-77534298D01*
X104506302Y-77422052D01*
X104663872Y-77278407D01*
X104792366Y-77108255D01*
X104836768Y-77019083D01*
X104887403Y-76917394D01*
X104887403Y-76917393D01*
X104887405Y-76917389D01*
X104945756Y-76712310D01*
X104956529Y-76596047D01*
X104982315Y-76531111D01*
X105026869Y-76499194D01*
X104990497Y-76478331D01*
X104958307Y-76416318D01*
X104956529Y-76403951D01*
X104955849Y-76396613D01*
X104945756Y-76287690D01*
X104887405Y-76082611D01*
X104887403Y-76082606D01*
X104887403Y-76082605D01*
X104792367Y-75891746D01*
X104663872Y-75721593D01*
X104506302Y-75577948D01*
X104325019Y-75465702D01*
X104325017Y-75465701D01*
X104225608Y-75427190D01*
X104126198Y-75388679D01*
X103916610Y-75349500D01*
X103703390Y-75349500D01*
X103493802Y-75388679D01*
X103493799Y-75388679D01*
X103493799Y-75388680D01*
X103294982Y-75465701D01*
X103294980Y-75465702D01*
X103113699Y-75577947D01*
X102956127Y-75721593D01*
X102827632Y-75891746D01*
X102732596Y-76082605D01*
X102732596Y-76082607D01*
X102674244Y-76287689D01*
X102654570Y-76499999D01*
X102654570Y-76500000D01*
X97345429Y-76500000D01*
X97325756Y-76287690D01*
X97267405Y-76082611D01*
X97267403Y-76082606D01*
X97267403Y-76082605D01*
X97172367Y-75891746D01*
X97043872Y-75721593D01*
X96886302Y-75577948D01*
X96705019Y-75465702D01*
X96705017Y-75465701D01*
X96605608Y-75427190D01*
X96506198Y-75388679D01*
X96296610Y-75349500D01*
X96083390Y-75349500D01*
X95873802Y-75388679D01*
X95873799Y-75388679D01*
X95873799Y-75388680D01*
X95674982Y-75465701D01*
X95674980Y-75465702D01*
X95493699Y-75577947D01*
X95336127Y-75721593D01*
X95207632Y-75891746D01*
X95112596Y-76082605D01*
X95112596Y-76082607D01*
X95054244Y-76287689D01*
X95043471Y-76403951D01*
X95017685Y-76468888D01*
X94973130Y-76500804D01*
X94864622Y-76500804D01*
X94866869Y-76499194D01*
X94830497Y-76478331D01*
X94798307Y-76416318D01*
X94796529Y-76403951D01*
X94795849Y-76396613D01*
X94785756Y-76287690D01*
X94727405Y-76082611D01*
X94727403Y-76082606D01*
X94727403Y-76082605D01*
X94632367Y-75891746D01*
X94503872Y-75721593D01*
X94346302Y-75577948D01*
X94165019Y-75465702D01*
X94165017Y-75465701D01*
X94065608Y-75427190D01*
X93966198Y-75388679D01*
X93756610Y-75349500D01*
X93543390Y-75349500D01*
X93333802Y-75388679D01*
X93333799Y-75388679D01*
X93333799Y-75388680D01*
X93134982Y-75465701D01*
X93134980Y-75465702D01*
X92953699Y-75577947D01*
X92796127Y-75721593D01*
X92667632Y-75891746D01*
X92572596Y-76082605D01*
X92572596Y-76082607D01*
X92514244Y-76287689D01*
X92503471Y-76403951D01*
X92477685Y-76468888D01*
X92433130Y-76500804D01*
X92469503Y-76521668D01*
X92501693Y-76583681D01*
X92503471Y-76596048D01*
X92514244Y-76712310D01*
X92572596Y-76917393D01*
X92572596Y-76917395D01*
X92582585Y-76937454D01*
X92594846Y-77006239D01*
X92567973Y-77070734D01*
X92559266Y-77080406D01*
X77078604Y-92561068D01*
X77017281Y-92594553D01*
X76947589Y-92589569D01*
X76946129Y-92589014D01*
X76873991Y-92561068D01*
X76816198Y-92538679D01*
X76619385Y-92501888D01*
X76557106Y-92470221D01*
X76521833Y-92409908D01*
X76524767Y-92340100D01*
X76564976Y-92282960D01*
X76619384Y-92258111D01*
X76816198Y-92221321D01*
X77015019Y-92144298D01*
X77196302Y-92032052D01*
X77353872Y-91888407D01*
X77482366Y-91718255D01*
X77540117Y-91602274D01*
X77577403Y-91527394D01*
X77577403Y-91527393D01*
X77577405Y-91527389D01*
X77635756Y-91322310D01*
X77651819Y-91148953D01*
X77677605Y-91084018D01*
X77687601Y-91072723D01*
X91073506Y-77686819D01*
X91134830Y-77653334D01*
X91161188Y-77650500D01*
X91216608Y-77650500D01*
X91216610Y-77650500D01*
X91426198Y-77611321D01*
X91625019Y-77534298D01*
X91806302Y-77422052D01*
X91963872Y-77278407D01*
X92092366Y-77108255D01*
X92136768Y-77019083D01*
X92187403Y-76917394D01*
X92187403Y-76917393D01*
X92187405Y-76917389D01*
X92245756Y-76712310D01*
X92256529Y-76596047D01*
X92282315Y-76531111D01*
X92326869Y-76499194D01*
X92290497Y-76478331D01*
X92258307Y-76416318D01*
X92256529Y-76403951D01*
X92255849Y-76396613D01*
X92245756Y-76287690D01*
X92187405Y-76082611D01*
X92187403Y-76082606D01*
X92187403Y-76082605D01*
X92092367Y-75891746D01*
X91963872Y-75721593D01*
X91806302Y-75577948D01*
X91625019Y-75465702D01*
X91625017Y-75465701D01*
X91525608Y-75427190D01*
X91426198Y-75388679D01*
X91216610Y-75349500D01*
X91003390Y-75349500D01*
X90793802Y-75388679D01*
X90793799Y-75388679D01*
X90793799Y-75388680D01*
X90594982Y-75465701D01*
X90594980Y-75465702D01*
X90413699Y-75577947D01*
X90256127Y-75721593D01*
X90127632Y-75891746D01*
X90032596Y-76082605D01*
X90032596Y-76082607D01*
X89974244Y-76287689D01*
X89963471Y-76403951D01*
X89937685Y-76468888D01*
X89893130Y-76500804D01*
X89929503Y-76521668D01*
X89961693Y-76583681D01*
X89963470Y-76596047D01*
X89974244Y-76712310D01*
X90032594Y-76917387D01*
X90032596Y-76917392D01*
X90032596Y-76917394D01*
X90127632Y-77108253D01*
X90256127Y-77278406D01*
X90319779Y-77336433D01*
X90356060Y-77396145D01*
X90354299Y-77465992D01*
X90323921Y-77515751D01*
X84610232Y-83229440D01*
X84548909Y-83262925D01*
X84479217Y-83257941D01*
X84423284Y-83216069D01*
X84398867Y-83150605D01*
X84400416Y-83125863D01*
X84399903Y-83125813D01*
X84400500Y-83119750D01*
X84400500Y-82080249D01*
X84400499Y-82080247D01*
X84388868Y-82021770D01*
X84388867Y-82021769D01*
X84344552Y-81955447D01*
X84278230Y-81911132D01*
X84278229Y-81911131D01*
X84219752Y-81899500D01*
X84219748Y-81899500D01*
X82680252Y-81899500D01*
X82680247Y-81899500D01*
X82621770Y-81911131D01*
X82621770Y-81911132D01*
X82556332Y-81954856D01*
X82489655Y-81975733D01*
X82422275Y-81957248D01*
X82399761Y-81939434D01*
X81732011Y-81271685D01*
X81698526Y-81210362D01*
X81696753Y-81167818D01*
X81701509Y-81131699D01*
X81705682Y-81100000D01*
X81703540Y-81083733D01*
X81685044Y-80943239D01*
X81685044Y-80943238D01*
X81624536Y-80797159D01*
X81528282Y-80671718D01*
X81402841Y-80575464D01*
X81256762Y-80514956D01*
X81256760Y-80514955D01*
X81100001Y-80494318D01*
X81099999Y-80494318D01*
X80943239Y-80514955D01*
X80943237Y-80514956D01*
X80797160Y-80575463D01*
X80671718Y-80671718D01*
X80575463Y-80797160D01*
X80514956Y-80943237D01*
X80514955Y-80943239D01*
X80494318Y-81099998D01*
X80494318Y-81100001D01*
X80514955Y-81256760D01*
X80514956Y-81256762D01*
X80575464Y-81402841D01*
X80671718Y-81528282D01*
X80797159Y-81624536D01*
X80943238Y-81685044D01*
X80971548Y-81688771D01*
X81099999Y-81705682D01*
X81100000Y-81705682D01*
X81100001Y-81705682D01*
X81143172Y-81699998D01*
X81167818Y-81696753D01*
X81236853Y-81707518D01*
X81271684Y-81732010D01*
X81815136Y-82275463D01*
X82357868Y-82818195D01*
X82361523Y-82822184D01*
X82387541Y-82853190D01*
X82387543Y-82853191D01*
X82387545Y-82853194D01*
X82387547Y-82853195D01*
X82387548Y-82853196D01*
X82422595Y-82873430D01*
X82427153Y-82876333D01*
X82446622Y-82889965D01*
X82490248Y-82944541D01*
X82499500Y-82991541D01*
X82499500Y-83119752D01*
X82511131Y-83178229D01*
X82511132Y-83178230D01*
X82555447Y-83244552D01*
X82621769Y-83288867D01*
X82621770Y-83288868D01*
X82680247Y-83300499D01*
X82680250Y-83300500D01*
X82680252Y-83300500D01*
X84219750Y-83300500D01*
X84225813Y-83299903D01*
X84225988Y-83301689D01*
X84287150Y-83307157D01*
X84342331Y-83350016D01*
X84365581Y-83415904D01*
X84349518Y-83483902D01*
X84329440Y-83510232D01*
X77518262Y-90321410D01*
X77456939Y-90354895D01*
X77387247Y-90349911D01*
X77347043Y-90325366D01*
X77196303Y-90187949D01*
X77196302Y-90187948D01*
X77015019Y-90075702D01*
X77015017Y-90075701D01*
X76882943Y-90024536D01*
X76816198Y-89998679D01*
X76619385Y-89961888D01*
X76557106Y-89930221D01*
X76521833Y-89869908D01*
X76524767Y-89800100D01*
X76564976Y-89742960D01*
X76619384Y-89718111D01*
X76816198Y-89681321D01*
X77015019Y-89604298D01*
X77196302Y-89492052D01*
X77353872Y-89348407D01*
X77482366Y-89178255D01*
X77494194Y-89154501D01*
X77577403Y-88987394D01*
X77577403Y-88987393D01*
X77577405Y-88987389D01*
X77635756Y-88782310D01*
X77655429Y-88570000D01*
X77635756Y-88357690D01*
X77577405Y-88152611D01*
X77577403Y-88152606D01*
X77577403Y-88152605D01*
X77482367Y-87961746D01*
X77353872Y-87791593D01*
X77300546Y-87742980D01*
X77196302Y-87647948D01*
X77015019Y-87535702D01*
X77015017Y-87535701D01*
X76854910Y-87473676D01*
X76816198Y-87458679D01*
X76606610Y-87419500D01*
X76393390Y-87419500D01*
X76183802Y-87458679D01*
X76183799Y-87458679D01*
X76183799Y-87458680D01*
X75984982Y-87535701D01*
X75984980Y-87535702D01*
X75803696Y-87647949D01*
X75733038Y-87712363D01*
X75670234Y-87742980D01*
X75600847Y-87734783D01*
X75546907Y-87690373D01*
X75525539Y-87623851D01*
X75525500Y-87620726D01*
X75525500Y-83886188D01*
X75545185Y-83819149D01*
X75561819Y-83798507D01*
X76398507Y-82961819D01*
X76459830Y-82928334D01*
X76486188Y-82925500D01*
X77475500Y-82925500D01*
X77542539Y-82945185D01*
X77588294Y-82997989D01*
X77599500Y-83049500D01*
X77599500Y-83119752D01*
X77611131Y-83178229D01*
X77611132Y-83178230D01*
X77655447Y-83244552D01*
X77721769Y-83288867D01*
X77721770Y-83288868D01*
X77780247Y-83300499D01*
X77780250Y-83300500D01*
X77780252Y-83300500D01*
X79319750Y-83300500D01*
X79319751Y-83300499D01*
X79334568Y-83297552D01*
X79378229Y-83288868D01*
X79378229Y-83288867D01*
X79378231Y-83288867D01*
X79444552Y-83244552D01*
X79488867Y-83178231D01*
X79488867Y-83178229D01*
X79488868Y-83178229D01*
X79499284Y-83125863D01*
X79500500Y-83119748D01*
X79500500Y-82080252D01*
X79500500Y-82080251D01*
X79500500Y-82080249D01*
X79500499Y-82080247D01*
X79488868Y-82021770D01*
X79488867Y-82021769D01*
X79444552Y-81955447D01*
X79378230Y-81911132D01*
X79378229Y-81911131D01*
X79319752Y-81899500D01*
X79319748Y-81899500D01*
X77780252Y-81899500D01*
X77780247Y-81899500D01*
X77721770Y-81911131D01*
X77721769Y-81911132D01*
X77655447Y-81955447D01*
X77611132Y-82021769D01*
X77611131Y-82021770D01*
X77599500Y-82080247D01*
X77599500Y-82150500D01*
X77579815Y-82217539D01*
X77527011Y-82263294D01*
X77475500Y-82274500D01*
X76316922Y-82274500D01*
X76311518Y-82274264D01*
X76306107Y-82273790D01*
X76271192Y-82270735D01*
X76271191Y-82270735D01*
X76232091Y-82281212D01*
X76226811Y-82282383D01*
X76186959Y-82289410D01*
X76181961Y-82291229D01*
X76165117Y-82298206D01*
X76160313Y-82300446D01*
X76127166Y-82323656D01*
X76122606Y-82326562D01*
X76087548Y-82346804D01*
X76087540Y-82346810D01*
X76061523Y-82377815D01*
X76057869Y-82381804D01*
X75212181Y-83227492D01*
X75150858Y-83260977D01*
X75081167Y-83255993D01*
X75025233Y-83214121D01*
X75000816Y-83148657D01*
X75000500Y-83139811D01*
X75000500Y-79919752D01*
X82499500Y-79919752D01*
X82511131Y-79978229D01*
X82511132Y-79978230D01*
X82555447Y-80044552D01*
X82621769Y-80088867D01*
X82621770Y-80088868D01*
X82680247Y-80100499D01*
X82680250Y-80100500D01*
X82680252Y-80100500D01*
X84219750Y-80100500D01*
X84219751Y-80100499D01*
X84234568Y-80097552D01*
X84278229Y-80088868D01*
X84278229Y-80088867D01*
X84278231Y-80088867D01*
X84344552Y-80044552D01*
X84388867Y-79978231D01*
X84388867Y-79978229D01*
X84388868Y-79978229D01*
X84397552Y-79934568D01*
X84400500Y-79919748D01*
X84400500Y-78880252D01*
X84400500Y-78880249D01*
X84400499Y-78880247D01*
X84388868Y-78821770D01*
X84388867Y-78821769D01*
X84344552Y-78755447D01*
X84278230Y-78711132D01*
X84278229Y-78711131D01*
X84219752Y-78699500D01*
X84219748Y-78699500D01*
X82680252Y-78699500D01*
X82680247Y-78699500D01*
X82621770Y-78711131D01*
X82621769Y-78711132D01*
X82555447Y-78755447D01*
X82511132Y-78821769D01*
X82511131Y-78821770D01*
X82499500Y-78880247D01*
X82499500Y-79919752D01*
X75000500Y-79919752D01*
X75000500Y-77624500D01*
X75020185Y-77557461D01*
X75072989Y-77511706D01*
X75124500Y-77500500D01*
X77475240Y-77500500D01*
X77475383Y-77500528D01*
X77475384Y-77500524D01*
X77499997Y-77500539D01*
X77500000Y-77500541D01*
X77500383Y-77500383D01*
X77500500Y-77500099D01*
X77500541Y-77500000D01*
X77500540Y-77499997D01*
X77500583Y-77475889D01*
X77500500Y-77475467D01*
X77500500Y-76500000D01*
X87414570Y-76500000D01*
X87434243Y-76712310D01*
X87434244Y-76712310D01*
X87492594Y-76917387D01*
X87492596Y-76917392D01*
X87492596Y-76917394D01*
X87587632Y-77108253D01*
X87587634Y-77108255D01*
X87716128Y-77278407D01*
X87873698Y-77422052D01*
X88054981Y-77534298D01*
X88253802Y-77611321D01*
X88463390Y-77650500D01*
X88463392Y-77650500D01*
X88676608Y-77650500D01*
X88676610Y-77650500D01*
X88886198Y-77611321D01*
X89085019Y-77534298D01*
X89266302Y-77422052D01*
X89423872Y-77278407D01*
X89552366Y-77108255D01*
X89596768Y-77019083D01*
X89647403Y-76917394D01*
X89647403Y-76917393D01*
X89647405Y-76917389D01*
X89705756Y-76712310D01*
X89716529Y-76596047D01*
X89742315Y-76531111D01*
X89786869Y-76499194D01*
X89750497Y-76478331D01*
X89718307Y-76416318D01*
X89716529Y-76403951D01*
X89715849Y-76396613D01*
X89705756Y-76287690D01*
X89647405Y-76082611D01*
X89647403Y-76082606D01*
X89647403Y-76082605D01*
X89552367Y-75891746D01*
X89423872Y-75721593D01*
X89423872Y-75721592D01*
X89266302Y-75577948D01*
X89085019Y-75465702D01*
X89085017Y-75465701D01*
X88985608Y-75427190D01*
X88886198Y-75388679D01*
X88676610Y-75349500D01*
X88463390Y-75349500D01*
X88253802Y-75388679D01*
X88253799Y-75388679D01*
X88253799Y-75388680D01*
X88054982Y-75465701D01*
X88054980Y-75465702D01*
X87873699Y-75577947D01*
X87716127Y-75721593D01*
X87587632Y-75891746D01*
X87492596Y-76082605D01*
X87492596Y-76082607D01*
X87434244Y-76287689D01*
X87414570Y-76499999D01*
X87414570Y-76500000D01*
X77500500Y-76500000D01*
X77500500Y-75124500D01*
X77520185Y-75057461D01*
X77572989Y-75011706D01*
X77624500Y-75000500D01*
X122375500Y-75000500D01*
X122442539Y-75020185D01*
G37*
G04 #@! TD.AperFunction*
M02*
