G04 #@! TF.GenerationSoftware,KiCad,Pcbnew,7.0.5-4d25ed1034~172~ubuntu22.04.1*
G04 #@! TF.CreationDate,2023-06-02T18:33:25-04:00*
G04 #@! TF.ProjectId,v2,76322e6b-6963-4616-945f-706362585858,rev?*
G04 #@! TF.SameCoordinates,Original*
G04 #@! TF.FileFunction,Paste,Top*
G04 #@! TF.FilePolarity,Positive*
%FSLAX46Y46*%
G04 Gerber Fmt 4.6, Leading zero omitted, Abs format (unit mm)*
G04 Created by KiCad (PCBNEW 7.0.5-4d25ed1034~172~ubuntu22.04.1) date 2023-06-02 18:33:25*
%MOMM*%
%LPD*%
G01*
G04 APERTURE LIST*
G04 Aperture macros list*
%AMRoundRect*
0 Rectangle with rounded corners*
0 $1 Rounding radius*
0 $2 $3 $4 $5 $6 $7 $8 $9 X,Y pos of 4 corners*
0 Add a 4 corners polygon primitive as box body*
4,1,4,$2,$3,$4,$5,$6,$7,$8,$9,$2,$3,0*
0 Add four circle primitives for the rounded corners*
1,1,$1+$1,$2,$3*
1,1,$1+$1,$4,$5*
1,1,$1+$1,$6,$7*
1,1,$1+$1,$8,$9*
0 Add four rect primitives between the rounded corners*
20,1,$1+$1,$2,$3,$4,$5,0*
20,1,$1+$1,$4,$5,$6,$7,0*
20,1,$1+$1,$6,$7,$8,$9,0*
20,1,$1+$1,$8,$9,$2,$3,0*%
G04 Aperture macros list end*
%ADD10R,1.500000X1.000000*%
%ADD11RoundRect,0.155000X0.155000X-0.212500X0.155000X0.212500X-0.155000X0.212500X-0.155000X-0.212500X0*%
%ADD12RoundRect,0.150000X0.150000X-0.587500X0.150000X0.587500X-0.150000X0.587500X-0.150000X-0.587500X0*%
%ADD13RoundRect,0.237500X0.237500X-0.250000X0.237500X0.250000X-0.237500X0.250000X-0.237500X-0.250000X0*%
%ADD14R,0.700000X0.700000*%
%ADD15RoundRect,0.237500X-0.237500X0.250000X-0.237500X-0.250000X0.237500X-0.250000X0.237500X0.250000X0*%
%ADD16R,1.000000X1.500000*%
%ADD17R,1.000000X0.750000*%
%ADD18RoundRect,0.237500X0.237500X-0.300000X0.237500X0.300000X-0.237500X0.300000X-0.237500X-0.300000X0*%
%ADD19RoundRect,0.237500X0.300000X0.237500X-0.300000X0.237500X-0.300000X-0.237500X0.300000X-0.237500X0*%
%ADD20RoundRect,0.207500X-0.207500X-0.207500X0.207500X-0.207500X0.207500X0.207500X-0.207500X0.207500X0*%
%ADD21RoundRect,0.062500X-0.375000X-0.062500X0.375000X-0.062500X0.375000X0.062500X-0.375000X0.062500X0*%
%ADD22RoundRect,0.062500X-0.062500X-0.375000X0.062500X-0.375000X0.062500X0.375000X-0.062500X0.375000X0*%
%ADD23RoundRect,0.237500X-0.237500X0.300000X-0.237500X-0.300000X0.237500X-0.300000X0.237500X0.300000X0*%
%ADD24R,2.100000X1.800000*%
%ADD25RoundRect,0.237500X-0.237500X0.287500X-0.237500X-0.287500X0.237500X-0.287500X0.237500X0.287500X0*%
%ADD26RoundRect,0.237500X0.250000X0.237500X-0.250000X0.237500X-0.250000X-0.237500X0.250000X-0.237500X0*%
G04 APERTURE END LIST*
D10*
X78550000Y-79400000D03*
X78550000Y-82600000D03*
X83450000Y-82600000D03*
X83450000Y-79400000D03*
D11*
X103600000Y-104367500D03*
X103600000Y-103232500D03*
D12*
X99050000Y-100937500D03*
X100950000Y-100937500D03*
X100000000Y-99062500D03*
D13*
X104600000Y-97312500D03*
X104600000Y-95487500D03*
D14*
X98615000Y-96950000D03*
X98615000Y-95850000D03*
X96785000Y-95850000D03*
X96785000Y-96950000D03*
D15*
X96300000Y-92287500D03*
X96300000Y-94112500D03*
D16*
X120600000Y-78550000D03*
X117400000Y-78550000D03*
X117400000Y-83450000D03*
X120600000Y-83450000D03*
D13*
X102300000Y-97312500D03*
X102300000Y-95487500D03*
D17*
X97000000Y-110125000D03*
X103000000Y-110125000D03*
X97000000Y-113875000D03*
X103000000Y-113875000D03*
D18*
X96600000Y-102062500D03*
X96600000Y-100337500D03*
D19*
X110125000Y-89900000D03*
X108400000Y-89900000D03*
D20*
X101040000Y-88200000D03*
X101040000Y-89230000D03*
X101040000Y-90260000D03*
X102070000Y-88200000D03*
X102070000Y-89230000D03*
X102070000Y-90260000D03*
X103100000Y-88200000D03*
X103100000Y-89230000D03*
X103100000Y-90260000D03*
D21*
X99632500Y-87480000D03*
X99632500Y-87980000D03*
X99632500Y-88480000D03*
X99632500Y-88980000D03*
X99632500Y-89480000D03*
X99632500Y-89980000D03*
X99632500Y-90480000D03*
X99632500Y-90980000D03*
D22*
X100320000Y-91667500D03*
X100820000Y-91667500D03*
X101320000Y-91667500D03*
X101820000Y-91667500D03*
X102320000Y-91667500D03*
X102820000Y-91667500D03*
X103320000Y-91667500D03*
X103820000Y-91667500D03*
D21*
X104507500Y-90980000D03*
X104507500Y-90480000D03*
X104507500Y-89980000D03*
X104507500Y-89480000D03*
X104507500Y-88980000D03*
X104507500Y-88480000D03*
X104507500Y-87980000D03*
X104507500Y-87480000D03*
D22*
X103820000Y-86792500D03*
X103320000Y-86792500D03*
X102820000Y-86792500D03*
X102320000Y-86792500D03*
X101820000Y-86792500D03*
X101320000Y-86792500D03*
X100820000Y-86792500D03*
X100320000Y-86792500D03*
D23*
X85650000Y-90300000D03*
X85650000Y-92025000D03*
D24*
X91400000Y-92050000D03*
X88500000Y-92050000D03*
X88500000Y-94350000D03*
X91400000Y-94350000D03*
D13*
X115100000Y-80312500D03*
X115100000Y-78487500D03*
D25*
X112100000Y-91825000D03*
X112100000Y-93575000D03*
D10*
X121450000Y-120600000D03*
X121450000Y-117400000D03*
X116550000Y-117400000D03*
X116550000Y-120600000D03*
D26*
X99912500Y-94100000D03*
X98087500Y-94100000D03*
X113912500Y-89900000D03*
X112087500Y-89900000D03*
D16*
X79400000Y-121450000D03*
X82600000Y-121450000D03*
X82600000Y-116550000D03*
X79400000Y-116550000D03*
D13*
X100900000Y-104712500D03*
X100900000Y-102887500D03*
X94600000Y-94112500D03*
X94600000Y-92287500D03*
D18*
X85650000Y-96162500D03*
X85650000Y-94437500D03*
D13*
X112100000Y-97400000D03*
X112100000Y-95575000D03*
M02*
