G04 #@! TF.GenerationSoftware,KiCad,Pcbnew,7.0.2-6a45011f42~172~ubuntu22.04.1*
G04 #@! TF.CreationDate,2023-05-08T10:08:59-04:00*
G04 #@! TF.ProjectId,v2,76322e6b-6963-4616-945f-706362585858,rev?*
G04 #@! TF.SameCoordinates,Original*
G04 #@! TF.FileFunction,Copper,L1,Top*
G04 #@! TF.FilePolarity,Positive*
%FSLAX46Y46*%
G04 Gerber Fmt 4.6, Leading zero omitted, Abs format (unit mm)*
G04 Created by KiCad (PCBNEW 7.0.2-6a45011f42~172~ubuntu22.04.1) date 2023-05-08 10:08:59*
%MOMM*%
%LPD*%
G01*
G04 APERTURE LIST*
G04 Aperture macros list*
%AMRoundRect*
0 Rectangle with rounded corners*
0 $1 Rounding radius*
0 $2 $3 $4 $5 $6 $7 $8 $9 X,Y pos of 4 corners*
0 Add a 4 corners polygon primitive as box body*
4,1,4,$2,$3,$4,$5,$6,$7,$8,$9,$2,$3,0*
0 Add four circle primitives for the rounded corners*
1,1,$1+$1,$2,$3*
1,1,$1+$1,$4,$5*
1,1,$1+$1,$6,$7*
1,1,$1+$1,$8,$9*
0 Add four rect primitives between the rounded corners*
20,1,$1+$1,$2,$3,$4,$5,0*
20,1,$1+$1,$4,$5,$6,$7,0*
20,1,$1+$1,$6,$7,$8,$9,0*
20,1,$1+$1,$8,$9,$2,$3,0*%
G04 Aperture macros list end*
G04 #@! TA.AperFunction,SMDPad,CuDef*
%ADD10RoundRect,0.237500X0.237500X-0.250000X0.237500X0.250000X-0.237500X0.250000X-0.237500X-0.250000X0*%
G04 #@! TD*
G04 #@! TA.AperFunction,SMDPad,CuDef*
%ADD11RoundRect,0.237500X-0.237500X0.287500X-0.237500X-0.287500X0.237500X-0.287500X0.237500X0.287500X0*%
G04 #@! TD*
G04 #@! TA.AperFunction,SMDPad,CuDef*
%ADD12RoundRect,0.237500X0.237500X-0.300000X0.237500X0.300000X-0.237500X0.300000X-0.237500X-0.300000X0*%
G04 #@! TD*
G04 #@! TA.AperFunction,SMDPad,CuDef*
%ADD13RoundRect,0.150000X0.150000X-0.587500X0.150000X0.587500X-0.150000X0.587500X-0.150000X-0.587500X0*%
G04 #@! TD*
G04 #@! TA.AperFunction,SMDPad,CuDef*
%ADD14R,1.550000X1.300000*%
G04 #@! TD*
G04 #@! TA.AperFunction,SMDPad,CuDef*
%ADD15R,2.100000X1.800000*%
G04 #@! TD*
G04 #@! TA.AperFunction,SMDPad,CuDef*
%ADD16R,1.500000X1.000000*%
G04 #@! TD*
G04 #@! TA.AperFunction,SMDPad,CuDef*
%ADD17RoundRect,0.237500X-0.250000X-0.237500X0.250000X-0.237500X0.250000X0.237500X-0.250000X0.237500X0*%
G04 #@! TD*
G04 #@! TA.AperFunction,ComponentPad*
%ADD18O,1.700000X1.700000*%
G04 #@! TD*
G04 #@! TA.AperFunction,ComponentPad*
%ADD19R,1.700000X1.700000*%
G04 #@! TD*
G04 #@! TA.AperFunction,SMDPad,CuDef*
%ADD20R,1.600000X0.550000*%
G04 #@! TD*
G04 #@! TA.AperFunction,SMDPad,CuDef*
%ADD21R,0.550000X1.600000*%
G04 #@! TD*
G04 #@! TA.AperFunction,SMDPad,CuDef*
%ADD22R,1.000000X1.500000*%
G04 #@! TD*
G04 #@! TA.AperFunction,SMDPad,CuDef*
%ADD23RoundRect,0.237500X-0.237500X0.300000X-0.237500X-0.300000X0.237500X-0.300000X0.237500X0.300000X0*%
G04 #@! TD*
G04 #@! TA.AperFunction,ViaPad*
%ADD24C,0.800000*%
G04 #@! TD*
G04 #@! TA.AperFunction,Conductor*
%ADD25C,0.250000*%
G04 #@! TD*
G04 #@! TA.AperFunction,Conductor*
%ADD26C,0.500000*%
G04 #@! TD*
G04 APERTURE END LIST*
D10*
X112100000Y-97400000D03*
X112100000Y-95575000D03*
D11*
X112100000Y-93575000D03*
X112100000Y-91825000D03*
D12*
X96500000Y-101125000D03*
X96500000Y-99400000D03*
D13*
X99050000Y-100937500D03*
X100950000Y-100937500D03*
X100000000Y-99062500D03*
D14*
X96020000Y-107750000D03*
X103980000Y-107750000D03*
X96020000Y-112250000D03*
X103980000Y-112250000D03*
D15*
X93800000Y-93300000D03*
X90900000Y-93300000D03*
X90900000Y-95600000D03*
X93800000Y-95600000D03*
D16*
X78550000Y-79400000D03*
X78550000Y-82600000D03*
X83450000Y-82600000D03*
X83450000Y-79400000D03*
D17*
X107250000Y-83000000D03*
X109075000Y-83000000D03*
D18*
X87300000Y-121800000D03*
X89840000Y-121800000D03*
X92380000Y-121800000D03*
X94920000Y-121800000D03*
D19*
X97460000Y-121800000D03*
D20*
X98000000Y-87450000D03*
X98000000Y-88250000D03*
X98000000Y-89050000D03*
X98000000Y-89850000D03*
X98000000Y-90650000D03*
X98000000Y-91450000D03*
X98000000Y-92250000D03*
X98000000Y-93050000D03*
D21*
X99450000Y-94500000D03*
X100250000Y-94500000D03*
X101050000Y-94500000D03*
X101850000Y-94500000D03*
X102650000Y-94500000D03*
X103450000Y-94500000D03*
X104250000Y-94500000D03*
X105050000Y-94500000D03*
D20*
X106500000Y-93050000D03*
X106500000Y-92250000D03*
X106500000Y-91450000D03*
X106500000Y-90650000D03*
X106500000Y-89850000D03*
X106500000Y-89050000D03*
X106500000Y-88250000D03*
X106500000Y-87450000D03*
D21*
X105050000Y-86000000D03*
X104250000Y-86000000D03*
X103450000Y-86000000D03*
X102650000Y-86000000D03*
X101850000Y-86000000D03*
X101050000Y-86000000D03*
X100250000Y-86000000D03*
X99450000Y-86000000D03*
D18*
X109500000Y-107600000D03*
X109500000Y-105060000D03*
X109500000Y-102520000D03*
X109500000Y-99980000D03*
X109500000Y-97440000D03*
D19*
X109500000Y-94900000D03*
D22*
X120600000Y-78550000D03*
X117400000Y-78550000D03*
X117400000Y-83450000D03*
X120600000Y-83450000D03*
D19*
X102540000Y-78200000D03*
D18*
X105080000Y-78200000D03*
X107620000Y-78200000D03*
X110160000Y-78200000D03*
X112700000Y-78200000D03*
D23*
X87650000Y-91400000D03*
X87650000Y-93125000D03*
D18*
X121800000Y-112700000D03*
X121800000Y-110160000D03*
X121800000Y-107620000D03*
X121800000Y-105080000D03*
D19*
X121800000Y-102540000D03*
X81100000Y-112740000D03*
D18*
X81100000Y-110200000D03*
X81100000Y-107660000D03*
X81100000Y-105120000D03*
X81100000Y-102580000D03*
D17*
X112087500Y-83000000D03*
X113912500Y-83000000D03*
D16*
X121450000Y-120600000D03*
X121450000Y-117400000D03*
X116550000Y-117400000D03*
X116550000Y-120600000D03*
D22*
X79400000Y-121450000D03*
X82600000Y-121450000D03*
X82600000Y-116550000D03*
X79400000Y-116550000D03*
D19*
X118900000Y-87260000D03*
D18*
X118900000Y-89800000D03*
X118900000Y-92340000D03*
X118900000Y-94880000D03*
X118900000Y-97420000D03*
X78200000Y-87300000D03*
X78200000Y-89840000D03*
X78200000Y-92380000D03*
X78200000Y-94920000D03*
D19*
X78200000Y-97460000D03*
X87260000Y-81100000D03*
D18*
X89800000Y-81100000D03*
X92340000Y-81100000D03*
X94880000Y-81100000D03*
X97420000Y-81100000D03*
X102580000Y-118900000D03*
X105120000Y-118900000D03*
X107660000Y-118900000D03*
X110200000Y-118900000D03*
D19*
X112740000Y-118900000D03*
D23*
X87650000Y-95587500D03*
X87650000Y-97312500D03*
D24*
X112600000Y-102100000D03*
X97500000Y-102800000D03*
X92000000Y-113400000D03*
X95600000Y-102800000D03*
X103750000Y-83750000D03*
X102697655Y-82097655D03*
X112750000Y-84750000D03*
X109300000Y-88200000D03*
X95300000Y-86774500D03*
X95300000Y-87900000D03*
X86700000Y-87100000D03*
X93400000Y-85700000D03*
D25*
X117400000Y-83450000D02*
X117400000Y-85760000D01*
X117400000Y-85760000D02*
X118900000Y-87260000D01*
X112700000Y-79600000D02*
X112700000Y-78200000D01*
X87260000Y-82100000D02*
X87260000Y-81100000D01*
X116550000Y-117400000D02*
X114240000Y-117400000D01*
X114240000Y-117400000D02*
X112740000Y-118900000D01*
X82600000Y-116550000D02*
X82600000Y-114240000D01*
X82600000Y-114240000D02*
X81100000Y-112740000D01*
X102697655Y-82097655D02*
X102650000Y-82145310D01*
X102650000Y-82145310D02*
X102650000Y-86000000D01*
X101850000Y-86000000D02*
X101850000Y-81850000D01*
X101850000Y-81850000D02*
X102400000Y-81300000D01*
X102400000Y-81300000D02*
X105550000Y-81300000D01*
X105550000Y-81300000D02*
X107250000Y-83000000D01*
X99050000Y-101200000D02*
X88800000Y-101200000D01*
X84400000Y-96800000D02*
X88800000Y-101200000D01*
X84400000Y-89000000D02*
X84400000Y-96800000D01*
X89600000Y-89000000D02*
X84400000Y-89000000D01*
X87260000Y-82100000D02*
X84400000Y-84960000D01*
X84400000Y-84960000D02*
X84400000Y-89000000D01*
X83450000Y-82600000D02*
X86760000Y-82600000D01*
X93800000Y-92200000D02*
X93400000Y-91800000D01*
X93400000Y-91800000D02*
X88050000Y-91800000D01*
X88050000Y-91800000D02*
X87650000Y-91400000D01*
X98000000Y-91450000D02*
X104450000Y-91450000D01*
X104450000Y-91450000D02*
X104500000Y-91500000D01*
X110955000Y-103745000D02*
X112600000Y-102100000D01*
X98445000Y-103745000D02*
X110955000Y-103745000D01*
X97500000Y-102800000D02*
X98445000Y-103745000D01*
X103980000Y-107750000D02*
X106670000Y-105060000D01*
X106670000Y-105060000D02*
X112840000Y-105060000D01*
X113200000Y-89600000D02*
X113200000Y-88950000D01*
X112840000Y-105060000D02*
X114300000Y-103600000D01*
X114300000Y-90700000D02*
X113200000Y-89600000D01*
X114300000Y-103600000D02*
X114300000Y-90700000D01*
X113200000Y-88950000D02*
X107250000Y-83000000D01*
X95300000Y-87900000D02*
X95800000Y-88400000D01*
X95800000Y-88400000D02*
X97850000Y-88400000D01*
X97850000Y-88400000D02*
X98000000Y-88250000D01*
X95300000Y-86774500D02*
X95975500Y-87450000D01*
X95975500Y-87450000D02*
X98000000Y-87450000D01*
X86700000Y-87100000D02*
X86700000Y-86400000D01*
X86700000Y-86400000D02*
X88600000Y-84500000D01*
X88600000Y-84500000D02*
X100025000Y-84500000D01*
X100025000Y-84500000D02*
X100250000Y-84725000D01*
X100250000Y-84725000D02*
X100250000Y-86000000D01*
X95600000Y-102800000D02*
X95400000Y-102800000D01*
X95400000Y-102800000D02*
X92000000Y-106200000D01*
X92000000Y-106200000D02*
X92000000Y-113400000D01*
X93400000Y-85700000D02*
X93700000Y-86000000D01*
X93700000Y-86000000D02*
X99450000Y-86000000D01*
X121450000Y-117400000D02*
X124300000Y-114550000D01*
X124300000Y-114550000D02*
X124300000Y-87150000D01*
X124300000Y-87150000D02*
X120600000Y-83450000D01*
X82600000Y-121450000D02*
X85350000Y-124200000D01*
X85350000Y-124200000D02*
X112950000Y-124200000D01*
X112950000Y-124200000D02*
X116550000Y-120600000D01*
X78550000Y-82600000D02*
X78550000Y-82950000D01*
X78550000Y-82950000D02*
X75800000Y-85700000D01*
X75800000Y-85700000D02*
X75800000Y-112950000D01*
X75800000Y-112950000D02*
X79400000Y-116550000D01*
X112100000Y-97400000D02*
X112060000Y-97440000D01*
X112060000Y-97440000D02*
X109500000Y-97440000D01*
X112100000Y-95575000D02*
X112100000Y-93575000D01*
X108425000Y-91500000D02*
X109000000Y-91500000D01*
X109000000Y-91500000D02*
X109500000Y-92000000D01*
X109500000Y-92000000D02*
X109500000Y-94900000D01*
X112700000Y-79600000D02*
X109300000Y-83000000D01*
D26*
X109300000Y-83000000D02*
X109075000Y-83000000D01*
D25*
X106500000Y-88250000D02*
X109250000Y-88250000D01*
X109250000Y-88250000D02*
X109300000Y-88200000D01*
X103980000Y-107750000D02*
X96020000Y-107750000D01*
X90900000Y-93300000D02*
X91100000Y-93300000D01*
X91100000Y-93300000D02*
X93400000Y-95600000D01*
X93400000Y-95600000D02*
X93800000Y-95600000D01*
X93800000Y-92200000D02*
X93900000Y-92300000D01*
X93900000Y-92300000D02*
X97950000Y-92300000D01*
X97950000Y-92300000D02*
X98000000Y-92250000D01*
X93800000Y-92200000D02*
X93800000Y-93300000D01*
X95750000Y-97350000D02*
X98000000Y-95100000D01*
X98000000Y-95100000D02*
X98000000Y-93050000D01*
X95750000Y-97350000D02*
X92650000Y-97350000D01*
X92650000Y-97350000D02*
X90900000Y-95600000D01*
X87650000Y-95587500D02*
X87662500Y-95600000D01*
X87662500Y-95600000D02*
X90900000Y-95600000D01*
X98000000Y-89850000D02*
X90450000Y-89850000D01*
X90450000Y-89850000D02*
X89600000Y-89000000D01*
X113912500Y-83000000D02*
X113912500Y-82037500D01*
X113912500Y-82037500D02*
X117400000Y-78550000D01*
X105250000Y-92250000D02*
X106500000Y-92250000D01*
X106500000Y-90650000D02*
X107575000Y-90650000D01*
X104500000Y-91500000D02*
X105250000Y-92250000D01*
X105350000Y-90650000D02*
X104500000Y-91500000D01*
X106500000Y-92250000D02*
X107675000Y-92250000D01*
X107575000Y-90650000D02*
X108425000Y-91500000D01*
X107675000Y-92250000D02*
X108425000Y-91500000D01*
X106500000Y-90650000D02*
X105350000Y-90650000D01*
X103450000Y-86000000D02*
X103450000Y-84050000D01*
X103450000Y-84050000D02*
X103750000Y-83750000D01*
X108190000Y-97440000D02*
X110000000Y-97440000D01*
X106500000Y-95750000D02*
X108190000Y-97440000D01*
X106500000Y-93050000D02*
X106500000Y-95750000D01*
X105050000Y-97050000D02*
X107980000Y-99980000D01*
X105050000Y-94500000D02*
X105050000Y-97050000D01*
X107980000Y-99980000D02*
X110000000Y-99980000D01*
X108020000Y-102520000D02*
X110000000Y-102520000D01*
X104250000Y-94500000D02*
X104250000Y-98750000D01*
X104250000Y-98750000D02*
X108020000Y-102520000D01*
X112087500Y-83000000D02*
X112087500Y-84087500D01*
X112087500Y-84087500D02*
X112750000Y-84750000D01*
X103450000Y-94500000D02*
X103450000Y-98700000D01*
X103450000Y-98700000D02*
X100950000Y-101200000D01*
G04 #@! TA.AperFunction,Conductor*
G36*
X122442539Y-75020185D02*
G01*
X122488294Y-75072989D01*
X122499500Y-75124500D01*
X122499500Y-77475467D01*
X122499416Y-77475889D01*
X122499459Y-77500000D01*
X122499501Y-77500101D01*
X122499616Y-77500382D01*
X122499618Y-77500384D01*
X122499808Y-77500462D01*
X122500000Y-77500541D01*
X122500002Y-77500539D01*
X122524616Y-77500524D01*
X122524616Y-77500528D01*
X122524760Y-77500500D01*
X124875500Y-77500500D01*
X124942539Y-77520185D01*
X124988294Y-77572989D01*
X124999500Y-77624500D01*
X124999500Y-122375500D01*
X124979815Y-122442539D01*
X124927011Y-122488294D01*
X124875500Y-122499500D01*
X122524760Y-122499500D01*
X122524554Y-122499459D01*
X122499999Y-122499459D01*
X122499900Y-122499500D01*
X122499618Y-122499615D01*
X122499615Y-122499618D01*
X122499459Y-122499999D01*
X122499476Y-122524616D01*
X122499471Y-122524616D01*
X122499500Y-122524759D01*
X122499500Y-124875500D01*
X122479815Y-124942539D01*
X122427011Y-124988294D01*
X122375500Y-124999500D01*
X77624500Y-124999500D01*
X77557461Y-124979815D01*
X77511706Y-124927011D01*
X77500500Y-124875500D01*
X77500500Y-122524759D01*
X77500528Y-122524616D01*
X77500524Y-122524616D01*
X77500539Y-122500002D01*
X77500541Y-122500000D01*
X77500462Y-122499808D01*
X77500384Y-122499618D01*
X77500383Y-122499617D01*
X77500379Y-122499615D01*
X77500097Y-122499499D01*
X77500000Y-122499459D01*
X77475446Y-122499459D01*
X77475240Y-122499500D01*
X75124500Y-122499500D01*
X75057461Y-122479815D01*
X75011706Y-122427011D01*
X75000500Y-122375500D01*
X75000500Y-122224674D01*
X81849500Y-122224674D01*
X81864033Y-122297738D01*
X81864033Y-122297739D01*
X81864034Y-122297740D01*
X81919399Y-122380601D01*
X82002260Y-122435966D01*
X82035304Y-122442539D01*
X82075325Y-122450500D01*
X82075326Y-122450500D01*
X83018101Y-122450500D01*
X83085140Y-122470185D01*
X83105782Y-122486819D01*
X85047850Y-124428887D01*
X85063977Y-124448746D01*
X85069916Y-124457836D01*
X85094894Y-124477277D01*
X85106412Y-124487449D01*
X85106481Y-124487518D01*
X85123389Y-124499590D01*
X85127494Y-124502650D01*
X85136713Y-124509826D01*
X85175044Y-124539660D01*
X85175233Y-124539757D01*
X85182801Y-124542010D01*
X85232959Y-124556943D01*
X85237819Y-124558499D01*
X85287340Y-124575500D01*
X85287342Y-124575500D01*
X85294796Y-124578059D01*
X85295029Y-124578093D01*
X85302908Y-124577767D01*
X85302911Y-124577768D01*
X85355192Y-124575605D01*
X85360315Y-124575500D01*
X112898195Y-124575500D01*
X112923641Y-124578139D01*
X112927440Y-124578935D01*
X112934268Y-124580367D01*
X112964138Y-124576643D01*
X112965677Y-124576452D01*
X112981014Y-124575500D01*
X112981111Y-124575500D01*
X112981114Y-124575500D01*
X113001643Y-124572073D01*
X113006659Y-124571342D01*
X113058626Y-124564866D01*
X113058628Y-124564864D01*
X113066457Y-124563889D01*
X113066666Y-124563822D01*
X113073607Y-124560065D01*
X113073610Y-124560065D01*
X113119666Y-124535140D01*
X113124144Y-124532835D01*
X113171211Y-124509826D01*
X113171212Y-124509824D01*
X113178308Y-124506356D01*
X113178476Y-124506230D01*
X113183824Y-124500419D01*
X113183826Y-124500419D01*
X113219294Y-124461889D01*
X113222795Y-124458240D01*
X116294218Y-121386819D01*
X116355542Y-121353334D01*
X116381900Y-121350500D01*
X117324675Y-121350500D01*
X117349029Y-121345655D01*
X117397740Y-121335966D01*
X117480601Y-121280601D01*
X117535966Y-121197740D01*
X117550500Y-121124674D01*
X117550500Y-120075326D01*
X117535966Y-120002260D01*
X117480601Y-119919399D01*
X117397740Y-119864034D01*
X117397739Y-119864033D01*
X117397738Y-119864033D01*
X117324675Y-119849500D01*
X117324674Y-119849500D01*
X115775326Y-119849500D01*
X115775325Y-119849500D01*
X115702261Y-119864033D01*
X115619399Y-119919399D01*
X115564033Y-120002261D01*
X115549500Y-120075325D01*
X115549500Y-121018100D01*
X115529815Y-121085139D01*
X115513181Y-121105781D01*
X112830781Y-123788181D01*
X112769458Y-123821666D01*
X112743100Y-123824500D01*
X85556899Y-123824500D01*
X85489860Y-123804815D01*
X85469218Y-123788181D01*
X83481038Y-121800000D01*
X86194785Y-121800000D01*
X86213602Y-122003083D01*
X86269418Y-122199251D01*
X86360324Y-122381818D01*
X86483236Y-122544580D01*
X86633958Y-122681981D01*
X86807361Y-122789347D01*
X86807363Y-122789348D01*
X86997544Y-122863024D01*
X87198024Y-122900500D01*
X87198026Y-122900500D01*
X87401974Y-122900500D01*
X87401976Y-122900500D01*
X87602456Y-122863024D01*
X87792637Y-122789348D01*
X87966041Y-122681981D01*
X88116764Y-122544579D01*
X88239673Y-122381821D01*
X88239673Y-122381819D01*
X88239675Y-122381818D01*
X88317922Y-122224674D01*
X88330582Y-122199250D01*
X88386397Y-122003083D01*
X88405215Y-121800000D01*
X88734785Y-121800000D01*
X88753602Y-122003083D01*
X88809418Y-122199251D01*
X88900324Y-122381818D01*
X89023236Y-122544580D01*
X89173958Y-122681981D01*
X89347361Y-122789347D01*
X89347363Y-122789348D01*
X89537544Y-122863024D01*
X89738024Y-122900500D01*
X89738026Y-122900500D01*
X89941974Y-122900500D01*
X89941976Y-122900500D01*
X90142456Y-122863024D01*
X90332637Y-122789348D01*
X90506041Y-122681981D01*
X90656764Y-122544579D01*
X90779673Y-122381821D01*
X90779673Y-122381819D01*
X90779675Y-122381818D01*
X90857922Y-122224674D01*
X90870582Y-122199250D01*
X90926397Y-122003083D01*
X90945215Y-121800000D01*
X91274785Y-121800000D01*
X91293602Y-122003083D01*
X91349418Y-122199251D01*
X91440324Y-122381818D01*
X91563236Y-122544580D01*
X91713958Y-122681981D01*
X91887361Y-122789347D01*
X91887363Y-122789348D01*
X92077544Y-122863024D01*
X92278024Y-122900500D01*
X92278026Y-122900500D01*
X92481974Y-122900500D01*
X92481976Y-122900500D01*
X92682456Y-122863024D01*
X92872637Y-122789348D01*
X93046041Y-122681981D01*
X93196764Y-122544579D01*
X93319673Y-122381821D01*
X93319673Y-122381819D01*
X93319675Y-122381818D01*
X93397922Y-122224674D01*
X93410582Y-122199250D01*
X93466397Y-122003083D01*
X93485215Y-121800000D01*
X93814785Y-121800000D01*
X93833602Y-122003083D01*
X93889418Y-122199251D01*
X93980324Y-122381818D01*
X94103236Y-122544580D01*
X94253958Y-122681981D01*
X94427361Y-122789347D01*
X94427363Y-122789348D01*
X94617544Y-122863024D01*
X94818024Y-122900500D01*
X94818026Y-122900500D01*
X95021974Y-122900500D01*
X95021976Y-122900500D01*
X95222456Y-122863024D01*
X95412637Y-122789348D01*
X95586041Y-122681981D01*
X95736764Y-122544579D01*
X95859673Y-122381821D01*
X95859673Y-122381819D01*
X95859675Y-122381818D01*
X95937922Y-122224674D01*
X95950582Y-122199250D01*
X96006397Y-122003083D01*
X96025215Y-121800000D01*
X96006397Y-121596917D01*
X95950582Y-121400750D01*
X95918324Y-121335966D01*
X95859675Y-121218181D01*
X95736763Y-121055419D01*
X95586041Y-120918018D01*
X95412638Y-120810652D01*
X95222457Y-120736976D01*
X95155629Y-120724483D01*
X95021976Y-120699500D01*
X94818024Y-120699500D01*
X94717783Y-120718238D01*
X94617542Y-120736976D01*
X94427361Y-120810652D01*
X94253958Y-120918018D01*
X94103236Y-121055419D01*
X93980324Y-121218181D01*
X93889418Y-121400748D01*
X93833602Y-121596916D01*
X93814785Y-121800000D01*
X93485215Y-121800000D01*
X93466397Y-121596917D01*
X93410582Y-121400750D01*
X93378324Y-121335966D01*
X93319675Y-121218181D01*
X93196763Y-121055419D01*
X93046041Y-120918018D01*
X92872638Y-120810652D01*
X92682457Y-120736976D01*
X92615629Y-120724483D01*
X92481976Y-120699500D01*
X92278024Y-120699500D01*
X92177784Y-120718238D01*
X92077542Y-120736976D01*
X91887361Y-120810652D01*
X91713958Y-120918018D01*
X91563236Y-121055419D01*
X91440324Y-121218181D01*
X91349418Y-121400748D01*
X91293602Y-121596916D01*
X91274785Y-121800000D01*
X90945215Y-121800000D01*
X90926397Y-121596917D01*
X90870582Y-121400750D01*
X90838324Y-121335966D01*
X90779675Y-121218181D01*
X90656763Y-121055419D01*
X90506041Y-120918018D01*
X90332638Y-120810652D01*
X90142457Y-120736976D01*
X90075629Y-120724483D01*
X89941976Y-120699500D01*
X89738024Y-120699500D01*
X89637783Y-120718238D01*
X89537542Y-120736976D01*
X89347361Y-120810652D01*
X89173958Y-120918018D01*
X89023236Y-121055419D01*
X88900324Y-121218181D01*
X88809418Y-121400748D01*
X88753602Y-121596916D01*
X88734785Y-121800000D01*
X88405215Y-121800000D01*
X88386397Y-121596917D01*
X88330582Y-121400750D01*
X88298324Y-121335966D01*
X88239675Y-121218181D01*
X88116763Y-121055419D01*
X87966041Y-120918018D01*
X87792638Y-120810652D01*
X87602457Y-120736976D01*
X87535629Y-120724483D01*
X87401976Y-120699500D01*
X87198024Y-120699500D01*
X87097784Y-120718238D01*
X86997542Y-120736976D01*
X86807361Y-120810652D01*
X86633958Y-120918018D01*
X86483236Y-121055419D01*
X86360324Y-121218181D01*
X86269418Y-121400748D01*
X86213602Y-121596916D01*
X86194785Y-121800000D01*
X83481038Y-121800000D01*
X83386819Y-121705781D01*
X83353334Y-121644458D01*
X83350500Y-121618100D01*
X83350500Y-120675325D01*
X83335966Y-120602261D01*
X83335966Y-120602260D01*
X83280601Y-120519399D01*
X83197740Y-120464034D01*
X83197739Y-120464033D01*
X83197738Y-120464033D01*
X83124675Y-120449500D01*
X83124674Y-120449500D01*
X82075326Y-120449500D01*
X82075325Y-120449500D01*
X82002261Y-120464033D01*
X81919399Y-120519399D01*
X81864033Y-120602261D01*
X81849500Y-120675325D01*
X81849500Y-122224674D01*
X75000500Y-122224674D01*
X75000500Y-118900000D01*
X104014785Y-118900000D01*
X104033602Y-119103083D01*
X104089418Y-119299251D01*
X104180324Y-119481818D01*
X104303236Y-119644580D01*
X104453958Y-119781981D01*
X104586479Y-119864034D01*
X104627363Y-119889348D01*
X104817544Y-119963024D01*
X105018024Y-120000500D01*
X105018026Y-120000500D01*
X105221974Y-120000500D01*
X105221976Y-120000500D01*
X105422456Y-119963024D01*
X105612637Y-119889348D01*
X105786041Y-119781981D01*
X105936764Y-119644579D01*
X106059673Y-119481821D01*
X106059673Y-119481819D01*
X106059675Y-119481818D01*
X106105313Y-119390161D01*
X106150582Y-119299250D01*
X106206397Y-119103083D01*
X106225215Y-118900000D01*
X106554785Y-118900000D01*
X106573602Y-119103083D01*
X106629418Y-119299251D01*
X106720324Y-119481818D01*
X106843236Y-119644580D01*
X106993958Y-119781981D01*
X107126479Y-119864034D01*
X107167363Y-119889348D01*
X107357544Y-119963024D01*
X107558024Y-120000500D01*
X107558026Y-120000500D01*
X107761974Y-120000500D01*
X107761976Y-120000500D01*
X107962456Y-119963024D01*
X108152637Y-119889348D01*
X108326041Y-119781981D01*
X108476764Y-119644579D01*
X108599673Y-119481821D01*
X108599673Y-119481819D01*
X108599675Y-119481818D01*
X108645313Y-119390161D01*
X108690582Y-119299250D01*
X108746397Y-119103083D01*
X108765215Y-118900000D01*
X109094785Y-118900000D01*
X109113602Y-119103083D01*
X109169418Y-119299251D01*
X109260324Y-119481818D01*
X109383236Y-119644580D01*
X109533958Y-119781981D01*
X109666479Y-119864034D01*
X109707363Y-119889348D01*
X109897544Y-119963024D01*
X110098024Y-120000500D01*
X110098026Y-120000500D01*
X110301974Y-120000500D01*
X110301976Y-120000500D01*
X110502456Y-119963024D01*
X110692637Y-119889348D01*
X110866041Y-119781981D01*
X110874056Y-119774674D01*
X111639500Y-119774674D01*
X111654033Y-119847738D01*
X111654033Y-119847739D01*
X111654034Y-119847740D01*
X111709399Y-119930601D01*
X111792260Y-119985966D01*
X111828792Y-119993233D01*
X111865325Y-120000500D01*
X111865326Y-120000500D01*
X113614675Y-120000500D01*
X113639029Y-119995655D01*
X113687740Y-119985966D01*
X113770601Y-119930601D01*
X113825966Y-119847740D01*
X113840500Y-119774674D01*
X113840500Y-118381898D01*
X113860185Y-118314860D01*
X113876819Y-118294218D01*
X114359218Y-117811819D01*
X114420541Y-117778334D01*
X114446899Y-117775500D01*
X115425500Y-117775500D01*
X115492539Y-117795185D01*
X115538294Y-117847989D01*
X115549500Y-117899500D01*
X115549500Y-117924674D01*
X115564033Y-117997738D01*
X115564033Y-117997739D01*
X115564034Y-117997740D01*
X115619399Y-118080601D01*
X115702260Y-118135966D01*
X115738792Y-118143233D01*
X115775325Y-118150500D01*
X115775326Y-118150500D01*
X117324675Y-118150500D01*
X117349029Y-118145655D01*
X117397740Y-118135966D01*
X117480601Y-118080601D01*
X117535966Y-117997740D01*
X117550500Y-117924674D01*
X117550500Y-116875326D01*
X117535966Y-116802260D01*
X117480601Y-116719399D01*
X117397740Y-116664034D01*
X117397739Y-116664033D01*
X117397738Y-116664033D01*
X117324675Y-116649500D01*
X117324674Y-116649500D01*
X115775326Y-116649500D01*
X115775325Y-116649500D01*
X115702261Y-116664033D01*
X115619399Y-116719399D01*
X115564033Y-116802261D01*
X115549500Y-116875325D01*
X115549500Y-116900500D01*
X115529815Y-116967539D01*
X115477011Y-117013294D01*
X115425500Y-117024500D01*
X114291803Y-117024500D01*
X114266357Y-117021861D01*
X114255731Y-117019633D01*
X114224324Y-117023548D01*
X114208987Y-117024500D01*
X114208886Y-117024500D01*
X114188359Y-117027924D01*
X114183300Y-117028661D01*
X114123556Y-117036109D01*
X114123316Y-117036186D01*
X114070359Y-117064844D01*
X114065805Y-117067188D01*
X114011721Y-117093628D01*
X114011506Y-117093788D01*
X113970729Y-117138082D01*
X113967183Y-117141777D01*
X113345781Y-117763181D01*
X113284458Y-117796666D01*
X113258100Y-117799500D01*
X111865325Y-117799500D01*
X111792261Y-117814033D01*
X111709399Y-117869399D01*
X111654033Y-117952261D01*
X111639500Y-118025325D01*
X111639500Y-119774674D01*
X110874056Y-119774674D01*
X111016764Y-119644579D01*
X111139673Y-119481821D01*
X111139673Y-119481819D01*
X111139675Y-119481818D01*
X111185313Y-119390161D01*
X111230582Y-119299250D01*
X111286397Y-119103083D01*
X111305215Y-118900000D01*
X111286397Y-118696917D01*
X111230582Y-118500750D01*
X111145827Y-118330537D01*
X111139675Y-118318181D01*
X111016763Y-118155419D01*
X110866041Y-118018018D01*
X110692638Y-117910652D01*
X110502457Y-117836976D01*
X110379726Y-117814034D01*
X110301976Y-117799500D01*
X110098024Y-117799500D01*
X110032123Y-117811819D01*
X109897542Y-117836976D01*
X109707361Y-117910652D01*
X109533958Y-118018018D01*
X109383236Y-118155419D01*
X109260324Y-118318181D01*
X109169418Y-118500748D01*
X109113602Y-118696916D01*
X109094785Y-118900000D01*
X108765215Y-118900000D01*
X108746397Y-118696917D01*
X108690582Y-118500750D01*
X108605827Y-118330537D01*
X108599675Y-118318181D01*
X108476763Y-118155419D01*
X108326041Y-118018018D01*
X108152638Y-117910652D01*
X107962457Y-117836976D01*
X107839726Y-117814034D01*
X107761976Y-117799500D01*
X107558024Y-117799500D01*
X107492123Y-117811819D01*
X107357542Y-117836976D01*
X107167361Y-117910652D01*
X106993958Y-118018018D01*
X106843236Y-118155419D01*
X106720324Y-118318181D01*
X106629418Y-118500748D01*
X106573602Y-118696916D01*
X106554785Y-118900000D01*
X106225215Y-118900000D01*
X106206397Y-118696917D01*
X106150582Y-118500750D01*
X106065827Y-118330537D01*
X106059675Y-118318181D01*
X105936763Y-118155419D01*
X105786041Y-118018018D01*
X105612638Y-117910652D01*
X105422457Y-117836976D01*
X105299726Y-117814034D01*
X105221976Y-117799500D01*
X105018024Y-117799500D01*
X104952123Y-117811819D01*
X104817542Y-117836976D01*
X104627361Y-117910652D01*
X104453958Y-118018018D01*
X104303236Y-118155419D01*
X104180324Y-118318181D01*
X104089418Y-118500748D01*
X104033602Y-118696916D01*
X104014785Y-118900000D01*
X75000500Y-118900000D01*
X75000500Y-112934267D01*
X75419633Y-112934267D01*
X75423548Y-112965676D01*
X75424500Y-112981013D01*
X75424500Y-112981116D01*
X75427918Y-113001602D01*
X75428657Y-113006670D01*
X75436107Y-113066438D01*
X75436185Y-113066682D01*
X75464827Y-113119608D01*
X75467171Y-113124162D01*
X75493634Y-113178292D01*
X75493777Y-113178482D01*
X75499579Y-113183824D01*
X75499581Y-113183826D01*
X75538108Y-113219293D01*
X75541780Y-113222817D01*
X78613181Y-116294218D01*
X78646666Y-116355541D01*
X78649500Y-116381899D01*
X78649500Y-117324674D01*
X78664033Y-117397738D01*
X78664033Y-117397739D01*
X78664034Y-117397740D01*
X78719399Y-117480601D01*
X78802260Y-117535966D01*
X78838792Y-117543233D01*
X78875325Y-117550500D01*
X78875326Y-117550500D01*
X79924675Y-117550500D01*
X79949029Y-117545655D01*
X79997740Y-117535966D01*
X80080601Y-117480601D01*
X80135966Y-117397740D01*
X80150500Y-117324674D01*
X80150500Y-115775326D01*
X80135966Y-115702260D01*
X80080601Y-115619399D01*
X79997740Y-115564034D01*
X79997739Y-115564033D01*
X79997738Y-115564033D01*
X79924675Y-115549500D01*
X79924674Y-115549500D01*
X78981899Y-115549500D01*
X78914860Y-115529815D01*
X78894218Y-115513181D01*
X76995712Y-113614674D01*
X79999500Y-113614674D01*
X80014033Y-113687738D01*
X80014033Y-113687739D01*
X80014034Y-113687740D01*
X80069399Y-113770601D01*
X80152260Y-113825966D01*
X80188792Y-113833233D01*
X80225325Y-113840500D01*
X80225326Y-113840500D01*
X81618101Y-113840500D01*
X81685140Y-113860185D01*
X81705782Y-113876819D01*
X82188181Y-114359217D01*
X82221666Y-114420540D01*
X82224500Y-114446898D01*
X82224500Y-115425500D01*
X82204815Y-115492539D01*
X82152011Y-115538294D01*
X82100500Y-115549500D01*
X82075325Y-115549500D01*
X82002261Y-115564033D01*
X81919399Y-115619399D01*
X81864033Y-115702261D01*
X81849500Y-115775325D01*
X81849500Y-117324674D01*
X81864033Y-117397738D01*
X81864033Y-117397739D01*
X81864034Y-117397740D01*
X81919399Y-117480601D01*
X82002260Y-117535966D01*
X82038792Y-117543233D01*
X82075325Y-117550500D01*
X82075326Y-117550500D01*
X83124675Y-117550500D01*
X83149029Y-117545655D01*
X83197740Y-117535966D01*
X83280601Y-117480601D01*
X83335966Y-117397740D01*
X83350500Y-117324674D01*
X83350500Y-115775326D01*
X83335966Y-115702260D01*
X83280601Y-115619399D01*
X83197740Y-115564034D01*
X83197739Y-115564033D01*
X83197738Y-115564033D01*
X83124675Y-115549500D01*
X83124674Y-115549500D01*
X83099500Y-115549500D01*
X83032461Y-115529815D01*
X82986706Y-115477011D01*
X82975500Y-115425500D01*
X82975500Y-114291803D01*
X82978139Y-114266357D01*
X82978365Y-114265274D01*
X82980367Y-114255731D01*
X82976452Y-114224323D01*
X82975500Y-114208986D01*
X82975500Y-114208889D01*
X82975500Y-114208888D01*
X82975500Y-114208886D01*
X82972070Y-114188336D01*
X82971342Y-114183340D01*
X82964865Y-114131374D01*
X82964864Y-114131373D01*
X82963888Y-114123538D01*
X82963821Y-114123331D01*
X82935160Y-114070368D01*
X82932814Y-114065812D01*
X82909826Y-114018788D01*
X82909825Y-114018787D01*
X82906361Y-114011701D01*
X82906225Y-114011519D01*
X82900419Y-114006174D01*
X82861904Y-113970718D01*
X82858231Y-113967193D01*
X82291039Y-113400000D01*
X91344721Y-113400000D01*
X91363763Y-113556818D01*
X91419780Y-113704523D01*
X91509515Y-113834528D01*
X91509516Y-113834529D01*
X91509517Y-113834530D01*
X91627760Y-113939283D01*
X91767635Y-114012696D01*
X91921015Y-114050500D01*
X92078985Y-114050500D01*
X92232365Y-114012696D01*
X92372240Y-113939283D01*
X92490483Y-113834530D01*
X92580220Y-113704523D01*
X92636237Y-113556818D01*
X92655278Y-113400000D01*
X92636237Y-113243182D01*
X92580220Y-113095477D01*
X92501283Y-112981116D01*
X92490482Y-112965468D01*
X92417273Y-112900611D01*
X92380146Y-112841422D01*
X92375500Y-112807796D01*
X92375500Y-112699999D01*
X120694785Y-112699999D01*
X120713602Y-112903083D01*
X120769418Y-113099251D01*
X120860324Y-113281818D01*
X120983236Y-113444580D01*
X121133958Y-113581981D01*
X121304766Y-113687740D01*
X121307363Y-113689348D01*
X121497544Y-113763024D01*
X121698024Y-113800500D01*
X121698026Y-113800500D01*
X121901974Y-113800500D01*
X121901976Y-113800500D01*
X122102456Y-113763024D01*
X122292637Y-113689348D01*
X122466041Y-113581981D01*
X122616764Y-113444579D01*
X122739673Y-113281821D01*
X122739673Y-113281819D01*
X122739675Y-113281818D01*
X122820445Y-113119608D01*
X122830582Y-113099250D01*
X122886397Y-112903083D01*
X122905215Y-112700000D01*
X122886397Y-112496917D01*
X122830582Y-112300750D01*
X122830209Y-112300001D01*
X122739675Y-112118181D01*
X122616763Y-111955419D01*
X122466041Y-111818018D01*
X122292638Y-111710652D01*
X122102457Y-111636976D01*
X122035629Y-111624483D01*
X121901976Y-111599500D01*
X121698024Y-111599500D01*
X121597783Y-111618238D01*
X121497542Y-111636976D01*
X121307361Y-111710652D01*
X121133958Y-111818018D01*
X120983236Y-111955419D01*
X120860324Y-112118181D01*
X120769418Y-112300748D01*
X120713602Y-112496916D01*
X120694785Y-112699999D01*
X92375500Y-112699999D01*
X92375500Y-110160000D01*
X120694785Y-110160000D01*
X120713602Y-110363083D01*
X120769418Y-110559251D01*
X120860324Y-110741818D01*
X120983236Y-110904580D01*
X121133958Y-111041981D01*
X121198561Y-111081981D01*
X121307363Y-111149348D01*
X121497544Y-111223024D01*
X121698024Y-111260500D01*
X121698026Y-111260500D01*
X121901974Y-111260500D01*
X121901976Y-111260500D01*
X122102456Y-111223024D01*
X122292637Y-111149348D01*
X122466041Y-111041981D01*
X122616764Y-110904579D01*
X122739673Y-110741821D01*
X122739673Y-110741819D01*
X122739675Y-110741818D01*
X122810664Y-110599250D01*
X122830582Y-110559250D01*
X122886397Y-110363083D01*
X122905215Y-110160000D01*
X122886397Y-109956917D01*
X122830582Y-109760750D01*
X122759591Y-109618179D01*
X122739675Y-109578181D01*
X122616763Y-109415419D01*
X122466041Y-109278018D01*
X122292638Y-109170652D01*
X122102457Y-109096976D01*
X122035629Y-109084483D01*
X121901976Y-109059500D01*
X121698024Y-109059500D01*
X121597783Y-109078238D01*
X121497542Y-109096976D01*
X121307361Y-109170652D01*
X121133958Y-109278018D01*
X120983236Y-109415419D01*
X120860324Y-109578181D01*
X120769418Y-109760748D01*
X120713602Y-109956916D01*
X120694785Y-110160000D01*
X92375500Y-110160000D01*
X92375500Y-106406898D01*
X92395185Y-106339859D01*
X92411819Y-106319217D01*
X93814120Y-104916916D01*
X95278636Y-103452399D01*
X95339957Y-103418916D01*
X95395989Y-103419685D01*
X95521015Y-103450500D01*
X95678985Y-103450500D01*
X95832365Y-103412696D01*
X95972240Y-103339283D01*
X96090483Y-103234530D01*
X96180220Y-103104523D01*
X96236237Y-102956818D01*
X96255278Y-102800000D01*
X96236237Y-102643182D01*
X96180220Y-102495477D01*
X96090483Y-102365470D01*
X95972240Y-102260717D01*
X95958449Y-102253479D01*
X95832364Y-102187303D01*
X95678985Y-102149500D01*
X95521015Y-102149500D01*
X95367635Y-102187303D01*
X95227761Y-102260716D01*
X95109515Y-102365471D01*
X95019780Y-102495476D01*
X94963763Y-102643181D01*
X94960349Y-102671295D01*
X94932725Y-102735473D01*
X94924934Y-102744027D01*
X91771108Y-105897852D01*
X91751254Y-105913976D01*
X91742165Y-105919914D01*
X91722722Y-105944894D01*
X91712563Y-105956398D01*
X91712484Y-105956476D01*
X91712479Y-105956482D01*
X91712480Y-105956482D01*
X91700390Y-105973414D01*
X91697341Y-105977504D01*
X91660354Y-106025024D01*
X91660237Y-106025253D01*
X91643057Y-106082955D01*
X91641495Y-106087831D01*
X91621941Y-106144792D01*
X91621906Y-106145034D01*
X91624394Y-106205191D01*
X91624500Y-106210315D01*
X91624500Y-112807796D01*
X91604815Y-112874835D01*
X91582727Y-112900611D01*
X91509517Y-112965468D01*
X91419780Y-113095476D01*
X91363763Y-113243181D01*
X91344721Y-113400000D01*
X82291039Y-113400000D01*
X82236819Y-113345780D01*
X82203334Y-113284457D01*
X82200500Y-113258099D01*
X82200500Y-111865325D01*
X82185966Y-111792261D01*
X82185966Y-111792260D01*
X82130601Y-111709399D01*
X82047740Y-111654034D01*
X82047739Y-111654033D01*
X82047738Y-111654033D01*
X81974675Y-111639500D01*
X81974674Y-111639500D01*
X80225326Y-111639500D01*
X80225325Y-111639500D01*
X80152261Y-111654033D01*
X80069399Y-111709399D01*
X80014033Y-111792261D01*
X79999500Y-111865325D01*
X79999500Y-113614674D01*
X76995712Y-113614674D01*
X76211819Y-112830781D01*
X76178334Y-112769458D01*
X76175500Y-112743100D01*
X76175500Y-110200000D01*
X79994785Y-110200000D01*
X80013602Y-110403083D01*
X80069418Y-110599251D01*
X80160324Y-110781818D01*
X80283236Y-110944580D01*
X80433958Y-111081981D01*
X80607361Y-111189347D01*
X80607363Y-111189348D01*
X80797544Y-111263024D01*
X80998024Y-111300500D01*
X80998026Y-111300500D01*
X81201974Y-111300500D01*
X81201976Y-111300500D01*
X81402456Y-111263024D01*
X81592637Y-111189348D01*
X81766041Y-111081981D01*
X81916764Y-110944579D01*
X82039673Y-110781821D01*
X82039673Y-110781819D01*
X82039675Y-110781818D01*
X82085313Y-110690161D01*
X82130582Y-110599250D01*
X82186397Y-110403083D01*
X82205215Y-110200000D01*
X82186397Y-109996917D01*
X82130582Y-109800750D01*
X82130209Y-109800001D01*
X82039675Y-109618181D01*
X81916763Y-109455419D01*
X81766041Y-109318018D01*
X81592638Y-109210652D01*
X81402457Y-109136976D01*
X81335629Y-109124483D01*
X81201976Y-109099500D01*
X80998024Y-109099500D01*
X80897784Y-109118238D01*
X80797542Y-109136976D01*
X80607361Y-109210652D01*
X80433958Y-109318018D01*
X80283236Y-109455419D01*
X80160324Y-109618181D01*
X80069418Y-109800748D01*
X80013602Y-109996916D01*
X79994785Y-110200000D01*
X76175500Y-110200000D01*
X76175500Y-107660000D01*
X79994785Y-107660000D01*
X80013602Y-107863083D01*
X80069418Y-108059251D01*
X80160324Y-108241818D01*
X80283236Y-108404580D01*
X80433958Y-108541981D01*
X80585750Y-108635966D01*
X80607363Y-108649348D01*
X80797544Y-108723024D01*
X80998024Y-108760500D01*
X80998026Y-108760500D01*
X81201974Y-108760500D01*
X81201976Y-108760500D01*
X81402456Y-108723024D01*
X81592637Y-108649348D01*
X81766041Y-108541981D01*
X81916764Y-108404579D01*
X82039673Y-108241821D01*
X82039673Y-108241819D01*
X82039675Y-108241818D01*
X82092014Y-108136706D01*
X82130582Y-108059250D01*
X82186397Y-107863083D01*
X82205215Y-107660000D01*
X82186397Y-107456917D01*
X82130582Y-107260750D01*
X82120180Y-107239860D01*
X82039675Y-107078181D01*
X81916763Y-106915419D01*
X81766041Y-106778018D01*
X81592638Y-106670652D01*
X81402457Y-106596976D01*
X81335629Y-106584483D01*
X81201976Y-106559500D01*
X80998024Y-106559500D01*
X80897784Y-106578238D01*
X80797542Y-106596976D01*
X80607361Y-106670652D01*
X80433958Y-106778018D01*
X80283236Y-106915419D01*
X80160324Y-107078181D01*
X80069418Y-107260748D01*
X80013602Y-107456916D01*
X79994785Y-107660000D01*
X76175500Y-107660000D01*
X76175500Y-105120000D01*
X79994785Y-105120000D01*
X80013602Y-105323083D01*
X80069418Y-105519251D01*
X80160324Y-105701818D01*
X80283236Y-105864580D01*
X80433958Y-106001981D01*
X80607361Y-106109347D01*
X80607363Y-106109348D01*
X80797544Y-106183024D01*
X80998024Y-106220500D01*
X80998026Y-106220500D01*
X81201974Y-106220500D01*
X81201976Y-106220500D01*
X81402456Y-106183024D01*
X81592637Y-106109348D01*
X81766041Y-106001981D01*
X81916764Y-105864579D01*
X82039673Y-105701821D01*
X82039673Y-105701819D01*
X82039675Y-105701818D01*
X82085313Y-105610161D01*
X82130582Y-105519250D01*
X82186397Y-105323083D01*
X82205215Y-105120000D01*
X82186397Y-104916917D01*
X82130582Y-104720750D01*
X82130209Y-104720001D01*
X82039675Y-104538181D01*
X81916763Y-104375419D01*
X81766041Y-104238018D01*
X81592638Y-104130652D01*
X81402457Y-104056976D01*
X81335629Y-104044483D01*
X81201976Y-104019500D01*
X80998024Y-104019500D01*
X80928373Y-104032520D01*
X80797542Y-104056976D01*
X80607361Y-104130652D01*
X80433958Y-104238018D01*
X80283236Y-104375419D01*
X80160324Y-104538181D01*
X80069418Y-104720748D01*
X80013602Y-104916916D01*
X79994785Y-105120000D01*
X76175500Y-105120000D01*
X76175500Y-94920000D01*
X77094785Y-94920000D01*
X77113602Y-95123083D01*
X77169418Y-95319251D01*
X77260324Y-95501818D01*
X77383236Y-95664580D01*
X77533958Y-95801981D01*
X77651824Y-95874960D01*
X77707363Y-95909348D01*
X77897544Y-95983024D01*
X78098024Y-96020500D01*
X78098026Y-96020500D01*
X78301974Y-96020500D01*
X78301976Y-96020500D01*
X78502456Y-95983024D01*
X78692637Y-95909348D01*
X78866041Y-95801981D01*
X79016764Y-95664579D01*
X79139673Y-95501821D01*
X79139673Y-95501819D01*
X79139675Y-95501818D01*
X79215752Y-95349033D01*
X79230582Y-95319250D01*
X79286397Y-95123083D01*
X79305215Y-94920000D01*
X79286397Y-94716917D01*
X79230582Y-94520750D01*
X79229909Y-94519399D01*
X79139675Y-94338181D01*
X79016763Y-94175419D01*
X78866041Y-94038018D01*
X78692638Y-93930652D01*
X78502457Y-93856976D01*
X78435629Y-93844483D01*
X78301976Y-93819500D01*
X78098024Y-93819500D01*
X77997783Y-93838238D01*
X77897542Y-93856976D01*
X77707361Y-93930652D01*
X77533958Y-94038018D01*
X77383236Y-94175419D01*
X77260324Y-94338181D01*
X77169418Y-94520748D01*
X77113602Y-94716916D01*
X77094785Y-94920000D01*
X76175500Y-94920000D01*
X76175500Y-92379999D01*
X77094785Y-92379999D01*
X77113602Y-92583083D01*
X77169418Y-92779251D01*
X77260324Y-92961818D01*
X77383236Y-93124580D01*
X77533958Y-93261981D01*
X77675588Y-93349674D01*
X77707363Y-93369348D01*
X77897544Y-93443024D01*
X78098024Y-93480500D01*
X78098026Y-93480500D01*
X78301974Y-93480500D01*
X78301976Y-93480500D01*
X78502456Y-93443024D01*
X78692637Y-93369348D01*
X78866041Y-93261981D01*
X79016764Y-93124579D01*
X79139673Y-92961821D01*
X79139673Y-92961819D01*
X79139675Y-92961818D01*
X79220323Y-92799853D01*
X79230582Y-92779250D01*
X79286397Y-92583083D01*
X79305215Y-92380000D01*
X79286704Y-92180227D01*
X79286397Y-92176916D01*
X79264200Y-92098904D01*
X79230582Y-91980750D01*
X79224675Y-91968887D01*
X79139675Y-91798181D01*
X79016763Y-91635419D01*
X78866041Y-91498018D01*
X78692638Y-91390652D01*
X78502457Y-91316976D01*
X78435629Y-91304484D01*
X78301976Y-91279500D01*
X78098024Y-91279500D01*
X77997783Y-91298238D01*
X77897542Y-91316976D01*
X77707361Y-91390652D01*
X77533958Y-91498018D01*
X77383236Y-91635419D01*
X77260324Y-91798181D01*
X77169418Y-91980748D01*
X77113602Y-92176916D01*
X77094785Y-92379999D01*
X76175500Y-92379999D01*
X76175500Y-89840000D01*
X77094785Y-89840000D01*
X77113602Y-90043083D01*
X77169418Y-90239251D01*
X77260324Y-90421818D01*
X77383236Y-90584580D01*
X77533958Y-90721981D01*
X77691002Y-90819218D01*
X77707363Y-90829348D01*
X77897544Y-90903024D01*
X78098024Y-90940500D01*
X78098026Y-90940500D01*
X78301974Y-90940500D01*
X78301976Y-90940500D01*
X78502456Y-90903024D01*
X78692637Y-90829348D01*
X78866041Y-90721981D01*
X79016764Y-90584579D01*
X79139673Y-90421821D01*
X79139673Y-90421819D01*
X79139675Y-90421818D01*
X79207251Y-90286105D01*
X79230582Y-90239250D01*
X79286397Y-90043083D01*
X79305215Y-89840000D01*
X79286397Y-89636917D01*
X79284746Y-89631116D01*
X79249034Y-89505601D01*
X79230582Y-89440750D01*
X79216176Y-89411819D01*
X79139675Y-89258181D01*
X79016763Y-89095419D01*
X78866041Y-88958018D01*
X78692638Y-88850652D01*
X78502457Y-88776976D01*
X78435629Y-88764484D01*
X78301976Y-88739500D01*
X78098024Y-88739500D01*
X78000823Y-88757670D01*
X77897542Y-88776976D01*
X77707361Y-88850652D01*
X77533958Y-88958018D01*
X77383236Y-89095419D01*
X77260324Y-89258181D01*
X77169418Y-89440748D01*
X77113602Y-89636916D01*
X77094785Y-89840000D01*
X76175500Y-89840000D01*
X76175500Y-87300000D01*
X77094785Y-87300000D01*
X77113602Y-87503083D01*
X77169418Y-87699251D01*
X77260324Y-87881818D01*
X77383236Y-88044580D01*
X77533958Y-88181981D01*
X77707361Y-88289347D01*
X77707363Y-88289348D01*
X77897544Y-88363024D01*
X78098024Y-88400500D01*
X78098026Y-88400500D01*
X78301974Y-88400500D01*
X78301976Y-88400500D01*
X78502456Y-88363024D01*
X78692637Y-88289348D01*
X78866041Y-88181981D01*
X78917934Y-88134674D01*
X79016763Y-88044580D01*
X79017819Y-88043182D01*
X79139673Y-87881821D01*
X79139673Y-87881819D01*
X79139675Y-87881818D01*
X79197608Y-87765471D01*
X79230582Y-87699250D01*
X79286397Y-87503083D01*
X79305215Y-87300000D01*
X79286397Y-87096917D01*
X79280804Y-87077261D01*
X79241475Y-86939034D01*
X79230582Y-86900750D01*
X79206313Y-86852011D01*
X79139675Y-86718181D01*
X79016763Y-86555419D01*
X78866041Y-86418018D01*
X78692638Y-86310652D01*
X78502457Y-86236976D01*
X78405281Y-86218811D01*
X78301976Y-86199500D01*
X78098024Y-86199500D01*
X77997783Y-86218238D01*
X77897542Y-86236976D01*
X77707361Y-86310652D01*
X77533958Y-86418018D01*
X77383236Y-86555419D01*
X77260324Y-86718181D01*
X77169418Y-86900748D01*
X77113602Y-87096916D01*
X77094785Y-87300000D01*
X76175500Y-87300000D01*
X76175500Y-85906899D01*
X76195185Y-85839860D01*
X76211819Y-85819218D01*
X78644218Y-83386819D01*
X78705541Y-83353334D01*
X78731899Y-83350500D01*
X79324675Y-83350500D01*
X79365902Y-83342299D01*
X79397740Y-83335966D01*
X79480601Y-83280601D01*
X79535966Y-83197740D01*
X79550500Y-83124674D01*
X82449500Y-83124674D01*
X82464033Y-83197738D01*
X82464033Y-83197739D01*
X82464034Y-83197740D01*
X82519399Y-83280601D01*
X82602260Y-83335966D01*
X82634098Y-83342299D01*
X82675325Y-83350500D01*
X82675326Y-83350500D01*
X84224675Y-83350500D01*
X84265902Y-83342299D01*
X84297740Y-83335966D01*
X84380601Y-83280601D01*
X84435966Y-83197740D01*
X84450500Y-83124674D01*
X84450500Y-83099500D01*
X84470185Y-83032461D01*
X84522989Y-82986706D01*
X84574500Y-82975500D01*
X85554101Y-82975500D01*
X85621140Y-82995185D01*
X85666895Y-83047989D01*
X85676839Y-83117147D01*
X85647814Y-83180703D01*
X85641782Y-83187181D01*
X84171108Y-84657852D01*
X84151254Y-84673976D01*
X84142165Y-84679914D01*
X84122722Y-84704894D01*
X84112563Y-84716398D01*
X84112484Y-84716476D01*
X84112479Y-84716482D01*
X84112480Y-84716482D01*
X84100390Y-84733414D01*
X84097341Y-84737504D01*
X84060354Y-84785024D01*
X84060237Y-84785253D01*
X84043057Y-84842955D01*
X84041495Y-84847831D01*
X84021941Y-84904792D01*
X84021906Y-84905034D01*
X84024394Y-84965191D01*
X84024500Y-84970315D01*
X84024500Y-88979344D01*
X84024076Y-88989584D01*
X84020607Y-89031435D01*
X84020706Y-89031823D01*
X84024500Y-89062263D01*
X84024500Y-96748196D01*
X84021861Y-96773642D01*
X84019633Y-96784267D01*
X84023548Y-96815676D01*
X84024500Y-96831013D01*
X84024500Y-96831116D01*
X84027918Y-96851602D01*
X84028657Y-96856670D01*
X84036107Y-96916438D01*
X84036185Y-96916682D01*
X84064827Y-96969608D01*
X84067171Y-96974162D01*
X84093634Y-97028292D01*
X84093777Y-97028482D01*
X84099579Y-97033824D01*
X84099581Y-97033826D01*
X84138108Y-97069293D01*
X84141780Y-97072817D01*
X88497850Y-101428887D01*
X88513977Y-101448746D01*
X88519915Y-101457836D01*
X88544893Y-101477277D01*
X88556410Y-101487448D01*
X88556481Y-101487519D01*
X88573397Y-101499597D01*
X88577505Y-101502660D01*
X88625040Y-101539658D01*
X88625232Y-101539757D01*
X88659601Y-101549988D01*
X88682955Y-101556941D01*
X88687792Y-101558490D01*
X88737340Y-101575500D01*
X88744797Y-101578060D01*
X88745030Y-101578093D01*
X88752909Y-101577767D01*
X88752912Y-101577768D01*
X88805193Y-101575605D01*
X88810316Y-101575500D01*
X95711700Y-101575500D01*
X95778739Y-101595185D01*
X95824494Y-101647989D01*
X95827875Y-101656150D01*
X95829788Y-101661278D01*
X95913884Y-101773616D01*
X96026222Y-101857712D01*
X96157701Y-101906751D01*
X96215826Y-101913000D01*
X96219136Y-101913000D01*
X96780864Y-101913000D01*
X96784174Y-101913000D01*
X96842299Y-101906751D01*
X96973778Y-101857712D01*
X97086116Y-101773616D01*
X97170212Y-101661278D01*
X97172119Y-101656164D01*
X97213990Y-101600233D01*
X97279454Y-101575816D01*
X97288300Y-101575500D01*
X98400253Y-101575500D01*
X98467292Y-101595185D01*
X98510738Y-101643206D01*
X98514353Y-101650302D01*
X98514354Y-101650304D01*
X98522082Y-101665471D01*
X98571949Y-101763342D01*
X98661656Y-101853049D01*
X98661658Y-101853050D01*
X98774696Y-101910646D01*
X98868481Y-101925500D01*
X99231518Y-101925499D01*
X99325304Y-101910646D01*
X99438342Y-101853050D01*
X99528050Y-101763342D01*
X99585646Y-101650304D01*
X99600500Y-101556519D01*
X99600499Y-100318482D01*
X99585646Y-100224696D01*
X99554801Y-100164160D01*
X99528050Y-100111657D01*
X99438343Y-100021950D01*
X99325302Y-99964353D01*
X99231521Y-99949500D01*
X98868485Y-99949500D01*
X98821589Y-99956927D01*
X98774696Y-99964354D01*
X98774694Y-99964354D01*
X98774693Y-99964355D01*
X98661657Y-100021949D01*
X98571950Y-100111656D01*
X98514353Y-100224697D01*
X98499500Y-100318478D01*
X98499500Y-100700500D01*
X98479815Y-100767539D01*
X98427011Y-100813294D01*
X98375500Y-100824500D01*
X97341848Y-100824500D01*
X97274809Y-100804815D01*
X97229054Y-100752011D01*
X97223320Y-100731110D01*
X97211903Y-100700500D01*
X97170212Y-100588722D01*
X97086116Y-100476384D01*
X96973778Y-100392288D01*
X96842299Y-100343249D01*
X96842298Y-100343248D01*
X96787460Y-100337353D01*
X96787454Y-100337352D01*
X96784174Y-100337000D01*
X96215826Y-100337000D01*
X96212546Y-100337352D01*
X96212539Y-100337353D01*
X96157700Y-100343249D01*
X96026222Y-100392288D01*
X95913884Y-100476384D01*
X95829788Y-100588722D01*
X95775306Y-100734794D01*
X95773071Y-100733960D01*
X95754703Y-100778307D01*
X95697310Y-100818155D01*
X95658152Y-100824500D01*
X89006899Y-100824500D01*
X88939860Y-100804815D01*
X88919218Y-100788181D01*
X84811819Y-96680781D01*
X84778334Y-96619458D01*
X84775500Y-96593100D01*
X84775500Y-89499500D01*
X84795185Y-89432461D01*
X84847989Y-89386706D01*
X84899500Y-89375500D01*
X89393101Y-89375500D01*
X89460140Y-89395185D01*
X89480782Y-89411819D01*
X90147850Y-90078887D01*
X90163977Y-90098746D01*
X90169915Y-90107836D01*
X90194893Y-90127277D01*
X90206410Y-90137448D01*
X90206481Y-90137519D01*
X90223397Y-90149597D01*
X90227505Y-90152660D01*
X90275041Y-90189659D01*
X90275232Y-90189756D01*
X90282799Y-90192009D01*
X90282801Y-90192010D01*
X90332974Y-90206947D01*
X90337804Y-90208494D01*
X90387340Y-90225500D01*
X90387342Y-90225500D01*
X90394799Y-90228060D01*
X90395033Y-90228094D01*
X90402909Y-90227768D01*
X90402912Y-90227769D01*
X90453227Y-90225687D01*
X90455207Y-90225606D01*
X90460331Y-90225500D01*
X96899598Y-90225500D01*
X96966637Y-90245185D01*
X97002700Y-90280609D01*
X97019399Y-90305601D01*
X97102260Y-90360966D01*
X97137617Y-90367999D01*
X97175325Y-90375500D01*
X97175326Y-90375500D01*
X98824675Y-90375500D01*
X98862383Y-90367999D01*
X98897740Y-90360966D01*
X98980601Y-90305601D01*
X99035966Y-90222740D01*
X99050500Y-90149674D01*
X99050500Y-89550326D01*
X99035966Y-89477260D01*
X98980601Y-89394399D01*
X98897740Y-89339034D01*
X98897739Y-89339033D01*
X98897738Y-89339033D01*
X98824675Y-89324500D01*
X98824674Y-89324500D01*
X97175326Y-89324500D01*
X97175325Y-89324500D01*
X97102261Y-89339033D01*
X97102259Y-89339034D01*
X97102260Y-89339034D01*
X97021344Y-89393100D01*
X97019398Y-89394400D01*
X97002700Y-89419391D01*
X96949088Y-89464196D01*
X96899598Y-89474500D01*
X90656899Y-89474500D01*
X90589860Y-89454815D01*
X90569218Y-89438181D01*
X90236574Y-89105537D01*
X89902149Y-88771111D01*
X89886022Y-88751253D01*
X89885416Y-88750326D01*
X89880084Y-88742164D01*
X89880083Y-88742162D01*
X89855110Y-88722725D01*
X89843593Y-88712554D01*
X89843519Y-88712480D01*
X89826594Y-88700397D01*
X89822480Y-88697330D01*
X89781189Y-88665191D01*
X89781186Y-88665190D01*
X89774963Y-88660346D01*
X89774761Y-88660242D01*
X89767200Y-88657990D01*
X89767199Y-88657990D01*
X89717036Y-88643055D01*
X89712174Y-88641497D01*
X89698216Y-88636706D01*
X89655202Y-88621939D01*
X89654969Y-88621906D01*
X89609910Y-88623769D01*
X89594806Y-88624394D01*
X89589684Y-88624500D01*
X84899500Y-88624500D01*
X84832461Y-88604815D01*
X84786706Y-88552011D01*
X84775500Y-88500500D01*
X84775500Y-87099999D01*
X86044721Y-87099999D01*
X86063763Y-87256818D01*
X86119780Y-87404523D01*
X86209515Y-87534528D01*
X86209516Y-87534529D01*
X86209517Y-87534530D01*
X86327760Y-87639283D01*
X86467635Y-87712696D01*
X86621015Y-87750500D01*
X86778985Y-87750500D01*
X86932365Y-87712696D01*
X87072240Y-87639283D01*
X87190483Y-87534530D01*
X87280220Y-87404523D01*
X87336237Y-87256818D01*
X87355278Y-87100000D01*
X87336237Y-86943182D01*
X87280220Y-86795477D01*
X87225044Y-86715541D01*
X87190484Y-86665471D01*
X87190481Y-86665468D01*
X87169819Y-86647164D01*
X87132694Y-86587976D01*
X87133462Y-86518111D01*
X87164365Y-86466671D01*
X88719218Y-84911819D01*
X88780542Y-84878334D01*
X88806900Y-84875500D01*
X93068107Y-84875500D01*
X93135146Y-84895185D01*
X93180901Y-84947989D01*
X93190845Y-85017147D01*
X93161820Y-85080703D01*
X93125735Y-85109294D01*
X93027760Y-85160717D01*
X92964569Y-85216698D01*
X92909515Y-85265471D01*
X92819780Y-85395476D01*
X92763763Y-85543181D01*
X92744721Y-85700000D01*
X92763763Y-85856818D01*
X92819780Y-86004523D01*
X92909515Y-86134528D01*
X92909516Y-86134529D01*
X92909517Y-86134530D01*
X93027760Y-86239283D01*
X93167635Y-86312696D01*
X93321015Y-86350500D01*
X93478983Y-86350500D01*
X93478985Y-86350500D01*
X93491285Y-86347468D01*
X93556340Y-86349017D01*
X93582997Y-86356953D01*
X93587791Y-86358490D01*
X93637340Y-86375500D01*
X93644797Y-86378060D01*
X93645030Y-86378093D01*
X93652909Y-86377767D01*
X93652912Y-86377768D01*
X93705193Y-86375605D01*
X93710316Y-86375500D01*
X94575965Y-86375500D01*
X94643004Y-86395185D01*
X94688759Y-86447989D01*
X94698703Y-86517147D01*
X94691907Y-86543470D01*
X94663763Y-86617679D01*
X94644721Y-86774500D01*
X94661924Y-86916174D01*
X94663763Y-86931318D01*
X94719780Y-87079023D01*
X94809517Y-87209030D01*
X94849481Y-87244435D01*
X94886608Y-87303624D01*
X94885840Y-87373489D01*
X94849481Y-87430064D01*
X94809517Y-87465470D01*
X94809516Y-87465471D01*
X94719780Y-87595476D01*
X94663763Y-87743181D01*
X94644721Y-87900000D01*
X94663763Y-88056818D01*
X94719780Y-88204523D01*
X94809515Y-88334528D01*
X94809516Y-88334529D01*
X94809517Y-88334530D01*
X94927760Y-88439283D01*
X95044398Y-88500500D01*
X95067635Y-88512696D01*
X95221015Y-88550500D01*
X95368100Y-88550500D01*
X95435139Y-88570185D01*
X95455781Y-88586819D01*
X95497850Y-88628888D01*
X95513974Y-88648742D01*
X95519163Y-88656684D01*
X95519916Y-88657836D01*
X95544890Y-88677274D01*
X95556408Y-88687446D01*
X95556482Y-88687520D01*
X95566410Y-88694608D01*
X95573399Y-88699598D01*
X95577508Y-88702662D01*
X95625041Y-88739658D01*
X95625232Y-88739757D01*
X95657960Y-88749500D01*
X95682955Y-88756941D01*
X95687792Y-88758490D01*
X95737340Y-88775500D01*
X95744797Y-88778060D01*
X95745030Y-88778093D01*
X95752909Y-88777767D01*
X95752912Y-88777768D01*
X95805193Y-88775605D01*
X95810316Y-88775500D01*
X97175326Y-88775500D01*
X97798195Y-88775500D01*
X97823641Y-88778139D01*
X97827440Y-88778935D01*
X97834268Y-88780367D01*
X97864138Y-88776643D01*
X97865677Y-88776452D01*
X97881014Y-88775500D01*
X98824675Y-88775500D01*
X98849029Y-88770655D01*
X98897740Y-88760966D01*
X98980601Y-88705601D01*
X99035966Y-88622740D01*
X99050500Y-88549674D01*
X99050500Y-87950326D01*
X99035966Y-87877260D01*
X99035964Y-87877258D01*
X99035355Y-87874193D01*
X99035355Y-87825807D01*
X99035964Y-87822741D01*
X99035966Y-87822740D01*
X99050500Y-87749674D01*
X99050500Y-87174499D01*
X99070185Y-87107461D01*
X99122989Y-87061706D01*
X99174500Y-87050500D01*
X99749673Y-87050500D01*
X99749674Y-87050500D01*
X99822740Y-87035966D01*
X99822741Y-87035964D01*
X99825807Y-87035355D01*
X99874193Y-87035355D01*
X99877258Y-87035964D01*
X99877260Y-87035966D01*
X99950326Y-87050500D01*
X99950327Y-87050500D01*
X100549673Y-87050500D01*
X100549674Y-87050500D01*
X100622740Y-87035966D01*
X100622741Y-87035964D01*
X100625807Y-87035355D01*
X100674193Y-87035355D01*
X100677258Y-87035964D01*
X100677260Y-87035966D01*
X100750326Y-87050500D01*
X100750327Y-87050500D01*
X101349673Y-87050500D01*
X101349674Y-87050500D01*
X101422740Y-87035966D01*
X101422741Y-87035964D01*
X101425807Y-87035355D01*
X101474193Y-87035355D01*
X101477258Y-87035964D01*
X101477260Y-87035966D01*
X101550326Y-87050500D01*
X101550327Y-87050500D01*
X102149673Y-87050500D01*
X102149674Y-87050500D01*
X102222740Y-87035966D01*
X102222741Y-87035964D01*
X102225807Y-87035355D01*
X102274193Y-87035355D01*
X102277258Y-87035964D01*
X102277260Y-87035966D01*
X102350326Y-87050500D01*
X102350327Y-87050500D01*
X102949673Y-87050500D01*
X102949674Y-87050500D01*
X103022740Y-87035966D01*
X103022741Y-87035964D01*
X103025807Y-87035355D01*
X103074193Y-87035355D01*
X103077258Y-87035964D01*
X103077260Y-87035966D01*
X103150326Y-87050500D01*
X103150327Y-87050500D01*
X103749673Y-87050500D01*
X103749674Y-87050500D01*
X103822740Y-87035966D01*
X103822741Y-87035964D01*
X103825807Y-87035355D01*
X103874193Y-87035355D01*
X103877258Y-87035964D01*
X103877260Y-87035966D01*
X103950326Y-87050500D01*
X103950327Y-87050500D01*
X104549673Y-87050500D01*
X104549674Y-87050500D01*
X104622740Y-87035966D01*
X104622741Y-87035964D01*
X104625807Y-87035355D01*
X104674193Y-87035355D01*
X104677258Y-87035964D01*
X104677260Y-87035966D01*
X104750326Y-87050500D01*
X104750327Y-87050500D01*
X105325500Y-87050500D01*
X105392539Y-87070185D01*
X105438294Y-87122989D01*
X105449500Y-87174500D01*
X105449500Y-87749674D01*
X105464644Y-87825807D01*
X105464644Y-87874190D01*
X105449500Y-87950323D01*
X105449500Y-88549674D01*
X105464644Y-88625807D01*
X105464644Y-88674190D01*
X105449500Y-88750323D01*
X105449500Y-89349674D01*
X105464033Y-89422738D01*
X105464033Y-89422739D01*
X105464034Y-89422740D01*
X105519399Y-89505601D01*
X105602260Y-89560966D01*
X105638792Y-89568233D01*
X105675325Y-89575500D01*
X105675326Y-89575500D01*
X107324675Y-89575500D01*
X107349029Y-89570655D01*
X107397740Y-89560966D01*
X107480601Y-89505601D01*
X107535966Y-89422740D01*
X107550500Y-89349674D01*
X107550500Y-88750326D01*
X107550499Y-88750325D01*
X107550500Y-88749500D01*
X107570185Y-88682461D01*
X107622989Y-88636706D01*
X107674500Y-88625500D01*
X108752297Y-88625500D01*
X108819336Y-88645185D01*
X108834523Y-88656684D01*
X108882964Y-88699598D01*
X108927760Y-88739283D01*
X109067635Y-88812696D01*
X109221015Y-88850500D01*
X109378985Y-88850500D01*
X109532365Y-88812696D01*
X109672240Y-88739283D01*
X109790483Y-88634530D01*
X109880220Y-88504523D01*
X109936237Y-88356818D01*
X109955278Y-88200000D01*
X109936237Y-88043182D01*
X109880220Y-87895477D01*
X109831919Y-87825500D01*
X109790484Y-87765471D01*
X109772653Y-87749674D01*
X109672240Y-87660717D01*
X109658994Y-87653764D01*
X109532364Y-87587303D01*
X109378985Y-87549500D01*
X109221015Y-87549500D01*
X109067635Y-87587303D01*
X108927761Y-87660716D01*
X108809515Y-87765471D01*
X108771229Y-87820940D01*
X108716946Y-87864930D01*
X108669179Y-87874500D01*
X107674500Y-87874500D01*
X107607461Y-87854815D01*
X107561706Y-87802011D01*
X107550500Y-87750500D01*
X107550500Y-87465470D01*
X107550500Y-87150326D01*
X107535966Y-87077260D01*
X107480601Y-86994399D01*
X107397740Y-86939034D01*
X107397739Y-86939033D01*
X107397738Y-86939033D01*
X107324675Y-86924500D01*
X107324674Y-86924500D01*
X105699500Y-86924500D01*
X105632461Y-86904815D01*
X105586706Y-86852011D01*
X105575500Y-86800500D01*
X105575500Y-85175325D01*
X105563607Y-85115537D01*
X105560966Y-85102260D01*
X105505601Y-85019399D01*
X105422740Y-84964034D01*
X105422739Y-84964033D01*
X105422738Y-84964033D01*
X105349675Y-84949500D01*
X105349674Y-84949500D01*
X104750326Y-84949500D01*
X104750325Y-84949500D01*
X104674192Y-84964644D01*
X104625808Y-84964644D01*
X104549675Y-84949500D01*
X104549674Y-84949500D01*
X103950326Y-84949500D01*
X103949500Y-84949500D01*
X103882461Y-84929815D01*
X103836706Y-84877011D01*
X103825500Y-84825500D01*
X103825500Y-84498507D01*
X103845185Y-84431468D01*
X103897989Y-84385713D01*
X103919824Y-84378110D01*
X103982365Y-84362696D01*
X104122240Y-84289283D01*
X104240483Y-84184530D01*
X104330220Y-84054523D01*
X104386237Y-83906818D01*
X104405278Y-83750000D01*
X104386237Y-83593182D01*
X104330220Y-83445477D01*
X104266619Y-83353334D01*
X104240484Y-83315471D01*
X104232303Y-83308223D01*
X104122240Y-83210717D01*
X104097511Y-83197738D01*
X103982364Y-83137303D01*
X103828985Y-83099500D01*
X103671015Y-83099500D01*
X103517635Y-83137303D01*
X103377761Y-83210716D01*
X103294843Y-83284174D01*
X103259517Y-83315470D01*
X103251548Y-83327013D01*
X103197266Y-83371003D01*
X103127818Y-83378662D01*
X103065253Y-83347558D01*
X103029436Y-83287567D01*
X103025500Y-83256572D01*
X103025500Y-82732076D01*
X103045185Y-82665037D01*
X103067273Y-82639260D01*
X103069892Y-82636939D01*
X103069895Y-82636938D01*
X103188138Y-82532185D01*
X103277875Y-82402178D01*
X103333892Y-82254473D01*
X103352933Y-82097655D01*
X103333892Y-81940837D01*
X103296965Y-81843470D01*
X103291599Y-81773808D01*
X103324747Y-81712302D01*
X103385885Y-81678480D01*
X103412908Y-81675500D01*
X105343101Y-81675500D01*
X105410140Y-81695185D01*
X105430782Y-81711819D01*
X106475681Y-82756717D01*
X106509166Y-82818040D01*
X106512000Y-82844397D01*
X106512000Y-83284174D01*
X106512352Y-83287454D01*
X106512353Y-83287460D01*
X106515365Y-83315471D01*
X106518249Y-83342299D01*
X106567288Y-83473778D01*
X106651384Y-83586116D01*
X106763722Y-83670212D01*
X106895201Y-83719251D01*
X106953326Y-83725500D01*
X107393101Y-83725500D01*
X107460140Y-83745185D01*
X107480782Y-83761819D01*
X112788181Y-89069218D01*
X112821666Y-89130541D01*
X112824500Y-89156899D01*
X112824500Y-89548196D01*
X112821861Y-89573642D01*
X112819633Y-89584267D01*
X112823548Y-89615676D01*
X112824500Y-89631013D01*
X112824500Y-89631116D01*
X112827918Y-89651602D01*
X112828657Y-89656670D01*
X112836107Y-89716438D01*
X112836185Y-89716682D01*
X112864827Y-89769608D01*
X112867171Y-89774162D01*
X112893634Y-89828292D01*
X112893779Y-89828485D01*
X112938080Y-89869267D01*
X112941779Y-89872816D01*
X113888181Y-90819218D01*
X113921666Y-90880541D01*
X113924500Y-90906899D01*
X113924500Y-103393100D01*
X113904815Y-103460139D01*
X113888181Y-103480781D01*
X112720781Y-104648181D01*
X112659458Y-104681666D01*
X112633100Y-104684500D01*
X110619186Y-104684500D01*
X110552147Y-104664815D01*
X110508186Y-104615771D01*
X110439675Y-104478181D01*
X110319638Y-104319227D01*
X110294946Y-104253866D01*
X110309511Y-104185531D01*
X110358708Y-104135918D01*
X110418592Y-104120500D01*
X110903195Y-104120500D01*
X110928641Y-104123139D01*
X110932440Y-104123935D01*
X110939268Y-104125367D01*
X110969138Y-104121643D01*
X110970677Y-104121452D01*
X110986014Y-104120500D01*
X110986111Y-104120500D01*
X110986114Y-104120500D01*
X111006643Y-104117073D01*
X111011659Y-104116342D01*
X111063626Y-104109866D01*
X111063628Y-104109864D01*
X111071457Y-104108889D01*
X111071666Y-104108822D01*
X111078607Y-104105065D01*
X111078610Y-104105065D01*
X111124666Y-104080140D01*
X111129144Y-104077835D01*
X111176211Y-104054826D01*
X111176212Y-104054824D01*
X111183308Y-104051356D01*
X111183476Y-104051230D01*
X111188824Y-104045419D01*
X111188826Y-104045419D01*
X111224294Y-104006889D01*
X111227795Y-104003240D01*
X112444217Y-102786819D01*
X112505540Y-102753334D01*
X112531898Y-102750500D01*
X112678985Y-102750500D01*
X112832365Y-102712696D01*
X112972240Y-102639283D01*
X113090483Y-102534530D01*
X113180220Y-102404523D01*
X113236237Y-102256818D01*
X113255278Y-102100000D01*
X113236237Y-101943182D01*
X113180220Y-101795477D01*
X113090483Y-101665470D01*
X112972240Y-101560717D01*
X112914957Y-101530652D01*
X112832364Y-101487303D01*
X112678985Y-101449500D01*
X112521015Y-101449500D01*
X112367635Y-101487303D01*
X112227761Y-101560716D01*
X112109515Y-101665471D01*
X112019780Y-101795476D01*
X111963763Y-101943181D01*
X111944722Y-102099999D01*
X111950896Y-102150852D01*
X111939435Y-102219776D01*
X111915481Y-102253479D01*
X110835781Y-103333181D01*
X110774458Y-103366666D01*
X110748100Y-103369500D01*
X110486557Y-103369500D01*
X110419518Y-103349815D01*
X110373763Y-103297011D01*
X110363819Y-103227853D01*
X110387603Y-103170773D01*
X110399146Y-103155486D01*
X110439673Y-103101821D01*
X110439673Y-103101819D01*
X110439675Y-103101818D01*
X110513537Y-102953481D01*
X110530582Y-102919250D01*
X110586397Y-102723083D01*
X110605215Y-102520000D01*
X110586397Y-102316917D01*
X110530582Y-102120750D01*
X110520249Y-102099999D01*
X110439675Y-101938181D01*
X110316763Y-101775419D01*
X110166041Y-101638018D01*
X109992638Y-101530652D01*
X109802457Y-101456976D01*
X109700841Y-101437981D01*
X109601976Y-101419500D01*
X109398024Y-101419500D01*
X109299159Y-101437981D01*
X109197542Y-101456976D01*
X109007361Y-101530652D01*
X108833958Y-101638018D01*
X108683236Y-101775419D01*
X108560324Y-101938181D01*
X108491814Y-102075771D01*
X108444312Y-102127008D01*
X108380814Y-102144500D01*
X108226899Y-102144500D01*
X108159860Y-102124815D01*
X108139218Y-102108181D01*
X104661819Y-98630781D01*
X104628334Y-98569458D01*
X104625500Y-98543100D01*
X104625500Y-97455899D01*
X104645185Y-97388860D01*
X104697989Y-97343105D01*
X104767147Y-97333161D01*
X104830703Y-97362186D01*
X104837181Y-97368218D01*
X107677850Y-100208887D01*
X107693977Y-100228746D01*
X107699915Y-100237836D01*
X107724893Y-100257277D01*
X107736410Y-100267448D01*
X107736481Y-100267519D01*
X107753397Y-100279597D01*
X107757505Y-100282660D01*
X107805040Y-100319658D01*
X107805232Y-100319757D01*
X107839601Y-100329988D01*
X107862955Y-100336941D01*
X107867792Y-100338490D01*
X107917340Y-100355500D01*
X107924797Y-100358060D01*
X107925030Y-100358093D01*
X107932909Y-100357767D01*
X107932912Y-100357768D01*
X107985193Y-100355605D01*
X107990316Y-100355500D01*
X108380814Y-100355500D01*
X108447853Y-100375185D01*
X108491814Y-100424229D01*
X108560324Y-100561818D01*
X108683236Y-100724580D01*
X108833958Y-100861981D01*
X109007361Y-100969347D01*
X109007363Y-100969348D01*
X109197544Y-101043024D01*
X109398024Y-101080500D01*
X109398026Y-101080500D01*
X109601974Y-101080500D01*
X109601976Y-101080500D01*
X109802456Y-101043024D01*
X109992637Y-100969348D01*
X110166041Y-100861981D01*
X110269639Y-100767539D01*
X110316763Y-100724580D01*
X110320070Y-100720201D01*
X110439673Y-100561821D01*
X110439673Y-100561819D01*
X110439675Y-100561818D01*
X110508185Y-100424229D01*
X110530582Y-100379250D01*
X110586397Y-100183083D01*
X110605215Y-99980000D01*
X110586397Y-99776917D01*
X110530582Y-99580750D01*
X110524323Y-99568181D01*
X110439675Y-99398181D01*
X110316763Y-99235419D01*
X110166041Y-99098018D01*
X109992638Y-98990652D01*
X109802457Y-98916976D01*
X109735629Y-98904483D01*
X109601976Y-98879500D01*
X109398024Y-98879500D01*
X109297784Y-98898238D01*
X109197542Y-98916976D01*
X109007361Y-98990652D01*
X108833958Y-99098018D01*
X108683236Y-99235419D01*
X108560324Y-99398181D01*
X108491814Y-99535771D01*
X108444312Y-99587008D01*
X108380814Y-99604500D01*
X108186899Y-99604500D01*
X108119860Y-99584815D01*
X108099218Y-99568181D01*
X105461818Y-96930780D01*
X105428333Y-96869457D01*
X105425499Y-96843107D01*
X105425499Y-95600401D01*
X105445184Y-95533363D01*
X105480611Y-95497298D01*
X105505601Y-95480601D01*
X105560966Y-95397740D01*
X105575500Y-95324674D01*
X105575500Y-93699500D01*
X105595185Y-93632461D01*
X105647989Y-93586706D01*
X105699500Y-93575500D01*
X106000500Y-93575500D01*
X106067539Y-93595185D01*
X106113294Y-93647989D01*
X106124500Y-93699500D01*
X106124500Y-95698196D01*
X106121861Y-95723642D01*
X106119633Y-95734267D01*
X106123548Y-95765676D01*
X106124500Y-95781013D01*
X106124500Y-95781116D01*
X106127918Y-95801602D01*
X106128657Y-95806670D01*
X106136107Y-95866438D01*
X106136185Y-95866682D01*
X106164827Y-95919608D01*
X106167171Y-95924162D01*
X106193634Y-95978292D01*
X106193779Y-95978485D01*
X106238080Y-96019267D01*
X106241779Y-96022816D01*
X107887850Y-97668888D01*
X107903976Y-97688744D01*
X107909916Y-97697836D01*
X107934890Y-97717274D01*
X107946408Y-97727446D01*
X107946482Y-97727520D01*
X107950470Y-97730367D01*
X107963399Y-97739598D01*
X107967508Y-97742662D01*
X108015041Y-97779658D01*
X108015232Y-97779757D01*
X108049601Y-97789988D01*
X108072955Y-97796941D01*
X108077792Y-97798490D01*
X108127340Y-97815500D01*
X108134797Y-97818060D01*
X108135030Y-97818093D01*
X108142909Y-97817767D01*
X108142912Y-97817768D01*
X108195193Y-97815605D01*
X108200316Y-97815500D01*
X108380814Y-97815500D01*
X108447853Y-97835185D01*
X108491814Y-97884229D01*
X108560324Y-98021818D01*
X108683236Y-98184580D01*
X108833958Y-98321981D01*
X109007361Y-98429347D01*
X109007363Y-98429348D01*
X109197544Y-98503024D01*
X109398024Y-98540500D01*
X109398026Y-98540500D01*
X109601974Y-98540500D01*
X109601976Y-98540500D01*
X109802456Y-98503024D01*
X109992637Y-98429348D01*
X110166041Y-98321981D01*
X110316764Y-98184579D01*
X110439673Y-98021821D01*
X110439673Y-98021819D01*
X110439675Y-98021818D01*
X110508186Y-97884229D01*
X110555688Y-97832992D01*
X110619186Y-97815500D01*
X111317295Y-97815500D01*
X111384334Y-97835185D01*
X111417366Y-97873305D01*
X111419104Y-97872005D01*
X111429787Y-97886276D01*
X111429788Y-97886278D01*
X111513884Y-97998616D01*
X111626222Y-98082712D01*
X111757701Y-98131751D01*
X111815826Y-98138000D01*
X111819136Y-98138000D01*
X112380864Y-98138000D01*
X112384174Y-98138000D01*
X112442299Y-98131751D01*
X112573778Y-98082712D01*
X112686116Y-97998616D01*
X112770212Y-97886278D01*
X112819251Y-97754799D01*
X112825500Y-97696674D01*
X112825500Y-97103326D01*
X112819251Y-97045201D01*
X112770212Y-96913722D01*
X112686116Y-96801384D01*
X112573778Y-96717288D01*
X112442299Y-96668249D01*
X112442298Y-96668248D01*
X112387460Y-96662353D01*
X112387454Y-96662352D01*
X112384174Y-96662000D01*
X111815826Y-96662000D01*
X111812546Y-96662352D01*
X111812539Y-96662353D01*
X111757700Y-96668249D01*
X111626222Y-96717288D01*
X111513884Y-96801384D01*
X111429788Y-96913721D01*
X111429787Y-96913722D01*
X111429788Y-96913722D01*
X111408098Y-96971877D01*
X111403638Y-96983834D01*
X111361766Y-97039767D01*
X111296302Y-97064184D01*
X111287456Y-97064500D01*
X110619186Y-97064500D01*
X110552147Y-97044815D01*
X110508186Y-96995771D01*
X110439675Y-96858181D01*
X110316763Y-96695419D01*
X110166041Y-96558018D01*
X109992638Y-96450652D01*
X109802457Y-96376976D01*
X109735629Y-96364484D01*
X109601976Y-96339500D01*
X109398024Y-96339500D01*
X109297784Y-96358238D01*
X109197542Y-96376976D01*
X109007361Y-96450652D01*
X108833958Y-96558018D01*
X108683236Y-96695419D01*
X108560325Y-96858181D01*
X108497161Y-96985033D01*
X108449659Y-97036270D01*
X108381996Y-97053692D01*
X108315655Y-97031767D01*
X108298480Y-97017443D01*
X106911819Y-95630781D01*
X106878334Y-95569458D01*
X106875500Y-95543100D01*
X106875500Y-93699500D01*
X106895185Y-93632461D01*
X106947989Y-93586706D01*
X106999500Y-93575500D01*
X107324675Y-93575500D01*
X107349029Y-93570655D01*
X107397740Y-93560966D01*
X107480601Y-93505601D01*
X107535966Y-93422740D01*
X107550500Y-93349674D01*
X107550500Y-92753426D01*
X107570185Y-92686388D01*
X107622989Y-92640633D01*
X107659167Y-92630379D01*
X107659266Y-92630366D01*
X107659268Y-92630367D01*
X107675286Y-92628370D01*
X107690681Y-92626452D01*
X107706014Y-92625500D01*
X107706111Y-92625500D01*
X107706114Y-92625500D01*
X107726643Y-92622073D01*
X107731659Y-92621342D01*
X107783626Y-92614866D01*
X107783628Y-92614864D01*
X107791457Y-92613889D01*
X107791666Y-92613822D01*
X107798607Y-92610065D01*
X107798610Y-92610065D01*
X107844666Y-92585140D01*
X107849144Y-92582835D01*
X107896211Y-92559826D01*
X107896212Y-92559824D01*
X107903308Y-92556356D01*
X107903476Y-92556230D01*
X107908824Y-92550419D01*
X107908826Y-92550419D01*
X107944294Y-92511889D01*
X107947795Y-92508240D01*
X108544217Y-91911819D01*
X108605541Y-91878334D01*
X108631899Y-91875500D01*
X108793101Y-91875500D01*
X108860140Y-91895185D01*
X108880782Y-91911819D01*
X109088181Y-92119218D01*
X109121666Y-92180541D01*
X109124500Y-92206899D01*
X109124500Y-93675500D01*
X109104815Y-93742539D01*
X109052011Y-93788294D01*
X109000500Y-93799500D01*
X108625325Y-93799500D01*
X108552261Y-93814033D01*
X108469399Y-93869399D01*
X108414033Y-93952261D01*
X108399500Y-94025325D01*
X108399500Y-95774674D01*
X108414033Y-95847738D01*
X108414033Y-95847739D01*
X108414034Y-95847740D01*
X108469399Y-95930601D01*
X108552260Y-95985966D01*
X108584098Y-95992299D01*
X108625325Y-96000500D01*
X108625326Y-96000500D01*
X110374675Y-96000500D01*
X110415902Y-95992299D01*
X110447740Y-95985966D01*
X110530601Y-95930601D01*
X110569974Y-95871674D01*
X111374500Y-95871674D01*
X111380749Y-95929799D01*
X111429788Y-96061278D01*
X111513884Y-96173616D01*
X111626222Y-96257712D01*
X111757701Y-96306751D01*
X111815826Y-96313000D01*
X111819136Y-96313000D01*
X112380864Y-96313000D01*
X112384174Y-96313000D01*
X112442299Y-96306751D01*
X112573778Y-96257712D01*
X112686116Y-96173616D01*
X112770212Y-96061278D01*
X112819251Y-95929799D01*
X112825500Y-95871674D01*
X112825500Y-95278326D01*
X112819251Y-95220201D01*
X112770212Y-95088722D01*
X112686116Y-94976384D01*
X112573778Y-94892288D01*
X112573776Y-94892287D01*
X112556164Y-94885718D01*
X112500231Y-94843845D01*
X112475816Y-94778381D01*
X112475500Y-94769537D01*
X112475500Y-94417962D01*
X112495185Y-94350923D01*
X112547989Y-94305168D01*
X112556162Y-94301782D01*
X112573778Y-94295212D01*
X112686116Y-94211116D01*
X112770212Y-94098778D01*
X112819251Y-93967299D01*
X112825500Y-93909174D01*
X112825500Y-93240826D01*
X112819251Y-93182701D01*
X112770212Y-93051222D01*
X112686116Y-92938884D01*
X112573778Y-92854788D01*
X112442299Y-92805749D01*
X112442299Y-92805748D01*
X112387460Y-92799853D01*
X112387454Y-92799852D01*
X112384174Y-92799500D01*
X111815826Y-92799500D01*
X111812546Y-92799852D01*
X111812539Y-92799853D01*
X111757700Y-92805749D01*
X111626222Y-92854788D01*
X111513884Y-92938884D01*
X111429788Y-93051222D01*
X111417347Y-93084579D01*
X111380749Y-93182701D01*
X111374500Y-93240826D01*
X111374500Y-93909174D01*
X111380749Y-93967299D01*
X111429788Y-94098778D01*
X111487163Y-94175421D01*
X111513884Y-94211116D01*
X111626221Y-94295212D01*
X111633000Y-94297740D01*
X111643830Y-94301779D01*
X111699765Y-94343649D01*
X111724184Y-94409112D01*
X111724500Y-94417962D01*
X111724500Y-94769537D01*
X111704815Y-94836576D01*
X111652011Y-94882331D01*
X111643836Y-94885718D01*
X111626223Y-94892287D01*
X111513884Y-94976384D01*
X111429788Y-95088722D01*
X111380749Y-95220200D01*
X111375001Y-95273668D01*
X111374500Y-95278326D01*
X111374500Y-95871674D01*
X110569974Y-95871674D01*
X110585966Y-95847740D01*
X110600500Y-95774674D01*
X110600500Y-94025326D01*
X110585966Y-93952260D01*
X110530601Y-93869399D01*
X110447740Y-93814034D01*
X110447739Y-93814033D01*
X110447738Y-93814033D01*
X110374675Y-93799500D01*
X110374674Y-93799500D01*
X109999500Y-93799500D01*
X109932461Y-93779815D01*
X109886706Y-93727011D01*
X109875500Y-93675500D01*
X109875500Y-92051803D01*
X109878139Y-92026356D01*
X109880367Y-92015732D01*
X109876452Y-91984322D01*
X109875500Y-91968985D01*
X109875500Y-91968887D01*
X109875500Y-91968886D01*
X109872075Y-91948369D01*
X109871341Y-91943325D01*
X109863891Y-91883550D01*
X109863821Y-91883332D01*
X109860065Y-91876392D01*
X109860065Y-91876390D01*
X109835148Y-91830348D01*
X109832828Y-91825840D01*
X109809826Y-91778789D01*
X109809825Y-91778788D01*
X109806360Y-91771700D01*
X109806225Y-91771519D01*
X109791734Y-91758179D01*
X109761892Y-91730707D01*
X109758219Y-91727182D01*
X109302149Y-91271111D01*
X109286022Y-91251253D01*
X109280083Y-91242162D01*
X109255110Y-91222725D01*
X109243593Y-91212554D01*
X109243519Y-91212480D01*
X109226594Y-91200397D01*
X109222480Y-91197330D01*
X109181189Y-91165191D01*
X109181186Y-91165190D01*
X109174963Y-91160346D01*
X109174761Y-91160242D01*
X109167200Y-91157990D01*
X109167199Y-91157990D01*
X109117036Y-91143055D01*
X109112174Y-91141497D01*
X109100780Y-91137586D01*
X109055202Y-91121939D01*
X109054969Y-91121906D01*
X109009910Y-91123769D01*
X108994806Y-91124394D01*
X108989684Y-91124500D01*
X108631899Y-91124500D01*
X108564860Y-91104815D01*
X108544218Y-91088181D01*
X107877149Y-90421111D01*
X107861022Y-90401253D01*
X107855083Y-90392162D01*
X107830110Y-90372725D01*
X107818593Y-90362554D01*
X107818519Y-90362480D01*
X107801594Y-90350397D01*
X107797480Y-90347330D01*
X107756189Y-90315191D01*
X107756186Y-90315190D01*
X107749963Y-90310346D01*
X107749761Y-90310242D01*
X107742200Y-90307990D01*
X107742199Y-90307990D01*
X107692036Y-90293055D01*
X107687174Y-90291497D01*
X107671713Y-90286190D01*
X107630202Y-90271939D01*
X107629967Y-90271905D01*
X107604562Y-90272956D01*
X107536767Y-90256057D01*
X107496338Y-90217952D01*
X107480601Y-90194399D01*
X107397740Y-90139034D01*
X107397739Y-90139033D01*
X107397738Y-90139033D01*
X107324675Y-90124500D01*
X107324674Y-90124500D01*
X105675326Y-90124500D01*
X105675325Y-90124500D01*
X105602261Y-90139033D01*
X105581867Y-90152660D01*
X105522975Y-90192010D01*
X105519398Y-90194400D01*
X105502971Y-90218985D01*
X105449359Y-90263790D01*
X105380034Y-90272497D01*
X105374424Y-90271455D01*
X105365733Y-90269632D01*
X105334323Y-90273548D01*
X105318986Y-90274500D01*
X105318884Y-90274500D01*
X105298381Y-90277920D01*
X105293320Y-90278657D01*
X105233572Y-90286105D01*
X105233308Y-90286190D01*
X105180365Y-90314840D01*
X105175814Y-90317183D01*
X105121718Y-90343630D01*
X105121505Y-90343788D01*
X105080719Y-90388093D01*
X105077172Y-90391789D01*
X104430781Y-91038181D01*
X104369458Y-91071666D01*
X104343100Y-91074500D01*
X99100402Y-91074500D01*
X99033363Y-91054815D01*
X98997300Y-91019391D01*
X98994722Y-91015534D01*
X98980601Y-90994399D01*
X98897740Y-90939034D01*
X98897739Y-90939033D01*
X98897738Y-90939033D01*
X98824675Y-90924500D01*
X98824674Y-90924500D01*
X97175326Y-90924500D01*
X97175325Y-90924500D01*
X97102261Y-90939033D01*
X97019399Y-90994399D01*
X96964033Y-91077261D01*
X96949500Y-91150325D01*
X96949500Y-91749674D01*
X96954798Y-91776308D01*
X96948571Y-91845899D01*
X96905709Y-91901077D01*
X96839819Y-91924322D01*
X96833181Y-91924500D01*
X94106900Y-91924500D01*
X94039861Y-91904815D01*
X94019219Y-91888181D01*
X93702149Y-91571111D01*
X93686022Y-91551253D01*
X93680083Y-91542162D01*
X93655110Y-91522725D01*
X93643593Y-91512554D01*
X93643519Y-91512480D01*
X93626594Y-91500397D01*
X93622480Y-91497330D01*
X93581189Y-91465191D01*
X93581186Y-91465190D01*
X93574963Y-91460346D01*
X93574761Y-91460242D01*
X93567200Y-91457990D01*
X93567199Y-91457990D01*
X93517036Y-91443055D01*
X93512174Y-91441497D01*
X93500780Y-91437586D01*
X93455202Y-91421939D01*
X93454969Y-91421906D01*
X93409910Y-91423769D01*
X93394806Y-91424394D01*
X93389684Y-91424500D01*
X88499500Y-91424500D01*
X88432461Y-91404815D01*
X88386706Y-91352011D01*
X88375500Y-91300500D01*
X88375500Y-91056635D01*
X88375500Y-91056634D01*
X88375500Y-91053326D01*
X88369251Y-90995201D01*
X88320212Y-90863722D01*
X88236116Y-90751384D01*
X88123778Y-90667288D01*
X87992299Y-90618249D01*
X87992299Y-90618248D01*
X87937460Y-90612353D01*
X87937454Y-90612352D01*
X87934174Y-90612000D01*
X87365826Y-90612000D01*
X87362546Y-90612352D01*
X87362539Y-90612353D01*
X87307700Y-90618249D01*
X87176222Y-90667288D01*
X87063884Y-90751384D01*
X86979788Y-90863722D01*
X86930749Y-90995200D01*
X86924858Y-91050000D01*
X86924500Y-91053326D01*
X86924500Y-91746674D01*
X86924852Y-91749954D01*
X86924853Y-91749960D01*
X86930748Y-91804798D01*
X86930749Y-91804799D01*
X86979788Y-91936278D01*
X87063884Y-92048616D01*
X87176222Y-92132712D01*
X87307701Y-92181751D01*
X87365826Y-92188000D01*
X87369136Y-92188000D01*
X87930864Y-92188000D01*
X87934174Y-92188000D01*
X87992299Y-92181751D01*
X87992301Y-92181750D01*
X88006468Y-92180227D01*
X88022708Y-92176948D01*
X88050673Y-92175792D01*
X88055193Y-92175606D01*
X88060312Y-92175500D01*
X92388154Y-92175500D01*
X92455193Y-92195185D01*
X92500948Y-92247989D01*
X92510892Y-92317147D01*
X92509771Y-92323692D01*
X92499500Y-92375325D01*
X92499500Y-94224674D01*
X92514033Y-94297738D01*
X92514033Y-94297739D01*
X92514034Y-94297740D01*
X92569399Y-94380601D01*
X92652260Y-94435966D01*
X92688792Y-94443233D01*
X92725325Y-94450500D01*
X92725326Y-94450500D01*
X94874675Y-94450500D01*
X94899029Y-94445655D01*
X94947740Y-94435966D01*
X95030601Y-94380601D01*
X95085966Y-94297740D01*
X95100500Y-94224674D01*
X95100500Y-92799500D01*
X95120185Y-92732461D01*
X95172989Y-92686706D01*
X95224500Y-92675500D01*
X96825500Y-92675500D01*
X96892539Y-92695185D01*
X96938294Y-92747989D01*
X96949500Y-92799500D01*
X96949500Y-93349674D01*
X96964033Y-93422738D01*
X96964033Y-93422739D01*
X96964034Y-93422740D01*
X97019399Y-93505601D01*
X97102260Y-93560966D01*
X97138792Y-93568233D01*
X97175325Y-93575500D01*
X97175326Y-93575500D01*
X97500500Y-93575500D01*
X97567539Y-93595185D01*
X97613294Y-93647989D01*
X97624500Y-93699500D01*
X97624500Y-94893100D01*
X97604815Y-94960139D01*
X97588181Y-94980781D01*
X95630781Y-96938181D01*
X95569458Y-96971666D01*
X95543100Y-96974500D01*
X92856899Y-96974500D01*
X92789860Y-96954815D01*
X92769218Y-96938181D01*
X92236819Y-96405781D01*
X92203334Y-96344458D01*
X92200500Y-96318100D01*
X92200500Y-94675325D01*
X92185966Y-94602261D01*
X92185966Y-94602260D01*
X92130601Y-94519399D01*
X92047740Y-94464034D01*
X92047739Y-94464033D01*
X92047738Y-94464033D01*
X91974675Y-94449500D01*
X91974674Y-94449500D01*
X89825326Y-94449500D01*
X89825325Y-94449500D01*
X89752261Y-94464033D01*
X89669399Y-94519399D01*
X89614033Y-94602261D01*
X89599500Y-94675325D01*
X89599500Y-95100500D01*
X89579815Y-95167539D01*
X89527011Y-95213294D01*
X89475500Y-95224500D01*
X88470936Y-95224500D01*
X88403897Y-95204815D01*
X88358142Y-95152011D01*
X88354754Y-95143834D01*
X88320212Y-95051222D01*
X88236116Y-94938884D01*
X88123778Y-94854788D01*
X87992299Y-94805749D01*
X87992299Y-94805748D01*
X87937460Y-94799853D01*
X87937454Y-94799852D01*
X87934174Y-94799500D01*
X87365826Y-94799500D01*
X87362546Y-94799852D01*
X87362539Y-94799853D01*
X87307700Y-94805749D01*
X87176222Y-94854788D01*
X87063884Y-94938884D01*
X86979788Y-95051222D01*
X86930749Y-95182700D01*
X86928372Y-95204815D01*
X86924500Y-95240826D01*
X86924500Y-95934174D01*
X86930749Y-95992299D01*
X86979788Y-96123778D01*
X87063884Y-96236116D01*
X87176222Y-96320212D01*
X87307701Y-96369251D01*
X87365826Y-96375500D01*
X87369136Y-96375500D01*
X87930864Y-96375500D01*
X87934174Y-96375500D01*
X87992299Y-96369251D01*
X88123778Y-96320212D01*
X88236116Y-96236116D01*
X88320212Y-96123778D01*
X88345430Y-96056165D01*
X88387300Y-96000233D01*
X88452765Y-95975816D01*
X88461611Y-95975500D01*
X89475500Y-95975500D01*
X89542539Y-95995185D01*
X89588294Y-96047989D01*
X89599500Y-96099500D01*
X89599500Y-96524674D01*
X89614033Y-96597738D01*
X89614033Y-96597739D01*
X89614034Y-96597740D01*
X89669399Y-96680601D01*
X89752260Y-96735966D01*
X89788792Y-96743233D01*
X89825325Y-96750500D01*
X89825326Y-96750500D01*
X91468101Y-96750500D01*
X91535140Y-96770185D01*
X91555782Y-96786819D01*
X92347850Y-97578887D01*
X92363977Y-97598746D01*
X92369915Y-97607836D01*
X92394893Y-97627277D01*
X92406410Y-97637448D01*
X92406481Y-97637519D01*
X92423397Y-97649597D01*
X92427505Y-97652660D01*
X92475040Y-97689658D01*
X92475232Y-97689757D01*
X92509505Y-97699960D01*
X92532955Y-97706941D01*
X92537792Y-97708490D01*
X92587340Y-97725500D01*
X92594797Y-97728060D01*
X92595030Y-97728093D01*
X92602909Y-97727767D01*
X92602912Y-97727768D01*
X92655193Y-97725605D01*
X92660316Y-97725500D01*
X95698195Y-97725500D01*
X95723641Y-97728139D01*
X95727440Y-97728935D01*
X95734268Y-97730367D01*
X95764138Y-97726643D01*
X95765677Y-97726452D01*
X95781014Y-97725500D01*
X95781111Y-97725500D01*
X95781114Y-97725500D01*
X95801643Y-97722073D01*
X95806659Y-97721342D01*
X95858626Y-97714866D01*
X95858628Y-97714864D01*
X95866457Y-97713889D01*
X95866666Y-97713822D01*
X95873607Y-97710065D01*
X95873610Y-97710065D01*
X95919666Y-97685140D01*
X95924144Y-97682835D01*
X95971211Y-97659826D01*
X95971212Y-97659824D01*
X95978308Y-97656356D01*
X95978476Y-97656230D01*
X95983824Y-97650419D01*
X95983826Y-97650419D01*
X96019294Y-97611889D01*
X96022795Y-97608240D01*
X98228889Y-95402146D01*
X98248741Y-95386025D01*
X98257836Y-95380084D01*
X98277277Y-95355104D01*
X98287449Y-95343587D01*
X98287520Y-95343517D01*
X98299614Y-95326576D01*
X98302648Y-95322508D01*
X98334809Y-95281189D01*
X98334809Y-95281187D01*
X98339666Y-95274948D01*
X98339753Y-95274779D01*
X98349861Y-95240826D01*
X98356954Y-95217001D01*
X98358491Y-95212202D01*
X98375500Y-95162660D01*
X98375500Y-95162656D01*
X98378060Y-95155199D01*
X98378094Y-95154966D01*
X98377768Y-95147090D01*
X98377769Y-95147088D01*
X98375606Y-95094792D01*
X98375500Y-95089668D01*
X98375500Y-93699500D01*
X98395185Y-93632461D01*
X98447989Y-93586706D01*
X98499500Y-93575500D01*
X98800500Y-93575500D01*
X98867539Y-93595185D01*
X98913294Y-93647989D01*
X98924500Y-93699500D01*
X98924500Y-95324674D01*
X98939033Y-95397738D01*
X98939033Y-95397739D01*
X98939034Y-95397740D01*
X98994399Y-95480601D01*
X99077260Y-95535966D01*
X99113124Y-95543100D01*
X99150325Y-95550500D01*
X99150326Y-95550500D01*
X99749673Y-95550500D01*
X99749674Y-95550500D01*
X99822740Y-95535966D01*
X99822741Y-95535964D01*
X99825807Y-95535355D01*
X99874193Y-95535355D01*
X99877258Y-95535964D01*
X99877260Y-95535966D01*
X99950326Y-95550500D01*
X99950327Y-95550500D01*
X100549673Y-95550500D01*
X100549674Y-95550500D01*
X100622740Y-95535966D01*
X100622741Y-95535964D01*
X100625807Y-95535355D01*
X100674193Y-95535355D01*
X100677258Y-95535964D01*
X100677260Y-95535966D01*
X100750326Y-95550500D01*
X100750327Y-95550500D01*
X101349673Y-95550500D01*
X101349674Y-95550500D01*
X101422740Y-95535966D01*
X101422741Y-95535964D01*
X101425807Y-95535355D01*
X101474193Y-95535355D01*
X101477258Y-95535964D01*
X101477260Y-95535966D01*
X101550326Y-95550500D01*
X101550327Y-95550500D01*
X102149673Y-95550500D01*
X102149674Y-95550500D01*
X102222740Y-95535966D01*
X102222741Y-95535964D01*
X102225807Y-95535355D01*
X102274193Y-95535355D01*
X102277258Y-95535964D01*
X102277260Y-95535966D01*
X102350326Y-95550500D01*
X102350327Y-95550500D01*
X102950500Y-95550500D01*
X103017539Y-95570185D01*
X103063294Y-95622989D01*
X103074500Y-95674500D01*
X103074500Y-98493099D01*
X103054815Y-98560138D01*
X103038181Y-98580780D01*
X101555358Y-100063603D01*
X101494035Y-100097088D01*
X101424343Y-100092104D01*
X101379996Y-100063603D01*
X101338343Y-100021950D01*
X101225302Y-99964353D01*
X101131521Y-99949500D01*
X100768485Y-99949500D01*
X100721588Y-99956927D01*
X100674696Y-99964354D01*
X100674694Y-99964354D01*
X100674693Y-99964355D01*
X100561657Y-100021949D01*
X100471950Y-100111656D01*
X100414353Y-100224697D01*
X100399500Y-100318478D01*
X100399500Y-101556514D01*
X100399683Y-101557670D01*
X100414354Y-101650304D01*
X100414354Y-101650305D01*
X100414355Y-101650306D01*
X100471949Y-101763342D01*
X100561656Y-101853049D01*
X100561658Y-101853050D01*
X100674696Y-101910646D01*
X100768481Y-101925500D01*
X101131518Y-101925499D01*
X101225304Y-101910646D01*
X101338342Y-101853050D01*
X101428050Y-101763342D01*
X101485646Y-101650304D01*
X101500500Y-101556519D01*
X101500499Y-101231897D01*
X101520183Y-101164859D01*
X101536813Y-101144222D01*
X103678892Y-99002144D01*
X103698743Y-98986024D01*
X103707836Y-98980084D01*
X103727280Y-98955101D01*
X103737445Y-98943592D01*
X103737520Y-98943518D01*
X103737522Y-98943514D01*
X103741744Y-98939294D01*
X103803071Y-98905816D01*
X103872762Y-98910808D01*
X103928691Y-98952686D01*
X103940813Y-98972521D01*
X103943634Y-98978290D01*
X103943777Y-98978482D01*
X103949579Y-98983824D01*
X103949581Y-98983826D01*
X103988108Y-99019293D01*
X103991780Y-99022817D01*
X107717850Y-102748887D01*
X107733977Y-102768746D01*
X107739916Y-102777836D01*
X107764894Y-102797277D01*
X107776412Y-102807449D01*
X107776481Y-102807518D01*
X107793389Y-102819590D01*
X107797494Y-102822650D01*
X107838811Y-102854809D01*
X107838812Y-102854809D01*
X107845043Y-102859659D01*
X107845234Y-102859757D01*
X107852800Y-102862009D01*
X107852801Y-102862010D01*
X107902955Y-102876941D01*
X107907792Y-102878490D01*
X107957340Y-102895500D01*
X107964797Y-102898060D01*
X107965030Y-102898093D01*
X107972909Y-102897767D01*
X107972912Y-102897768D01*
X108025193Y-102895605D01*
X108030316Y-102895500D01*
X108380814Y-102895500D01*
X108447853Y-102915185D01*
X108491814Y-102964229D01*
X108560324Y-103101818D01*
X108612397Y-103170773D01*
X108637089Y-103236135D01*
X108622524Y-103304469D01*
X108573326Y-103354082D01*
X108513443Y-103369500D01*
X98651899Y-103369500D01*
X98584860Y-103349815D01*
X98564218Y-103333181D01*
X98184518Y-102953481D01*
X98151033Y-102892158D01*
X98149103Y-102850852D01*
X98152527Y-102822654D01*
X98155278Y-102800000D01*
X98136237Y-102643182D01*
X98080220Y-102495477D01*
X97990483Y-102365470D01*
X97872240Y-102260717D01*
X97858449Y-102253479D01*
X97732364Y-102187303D01*
X97578985Y-102149500D01*
X97421015Y-102149500D01*
X97267635Y-102187303D01*
X97127761Y-102260716D01*
X97009515Y-102365471D01*
X96919780Y-102495476D01*
X96863763Y-102643181D01*
X96844721Y-102800000D01*
X96863763Y-102956818D01*
X96919780Y-103104523D01*
X97009515Y-103234528D01*
X97009516Y-103234529D01*
X97009517Y-103234530D01*
X97127760Y-103339283D01*
X97267635Y-103412696D01*
X97421015Y-103450500D01*
X97568100Y-103450500D01*
X97635139Y-103470185D01*
X97655781Y-103486819D01*
X98142850Y-103973888D01*
X98158976Y-103993744D01*
X98164916Y-104002836D01*
X98189890Y-104022274D01*
X98201408Y-104032446D01*
X98201482Y-104032520D01*
X98211410Y-104039608D01*
X98218399Y-104044598D01*
X98222508Y-104047662D01*
X98270041Y-104084658D01*
X98270232Y-104084757D01*
X98290034Y-104090652D01*
X98327955Y-104101941D01*
X98332792Y-104103490D01*
X98382340Y-104120500D01*
X98389797Y-104123060D01*
X98390030Y-104123093D01*
X98397909Y-104122767D01*
X98397912Y-104122768D01*
X98450193Y-104120605D01*
X98455316Y-104120500D01*
X108581408Y-104120500D01*
X108648447Y-104140185D01*
X108694202Y-104192989D01*
X108704146Y-104262147D01*
X108680362Y-104319227D01*
X108560324Y-104478181D01*
X108491814Y-104615771D01*
X108444312Y-104667008D01*
X108380814Y-104684500D01*
X106721803Y-104684500D01*
X106696357Y-104681861D01*
X106685731Y-104679633D01*
X106654324Y-104683548D01*
X106638987Y-104684500D01*
X106638886Y-104684500D01*
X106618359Y-104687924D01*
X106613300Y-104688661D01*
X106553556Y-104696109D01*
X106553316Y-104696186D01*
X106500359Y-104724844D01*
X106495805Y-104727188D01*
X106441721Y-104753628D01*
X106441506Y-104753788D01*
X106400729Y-104798082D01*
X106397183Y-104801777D01*
X104385781Y-106813181D01*
X104324458Y-106846666D01*
X104298100Y-106849500D01*
X103180325Y-106849500D01*
X103107261Y-106864033D01*
X103024399Y-106919399D01*
X102969033Y-107002261D01*
X102954500Y-107075325D01*
X102954500Y-107250500D01*
X102934815Y-107317539D01*
X102882011Y-107363294D01*
X102830500Y-107374500D01*
X97169500Y-107374500D01*
X97102461Y-107354815D01*
X97056706Y-107302011D01*
X97045500Y-107250500D01*
X97045500Y-107075325D01*
X97030966Y-107002261D01*
X97030966Y-107002260D01*
X96975601Y-106919399D01*
X96892740Y-106864034D01*
X96892739Y-106864033D01*
X96892738Y-106864033D01*
X96819675Y-106849500D01*
X96819674Y-106849500D01*
X95220326Y-106849500D01*
X95220325Y-106849500D01*
X95147261Y-106864033D01*
X95064399Y-106919399D01*
X95009033Y-107002261D01*
X94994500Y-107075325D01*
X94994500Y-108424674D01*
X95009033Y-108497738D01*
X95009033Y-108497739D01*
X95009034Y-108497740D01*
X95064399Y-108580601D01*
X95147260Y-108635966D01*
X95183792Y-108643233D01*
X95220325Y-108650500D01*
X95220326Y-108650500D01*
X96819675Y-108650500D01*
X96844029Y-108645655D01*
X96892740Y-108635966D01*
X96975601Y-108580601D01*
X97030966Y-108497740D01*
X97045500Y-108424674D01*
X97045500Y-108249499D01*
X97065185Y-108182461D01*
X97117989Y-108136706D01*
X97169500Y-108125500D01*
X102830500Y-108125500D01*
X102897539Y-108145185D01*
X102943294Y-108197989D01*
X102954500Y-108249500D01*
X102954500Y-108424674D01*
X102969033Y-108497738D01*
X102969033Y-108497739D01*
X102969034Y-108497740D01*
X103024399Y-108580601D01*
X103107260Y-108635966D01*
X103143792Y-108643233D01*
X103180325Y-108650500D01*
X103180326Y-108650500D01*
X104779675Y-108650500D01*
X104804029Y-108645655D01*
X104852740Y-108635966D01*
X104935601Y-108580601D01*
X104990966Y-108497740D01*
X105005500Y-108424674D01*
X105005500Y-107620000D01*
X120694785Y-107620000D01*
X120713602Y-107823083D01*
X120769418Y-108019251D01*
X120860324Y-108201818D01*
X120983236Y-108364580D01*
X121133958Y-108501981D01*
X121307361Y-108609347D01*
X121307363Y-108609348D01*
X121497544Y-108683024D01*
X121698024Y-108720500D01*
X121698026Y-108720500D01*
X121901974Y-108720500D01*
X121901976Y-108720500D01*
X122102456Y-108683024D01*
X122292637Y-108609348D01*
X122466041Y-108501981D01*
X122616764Y-108364579D01*
X122739673Y-108201821D01*
X122739673Y-108201819D01*
X122739675Y-108201818D01*
X122810664Y-108059250D01*
X122830582Y-108019250D01*
X122886397Y-107823083D01*
X122905215Y-107620000D01*
X122886397Y-107416917D01*
X122830582Y-107220750D01*
X122759591Y-107078179D01*
X122739675Y-107038181D01*
X122616763Y-106875419D01*
X122466041Y-106738018D01*
X122292638Y-106630652D01*
X122102457Y-106556976D01*
X122035629Y-106544483D01*
X121901976Y-106519500D01*
X121698024Y-106519500D01*
X121597783Y-106538238D01*
X121497542Y-106556976D01*
X121307361Y-106630652D01*
X121133958Y-106738018D01*
X120983236Y-106875419D01*
X120860324Y-107038181D01*
X120769418Y-107220748D01*
X120713602Y-107416916D01*
X120694785Y-107620000D01*
X105005500Y-107620000D01*
X105005500Y-107306898D01*
X105025185Y-107239860D01*
X105041819Y-107219218D01*
X106789218Y-105471819D01*
X106850541Y-105438334D01*
X106876899Y-105435500D01*
X108380814Y-105435500D01*
X108447853Y-105455185D01*
X108491814Y-105504229D01*
X108560324Y-105641818D01*
X108683236Y-105804580D01*
X108833958Y-105941981D01*
X109007361Y-106049347D01*
X109007363Y-106049348D01*
X109197544Y-106123024D01*
X109398024Y-106160500D01*
X109398026Y-106160500D01*
X109601974Y-106160500D01*
X109601976Y-106160500D01*
X109802456Y-106123024D01*
X109992637Y-106049348D01*
X110166041Y-105941981D01*
X110316764Y-105804579D01*
X110439673Y-105641821D01*
X110439673Y-105641819D01*
X110439675Y-105641818D01*
X110508186Y-105504229D01*
X110555688Y-105452992D01*
X110619186Y-105435500D01*
X112788195Y-105435500D01*
X112813641Y-105438139D01*
X112817440Y-105438935D01*
X112824268Y-105440367D01*
X112854138Y-105436643D01*
X112855677Y-105436452D01*
X112871014Y-105435500D01*
X112871111Y-105435500D01*
X112871114Y-105435500D01*
X112891643Y-105432073D01*
X112896659Y-105431342D01*
X112948626Y-105424866D01*
X112948628Y-105424864D01*
X112956457Y-105423889D01*
X112956666Y-105423822D01*
X112963607Y-105420065D01*
X112963610Y-105420065D01*
X113009666Y-105395140D01*
X113014144Y-105392835D01*
X113061211Y-105369826D01*
X113061212Y-105369824D01*
X113068308Y-105366356D01*
X113068476Y-105366230D01*
X113073824Y-105360419D01*
X113073826Y-105360419D01*
X113109293Y-105321890D01*
X113112794Y-105318241D01*
X113351036Y-105079999D01*
X120694785Y-105079999D01*
X120713602Y-105283083D01*
X120769418Y-105479251D01*
X120860324Y-105661818D01*
X120983236Y-105824580D01*
X121133958Y-105961981D01*
X121307361Y-106069347D01*
X121307363Y-106069348D01*
X121497544Y-106143024D01*
X121698024Y-106180500D01*
X121698026Y-106180500D01*
X121901974Y-106180500D01*
X121901976Y-106180500D01*
X122102456Y-106143024D01*
X122292637Y-106069348D01*
X122466041Y-105961981D01*
X122616764Y-105824579D01*
X122739673Y-105661821D01*
X122739673Y-105661819D01*
X122739675Y-105661818D01*
X122818144Y-105504229D01*
X122830582Y-105479250D01*
X122886397Y-105283083D01*
X122905215Y-105080000D01*
X122886397Y-104876917D01*
X122830582Y-104680750D01*
X122759591Y-104538179D01*
X122739675Y-104498181D01*
X122616763Y-104335419D01*
X122466041Y-104198018D01*
X122292638Y-104090652D01*
X122102457Y-104016976D01*
X122026813Y-104002836D01*
X121901976Y-103979500D01*
X121698024Y-103979500D01*
X121621825Y-103993744D01*
X121497542Y-104016976D01*
X121307361Y-104090652D01*
X121133958Y-104198018D01*
X120983236Y-104335419D01*
X120860324Y-104498181D01*
X120769418Y-104680748D01*
X120713602Y-104876916D01*
X120694785Y-105079999D01*
X113351036Y-105079999D01*
X114528892Y-103902144D01*
X114548743Y-103886024D01*
X114557836Y-103880084D01*
X114577280Y-103855101D01*
X114587453Y-103843584D01*
X114587520Y-103843518D01*
X114599619Y-103826570D01*
X114602641Y-103822515D01*
X114634809Y-103781189D01*
X114634810Y-103781185D01*
X114639666Y-103774947D01*
X114639753Y-103774778D01*
X114642008Y-103767200D01*
X114642010Y-103767199D01*
X114656951Y-103717009D01*
X114658479Y-103712238D01*
X114675500Y-103662660D01*
X114675500Y-103662655D01*
X114678060Y-103655199D01*
X114678093Y-103654970D01*
X114677767Y-103647090D01*
X114677768Y-103647088D01*
X114675605Y-103594806D01*
X114675500Y-103589684D01*
X114675500Y-94880000D01*
X117794785Y-94880000D01*
X117813602Y-95083083D01*
X117869418Y-95279251D01*
X117960324Y-95461818D01*
X118083236Y-95624580D01*
X118233958Y-95761981D01*
X118407361Y-95869347D01*
X118407363Y-95869348D01*
X118597544Y-95943024D01*
X118798024Y-95980500D01*
X118798026Y-95980500D01*
X119001974Y-95980500D01*
X119001976Y-95980500D01*
X119202456Y-95943024D01*
X119392637Y-95869348D01*
X119566041Y-95761981D01*
X119716764Y-95624579D01*
X119839673Y-95461821D01*
X119839673Y-95461819D01*
X119839675Y-95461818D01*
X119907003Y-95326603D01*
X119930582Y-95279250D01*
X119986397Y-95083083D01*
X120005215Y-94880000D01*
X119986397Y-94676917D01*
X119985944Y-94675326D01*
X119941963Y-94520750D01*
X119930582Y-94480750D01*
X119930209Y-94480001D01*
X119839675Y-94298181D01*
X119716763Y-94135419D01*
X119566041Y-93998018D01*
X119392638Y-93890652D01*
X119202457Y-93816976D01*
X119108967Y-93799500D01*
X119001976Y-93779500D01*
X118798024Y-93779500D01*
X118697784Y-93798238D01*
X118597542Y-93816976D01*
X118407361Y-93890652D01*
X118233958Y-93998018D01*
X118083236Y-94135419D01*
X117960324Y-94298181D01*
X117869418Y-94480748D01*
X117813602Y-94676916D01*
X117794785Y-94880000D01*
X114675500Y-94880000D01*
X114675500Y-92339999D01*
X117794785Y-92339999D01*
X117813602Y-92543083D01*
X117869418Y-92739251D01*
X117960324Y-92921818D01*
X118083236Y-93084580D01*
X118233958Y-93221981D01*
X118298561Y-93261981D01*
X118407363Y-93329348D01*
X118597544Y-93403024D01*
X118798024Y-93440500D01*
X118798026Y-93440500D01*
X119001974Y-93440500D01*
X119001976Y-93440500D01*
X119202456Y-93403024D01*
X119392637Y-93329348D01*
X119566041Y-93221981D01*
X119716764Y-93084579D01*
X119839673Y-92921821D01*
X119839673Y-92921819D01*
X119839675Y-92921818D01*
X119910664Y-92779250D01*
X119930582Y-92739250D01*
X119986397Y-92543083D01*
X120005215Y-92340000D01*
X119986397Y-92136917D01*
X119985200Y-92132711D01*
X119941963Y-91980750D01*
X119930582Y-91940750D01*
X119912689Y-91904815D01*
X119839675Y-91758181D01*
X119716763Y-91595419D01*
X119566041Y-91458018D01*
X119392638Y-91350652D01*
X119202457Y-91276976D01*
X119135629Y-91264484D01*
X119001976Y-91239500D01*
X118798024Y-91239500D01*
X118735151Y-91251253D01*
X118597542Y-91276976D01*
X118407361Y-91350652D01*
X118233958Y-91458018D01*
X118083236Y-91595419D01*
X117960324Y-91758181D01*
X117869418Y-91940748D01*
X117813602Y-92136916D01*
X117794785Y-92339999D01*
X114675500Y-92339999D01*
X114675500Y-90751804D01*
X114678139Y-90726357D01*
X114680367Y-90715732D01*
X114676452Y-90684323D01*
X114675500Y-90668986D01*
X114675500Y-90668887D01*
X114675233Y-90667288D01*
X114672075Y-90648369D01*
X114671341Y-90643325D01*
X114663891Y-90583550D01*
X114663821Y-90583332D01*
X114660065Y-90576392D01*
X114660065Y-90576390D01*
X114635148Y-90530348D01*
X114632828Y-90525840D01*
X114609826Y-90478789D01*
X114609825Y-90478788D01*
X114606360Y-90471700D01*
X114606225Y-90471519D01*
X114600419Y-90466174D01*
X114561892Y-90430707D01*
X114558219Y-90427182D01*
X113931038Y-89800000D01*
X117794785Y-89800000D01*
X117813602Y-90003083D01*
X117869418Y-90199251D01*
X117960324Y-90381818D01*
X118083236Y-90544580D01*
X118233958Y-90681981D01*
X118346727Y-90751804D01*
X118407363Y-90789348D01*
X118597544Y-90863024D01*
X118798024Y-90900500D01*
X118798026Y-90900500D01*
X119001974Y-90900500D01*
X119001976Y-90900500D01*
X119202456Y-90863024D01*
X119392637Y-90789348D01*
X119566041Y-90681981D01*
X119716764Y-90544579D01*
X119839673Y-90381821D01*
X119839673Y-90381819D01*
X119839675Y-90381818D01*
X119893881Y-90272956D01*
X119930582Y-90199250D01*
X119986397Y-90003083D01*
X120005215Y-89800000D01*
X119986397Y-89596917D01*
X119930582Y-89400750D01*
X119918009Y-89375500D01*
X119839675Y-89218181D01*
X119716763Y-89055419D01*
X119566041Y-88918018D01*
X119392638Y-88810652D01*
X119202457Y-88736976D01*
X119100937Y-88717999D01*
X119001976Y-88699500D01*
X118798024Y-88699500D01*
X118699063Y-88717999D01*
X118597542Y-88736976D01*
X118407361Y-88810652D01*
X118233958Y-88918018D01*
X118083236Y-89055419D01*
X117960324Y-89218181D01*
X117869418Y-89400748D01*
X117813602Y-89596916D01*
X117794785Y-89800000D01*
X113931038Y-89800000D01*
X113611819Y-89480781D01*
X113578334Y-89419458D01*
X113575500Y-89393100D01*
X113575500Y-89001803D01*
X113578139Y-88976356D01*
X113580367Y-88965732D01*
X113576452Y-88934322D01*
X113575500Y-88918985D01*
X113575500Y-88918887D01*
X113575355Y-88918018D01*
X113572075Y-88898369D01*
X113571341Y-88893325D01*
X113563891Y-88833550D01*
X113563821Y-88833332D01*
X113560065Y-88826392D01*
X113560065Y-88826390D01*
X113535148Y-88780348D01*
X113532828Y-88775840D01*
X113509826Y-88728789D01*
X113509825Y-88728788D01*
X113506360Y-88721700D01*
X113506225Y-88721519D01*
X113500419Y-88716174D01*
X113461891Y-88680706D01*
X113458218Y-88677181D01*
X108718219Y-83937181D01*
X108684734Y-83875858D01*
X108689718Y-83806166D01*
X108731590Y-83750233D01*
X108797054Y-83725816D01*
X108805900Y-83725500D01*
X109368364Y-83725500D01*
X109371674Y-83725500D01*
X109429799Y-83719251D01*
X109561278Y-83670212D01*
X109673616Y-83586116D01*
X109757712Y-83473778D01*
X109806751Y-83342299D01*
X109813000Y-83284174D01*
X111349500Y-83284174D01*
X111349852Y-83287454D01*
X111349853Y-83287460D01*
X111352865Y-83315471D01*
X111355749Y-83342299D01*
X111404788Y-83473778D01*
X111488884Y-83586116D01*
X111601222Y-83670212D01*
X111631331Y-83681441D01*
X111687265Y-83723311D01*
X111711684Y-83788775D01*
X111712000Y-83797624D01*
X111712000Y-84035696D01*
X111709361Y-84061142D01*
X111707133Y-84071767D01*
X111711048Y-84103176D01*
X111712000Y-84118513D01*
X111712000Y-84118616D01*
X111715418Y-84139102D01*
X111716157Y-84144170D01*
X111723607Y-84203938D01*
X111723685Y-84204182D01*
X111752327Y-84257108D01*
X111754671Y-84261662D01*
X111781134Y-84315792D01*
X111781277Y-84315982D01*
X111787079Y-84321324D01*
X111787081Y-84321326D01*
X111825608Y-84356793D01*
X111829280Y-84360317D01*
X112065481Y-84596518D01*
X112098966Y-84657841D01*
X112100896Y-84699144D01*
X112094721Y-84749998D01*
X112113763Y-84906818D01*
X112169780Y-85054523D01*
X112259515Y-85184528D01*
X112259516Y-85184529D01*
X112259517Y-85184530D01*
X112377760Y-85289283D01*
X112517635Y-85362696D01*
X112671015Y-85400500D01*
X112828985Y-85400500D01*
X112982365Y-85362696D01*
X113122240Y-85289283D01*
X113240483Y-85184530D01*
X113330220Y-85054523D01*
X113386237Y-84906818D01*
X113405278Y-84750000D01*
X113386237Y-84593182D01*
X113330220Y-84445477D01*
X113244525Y-84321326D01*
X113240484Y-84315471D01*
X113239201Y-84314334D01*
X113137994Y-84224674D01*
X116649500Y-84224674D01*
X116664033Y-84297738D01*
X116664033Y-84297739D01*
X116664034Y-84297740D01*
X116719399Y-84380601D01*
X116802260Y-84435966D01*
X116838792Y-84443232D01*
X116875325Y-84450500D01*
X116875326Y-84450500D01*
X116900500Y-84450500D01*
X116967539Y-84470185D01*
X117013294Y-84522989D01*
X117024500Y-84574500D01*
X117024500Y-85708196D01*
X117021861Y-85733642D01*
X117019633Y-85744267D01*
X117023548Y-85775676D01*
X117024500Y-85791013D01*
X117024500Y-85791116D01*
X117027918Y-85811602D01*
X117028657Y-85816670D01*
X117036107Y-85876438D01*
X117036185Y-85876682D01*
X117064827Y-85929608D01*
X117067171Y-85934162D01*
X117093634Y-85988292D01*
X117093777Y-85988482D01*
X117099579Y-85993824D01*
X117099581Y-85993826D01*
X117138108Y-86029293D01*
X117141780Y-86032817D01*
X117763181Y-86654218D01*
X117796666Y-86715541D01*
X117799500Y-86741899D01*
X117799500Y-88134674D01*
X117814033Y-88207738D01*
X117814033Y-88207739D01*
X117814034Y-88207740D01*
X117869399Y-88290601D01*
X117952260Y-88345966D01*
X117988792Y-88353232D01*
X118025325Y-88360500D01*
X118025326Y-88360500D01*
X119774675Y-88360500D01*
X119799029Y-88355655D01*
X119847740Y-88345966D01*
X119930601Y-88290601D01*
X119985966Y-88207740D01*
X120000500Y-88134674D01*
X120000500Y-86385326D01*
X119998545Y-86375500D01*
X119985966Y-86312261D01*
X119985966Y-86312260D01*
X119930601Y-86229399D01*
X119847740Y-86174034D01*
X119847739Y-86174033D01*
X119847738Y-86174033D01*
X119774675Y-86159500D01*
X119774674Y-86159500D01*
X118381900Y-86159500D01*
X118314861Y-86139815D01*
X118294219Y-86123181D01*
X117811818Y-85640780D01*
X117778333Y-85579457D01*
X117775500Y-85553108D01*
X117775500Y-84574500D01*
X117795185Y-84507460D01*
X117847989Y-84461706D01*
X117899500Y-84450500D01*
X117924675Y-84450500D01*
X117949931Y-84445476D01*
X117997740Y-84435966D01*
X118080601Y-84380601D01*
X118135966Y-84297740D01*
X118150500Y-84224674D01*
X119849500Y-84224674D01*
X119864033Y-84297738D01*
X119864033Y-84297739D01*
X119864034Y-84297740D01*
X119919399Y-84380601D01*
X120002260Y-84435966D01*
X120038792Y-84443232D01*
X120075325Y-84450500D01*
X120075326Y-84450500D01*
X121018101Y-84450500D01*
X121085140Y-84470185D01*
X121105782Y-84486819D01*
X123888181Y-87269218D01*
X123921666Y-87330541D01*
X123924500Y-87356899D01*
X123924500Y-114343100D01*
X123904815Y-114410139D01*
X123888181Y-114430781D01*
X121705781Y-116613181D01*
X121644458Y-116646666D01*
X121618100Y-116649500D01*
X120675325Y-116649500D01*
X120602261Y-116664033D01*
X120519399Y-116719399D01*
X120464033Y-116802261D01*
X120449500Y-116875325D01*
X120449500Y-117924674D01*
X120464033Y-117997738D01*
X120464033Y-117997739D01*
X120464034Y-117997740D01*
X120519399Y-118080601D01*
X120602260Y-118135966D01*
X120638792Y-118143233D01*
X120675325Y-118150500D01*
X120675326Y-118150500D01*
X122224675Y-118150500D01*
X122249029Y-118145655D01*
X122297740Y-118135966D01*
X122380601Y-118080601D01*
X122435966Y-117997740D01*
X122450500Y-117924674D01*
X122450500Y-116981898D01*
X122470185Y-116914859D01*
X122486819Y-116894217D01*
X123086818Y-116294218D01*
X124528889Y-114852146D01*
X124548741Y-114836025D01*
X124557836Y-114830084D01*
X124577277Y-114805104D01*
X124587449Y-114793587D01*
X124587520Y-114793517D01*
X124599614Y-114776576D01*
X124602648Y-114772508D01*
X124634809Y-114731189D01*
X124634809Y-114731187D01*
X124639666Y-114724948D01*
X124639753Y-114724779D01*
X124642010Y-114717199D01*
X124656954Y-114667001D01*
X124658491Y-114662202D01*
X124675500Y-114612660D01*
X124675500Y-114612656D01*
X124678060Y-114605199D01*
X124678094Y-114604966D01*
X124677768Y-114597090D01*
X124677769Y-114597088D01*
X124675606Y-114544792D01*
X124675500Y-114539668D01*
X124675500Y-87201804D01*
X124678139Y-87176357D01*
X124678528Y-87174500D01*
X124680367Y-87165732D01*
X124676452Y-87134323D01*
X124675500Y-87118986D01*
X124675500Y-87118887D01*
X124673593Y-87107461D01*
X124672075Y-87098369D01*
X124671341Y-87093325D01*
X124669558Y-87079023D01*
X124666541Y-87054815D01*
X124663891Y-87033550D01*
X124663821Y-87033332D01*
X124660065Y-87026392D01*
X124660065Y-87026390D01*
X124635148Y-86980348D01*
X124632828Y-86975840D01*
X124609826Y-86928789D01*
X124609825Y-86928788D01*
X124606360Y-86921700D01*
X124606225Y-86921519D01*
X124600419Y-86916174D01*
X124561891Y-86880706D01*
X124558218Y-86877181D01*
X121386819Y-83705781D01*
X121353334Y-83644458D01*
X121350500Y-83618100D01*
X121350500Y-82675325D01*
X121335966Y-82602261D01*
X121335966Y-82602260D01*
X121280601Y-82519399D01*
X121197740Y-82464034D01*
X121197739Y-82464033D01*
X121197738Y-82464033D01*
X121124675Y-82449500D01*
X121124674Y-82449500D01*
X120075326Y-82449500D01*
X120075325Y-82449500D01*
X120002261Y-82464033D01*
X119919399Y-82519399D01*
X119864033Y-82602261D01*
X119849500Y-82675325D01*
X119849500Y-84224674D01*
X118150500Y-84224674D01*
X118150500Y-82675326D01*
X118135966Y-82602260D01*
X118080601Y-82519399D01*
X117997740Y-82464034D01*
X117997739Y-82464033D01*
X117997738Y-82464033D01*
X117924675Y-82449500D01*
X117924674Y-82449500D01*
X116875326Y-82449500D01*
X116875325Y-82449500D01*
X116802261Y-82464033D01*
X116719399Y-82519399D01*
X116664033Y-82602261D01*
X116649500Y-82675325D01*
X116649500Y-84224674D01*
X113137994Y-84224674D01*
X113122240Y-84210717D01*
X113083099Y-84190174D01*
X112982364Y-84137303D01*
X112828985Y-84099500D01*
X112681900Y-84099500D01*
X112614861Y-84079815D01*
X112594219Y-84063181D01*
X112499319Y-83968281D01*
X112465834Y-83906958D01*
X112463000Y-83880600D01*
X112463000Y-83797624D01*
X112482685Y-83730585D01*
X112535489Y-83684830D01*
X112543659Y-83681445D01*
X112573778Y-83670212D01*
X112686116Y-83586116D01*
X112770212Y-83473778D01*
X112819251Y-83342299D01*
X112825500Y-83284174D01*
X113174500Y-83284174D01*
X113174852Y-83287454D01*
X113174853Y-83287460D01*
X113177865Y-83315471D01*
X113180749Y-83342299D01*
X113229788Y-83473778D01*
X113313884Y-83586116D01*
X113426222Y-83670212D01*
X113557701Y-83719251D01*
X113615826Y-83725500D01*
X113619136Y-83725500D01*
X114205864Y-83725500D01*
X114209174Y-83725500D01*
X114267299Y-83719251D01*
X114398778Y-83670212D01*
X114511116Y-83586116D01*
X114595212Y-83473778D01*
X114644251Y-83342299D01*
X114650500Y-83284174D01*
X114650500Y-82715826D01*
X114644251Y-82657701D01*
X114595212Y-82526222D01*
X114511116Y-82413884D01*
X114398778Y-82329788D01*
X114398776Y-82329787D01*
X114384505Y-82319104D01*
X114384594Y-82318984D01*
X114343338Y-82288100D01*
X114318923Y-82222635D01*
X114333776Y-82154362D01*
X114354922Y-82126114D01*
X116894218Y-79586819D01*
X116955542Y-79553334D01*
X116981900Y-79550500D01*
X117924675Y-79550500D01*
X117949029Y-79545655D01*
X117997740Y-79535966D01*
X118080601Y-79480601D01*
X118135966Y-79397740D01*
X118150500Y-79324674D01*
X118150500Y-77775326D01*
X118135966Y-77702260D01*
X118080601Y-77619399D01*
X117997740Y-77564034D01*
X117997739Y-77564033D01*
X117997738Y-77564033D01*
X117924675Y-77549500D01*
X117924674Y-77549500D01*
X116875326Y-77549500D01*
X116875325Y-77549500D01*
X116802261Y-77564033D01*
X116719399Y-77619399D01*
X116664033Y-77702261D01*
X116649500Y-77775325D01*
X116649500Y-78718099D01*
X116629815Y-78785138D01*
X116613181Y-78805780D01*
X113683608Y-81735352D01*
X113663754Y-81751476D01*
X113654665Y-81757414D01*
X113635222Y-81782394D01*
X113625063Y-81793898D01*
X113624984Y-81793976D01*
X113624229Y-81795034D01*
X113612890Y-81810914D01*
X113609841Y-81815004D01*
X113572854Y-81862524D01*
X113572737Y-81862753D01*
X113555557Y-81920455D01*
X113553995Y-81925331D01*
X113534441Y-81982292D01*
X113534405Y-81982536D01*
X113536893Y-82042693D01*
X113536999Y-82047814D01*
X113537000Y-82202374D01*
X113517316Y-82269414D01*
X113464512Y-82315169D01*
X113456335Y-82318556D01*
X113426224Y-82329787D01*
X113426223Y-82329787D01*
X113426222Y-82329788D01*
X113313884Y-82413884D01*
X113229788Y-82526222D01*
X113180749Y-82657701D01*
X113174500Y-82715826D01*
X113174500Y-83284174D01*
X112825500Y-83284174D01*
X112825500Y-82715826D01*
X112819251Y-82657701D01*
X112770212Y-82526222D01*
X112686116Y-82413884D01*
X112573778Y-82329788D01*
X112442299Y-82280749D01*
X112442298Y-82280748D01*
X112387460Y-82274853D01*
X112387454Y-82274852D01*
X112384174Y-82274500D01*
X111790826Y-82274500D01*
X111787546Y-82274852D01*
X111787539Y-82274853D01*
X111732700Y-82280749D01*
X111615389Y-82324504D01*
X111601222Y-82329788D01*
X111488884Y-82413884D01*
X111404788Y-82526222D01*
X111355749Y-82657701D01*
X111349500Y-82715826D01*
X111349500Y-83284174D01*
X109813000Y-83284174D01*
X109813000Y-83069397D01*
X109832685Y-83002359D01*
X109849314Y-82981722D01*
X112928889Y-79902146D01*
X112948741Y-79886025D01*
X112957836Y-79880084D01*
X112977273Y-79855110D01*
X112987453Y-79843583D01*
X112987519Y-79843518D01*
X112999624Y-79826561D01*
X113002627Y-79822534D01*
X113034809Y-79781189D01*
X113034810Y-79781185D01*
X113039666Y-79774947D01*
X113039753Y-79774778D01*
X113042008Y-79767200D01*
X113042010Y-79767199D01*
X113056951Y-79717009D01*
X113058479Y-79712238D01*
X113075500Y-79662660D01*
X113075500Y-79662655D01*
X113078060Y-79655199D01*
X113078093Y-79654970D01*
X113077767Y-79647090D01*
X113077768Y-79647088D01*
X113075605Y-79594806D01*
X113075500Y-79589684D01*
X113075500Y-79319668D01*
X113095185Y-79252629D01*
X113147989Y-79206874D01*
X113154695Y-79204046D01*
X113192637Y-79189348D01*
X113366041Y-79081981D01*
X113516764Y-78944579D01*
X113639673Y-78781821D01*
X113639673Y-78781819D01*
X113639675Y-78781818D01*
X113685313Y-78690161D01*
X113730582Y-78599250D01*
X113786397Y-78403083D01*
X113805215Y-78200000D01*
X113786397Y-77996917D01*
X113730582Y-77800750D01*
X113730209Y-77800001D01*
X113639675Y-77618181D01*
X113516763Y-77455419D01*
X113366041Y-77318018D01*
X113192638Y-77210652D01*
X113002457Y-77136976D01*
X112935629Y-77124484D01*
X112801976Y-77099500D01*
X112598024Y-77099500D01*
X112497783Y-77118238D01*
X112397542Y-77136976D01*
X112207361Y-77210652D01*
X112033958Y-77318018D01*
X111883236Y-77455419D01*
X111760324Y-77618181D01*
X111669418Y-77800748D01*
X111613602Y-77996916D01*
X111594785Y-78199999D01*
X111613602Y-78403083D01*
X111669418Y-78599251D01*
X111760324Y-78781818D01*
X111883236Y-78944580D01*
X112033958Y-79081981D01*
X112141325Y-79148459D01*
X112207363Y-79189348D01*
X112245293Y-79204041D01*
X112300694Y-79246612D01*
X112324286Y-79312378D01*
X112324500Y-79319668D01*
X112324500Y-79393099D01*
X112304815Y-79460138D01*
X112288181Y-79480780D01*
X109524492Y-82244468D01*
X109463169Y-82277953D01*
X109423558Y-82280077D01*
X109374965Y-82274853D01*
X109374949Y-82274852D01*
X109371674Y-82274500D01*
X108778326Y-82274500D01*
X108775046Y-82274852D01*
X108775039Y-82274853D01*
X108720200Y-82280749D01*
X108602889Y-82324504D01*
X108588722Y-82329788D01*
X108476384Y-82413884D01*
X108392288Y-82526222D01*
X108343249Y-82657701D01*
X108337000Y-82715826D01*
X108337000Y-82719135D01*
X108337000Y-83256600D01*
X108317315Y-83323639D01*
X108264511Y-83369394D01*
X108195353Y-83379338D01*
X108131797Y-83350313D01*
X108125319Y-83344281D01*
X108024319Y-83243281D01*
X107990834Y-83181958D01*
X107988000Y-83155600D01*
X107988000Y-82719135D01*
X107988000Y-82715826D01*
X107981751Y-82657701D01*
X107932712Y-82526222D01*
X107848616Y-82413884D01*
X107736278Y-82329788D01*
X107604799Y-82280749D01*
X107604798Y-82280748D01*
X107549960Y-82274853D01*
X107549954Y-82274852D01*
X107546674Y-82274500D01*
X107543364Y-82274500D01*
X107106899Y-82274500D01*
X107039860Y-82254815D01*
X107019218Y-82238181D01*
X105852149Y-81071111D01*
X105836022Y-81051253D01*
X105830083Y-81042162D01*
X105805110Y-81022725D01*
X105793593Y-81012554D01*
X105793519Y-81012480D01*
X105776594Y-81000397D01*
X105772480Y-80997330D01*
X105770512Y-80995798D01*
X105731189Y-80965191D01*
X105731186Y-80965190D01*
X105724963Y-80960346D01*
X105724761Y-80960242D01*
X105717200Y-80957990D01*
X105717199Y-80957990D01*
X105667036Y-80943055D01*
X105662174Y-80941497D01*
X105650780Y-80937586D01*
X105605202Y-80921939D01*
X105604969Y-80921906D01*
X105565265Y-80923548D01*
X105544806Y-80924394D01*
X105539684Y-80924500D01*
X102451803Y-80924500D01*
X102426357Y-80921861D01*
X102415731Y-80919633D01*
X102384324Y-80923548D01*
X102368987Y-80924500D01*
X102368886Y-80924500D01*
X102348359Y-80927924D01*
X102343300Y-80928661D01*
X102283556Y-80936109D01*
X102283316Y-80936186D01*
X102230359Y-80964844D01*
X102225805Y-80967188D01*
X102171721Y-80993628D01*
X102171506Y-80993788D01*
X102130729Y-81038082D01*
X102127183Y-81041777D01*
X101621108Y-81547852D01*
X101601254Y-81563976D01*
X101592165Y-81569914D01*
X101572722Y-81594894D01*
X101562563Y-81606398D01*
X101562484Y-81606476D01*
X101562479Y-81606482D01*
X101562480Y-81606482D01*
X101550390Y-81623414D01*
X101547341Y-81627504D01*
X101510354Y-81675024D01*
X101510237Y-81675253D01*
X101493057Y-81732955D01*
X101491495Y-81737831D01*
X101471941Y-81794792D01*
X101471906Y-81795034D01*
X101474394Y-81855191D01*
X101474500Y-81860315D01*
X101474500Y-84825500D01*
X101454815Y-84892539D01*
X101402011Y-84938294D01*
X101350500Y-84949500D01*
X100749500Y-84949500D01*
X100682461Y-84929815D01*
X100636706Y-84877011D01*
X100625500Y-84825500D01*
X100625500Y-84776804D01*
X100628139Y-84751357D01*
X100630367Y-84740732D01*
X100626452Y-84709323D01*
X100625500Y-84693986D01*
X100625500Y-84693887D01*
X100625500Y-84693886D01*
X100622075Y-84673369D01*
X100621341Y-84668325D01*
X100613891Y-84608550D01*
X100613821Y-84608332D01*
X100610065Y-84601392D01*
X100610065Y-84601390D01*
X100585148Y-84555348D01*
X100582828Y-84550840D01*
X100559826Y-84503789D01*
X100559825Y-84503788D01*
X100556360Y-84496700D01*
X100556225Y-84496519D01*
X100545688Y-84486819D01*
X100511893Y-84455708D01*
X100508220Y-84452183D01*
X100327149Y-84271111D01*
X100311022Y-84251253D01*
X100305083Y-84242162D01*
X100280110Y-84222725D01*
X100268593Y-84212554D01*
X100268519Y-84212480D01*
X100251594Y-84200397D01*
X100247480Y-84197330D01*
X100206189Y-84165191D01*
X100206186Y-84165190D01*
X100199963Y-84160346D01*
X100199761Y-84160242D01*
X100192200Y-84157990D01*
X100192199Y-84157990D01*
X100142036Y-84143055D01*
X100137174Y-84141497D01*
X100118637Y-84135134D01*
X100080202Y-84121939D01*
X100079969Y-84121906D01*
X100040265Y-84123548D01*
X100019806Y-84124394D01*
X100014684Y-84124500D01*
X88651804Y-84124500D01*
X88626358Y-84121861D01*
X88615732Y-84119633D01*
X88584323Y-84123548D01*
X88568986Y-84124500D01*
X88568884Y-84124500D01*
X88548399Y-84127918D01*
X88543332Y-84128657D01*
X88483567Y-84136107D01*
X88483312Y-84136189D01*
X88430370Y-84164838D01*
X88425820Y-84167180D01*
X88371715Y-84193632D01*
X88371505Y-84193788D01*
X88330719Y-84238093D01*
X88327172Y-84241789D01*
X86471108Y-86097852D01*
X86451254Y-86113976D01*
X86442165Y-86119914D01*
X86422722Y-86144894D01*
X86412563Y-86156398D01*
X86412484Y-86156476D01*
X86412479Y-86156482D01*
X86412480Y-86156482D01*
X86400390Y-86173414D01*
X86397341Y-86177504D01*
X86360354Y-86225024D01*
X86360237Y-86225253D01*
X86343057Y-86282955D01*
X86341495Y-86287831D01*
X86321941Y-86344792D01*
X86321906Y-86345034D01*
X86324394Y-86405191D01*
X86324500Y-86410315D01*
X86324500Y-86507796D01*
X86304815Y-86574835D01*
X86282727Y-86600611D01*
X86209517Y-86665468D01*
X86119780Y-86795476D01*
X86063763Y-86943181D01*
X86044721Y-87099999D01*
X84775500Y-87099999D01*
X84775500Y-85166899D01*
X84795185Y-85099860D01*
X84811819Y-85079218D01*
X85888125Y-84002912D01*
X86974059Y-82916977D01*
X86988481Y-82906224D01*
X86993823Y-82900420D01*
X86993826Y-82900419D01*
X87029284Y-82861900D01*
X87032784Y-82858252D01*
X87488892Y-82402144D01*
X87508743Y-82386024D01*
X87517836Y-82380084D01*
X87537280Y-82355101D01*
X87547453Y-82343584D01*
X87547520Y-82343518D01*
X87559619Y-82326570D01*
X87562641Y-82322515D01*
X87594809Y-82281189D01*
X87594810Y-82281185D01*
X87599665Y-82274948D01*
X87607901Y-82258950D01*
X87612557Y-82252431D01*
X87667539Y-82209318D01*
X87713463Y-82200500D01*
X88134675Y-82200500D01*
X88172192Y-82193037D01*
X88207740Y-82185966D01*
X88290601Y-82130601D01*
X88345966Y-82047740D01*
X88360500Y-81974674D01*
X88360500Y-81100000D01*
X88694785Y-81100000D01*
X88713602Y-81303083D01*
X88769418Y-81499251D01*
X88860324Y-81681818D01*
X88983236Y-81844580D01*
X89133958Y-81981981D01*
X89307361Y-82089347D01*
X89307363Y-82089348D01*
X89497544Y-82163024D01*
X89698024Y-82200500D01*
X89698026Y-82200500D01*
X89901974Y-82200500D01*
X89901976Y-82200500D01*
X90102456Y-82163024D01*
X90292637Y-82089348D01*
X90466041Y-81981981D01*
X90616764Y-81844579D01*
X90739673Y-81681821D01*
X90739673Y-81681819D01*
X90739675Y-81681818D01*
X90806381Y-81547852D01*
X90830582Y-81499250D01*
X90886397Y-81303083D01*
X90905215Y-81100000D01*
X91234785Y-81100000D01*
X91253602Y-81303083D01*
X91309418Y-81499251D01*
X91400324Y-81681818D01*
X91523236Y-81844580D01*
X91673958Y-81981981D01*
X91847361Y-82089347D01*
X91847363Y-82089348D01*
X92037544Y-82163024D01*
X92238024Y-82200500D01*
X92238026Y-82200500D01*
X92441974Y-82200500D01*
X92441976Y-82200500D01*
X92642456Y-82163024D01*
X92832637Y-82089348D01*
X93006041Y-81981981D01*
X93156764Y-81844579D01*
X93279673Y-81681821D01*
X93279673Y-81681819D01*
X93279675Y-81681818D01*
X93346381Y-81547852D01*
X93370582Y-81499250D01*
X93426397Y-81303083D01*
X93445215Y-81100000D01*
X93445215Y-81099999D01*
X93774785Y-81099999D01*
X93793602Y-81303083D01*
X93849418Y-81499251D01*
X93940324Y-81681818D01*
X94063236Y-81844580D01*
X94213958Y-81981981D01*
X94387361Y-82089347D01*
X94387363Y-82089348D01*
X94577544Y-82163024D01*
X94778024Y-82200500D01*
X94778026Y-82200500D01*
X94981974Y-82200500D01*
X94981976Y-82200500D01*
X95182456Y-82163024D01*
X95372637Y-82089348D01*
X95546041Y-81981981D01*
X95696764Y-81844579D01*
X95819673Y-81681821D01*
X95819673Y-81681819D01*
X95819675Y-81681818D01*
X95886381Y-81547852D01*
X95910582Y-81499250D01*
X95966397Y-81303083D01*
X95985215Y-81100000D01*
X95966397Y-80896917D01*
X95910582Y-80700750D01*
X95910209Y-80700001D01*
X95819675Y-80518181D01*
X95696763Y-80355419D01*
X95546041Y-80218018D01*
X95372638Y-80110652D01*
X95182457Y-80036976D01*
X95059726Y-80014034D01*
X94981976Y-79999500D01*
X94778024Y-79999500D01*
X94700279Y-80014033D01*
X94577542Y-80036976D01*
X94387361Y-80110652D01*
X94213958Y-80218018D01*
X94063236Y-80355419D01*
X93940324Y-80518181D01*
X93849418Y-80700748D01*
X93793602Y-80896916D01*
X93774785Y-81099999D01*
X93445215Y-81099999D01*
X93426397Y-80896917D01*
X93370582Y-80700750D01*
X93370209Y-80700001D01*
X93279675Y-80518181D01*
X93156763Y-80355419D01*
X93006041Y-80218018D01*
X92832638Y-80110652D01*
X92642457Y-80036976D01*
X92519726Y-80014034D01*
X92441976Y-79999500D01*
X92238024Y-79999500D01*
X92160279Y-80014033D01*
X92037542Y-80036976D01*
X91847361Y-80110652D01*
X91673958Y-80218018D01*
X91523236Y-80355419D01*
X91400324Y-80518181D01*
X91309418Y-80700748D01*
X91253602Y-80896916D01*
X91234785Y-81100000D01*
X90905215Y-81100000D01*
X90886397Y-80896917D01*
X90830582Y-80700750D01*
X90830209Y-80700001D01*
X90739675Y-80518181D01*
X90616763Y-80355419D01*
X90466041Y-80218018D01*
X90292638Y-80110652D01*
X90102457Y-80036976D01*
X89979726Y-80014034D01*
X89901976Y-79999500D01*
X89698024Y-79999500D01*
X89620279Y-80014033D01*
X89497542Y-80036976D01*
X89307361Y-80110652D01*
X89133958Y-80218018D01*
X88983236Y-80355419D01*
X88860324Y-80518181D01*
X88769418Y-80700748D01*
X88713602Y-80896916D01*
X88694785Y-81100000D01*
X88360500Y-81100000D01*
X88360500Y-80225326D01*
X88345966Y-80152260D01*
X88290601Y-80069399D01*
X88207740Y-80014034D01*
X88207739Y-80014033D01*
X88207738Y-80014033D01*
X88134675Y-79999500D01*
X88134674Y-79999500D01*
X86385326Y-79999500D01*
X86385325Y-79999500D01*
X86312261Y-80014033D01*
X86229399Y-80069399D01*
X86174033Y-80152261D01*
X86160953Y-80218019D01*
X86159500Y-80225326D01*
X86159500Y-81974674D01*
X86164987Y-82002261D01*
X86178846Y-82071930D01*
X86176054Y-82072485D01*
X86184134Y-82098292D01*
X86165646Y-82165672D01*
X86113665Y-82212359D01*
X86060154Y-82224500D01*
X84574500Y-82224500D01*
X84507461Y-82204815D01*
X84461706Y-82152011D01*
X84450500Y-82100500D01*
X84450500Y-82075325D01*
X84435966Y-82002261D01*
X84435966Y-82002260D01*
X84380601Y-81919399D01*
X84297740Y-81864034D01*
X84297739Y-81864033D01*
X84297738Y-81864033D01*
X84224675Y-81849500D01*
X84224674Y-81849500D01*
X82675326Y-81849500D01*
X82675325Y-81849500D01*
X82602261Y-81864033D01*
X82519399Y-81919399D01*
X82464033Y-82002261D01*
X82449500Y-82075325D01*
X82449500Y-83124674D01*
X79550500Y-83124674D01*
X79550500Y-82075326D01*
X79549824Y-82071930D01*
X79535966Y-82002261D01*
X79535966Y-82002260D01*
X79480601Y-81919399D01*
X79397740Y-81864034D01*
X79397739Y-81864033D01*
X79397738Y-81864033D01*
X79324675Y-81849500D01*
X79324674Y-81849500D01*
X77775326Y-81849500D01*
X77775325Y-81849500D01*
X77702261Y-81864033D01*
X77619399Y-81919399D01*
X77564033Y-82002261D01*
X77549500Y-82075325D01*
X77549500Y-83124674D01*
X77564034Y-83197740D01*
X77590485Y-83237328D01*
X77611362Y-83304005D01*
X77592877Y-83371385D01*
X77575063Y-83393898D01*
X75571108Y-85397852D01*
X75551254Y-85413976D01*
X75542165Y-85419914D01*
X75522722Y-85444894D01*
X75512563Y-85456398D01*
X75512484Y-85456476D01*
X75512479Y-85456482D01*
X75512480Y-85456482D01*
X75500390Y-85473414D01*
X75497341Y-85477504D01*
X75460354Y-85525024D01*
X75460237Y-85525253D01*
X75443057Y-85582955D01*
X75441495Y-85587831D01*
X75421941Y-85644792D01*
X75421906Y-85645034D01*
X75424394Y-85705191D01*
X75424500Y-85710315D01*
X75424500Y-112898196D01*
X75421861Y-112923642D01*
X75419633Y-112934267D01*
X75000500Y-112934267D01*
X75000500Y-79924674D01*
X82449500Y-79924674D01*
X82464033Y-79997738D01*
X82464033Y-79997739D01*
X82464034Y-79997740D01*
X82519399Y-80080601D01*
X82602260Y-80135966D01*
X82638792Y-80143232D01*
X82675325Y-80150500D01*
X82675326Y-80150500D01*
X84224675Y-80150500D01*
X84249029Y-80145655D01*
X84297740Y-80135966D01*
X84380601Y-80080601D01*
X84435966Y-79997740D01*
X84450500Y-79924674D01*
X84450500Y-78875326D01*
X84435966Y-78802260D01*
X84380601Y-78719399D01*
X84297740Y-78664034D01*
X84297739Y-78664033D01*
X84297738Y-78664033D01*
X84224675Y-78649500D01*
X84224674Y-78649500D01*
X82675326Y-78649500D01*
X82675325Y-78649500D01*
X82602261Y-78664033D01*
X82519399Y-78719399D01*
X82464033Y-78802261D01*
X82449500Y-78875325D01*
X82449500Y-79924674D01*
X75000500Y-79924674D01*
X75000500Y-78200000D01*
X103974785Y-78200000D01*
X103993602Y-78403083D01*
X104049418Y-78599251D01*
X104140324Y-78781818D01*
X104263236Y-78944580D01*
X104413958Y-79081981D01*
X104587361Y-79189347D01*
X104587363Y-79189348D01*
X104777544Y-79263024D01*
X104978024Y-79300500D01*
X104978026Y-79300500D01*
X105181974Y-79300500D01*
X105181976Y-79300500D01*
X105382456Y-79263024D01*
X105572637Y-79189348D01*
X105746041Y-79081981D01*
X105896764Y-78944579D01*
X106019673Y-78781821D01*
X106019673Y-78781819D01*
X106019675Y-78781818D01*
X106065313Y-78690161D01*
X106110582Y-78599250D01*
X106166397Y-78403083D01*
X106185215Y-78200000D01*
X106514785Y-78200000D01*
X106533602Y-78403083D01*
X106589418Y-78599251D01*
X106680324Y-78781818D01*
X106803236Y-78944580D01*
X106953958Y-79081981D01*
X107127361Y-79189347D01*
X107127363Y-79189348D01*
X107317544Y-79263024D01*
X107518024Y-79300500D01*
X107518026Y-79300500D01*
X107721974Y-79300500D01*
X107721976Y-79300500D01*
X107922456Y-79263024D01*
X108112637Y-79189348D01*
X108286041Y-79081981D01*
X108436764Y-78944579D01*
X108559673Y-78781821D01*
X108559673Y-78781819D01*
X108559675Y-78781818D01*
X108605313Y-78690161D01*
X108650582Y-78599250D01*
X108706397Y-78403083D01*
X108725215Y-78200000D01*
X109054785Y-78200000D01*
X109073602Y-78403083D01*
X109129418Y-78599251D01*
X109220324Y-78781818D01*
X109343236Y-78944580D01*
X109493958Y-79081981D01*
X109667361Y-79189347D01*
X109667363Y-79189348D01*
X109857544Y-79263024D01*
X110058024Y-79300500D01*
X110058026Y-79300500D01*
X110261974Y-79300500D01*
X110261976Y-79300500D01*
X110462456Y-79263024D01*
X110652637Y-79189348D01*
X110826041Y-79081981D01*
X110976764Y-78944579D01*
X111099673Y-78781821D01*
X111099673Y-78781819D01*
X111099675Y-78781818D01*
X111145313Y-78690161D01*
X111190582Y-78599250D01*
X111246397Y-78403083D01*
X111265215Y-78200000D01*
X111246397Y-77996917D01*
X111190582Y-77800750D01*
X111190209Y-77800001D01*
X111099675Y-77618181D01*
X110976763Y-77455419D01*
X110826041Y-77318018D01*
X110652638Y-77210652D01*
X110462457Y-77136976D01*
X110395629Y-77124484D01*
X110261976Y-77099500D01*
X110058024Y-77099500D01*
X109957783Y-77118238D01*
X109857542Y-77136976D01*
X109667361Y-77210652D01*
X109493958Y-77318018D01*
X109343236Y-77455419D01*
X109220324Y-77618181D01*
X109129418Y-77800748D01*
X109073602Y-77996916D01*
X109054785Y-78200000D01*
X108725215Y-78200000D01*
X108706397Y-77996917D01*
X108650582Y-77800750D01*
X108650209Y-77800001D01*
X108559675Y-77618181D01*
X108436763Y-77455419D01*
X108286041Y-77318018D01*
X108112638Y-77210652D01*
X107922457Y-77136976D01*
X107855629Y-77124484D01*
X107721976Y-77099500D01*
X107518024Y-77099500D01*
X107417783Y-77118238D01*
X107317542Y-77136976D01*
X107127361Y-77210652D01*
X106953958Y-77318018D01*
X106803236Y-77455419D01*
X106680324Y-77618181D01*
X106589418Y-77800748D01*
X106533602Y-77996916D01*
X106514785Y-78200000D01*
X106185215Y-78200000D01*
X106166397Y-77996917D01*
X106110582Y-77800750D01*
X106110209Y-77800001D01*
X106019675Y-77618181D01*
X105896763Y-77455419D01*
X105746041Y-77318018D01*
X105572638Y-77210652D01*
X105382457Y-77136976D01*
X105315629Y-77124484D01*
X105181976Y-77099500D01*
X104978024Y-77099500D01*
X104877783Y-77118238D01*
X104777542Y-77136976D01*
X104587361Y-77210652D01*
X104413958Y-77318018D01*
X104263236Y-77455419D01*
X104140324Y-77618181D01*
X104049418Y-77800748D01*
X103993602Y-77996916D01*
X103974785Y-78200000D01*
X75000500Y-78200000D01*
X75000500Y-77624500D01*
X75020185Y-77557461D01*
X75072989Y-77511706D01*
X75124500Y-77500500D01*
X77475240Y-77500500D01*
X77475383Y-77500528D01*
X77475384Y-77500524D01*
X77499997Y-77500539D01*
X77500000Y-77500541D01*
X77500383Y-77500383D01*
X77500500Y-77500099D01*
X77500541Y-77500000D01*
X77500540Y-77499997D01*
X77500583Y-77475889D01*
X77500500Y-77475467D01*
X77500500Y-75124500D01*
X77520185Y-75057461D01*
X77572989Y-75011706D01*
X77624500Y-75000500D01*
X122375500Y-75000500D01*
X122442539Y-75020185D01*
G37*
G04 #@! TD.AperFunction*
M02*
