G04 #@! TF.GenerationSoftware,KiCad,Pcbnew,7.0.5-4d25ed1034~172~ubuntu22.04.1*
G04 #@! TF.CreationDate,2023-06-02T18:33:25-04:00*
G04 #@! TF.ProjectId,v2,76322e6b-6963-4616-945f-706362585858,rev?*
G04 #@! TF.SameCoordinates,Original*
G04 #@! TF.FileFunction,Legend,Top*
G04 #@! TF.FilePolarity,Positive*
%FSLAX46Y46*%
G04 Gerber Fmt 4.6, Leading zero omitted, Abs format (unit mm)*
G04 Created by KiCad (PCBNEW 7.0.5-4d25ed1034~172~ubuntu22.04.1) date 2023-06-02 18:33:25*
%MOMM*%
%LPD*%
G01*
G04 APERTURE LIST*
G04 Aperture macros list*
%AMRoundRect*
0 Rectangle with rounded corners*
0 $1 Rounding radius*
0 $2 $3 $4 $5 $6 $7 $8 $9 X,Y pos of 4 corners*
0 Add a 4 corners polygon primitive as box body*
4,1,4,$2,$3,$4,$5,$6,$7,$8,$9,$2,$3,0*
0 Add four circle primitives for the rounded corners*
1,1,$1+$1,$2,$3*
1,1,$1+$1,$4,$5*
1,1,$1+$1,$6,$7*
1,1,$1+$1,$8,$9*
0 Add four rect primitives between the rounded corners*
20,1,$1+$1,$2,$3,$4,$5,0*
20,1,$1+$1,$4,$5,$6,$7,0*
20,1,$1+$1,$6,$7,$8,$9,0*
20,1,$1+$1,$8,$9,$2,$3,0*%
G04 Aperture macros list end*
%ADD10C,0.150000*%
%ADD11C,0.120000*%
%ADD12R,1.500000X1.000000*%
%ADD13RoundRect,0.155000X0.155000X-0.212500X0.155000X0.212500X-0.155000X0.212500X-0.155000X-0.212500X0*%
%ADD14RoundRect,0.150000X0.150000X-0.587500X0.150000X0.587500X-0.150000X0.587500X-0.150000X-0.587500X0*%
%ADD15RoundRect,0.237500X0.237500X-0.250000X0.237500X0.250000X-0.237500X0.250000X-0.237500X-0.250000X0*%
%ADD16C,1.900000*%
%ADD17R,1.900000X1.900000*%
%ADD18R,1.700000X1.700000*%
%ADD19O,1.700000X1.700000*%
%ADD20R,0.700000X0.700000*%
%ADD21RoundRect,0.237500X-0.237500X0.250000X-0.237500X-0.250000X0.237500X-0.250000X0.237500X0.250000X0*%
%ADD22R,1.000000X1.500000*%
%ADD23R,1.000000X0.750000*%
%ADD24RoundRect,0.237500X0.237500X-0.300000X0.237500X0.300000X-0.237500X0.300000X-0.237500X-0.300000X0*%
%ADD25RoundRect,0.237500X0.300000X0.237500X-0.300000X0.237500X-0.300000X-0.237500X0.300000X-0.237500X0*%
%ADD26RoundRect,0.062500X-0.375000X-0.062500X0.375000X-0.062500X0.375000X0.062500X-0.375000X0.062500X0*%
%ADD27RoundRect,0.062500X-0.062500X-0.375000X0.062500X-0.375000X0.062500X0.375000X-0.062500X0.375000X0*%
%ADD28R,3.100000X3.100000*%
%ADD29RoundRect,0.237500X-0.237500X0.300000X-0.237500X-0.300000X0.237500X-0.300000X0.237500X0.300000X0*%
%ADD30R,2.100000X1.800000*%
%ADD31RoundRect,0.237500X-0.237500X0.287500X-0.237500X-0.287500X0.237500X-0.287500X0.237500X0.287500X0*%
%ADD32RoundRect,0.237500X0.250000X0.237500X-0.250000X0.237500X-0.250000X-0.237500X0.250000X-0.237500X0*%
G04 APERTURE END LIST*
D10*
X80261905Y-77754819D02*
X80261905Y-76754819D01*
X80261905Y-76754819D02*
X80500000Y-76754819D01*
X80500000Y-76754819D02*
X80642857Y-76802438D01*
X80642857Y-76802438D02*
X80738095Y-76897676D01*
X80738095Y-76897676D02*
X80785714Y-76992914D01*
X80785714Y-76992914D02*
X80833333Y-77183390D01*
X80833333Y-77183390D02*
X80833333Y-77326247D01*
X80833333Y-77326247D02*
X80785714Y-77516723D01*
X80785714Y-77516723D02*
X80738095Y-77611961D01*
X80738095Y-77611961D02*
X80642857Y-77707200D01*
X80642857Y-77707200D02*
X80500000Y-77754819D01*
X80500000Y-77754819D02*
X80261905Y-77754819D01*
X81690476Y-77088152D02*
X81690476Y-77754819D01*
X81452381Y-76707200D02*
X81214286Y-77421485D01*
X81214286Y-77421485D02*
X81833333Y-77421485D01*
X103433333Y-106059580D02*
X103385714Y-106107200D01*
X103385714Y-106107200D02*
X103242857Y-106154819D01*
X103242857Y-106154819D02*
X103147619Y-106154819D01*
X103147619Y-106154819D02*
X103004762Y-106107200D01*
X103004762Y-106107200D02*
X102909524Y-106011961D01*
X102909524Y-106011961D02*
X102861905Y-105916723D01*
X102861905Y-105916723D02*
X102814286Y-105726247D01*
X102814286Y-105726247D02*
X102814286Y-105583390D01*
X102814286Y-105583390D02*
X102861905Y-105392914D01*
X102861905Y-105392914D02*
X102909524Y-105297676D01*
X102909524Y-105297676D02*
X103004762Y-105202438D01*
X103004762Y-105202438D02*
X103147619Y-105154819D01*
X103147619Y-105154819D02*
X103242857Y-105154819D01*
X103242857Y-105154819D02*
X103385714Y-105202438D01*
X103385714Y-105202438D02*
X103433333Y-105250057D01*
X104290476Y-105488152D02*
X104290476Y-106154819D01*
X104052381Y-105107200D02*
X103814286Y-105821485D01*
X103814286Y-105821485D02*
X104433333Y-105821485D01*
X101838095Y-99354819D02*
X101838095Y-100164342D01*
X101838095Y-100164342D02*
X101885714Y-100259580D01*
X101885714Y-100259580D02*
X101933333Y-100307200D01*
X101933333Y-100307200D02*
X102028571Y-100354819D01*
X102028571Y-100354819D02*
X102219047Y-100354819D01*
X102219047Y-100354819D02*
X102314285Y-100307200D01*
X102314285Y-100307200D02*
X102361904Y-100259580D01*
X102361904Y-100259580D02*
X102409523Y-100164342D01*
X102409523Y-100164342D02*
X102409523Y-99354819D01*
X102838095Y-99450057D02*
X102885714Y-99402438D01*
X102885714Y-99402438D02*
X102980952Y-99354819D01*
X102980952Y-99354819D02*
X103219047Y-99354819D01*
X103219047Y-99354819D02*
X103314285Y-99402438D01*
X103314285Y-99402438D02*
X103361904Y-99450057D01*
X103361904Y-99450057D02*
X103409523Y-99545295D01*
X103409523Y-99545295D02*
X103409523Y-99640533D01*
X103409523Y-99640533D02*
X103361904Y-99783390D01*
X103361904Y-99783390D02*
X102790476Y-100354819D01*
X102790476Y-100354819D02*
X103409523Y-100354819D01*
X104333333Y-94367319D02*
X104000000Y-93891128D01*
X103761905Y-94367319D02*
X103761905Y-93367319D01*
X103761905Y-93367319D02*
X104142857Y-93367319D01*
X104142857Y-93367319D02*
X104238095Y-93414938D01*
X104238095Y-93414938D02*
X104285714Y-93462557D01*
X104285714Y-93462557D02*
X104333333Y-93557795D01*
X104333333Y-93557795D02*
X104333333Y-93700652D01*
X104333333Y-93700652D02*
X104285714Y-93795890D01*
X104285714Y-93795890D02*
X104238095Y-93843509D01*
X104238095Y-93843509D02*
X104142857Y-93891128D01*
X104142857Y-93891128D02*
X103761905Y-93891128D01*
X104666667Y-93367319D02*
X105333333Y-93367319D01*
X105333333Y-93367319D02*
X104904762Y-94367319D01*
X85254819Y-76833333D02*
X85969104Y-76833333D01*
X85969104Y-76833333D02*
X86111961Y-76880952D01*
X86111961Y-76880952D02*
X86207200Y-76976190D01*
X86207200Y-76976190D02*
X86254819Y-77119047D01*
X86254819Y-77119047D02*
X86254819Y-77214285D01*
X85588152Y-75928571D02*
X86254819Y-75928571D01*
X85207200Y-76166666D02*
X85921485Y-76404761D01*
X85921485Y-76404761D02*
X85921485Y-75785714D01*
X111866666Y-102054819D02*
X111866666Y-102769104D01*
X111866666Y-102769104D02*
X111819047Y-102911961D01*
X111819047Y-102911961D02*
X111723809Y-103007200D01*
X111723809Y-103007200D02*
X111580952Y-103054819D01*
X111580952Y-103054819D02*
X111485714Y-103054819D01*
X112390476Y-103054819D02*
X112580952Y-103054819D01*
X112580952Y-103054819D02*
X112676190Y-103007200D01*
X112676190Y-103007200D02*
X112723809Y-102959580D01*
X112723809Y-102959580D02*
X112819047Y-102816723D01*
X112819047Y-102816723D02*
X112866666Y-102626247D01*
X112866666Y-102626247D02*
X112866666Y-102245295D01*
X112866666Y-102245295D02*
X112819047Y-102150057D01*
X112819047Y-102150057D02*
X112771428Y-102102438D01*
X112771428Y-102102438D02*
X112676190Y-102054819D01*
X112676190Y-102054819D02*
X112485714Y-102054819D01*
X112485714Y-102054819D02*
X112390476Y-102102438D01*
X112390476Y-102102438D02*
X112342857Y-102150057D01*
X112342857Y-102150057D02*
X112295238Y-102245295D01*
X112295238Y-102245295D02*
X112295238Y-102483390D01*
X112295238Y-102483390D02*
X112342857Y-102578628D01*
X112342857Y-102578628D02*
X112390476Y-102626247D01*
X112390476Y-102626247D02*
X112485714Y-102673866D01*
X112485714Y-102673866D02*
X112676190Y-102673866D01*
X112676190Y-102673866D02*
X112771428Y-102626247D01*
X112771428Y-102626247D02*
X112819047Y-102578628D01*
X112819047Y-102578628D02*
X112866666Y-102483390D01*
X99361905Y-96854819D02*
X99361905Y-95854819D01*
X99361905Y-95854819D02*
X99600000Y-95854819D01*
X99600000Y-95854819D02*
X99742857Y-95902438D01*
X99742857Y-95902438D02*
X99838095Y-95997676D01*
X99838095Y-95997676D02*
X99885714Y-96092914D01*
X99885714Y-96092914D02*
X99933333Y-96283390D01*
X99933333Y-96283390D02*
X99933333Y-96426247D01*
X99933333Y-96426247D02*
X99885714Y-96616723D01*
X99885714Y-96616723D02*
X99838095Y-96711961D01*
X99838095Y-96711961D02*
X99742857Y-96807200D01*
X99742857Y-96807200D02*
X99600000Y-96854819D01*
X99600000Y-96854819D02*
X99361905Y-96854819D01*
X100790476Y-95854819D02*
X100600000Y-95854819D01*
X100600000Y-95854819D02*
X100504762Y-95902438D01*
X100504762Y-95902438D02*
X100457143Y-95950057D01*
X100457143Y-95950057D02*
X100361905Y-96092914D01*
X100361905Y-96092914D02*
X100314286Y-96283390D01*
X100314286Y-96283390D02*
X100314286Y-96664342D01*
X100314286Y-96664342D02*
X100361905Y-96759580D01*
X100361905Y-96759580D02*
X100409524Y-96807200D01*
X100409524Y-96807200D02*
X100504762Y-96854819D01*
X100504762Y-96854819D02*
X100695238Y-96854819D01*
X100695238Y-96854819D02*
X100790476Y-96807200D01*
X100790476Y-96807200D02*
X100838095Y-96759580D01*
X100838095Y-96759580D02*
X100885714Y-96664342D01*
X100885714Y-96664342D02*
X100885714Y-96426247D01*
X100885714Y-96426247D02*
X100838095Y-96331009D01*
X100838095Y-96331009D02*
X100790476Y-96283390D01*
X100790476Y-96283390D02*
X100695238Y-96235771D01*
X100695238Y-96235771D02*
X100504762Y-96235771D01*
X100504762Y-96235771D02*
X100409524Y-96283390D01*
X100409524Y-96283390D02*
X100361905Y-96331009D01*
X100361905Y-96331009D02*
X100314286Y-96426247D01*
X95933333Y-91154819D02*
X95600000Y-90678628D01*
X95361905Y-91154819D02*
X95361905Y-90154819D01*
X95361905Y-90154819D02*
X95742857Y-90154819D01*
X95742857Y-90154819D02*
X95838095Y-90202438D01*
X95838095Y-90202438D02*
X95885714Y-90250057D01*
X95885714Y-90250057D02*
X95933333Y-90345295D01*
X95933333Y-90345295D02*
X95933333Y-90488152D01*
X95933333Y-90488152D02*
X95885714Y-90583390D01*
X95885714Y-90583390D02*
X95838095Y-90631009D01*
X95838095Y-90631009D02*
X95742857Y-90678628D01*
X95742857Y-90678628D02*
X95361905Y-90678628D01*
X96838095Y-90154819D02*
X96361905Y-90154819D01*
X96361905Y-90154819D02*
X96314286Y-90631009D01*
X96314286Y-90631009D02*
X96361905Y-90583390D01*
X96361905Y-90583390D02*
X96457143Y-90535771D01*
X96457143Y-90535771D02*
X96695238Y-90535771D01*
X96695238Y-90535771D02*
X96790476Y-90583390D01*
X96790476Y-90583390D02*
X96838095Y-90631009D01*
X96838095Y-90631009D02*
X96885714Y-90726247D01*
X96885714Y-90726247D02*
X96885714Y-90964342D01*
X96885714Y-90964342D02*
X96838095Y-91059580D01*
X96838095Y-91059580D02*
X96790476Y-91107200D01*
X96790476Y-91107200D02*
X96695238Y-91154819D01*
X96695238Y-91154819D02*
X96457143Y-91154819D01*
X96457143Y-91154819D02*
X96361905Y-91107200D01*
X96361905Y-91107200D02*
X96314286Y-91059580D01*
X118261905Y-77154819D02*
X118261905Y-76154819D01*
X118261905Y-76154819D02*
X118500000Y-76154819D01*
X118500000Y-76154819D02*
X118642857Y-76202438D01*
X118642857Y-76202438D02*
X118738095Y-76297676D01*
X118738095Y-76297676D02*
X118785714Y-76392914D01*
X118785714Y-76392914D02*
X118833333Y-76583390D01*
X118833333Y-76583390D02*
X118833333Y-76726247D01*
X118833333Y-76726247D02*
X118785714Y-76916723D01*
X118785714Y-76916723D02*
X118738095Y-77011961D01*
X118738095Y-77011961D02*
X118642857Y-77107200D01*
X118642857Y-77107200D02*
X118500000Y-77154819D01*
X118500000Y-77154819D02*
X118261905Y-77154819D01*
X119785714Y-77154819D02*
X119214286Y-77154819D01*
X119500000Y-77154819D02*
X119500000Y-76154819D01*
X119500000Y-76154819D02*
X119404762Y-76297676D01*
X119404762Y-76297676D02*
X119309524Y-76392914D01*
X119309524Y-76392914D02*
X119214286Y-76440533D01*
X102204761Y-94450057D02*
X102109523Y-94402438D01*
X102109523Y-94402438D02*
X102014285Y-94307200D01*
X102014285Y-94307200D02*
X101871428Y-94164342D01*
X101871428Y-94164342D02*
X101776190Y-94116723D01*
X101776190Y-94116723D02*
X101680952Y-94116723D01*
X101728571Y-94354819D02*
X101633333Y-94307200D01*
X101633333Y-94307200D02*
X101538095Y-94211961D01*
X101538095Y-94211961D02*
X101490476Y-94021485D01*
X101490476Y-94021485D02*
X101490476Y-93688152D01*
X101490476Y-93688152D02*
X101538095Y-93497676D01*
X101538095Y-93497676D02*
X101633333Y-93402438D01*
X101633333Y-93402438D02*
X101728571Y-93354819D01*
X101728571Y-93354819D02*
X101919047Y-93354819D01*
X101919047Y-93354819D02*
X102014285Y-93402438D01*
X102014285Y-93402438D02*
X102109523Y-93497676D01*
X102109523Y-93497676D02*
X102157142Y-93688152D01*
X102157142Y-93688152D02*
X102157142Y-94021485D01*
X102157142Y-94021485D02*
X102109523Y-94211961D01*
X102109523Y-94211961D02*
X102014285Y-94307200D01*
X102014285Y-94307200D02*
X101919047Y-94354819D01*
X101919047Y-94354819D02*
X101728571Y-94354819D01*
X103109523Y-94354819D02*
X102538095Y-94354819D01*
X102823809Y-94354819D02*
X102823809Y-93354819D01*
X102823809Y-93354819D02*
X102728571Y-93497676D01*
X102728571Y-93497676D02*
X102633333Y-93592914D01*
X102633333Y-93592914D02*
X102538095Y-93640533D01*
X98666667Y-108657200D02*
X98809524Y-108704819D01*
X98809524Y-108704819D02*
X99047619Y-108704819D01*
X99047619Y-108704819D02*
X99142857Y-108657200D01*
X99142857Y-108657200D02*
X99190476Y-108609580D01*
X99190476Y-108609580D02*
X99238095Y-108514342D01*
X99238095Y-108514342D02*
X99238095Y-108419104D01*
X99238095Y-108419104D02*
X99190476Y-108323866D01*
X99190476Y-108323866D02*
X99142857Y-108276247D01*
X99142857Y-108276247D02*
X99047619Y-108228628D01*
X99047619Y-108228628D02*
X98857143Y-108181009D01*
X98857143Y-108181009D02*
X98761905Y-108133390D01*
X98761905Y-108133390D02*
X98714286Y-108085771D01*
X98714286Y-108085771D02*
X98666667Y-107990533D01*
X98666667Y-107990533D02*
X98666667Y-107895295D01*
X98666667Y-107895295D02*
X98714286Y-107800057D01*
X98714286Y-107800057D02*
X98761905Y-107752438D01*
X98761905Y-107752438D02*
X98857143Y-107704819D01*
X98857143Y-107704819D02*
X99095238Y-107704819D01*
X99095238Y-107704819D02*
X99238095Y-107752438D01*
X99571429Y-107704819D02*
X99809524Y-108704819D01*
X99809524Y-108704819D02*
X100000000Y-107990533D01*
X100000000Y-107990533D02*
X100190476Y-108704819D01*
X100190476Y-108704819D02*
X100428572Y-107704819D01*
X101333333Y-108704819D02*
X100761905Y-108704819D01*
X101047619Y-108704819D02*
X101047619Y-107704819D01*
X101047619Y-107704819D02*
X100952381Y-107847676D01*
X100952381Y-107847676D02*
X100857143Y-107942914D01*
X100857143Y-107942914D02*
X100761905Y-107990533D01*
X94633333Y-101559580D02*
X94585714Y-101607200D01*
X94585714Y-101607200D02*
X94442857Y-101654819D01*
X94442857Y-101654819D02*
X94347619Y-101654819D01*
X94347619Y-101654819D02*
X94204762Y-101607200D01*
X94204762Y-101607200D02*
X94109524Y-101511961D01*
X94109524Y-101511961D02*
X94061905Y-101416723D01*
X94061905Y-101416723D02*
X94014286Y-101226247D01*
X94014286Y-101226247D02*
X94014286Y-101083390D01*
X94014286Y-101083390D02*
X94061905Y-100892914D01*
X94061905Y-100892914D02*
X94109524Y-100797676D01*
X94109524Y-100797676D02*
X94204762Y-100702438D01*
X94204762Y-100702438D02*
X94347619Y-100654819D01*
X94347619Y-100654819D02*
X94442857Y-100654819D01*
X94442857Y-100654819D02*
X94585714Y-100702438D01*
X94585714Y-100702438D02*
X94633333Y-100750057D01*
X94966667Y-100654819D02*
X95585714Y-100654819D01*
X95585714Y-100654819D02*
X95252381Y-101035771D01*
X95252381Y-101035771D02*
X95395238Y-101035771D01*
X95395238Y-101035771D02*
X95490476Y-101083390D01*
X95490476Y-101083390D02*
X95538095Y-101131009D01*
X95538095Y-101131009D02*
X95585714Y-101226247D01*
X95585714Y-101226247D02*
X95585714Y-101464342D01*
X95585714Y-101464342D02*
X95538095Y-101559580D01*
X95538095Y-101559580D02*
X95490476Y-101607200D01*
X95490476Y-101607200D02*
X95395238Y-101654819D01*
X95395238Y-101654819D02*
X95109524Y-101654819D01*
X95109524Y-101654819D02*
X95014286Y-101607200D01*
X95014286Y-101607200D02*
X94966667Y-101559580D01*
X113654819Y-123833333D02*
X114369104Y-123833333D01*
X114369104Y-123833333D02*
X114511961Y-123880952D01*
X114511961Y-123880952D02*
X114607200Y-123976190D01*
X114607200Y-123976190D02*
X114654819Y-124119047D01*
X114654819Y-124119047D02*
X114654819Y-124214285D01*
X113750057Y-123404761D02*
X113702438Y-123357142D01*
X113702438Y-123357142D02*
X113654819Y-123261904D01*
X113654819Y-123261904D02*
X113654819Y-123023809D01*
X113654819Y-123023809D02*
X113702438Y-122928571D01*
X113702438Y-122928571D02*
X113750057Y-122880952D01*
X113750057Y-122880952D02*
X113845295Y-122833333D01*
X113845295Y-122833333D02*
X113940533Y-122833333D01*
X113940533Y-122833333D02*
X114083390Y-122880952D01*
X114083390Y-122880952D02*
X114654819Y-123452380D01*
X114654819Y-123452380D02*
X114654819Y-122833333D01*
X109095833Y-91689580D02*
X109048214Y-91737200D01*
X109048214Y-91737200D02*
X108905357Y-91784819D01*
X108905357Y-91784819D02*
X108810119Y-91784819D01*
X108810119Y-91784819D02*
X108667262Y-91737200D01*
X108667262Y-91737200D02*
X108572024Y-91641961D01*
X108572024Y-91641961D02*
X108524405Y-91546723D01*
X108524405Y-91546723D02*
X108476786Y-91356247D01*
X108476786Y-91356247D02*
X108476786Y-91213390D01*
X108476786Y-91213390D02*
X108524405Y-91022914D01*
X108524405Y-91022914D02*
X108572024Y-90927676D01*
X108572024Y-90927676D02*
X108667262Y-90832438D01*
X108667262Y-90832438D02*
X108810119Y-90784819D01*
X108810119Y-90784819D02*
X108905357Y-90784819D01*
X108905357Y-90784819D02*
X109048214Y-90832438D01*
X109048214Y-90832438D02*
X109095833Y-90880057D01*
X110000595Y-90784819D02*
X109524405Y-90784819D01*
X109524405Y-90784819D02*
X109476786Y-91261009D01*
X109476786Y-91261009D02*
X109524405Y-91213390D01*
X109524405Y-91213390D02*
X109619643Y-91165771D01*
X109619643Y-91165771D02*
X109857738Y-91165771D01*
X109857738Y-91165771D02*
X109952976Y-91213390D01*
X109952976Y-91213390D02*
X110000595Y-91261009D01*
X110000595Y-91261009D02*
X110048214Y-91356247D01*
X110048214Y-91356247D02*
X110048214Y-91594342D01*
X110048214Y-91594342D02*
X110000595Y-91689580D01*
X110000595Y-91689580D02*
X109952976Y-91737200D01*
X109952976Y-91737200D02*
X109857738Y-91784819D01*
X109857738Y-91784819D02*
X109619643Y-91784819D01*
X109619643Y-91784819D02*
X109524405Y-91737200D01*
X109524405Y-91737200D02*
X109476786Y-91689580D01*
X101308095Y-84864819D02*
X101308095Y-85674342D01*
X101308095Y-85674342D02*
X101355714Y-85769580D01*
X101355714Y-85769580D02*
X101403333Y-85817200D01*
X101403333Y-85817200D02*
X101498571Y-85864819D01*
X101498571Y-85864819D02*
X101689047Y-85864819D01*
X101689047Y-85864819D02*
X101784285Y-85817200D01*
X101784285Y-85817200D02*
X101831904Y-85769580D01*
X101831904Y-85769580D02*
X101879523Y-85674342D01*
X101879523Y-85674342D02*
X101879523Y-84864819D01*
X102260476Y-84864819D02*
X102879523Y-84864819D01*
X102879523Y-84864819D02*
X102546190Y-85245771D01*
X102546190Y-85245771D02*
X102689047Y-85245771D01*
X102689047Y-85245771D02*
X102784285Y-85293390D01*
X102784285Y-85293390D02*
X102831904Y-85341009D01*
X102831904Y-85341009D02*
X102879523Y-85436247D01*
X102879523Y-85436247D02*
X102879523Y-85674342D01*
X102879523Y-85674342D02*
X102831904Y-85769580D01*
X102831904Y-85769580D02*
X102784285Y-85817200D01*
X102784285Y-85817200D02*
X102689047Y-85864819D01*
X102689047Y-85864819D02*
X102403333Y-85864819D01*
X102403333Y-85864819D02*
X102308095Y-85817200D01*
X102308095Y-85817200D02*
X102260476Y-85769580D01*
X83833333Y-91359580D02*
X83785714Y-91407200D01*
X83785714Y-91407200D02*
X83642857Y-91454819D01*
X83642857Y-91454819D02*
X83547619Y-91454819D01*
X83547619Y-91454819D02*
X83404762Y-91407200D01*
X83404762Y-91407200D02*
X83309524Y-91311961D01*
X83309524Y-91311961D02*
X83261905Y-91216723D01*
X83261905Y-91216723D02*
X83214286Y-91026247D01*
X83214286Y-91026247D02*
X83214286Y-90883390D01*
X83214286Y-90883390D02*
X83261905Y-90692914D01*
X83261905Y-90692914D02*
X83309524Y-90597676D01*
X83309524Y-90597676D02*
X83404762Y-90502438D01*
X83404762Y-90502438D02*
X83547619Y-90454819D01*
X83547619Y-90454819D02*
X83642857Y-90454819D01*
X83642857Y-90454819D02*
X83785714Y-90502438D01*
X83785714Y-90502438D02*
X83833333Y-90550057D01*
X84785714Y-91454819D02*
X84214286Y-91454819D01*
X84500000Y-91454819D02*
X84500000Y-90454819D01*
X84500000Y-90454819D02*
X84404762Y-90597676D01*
X84404762Y-90597676D02*
X84309524Y-90692914D01*
X84309524Y-90692914D02*
X84214286Y-90740533D01*
X123166666Y-85254819D02*
X123166666Y-85969104D01*
X123166666Y-85969104D02*
X123119047Y-86111961D01*
X123119047Y-86111961D02*
X123023809Y-86207200D01*
X123023809Y-86207200D02*
X122880952Y-86254819D01*
X122880952Y-86254819D02*
X122785714Y-86254819D01*
X124166666Y-86254819D02*
X123595238Y-86254819D01*
X123880952Y-86254819D02*
X123880952Y-85254819D01*
X123880952Y-85254819D02*
X123785714Y-85397676D01*
X123785714Y-85397676D02*
X123690476Y-85492914D01*
X123690476Y-85492914D02*
X123595238Y-85540533D01*
X89473809Y-96228628D02*
X89473809Y-96704819D01*
X89140476Y-95704819D02*
X89473809Y-96228628D01*
X89473809Y-96228628D02*
X89807142Y-95704819D01*
X90092857Y-95800057D02*
X90140476Y-95752438D01*
X90140476Y-95752438D02*
X90235714Y-95704819D01*
X90235714Y-95704819D02*
X90473809Y-95704819D01*
X90473809Y-95704819D02*
X90569047Y-95752438D01*
X90569047Y-95752438D02*
X90616666Y-95800057D01*
X90616666Y-95800057D02*
X90664285Y-95895295D01*
X90664285Y-95895295D02*
X90664285Y-95990533D01*
X90664285Y-95990533D02*
X90616666Y-96133390D01*
X90616666Y-96133390D02*
X90045238Y-96704819D01*
X90045238Y-96704819D02*
X90664285Y-96704819D01*
X114254819Y-79566666D02*
X113778628Y-79899999D01*
X114254819Y-80138094D02*
X113254819Y-80138094D01*
X113254819Y-80138094D02*
X113254819Y-79757142D01*
X113254819Y-79757142D02*
X113302438Y-79661904D01*
X113302438Y-79661904D02*
X113350057Y-79614285D01*
X113350057Y-79614285D02*
X113445295Y-79566666D01*
X113445295Y-79566666D02*
X113588152Y-79566666D01*
X113588152Y-79566666D02*
X113683390Y-79614285D01*
X113683390Y-79614285D02*
X113731009Y-79661904D01*
X113731009Y-79661904D02*
X113778628Y-79757142D01*
X113778628Y-79757142D02*
X113778628Y-80138094D01*
X113350057Y-79185713D02*
X113302438Y-79138094D01*
X113302438Y-79138094D02*
X113254819Y-79042856D01*
X113254819Y-79042856D02*
X113254819Y-78804761D01*
X113254819Y-78804761D02*
X113302438Y-78709523D01*
X113302438Y-78709523D02*
X113350057Y-78661904D01*
X113350057Y-78661904D02*
X113445295Y-78614285D01*
X113445295Y-78614285D02*
X113540533Y-78614285D01*
X113540533Y-78614285D02*
X113683390Y-78661904D01*
X113683390Y-78661904D02*
X114254819Y-79233332D01*
X114254819Y-79233332D02*
X114254819Y-78614285D01*
X76166666Y-113654819D02*
X76166666Y-114369104D01*
X76166666Y-114369104D02*
X76119047Y-114511961D01*
X76119047Y-114511961D02*
X76023809Y-114607200D01*
X76023809Y-114607200D02*
X75880952Y-114654819D01*
X75880952Y-114654819D02*
X75785714Y-114654819D01*
X76547619Y-113654819D02*
X77166666Y-113654819D01*
X77166666Y-113654819D02*
X76833333Y-114035771D01*
X76833333Y-114035771D02*
X76976190Y-114035771D01*
X76976190Y-114035771D02*
X77071428Y-114083390D01*
X77071428Y-114083390D02*
X77119047Y-114131009D01*
X77119047Y-114131009D02*
X77166666Y-114226247D01*
X77166666Y-114226247D02*
X77166666Y-114464342D01*
X77166666Y-114464342D02*
X77119047Y-114559580D01*
X77119047Y-114559580D02*
X77071428Y-114607200D01*
X77071428Y-114607200D02*
X76976190Y-114654819D01*
X76976190Y-114654819D02*
X76690476Y-114654819D01*
X76690476Y-114654819D02*
X76595238Y-114607200D01*
X76595238Y-114607200D02*
X76547619Y-114559580D01*
X113261905Y-93154819D02*
X113261905Y-92154819D01*
X113261905Y-92154819D02*
X113500000Y-92154819D01*
X113500000Y-92154819D02*
X113642857Y-92202438D01*
X113642857Y-92202438D02*
X113738095Y-92297676D01*
X113738095Y-92297676D02*
X113785714Y-92392914D01*
X113785714Y-92392914D02*
X113833333Y-92583390D01*
X113833333Y-92583390D02*
X113833333Y-92726247D01*
X113833333Y-92726247D02*
X113785714Y-92916723D01*
X113785714Y-92916723D02*
X113738095Y-93011961D01*
X113738095Y-93011961D02*
X113642857Y-93107200D01*
X113642857Y-93107200D02*
X113500000Y-93154819D01*
X113500000Y-93154819D02*
X113261905Y-93154819D01*
X114738095Y-92154819D02*
X114261905Y-92154819D01*
X114261905Y-92154819D02*
X114214286Y-92631009D01*
X114214286Y-92631009D02*
X114261905Y-92583390D01*
X114261905Y-92583390D02*
X114357143Y-92535771D01*
X114357143Y-92535771D02*
X114595238Y-92535771D01*
X114595238Y-92535771D02*
X114690476Y-92583390D01*
X114690476Y-92583390D02*
X114738095Y-92631009D01*
X114738095Y-92631009D02*
X114785714Y-92726247D01*
X114785714Y-92726247D02*
X114785714Y-92964342D01*
X114785714Y-92964342D02*
X114738095Y-93059580D01*
X114738095Y-93059580D02*
X114690476Y-93107200D01*
X114690476Y-93107200D02*
X114595238Y-93154819D01*
X114595238Y-93154819D02*
X114357143Y-93154819D01*
X114357143Y-93154819D02*
X114261905Y-93107200D01*
X114261905Y-93107200D02*
X114214286Y-93059580D01*
X118261905Y-123354819D02*
X118261905Y-122354819D01*
X118261905Y-122354819D02*
X118500000Y-122354819D01*
X118500000Y-122354819D02*
X118642857Y-122402438D01*
X118642857Y-122402438D02*
X118738095Y-122497676D01*
X118738095Y-122497676D02*
X118785714Y-122592914D01*
X118785714Y-122592914D02*
X118833333Y-122783390D01*
X118833333Y-122783390D02*
X118833333Y-122926247D01*
X118833333Y-122926247D02*
X118785714Y-123116723D01*
X118785714Y-123116723D02*
X118738095Y-123211961D01*
X118738095Y-123211961D02*
X118642857Y-123307200D01*
X118642857Y-123307200D02*
X118500000Y-123354819D01*
X118500000Y-123354819D02*
X118261905Y-123354819D01*
X119214286Y-122450057D02*
X119261905Y-122402438D01*
X119261905Y-122402438D02*
X119357143Y-122354819D01*
X119357143Y-122354819D02*
X119595238Y-122354819D01*
X119595238Y-122354819D02*
X119690476Y-122402438D01*
X119690476Y-122402438D02*
X119738095Y-122450057D01*
X119738095Y-122450057D02*
X119785714Y-122545295D01*
X119785714Y-122545295D02*
X119785714Y-122640533D01*
X119785714Y-122640533D02*
X119738095Y-122783390D01*
X119738095Y-122783390D02*
X119166667Y-123354819D01*
X119166667Y-123354819D02*
X119785714Y-123354819D01*
X97833333Y-93154819D02*
X97500000Y-92678628D01*
X97261905Y-93154819D02*
X97261905Y-92154819D01*
X97261905Y-92154819D02*
X97642857Y-92154819D01*
X97642857Y-92154819D02*
X97738095Y-92202438D01*
X97738095Y-92202438D02*
X97785714Y-92250057D01*
X97785714Y-92250057D02*
X97833333Y-92345295D01*
X97833333Y-92345295D02*
X97833333Y-92488152D01*
X97833333Y-92488152D02*
X97785714Y-92583390D01*
X97785714Y-92583390D02*
X97738095Y-92631009D01*
X97738095Y-92631009D02*
X97642857Y-92678628D01*
X97642857Y-92678628D02*
X97261905Y-92678628D01*
X98690476Y-92154819D02*
X98500000Y-92154819D01*
X98500000Y-92154819D02*
X98404762Y-92202438D01*
X98404762Y-92202438D02*
X98357143Y-92250057D01*
X98357143Y-92250057D02*
X98261905Y-92392914D01*
X98261905Y-92392914D02*
X98214286Y-92583390D01*
X98214286Y-92583390D02*
X98214286Y-92964342D01*
X98214286Y-92964342D02*
X98261905Y-93059580D01*
X98261905Y-93059580D02*
X98309524Y-93107200D01*
X98309524Y-93107200D02*
X98404762Y-93154819D01*
X98404762Y-93154819D02*
X98595238Y-93154819D01*
X98595238Y-93154819D02*
X98690476Y-93107200D01*
X98690476Y-93107200D02*
X98738095Y-93059580D01*
X98738095Y-93059580D02*
X98785714Y-92964342D01*
X98785714Y-92964342D02*
X98785714Y-92726247D01*
X98785714Y-92726247D02*
X98738095Y-92631009D01*
X98738095Y-92631009D02*
X98690476Y-92583390D01*
X98690476Y-92583390D02*
X98595238Y-92535771D01*
X98595238Y-92535771D02*
X98404762Y-92535771D01*
X98404762Y-92535771D02*
X98309524Y-92583390D01*
X98309524Y-92583390D02*
X98261905Y-92631009D01*
X98261905Y-92631009D02*
X98214286Y-92726247D01*
X112833333Y-88854819D02*
X112500000Y-88378628D01*
X112261905Y-88854819D02*
X112261905Y-87854819D01*
X112261905Y-87854819D02*
X112642857Y-87854819D01*
X112642857Y-87854819D02*
X112738095Y-87902438D01*
X112738095Y-87902438D02*
X112785714Y-87950057D01*
X112785714Y-87950057D02*
X112833333Y-88045295D01*
X112833333Y-88045295D02*
X112833333Y-88188152D01*
X112833333Y-88188152D02*
X112785714Y-88283390D01*
X112785714Y-88283390D02*
X112738095Y-88331009D01*
X112738095Y-88331009D02*
X112642857Y-88378628D01*
X112642857Y-88378628D02*
X112261905Y-88378628D01*
X113785714Y-88854819D02*
X113214286Y-88854819D01*
X113500000Y-88854819D02*
X113500000Y-87854819D01*
X113500000Y-87854819D02*
X113404762Y-87997676D01*
X113404762Y-87997676D02*
X113309524Y-88092914D01*
X113309524Y-88092914D02*
X113214286Y-88140533D01*
X80261905Y-123854819D02*
X80261905Y-122854819D01*
X80261905Y-122854819D02*
X80500000Y-122854819D01*
X80500000Y-122854819D02*
X80642857Y-122902438D01*
X80642857Y-122902438D02*
X80738095Y-122997676D01*
X80738095Y-122997676D02*
X80785714Y-123092914D01*
X80785714Y-123092914D02*
X80833333Y-123283390D01*
X80833333Y-123283390D02*
X80833333Y-123426247D01*
X80833333Y-123426247D02*
X80785714Y-123616723D01*
X80785714Y-123616723D02*
X80738095Y-123711961D01*
X80738095Y-123711961D02*
X80642857Y-123807200D01*
X80642857Y-123807200D02*
X80500000Y-123854819D01*
X80500000Y-123854819D02*
X80261905Y-123854819D01*
X81166667Y-122854819D02*
X81785714Y-122854819D01*
X81785714Y-122854819D02*
X81452381Y-123235771D01*
X81452381Y-123235771D02*
X81595238Y-123235771D01*
X81595238Y-123235771D02*
X81690476Y-123283390D01*
X81690476Y-123283390D02*
X81738095Y-123331009D01*
X81738095Y-123331009D02*
X81785714Y-123426247D01*
X81785714Y-123426247D02*
X81785714Y-123664342D01*
X81785714Y-123664342D02*
X81738095Y-123759580D01*
X81738095Y-123759580D02*
X81690476Y-123807200D01*
X81690476Y-123807200D02*
X81595238Y-123854819D01*
X81595238Y-123854819D02*
X81309524Y-123854819D01*
X81309524Y-123854819D02*
X81214286Y-123807200D01*
X81214286Y-123807200D02*
X81166667Y-123759580D01*
X100633333Y-106654819D02*
X100300000Y-106178628D01*
X100061905Y-106654819D02*
X100061905Y-105654819D01*
X100061905Y-105654819D02*
X100442857Y-105654819D01*
X100442857Y-105654819D02*
X100538095Y-105702438D01*
X100538095Y-105702438D02*
X100585714Y-105750057D01*
X100585714Y-105750057D02*
X100633333Y-105845295D01*
X100633333Y-105845295D02*
X100633333Y-105988152D01*
X100633333Y-105988152D02*
X100585714Y-106083390D01*
X100585714Y-106083390D02*
X100538095Y-106131009D01*
X100538095Y-106131009D02*
X100442857Y-106178628D01*
X100442857Y-106178628D02*
X100061905Y-106178628D01*
X101204762Y-106083390D02*
X101109524Y-106035771D01*
X101109524Y-106035771D02*
X101061905Y-105988152D01*
X101061905Y-105988152D02*
X101014286Y-105892914D01*
X101014286Y-105892914D02*
X101014286Y-105845295D01*
X101014286Y-105845295D02*
X101061905Y-105750057D01*
X101061905Y-105750057D02*
X101109524Y-105702438D01*
X101109524Y-105702438D02*
X101204762Y-105654819D01*
X101204762Y-105654819D02*
X101395238Y-105654819D01*
X101395238Y-105654819D02*
X101490476Y-105702438D01*
X101490476Y-105702438D02*
X101538095Y-105750057D01*
X101538095Y-105750057D02*
X101585714Y-105845295D01*
X101585714Y-105845295D02*
X101585714Y-105892914D01*
X101585714Y-105892914D02*
X101538095Y-105988152D01*
X101538095Y-105988152D02*
X101490476Y-106035771D01*
X101490476Y-106035771D02*
X101395238Y-106083390D01*
X101395238Y-106083390D02*
X101204762Y-106083390D01*
X101204762Y-106083390D02*
X101109524Y-106131009D01*
X101109524Y-106131009D02*
X101061905Y-106178628D01*
X101061905Y-106178628D02*
X101014286Y-106273866D01*
X101014286Y-106273866D02*
X101014286Y-106464342D01*
X101014286Y-106464342D02*
X101061905Y-106559580D01*
X101061905Y-106559580D02*
X101109524Y-106607200D01*
X101109524Y-106607200D02*
X101204762Y-106654819D01*
X101204762Y-106654819D02*
X101395238Y-106654819D01*
X101395238Y-106654819D02*
X101490476Y-106607200D01*
X101490476Y-106607200D02*
X101538095Y-106559580D01*
X101538095Y-106559580D02*
X101585714Y-106464342D01*
X101585714Y-106464342D02*
X101585714Y-106273866D01*
X101585714Y-106273866D02*
X101538095Y-106178628D01*
X101538095Y-106178628D02*
X101490476Y-106131009D01*
X101490476Y-106131009D02*
X101395238Y-106083390D01*
X94033333Y-91154819D02*
X93700000Y-90678628D01*
X93461905Y-91154819D02*
X93461905Y-90154819D01*
X93461905Y-90154819D02*
X93842857Y-90154819D01*
X93842857Y-90154819D02*
X93938095Y-90202438D01*
X93938095Y-90202438D02*
X93985714Y-90250057D01*
X93985714Y-90250057D02*
X94033333Y-90345295D01*
X94033333Y-90345295D02*
X94033333Y-90488152D01*
X94033333Y-90488152D02*
X93985714Y-90583390D01*
X93985714Y-90583390D02*
X93938095Y-90631009D01*
X93938095Y-90631009D02*
X93842857Y-90678628D01*
X93842857Y-90678628D02*
X93461905Y-90678628D01*
X94890476Y-90488152D02*
X94890476Y-91154819D01*
X94652381Y-90107200D02*
X94414286Y-90821485D01*
X94414286Y-90821485D02*
X95033333Y-90821485D01*
X83833333Y-95659580D02*
X83785714Y-95707200D01*
X83785714Y-95707200D02*
X83642857Y-95754819D01*
X83642857Y-95754819D02*
X83547619Y-95754819D01*
X83547619Y-95754819D02*
X83404762Y-95707200D01*
X83404762Y-95707200D02*
X83309524Y-95611961D01*
X83309524Y-95611961D02*
X83261905Y-95516723D01*
X83261905Y-95516723D02*
X83214286Y-95326247D01*
X83214286Y-95326247D02*
X83214286Y-95183390D01*
X83214286Y-95183390D02*
X83261905Y-94992914D01*
X83261905Y-94992914D02*
X83309524Y-94897676D01*
X83309524Y-94897676D02*
X83404762Y-94802438D01*
X83404762Y-94802438D02*
X83547619Y-94754819D01*
X83547619Y-94754819D02*
X83642857Y-94754819D01*
X83642857Y-94754819D02*
X83785714Y-94802438D01*
X83785714Y-94802438D02*
X83833333Y-94850057D01*
X84214286Y-94850057D02*
X84261905Y-94802438D01*
X84261905Y-94802438D02*
X84357143Y-94754819D01*
X84357143Y-94754819D02*
X84595238Y-94754819D01*
X84595238Y-94754819D02*
X84690476Y-94802438D01*
X84690476Y-94802438D02*
X84738095Y-94850057D01*
X84738095Y-94850057D02*
X84785714Y-94945295D01*
X84785714Y-94945295D02*
X84785714Y-95040533D01*
X84785714Y-95040533D02*
X84738095Y-95183390D01*
X84738095Y-95183390D02*
X84166667Y-95754819D01*
X84166667Y-95754819D02*
X84785714Y-95754819D01*
X113733333Y-96954819D02*
X113400000Y-96478628D01*
X113161905Y-96954819D02*
X113161905Y-95954819D01*
X113161905Y-95954819D02*
X113542857Y-95954819D01*
X113542857Y-95954819D02*
X113638095Y-96002438D01*
X113638095Y-96002438D02*
X113685714Y-96050057D01*
X113685714Y-96050057D02*
X113733333Y-96145295D01*
X113733333Y-96145295D02*
X113733333Y-96288152D01*
X113733333Y-96288152D02*
X113685714Y-96383390D01*
X113685714Y-96383390D02*
X113638095Y-96431009D01*
X113638095Y-96431009D02*
X113542857Y-96478628D01*
X113542857Y-96478628D02*
X113161905Y-96478628D01*
X114066667Y-95954819D02*
X114685714Y-95954819D01*
X114685714Y-95954819D02*
X114352381Y-96335771D01*
X114352381Y-96335771D02*
X114495238Y-96335771D01*
X114495238Y-96335771D02*
X114590476Y-96383390D01*
X114590476Y-96383390D02*
X114638095Y-96431009D01*
X114638095Y-96431009D02*
X114685714Y-96526247D01*
X114685714Y-96526247D02*
X114685714Y-96764342D01*
X114685714Y-96764342D02*
X114638095Y-96859580D01*
X114638095Y-96859580D02*
X114590476Y-96907200D01*
X114590476Y-96907200D02*
X114495238Y-96954819D01*
X114495238Y-96954819D02*
X114209524Y-96954819D01*
X114209524Y-96954819D02*
X114114286Y-96907200D01*
X114114286Y-96907200D02*
X114066667Y-96859580D01*
D11*
X84650000Y-83750000D02*
X77350000Y-83750000D01*
X84650000Y-78250000D02*
X77350000Y-78250000D01*
X77350000Y-78250000D02*
X77350000Y-79400000D01*
X103240000Y-103915835D02*
X103240000Y-103684165D01*
X103960000Y-103915835D02*
X103960000Y-103684165D01*
X98440000Y-100000000D02*
X98440000Y-101675000D01*
X98440000Y-100000000D02*
X98440000Y-99350000D01*
X101560000Y-100000000D02*
X101560000Y-100650000D01*
X101560000Y-100000000D02*
X101560000Y-99350000D01*
X104077500Y-96654724D02*
X104077500Y-96145276D01*
X105122500Y-96654724D02*
X105122500Y-96145276D01*
X89840000Y-77830000D02*
X112760000Y-77830000D01*
X89840000Y-77830000D02*
X89840000Y-75170000D01*
X112760000Y-77830000D02*
X112760000Y-75170000D01*
X87240000Y-76500000D02*
X87240000Y-75170000D01*
X87240000Y-75170000D02*
X88570000Y-75170000D01*
X89840000Y-75170000D02*
X112760000Y-75170000D01*
X108170000Y-93570000D02*
X109500000Y-93570000D01*
X108170000Y-94900000D02*
X108170000Y-93570000D01*
X108170000Y-96170000D02*
X108170000Y-108930000D01*
X108170000Y-96170000D02*
X110830000Y-96170000D01*
X108170000Y-108930000D02*
X110830000Y-108930000D01*
X110830000Y-96170000D02*
X110830000Y-108930000D01*
X99120000Y-97550000D02*
X99120000Y-96900000D01*
X99120000Y-97550000D02*
X96280000Y-97550000D01*
X99120000Y-95250000D02*
X96280000Y-95250000D01*
X96822500Y-92945276D02*
X96822500Y-93454724D01*
X95777500Y-92945276D02*
X95777500Y-93454724D01*
X116250000Y-84650000D02*
X116250000Y-77350000D01*
X121750000Y-84650000D02*
X121750000Y-77350000D01*
X121750000Y-77350000D02*
X120600000Y-77350000D01*
X101777500Y-96654724D02*
X101777500Y-96145276D01*
X102822500Y-96654724D02*
X102822500Y-96145276D01*
X97250000Y-111000000D02*
X97250000Y-113000000D01*
X98250000Y-109700000D02*
X98700000Y-109250000D01*
X98250000Y-114300000D02*
X98700000Y-114750000D01*
X98700000Y-109250000D02*
X101300000Y-109250000D01*
X98700000Y-114750000D02*
X101300000Y-114750000D01*
X101750000Y-109700000D02*
X101300000Y-109250000D01*
X101750000Y-114300000D02*
X101300000Y-114750000D01*
X102750000Y-111000000D02*
X102750000Y-113000000D01*
X96090000Y-101346267D02*
X96090000Y-101053733D01*
X97110000Y-101346267D02*
X97110000Y-101053733D01*
X110160000Y-122170000D02*
X87240000Y-122170000D01*
X110160000Y-122170000D02*
X110160000Y-124830000D01*
X87240000Y-122170000D02*
X87240000Y-124830000D01*
X112760000Y-123500000D02*
X112760000Y-124830000D01*
X112760000Y-124830000D02*
X111430000Y-124830000D01*
X110160000Y-124830000D02*
X87240000Y-124830000D01*
X109408767Y-90410000D02*
X109116233Y-90410000D01*
X109408767Y-89390000D02*
X109116233Y-89390000D01*
X99460000Y-91840000D02*
X99460000Y-91365000D01*
X99935000Y-86620000D02*
X99460000Y-86620000D01*
X99935000Y-91840000D02*
X99460000Y-91840000D01*
X104205000Y-86620000D02*
X104680000Y-86620000D01*
X104205000Y-91840000D02*
X104680000Y-91840000D01*
X104680000Y-86620000D02*
X104680000Y-87095000D01*
X104680000Y-91840000D02*
X104680000Y-91365000D01*
X86160000Y-91016233D02*
X86160000Y-91308767D01*
X85140000Y-91016233D02*
X85140000Y-91308767D01*
X122170000Y-89840000D02*
X122170000Y-112760000D01*
X122170000Y-89840000D02*
X124830000Y-89840000D01*
X122170000Y-112760000D02*
X124830000Y-112760000D01*
X123500000Y-87240000D02*
X124830000Y-87240000D01*
X124830000Y-87240000D02*
X124830000Y-88570000D01*
X124830000Y-89840000D02*
X124830000Y-112760000D01*
X92650000Y-95450000D02*
X92650000Y-90950000D01*
X92650000Y-90950000D02*
X87250000Y-90950000D01*
X114577500Y-79654724D02*
X114577500Y-79145276D01*
X115622500Y-79654724D02*
X115622500Y-79145276D01*
X77830000Y-110160000D02*
X77830000Y-87240000D01*
X77830000Y-110160000D02*
X75170000Y-110160000D01*
X77830000Y-87240000D02*
X75170000Y-87240000D01*
X76500000Y-112760000D02*
X75170000Y-112760000D01*
X75170000Y-112760000D02*
X75170000Y-111430000D01*
X75170000Y-110160000D02*
X75170000Y-87240000D01*
X112835000Y-91040000D02*
X111365000Y-91040000D01*
X111365000Y-91040000D02*
X111365000Y-93500000D01*
X112835000Y-93500000D02*
X112835000Y-91040000D01*
X115350000Y-116250000D02*
X122650000Y-116250000D01*
X115350000Y-121750000D02*
X122650000Y-121750000D01*
X122650000Y-121750000D02*
X122650000Y-120600000D01*
X99254724Y-94622500D02*
X98745276Y-94622500D01*
X99254724Y-93577500D02*
X98745276Y-93577500D01*
X113254724Y-90422500D02*
X112745276Y-90422500D01*
X113254724Y-89377500D02*
X112745276Y-89377500D01*
X83750000Y-115350000D02*
X83750000Y-122650000D01*
X78250000Y-115350000D02*
X78250000Y-122650000D01*
X78250000Y-122650000D02*
X79400000Y-122650000D01*
X100377500Y-104054724D02*
X100377500Y-103545276D01*
X101422500Y-104054724D02*
X101422500Y-103545276D01*
X94077500Y-93454724D02*
X94077500Y-92945276D01*
X95122500Y-93454724D02*
X95122500Y-92945276D01*
X85140000Y-95446267D02*
X85140000Y-95153733D01*
X86160000Y-95446267D02*
X86160000Y-95153733D01*
X111577500Y-96742224D02*
X111577500Y-96232776D01*
X112622500Y-96742224D02*
X112622500Y-96232776D01*
%LPC*%
D12*
X78550000Y-79400000D03*
X78550000Y-82600000D03*
X83450000Y-82600000D03*
X83450000Y-79400000D03*
D13*
X103600000Y-104367500D03*
X103600000Y-103232500D03*
D14*
X99050000Y-100937500D03*
X100950000Y-100937500D03*
X100000000Y-99062500D03*
D15*
X104600000Y-97312500D03*
X104600000Y-95487500D03*
D16*
X88570000Y-76500000D03*
X91110000Y-76500000D03*
X93650000Y-76500000D03*
X96190000Y-76500000D03*
D17*
X98730000Y-76500000D03*
X101270000Y-76500000D03*
D16*
X103810000Y-76500000D03*
X106350000Y-76500000D03*
X108890000Y-76500000D03*
X111430000Y-76500000D03*
D18*
X109500000Y-94900000D03*
D19*
X109500000Y-97440000D03*
X109500000Y-99980000D03*
X109500000Y-102520000D03*
X109500000Y-105060000D03*
X109500000Y-107600000D03*
D20*
X98615000Y-96950000D03*
X98615000Y-95850000D03*
X96785000Y-95850000D03*
X96785000Y-96950000D03*
D21*
X96300000Y-92287500D03*
X96300000Y-94112500D03*
D22*
X120600000Y-78550000D03*
X117400000Y-78550000D03*
X117400000Y-83450000D03*
X120600000Y-83450000D03*
D15*
X102300000Y-97312500D03*
X102300000Y-95487500D03*
D23*
X97000000Y-110125000D03*
X103000000Y-110125000D03*
X97000000Y-113875000D03*
X103000000Y-113875000D03*
D24*
X96600000Y-102062500D03*
X96600000Y-100337500D03*
D16*
X111430000Y-123500000D03*
X108890000Y-123500000D03*
X106350000Y-123500000D03*
X103810000Y-123500000D03*
D17*
X101270000Y-123500000D03*
X98730000Y-123500000D03*
D16*
X96190000Y-123500000D03*
X93650000Y-123500000D03*
X91110000Y-123500000D03*
X88570000Y-123500000D03*
D25*
X110125000Y-89900000D03*
X108400000Y-89900000D03*
D26*
X99632500Y-87480000D03*
X99632500Y-87980000D03*
X99632500Y-88480000D03*
X99632500Y-88980000D03*
X99632500Y-89480000D03*
X99632500Y-89980000D03*
X99632500Y-90480000D03*
X99632500Y-90980000D03*
D27*
X100320000Y-91667500D03*
X100820000Y-91667500D03*
X101320000Y-91667500D03*
X101820000Y-91667500D03*
X102320000Y-91667500D03*
X102820000Y-91667500D03*
X103320000Y-91667500D03*
X103820000Y-91667500D03*
D26*
X104507500Y-90980000D03*
X104507500Y-90480000D03*
X104507500Y-89980000D03*
X104507500Y-89480000D03*
X104507500Y-88980000D03*
X104507500Y-88480000D03*
X104507500Y-87980000D03*
X104507500Y-87480000D03*
D27*
X103820000Y-86792500D03*
X103320000Y-86792500D03*
X102820000Y-86792500D03*
X102320000Y-86792500D03*
X101820000Y-86792500D03*
X101320000Y-86792500D03*
X100820000Y-86792500D03*
X100320000Y-86792500D03*
D28*
X102070000Y-89230000D03*
D29*
X85650000Y-90300000D03*
X85650000Y-92025000D03*
D16*
X123500000Y-88570000D03*
X123500000Y-91110000D03*
X123500000Y-93650000D03*
X123500000Y-96190000D03*
D17*
X123500000Y-98730000D03*
X123500000Y-101270000D03*
D16*
X123500000Y-103810000D03*
X123500000Y-106350000D03*
X123500000Y-108890000D03*
X123500000Y-111430000D03*
D30*
X91400000Y-92050000D03*
X88500000Y-92050000D03*
X88500000Y-94350000D03*
X91400000Y-94350000D03*
D15*
X115100000Y-80312500D03*
X115100000Y-78487500D03*
D16*
X76500000Y-111430000D03*
X76500000Y-108890000D03*
X76500000Y-106350000D03*
X76500000Y-103810000D03*
D17*
X76500000Y-101270000D03*
X76500000Y-98730000D03*
D16*
X76500000Y-96190000D03*
X76500000Y-93650000D03*
X76500000Y-91110000D03*
X76500000Y-88570000D03*
D31*
X112100000Y-91825000D03*
X112100000Y-93575000D03*
D12*
X121450000Y-120600000D03*
X121450000Y-117400000D03*
X116550000Y-117400000D03*
X116550000Y-120600000D03*
D32*
X99912500Y-94100000D03*
X98087500Y-94100000D03*
X113912500Y-89900000D03*
X112087500Y-89900000D03*
D22*
X79400000Y-121450000D03*
X82600000Y-121450000D03*
X82600000Y-116550000D03*
X79400000Y-116550000D03*
D15*
X100900000Y-104712500D03*
X100900000Y-102887500D03*
X94600000Y-94112500D03*
X94600000Y-92287500D03*
D24*
X85650000Y-96162500D03*
X85650000Y-94437500D03*
D15*
X112100000Y-97400000D03*
X112100000Y-95575000D03*
%LPD*%
M02*
