%TF.GenerationSoftware,KiCad,Pcbnew,7.0.2-6a45011f42~172~ubuntu22.04.1*%
%TF.CreationDate,2023-05-08T10:09:07-04:00*%
%TF.ProjectId,v2,76322e6b-6963-4616-945f-706362585858,rev?*%
%TF.SameCoordinates,Original*%
%TF.FileFunction,Drillmap*%
%TF.FilePolarity,Positive*%
%FSLAX45Y45*%
G04 Gerber Fmt 4.5, Leading zero omitted, Abs format (unit mm)*
G04 Created by KiCad (PCBNEW 7.0.2-6a45011f42~172~ubuntu22.04.1) date 2023-05-08 10:09:07*
%MOMM*%
%LPD*%
G01*
G04 APERTURE LIST*
%ADD10C,0.100000*%
%ADD11C,0.200000*%
G04 APERTURE END LIST*
D10*
X7750000Y-12500000D02*
X12250000Y-12500000D01*
X7500000Y-7750000D02*
X7500000Y-12250000D01*
X12250000Y-7500000D02*
X7750000Y-7500000D01*
X12500000Y-7750000D02*
X12500000Y-12250000D01*
X12250000Y-7750000D02*
X12500000Y-7750000D01*
X12250000Y-7500000D02*
X12250000Y-7750000D01*
X12250000Y-12250000D02*
X12250000Y-12500000D01*
X12500000Y-12250000D02*
X12250000Y-12250000D01*
X7750000Y-12250000D02*
X7750000Y-12500000D01*
X7500000Y-12250000D02*
X7750000Y-12250000D01*
X7750000Y-7750000D02*
X7750000Y-7500000D01*
X7500000Y-7750000D02*
X7750000Y-7750000D01*
D11*
X7742619Y-12817524D02*
X7742619Y-12617524D01*
X7742619Y-12617524D02*
X7790238Y-12617524D01*
X7790238Y-12617524D02*
X7818809Y-12627048D01*
X7818809Y-12627048D02*
X7837857Y-12646095D01*
X7837857Y-12646095D02*
X7847381Y-12665143D01*
X7847381Y-12665143D02*
X7856905Y-12703238D01*
X7856905Y-12703238D02*
X7856905Y-12731809D01*
X7856905Y-12731809D02*
X7847381Y-12769905D01*
X7847381Y-12769905D02*
X7837857Y-12788952D01*
X7837857Y-12788952D02*
X7818809Y-12808000D01*
X7818809Y-12808000D02*
X7790238Y-12817524D01*
X7790238Y-12817524D02*
X7742619Y-12817524D01*
X7942619Y-12817524D02*
X7942619Y-12684190D01*
X7942619Y-12722286D02*
X7952143Y-12703238D01*
X7952143Y-12703238D02*
X7961667Y-12693714D01*
X7961667Y-12693714D02*
X7980714Y-12684190D01*
X7980714Y-12684190D02*
X7999762Y-12684190D01*
X8066428Y-12817524D02*
X8066428Y-12684190D01*
X8066428Y-12617524D02*
X8056905Y-12627048D01*
X8056905Y-12627048D02*
X8066428Y-12636571D01*
X8066428Y-12636571D02*
X8075952Y-12627048D01*
X8075952Y-12627048D02*
X8066428Y-12617524D01*
X8066428Y-12617524D02*
X8066428Y-12636571D01*
X8190238Y-12817524D02*
X8171190Y-12808000D01*
X8171190Y-12808000D02*
X8161667Y-12788952D01*
X8161667Y-12788952D02*
X8161667Y-12617524D01*
X8295000Y-12817524D02*
X8275952Y-12808000D01*
X8275952Y-12808000D02*
X8266428Y-12788952D01*
X8266428Y-12788952D02*
X8266428Y-12617524D01*
X8523571Y-12817524D02*
X8523571Y-12617524D01*
X8523571Y-12617524D02*
X8590238Y-12760381D01*
X8590238Y-12760381D02*
X8656905Y-12617524D01*
X8656905Y-12617524D02*
X8656905Y-12817524D01*
X8837857Y-12817524D02*
X8837857Y-12712762D01*
X8837857Y-12712762D02*
X8828333Y-12693714D01*
X8828333Y-12693714D02*
X8809286Y-12684190D01*
X8809286Y-12684190D02*
X8771190Y-12684190D01*
X8771190Y-12684190D02*
X8752143Y-12693714D01*
X8837857Y-12808000D02*
X8818810Y-12817524D01*
X8818810Y-12817524D02*
X8771190Y-12817524D01*
X8771190Y-12817524D02*
X8752143Y-12808000D01*
X8752143Y-12808000D02*
X8742619Y-12788952D01*
X8742619Y-12788952D02*
X8742619Y-12769905D01*
X8742619Y-12769905D02*
X8752143Y-12750857D01*
X8752143Y-12750857D02*
X8771190Y-12741333D01*
X8771190Y-12741333D02*
X8818810Y-12741333D01*
X8818810Y-12741333D02*
X8837857Y-12731809D01*
X8933095Y-12684190D02*
X8933095Y-12884190D01*
X8933095Y-12693714D02*
X8952143Y-12684190D01*
X8952143Y-12684190D02*
X8990238Y-12684190D01*
X8990238Y-12684190D02*
X9009286Y-12693714D01*
X9009286Y-12693714D02*
X9018810Y-12703238D01*
X9018810Y-12703238D02*
X9028333Y-12722286D01*
X9028333Y-12722286D02*
X9028333Y-12779428D01*
X9028333Y-12779428D02*
X9018810Y-12798476D01*
X9018810Y-12798476D02*
X9009286Y-12808000D01*
X9009286Y-12808000D02*
X8990238Y-12817524D01*
X8990238Y-12817524D02*
X8952143Y-12817524D01*
X8952143Y-12817524D02*
X8933095Y-12808000D01*
X9114048Y-12798476D02*
X9123571Y-12808000D01*
X9123571Y-12808000D02*
X9114048Y-12817524D01*
X9114048Y-12817524D02*
X9104524Y-12808000D01*
X9104524Y-12808000D02*
X9114048Y-12798476D01*
X9114048Y-12798476D02*
X9114048Y-12817524D01*
X9114048Y-12693714D02*
X9123571Y-12703238D01*
X9123571Y-12703238D02*
X9114048Y-12712762D01*
X9114048Y-12712762D02*
X9104524Y-12703238D01*
X9104524Y-12703238D02*
X9114048Y-12693714D01*
X9114048Y-12693714D02*
X9114048Y-12712762D01*
M02*
