%TF.GenerationSoftware,KiCad,Pcbnew,7.0.5-4d25ed1034~172~ubuntu22.04.1*%
%TF.CreationDate,2023-06-02T18:33:23-04:00*%
%TF.ProjectId,v2,76322e6b-6963-4616-945f-706362585858,rev?*%
%TF.SameCoordinates,Original*%
%TF.FileFunction,Drillmap*%
%TF.FilePolarity,Positive*%
%FSLAX45Y45*%
G04 Gerber Fmt 4.5, Leading zero omitted, Abs format (unit mm)*
G04 Created by KiCad (PCBNEW 7.0.5-4d25ed1034~172~ubuntu22.04.1) date 2023-06-02 18:33:23*
%MOMM*%
%LPD*%
G01*
G04 APERTURE LIST*
%ADD10C,0.100000*%
%ADD11C,0.200000*%
%ADD12C,0.040000*%
%ADD13C,0.140000*%
G04 APERTURE END LIST*
D10*
X7750000Y-12250000D02*
X7750000Y-12500000D01*
X12250000Y-7750000D02*
X12500000Y-7750000D01*
X7500000Y-7750000D02*
X7500000Y-12250000D01*
X12250000Y-12250000D02*
X12250000Y-12500000D01*
X12500000Y-12250000D02*
X12250000Y-12250000D01*
X12500000Y-7750000D02*
X12500000Y-12250000D01*
X7500000Y-12250000D02*
X7750000Y-12250000D01*
X7500000Y-7750000D02*
X7750000Y-7750000D01*
X7750000Y-12500000D02*
X12250000Y-12500000D01*
X12250000Y-7500000D02*
X12250000Y-7750000D01*
X12250000Y-7500000D02*
X7750000Y-7500000D01*
X7750000Y-7750000D02*
X7750000Y-7500000D01*
D11*
D12*
X7950000Y-9980000D02*
X7990000Y-10020000D01*
X7990000Y-9980000D02*
X7950000Y-10020000D01*
X8080000Y-11880000D02*
X8120000Y-11920000D01*
X8120000Y-11880000D02*
X8080000Y-11920000D01*
X8090000Y-8090000D02*
X8130000Y-8130000D01*
X8130000Y-8090000D02*
X8090000Y-8130000D01*
X8430000Y-11710000D02*
X8470000Y-11750000D01*
X8470000Y-11710000D02*
X8430000Y-11750000D01*
X8640000Y-11510000D02*
X8680000Y-11550000D01*
X8680000Y-11510000D02*
X8640000Y-11550000D01*
X9280000Y-10280000D02*
X9320000Y-10320000D01*
X9320000Y-10280000D02*
X9280000Y-10320000D01*
X9520000Y-8900000D02*
X9560000Y-8940000D01*
X9560000Y-8900000D02*
X9520000Y-8940000D01*
X9540000Y-10350000D02*
X9580000Y-10390000D01*
X9580000Y-10350000D02*
X9540000Y-10390000D01*
X9630000Y-8902450D02*
X9670000Y-8942450D01*
X9670000Y-8902450D02*
X9630000Y-8942450D01*
X9720000Y-10350000D02*
X9760000Y-10390000D01*
X9760000Y-10350000D02*
X9720000Y-10390000D01*
X9792450Y-8930000D02*
X9832450Y-8970000D01*
X9832450Y-8930000D02*
X9792450Y-8970000D01*
X9940000Y-10430000D02*
X9980000Y-10470000D01*
X9980000Y-10430000D02*
X9940000Y-10470000D01*
X9970000Y-7920000D02*
X10010000Y-7960000D01*
X10010000Y-7920000D02*
X9970000Y-7960000D01*
X9980000Y-12010000D02*
X10020000Y-12050000D01*
X10020000Y-12010000D02*
X9980000Y-12050000D01*
X10200000Y-10270000D02*
X10240000Y-10310000D01*
X10240000Y-10270000D02*
X10200000Y-10310000D01*
X10270000Y-9370000D02*
X10310000Y-9410000D01*
X10310000Y-9370000D02*
X10270000Y-9410000D01*
X10330000Y-8260000D02*
X10370000Y-8300000D01*
X10370000Y-8260000D02*
X10330000Y-8300000D01*
X10330000Y-8370000D02*
X10370000Y-8410000D01*
X10370000Y-8370000D02*
X10330000Y-8410000D01*
X10330000Y-8480000D02*
X10370000Y-8520000D01*
X10370000Y-8480000D02*
X10330000Y-8520000D01*
X10360000Y-10180000D02*
X10400000Y-10220000D01*
X10400000Y-10180000D02*
X10360000Y-10220000D01*
X10410000Y-9910000D02*
X10450000Y-9950000D01*
X10450000Y-9910000D02*
X10410000Y-9950000D01*
X10620000Y-8170000D02*
X10660000Y-8210000D01*
X10660000Y-8170000D02*
X10620000Y-8210000D01*
X10720000Y-8670000D02*
X10760000Y-8710000D01*
X10760000Y-8670000D02*
X10720000Y-8710000D01*
X10780000Y-8780000D02*
X10820000Y-8820000D01*
X10820000Y-8780000D02*
X10780000Y-8820000D01*
X11480000Y-11320000D02*
X11520000Y-11360000D01*
X11520000Y-11320000D02*
X11480000Y-11360000D01*
X11490000Y-8150000D02*
X11530000Y-8190000D01*
X11530000Y-8150000D02*
X11490000Y-8190000D01*
X11710000Y-11550000D02*
X11750000Y-11590000D01*
X11750000Y-11550000D02*
X11710000Y-11590000D01*
X11880000Y-8070000D02*
X11920000Y-8110000D01*
X11920000Y-8070000D02*
X11880000Y-8110000D01*
X11890000Y-11880000D02*
X11930000Y-11920000D01*
X11930000Y-11880000D02*
X11890000Y-11920000D01*
X12030000Y-9980000D02*
X12070000Y-10020000D01*
X12070000Y-9980000D02*
X12030000Y-10020000D01*
D10*
X11000000Y-9490000D02*
G75*
G03*
X11000000Y-9490000I-50000J0D01*
G01*
X11000000Y-9744000D02*
G75*
G03*
X11000000Y-9744000I-50000J0D01*
G01*
X11000000Y-9998000D02*
G75*
G03*
X11000000Y-9998000I-50000J0D01*
G01*
X11000000Y-10252000D02*
G75*
G03*
X11000000Y-10252000I-50000J0D01*
G01*
X11000000Y-10506000D02*
G75*
G03*
X11000000Y-10506000I-50000J0D01*
G01*
X11000000Y-10760000D02*
G75*
G03*
X11000000Y-10760000I-50000J0D01*
G01*
D13*
X7650000Y-8787000D02*
X7650000Y-8927000D01*
X7580000Y-8857000D02*
X7720000Y-8857000D01*
X7650000Y-9041000D02*
X7650000Y-9181000D01*
X7580000Y-9111000D02*
X7720000Y-9111000D01*
X7650000Y-9295000D02*
X7650000Y-9435000D01*
X7580000Y-9365000D02*
X7720000Y-9365000D01*
X7650000Y-9549000D02*
X7650000Y-9689000D01*
X7580000Y-9619000D02*
X7720000Y-9619000D01*
X7650000Y-9803000D02*
X7650000Y-9943000D01*
X7580000Y-9873000D02*
X7720000Y-9873000D01*
X7650000Y-10057000D02*
X7650000Y-10197000D01*
X7580000Y-10127000D02*
X7720000Y-10127000D01*
X7650000Y-10311000D02*
X7650000Y-10451000D01*
X7580000Y-10381000D02*
X7720000Y-10381000D01*
X7650000Y-10565000D02*
X7650000Y-10705000D01*
X7580000Y-10635000D02*
X7720000Y-10635000D01*
X7650000Y-10819000D02*
X7650000Y-10959000D01*
X7580000Y-10889000D02*
X7720000Y-10889000D01*
X7650000Y-11073000D02*
X7650000Y-11213000D01*
X7580000Y-11143000D02*
X7720000Y-11143000D01*
X8857000Y-7580000D02*
X8857000Y-7720000D01*
X8787000Y-7650000D02*
X8927000Y-7650000D01*
X8857000Y-12280000D02*
X8857000Y-12420000D01*
X8787000Y-12350000D02*
X8927000Y-12350000D01*
X9111000Y-7580000D02*
X9111000Y-7720000D01*
X9041000Y-7650000D02*
X9181000Y-7650000D01*
X9111000Y-12280000D02*
X9111000Y-12420000D01*
X9041000Y-12350000D02*
X9181000Y-12350000D01*
X9365000Y-7580000D02*
X9365000Y-7720000D01*
X9295000Y-7650000D02*
X9435000Y-7650000D01*
X9365000Y-12280000D02*
X9365000Y-12420000D01*
X9295000Y-12350000D02*
X9435000Y-12350000D01*
X9619000Y-7580000D02*
X9619000Y-7720000D01*
X9549000Y-7650000D02*
X9689000Y-7650000D01*
X9619000Y-12280000D02*
X9619000Y-12420000D01*
X9549000Y-12350000D02*
X9689000Y-12350000D01*
X9873000Y-7580000D02*
X9873000Y-7720000D01*
X9803000Y-7650000D02*
X9943000Y-7650000D01*
X9873000Y-12280000D02*
X9873000Y-12420000D01*
X9803000Y-12350000D02*
X9943000Y-12350000D01*
X10127000Y-7580000D02*
X10127000Y-7720000D01*
X10057000Y-7650000D02*
X10197000Y-7650000D01*
X10127000Y-12280000D02*
X10127000Y-12420000D01*
X10057000Y-12350000D02*
X10197000Y-12350000D01*
X10381000Y-7580000D02*
X10381000Y-7720000D01*
X10311000Y-7650000D02*
X10451000Y-7650000D01*
X10381000Y-12280000D02*
X10381000Y-12420000D01*
X10311000Y-12350000D02*
X10451000Y-12350000D01*
X10635000Y-7580000D02*
X10635000Y-7720000D01*
X10565000Y-7650000D02*
X10705000Y-7650000D01*
X10635000Y-12280000D02*
X10635000Y-12420000D01*
X10565000Y-12350000D02*
X10705000Y-12350000D01*
X10889000Y-7580000D02*
X10889000Y-7720000D01*
X10819000Y-7650000D02*
X10959000Y-7650000D01*
X10889000Y-12280000D02*
X10889000Y-12420000D01*
X10819000Y-12350000D02*
X10959000Y-12350000D01*
X11143000Y-7580000D02*
X11143000Y-7720000D01*
X11073000Y-7650000D02*
X11213000Y-7650000D01*
X11143000Y-12280000D02*
X11143000Y-12420000D01*
X11073000Y-12350000D02*
X11213000Y-12350000D01*
X12350000Y-8787000D02*
X12350000Y-8927000D01*
X12280000Y-8857000D02*
X12420000Y-8857000D01*
X12350000Y-9041000D02*
X12350000Y-9181000D01*
X12280000Y-9111000D02*
X12420000Y-9111000D01*
X12350000Y-9295000D02*
X12350000Y-9435000D01*
X12280000Y-9365000D02*
X12420000Y-9365000D01*
X12350000Y-9549000D02*
X12350000Y-9689000D01*
X12280000Y-9619000D02*
X12420000Y-9619000D01*
X12350000Y-9803000D02*
X12350000Y-9943000D01*
X12280000Y-9873000D02*
X12420000Y-9873000D01*
X12350000Y-10057000D02*
X12350000Y-10197000D01*
X12280000Y-10127000D02*
X12420000Y-10127000D01*
X12350000Y-10311000D02*
X12350000Y-10451000D01*
X12280000Y-10381000D02*
X12420000Y-10381000D01*
X12350000Y-10565000D02*
X12350000Y-10705000D01*
X12280000Y-10635000D02*
X12420000Y-10635000D01*
X12350000Y-10819000D02*
X12350000Y-10959000D01*
X12280000Y-10889000D02*
X12420000Y-10889000D01*
X12350000Y-11073000D02*
X12350000Y-11213000D01*
X12280000Y-11143000D02*
X12420000Y-11143000D01*
D11*
X7755777Y-12816484D02*
X7755777Y-12616484D01*
X7755777Y-12616484D02*
X7803396Y-12616484D01*
X7803396Y-12616484D02*
X7831967Y-12626008D01*
X7831967Y-12626008D02*
X7851015Y-12645055D01*
X7851015Y-12645055D02*
X7860539Y-12664103D01*
X7860539Y-12664103D02*
X7870062Y-12702198D01*
X7870062Y-12702198D02*
X7870062Y-12730769D01*
X7870062Y-12730769D02*
X7860539Y-12768865D01*
X7860539Y-12768865D02*
X7851015Y-12787912D01*
X7851015Y-12787912D02*
X7831967Y-12806960D01*
X7831967Y-12806960D02*
X7803396Y-12816484D01*
X7803396Y-12816484D02*
X7755777Y-12816484D01*
X7955777Y-12816484D02*
X7955777Y-12683150D01*
X7955777Y-12721246D02*
X7965301Y-12702198D01*
X7965301Y-12702198D02*
X7974824Y-12692674D01*
X7974824Y-12692674D02*
X7993872Y-12683150D01*
X7993872Y-12683150D02*
X8012920Y-12683150D01*
X8079586Y-12816484D02*
X8079586Y-12683150D01*
X8079586Y-12616484D02*
X8070062Y-12626008D01*
X8070062Y-12626008D02*
X8079586Y-12635531D01*
X8079586Y-12635531D02*
X8089110Y-12626008D01*
X8089110Y-12626008D02*
X8079586Y-12616484D01*
X8079586Y-12616484D02*
X8079586Y-12635531D01*
X8203396Y-12816484D02*
X8184348Y-12806960D01*
X8184348Y-12806960D02*
X8174824Y-12787912D01*
X8174824Y-12787912D02*
X8174824Y-12616484D01*
X8308158Y-12816484D02*
X8289110Y-12806960D01*
X8289110Y-12806960D02*
X8279586Y-12787912D01*
X8279586Y-12787912D02*
X8279586Y-12616484D01*
X8536729Y-12816484D02*
X8536729Y-12616484D01*
X8536729Y-12616484D02*
X8603396Y-12759341D01*
X8603396Y-12759341D02*
X8670063Y-12616484D01*
X8670063Y-12616484D02*
X8670063Y-12816484D01*
X8851015Y-12816484D02*
X8851015Y-12711722D01*
X8851015Y-12711722D02*
X8841491Y-12692674D01*
X8841491Y-12692674D02*
X8822444Y-12683150D01*
X8822444Y-12683150D02*
X8784348Y-12683150D01*
X8784348Y-12683150D02*
X8765301Y-12692674D01*
X8851015Y-12806960D02*
X8831967Y-12816484D01*
X8831967Y-12816484D02*
X8784348Y-12816484D01*
X8784348Y-12816484D02*
X8765301Y-12806960D01*
X8765301Y-12806960D02*
X8755777Y-12787912D01*
X8755777Y-12787912D02*
X8755777Y-12768865D01*
X8755777Y-12768865D02*
X8765301Y-12749817D01*
X8765301Y-12749817D02*
X8784348Y-12740293D01*
X8784348Y-12740293D02*
X8831967Y-12740293D01*
X8831967Y-12740293D02*
X8851015Y-12730769D01*
X8946253Y-12683150D02*
X8946253Y-12883150D01*
X8946253Y-12692674D02*
X8965301Y-12683150D01*
X8965301Y-12683150D02*
X9003396Y-12683150D01*
X9003396Y-12683150D02*
X9022444Y-12692674D01*
X9022444Y-12692674D02*
X9031967Y-12702198D01*
X9031967Y-12702198D02*
X9041491Y-12721246D01*
X9041491Y-12721246D02*
X9041491Y-12778388D01*
X9041491Y-12778388D02*
X9031967Y-12797436D01*
X9031967Y-12797436D02*
X9022444Y-12806960D01*
X9022444Y-12806960D02*
X9003396Y-12816484D01*
X9003396Y-12816484D02*
X8965301Y-12816484D01*
X8965301Y-12816484D02*
X8946253Y-12806960D01*
X9127205Y-12797436D02*
X9136729Y-12806960D01*
X9136729Y-12806960D02*
X9127205Y-12816484D01*
X9127205Y-12816484D02*
X9117682Y-12806960D01*
X9117682Y-12806960D02*
X9127205Y-12797436D01*
X9127205Y-12797436D02*
X9127205Y-12816484D01*
X9127205Y-12692674D02*
X9136729Y-12702198D01*
X9136729Y-12702198D02*
X9127205Y-12711722D01*
X9127205Y-12711722D02*
X9117682Y-12702198D01*
X9117682Y-12702198D02*
X9127205Y-12692674D01*
X9127205Y-12692674D02*
X9127205Y-12711722D01*
D12*
X7455000Y-13125000D02*
X7495000Y-13165000D01*
X7495000Y-13125000D02*
X7455000Y-13165000D01*
D11*
X7793872Y-13036484D02*
X7812920Y-13036484D01*
X7812920Y-13036484D02*
X7831967Y-13046008D01*
X7831967Y-13046008D02*
X7841491Y-13055531D01*
X7841491Y-13055531D02*
X7851015Y-13074579D01*
X7851015Y-13074579D02*
X7860539Y-13112674D01*
X7860539Y-13112674D02*
X7860539Y-13160293D01*
X7860539Y-13160293D02*
X7851015Y-13198388D01*
X7851015Y-13198388D02*
X7841491Y-13217436D01*
X7841491Y-13217436D02*
X7831967Y-13226960D01*
X7831967Y-13226960D02*
X7812920Y-13236484D01*
X7812920Y-13236484D02*
X7793872Y-13236484D01*
X7793872Y-13236484D02*
X7774824Y-13226960D01*
X7774824Y-13226960D02*
X7765301Y-13217436D01*
X7765301Y-13217436D02*
X7755777Y-13198388D01*
X7755777Y-13198388D02*
X7746253Y-13160293D01*
X7746253Y-13160293D02*
X7746253Y-13112674D01*
X7746253Y-13112674D02*
X7755777Y-13074579D01*
X7755777Y-13074579D02*
X7765301Y-13055531D01*
X7765301Y-13055531D02*
X7774824Y-13046008D01*
X7774824Y-13046008D02*
X7793872Y-13036484D01*
X7946253Y-13217436D02*
X7955777Y-13226960D01*
X7955777Y-13226960D02*
X7946253Y-13236484D01*
X7946253Y-13236484D02*
X7936729Y-13226960D01*
X7936729Y-13226960D02*
X7946253Y-13217436D01*
X7946253Y-13217436D02*
X7946253Y-13236484D01*
X8127205Y-13103150D02*
X8127205Y-13236484D01*
X8079586Y-13026960D02*
X8031967Y-13169817D01*
X8031967Y-13169817D02*
X8155777Y-13169817D01*
X8270062Y-13036484D02*
X8289110Y-13036484D01*
X8289110Y-13036484D02*
X8308158Y-13046008D01*
X8308158Y-13046008D02*
X8317682Y-13055531D01*
X8317682Y-13055531D02*
X8327205Y-13074579D01*
X8327205Y-13074579D02*
X8336729Y-13112674D01*
X8336729Y-13112674D02*
X8336729Y-13160293D01*
X8336729Y-13160293D02*
X8327205Y-13198388D01*
X8327205Y-13198388D02*
X8317682Y-13217436D01*
X8317682Y-13217436D02*
X8308158Y-13226960D01*
X8308158Y-13226960D02*
X8289110Y-13236484D01*
X8289110Y-13236484D02*
X8270062Y-13236484D01*
X8270062Y-13236484D02*
X8251015Y-13226960D01*
X8251015Y-13226960D02*
X8241491Y-13217436D01*
X8241491Y-13217436D02*
X8231967Y-13198388D01*
X8231967Y-13198388D02*
X8222443Y-13160293D01*
X8222443Y-13160293D02*
X8222443Y-13112674D01*
X8222443Y-13112674D02*
X8231967Y-13074579D01*
X8231967Y-13074579D02*
X8241491Y-13055531D01*
X8241491Y-13055531D02*
X8251015Y-13046008D01*
X8251015Y-13046008D02*
X8270062Y-13036484D01*
X8460539Y-13036484D02*
X8479586Y-13036484D01*
X8479586Y-13036484D02*
X8498634Y-13046008D01*
X8498634Y-13046008D02*
X8508158Y-13055531D01*
X8508158Y-13055531D02*
X8517682Y-13074579D01*
X8517682Y-13074579D02*
X8527205Y-13112674D01*
X8527205Y-13112674D02*
X8527205Y-13160293D01*
X8527205Y-13160293D02*
X8517682Y-13198388D01*
X8517682Y-13198388D02*
X8508158Y-13217436D01*
X8508158Y-13217436D02*
X8498634Y-13226960D01*
X8498634Y-13226960D02*
X8479586Y-13236484D01*
X8479586Y-13236484D02*
X8460539Y-13236484D01*
X8460539Y-13236484D02*
X8441491Y-13226960D01*
X8441491Y-13226960D02*
X8431967Y-13217436D01*
X8431967Y-13217436D02*
X8422444Y-13198388D01*
X8422444Y-13198388D02*
X8412920Y-13160293D01*
X8412920Y-13160293D02*
X8412920Y-13112674D01*
X8412920Y-13112674D02*
X8422444Y-13074579D01*
X8422444Y-13074579D02*
X8431967Y-13055531D01*
X8431967Y-13055531D02*
X8441491Y-13046008D01*
X8441491Y-13046008D02*
X8460539Y-13036484D01*
X8612920Y-13236484D02*
X8612920Y-13103150D01*
X8612920Y-13122198D02*
X8622444Y-13112674D01*
X8622444Y-13112674D02*
X8641491Y-13103150D01*
X8641491Y-13103150D02*
X8670063Y-13103150D01*
X8670063Y-13103150D02*
X8689110Y-13112674D01*
X8689110Y-13112674D02*
X8698634Y-13131722D01*
X8698634Y-13131722D02*
X8698634Y-13236484D01*
X8698634Y-13131722D02*
X8708158Y-13112674D01*
X8708158Y-13112674D02*
X8727205Y-13103150D01*
X8727205Y-13103150D02*
X8755777Y-13103150D01*
X8755777Y-13103150D02*
X8774825Y-13112674D01*
X8774825Y-13112674D02*
X8784348Y-13131722D01*
X8784348Y-13131722D02*
X8784348Y-13236484D01*
X8879586Y-13236484D02*
X8879586Y-13103150D01*
X8879586Y-13122198D02*
X8889110Y-13112674D01*
X8889110Y-13112674D02*
X8908158Y-13103150D01*
X8908158Y-13103150D02*
X8936729Y-13103150D01*
X8936729Y-13103150D02*
X8955777Y-13112674D01*
X8955777Y-13112674D02*
X8965301Y-13131722D01*
X8965301Y-13131722D02*
X8965301Y-13236484D01*
X8965301Y-13131722D02*
X8974825Y-13112674D01*
X8974825Y-13112674D02*
X8993872Y-13103150D01*
X8993872Y-13103150D02*
X9022444Y-13103150D01*
X9022444Y-13103150D02*
X9041491Y-13112674D01*
X9041491Y-13112674D02*
X9051015Y-13131722D01*
X9051015Y-13131722D02*
X9051015Y-13236484D01*
X9441491Y-13026960D02*
X9270063Y-13284103D01*
X9698634Y-13036484D02*
X9717682Y-13036484D01*
X9717682Y-13036484D02*
X9736729Y-13046008D01*
X9736729Y-13046008D02*
X9746253Y-13055531D01*
X9746253Y-13055531D02*
X9755777Y-13074579D01*
X9755777Y-13074579D02*
X9765301Y-13112674D01*
X9765301Y-13112674D02*
X9765301Y-13160293D01*
X9765301Y-13160293D02*
X9755777Y-13198388D01*
X9755777Y-13198388D02*
X9746253Y-13217436D01*
X9746253Y-13217436D02*
X9736729Y-13226960D01*
X9736729Y-13226960D02*
X9717682Y-13236484D01*
X9717682Y-13236484D02*
X9698634Y-13236484D01*
X9698634Y-13236484D02*
X9679587Y-13226960D01*
X9679587Y-13226960D02*
X9670063Y-13217436D01*
X9670063Y-13217436D02*
X9660539Y-13198388D01*
X9660539Y-13198388D02*
X9651015Y-13160293D01*
X9651015Y-13160293D02*
X9651015Y-13112674D01*
X9651015Y-13112674D02*
X9660539Y-13074579D01*
X9660539Y-13074579D02*
X9670063Y-13055531D01*
X9670063Y-13055531D02*
X9679587Y-13046008D01*
X9679587Y-13046008D02*
X9698634Y-13036484D01*
X9851015Y-13217436D02*
X9860539Y-13226960D01*
X9860539Y-13226960D02*
X9851015Y-13236484D01*
X9851015Y-13236484D02*
X9841491Y-13226960D01*
X9841491Y-13226960D02*
X9851015Y-13217436D01*
X9851015Y-13217436D02*
X9851015Y-13236484D01*
X9984348Y-13036484D02*
X10003396Y-13036484D01*
X10003396Y-13036484D02*
X10022444Y-13046008D01*
X10022444Y-13046008D02*
X10031968Y-13055531D01*
X10031968Y-13055531D02*
X10041491Y-13074579D01*
X10041491Y-13074579D02*
X10051015Y-13112674D01*
X10051015Y-13112674D02*
X10051015Y-13160293D01*
X10051015Y-13160293D02*
X10041491Y-13198388D01*
X10041491Y-13198388D02*
X10031968Y-13217436D01*
X10031968Y-13217436D02*
X10022444Y-13226960D01*
X10022444Y-13226960D02*
X10003396Y-13236484D01*
X10003396Y-13236484D02*
X9984348Y-13236484D01*
X9984348Y-13236484D02*
X9965301Y-13226960D01*
X9965301Y-13226960D02*
X9955777Y-13217436D01*
X9955777Y-13217436D02*
X9946253Y-13198388D01*
X9946253Y-13198388D02*
X9936729Y-13160293D01*
X9936729Y-13160293D02*
X9936729Y-13112674D01*
X9936729Y-13112674D02*
X9946253Y-13074579D01*
X9946253Y-13074579D02*
X9955777Y-13055531D01*
X9955777Y-13055531D02*
X9965301Y-13046008D01*
X9965301Y-13046008D02*
X9984348Y-13036484D01*
X10241491Y-13236484D02*
X10127206Y-13236484D01*
X10184348Y-13236484D02*
X10184348Y-13036484D01*
X10184348Y-13036484D02*
X10165301Y-13065055D01*
X10165301Y-13065055D02*
X10146253Y-13084103D01*
X10146253Y-13084103D02*
X10127206Y-13093627D01*
X10422444Y-13036484D02*
X10327206Y-13036484D01*
X10327206Y-13036484D02*
X10317682Y-13131722D01*
X10317682Y-13131722D02*
X10327206Y-13122198D01*
X10327206Y-13122198D02*
X10346253Y-13112674D01*
X10346253Y-13112674D02*
X10393872Y-13112674D01*
X10393872Y-13112674D02*
X10412920Y-13122198D01*
X10412920Y-13122198D02*
X10422444Y-13131722D01*
X10422444Y-13131722D02*
X10431968Y-13150769D01*
X10431968Y-13150769D02*
X10431968Y-13198388D01*
X10431968Y-13198388D02*
X10422444Y-13217436D01*
X10422444Y-13217436D02*
X10412920Y-13226960D01*
X10412920Y-13226960D02*
X10393872Y-13236484D01*
X10393872Y-13236484D02*
X10346253Y-13236484D01*
X10346253Y-13236484D02*
X10327206Y-13226960D01*
X10327206Y-13226960D02*
X10317682Y-13217436D01*
X10498634Y-13036484D02*
X10631968Y-13036484D01*
X10631968Y-13036484D02*
X10546253Y-13236484D01*
X10698634Y-13036484D02*
X10698634Y-13074579D01*
X10774825Y-13036484D02*
X10774825Y-13074579D01*
X11070063Y-13312674D02*
X11060539Y-13303150D01*
X11060539Y-13303150D02*
X11041491Y-13274579D01*
X11041491Y-13274579D02*
X11031968Y-13255531D01*
X11031968Y-13255531D02*
X11022444Y-13226960D01*
X11022444Y-13226960D02*
X11012920Y-13179341D01*
X11012920Y-13179341D02*
X11012920Y-13141246D01*
X11012920Y-13141246D02*
X11022444Y-13093627D01*
X11022444Y-13093627D02*
X11031968Y-13065055D01*
X11031968Y-13065055D02*
X11041491Y-13046008D01*
X11041491Y-13046008D02*
X11060539Y-13017436D01*
X11060539Y-13017436D02*
X11070063Y-13007912D01*
X11127206Y-13036484D02*
X11251015Y-13036484D01*
X11251015Y-13036484D02*
X11184349Y-13112674D01*
X11184349Y-13112674D02*
X11212920Y-13112674D01*
X11212920Y-13112674D02*
X11231968Y-13122198D01*
X11231968Y-13122198D02*
X11241491Y-13131722D01*
X11241491Y-13131722D02*
X11251015Y-13150769D01*
X11251015Y-13150769D02*
X11251015Y-13198388D01*
X11251015Y-13198388D02*
X11241491Y-13217436D01*
X11241491Y-13217436D02*
X11231968Y-13226960D01*
X11231968Y-13226960D02*
X11212920Y-13236484D01*
X11212920Y-13236484D02*
X11155777Y-13236484D01*
X11155777Y-13236484D02*
X11136730Y-13226960D01*
X11136730Y-13226960D02*
X11127206Y-13217436D01*
X11374825Y-13036484D02*
X11393872Y-13036484D01*
X11393872Y-13036484D02*
X11412920Y-13046008D01*
X11412920Y-13046008D02*
X11422444Y-13055531D01*
X11422444Y-13055531D02*
X11431968Y-13074579D01*
X11431968Y-13074579D02*
X11441491Y-13112674D01*
X11441491Y-13112674D02*
X11441491Y-13160293D01*
X11441491Y-13160293D02*
X11431968Y-13198388D01*
X11431968Y-13198388D02*
X11422444Y-13217436D01*
X11422444Y-13217436D02*
X11412920Y-13226960D01*
X11412920Y-13226960D02*
X11393872Y-13236484D01*
X11393872Y-13236484D02*
X11374825Y-13236484D01*
X11374825Y-13236484D02*
X11355777Y-13226960D01*
X11355777Y-13226960D02*
X11346253Y-13217436D01*
X11346253Y-13217436D02*
X11336729Y-13198388D01*
X11336729Y-13198388D02*
X11327206Y-13160293D01*
X11327206Y-13160293D02*
X11327206Y-13112674D01*
X11327206Y-13112674D02*
X11336729Y-13074579D01*
X11336729Y-13074579D02*
X11346253Y-13055531D01*
X11346253Y-13055531D02*
X11355777Y-13046008D01*
X11355777Y-13046008D02*
X11374825Y-13036484D01*
X11679587Y-13236484D02*
X11679587Y-13036484D01*
X11765301Y-13236484D02*
X11765301Y-13131722D01*
X11765301Y-13131722D02*
X11755777Y-13112674D01*
X11755777Y-13112674D02*
X11736730Y-13103150D01*
X11736730Y-13103150D02*
X11708158Y-13103150D01*
X11708158Y-13103150D02*
X11689110Y-13112674D01*
X11689110Y-13112674D02*
X11679587Y-13122198D01*
X11889110Y-13236484D02*
X11870063Y-13226960D01*
X11870063Y-13226960D02*
X11860539Y-13217436D01*
X11860539Y-13217436D02*
X11851015Y-13198388D01*
X11851015Y-13198388D02*
X11851015Y-13141246D01*
X11851015Y-13141246D02*
X11860539Y-13122198D01*
X11860539Y-13122198D02*
X11870063Y-13112674D01*
X11870063Y-13112674D02*
X11889110Y-13103150D01*
X11889110Y-13103150D02*
X11917682Y-13103150D01*
X11917682Y-13103150D02*
X11936730Y-13112674D01*
X11936730Y-13112674D02*
X11946253Y-13122198D01*
X11946253Y-13122198D02*
X11955777Y-13141246D01*
X11955777Y-13141246D02*
X11955777Y-13198388D01*
X11955777Y-13198388D02*
X11946253Y-13217436D01*
X11946253Y-13217436D02*
X11936730Y-13226960D01*
X11936730Y-13226960D02*
X11917682Y-13236484D01*
X11917682Y-13236484D02*
X11889110Y-13236484D01*
X12070063Y-13236484D02*
X12051015Y-13226960D01*
X12051015Y-13226960D02*
X12041491Y-13207912D01*
X12041491Y-13207912D02*
X12041491Y-13036484D01*
X12222444Y-13226960D02*
X12203396Y-13236484D01*
X12203396Y-13236484D02*
X12165301Y-13236484D01*
X12165301Y-13236484D02*
X12146253Y-13226960D01*
X12146253Y-13226960D02*
X12136730Y-13207912D01*
X12136730Y-13207912D02*
X12136730Y-13131722D01*
X12136730Y-13131722D02*
X12146253Y-13112674D01*
X12146253Y-13112674D02*
X12165301Y-13103150D01*
X12165301Y-13103150D02*
X12203396Y-13103150D01*
X12203396Y-13103150D02*
X12222444Y-13112674D01*
X12222444Y-13112674D02*
X12231968Y-13131722D01*
X12231968Y-13131722D02*
X12231968Y-13150769D01*
X12231968Y-13150769D02*
X12136730Y-13169817D01*
X12308158Y-13226960D02*
X12327206Y-13236484D01*
X12327206Y-13236484D02*
X12365301Y-13236484D01*
X12365301Y-13236484D02*
X12384349Y-13226960D01*
X12384349Y-13226960D02*
X12393872Y-13207912D01*
X12393872Y-13207912D02*
X12393872Y-13198388D01*
X12393872Y-13198388D02*
X12384349Y-13179341D01*
X12384349Y-13179341D02*
X12365301Y-13169817D01*
X12365301Y-13169817D02*
X12336730Y-13169817D01*
X12336730Y-13169817D02*
X12317682Y-13160293D01*
X12317682Y-13160293D02*
X12308158Y-13141246D01*
X12308158Y-13141246D02*
X12308158Y-13131722D01*
X12308158Y-13131722D02*
X12317682Y-13112674D01*
X12317682Y-13112674D02*
X12336730Y-13103150D01*
X12336730Y-13103150D02*
X12365301Y-13103150D01*
X12365301Y-13103150D02*
X12384349Y-13112674D01*
X12460539Y-13312674D02*
X12470063Y-13303150D01*
X12470063Y-13303150D02*
X12489111Y-13274579D01*
X12489111Y-13274579D02*
X12498634Y-13255531D01*
X12498634Y-13255531D02*
X12508158Y-13226960D01*
X12508158Y-13226960D02*
X12517682Y-13179341D01*
X12517682Y-13179341D02*
X12517682Y-13141246D01*
X12517682Y-13141246D02*
X12508158Y-13093627D01*
X12508158Y-13093627D02*
X12498634Y-13065055D01*
X12498634Y-13065055D02*
X12489111Y-13046008D01*
X12489111Y-13046008D02*
X12470063Y-13017436D01*
X12470063Y-13017436D02*
X12460539Y-13007912D01*
D10*
X7495000Y-13409000D02*
G75*
G03*
X7495000Y-13409000I-50000J0D01*
G01*
D11*
X7860539Y-13500484D02*
X7746253Y-13500484D01*
X7803396Y-13500484D02*
X7803396Y-13300484D01*
X7803396Y-13300484D02*
X7784348Y-13329055D01*
X7784348Y-13329055D02*
X7765301Y-13348103D01*
X7765301Y-13348103D02*
X7746253Y-13357627D01*
X7946253Y-13481436D02*
X7955777Y-13490960D01*
X7955777Y-13490960D02*
X7946253Y-13500484D01*
X7946253Y-13500484D02*
X7936729Y-13490960D01*
X7936729Y-13490960D02*
X7946253Y-13481436D01*
X7946253Y-13481436D02*
X7946253Y-13500484D01*
X8079586Y-13300484D02*
X8098634Y-13300484D01*
X8098634Y-13300484D02*
X8117682Y-13310008D01*
X8117682Y-13310008D02*
X8127205Y-13319531D01*
X8127205Y-13319531D02*
X8136729Y-13338579D01*
X8136729Y-13338579D02*
X8146253Y-13376674D01*
X8146253Y-13376674D02*
X8146253Y-13424293D01*
X8146253Y-13424293D02*
X8136729Y-13462388D01*
X8136729Y-13462388D02*
X8127205Y-13481436D01*
X8127205Y-13481436D02*
X8117682Y-13490960D01*
X8117682Y-13490960D02*
X8098634Y-13500484D01*
X8098634Y-13500484D02*
X8079586Y-13500484D01*
X8079586Y-13500484D02*
X8060539Y-13490960D01*
X8060539Y-13490960D02*
X8051015Y-13481436D01*
X8051015Y-13481436D02*
X8041491Y-13462388D01*
X8041491Y-13462388D02*
X8031967Y-13424293D01*
X8031967Y-13424293D02*
X8031967Y-13376674D01*
X8031967Y-13376674D02*
X8041491Y-13338579D01*
X8041491Y-13338579D02*
X8051015Y-13319531D01*
X8051015Y-13319531D02*
X8060539Y-13310008D01*
X8060539Y-13310008D02*
X8079586Y-13300484D01*
X8270062Y-13300484D02*
X8289110Y-13300484D01*
X8289110Y-13300484D02*
X8308158Y-13310008D01*
X8308158Y-13310008D02*
X8317682Y-13319531D01*
X8317682Y-13319531D02*
X8327205Y-13338579D01*
X8327205Y-13338579D02*
X8336729Y-13376674D01*
X8336729Y-13376674D02*
X8336729Y-13424293D01*
X8336729Y-13424293D02*
X8327205Y-13462388D01*
X8327205Y-13462388D02*
X8317682Y-13481436D01*
X8317682Y-13481436D02*
X8308158Y-13490960D01*
X8308158Y-13490960D02*
X8289110Y-13500484D01*
X8289110Y-13500484D02*
X8270062Y-13500484D01*
X8270062Y-13500484D02*
X8251015Y-13490960D01*
X8251015Y-13490960D02*
X8241491Y-13481436D01*
X8241491Y-13481436D02*
X8231967Y-13462388D01*
X8231967Y-13462388D02*
X8222443Y-13424293D01*
X8222443Y-13424293D02*
X8222443Y-13376674D01*
X8222443Y-13376674D02*
X8231967Y-13338579D01*
X8231967Y-13338579D02*
X8241491Y-13319531D01*
X8241491Y-13319531D02*
X8251015Y-13310008D01*
X8251015Y-13310008D02*
X8270062Y-13300484D01*
X8460539Y-13300484D02*
X8479586Y-13300484D01*
X8479586Y-13300484D02*
X8498634Y-13310008D01*
X8498634Y-13310008D02*
X8508158Y-13319531D01*
X8508158Y-13319531D02*
X8517682Y-13338579D01*
X8517682Y-13338579D02*
X8527205Y-13376674D01*
X8527205Y-13376674D02*
X8527205Y-13424293D01*
X8527205Y-13424293D02*
X8517682Y-13462388D01*
X8517682Y-13462388D02*
X8508158Y-13481436D01*
X8508158Y-13481436D02*
X8498634Y-13490960D01*
X8498634Y-13490960D02*
X8479586Y-13500484D01*
X8479586Y-13500484D02*
X8460539Y-13500484D01*
X8460539Y-13500484D02*
X8441491Y-13490960D01*
X8441491Y-13490960D02*
X8431967Y-13481436D01*
X8431967Y-13481436D02*
X8422444Y-13462388D01*
X8422444Y-13462388D02*
X8412920Y-13424293D01*
X8412920Y-13424293D02*
X8412920Y-13376674D01*
X8412920Y-13376674D02*
X8422444Y-13338579D01*
X8422444Y-13338579D02*
X8431967Y-13319531D01*
X8431967Y-13319531D02*
X8441491Y-13310008D01*
X8441491Y-13310008D02*
X8460539Y-13300484D01*
X8612920Y-13500484D02*
X8612920Y-13367150D01*
X8612920Y-13386198D02*
X8622444Y-13376674D01*
X8622444Y-13376674D02*
X8641491Y-13367150D01*
X8641491Y-13367150D02*
X8670063Y-13367150D01*
X8670063Y-13367150D02*
X8689110Y-13376674D01*
X8689110Y-13376674D02*
X8698634Y-13395722D01*
X8698634Y-13395722D02*
X8698634Y-13500484D01*
X8698634Y-13395722D02*
X8708158Y-13376674D01*
X8708158Y-13376674D02*
X8727205Y-13367150D01*
X8727205Y-13367150D02*
X8755777Y-13367150D01*
X8755777Y-13367150D02*
X8774825Y-13376674D01*
X8774825Y-13376674D02*
X8784348Y-13395722D01*
X8784348Y-13395722D02*
X8784348Y-13500484D01*
X8879586Y-13500484D02*
X8879586Y-13367150D01*
X8879586Y-13386198D02*
X8889110Y-13376674D01*
X8889110Y-13376674D02*
X8908158Y-13367150D01*
X8908158Y-13367150D02*
X8936729Y-13367150D01*
X8936729Y-13367150D02*
X8955777Y-13376674D01*
X8955777Y-13376674D02*
X8965301Y-13395722D01*
X8965301Y-13395722D02*
X8965301Y-13500484D01*
X8965301Y-13395722D02*
X8974825Y-13376674D01*
X8974825Y-13376674D02*
X8993872Y-13367150D01*
X8993872Y-13367150D02*
X9022444Y-13367150D01*
X9022444Y-13367150D02*
X9041491Y-13376674D01*
X9041491Y-13376674D02*
X9051015Y-13395722D01*
X9051015Y-13395722D02*
X9051015Y-13500484D01*
X9441491Y-13290960D02*
X9270063Y-13548103D01*
X9698634Y-13300484D02*
X9717682Y-13300484D01*
X9717682Y-13300484D02*
X9736729Y-13310008D01*
X9736729Y-13310008D02*
X9746253Y-13319531D01*
X9746253Y-13319531D02*
X9755777Y-13338579D01*
X9755777Y-13338579D02*
X9765301Y-13376674D01*
X9765301Y-13376674D02*
X9765301Y-13424293D01*
X9765301Y-13424293D02*
X9755777Y-13462388D01*
X9755777Y-13462388D02*
X9746253Y-13481436D01*
X9746253Y-13481436D02*
X9736729Y-13490960D01*
X9736729Y-13490960D02*
X9717682Y-13500484D01*
X9717682Y-13500484D02*
X9698634Y-13500484D01*
X9698634Y-13500484D02*
X9679587Y-13490960D01*
X9679587Y-13490960D02*
X9670063Y-13481436D01*
X9670063Y-13481436D02*
X9660539Y-13462388D01*
X9660539Y-13462388D02*
X9651015Y-13424293D01*
X9651015Y-13424293D02*
X9651015Y-13376674D01*
X9651015Y-13376674D02*
X9660539Y-13338579D01*
X9660539Y-13338579D02*
X9670063Y-13319531D01*
X9670063Y-13319531D02*
X9679587Y-13310008D01*
X9679587Y-13310008D02*
X9698634Y-13300484D01*
X9851015Y-13481436D02*
X9860539Y-13490960D01*
X9860539Y-13490960D02*
X9851015Y-13500484D01*
X9851015Y-13500484D02*
X9841491Y-13490960D01*
X9841491Y-13490960D02*
X9851015Y-13481436D01*
X9851015Y-13481436D02*
X9851015Y-13500484D01*
X9984348Y-13300484D02*
X10003396Y-13300484D01*
X10003396Y-13300484D02*
X10022444Y-13310008D01*
X10022444Y-13310008D02*
X10031968Y-13319531D01*
X10031968Y-13319531D02*
X10041491Y-13338579D01*
X10041491Y-13338579D02*
X10051015Y-13376674D01*
X10051015Y-13376674D02*
X10051015Y-13424293D01*
X10051015Y-13424293D02*
X10041491Y-13462388D01*
X10041491Y-13462388D02*
X10031968Y-13481436D01*
X10031968Y-13481436D02*
X10022444Y-13490960D01*
X10022444Y-13490960D02*
X10003396Y-13500484D01*
X10003396Y-13500484D02*
X9984348Y-13500484D01*
X9984348Y-13500484D02*
X9965301Y-13490960D01*
X9965301Y-13490960D02*
X9955777Y-13481436D01*
X9955777Y-13481436D02*
X9946253Y-13462388D01*
X9946253Y-13462388D02*
X9936729Y-13424293D01*
X9936729Y-13424293D02*
X9936729Y-13376674D01*
X9936729Y-13376674D02*
X9946253Y-13338579D01*
X9946253Y-13338579D02*
X9955777Y-13319531D01*
X9955777Y-13319531D02*
X9965301Y-13310008D01*
X9965301Y-13310008D02*
X9984348Y-13300484D01*
X10117682Y-13300484D02*
X10241491Y-13300484D01*
X10241491Y-13300484D02*
X10174825Y-13376674D01*
X10174825Y-13376674D02*
X10203396Y-13376674D01*
X10203396Y-13376674D02*
X10222444Y-13386198D01*
X10222444Y-13386198D02*
X10231968Y-13395722D01*
X10231968Y-13395722D02*
X10241491Y-13414769D01*
X10241491Y-13414769D02*
X10241491Y-13462388D01*
X10241491Y-13462388D02*
X10231968Y-13481436D01*
X10231968Y-13481436D02*
X10222444Y-13490960D01*
X10222444Y-13490960D02*
X10203396Y-13500484D01*
X10203396Y-13500484D02*
X10146253Y-13500484D01*
X10146253Y-13500484D02*
X10127206Y-13490960D01*
X10127206Y-13490960D02*
X10117682Y-13481436D01*
X10336729Y-13500484D02*
X10374825Y-13500484D01*
X10374825Y-13500484D02*
X10393872Y-13490960D01*
X10393872Y-13490960D02*
X10403396Y-13481436D01*
X10403396Y-13481436D02*
X10422444Y-13452865D01*
X10422444Y-13452865D02*
X10431968Y-13414769D01*
X10431968Y-13414769D02*
X10431968Y-13338579D01*
X10431968Y-13338579D02*
X10422444Y-13319531D01*
X10422444Y-13319531D02*
X10412920Y-13310008D01*
X10412920Y-13310008D02*
X10393872Y-13300484D01*
X10393872Y-13300484D02*
X10355777Y-13300484D01*
X10355777Y-13300484D02*
X10336729Y-13310008D01*
X10336729Y-13310008D02*
X10327206Y-13319531D01*
X10327206Y-13319531D02*
X10317682Y-13338579D01*
X10317682Y-13338579D02*
X10317682Y-13386198D01*
X10317682Y-13386198D02*
X10327206Y-13405246D01*
X10327206Y-13405246D02*
X10336729Y-13414769D01*
X10336729Y-13414769D02*
X10355777Y-13424293D01*
X10355777Y-13424293D02*
X10393872Y-13424293D01*
X10393872Y-13424293D02*
X10412920Y-13414769D01*
X10412920Y-13414769D02*
X10422444Y-13405246D01*
X10422444Y-13405246D02*
X10431968Y-13386198D01*
X10603396Y-13367150D02*
X10603396Y-13500484D01*
X10555777Y-13290960D02*
X10508158Y-13433817D01*
X10508158Y-13433817D02*
X10631968Y-13433817D01*
X10698634Y-13300484D02*
X10698634Y-13338579D01*
X10774825Y-13300484D02*
X10774825Y-13338579D01*
X11070063Y-13576674D02*
X11060539Y-13567150D01*
X11060539Y-13567150D02*
X11041491Y-13538579D01*
X11041491Y-13538579D02*
X11031968Y-13519531D01*
X11031968Y-13519531D02*
X11022444Y-13490960D01*
X11022444Y-13490960D02*
X11012920Y-13443341D01*
X11012920Y-13443341D02*
X11012920Y-13405246D01*
X11012920Y-13405246D02*
X11022444Y-13357627D01*
X11022444Y-13357627D02*
X11031968Y-13329055D01*
X11031968Y-13329055D02*
X11041491Y-13310008D01*
X11041491Y-13310008D02*
X11060539Y-13281436D01*
X11060539Y-13281436D02*
X11070063Y-13271912D01*
X11231968Y-13300484D02*
X11193872Y-13300484D01*
X11193872Y-13300484D02*
X11174825Y-13310008D01*
X11174825Y-13310008D02*
X11165301Y-13319531D01*
X11165301Y-13319531D02*
X11146253Y-13348103D01*
X11146253Y-13348103D02*
X11136730Y-13386198D01*
X11136730Y-13386198D02*
X11136730Y-13462388D01*
X11136730Y-13462388D02*
X11146253Y-13481436D01*
X11146253Y-13481436D02*
X11155777Y-13490960D01*
X11155777Y-13490960D02*
X11174825Y-13500484D01*
X11174825Y-13500484D02*
X11212920Y-13500484D01*
X11212920Y-13500484D02*
X11231968Y-13490960D01*
X11231968Y-13490960D02*
X11241491Y-13481436D01*
X11241491Y-13481436D02*
X11251015Y-13462388D01*
X11251015Y-13462388D02*
X11251015Y-13414769D01*
X11251015Y-13414769D02*
X11241491Y-13395722D01*
X11241491Y-13395722D02*
X11231968Y-13386198D01*
X11231968Y-13386198D02*
X11212920Y-13376674D01*
X11212920Y-13376674D02*
X11174825Y-13376674D01*
X11174825Y-13376674D02*
X11155777Y-13386198D01*
X11155777Y-13386198D02*
X11146253Y-13395722D01*
X11146253Y-13395722D02*
X11136730Y-13414769D01*
X11489110Y-13500484D02*
X11489110Y-13300484D01*
X11574825Y-13500484D02*
X11574825Y-13395722D01*
X11574825Y-13395722D02*
X11565301Y-13376674D01*
X11565301Y-13376674D02*
X11546253Y-13367150D01*
X11546253Y-13367150D02*
X11517682Y-13367150D01*
X11517682Y-13367150D02*
X11498634Y-13376674D01*
X11498634Y-13376674D02*
X11489110Y-13386198D01*
X11698634Y-13500484D02*
X11679587Y-13490960D01*
X11679587Y-13490960D02*
X11670063Y-13481436D01*
X11670063Y-13481436D02*
X11660539Y-13462388D01*
X11660539Y-13462388D02*
X11660539Y-13405246D01*
X11660539Y-13405246D02*
X11670063Y-13386198D01*
X11670063Y-13386198D02*
X11679587Y-13376674D01*
X11679587Y-13376674D02*
X11698634Y-13367150D01*
X11698634Y-13367150D02*
X11727206Y-13367150D01*
X11727206Y-13367150D02*
X11746253Y-13376674D01*
X11746253Y-13376674D02*
X11755777Y-13386198D01*
X11755777Y-13386198D02*
X11765301Y-13405246D01*
X11765301Y-13405246D02*
X11765301Y-13462388D01*
X11765301Y-13462388D02*
X11755777Y-13481436D01*
X11755777Y-13481436D02*
X11746253Y-13490960D01*
X11746253Y-13490960D02*
X11727206Y-13500484D01*
X11727206Y-13500484D02*
X11698634Y-13500484D01*
X11879587Y-13500484D02*
X11860539Y-13490960D01*
X11860539Y-13490960D02*
X11851015Y-13471912D01*
X11851015Y-13471912D02*
X11851015Y-13300484D01*
X12031968Y-13490960D02*
X12012920Y-13500484D01*
X12012920Y-13500484D02*
X11974825Y-13500484D01*
X11974825Y-13500484D02*
X11955777Y-13490960D01*
X11955777Y-13490960D02*
X11946253Y-13471912D01*
X11946253Y-13471912D02*
X11946253Y-13395722D01*
X11946253Y-13395722D02*
X11955777Y-13376674D01*
X11955777Y-13376674D02*
X11974825Y-13367150D01*
X11974825Y-13367150D02*
X12012920Y-13367150D01*
X12012920Y-13367150D02*
X12031968Y-13376674D01*
X12031968Y-13376674D02*
X12041491Y-13395722D01*
X12041491Y-13395722D02*
X12041491Y-13414769D01*
X12041491Y-13414769D02*
X11946253Y-13433817D01*
X12117682Y-13490960D02*
X12136730Y-13500484D01*
X12136730Y-13500484D02*
X12174825Y-13500484D01*
X12174825Y-13500484D02*
X12193872Y-13490960D01*
X12193872Y-13490960D02*
X12203396Y-13471912D01*
X12203396Y-13471912D02*
X12203396Y-13462388D01*
X12203396Y-13462388D02*
X12193872Y-13443341D01*
X12193872Y-13443341D02*
X12174825Y-13433817D01*
X12174825Y-13433817D02*
X12146253Y-13433817D01*
X12146253Y-13433817D02*
X12127206Y-13424293D01*
X12127206Y-13424293D02*
X12117682Y-13405246D01*
X12117682Y-13405246D02*
X12117682Y-13395722D01*
X12117682Y-13395722D02*
X12127206Y-13376674D01*
X12127206Y-13376674D02*
X12146253Y-13367150D01*
X12146253Y-13367150D02*
X12174825Y-13367150D01*
X12174825Y-13367150D02*
X12193872Y-13376674D01*
X12270063Y-13576674D02*
X12279587Y-13567150D01*
X12279587Y-13567150D02*
X12298634Y-13538579D01*
X12298634Y-13538579D02*
X12308158Y-13519531D01*
X12308158Y-13519531D02*
X12317682Y-13490960D01*
X12317682Y-13490960D02*
X12327206Y-13443341D01*
X12327206Y-13443341D02*
X12327206Y-13405246D01*
X12327206Y-13405246D02*
X12317682Y-13357627D01*
X12317682Y-13357627D02*
X12308158Y-13329055D01*
X12308158Y-13329055D02*
X12298634Y-13310008D01*
X12298634Y-13310008D02*
X12279587Y-13281436D01*
X12279587Y-13281436D02*
X12270063Y-13271912D01*
D13*
X7425000Y-13603000D02*
X7425000Y-13743000D01*
X7355000Y-13673000D02*
X7495000Y-13673000D01*
D11*
X7860539Y-13764484D02*
X7746253Y-13764484D01*
X7803396Y-13764484D02*
X7803396Y-13564484D01*
X7803396Y-13564484D02*
X7784348Y-13593055D01*
X7784348Y-13593055D02*
X7765301Y-13612103D01*
X7765301Y-13612103D02*
X7746253Y-13621627D01*
X7946253Y-13745436D02*
X7955777Y-13754960D01*
X7955777Y-13754960D02*
X7946253Y-13764484D01*
X7946253Y-13764484D02*
X7936729Y-13754960D01*
X7936729Y-13754960D02*
X7946253Y-13745436D01*
X7946253Y-13745436D02*
X7946253Y-13764484D01*
X8127205Y-13631150D02*
X8127205Y-13764484D01*
X8079586Y-13554960D02*
X8031967Y-13697817D01*
X8031967Y-13697817D02*
X8155777Y-13697817D01*
X8270062Y-13564484D02*
X8289110Y-13564484D01*
X8289110Y-13564484D02*
X8308158Y-13574008D01*
X8308158Y-13574008D02*
X8317682Y-13583531D01*
X8317682Y-13583531D02*
X8327205Y-13602579D01*
X8327205Y-13602579D02*
X8336729Y-13640674D01*
X8336729Y-13640674D02*
X8336729Y-13688293D01*
X8336729Y-13688293D02*
X8327205Y-13726388D01*
X8327205Y-13726388D02*
X8317682Y-13745436D01*
X8317682Y-13745436D02*
X8308158Y-13754960D01*
X8308158Y-13754960D02*
X8289110Y-13764484D01*
X8289110Y-13764484D02*
X8270062Y-13764484D01*
X8270062Y-13764484D02*
X8251015Y-13754960D01*
X8251015Y-13754960D02*
X8241491Y-13745436D01*
X8241491Y-13745436D02*
X8231967Y-13726388D01*
X8231967Y-13726388D02*
X8222443Y-13688293D01*
X8222443Y-13688293D02*
X8222443Y-13640674D01*
X8222443Y-13640674D02*
X8231967Y-13602579D01*
X8231967Y-13602579D02*
X8241491Y-13583531D01*
X8241491Y-13583531D02*
X8251015Y-13574008D01*
X8251015Y-13574008D02*
X8270062Y-13564484D01*
X8460539Y-13564484D02*
X8479586Y-13564484D01*
X8479586Y-13564484D02*
X8498634Y-13574008D01*
X8498634Y-13574008D02*
X8508158Y-13583531D01*
X8508158Y-13583531D02*
X8517682Y-13602579D01*
X8517682Y-13602579D02*
X8527205Y-13640674D01*
X8527205Y-13640674D02*
X8527205Y-13688293D01*
X8527205Y-13688293D02*
X8517682Y-13726388D01*
X8517682Y-13726388D02*
X8508158Y-13745436D01*
X8508158Y-13745436D02*
X8498634Y-13754960D01*
X8498634Y-13754960D02*
X8479586Y-13764484D01*
X8479586Y-13764484D02*
X8460539Y-13764484D01*
X8460539Y-13764484D02*
X8441491Y-13754960D01*
X8441491Y-13754960D02*
X8431967Y-13745436D01*
X8431967Y-13745436D02*
X8422444Y-13726388D01*
X8422444Y-13726388D02*
X8412920Y-13688293D01*
X8412920Y-13688293D02*
X8412920Y-13640674D01*
X8412920Y-13640674D02*
X8422444Y-13602579D01*
X8422444Y-13602579D02*
X8431967Y-13583531D01*
X8431967Y-13583531D02*
X8441491Y-13574008D01*
X8441491Y-13574008D02*
X8460539Y-13564484D01*
X8612920Y-13764484D02*
X8612920Y-13631150D01*
X8612920Y-13650198D02*
X8622444Y-13640674D01*
X8622444Y-13640674D02*
X8641491Y-13631150D01*
X8641491Y-13631150D02*
X8670063Y-13631150D01*
X8670063Y-13631150D02*
X8689110Y-13640674D01*
X8689110Y-13640674D02*
X8698634Y-13659722D01*
X8698634Y-13659722D02*
X8698634Y-13764484D01*
X8698634Y-13659722D02*
X8708158Y-13640674D01*
X8708158Y-13640674D02*
X8727205Y-13631150D01*
X8727205Y-13631150D02*
X8755777Y-13631150D01*
X8755777Y-13631150D02*
X8774825Y-13640674D01*
X8774825Y-13640674D02*
X8784348Y-13659722D01*
X8784348Y-13659722D02*
X8784348Y-13764484D01*
X8879586Y-13764484D02*
X8879586Y-13631150D01*
X8879586Y-13650198D02*
X8889110Y-13640674D01*
X8889110Y-13640674D02*
X8908158Y-13631150D01*
X8908158Y-13631150D02*
X8936729Y-13631150D01*
X8936729Y-13631150D02*
X8955777Y-13640674D01*
X8955777Y-13640674D02*
X8965301Y-13659722D01*
X8965301Y-13659722D02*
X8965301Y-13764484D01*
X8965301Y-13659722D02*
X8974825Y-13640674D01*
X8974825Y-13640674D02*
X8993872Y-13631150D01*
X8993872Y-13631150D02*
X9022444Y-13631150D01*
X9022444Y-13631150D02*
X9041491Y-13640674D01*
X9041491Y-13640674D02*
X9051015Y-13659722D01*
X9051015Y-13659722D02*
X9051015Y-13764484D01*
X9441491Y-13554960D02*
X9270063Y-13812103D01*
X9698634Y-13564484D02*
X9717682Y-13564484D01*
X9717682Y-13564484D02*
X9736729Y-13574008D01*
X9736729Y-13574008D02*
X9746253Y-13583531D01*
X9746253Y-13583531D02*
X9755777Y-13602579D01*
X9755777Y-13602579D02*
X9765301Y-13640674D01*
X9765301Y-13640674D02*
X9765301Y-13688293D01*
X9765301Y-13688293D02*
X9755777Y-13726388D01*
X9755777Y-13726388D02*
X9746253Y-13745436D01*
X9746253Y-13745436D02*
X9736729Y-13754960D01*
X9736729Y-13754960D02*
X9717682Y-13764484D01*
X9717682Y-13764484D02*
X9698634Y-13764484D01*
X9698634Y-13764484D02*
X9679587Y-13754960D01*
X9679587Y-13754960D02*
X9670063Y-13745436D01*
X9670063Y-13745436D02*
X9660539Y-13726388D01*
X9660539Y-13726388D02*
X9651015Y-13688293D01*
X9651015Y-13688293D02*
X9651015Y-13640674D01*
X9651015Y-13640674D02*
X9660539Y-13602579D01*
X9660539Y-13602579D02*
X9670063Y-13583531D01*
X9670063Y-13583531D02*
X9679587Y-13574008D01*
X9679587Y-13574008D02*
X9698634Y-13564484D01*
X9851015Y-13745436D02*
X9860539Y-13754960D01*
X9860539Y-13754960D02*
X9851015Y-13764484D01*
X9851015Y-13764484D02*
X9841491Y-13754960D01*
X9841491Y-13754960D02*
X9851015Y-13745436D01*
X9851015Y-13745436D02*
X9851015Y-13764484D01*
X9984348Y-13564484D02*
X10003396Y-13564484D01*
X10003396Y-13564484D02*
X10022444Y-13574008D01*
X10022444Y-13574008D02*
X10031968Y-13583531D01*
X10031968Y-13583531D02*
X10041491Y-13602579D01*
X10041491Y-13602579D02*
X10051015Y-13640674D01*
X10051015Y-13640674D02*
X10051015Y-13688293D01*
X10051015Y-13688293D02*
X10041491Y-13726388D01*
X10041491Y-13726388D02*
X10031968Y-13745436D01*
X10031968Y-13745436D02*
X10022444Y-13754960D01*
X10022444Y-13754960D02*
X10003396Y-13764484D01*
X10003396Y-13764484D02*
X9984348Y-13764484D01*
X9984348Y-13764484D02*
X9965301Y-13754960D01*
X9965301Y-13754960D02*
X9955777Y-13745436D01*
X9955777Y-13745436D02*
X9946253Y-13726388D01*
X9946253Y-13726388D02*
X9936729Y-13688293D01*
X9936729Y-13688293D02*
X9936729Y-13640674D01*
X9936729Y-13640674D02*
X9946253Y-13602579D01*
X9946253Y-13602579D02*
X9955777Y-13583531D01*
X9955777Y-13583531D02*
X9965301Y-13574008D01*
X9965301Y-13574008D02*
X9984348Y-13564484D01*
X10231968Y-13564484D02*
X10136729Y-13564484D01*
X10136729Y-13564484D02*
X10127206Y-13659722D01*
X10127206Y-13659722D02*
X10136729Y-13650198D01*
X10136729Y-13650198D02*
X10155777Y-13640674D01*
X10155777Y-13640674D02*
X10203396Y-13640674D01*
X10203396Y-13640674D02*
X10222444Y-13650198D01*
X10222444Y-13650198D02*
X10231968Y-13659722D01*
X10231968Y-13659722D02*
X10241491Y-13678769D01*
X10241491Y-13678769D02*
X10241491Y-13726388D01*
X10241491Y-13726388D02*
X10231968Y-13745436D01*
X10231968Y-13745436D02*
X10222444Y-13754960D01*
X10222444Y-13754960D02*
X10203396Y-13764484D01*
X10203396Y-13764484D02*
X10155777Y-13764484D01*
X10155777Y-13764484D02*
X10136729Y-13754960D01*
X10136729Y-13754960D02*
X10127206Y-13745436D01*
X10422444Y-13564484D02*
X10327206Y-13564484D01*
X10327206Y-13564484D02*
X10317682Y-13659722D01*
X10317682Y-13659722D02*
X10327206Y-13650198D01*
X10327206Y-13650198D02*
X10346253Y-13640674D01*
X10346253Y-13640674D02*
X10393872Y-13640674D01*
X10393872Y-13640674D02*
X10412920Y-13650198D01*
X10412920Y-13650198D02*
X10422444Y-13659722D01*
X10422444Y-13659722D02*
X10431968Y-13678769D01*
X10431968Y-13678769D02*
X10431968Y-13726388D01*
X10431968Y-13726388D02*
X10422444Y-13745436D01*
X10422444Y-13745436D02*
X10412920Y-13754960D01*
X10412920Y-13754960D02*
X10393872Y-13764484D01*
X10393872Y-13764484D02*
X10346253Y-13764484D01*
X10346253Y-13764484D02*
X10327206Y-13754960D01*
X10327206Y-13754960D02*
X10317682Y-13745436D01*
X10622444Y-13764484D02*
X10508158Y-13764484D01*
X10565301Y-13764484D02*
X10565301Y-13564484D01*
X10565301Y-13564484D02*
X10546253Y-13593055D01*
X10546253Y-13593055D02*
X10527206Y-13612103D01*
X10527206Y-13612103D02*
X10508158Y-13621627D01*
X10698634Y-13564484D02*
X10698634Y-13602579D01*
X10774825Y-13564484D02*
X10774825Y-13602579D01*
X11070063Y-13840674D02*
X11060539Y-13831150D01*
X11060539Y-13831150D02*
X11041491Y-13802579D01*
X11041491Y-13802579D02*
X11031968Y-13783531D01*
X11031968Y-13783531D02*
X11022444Y-13754960D01*
X11022444Y-13754960D02*
X11012920Y-13707341D01*
X11012920Y-13707341D02*
X11012920Y-13669246D01*
X11012920Y-13669246D02*
X11022444Y-13621627D01*
X11022444Y-13621627D02*
X11031968Y-13593055D01*
X11031968Y-13593055D02*
X11041491Y-13574008D01*
X11041491Y-13574008D02*
X11060539Y-13545436D01*
X11060539Y-13545436D02*
X11070063Y-13535912D01*
X11231968Y-13631150D02*
X11231968Y-13764484D01*
X11184349Y-13554960D02*
X11136730Y-13697817D01*
X11136730Y-13697817D02*
X11260539Y-13697817D01*
X11374825Y-13564484D02*
X11393872Y-13564484D01*
X11393872Y-13564484D02*
X11412920Y-13574008D01*
X11412920Y-13574008D02*
X11422444Y-13583531D01*
X11422444Y-13583531D02*
X11431968Y-13602579D01*
X11431968Y-13602579D02*
X11441491Y-13640674D01*
X11441491Y-13640674D02*
X11441491Y-13688293D01*
X11441491Y-13688293D02*
X11431968Y-13726388D01*
X11431968Y-13726388D02*
X11422444Y-13745436D01*
X11422444Y-13745436D02*
X11412920Y-13754960D01*
X11412920Y-13754960D02*
X11393872Y-13764484D01*
X11393872Y-13764484D02*
X11374825Y-13764484D01*
X11374825Y-13764484D02*
X11355777Y-13754960D01*
X11355777Y-13754960D02*
X11346253Y-13745436D01*
X11346253Y-13745436D02*
X11336729Y-13726388D01*
X11336729Y-13726388D02*
X11327206Y-13688293D01*
X11327206Y-13688293D02*
X11327206Y-13640674D01*
X11327206Y-13640674D02*
X11336729Y-13602579D01*
X11336729Y-13602579D02*
X11346253Y-13583531D01*
X11346253Y-13583531D02*
X11355777Y-13574008D01*
X11355777Y-13574008D02*
X11374825Y-13564484D01*
X11679587Y-13764484D02*
X11679587Y-13564484D01*
X11765301Y-13764484D02*
X11765301Y-13659722D01*
X11765301Y-13659722D02*
X11755777Y-13640674D01*
X11755777Y-13640674D02*
X11736730Y-13631150D01*
X11736730Y-13631150D02*
X11708158Y-13631150D01*
X11708158Y-13631150D02*
X11689110Y-13640674D01*
X11689110Y-13640674D02*
X11679587Y-13650198D01*
X11889110Y-13764484D02*
X11870063Y-13754960D01*
X11870063Y-13754960D02*
X11860539Y-13745436D01*
X11860539Y-13745436D02*
X11851015Y-13726388D01*
X11851015Y-13726388D02*
X11851015Y-13669246D01*
X11851015Y-13669246D02*
X11860539Y-13650198D01*
X11860539Y-13650198D02*
X11870063Y-13640674D01*
X11870063Y-13640674D02*
X11889110Y-13631150D01*
X11889110Y-13631150D02*
X11917682Y-13631150D01*
X11917682Y-13631150D02*
X11936730Y-13640674D01*
X11936730Y-13640674D02*
X11946253Y-13650198D01*
X11946253Y-13650198D02*
X11955777Y-13669246D01*
X11955777Y-13669246D02*
X11955777Y-13726388D01*
X11955777Y-13726388D02*
X11946253Y-13745436D01*
X11946253Y-13745436D02*
X11936730Y-13754960D01*
X11936730Y-13754960D02*
X11917682Y-13764484D01*
X11917682Y-13764484D02*
X11889110Y-13764484D01*
X12070063Y-13764484D02*
X12051015Y-13754960D01*
X12051015Y-13754960D02*
X12041491Y-13735912D01*
X12041491Y-13735912D02*
X12041491Y-13564484D01*
X12222444Y-13754960D02*
X12203396Y-13764484D01*
X12203396Y-13764484D02*
X12165301Y-13764484D01*
X12165301Y-13764484D02*
X12146253Y-13754960D01*
X12146253Y-13754960D02*
X12136730Y-13735912D01*
X12136730Y-13735912D02*
X12136730Y-13659722D01*
X12136730Y-13659722D02*
X12146253Y-13640674D01*
X12146253Y-13640674D02*
X12165301Y-13631150D01*
X12165301Y-13631150D02*
X12203396Y-13631150D01*
X12203396Y-13631150D02*
X12222444Y-13640674D01*
X12222444Y-13640674D02*
X12231968Y-13659722D01*
X12231968Y-13659722D02*
X12231968Y-13678769D01*
X12231968Y-13678769D02*
X12136730Y-13697817D01*
X12308158Y-13754960D02*
X12327206Y-13764484D01*
X12327206Y-13764484D02*
X12365301Y-13764484D01*
X12365301Y-13764484D02*
X12384349Y-13754960D01*
X12384349Y-13754960D02*
X12393872Y-13735912D01*
X12393872Y-13735912D02*
X12393872Y-13726388D01*
X12393872Y-13726388D02*
X12384349Y-13707341D01*
X12384349Y-13707341D02*
X12365301Y-13697817D01*
X12365301Y-13697817D02*
X12336730Y-13697817D01*
X12336730Y-13697817D02*
X12317682Y-13688293D01*
X12317682Y-13688293D02*
X12308158Y-13669246D01*
X12308158Y-13669246D02*
X12308158Y-13659722D01*
X12308158Y-13659722D02*
X12317682Y-13640674D01*
X12317682Y-13640674D02*
X12336730Y-13631150D01*
X12336730Y-13631150D02*
X12365301Y-13631150D01*
X12365301Y-13631150D02*
X12384349Y-13640674D01*
X12460539Y-13840674D02*
X12470063Y-13831150D01*
X12470063Y-13831150D02*
X12489111Y-13802579D01*
X12489111Y-13802579D02*
X12498634Y-13783531D01*
X12498634Y-13783531D02*
X12508158Y-13754960D01*
X12508158Y-13754960D02*
X12517682Y-13707341D01*
X12517682Y-13707341D02*
X12517682Y-13669246D01*
X12517682Y-13669246D02*
X12508158Y-13621627D01*
X12508158Y-13621627D02*
X12498634Y-13593055D01*
X12498634Y-13593055D02*
X12489111Y-13574008D01*
X12489111Y-13574008D02*
X12470063Y-13545436D01*
X12470063Y-13545436D02*
X12460539Y-13535912D01*
M02*
