M48
; DRILL file {KiCad 7.0.5-4d25ed1034~172~ubuntu22.04.1} date ven. 02 juin 2023 18:33:23
; FORMAT={-:-/ absolute / metric / decimal}
; #@! TF.CreationDate,2023-06-02T18:33:23-04:00
; #@! TF.GenerationSoftware,Kicad,Pcbnew,7.0.5-4d25ed1034~172~ubuntu22.04.1
; #@! TF.FileFunction,Plated,1,2,PTH
FMAT,2
METRIC
; #@! TA.AperFunction,Plated,PTH,ViaDrill
T1C0.400
; #@! TA.AperFunction,Plated,PTH,ComponentDrill
T2C1.000
; #@! TA.AperFunction,Plated,PTH,ComponentDrill
T3C1.400
%
G90
G05
T1
X79.7Y-100.0
X81.0Y-119.0
X81.1Y-81.1
X84.5Y-117.3
X86.6Y-115.3
X93.0Y-103.0
X95.4Y-89.2
X95.6Y-103.7
X96.5Y-89.224
X97.4Y-103.7
X98.124Y-89.5
X99.6Y-104.5
X99.9Y-79.4
X100.0Y-120.3
X102.2Y-102.9
X102.9Y-93.9
X103.5Y-82.8
X103.5Y-83.9
X103.5Y-85.0
X103.8Y-102.0
X104.3Y-99.3
X106.4Y-81.9
X107.4Y-86.9
X108.0Y-88.0
X115.0Y-113.4
X115.1Y-81.7
X117.3Y-115.7
X119.0Y-80.9
X119.1Y-119.0
X120.5Y-100.0
T2
X109.5Y-94.9
X109.5Y-97.44
X109.5Y-99.98
X109.5Y-102.52
X109.5Y-105.06
X109.5Y-107.6
T3
X76.5Y-88.57
X76.5Y-91.11
X76.5Y-93.65
X76.5Y-96.19
X76.5Y-98.73
X76.5Y-101.27
X76.5Y-103.81
X76.5Y-106.35
X76.5Y-108.89
X76.5Y-111.43
X88.57Y-76.5
X88.57Y-123.5
X91.11Y-76.5
X91.11Y-123.5
X93.65Y-76.5
X93.65Y-123.5
X96.19Y-76.5
X96.19Y-123.5
X98.73Y-76.5
X98.73Y-123.5
X101.27Y-76.5
X101.27Y-123.5
X103.81Y-76.5
X103.81Y-123.5
X106.35Y-76.5
X106.35Y-123.5
X108.89Y-76.5
X108.89Y-123.5
X111.43Y-76.5
X111.43Y-123.5
X123.5Y-88.57
X123.5Y-91.11
X123.5Y-93.65
X123.5Y-96.19
X123.5Y-98.73
X123.5Y-101.27
X123.5Y-103.81
X123.5Y-106.35
X123.5Y-108.89
X123.5Y-111.43
T0
M30
