M48
; DRILL file {KiCad 7.0.2-6a45011f42~172~ubuntu22.04.1} date lun. 08 mai 2023 10:09:06
; FORMAT={-:-/ absolute / metric / decimal}
; #@! TF.CreationDate,2023-05-08T10:09:06-04:00
; #@! TF.GenerationSoftware,Kicad,Pcbnew,7.0.2-6a45011f42~172~ubuntu22.04.1
; #@! TF.FileFunction,Plated,1,2,PTH
FMAT,2
METRIC
; #@! TA.AperFunction,Plated,PTH,ViaDrill
T1C0.400
; #@! TA.AperFunction,Plated,PTH,ComponentDrill
T2C1.000
%
G90
G05
T1
X86.7Y-87.1
X92.0Y-113.4
X93.4Y-85.7
X95.3Y-86.774
X95.3Y-87.9
X95.6Y-102.8
X97.5Y-102.8
X102.698Y-82.098
X103.75Y-83.75
X109.3Y-88.2
X112.6Y-102.1
X112.75Y-84.75
T2
X78.2Y-87.3
X78.2Y-89.84
X78.2Y-92.38
X78.2Y-94.92
X78.2Y-97.46
X81.1Y-102.58
X81.1Y-105.12
X81.1Y-107.66
X81.1Y-110.2
X81.1Y-112.74
X87.26Y-81.1
X87.3Y-121.8
X89.8Y-81.1
X89.84Y-121.8
X92.34Y-81.1
X92.38Y-121.8
X94.88Y-81.1
X94.92Y-121.8
X97.42Y-81.1
X97.46Y-121.8
X102.54Y-78.2
X102.58Y-118.9
X105.08Y-78.2
X105.12Y-118.9
X107.62Y-78.2
X107.66Y-118.9
X109.5Y-94.9
X109.5Y-97.44
X109.5Y-99.98
X109.5Y-102.52
X109.5Y-105.06
X109.5Y-107.6
X110.16Y-78.2
X110.2Y-118.9
X112.7Y-78.2
X112.74Y-118.9
X118.9Y-87.26
X118.9Y-89.8
X118.9Y-92.34
X118.9Y-94.88
X118.9Y-97.42
X121.8Y-102.54
X121.8Y-105.08
X121.8Y-107.62
X121.8Y-110.16
X121.8Y-112.7
T0
M30
