%TF.GenerationSoftware,KiCad,Pcbnew,7.0.2-6a45011f42~172~ubuntu22.04.1*%
%TF.CreationDate,2023-05-08T10:09:07-04:00*%
%TF.ProjectId,v2,76322e6b-6963-4616-945f-706362585858,rev?*%
%TF.SameCoordinates,Original*%
%TF.FileFunction,Drillmap*%
%TF.FilePolarity,Positive*%
%FSLAX45Y45*%
G04 Gerber Fmt 4.5, Leading zero omitted, Abs format (unit mm)*
G04 Created by KiCad (PCBNEW 7.0.2-6a45011f42~172~ubuntu22.04.1) date 2023-05-08 10:09:07*
%MOMM*%
%LPD*%
G01*
G04 APERTURE LIST*
%ADD10C,0.100000*%
%ADD11C,0.200000*%
%ADD12C,0.040000*%
G04 APERTURE END LIST*
D10*
X7750000Y-12500000D02*
X12250000Y-12500000D01*
X7500000Y-7750000D02*
X7500000Y-12250000D01*
X12250000Y-7500000D02*
X7750000Y-7500000D01*
X12500000Y-7750000D02*
X12500000Y-12250000D01*
X12250000Y-7750000D02*
X12500000Y-7750000D01*
X12250000Y-7500000D02*
X12250000Y-7750000D01*
X12250000Y-12250000D02*
X12250000Y-12500000D01*
X12500000Y-12250000D02*
X12250000Y-12250000D01*
X7750000Y-12250000D02*
X7750000Y-12500000D01*
X7500000Y-12250000D02*
X7750000Y-12250000D01*
X7750000Y-7750000D02*
X7750000Y-7500000D01*
X7500000Y-7750000D02*
X7750000Y-7750000D01*
D11*
D12*
X8650000Y-8690000D02*
X8690000Y-8730000D01*
X8690000Y-8690000D02*
X8650000Y-8730000D01*
X9180000Y-11320000D02*
X9220000Y-11360000D01*
X9220000Y-11320000D02*
X9180000Y-11360000D01*
X9320000Y-8550000D02*
X9360000Y-8590000D01*
X9360000Y-8550000D02*
X9320000Y-8590000D01*
X9510000Y-8657450D02*
X9550000Y-8697450D01*
X9550000Y-8657450D02*
X9510000Y-8697450D01*
X9510000Y-8770000D02*
X9550000Y-8810000D01*
X9550000Y-8770000D02*
X9510000Y-8810000D01*
X9540000Y-10260000D02*
X9580000Y-10300000D01*
X9580000Y-10260000D02*
X9540000Y-10300000D01*
X9730000Y-10260000D02*
X9770000Y-10300000D01*
X9770000Y-10260000D02*
X9730000Y-10300000D01*
X10249766Y-8189765D02*
X10289766Y-8229765D01*
X10289766Y-8189765D02*
X10249766Y-8229765D01*
X10355000Y-8355000D02*
X10395000Y-8395000D01*
X10395000Y-8355000D02*
X10355000Y-8395000D01*
X10910000Y-8800000D02*
X10950000Y-8840000D01*
X10950000Y-8800000D02*
X10910000Y-8840000D01*
X11240000Y-10190000D02*
X11280000Y-10230000D01*
X11280000Y-10190000D02*
X11240000Y-10230000D01*
X11255000Y-8455000D02*
X11295000Y-8495000D01*
X11295000Y-8455000D02*
X11255000Y-8495000D01*
D10*
X7870000Y-8730000D02*
G75*
G03*
X7870000Y-8730000I-50000J0D01*
G01*
X7870000Y-8984000D02*
G75*
G03*
X7870000Y-8984000I-50000J0D01*
G01*
X7870000Y-9238000D02*
G75*
G03*
X7870000Y-9238000I-50000J0D01*
G01*
X7870000Y-9492000D02*
G75*
G03*
X7870000Y-9492000I-50000J0D01*
G01*
X7870000Y-9746000D02*
G75*
G03*
X7870000Y-9746000I-50000J0D01*
G01*
X8160000Y-10258000D02*
G75*
G03*
X8160000Y-10258000I-50000J0D01*
G01*
X8160000Y-10512000D02*
G75*
G03*
X8160000Y-10512000I-50000J0D01*
G01*
X8160000Y-10766000D02*
G75*
G03*
X8160000Y-10766000I-50000J0D01*
G01*
X8160000Y-11020000D02*
G75*
G03*
X8160000Y-11020000I-50000J0D01*
G01*
X8160000Y-11274000D02*
G75*
G03*
X8160000Y-11274000I-50000J0D01*
G01*
X8776000Y-8110000D02*
G75*
G03*
X8776000Y-8110000I-50000J0D01*
G01*
X8780000Y-12180000D02*
G75*
G03*
X8780000Y-12180000I-50000J0D01*
G01*
X9030000Y-8110000D02*
G75*
G03*
X9030000Y-8110000I-50000J0D01*
G01*
X9034000Y-12180000D02*
G75*
G03*
X9034000Y-12180000I-50000J0D01*
G01*
X9284000Y-8110000D02*
G75*
G03*
X9284000Y-8110000I-50000J0D01*
G01*
X9288000Y-12180000D02*
G75*
G03*
X9288000Y-12180000I-50000J0D01*
G01*
X9538000Y-8110000D02*
G75*
G03*
X9538000Y-8110000I-50000J0D01*
G01*
X9542000Y-12180000D02*
G75*
G03*
X9542000Y-12180000I-50000J0D01*
G01*
X9792000Y-8110000D02*
G75*
G03*
X9792000Y-8110000I-50000J0D01*
G01*
X9796000Y-12180000D02*
G75*
G03*
X9796000Y-12180000I-50000J0D01*
G01*
X10304000Y-7820000D02*
G75*
G03*
X10304000Y-7820000I-50000J0D01*
G01*
X10308000Y-11890000D02*
G75*
G03*
X10308000Y-11890000I-50000J0D01*
G01*
X10558000Y-7820000D02*
G75*
G03*
X10558000Y-7820000I-50000J0D01*
G01*
X10562000Y-11890000D02*
G75*
G03*
X10562000Y-11890000I-50000J0D01*
G01*
X10812000Y-7820000D02*
G75*
G03*
X10812000Y-7820000I-50000J0D01*
G01*
X10816000Y-11890000D02*
G75*
G03*
X10816000Y-11890000I-50000J0D01*
G01*
X11000000Y-9490000D02*
G75*
G03*
X11000000Y-9490000I-50000J0D01*
G01*
X11000000Y-9744000D02*
G75*
G03*
X11000000Y-9744000I-50000J0D01*
G01*
X11000000Y-9998000D02*
G75*
G03*
X11000000Y-9998000I-50000J0D01*
G01*
X11000000Y-10252000D02*
G75*
G03*
X11000000Y-10252000I-50000J0D01*
G01*
X11000000Y-10506000D02*
G75*
G03*
X11000000Y-10506000I-50000J0D01*
G01*
X11000000Y-10760000D02*
G75*
G03*
X11000000Y-10760000I-50000J0D01*
G01*
X11066000Y-7820000D02*
G75*
G03*
X11066000Y-7820000I-50000J0D01*
G01*
X11070000Y-11890000D02*
G75*
G03*
X11070000Y-11890000I-50000J0D01*
G01*
X11320000Y-7820000D02*
G75*
G03*
X11320000Y-7820000I-50000J0D01*
G01*
X11324000Y-11890000D02*
G75*
G03*
X11324000Y-11890000I-50000J0D01*
G01*
X11940000Y-8726000D02*
G75*
G03*
X11940000Y-8726000I-50000J0D01*
G01*
X11940000Y-8980000D02*
G75*
G03*
X11940000Y-8980000I-50000J0D01*
G01*
X11940000Y-9234000D02*
G75*
G03*
X11940000Y-9234000I-50000J0D01*
G01*
X11940000Y-9488000D02*
G75*
G03*
X11940000Y-9488000I-50000J0D01*
G01*
X11940000Y-9742000D02*
G75*
G03*
X11940000Y-9742000I-50000J0D01*
G01*
X12230000Y-10254000D02*
G75*
G03*
X12230000Y-10254000I-50000J0D01*
G01*
X12230000Y-10508000D02*
G75*
G03*
X12230000Y-10508000I-50000J0D01*
G01*
X12230000Y-10762000D02*
G75*
G03*
X12230000Y-10762000I-50000J0D01*
G01*
X12230000Y-11016000D02*
G75*
G03*
X12230000Y-11016000I-50000J0D01*
G01*
X12230000Y-11270000D02*
G75*
G03*
X12230000Y-11270000I-50000J0D01*
G01*
D11*
X7742619Y-12817524D02*
X7742619Y-12617524D01*
X7742619Y-12617524D02*
X7790238Y-12617524D01*
X7790238Y-12617524D02*
X7818809Y-12627048D01*
X7818809Y-12627048D02*
X7837857Y-12646095D01*
X7837857Y-12646095D02*
X7847381Y-12665143D01*
X7847381Y-12665143D02*
X7856905Y-12703238D01*
X7856905Y-12703238D02*
X7856905Y-12731809D01*
X7856905Y-12731809D02*
X7847381Y-12769905D01*
X7847381Y-12769905D02*
X7837857Y-12788952D01*
X7837857Y-12788952D02*
X7818809Y-12808000D01*
X7818809Y-12808000D02*
X7790238Y-12817524D01*
X7790238Y-12817524D02*
X7742619Y-12817524D01*
X7942619Y-12817524D02*
X7942619Y-12684190D01*
X7942619Y-12722286D02*
X7952143Y-12703238D01*
X7952143Y-12703238D02*
X7961667Y-12693714D01*
X7961667Y-12693714D02*
X7980714Y-12684190D01*
X7980714Y-12684190D02*
X7999762Y-12684190D01*
X8066428Y-12817524D02*
X8066428Y-12684190D01*
X8066428Y-12617524D02*
X8056905Y-12627048D01*
X8056905Y-12627048D02*
X8066428Y-12636571D01*
X8066428Y-12636571D02*
X8075952Y-12627048D01*
X8075952Y-12627048D02*
X8066428Y-12617524D01*
X8066428Y-12617524D02*
X8066428Y-12636571D01*
X8190238Y-12817524D02*
X8171190Y-12808000D01*
X8171190Y-12808000D02*
X8161667Y-12788952D01*
X8161667Y-12788952D02*
X8161667Y-12617524D01*
X8295000Y-12817524D02*
X8275952Y-12808000D01*
X8275952Y-12808000D02*
X8266428Y-12788952D01*
X8266428Y-12788952D02*
X8266428Y-12617524D01*
X8523571Y-12817524D02*
X8523571Y-12617524D01*
X8523571Y-12617524D02*
X8590238Y-12760381D01*
X8590238Y-12760381D02*
X8656905Y-12617524D01*
X8656905Y-12617524D02*
X8656905Y-12817524D01*
X8837857Y-12817524D02*
X8837857Y-12712762D01*
X8837857Y-12712762D02*
X8828333Y-12693714D01*
X8828333Y-12693714D02*
X8809286Y-12684190D01*
X8809286Y-12684190D02*
X8771190Y-12684190D01*
X8771190Y-12684190D02*
X8752143Y-12693714D01*
X8837857Y-12808000D02*
X8818810Y-12817524D01*
X8818810Y-12817524D02*
X8771190Y-12817524D01*
X8771190Y-12817524D02*
X8752143Y-12808000D01*
X8752143Y-12808000D02*
X8742619Y-12788952D01*
X8742619Y-12788952D02*
X8742619Y-12769905D01*
X8742619Y-12769905D02*
X8752143Y-12750857D01*
X8752143Y-12750857D02*
X8771190Y-12741333D01*
X8771190Y-12741333D02*
X8818810Y-12741333D01*
X8818810Y-12741333D02*
X8837857Y-12731809D01*
X8933095Y-12684190D02*
X8933095Y-12884190D01*
X8933095Y-12693714D02*
X8952143Y-12684190D01*
X8952143Y-12684190D02*
X8990238Y-12684190D01*
X8990238Y-12684190D02*
X9009286Y-12693714D01*
X9009286Y-12693714D02*
X9018810Y-12703238D01*
X9018810Y-12703238D02*
X9028333Y-12722286D01*
X9028333Y-12722286D02*
X9028333Y-12779428D01*
X9028333Y-12779428D02*
X9018810Y-12798476D01*
X9018810Y-12798476D02*
X9009286Y-12808000D01*
X9009286Y-12808000D02*
X8990238Y-12817524D01*
X8990238Y-12817524D02*
X8952143Y-12817524D01*
X8952143Y-12817524D02*
X8933095Y-12808000D01*
X9114048Y-12798476D02*
X9123571Y-12808000D01*
X9123571Y-12808000D02*
X9114048Y-12817524D01*
X9114048Y-12817524D02*
X9104524Y-12808000D01*
X9104524Y-12808000D02*
X9114048Y-12798476D01*
X9114048Y-12798476D02*
X9114048Y-12817524D01*
X9114048Y-12693714D02*
X9123571Y-12703238D01*
X9123571Y-12703238D02*
X9114048Y-12712762D01*
X9114048Y-12712762D02*
X9104524Y-12703238D01*
X9104524Y-12703238D02*
X9114048Y-12693714D01*
X9114048Y-12693714D02*
X9114048Y-12712762D01*
D12*
X7455000Y-13125000D02*
X7495000Y-13165000D01*
X7495000Y-13125000D02*
X7455000Y-13165000D01*
D11*
X7780714Y-13037524D02*
X7799762Y-13037524D01*
X7799762Y-13037524D02*
X7818809Y-13047048D01*
X7818809Y-13047048D02*
X7828333Y-13056571D01*
X7828333Y-13056571D02*
X7837857Y-13075619D01*
X7837857Y-13075619D02*
X7847381Y-13113714D01*
X7847381Y-13113714D02*
X7847381Y-13161333D01*
X7847381Y-13161333D02*
X7837857Y-13199428D01*
X7837857Y-13199428D02*
X7828333Y-13218476D01*
X7828333Y-13218476D02*
X7818809Y-13228000D01*
X7818809Y-13228000D02*
X7799762Y-13237524D01*
X7799762Y-13237524D02*
X7780714Y-13237524D01*
X7780714Y-13237524D02*
X7761667Y-13228000D01*
X7761667Y-13228000D02*
X7752143Y-13218476D01*
X7752143Y-13218476D02*
X7742619Y-13199428D01*
X7742619Y-13199428D02*
X7733095Y-13161333D01*
X7733095Y-13161333D02*
X7733095Y-13113714D01*
X7733095Y-13113714D02*
X7742619Y-13075619D01*
X7742619Y-13075619D02*
X7752143Y-13056571D01*
X7752143Y-13056571D02*
X7761667Y-13047048D01*
X7761667Y-13047048D02*
X7780714Y-13037524D01*
X7933095Y-13218476D02*
X7942619Y-13228000D01*
X7942619Y-13228000D02*
X7933095Y-13237524D01*
X7933095Y-13237524D02*
X7923571Y-13228000D01*
X7923571Y-13228000D02*
X7933095Y-13218476D01*
X7933095Y-13218476D02*
X7933095Y-13237524D01*
X8114048Y-13104190D02*
X8114048Y-13237524D01*
X8066428Y-13028000D02*
X8018809Y-13170857D01*
X8018809Y-13170857D02*
X8142619Y-13170857D01*
X8256905Y-13037524D02*
X8275952Y-13037524D01*
X8275952Y-13037524D02*
X8295000Y-13047048D01*
X8295000Y-13047048D02*
X8304524Y-13056571D01*
X8304524Y-13056571D02*
X8314048Y-13075619D01*
X8314048Y-13075619D02*
X8323571Y-13113714D01*
X8323571Y-13113714D02*
X8323571Y-13161333D01*
X8323571Y-13161333D02*
X8314048Y-13199428D01*
X8314048Y-13199428D02*
X8304524Y-13218476D01*
X8304524Y-13218476D02*
X8295000Y-13228000D01*
X8295000Y-13228000D02*
X8275952Y-13237524D01*
X8275952Y-13237524D02*
X8256905Y-13237524D01*
X8256905Y-13237524D02*
X8237857Y-13228000D01*
X8237857Y-13228000D02*
X8228333Y-13218476D01*
X8228333Y-13218476D02*
X8218809Y-13199428D01*
X8218809Y-13199428D02*
X8209286Y-13161333D01*
X8209286Y-13161333D02*
X8209286Y-13113714D01*
X8209286Y-13113714D02*
X8218809Y-13075619D01*
X8218809Y-13075619D02*
X8228333Y-13056571D01*
X8228333Y-13056571D02*
X8237857Y-13047048D01*
X8237857Y-13047048D02*
X8256905Y-13037524D01*
X8447381Y-13037524D02*
X8466429Y-13037524D01*
X8466429Y-13037524D02*
X8485476Y-13047048D01*
X8485476Y-13047048D02*
X8495000Y-13056571D01*
X8495000Y-13056571D02*
X8504524Y-13075619D01*
X8504524Y-13075619D02*
X8514048Y-13113714D01*
X8514048Y-13113714D02*
X8514048Y-13161333D01*
X8514048Y-13161333D02*
X8504524Y-13199428D01*
X8504524Y-13199428D02*
X8495000Y-13218476D01*
X8495000Y-13218476D02*
X8485476Y-13228000D01*
X8485476Y-13228000D02*
X8466429Y-13237524D01*
X8466429Y-13237524D02*
X8447381Y-13237524D01*
X8447381Y-13237524D02*
X8428333Y-13228000D01*
X8428333Y-13228000D02*
X8418810Y-13218476D01*
X8418810Y-13218476D02*
X8409286Y-13199428D01*
X8409286Y-13199428D02*
X8399762Y-13161333D01*
X8399762Y-13161333D02*
X8399762Y-13113714D01*
X8399762Y-13113714D02*
X8409286Y-13075619D01*
X8409286Y-13075619D02*
X8418810Y-13056571D01*
X8418810Y-13056571D02*
X8428333Y-13047048D01*
X8428333Y-13047048D02*
X8447381Y-13037524D01*
X8599762Y-13237524D02*
X8599762Y-13104190D01*
X8599762Y-13123238D02*
X8609286Y-13113714D01*
X8609286Y-13113714D02*
X8628333Y-13104190D01*
X8628333Y-13104190D02*
X8656905Y-13104190D01*
X8656905Y-13104190D02*
X8675952Y-13113714D01*
X8675952Y-13113714D02*
X8685476Y-13132762D01*
X8685476Y-13132762D02*
X8685476Y-13237524D01*
X8685476Y-13132762D02*
X8695000Y-13113714D01*
X8695000Y-13113714D02*
X8714048Y-13104190D01*
X8714048Y-13104190D02*
X8742619Y-13104190D01*
X8742619Y-13104190D02*
X8761667Y-13113714D01*
X8761667Y-13113714D02*
X8771191Y-13132762D01*
X8771191Y-13132762D02*
X8771191Y-13237524D01*
X8866429Y-13237524D02*
X8866429Y-13104190D01*
X8866429Y-13123238D02*
X8875952Y-13113714D01*
X8875952Y-13113714D02*
X8895000Y-13104190D01*
X8895000Y-13104190D02*
X8923572Y-13104190D01*
X8923572Y-13104190D02*
X8942619Y-13113714D01*
X8942619Y-13113714D02*
X8952143Y-13132762D01*
X8952143Y-13132762D02*
X8952143Y-13237524D01*
X8952143Y-13132762D02*
X8961667Y-13113714D01*
X8961667Y-13113714D02*
X8980714Y-13104190D01*
X8980714Y-13104190D02*
X9009286Y-13104190D01*
X9009286Y-13104190D02*
X9028333Y-13113714D01*
X9028333Y-13113714D02*
X9037857Y-13132762D01*
X9037857Y-13132762D02*
X9037857Y-13237524D01*
X9428333Y-13028000D02*
X9256905Y-13285143D01*
X9685476Y-13037524D02*
X9704524Y-13037524D01*
X9704524Y-13037524D02*
X9723572Y-13047048D01*
X9723572Y-13047048D02*
X9733095Y-13056571D01*
X9733095Y-13056571D02*
X9742619Y-13075619D01*
X9742619Y-13075619D02*
X9752143Y-13113714D01*
X9752143Y-13113714D02*
X9752143Y-13161333D01*
X9752143Y-13161333D02*
X9742619Y-13199428D01*
X9742619Y-13199428D02*
X9733095Y-13218476D01*
X9733095Y-13218476D02*
X9723572Y-13228000D01*
X9723572Y-13228000D02*
X9704524Y-13237524D01*
X9704524Y-13237524D02*
X9685476Y-13237524D01*
X9685476Y-13237524D02*
X9666429Y-13228000D01*
X9666429Y-13228000D02*
X9656905Y-13218476D01*
X9656905Y-13218476D02*
X9647381Y-13199428D01*
X9647381Y-13199428D02*
X9637857Y-13161333D01*
X9637857Y-13161333D02*
X9637857Y-13113714D01*
X9637857Y-13113714D02*
X9647381Y-13075619D01*
X9647381Y-13075619D02*
X9656905Y-13056571D01*
X9656905Y-13056571D02*
X9666429Y-13047048D01*
X9666429Y-13047048D02*
X9685476Y-13037524D01*
X9837857Y-13218476D02*
X9847381Y-13228000D01*
X9847381Y-13228000D02*
X9837857Y-13237524D01*
X9837857Y-13237524D02*
X9828334Y-13228000D01*
X9828334Y-13228000D02*
X9837857Y-13218476D01*
X9837857Y-13218476D02*
X9837857Y-13237524D01*
X9971191Y-13037524D02*
X9990238Y-13037524D01*
X9990238Y-13037524D02*
X10009286Y-13047048D01*
X10009286Y-13047048D02*
X10018810Y-13056571D01*
X10018810Y-13056571D02*
X10028334Y-13075619D01*
X10028334Y-13075619D02*
X10037857Y-13113714D01*
X10037857Y-13113714D02*
X10037857Y-13161333D01*
X10037857Y-13161333D02*
X10028334Y-13199428D01*
X10028334Y-13199428D02*
X10018810Y-13218476D01*
X10018810Y-13218476D02*
X10009286Y-13228000D01*
X10009286Y-13228000D02*
X9990238Y-13237524D01*
X9990238Y-13237524D02*
X9971191Y-13237524D01*
X9971191Y-13237524D02*
X9952143Y-13228000D01*
X9952143Y-13228000D02*
X9942619Y-13218476D01*
X9942619Y-13218476D02*
X9933095Y-13199428D01*
X9933095Y-13199428D02*
X9923572Y-13161333D01*
X9923572Y-13161333D02*
X9923572Y-13113714D01*
X9923572Y-13113714D02*
X9933095Y-13075619D01*
X9933095Y-13075619D02*
X9942619Y-13056571D01*
X9942619Y-13056571D02*
X9952143Y-13047048D01*
X9952143Y-13047048D02*
X9971191Y-13037524D01*
X10228334Y-13237524D02*
X10114048Y-13237524D01*
X10171191Y-13237524D02*
X10171191Y-13037524D01*
X10171191Y-13037524D02*
X10152143Y-13066095D01*
X10152143Y-13066095D02*
X10133095Y-13085143D01*
X10133095Y-13085143D02*
X10114048Y-13094667D01*
X10409286Y-13037524D02*
X10314048Y-13037524D01*
X10314048Y-13037524D02*
X10304524Y-13132762D01*
X10304524Y-13132762D02*
X10314048Y-13123238D01*
X10314048Y-13123238D02*
X10333095Y-13113714D01*
X10333095Y-13113714D02*
X10380715Y-13113714D01*
X10380715Y-13113714D02*
X10399762Y-13123238D01*
X10399762Y-13123238D02*
X10409286Y-13132762D01*
X10409286Y-13132762D02*
X10418810Y-13151809D01*
X10418810Y-13151809D02*
X10418810Y-13199428D01*
X10418810Y-13199428D02*
X10409286Y-13218476D01*
X10409286Y-13218476D02*
X10399762Y-13228000D01*
X10399762Y-13228000D02*
X10380715Y-13237524D01*
X10380715Y-13237524D02*
X10333095Y-13237524D01*
X10333095Y-13237524D02*
X10314048Y-13228000D01*
X10314048Y-13228000D02*
X10304524Y-13218476D01*
X10485476Y-13037524D02*
X10618810Y-13037524D01*
X10618810Y-13037524D02*
X10533095Y-13237524D01*
X10685476Y-13037524D02*
X10685476Y-13075619D01*
X10761667Y-13037524D02*
X10761667Y-13075619D01*
X11056905Y-13313714D02*
X11047381Y-13304190D01*
X11047381Y-13304190D02*
X11028334Y-13275619D01*
X11028334Y-13275619D02*
X11018810Y-13256571D01*
X11018810Y-13256571D02*
X11009286Y-13228000D01*
X11009286Y-13228000D02*
X10999762Y-13180381D01*
X10999762Y-13180381D02*
X10999762Y-13142286D01*
X10999762Y-13142286D02*
X11009286Y-13094667D01*
X11009286Y-13094667D02*
X11018810Y-13066095D01*
X11018810Y-13066095D02*
X11028334Y-13047048D01*
X11028334Y-13047048D02*
X11047381Y-13018476D01*
X11047381Y-13018476D02*
X11056905Y-13008952D01*
X11237857Y-13237524D02*
X11123572Y-13237524D01*
X11180715Y-13237524D02*
X11180715Y-13037524D01*
X11180715Y-13037524D02*
X11161667Y-13066095D01*
X11161667Y-13066095D02*
X11142619Y-13085143D01*
X11142619Y-13085143D02*
X11123572Y-13094667D01*
X11314048Y-13056571D02*
X11323572Y-13047048D01*
X11323572Y-13047048D02*
X11342619Y-13037524D01*
X11342619Y-13037524D02*
X11390238Y-13037524D01*
X11390238Y-13037524D02*
X11409286Y-13047048D01*
X11409286Y-13047048D02*
X11418810Y-13056571D01*
X11418810Y-13056571D02*
X11428334Y-13075619D01*
X11428334Y-13075619D02*
X11428334Y-13094667D01*
X11428334Y-13094667D02*
X11418810Y-13123238D01*
X11418810Y-13123238D02*
X11304524Y-13237524D01*
X11304524Y-13237524D02*
X11428334Y-13237524D01*
X11666429Y-13237524D02*
X11666429Y-13037524D01*
X11752143Y-13237524D02*
X11752143Y-13132762D01*
X11752143Y-13132762D02*
X11742619Y-13113714D01*
X11742619Y-13113714D02*
X11723572Y-13104190D01*
X11723572Y-13104190D02*
X11695000Y-13104190D01*
X11695000Y-13104190D02*
X11675953Y-13113714D01*
X11675953Y-13113714D02*
X11666429Y-13123238D01*
X11875953Y-13237524D02*
X11856905Y-13228000D01*
X11856905Y-13228000D02*
X11847381Y-13218476D01*
X11847381Y-13218476D02*
X11837857Y-13199428D01*
X11837857Y-13199428D02*
X11837857Y-13142286D01*
X11837857Y-13142286D02*
X11847381Y-13123238D01*
X11847381Y-13123238D02*
X11856905Y-13113714D01*
X11856905Y-13113714D02*
X11875953Y-13104190D01*
X11875953Y-13104190D02*
X11904524Y-13104190D01*
X11904524Y-13104190D02*
X11923572Y-13113714D01*
X11923572Y-13113714D02*
X11933096Y-13123238D01*
X11933096Y-13123238D02*
X11942619Y-13142286D01*
X11942619Y-13142286D02*
X11942619Y-13199428D01*
X11942619Y-13199428D02*
X11933096Y-13218476D01*
X11933096Y-13218476D02*
X11923572Y-13228000D01*
X11923572Y-13228000D02*
X11904524Y-13237524D01*
X11904524Y-13237524D02*
X11875953Y-13237524D01*
X12056905Y-13237524D02*
X12037857Y-13228000D01*
X12037857Y-13228000D02*
X12028334Y-13208952D01*
X12028334Y-13208952D02*
X12028334Y-13037524D01*
X12209286Y-13228000D02*
X12190238Y-13237524D01*
X12190238Y-13237524D02*
X12152143Y-13237524D01*
X12152143Y-13237524D02*
X12133096Y-13228000D01*
X12133096Y-13228000D02*
X12123572Y-13208952D01*
X12123572Y-13208952D02*
X12123572Y-13132762D01*
X12123572Y-13132762D02*
X12133096Y-13113714D01*
X12133096Y-13113714D02*
X12152143Y-13104190D01*
X12152143Y-13104190D02*
X12190238Y-13104190D01*
X12190238Y-13104190D02*
X12209286Y-13113714D01*
X12209286Y-13113714D02*
X12218810Y-13132762D01*
X12218810Y-13132762D02*
X12218810Y-13151809D01*
X12218810Y-13151809D02*
X12123572Y-13170857D01*
X12295000Y-13228000D02*
X12314048Y-13237524D01*
X12314048Y-13237524D02*
X12352143Y-13237524D01*
X12352143Y-13237524D02*
X12371191Y-13228000D01*
X12371191Y-13228000D02*
X12380715Y-13208952D01*
X12380715Y-13208952D02*
X12380715Y-13199428D01*
X12380715Y-13199428D02*
X12371191Y-13180381D01*
X12371191Y-13180381D02*
X12352143Y-13170857D01*
X12352143Y-13170857D02*
X12323572Y-13170857D01*
X12323572Y-13170857D02*
X12304524Y-13161333D01*
X12304524Y-13161333D02*
X12295000Y-13142286D01*
X12295000Y-13142286D02*
X12295000Y-13132762D01*
X12295000Y-13132762D02*
X12304524Y-13113714D01*
X12304524Y-13113714D02*
X12323572Y-13104190D01*
X12323572Y-13104190D02*
X12352143Y-13104190D01*
X12352143Y-13104190D02*
X12371191Y-13113714D01*
X12447381Y-13313714D02*
X12456905Y-13304190D01*
X12456905Y-13304190D02*
X12475953Y-13275619D01*
X12475953Y-13275619D02*
X12485477Y-13256571D01*
X12485477Y-13256571D02*
X12495000Y-13228000D01*
X12495000Y-13228000D02*
X12504524Y-13180381D01*
X12504524Y-13180381D02*
X12504524Y-13142286D01*
X12504524Y-13142286D02*
X12495000Y-13094667D01*
X12495000Y-13094667D02*
X12485477Y-13066095D01*
X12485477Y-13066095D02*
X12475953Y-13047048D01*
X12475953Y-13047048D02*
X12456905Y-13018476D01*
X12456905Y-13018476D02*
X12447381Y-13008952D01*
D10*
X7495000Y-13409000D02*
G75*
G03*
X7495000Y-13409000I-50000J0D01*
G01*
D11*
X7847381Y-13501524D02*
X7733095Y-13501524D01*
X7790238Y-13501524D02*
X7790238Y-13301524D01*
X7790238Y-13301524D02*
X7771190Y-13330095D01*
X7771190Y-13330095D02*
X7752143Y-13349143D01*
X7752143Y-13349143D02*
X7733095Y-13358667D01*
X7933095Y-13482476D02*
X7942619Y-13492000D01*
X7942619Y-13492000D02*
X7933095Y-13501524D01*
X7933095Y-13501524D02*
X7923571Y-13492000D01*
X7923571Y-13492000D02*
X7933095Y-13482476D01*
X7933095Y-13482476D02*
X7933095Y-13501524D01*
X8066428Y-13301524D02*
X8085476Y-13301524D01*
X8085476Y-13301524D02*
X8104524Y-13311048D01*
X8104524Y-13311048D02*
X8114048Y-13320571D01*
X8114048Y-13320571D02*
X8123571Y-13339619D01*
X8123571Y-13339619D02*
X8133095Y-13377714D01*
X8133095Y-13377714D02*
X8133095Y-13425333D01*
X8133095Y-13425333D02*
X8123571Y-13463428D01*
X8123571Y-13463428D02*
X8114048Y-13482476D01*
X8114048Y-13482476D02*
X8104524Y-13492000D01*
X8104524Y-13492000D02*
X8085476Y-13501524D01*
X8085476Y-13501524D02*
X8066428Y-13501524D01*
X8066428Y-13501524D02*
X8047381Y-13492000D01*
X8047381Y-13492000D02*
X8037857Y-13482476D01*
X8037857Y-13482476D02*
X8028333Y-13463428D01*
X8028333Y-13463428D02*
X8018809Y-13425333D01*
X8018809Y-13425333D02*
X8018809Y-13377714D01*
X8018809Y-13377714D02*
X8028333Y-13339619D01*
X8028333Y-13339619D02*
X8037857Y-13320571D01*
X8037857Y-13320571D02*
X8047381Y-13311048D01*
X8047381Y-13311048D02*
X8066428Y-13301524D01*
X8256905Y-13301524D02*
X8275952Y-13301524D01*
X8275952Y-13301524D02*
X8295000Y-13311048D01*
X8295000Y-13311048D02*
X8304524Y-13320571D01*
X8304524Y-13320571D02*
X8314048Y-13339619D01*
X8314048Y-13339619D02*
X8323571Y-13377714D01*
X8323571Y-13377714D02*
X8323571Y-13425333D01*
X8323571Y-13425333D02*
X8314048Y-13463428D01*
X8314048Y-13463428D02*
X8304524Y-13482476D01*
X8304524Y-13482476D02*
X8295000Y-13492000D01*
X8295000Y-13492000D02*
X8275952Y-13501524D01*
X8275952Y-13501524D02*
X8256905Y-13501524D01*
X8256905Y-13501524D02*
X8237857Y-13492000D01*
X8237857Y-13492000D02*
X8228333Y-13482476D01*
X8228333Y-13482476D02*
X8218809Y-13463428D01*
X8218809Y-13463428D02*
X8209286Y-13425333D01*
X8209286Y-13425333D02*
X8209286Y-13377714D01*
X8209286Y-13377714D02*
X8218809Y-13339619D01*
X8218809Y-13339619D02*
X8228333Y-13320571D01*
X8228333Y-13320571D02*
X8237857Y-13311048D01*
X8237857Y-13311048D02*
X8256905Y-13301524D01*
X8447381Y-13301524D02*
X8466429Y-13301524D01*
X8466429Y-13301524D02*
X8485476Y-13311048D01*
X8485476Y-13311048D02*
X8495000Y-13320571D01*
X8495000Y-13320571D02*
X8504524Y-13339619D01*
X8504524Y-13339619D02*
X8514048Y-13377714D01*
X8514048Y-13377714D02*
X8514048Y-13425333D01*
X8514048Y-13425333D02*
X8504524Y-13463428D01*
X8504524Y-13463428D02*
X8495000Y-13482476D01*
X8495000Y-13482476D02*
X8485476Y-13492000D01*
X8485476Y-13492000D02*
X8466429Y-13501524D01*
X8466429Y-13501524D02*
X8447381Y-13501524D01*
X8447381Y-13501524D02*
X8428333Y-13492000D01*
X8428333Y-13492000D02*
X8418810Y-13482476D01*
X8418810Y-13482476D02*
X8409286Y-13463428D01*
X8409286Y-13463428D02*
X8399762Y-13425333D01*
X8399762Y-13425333D02*
X8399762Y-13377714D01*
X8399762Y-13377714D02*
X8409286Y-13339619D01*
X8409286Y-13339619D02*
X8418810Y-13320571D01*
X8418810Y-13320571D02*
X8428333Y-13311048D01*
X8428333Y-13311048D02*
X8447381Y-13301524D01*
X8599762Y-13501524D02*
X8599762Y-13368190D01*
X8599762Y-13387238D02*
X8609286Y-13377714D01*
X8609286Y-13377714D02*
X8628333Y-13368190D01*
X8628333Y-13368190D02*
X8656905Y-13368190D01*
X8656905Y-13368190D02*
X8675952Y-13377714D01*
X8675952Y-13377714D02*
X8685476Y-13396762D01*
X8685476Y-13396762D02*
X8685476Y-13501524D01*
X8685476Y-13396762D02*
X8695000Y-13377714D01*
X8695000Y-13377714D02*
X8714048Y-13368190D01*
X8714048Y-13368190D02*
X8742619Y-13368190D01*
X8742619Y-13368190D02*
X8761667Y-13377714D01*
X8761667Y-13377714D02*
X8771191Y-13396762D01*
X8771191Y-13396762D02*
X8771191Y-13501524D01*
X8866429Y-13501524D02*
X8866429Y-13368190D01*
X8866429Y-13387238D02*
X8875952Y-13377714D01*
X8875952Y-13377714D02*
X8895000Y-13368190D01*
X8895000Y-13368190D02*
X8923572Y-13368190D01*
X8923572Y-13368190D02*
X8942619Y-13377714D01*
X8942619Y-13377714D02*
X8952143Y-13396762D01*
X8952143Y-13396762D02*
X8952143Y-13501524D01*
X8952143Y-13396762D02*
X8961667Y-13377714D01*
X8961667Y-13377714D02*
X8980714Y-13368190D01*
X8980714Y-13368190D02*
X9009286Y-13368190D01*
X9009286Y-13368190D02*
X9028333Y-13377714D01*
X9028333Y-13377714D02*
X9037857Y-13396762D01*
X9037857Y-13396762D02*
X9037857Y-13501524D01*
X9428333Y-13292000D02*
X9256905Y-13549143D01*
X9685476Y-13301524D02*
X9704524Y-13301524D01*
X9704524Y-13301524D02*
X9723572Y-13311048D01*
X9723572Y-13311048D02*
X9733095Y-13320571D01*
X9733095Y-13320571D02*
X9742619Y-13339619D01*
X9742619Y-13339619D02*
X9752143Y-13377714D01*
X9752143Y-13377714D02*
X9752143Y-13425333D01*
X9752143Y-13425333D02*
X9742619Y-13463428D01*
X9742619Y-13463428D02*
X9733095Y-13482476D01*
X9733095Y-13482476D02*
X9723572Y-13492000D01*
X9723572Y-13492000D02*
X9704524Y-13501524D01*
X9704524Y-13501524D02*
X9685476Y-13501524D01*
X9685476Y-13501524D02*
X9666429Y-13492000D01*
X9666429Y-13492000D02*
X9656905Y-13482476D01*
X9656905Y-13482476D02*
X9647381Y-13463428D01*
X9647381Y-13463428D02*
X9637857Y-13425333D01*
X9637857Y-13425333D02*
X9637857Y-13377714D01*
X9637857Y-13377714D02*
X9647381Y-13339619D01*
X9647381Y-13339619D02*
X9656905Y-13320571D01*
X9656905Y-13320571D02*
X9666429Y-13311048D01*
X9666429Y-13311048D02*
X9685476Y-13301524D01*
X9837857Y-13482476D02*
X9847381Y-13492000D01*
X9847381Y-13492000D02*
X9837857Y-13501524D01*
X9837857Y-13501524D02*
X9828334Y-13492000D01*
X9828334Y-13492000D02*
X9837857Y-13482476D01*
X9837857Y-13482476D02*
X9837857Y-13501524D01*
X9971191Y-13301524D02*
X9990238Y-13301524D01*
X9990238Y-13301524D02*
X10009286Y-13311048D01*
X10009286Y-13311048D02*
X10018810Y-13320571D01*
X10018810Y-13320571D02*
X10028334Y-13339619D01*
X10028334Y-13339619D02*
X10037857Y-13377714D01*
X10037857Y-13377714D02*
X10037857Y-13425333D01*
X10037857Y-13425333D02*
X10028334Y-13463428D01*
X10028334Y-13463428D02*
X10018810Y-13482476D01*
X10018810Y-13482476D02*
X10009286Y-13492000D01*
X10009286Y-13492000D02*
X9990238Y-13501524D01*
X9990238Y-13501524D02*
X9971191Y-13501524D01*
X9971191Y-13501524D02*
X9952143Y-13492000D01*
X9952143Y-13492000D02*
X9942619Y-13482476D01*
X9942619Y-13482476D02*
X9933095Y-13463428D01*
X9933095Y-13463428D02*
X9923572Y-13425333D01*
X9923572Y-13425333D02*
X9923572Y-13377714D01*
X9923572Y-13377714D02*
X9933095Y-13339619D01*
X9933095Y-13339619D02*
X9942619Y-13320571D01*
X9942619Y-13320571D02*
X9952143Y-13311048D01*
X9952143Y-13311048D02*
X9971191Y-13301524D01*
X10104524Y-13301524D02*
X10228334Y-13301524D01*
X10228334Y-13301524D02*
X10161667Y-13377714D01*
X10161667Y-13377714D02*
X10190238Y-13377714D01*
X10190238Y-13377714D02*
X10209286Y-13387238D01*
X10209286Y-13387238D02*
X10218810Y-13396762D01*
X10218810Y-13396762D02*
X10228334Y-13415809D01*
X10228334Y-13415809D02*
X10228334Y-13463428D01*
X10228334Y-13463428D02*
X10218810Y-13482476D01*
X10218810Y-13482476D02*
X10209286Y-13492000D01*
X10209286Y-13492000D02*
X10190238Y-13501524D01*
X10190238Y-13501524D02*
X10133095Y-13501524D01*
X10133095Y-13501524D02*
X10114048Y-13492000D01*
X10114048Y-13492000D02*
X10104524Y-13482476D01*
X10323572Y-13501524D02*
X10361667Y-13501524D01*
X10361667Y-13501524D02*
X10380715Y-13492000D01*
X10380715Y-13492000D02*
X10390238Y-13482476D01*
X10390238Y-13482476D02*
X10409286Y-13453905D01*
X10409286Y-13453905D02*
X10418810Y-13415809D01*
X10418810Y-13415809D02*
X10418810Y-13339619D01*
X10418810Y-13339619D02*
X10409286Y-13320571D01*
X10409286Y-13320571D02*
X10399762Y-13311048D01*
X10399762Y-13311048D02*
X10380715Y-13301524D01*
X10380715Y-13301524D02*
X10342619Y-13301524D01*
X10342619Y-13301524D02*
X10323572Y-13311048D01*
X10323572Y-13311048D02*
X10314048Y-13320571D01*
X10314048Y-13320571D02*
X10304524Y-13339619D01*
X10304524Y-13339619D02*
X10304524Y-13387238D01*
X10304524Y-13387238D02*
X10314048Y-13406286D01*
X10314048Y-13406286D02*
X10323572Y-13415809D01*
X10323572Y-13415809D02*
X10342619Y-13425333D01*
X10342619Y-13425333D02*
X10380715Y-13425333D01*
X10380715Y-13425333D02*
X10399762Y-13415809D01*
X10399762Y-13415809D02*
X10409286Y-13406286D01*
X10409286Y-13406286D02*
X10418810Y-13387238D01*
X10590238Y-13368190D02*
X10590238Y-13501524D01*
X10542619Y-13292000D02*
X10495000Y-13434857D01*
X10495000Y-13434857D02*
X10618810Y-13434857D01*
X10685476Y-13301524D02*
X10685476Y-13339619D01*
X10761667Y-13301524D02*
X10761667Y-13339619D01*
X11056905Y-13577714D02*
X11047381Y-13568190D01*
X11047381Y-13568190D02*
X11028334Y-13539619D01*
X11028334Y-13539619D02*
X11018810Y-13520571D01*
X11018810Y-13520571D02*
X11009286Y-13492000D01*
X11009286Y-13492000D02*
X10999762Y-13444381D01*
X10999762Y-13444381D02*
X10999762Y-13406286D01*
X10999762Y-13406286D02*
X11009286Y-13358667D01*
X11009286Y-13358667D02*
X11018810Y-13330095D01*
X11018810Y-13330095D02*
X11028334Y-13311048D01*
X11028334Y-13311048D02*
X11047381Y-13282476D01*
X11047381Y-13282476D02*
X11056905Y-13272952D01*
X11218810Y-13368190D02*
X11218810Y-13501524D01*
X11171191Y-13292000D02*
X11123572Y-13434857D01*
X11123572Y-13434857D02*
X11247381Y-13434857D01*
X11409286Y-13301524D02*
X11371191Y-13301524D01*
X11371191Y-13301524D02*
X11352143Y-13311048D01*
X11352143Y-13311048D02*
X11342619Y-13320571D01*
X11342619Y-13320571D02*
X11323572Y-13349143D01*
X11323572Y-13349143D02*
X11314048Y-13387238D01*
X11314048Y-13387238D02*
X11314048Y-13463428D01*
X11314048Y-13463428D02*
X11323572Y-13482476D01*
X11323572Y-13482476D02*
X11333095Y-13492000D01*
X11333095Y-13492000D02*
X11352143Y-13501524D01*
X11352143Y-13501524D02*
X11390238Y-13501524D01*
X11390238Y-13501524D02*
X11409286Y-13492000D01*
X11409286Y-13492000D02*
X11418810Y-13482476D01*
X11418810Y-13482476D02*
X11428334Y-13463428D01*
X11428334Y-13463428D02*
X11428334Y-13415809D01*
X11428334Y-13415809D02*
X11418810Y-13396762D01*
X11418810Y-13396762D02*
X11409286Y-13387238D01*
X11409286Y-13387238D02*
X11390238Y-13377714D01*
X11390238Y-13377714D02*
X11352143Y-13377714D01*
X11352143Y-13377714D02*
X11333095Y-13387238D01*
X11333095Y-13387238D02*
X11323572Y-13396762D01*
X11323572Y-13396762D02*
X11314048Y-13415809D01*
X11666429Y-13501524D02*
X11666429Y-13301524D01*
X11752143Y-13501524D02*
X11752143Y-13396762D01*
X11752143Y-13396762D02*
X11742619Y-13377714D01*
X11742619Y-13377714D02*
X11723572Y-13368190D01*
X11723572Y-13368190D02*
X11695000Y-13368190D01*
X11695000Y-13368190D02*
X11675953Y-13377714D01*
X11675953Y-13377714D02*
X11666429Y-13387238D01*
X11875953Y-13501524D02*
X11856905Y-13492000D01*
X11856905Y-13492000D02*
X11847381Y-13482476D01*
X11847381Y-13482476D02*
X11837857Y-13463428D01*
X11837857Y-13463428D02*
X11837857Y-13406286D01*
X11837857Y-13406286D02*
X11847381Y-13387238D01*
X11847381Y-13387238D02*
X11856905Y-13377714D01*
X11856905Y-13377714D02*
X11875953Y-13368190D01*
X11875953Y-13368190D02*
X11904524Y-13368190D01*
X11904524Y-13368190D02*
X11923572Y-13377714D01*
X11923572Y-13377714D02*
X11933096Y-13387238D01*
X11933096Y-13387238D02*
X11942619Y-13406286D01*
X11942619Y-13406286D02*
X11942619Y-13463428D01*
X11942619Y-13463428D02*
X11933096Y-13482476D01*
X11933096Y-13482476D02*
X11923572Y-13492000D01*
X11923572Y-13492000D02*
X11904524Y-13501524D01*
X11904524Y-13501524D02*
X11875953Y-13501524D01*
X12056905Y-13501524D02*
X12037857Y-13492000D01*
X12037857Y-13492000D02*
X12028334Y-13472952D01*
X12028334Y-13472952D02*
X12028334Y-13301524D01*
X12209286Y-13492000D02*
X12190238Y-13501524D01*
X12190238Y-13501524D02*
X12152143Y-13501524D01*
X12152143Y-13501524D02*
X12133096Y-13492000D01*
X12133096Y-13492000D02*
X12123572Y-13472952D01*
X12123572Y-13472952D02*
X12123572Y-13396762D01*
X12123572Y-13396762D02*
X12133096Y-13377714D01*
X12133096Y-13377714D02*
X12152143Y-13368190D01*
X12152143Y-13368190D02*
X12190238Y-13368190D01*
X12190238Y-13368190D02*
X12209286Y-13377714D01*
X12209286Y-13377714D02*
X12218810Y-13396762D01*
X12218810Y-13396762D02*
X12218810Y-13415809D01*
X12218810Y-13415809D02*
X12123572Y-13434857D01*
X12295000Y-13492000D02*
X12314048Y-13501524D01*
X12314048Y-13501524D02*
X12352143Y-13501524D01*
X12352143Y-13501524D02*
X12371191Y-13492000D01*
X12371191Y-13492000D02*
X12380715Y-13472952D01*
X12380715Y-13472952D02*
X12380715Y-13463428D01*
X12380715Y-13463428D02*
X12371191Y-13444381D01*
X12371191Y-13444381D02*
X12352143Y-13434857D01*
X12352143Y-13434857D02*
X12323572Y-13434857D01*
X12323572Y-13434857D02*
X12304524Y-13425333D01*
X12304524Y-13425333D02*
X12295000Y-13406286D01*
X12295000Y-13406286D02*
X12295000Y-13396762D01*
X12295000Y-13396762D02*
X12304524Y-13377714D01*
X12304524Y-13377714D02*
X12323572Y-13368190D01*
X12323572Y-13368190D02*
X12352143Y-13368190D01*
X12352143Y-13368190D02*
X12371191Y-13377714D01*
X12447381Y-13577714D02*
X12456905Y-13568190D01*
X12456905Y-13568190D02*
X12475953Y-13539619D01*
X12475953Y-13539619D02*
X12485477Y-13520571D01*
X12485477Y-13520571D02*
X12495000Y-13492000D01*
X12495000Y-13492000D02*
X12504524Y-13444381D01*
X12504524Y-13444381D02*
X12504524Y-13406286D01*
X12504524Y-13406286D02*
X12495000Y-13358667D01*
X12495000Y-13358667D02*
X12485477Y-13330095D01*
X12485477Y-13330095D02*
X12475953Y-13311048D01*
X12475953Y-13311048D02*
X12456905Y-13282476D01*
X12456905Y-13282476D02*
X12447381Y-13272952D01*
M02*
